M48
; DRILL file {KiCad (6.0.0-0)} date Saturday, April 16, 2022 at 08:11:26 PM
; FORMAT={-:-/ absolute / metric / decimal}
; #@! TF.CreationDate,2022-04-16T20:11:26-05:00
; #@! TF.GenerationSoftware,Kicad,Pcbnew,(6.0.0-0)
; #@! TF.FileFunction,Plated,1,2,PTH
FMAT,2
METRIC
; #@! TA.AperFunction,Plated,PTH,ComponentDrill
T1C1.000
%
G90
G05
T1
X208.37Y-96.23
X208.37Y-98.77
X210.91Y-96.23
X210.91Y-98.77
X213.45Y-96.23
X213.45Y-98.77
X215.99Y-96.23
X215.99Y-98.77
X218.53Y-96.23
X218.53Y-98.77
X221.07Y-96.23
X221.07Y-98.77
X223.61Y-96.23
X223.61Y-98.77
X226.15Y-96.23
X226.15Y-98.77
X228.69Y-96.23
X228.69Y-98.77
X231.23Y-96.23
X231.23Y-98.77
X233.77Y-96.23
X233.77Y-98.77
X236.31Y-96.23
X236.31Y-98.77
X238.85Y-96.23
X238.85Y-98.77
X241.39Y-96.23
X241.39Y-98.77
X243.93Y-96.23
X243.93Y-98.77
X246.47Y-96.23
X246.47Y-98.77
X249.01Y-96.23
X249.01Y-98.77
X251.55Y-96.23
X251.55Y-98.77
X254.09Y-96.23
X254.09Y-98.77
X256.63Y-96.23
X256.63Y-98.77
T0
M30
