G04 #@! TF.GenerationSoftware,KiCad,Pcbnew,(6.0.0-0)*
G04 #@! TF.CreationDate,2022-04-16T20:11:23-05:00*
G04 #@! TF.ProjectId,rpi_led_board,7270695f-6c65-4645-9f62-6f6172642e6b,rev?*
G04 #@! TF.SameCoordinates,Original*
G04 #@! TF.FileFunction,Legend,Top*
G04 #@! TF.FilePolarity,Positive*
%FSLAX46Y46*%
G04 Gerber Fmt 4.6, Leading zero omitted, Abs format (unit mm)*
G04 Created by KiCad (PCBNEW (6.0.0-0)) date 2022-04-16 20:11:23*
%MOMM*%
%LPD*%
G01*
G04 APERTURE LIST*
G04 Aperture macros list*
%AMRoundRect*
0 Rectangle with rounded corners*
0 $1 Rounding radius*
0 $2 $3 $4 $5 $6 $7 $8 $9 X,Y pos of 4 corners*
0 Add a 4 corners polygon primitive as box body*
4,1,4,$2,$3,$4,$5,$6,$7,$8,$9,$2,$3,0*
0 Add four circle primitives for the rounded corners*
1,1,$1+$1,$2,$3*
1,1,$1+$1,$4,$5*
1,1,$1+$1,$6,$7*
1,1,$1+$1,$8,$9*
0 Add four rect primitives between the rounded corners*
20,1,$1+$1,$2,$3,$4,$5,0*
20,1,$1+$1,$4,$5,$6,$7,0*
20,1,$1+$1,$6,$7,$8,$9,0*
20,1,$1+$1,$8,$9,$2,$3,0*%
G04 Aperture macros list end*
%ADD10C,0.100000*%
%ADD11C,0.120000*%
%ADD12C,2.700000*%
%ADD13RoundRect,0.243750X0.456250X-0.243750X0.456250X0.243750X-0.456250X0.243750X-0.456250X-0.243750X0*%
%ADD14RoundRect,0.250000X-0.450000X0.262500X-0.450000X-0.262500X0.450000X-0.262500X0.450000X0.262500X0*%
%ADD15R,1.700000X1.700000*%
%ADD16O,1.700000X1.700000*%
G04 APERTURE END LIST*
D10*
X230103560Y-114660476D02*
X230055940Y-114755714D01*
X230055940Y-114898571D01*
X230103560Y-115041428D01*
X230198798Y-115136666D01*
X230294036Y-115184285D01*
X230484512Y-115231904D01*
X230627369Y-115231904D01*
X230817845Y-115184285D01*
X230913083Y-115136666D01*
X231008321Y-115041428D01*
X231055940Y-114898571D01*
X231055940Y-114803333D01*
X231008321Y-114660476D01*
X230960702Y-114612857D01*
X230627369Y-114612857D01*
X230627369Y-114803333D01*
X231055940Y-114184285D02*
X230055940Y-114184285D01*
X230055940Y-113803333D01*
X230103560Y-113708095D01*
X230151179Y-113660476D01*
X230246417Y-113612857D01*
X230389274Y-113612857D01*
X230484512Y-113660476D01*
X230532131Y-113708095D01*
X230579750Y-113803333D01*
X230579750Y-114184285D01*
X230055940Y-112993809D02*
X230055940Y-112898571D01*
X230103560Y-112803333D01*
X230151179Y-112755714D01*
X230246417Y-112708095D01*
X230436893Y-112660476D01*
X230674988Y-112660476D01*
X230865464Y-112708095D01*
X230960702Y-112755714D01*
X231008321Y-112803333D01*
X231055940Y-112898571D01*
X231055940Y-112993809D01*
X231008321Y-113089047D01*
X230960702Y-113136666D01*
X230865464Y-113184285D01*
X230674988Y-113231904D01*
X230436893Y-113231904D01*
X230246417Y-113184285D01*
X230151179Y-113136666D01*
X230103560Y-113089047D01*
X230055940Y-112993809D01*
X231055940Y-112184285D02*
X231055940Y-111993809D01*
X231008321Y-111898571D01*
X230960702Y-111850952D01*
X230817845Y-111755714D01*
X230627369Y-111708095D01*
X230246417Y-111708095D01*
X230151179Y-111755714D01*
X230103560Y-111803333D01*
X230055940Y-111898571D01*
X230055940Y-112089047D01*
X230103560Y-112184285D01*
X230151179Y-112231904D01*
X230246417Y-112279523D01*
X230484512Y-112279523D01*
X230579750Y-112231904D01*
X230627369Y-112184285D01*
X230674988Y-112089047D01*
X230674988Y-111898571D01*
X230627369Y-111803333D01*
X230579750Y-111755714D01*
X230484512Y-111708095D01*
X230065706Y-101463333D02*
X230099040Y-101430000D01*
X230165706Y-101396666D01*
X230332373Y-101396666D01*
X230399040Y-101430000D01*
X230432373Y-101463333D01*
X230465706Y-101530000D01*
X230465706Y-101596666D01*
X230432373Y-101696666D01*
X230032373Y-102096666D01*
X230465706Y-102096666D01*
X231132373Y-102096666D02*
X230732373Y-102096666D01*
X230932373Y-102096666D02*
X230932373Y-101396666D01*
X230865706Y-101496666D01*
X230799040Y-101563333D01*
X230732373Y-101596666D01*
X218091426Y-110806666D02*
X217691426Y-110806666D01*
X217891426Y-110806666D02*
X217891426Y-110106666D01*
X217824760Y-110206666D01*
X217758093Y-110273333D01*
X217691426Y-110306666D01*
X218358093Y-110173333D02*
X218391426Y-110140000D01*
X218458093Y-110106666D01*
X218624760Y-110106666D01*
X218691426Y-110140000D01*
X218724760Y-110173333D01*
X218758093Y-110240000D01*
X218758093Y-110306666D01*
X218724760Y-110406666D01*
X218324760Y-110806666D01*
X218758093Y-110806666D01*
X242439986Y-110173333D02*
X242473320Y-110140000D01*
X242539986Y-110106666D01*
X242706653Y-110106666D01*
X242773320Y-110140000D01*
X242806653Y-110173333D01*
X242839986Y-110240000D01*
X242839986Y-110306666D01*
X242806653Y-110406666D01*
X242406653Y-110806666D01*
X242839986Y-110806666D01*
X243239986Y-110406666D02*
X243173320Y-110373333D01*
X243139986Y-110340000D01*
X243106653Y-110273333D01*
X243106653Y-110240000D01*
X243139986Y-110173333D01*
X243173320Y-110140000D01*
X243239986Y-110106666D01*
X243373320Y-110106666D01*
X243439986Y-110140000D01*
X243473320Y-110173333D01*
X243506653Y-110240000D01*
X243506653Y-110273333D01*
X243473320Y-110340000D01*
X243439986Y-110373333D01*
X243373320Y-110406666D01*
X243239986Y-110406666D01*
X243173320Y-110440000D01*
X243139986Y-110473333D01*
X243106653Y-110540000D01*
X243106653Y-110673333D01*
X243139986Y-110740000D01*
X243173320Y-110773333D01*
X243239986Y-110806666D01*
X243373320Y-110806666D01*
X243439986Y-110773333D01*
X243473320Y-110740000D01*
X243506653Y-110673333D01*
X243506653Y-110540000D01*
X243473320Y-110473333D01*
X243439986Y-110440000D01*
X243373320Y-110406666D01*
X230065706Y-110173333D02*
X230099040Y-110140000D01*
X230165706Y-110106666D01*
X230332373Y-110106666D01*
X230399040Y-110140000D01*
X230432373Y-110173333D01*
X230465706Y-110240000D01*
X230465706Y-110306666D01*
X230432373Y-110406666D01*
X230032373Y-110806666D01*
X230465706Y-110806666D01*
X231132373Y-110806666D02*
X230732373Y-110806666D01*
X230932373Y-110806666D02*
X230932373Y-110106666D01*
X230865706Y-110206666D01*
X230799040Y-110273333D01*
X230732373Y-110306666D01*
X236252846Y-101463333D02*
X236286180Y-101430000D01*
X236352846Y-101396666D01*
X236519513Y-101396666D01*
X236586180Y-101430000D01*
X236619513Y-101463333D01*
X236652846Y-101530000D01*
X236652846Y-101596666D01*
X236619513Y-101696666D01*
X236219513Y-102096666D01*
X236652846Y-102096666D01*
X237252846Y-101630000D02*
X237252846Y-102096666D01*
X237086180Y-101363333D02*
X236919513Y-101863333D01*
X237352846Y-101863333D01*
X234190466Y-101463333D02*
X234223800Y-101430000D01*
X234290466Y-101396666D01*
X234457133Y-101396666D01*
X234523800Y-101430000D01*
X234557133Y-101463333D01*
X234590466Y-101530000D01*
X234590466Y-101596666D01*
X234557133Y-101696666D01*
X234157133Y-102096666D01*
X234590466Y-102096666D01*
X234823800Y-101396666D02*
X235257133Y-101396666D01*
X235023800Y-101663333D01*
X235123800Y-101663333D01*
X235190466Y-101696666D01*
X235223800Y-101730000D01*
X235257133Y-101796666D01*
X235257133Y-101963333D01*
X235223800Y-102030000D01*
X235190466Y-102063333D01*
X235123800Y-102096666D01*
X234923800Y-102096666D01*
X234857133Y-102063333D01*
X234823800Y-102030000D01*
X256914500Y-114660476D02*
X256866880Y-114755714D01*
X256866880Y-114898571D01*
X256914500Y-115041428D01*
X257009738Y-115136666D01*
X257104976Y-115184285D01*
X257295452Y-115231904D01*
X257438309Y-115231904D01*
X257628785Y-115184285D01*
X257724023Y-115136666D01*
X257819261Y-115041428D01*
X257866880Y-114898571D01*
X257866880Y-114803333D01*
X257819261Y-114660476D01*
X257771642Y-114612857D01*
X257438309Y-114612857D01*
X257438309Y-114803333D01*
X257866880Y-114184285D02*
X256866880Y-114184285D01*
X256866880Y-113803333D01*
X256914500Y-113708095D01*
X256962119Y-113660476D01*
X257057357Y-113612857D01*
X257200214Y-113612857D01*
X257295452Y-113660476D01*
X257343071Y-113708095D01*
X257390690Y-113803333D01*
X257390690Y-114184285D01*
X256962119Y-113231904D02*
X256914500Y-113184285D01*
X256866880Y-113089047D01*
X256866880Y-112850952D01*
X256914500Y-112755714D01*
X256962119Y-112708095D01*
X257057357Y-112660476D01*
X257152595Y-112660476D01*
X257295452Y-112708095D01*
X257866880Y-113279523D01*
X257866880Y-112660476D01*
X256866880Y-111803333D02*
X256866880Y-111993809D01*
X256914500Y-112089047D01*
X256962119Y-112136666D01*
X257104976Y-112231904D01*
X257295452Y-112279523D01*
X257676404Y-112279523D01*
X257771642Y-112231904D01*
X257819261Y-112184285D01*
X257866880Y-112089047D01*
X257866880Y-111898571D01*
X257819261Y-111803333D01*
X257771642Y-111755714D01*
X257676404Y-111708095D01*
X257438309Y-111708095D01*
X257343071Y-111755714D01*
X257295452Y-111803333D01*
X257247833Y-111898571D01*
X257247833Y-112089047D01*
X257295452Y-112184285D01*
X257343071Y-112231904D01*
X257438309Y-112279523D01*
X220153806Y-110806666D02*
X219753806Y-110806666D01*
X219953806Y-110806666D02*
X219953806Y-110106666D01*
X219887140Y-110206666D01*
X219820473Y-110273333D01*
X219753806Y-110306666D01*
X220387140Y-110106666D02*
X220820473Y-110106666D01*
X220587140Y-110373333D01*
X220687140Y-110373333D01*
X220753806Y-110406666D01*
X220787140Y-110440000D01*
X220820473Y-110506666D01*
X220820473Y-110673333D01*
X220787140Y-110740000D01*
X220753806Y-110773333D01*
X220687140Y-110806666D01*
X220487140Y-110806666D01*
X220420473Y-110773333D01*
X220387140Y-110740000D01*
X205355000Y-114660476D02*
X205307380Y-114755714D01*
X205307380Y-114898571D01*
X205355000Y-115041428D01*
X205450238Y-115136666D01*
X205545476Y-115184285D01*
X205735952Y-115231904D01*
X205878809Y-115231904D01*
X206069285Y-115184285D01*
X206164523Y-115136666D01*
X206259761Y-115041428D01*
X206307380Y-114898571D01*
X206307380Y-114803333D01*
X206259761Y-114660476D01*
X206212142Y-114612857D01*
X205878809Y-114612857D01*
X205878809Y-114803333D01*
X206307380Y-114184285D02*
X205307380Y-114184285D01*
X205307380Y-113803333D01*
X205355000Y-113708095D01*
X205402619Y-113660476D01*
X205497857Y-113612857D01*
X205640714Y-113612857D01*
X205735952Y-113660476D01*
X205783571Y-113708095D01*
X205831190Y-113803333D01*
X205831190Y-114184285D01*
X205307380Y-112993809D02*
X205307380Y-112898571D01*
X205355000Y-112803333D01*
X205402619Y-112755714D01*
X205497857Y-112708095D01*
X205688333Y-112660476D01*
X205926428Y-112660476D01*
X206116904Y-112708095D01*
X206212142Y-112755714D01*
X206259761Y-112803333D01*
X206307380Y-112898571D01*
X206307380Y-112993809D01*
X206259761Y-113089047D01*
X206212142Y-113136666D01*
X206116904Y-113184285D01*
X205926428Y-113231904D01*
X205688333Y-113231904D01*
X205497857Y-113184285D01*
X205402619Y-113136666D01*
X205355000Y-113089047D01*
X205307380Y-112993809D01*
X205402619Y-112279523D02*
X205355000Y-112231904D01*
X205307380Y-112136666D01*
X205307380Y-111898571D01*
X205355000Y-111803333D01*
X205402619Y-111755714D01*
X205497857Y-111708095D01*
X205593095Y-111708095D01*
X205735952Y-111755714D01*
X206307380Y-112327142D01*
X206307380Y-111708095D01*
X248593793Y-110106666D02*
X249027126Y-110106666D01*
X248793793Y-110373333D01*
X248893793Y-110373333D01*
X248960460Y-110406666D01*
X248993793Y-110440000D01*
X249027126Y-110506666D01*
X249027126Y-110673333D01*
X248993793Y-110740000D01*
X248960460Y-110773333D01*
X248893793Y-110806666D01*
X248693793Y-110806666D01*
X248627126Y-110773333D01*
X248593793Y-110740000D01*
X249293793Y-110173333D02*
X249327126Y-110140000D01*
X249393793Y-110106666D01*
X249560460Y-110106666D01*
X249627126Y-110140000D01*
X249660460Y-110173333D01*
X249693793Y-110240000D01*
X249693793Y-110306666D01*
X249660460Y-110406666D01*
X249260460Y-110806666D01*
X249693793Y-110806666D01*
X201292380Y-113538571D02*
X201292380Y-112919523D01*
X201673333Y-113252857D01*
X201673333Y-113110000D01*
X201720952Y-113014761D01*
X201768571Y-112967142D01*
X201863809Y-112919523D01*
X202101904Y-112919523D01*
X202197142Y-112967142D01*
X202244761Y-113014761D01*
X202292380Y-113110000D01*
X202292380Y-113395714D01*
X202244761Y-113490952D01*
X202197142Y-113538571D01*
X202197142Y-112490952D02*
X202244761Y-112443333D01*
X202292380Y-112490952D01*
X202244761Y-112538571D01*
X202197142Y-112490952D01*
X202292380Y-112490952D01*
X201292380Y-112110000D02*
X201292380Y-111490952D01*
X201673333Y-111824285D01*
X201673333Y-111681428D01*
X201720952Y-111586190D01*
X201768571Y-111538571D01*
X201863809Y-111490952D01*
X202101904Y-111490952D01*
X202197142Y-111538571D01*
X202244761Y-111586190D01*
X202292380Y-111681428D01*
X202292380Y-111967142D01*
X202244761Y-112062380D01*
X202197142Y-112110000D01*
X201625714Y-111157619D02*
X202292380Y-110919523D01*
X201625714Y-110681428D01*
X209479760Y-114660476D02*
X209432140Y-114755714D01*
X209432140Y-114898571D01*
X209479760Y-115041428D01*
X209574998Y-115136666D01*
X209670236Y-115184285D01*
X209860712Y-115231904D01*
X210003569Y-115231904D01*
X210194045Y-115184285D01*
X210289283Y-115136666D01*
X210384521Y-115041428D01*
X210432140Y-114898571D01*
X210432140Y-114803333D01*
X210384521Y-114660476D01*
X210336902Y-114612857D01*
X210003569Y-114612857D01*
X210003569Y-114803333D01*
X210432140Y-114184285D02*
X209432140Y-114184285D01*
X209432140Y-113803333D01*
X209479760Y-113708095D01*
X209527379Y-113660476D01*
X209622617Y-113612857D01*
X209765474Y-113612857D01*
X209860712Y-113660476D01*
X209908331Y-113708095D01*
X209955950Y-113803333D01*
X209955950Y-114184285D01*
X209432140Y-112993809D02*
X209432140Y-112898571D01*
X209479760Y-112803333D01*
X209527379Y-112755714D01*
X209622617Y-112708095D01*
X209813093Y-112660476D01*
X210051188Y-112660476D01*
X210241664Y-112708095D01*
X210336902Y-112755714D01*
X210384521Y-112803333D01*
X210432140Y-112898571D01*
X210432140Y-112993809D01*
X210384521Y-113089047D01*
X210336902Y-113136666D01*
X210241664Y-113184285D01*
X210051188Y-113231904D01*
X209813093Y-113231904D01*
X209622617Y-113184285D01*
X209527379Y-113136666D01*
X209479760Y-113089047D01*
X209432140Y-112993809D01*
X209765474Y-111803333D02*
X210432140Y-111803333D01*
X209384521Y-112041428D02*
X210098807Y-112279523D01*
X210098807Y-111660476D01*
X226340946Y-102096666D02*
X225940946Y-102096666D01*
X226140946Y-102096666D02*
X226140946Y-101396666D01*
X226074280Y-101496666D01*
X226007613Y-101563333D01*
X225940946Y-101596666D01*
X226740946Y-101696666D02*
X226674280Y-101663333D01*
X226640946Y-101630000D01*
X226607613Y-101563333D01*
X226607613Y-101530000D01*
X226640946Y-101463333D01*
X226674280Y-101430000D01*
X226740946Y-101396666D01*
X226874280Y-101396666D01*
X226940946Y-101430000D01*
X226974280Y-101463333D01*
X227007613Y-101530000D01*
X227007613Y-101563333D01*
X226974280Y-101630000D01*
X226940946Y-101663333D01*
X226874280Y-101696666D01*
X226740946Y-101696666D01*
X226674280Y-101730000D01*
X226640946Y-101763333D01*
X226607613Y-101830000D01*
X226607613Y-101963333D01*
X226640946Y-102030000D01*
X226674280Y-102063333D01*
X226740946Y-102096666D01*
X226874280Y-102096666D01*
X226940946Y-102063333D01*
X226974280Y-102030000D01*
X227007613Y-101963333D01*
X227007613Y-101830000D01*
X226974280Y-101763333D01*
X226940946Y-101730000D01*
X226874280Y-101696666D01*
X246531413Y-110106666D02*
X246964746Y-110106666D01*
X246731413Y-110373333D01*
X246831413Y-110373333D01*
X246898080Y-110406666D01*
X246931413Y-110440000D01*
X246964746Y-110506666D01*
X246964746Y-110673333D01*
X246931413Y-110740000D01*
X246898080Y-110773333D01*
X246831413Y-110806666D01*
X246631413Y-110806666D01*
X246564746Y-110773333D01*
X246531413Y-110740000D01*
X247631413Y-110806666D02*
X247231413Y-110806666D01*
X247431413Y-110806666D02*
X247431413Y-110106666D01*
X247364746Y-110206666D01*
X247298080Y-110273333D01*
X247231413Y-110306666D01*
X244502366Y-110173333D02*
X244535700Y-110140000D01*
X244602366Y-110106666D01*
X244769033Y-110106666D01*
X244835700Y-110140000D01*
X244869033Y-110173333D01*
X244902366Y-110240000D01*
X244902366Y-110306666D01*
X244869033Y-110406666D01*
X244469033Y-110806666D01*
X244902366Y-110806666D01*
X245235700Y-110806666D02*
X245369033Y-110806666D01*
X245435700Y-110773333D01*
X245469033Y-110740000D01*
X245535700Y-110640000D01*
X245569033Y-110506666D01*
X245569033Y-110240000D01*
X245535700Y-110173333D01*
X245502366Y-110140000D01*
X245435700Y-110106666D01*
X245302366Y-110106666D01*
X245235700Y-110140000D01*
X245202366Y-110173333D01*
X245169033Y-110240000D01*
X245169033Y-110406666D01*
X245202366Y-110473333D01*
X245235700Y-110506666D01*
X245302366Y-110540000D01*
X245435700Y-110540000D01*
X245502366Y-110506666D01*
X245535700Y-110473333D01*
X245569033Y-110406666D01*
X246531413Y-101396666D02*
X246964746Y-101396666D01*
X246731413Y-101663333D01*
X246831413Y-101663333D01*
X246898080Y-101696666D01*
X246931413Y-101730000D01*
X246964746Y-101796666D01*
X246964746Y-101963333D01*
X246931413Y-102030000D01*
X246898080Y-102063333D01*
X246831413Y-102096666D01*
X246631413Y-102096666D01*
X246564746Y-102063333D01*
X246531413Y-102030000D01*
X247631413Y-102096666D02*
X247231413Y-102096666D01*
X247431413Y-102096666D02*
X247431413Y-101396666D01*
X247364746Y-101496666D01*
X247298080Y-101563333D01*
X247231413Y-101596666D01*
X250656173Y-101396666D02*
X251089506Y-101396666D01*
X250856173Y-101663333D01*
X250956173Y-101663333D01*
X251022840Y-101696666D01*
X251056173Y-101730000D01*
X251089506Y-101796666D01*
X251089506Y-101963333D01*
X251056173Y-102030000D01*
X251022840Y-102063333D01*
X250956173Y-102096666D01*
X250756173Y-102096666D01*
X250689506Y-102063333D01*
X250656173Y-102030000D01*
X251322840Y-101396666D02*
X251756173Y-101396666D01*
X251522840Y-101663333D01*
X251622840Y-101663333D01*
X251689506Y-101696666D01*
X251722840Y-101730000D01*
X251756173Y-101796666D01*
X251756173Y-101963333D01*
X251722840Y-102030000D01*
X251689506Y-102063333D01*
X251622840Y-102096666D01*
X251422840Y-102096666D01*
X251356173Y-102063333D01*
X251322840Y-102030000D01*
X256843313Y-110106666D02*
X257276646Y-110106666D01*
X257043313Y-110373333D01*
X257143313Y-110373333D01*
X257209980Y-110406666D01*
X257243313Y-110440000D01*
X257276646Y-110506666D01*
X257276646Y-110673333D01*
X257243313Y-110740000D01*
X257209980Y-110773333D01*
X257143313Y-110806666D01*
X256943313Y-110806666D01*
X256876646Y-110773333D01*
X256843313Y-110740000D01*
X257509980Y-110106666D02*
X257976646Y-110106666D01*
X257676646Y-110806666D01*
X250727360Y-114660476D02*
X250679740Y-114755714D01*
X250679740Y-114898571D01*
X250727360Y-115041428D01*
X250822598Y-115136666D01*
X250917836Y-115184285D01*
X251108312Y-115231904D01*
X251251169Y-115231904D01*
X251441645Y-115184285D01*
X251536883Y-115136666D01*
X251632121Y-115041428D01*
X251679740Y-114898571D01*
X251679740Y-114803333D01*
X251632121Y-114660476D01*
X251584502Y-114612857D01*
X251251169Y-114612857D01*
X251251169Y-114803333D01*
X251679740Y-114184285D02*
X250679740Y-114184285D01*
X250679740Y-113803333D01*
X250727360Y-113708095D01*
X250774979Y-113660476D01*
X250870217Y-113612857D01*
X251013074Y-113612857D01*
X251108312Y-113660476D01*
X251155931Y-113708095D01*
X251203550Y-113803333D01*
X251203550Y-114184285D01*
X251679740Y-112660476D02*
X251679740Y-113231904D01*
X251679740Y-112946190D02*
X250679740Y-112946190D01*
X250822598Y-113041428D01*
X250917836Y-113136666D01*
X250965455Y-113231904D01*
X250679740Y-112327142D02*
X250679740Y-111708095D01*
X251060693Y-112041428D01*
X251060693Y-111898571D01*
X251108312Y-111803333D01*
X251155931Y-111755714D01*
X251251169Y-111708095D01*
X251489264Y-111708095D01*
X251584502Y-111755714D01*
X251632121Y-111803333D01*
X251679740Y-111898571D01*
X251679740Y-112184285D01*
X251632121Y-112279523D01*
X251584502Y-112327142D01*
X218091426Y-102096666D02*
X217691426Y-102096666D01*
X217891426Y-102096666D02*
X217891426Y-101396666D01*
X217824760Y-101496666D01*
X217758093Y-101563333D01*
X217691426Y-101596666D01*
X218358093Y-101463333D02*
X218391426Y-101430000D01*
X218458093Y-101396666D01*
X218624760Y-101396666D01*
X218691426Y-101430000D01*
X218724760Y-101463333D01*
X218758093Y-101530000D01*
X218758093Y-101596666D01*
X218724760Y-101696666D01*
X218324760Y-102096666D01*
X218758093Y-102096666D01*
X261334758Y-101630000D02*
X261334758Y-102096666D01*
X261168091Y-101363333D02*
X261001424Y-101863333D01*
X261434758Y-101863333D01*
X261834758Y-101396666D02*
X261901424Y-101396666D01*
X261968091Y-101430000D01*
X262001424Y-101463333D01*
X262034758Y-101530000D01*
X262068091Y-101663333D01*
X262068091Y-101830000D01*
X262034758Y-101963333D01*
X262001424Y-102030000D01*
X261968091Y-102063333D01*
X261901424Y-102096666D01*
X261834758Y-102096666D01*
X261768091Y-102063333D01*
X261734758Y-102030000D01*
X261701424Y-101963333D01*
X261668091Y-101830000D01*
X261668091Y-101663333D01*
X261701424Y-101530000D01*
X261734758Y-101463333D01*
X261768091Y-101430000D01*
X261834758Y-101396666D01*
X215666900Y-114660476D02*
X215619280Y-114755714D01*
X215619280Y-114898571D01*
X215666900Y-115041428D01*
X215762138Y-115136666D01*
X215857376Y-115184285D01*
X216047852Y-115231904D01*
X216190709Y-115231904D01*
X216381185Y-115184285D01*
X216476423Y-115136666D01*
X216571661Y-115041428D01*
X216619280Y-114898571D01*
X216619280Y-114803333D01*
X216571661Y-114660476D01*
X216524042Y-114612857D01*
X216190709Y-114612857D01*
X216190709Y-114803333D01*
X216619280Y-114184285D02*
X215619280Y-114184285D01*
X215619280Y-113803333D01*
X215666900Y-113708095D01*
X215714519Y-113660476D01*
X215809757Y-113612857D01*
X215952614Y-113612857D01*
X216047852Y-113660476D01*
X216095471Y-113708095D01*
X216143090Y-113803333D01*
X216143090Y-114184285D01*
X216619280Y-112660476D02*
X216619280Y-113231904D01*
X216619280Y-112946190D02*
X215619280Y-112946190D01*
X215762138Y-113041428D01*
X215857376Y-113136666D01*
X215904995Y-113231904D01*
X215619280Y-112327142D02*
X215619280Y-111660476D01*
X216619280Y-112089047D01*
X228403326Y-102096666D02*
X228003326Y-102096666D01*
X228203326Y-102096666D02*
X228203326Y-101396666D01*
X228136660Y-101496666D01*
X228069993Y-101563333D01*
X228003326Y-101596666D01*
X228736660Y-102096666D02*
X228869993Y-102096666D01*
X228936660Y-102063333D01*
X228969993Y-102030000D01*
X229036660Y-101930000D01*
X229069993Y-101796666D01*
X229069993Y-101530000D01*
X229036660Y-101463333D01*
X229003326Y-101430000D01*
X228936660Y-101396666D01*
X228803326Y-101396666D01*
X228736660Y-101430000D01*
X228703326Y-101463333D01*
X228669993Y-101530000D01*
X228669993Y-101696666D01*
X228703326Y-101763333D01*
X228736660Y-101796666D01*
X228803326Y-101830000D01*
X228936660Y-101830000D01*
X229003326Y-101796666D01*
X229036660Y-101763333D01*
X229069993Y-101696666D01*
X222216186Y-102096666D02*
X221816186Y-102096666D01*
X222016186Y-102096666D02*
X222016186Y-101396666D01*
X221949520Y-101496666D01*
X221882853Y-101563333D01*
X221816186Y-101596666D01*
X222849520Y-101396666D02*
X222516186Y-101396666D01*
X222482853Y-101730000D01*
X222516186Y-101696666D01*
X222582853Y-101663333D01*
X222749520Y-101663333D01*
X222816186Y-101696666D01*
X222849520Y-101730000D01*
X222882853Y-101796666D01*
X222882853Y-101963333D01*
X222849520Y-102030000D01*
X222816186Y-102063333D01*
X222749520Y-102096666D01*
X222582853Y-102096666D01*
X222516186Y-102063333D01*
X222482853Y-102030000D01*
X223916420Y-114660476D02*
X223868800Y-114755714D01*
X223868800Y-114898571D01*
X223916420Y-115041428D01*
X224011658Y-115136666D01*
X224106896Y-115184285D01*
X224297372Y-115231904D01*
X224440229Y-115231904D01*
X224630705Y-115184285D01*
X224725943Y-115136666D01*
X224821181Y-115041428D01*
X224868800Y-114898571D01*
X224868800Y-114803333D01*
X224821181Y-114660476D01*
X224773562Y-114612857D01*
X224440229Y-114612857D01*
X224440229Y-114803333D01*
X224868800Y-114184285D02*
X223868800Y-114184285D01*
X223868800Y-113803333D01*
X223916420Y-113708095D01*
X223964039Y-113660476D01*
X224059277Y-113612857D01*
X224202134Y-113612857D01*
X224297372Y-113660476D01*
X224344991Y-113708095D01*
X224392610Y-113803333D01*
X224392610Y-114184285D01*
X223964039Y-113231904D02*
X223916420Y-113184285D01*
X223868800Y-113089047D01*
X223868800Y-112850952D01*
X223916420Y-112755714D01*
X223964039Y-112708095D01*
X224059277Y-112660476D01*
X224154515Y-112660476D01*
X224297372Y-112708095D01*
X224868800Y-113279523D01*
X224868800Y-112660476D01*
X223868800Y-112327142D02*
X223868800Y-111708095D01*
X224249753Y-112041428D01*
X224249753Y-111898571D01*
X224297372Y-111803333D01*
X224344991Y-111755714D01*
X224440229Y-111708095D01*
X224678324Y-111708095D01*
X224773562Y-111755714D01*
X224821181Y-111803333D01*
X224868800Y-111898571D01*
X224868800Y-112184285D01*
X224821181Y-112279523D01*
X224773562Y-112327142D01*
X250656173Y-110106666D02*
X251089506Y-110106666D01*
X250856173Y-110373333D01*
X250956173Y-110373333D01*
X251022840Y-110406666D01*
X251056173Y-110440000D01*
X251089506Y-110506666D01*
X251089506Y-110673333D01*
X251056173Y-110740000D01*
X251022840Y-110773333D01*
X250956173Y-110806666D01*
X250756173Y-110806666D01*
X250689506Y-110773333D01*
X250656173Y-110740000D01*
X251322840Y-110106666D02*
X251756173Y-110106666D01*
X251522840Y-110373333D01*
X251622840Y-110373333D01*
X251689506Y-110406666D01*
X251722840Y-110440000D01*
X251756173Y-110506666D01*
X251756173Y-110673333D01*
X251722840Y-110740000D01*
X251689506Y-110773333D01*
X251622840Y-110806666D01*
X251422840Y-110806666D01*
X251356173Y-110773333D01*
X251322840Y-110740000D01*
X220153806Y-102096666D02*
X219753806Y-102096666D01*
X219953806Y-102096666D02*
X219953806Y-101396666D01*
X219887140Y-101496666D01*
X219820473Y-101563333D01*
X219753806Y-101596666D01*
X220387140Y-101396666D02*
X220820473Y-101396666D01*
X220587140Y-101663333D01*
X220687140Y-101663333D01*
X220753806Y-101696666D01*
X220787140Y-101730000D01*
X220820473Y-101796666D01*
X220820473Y-101963333D01*
X220787140Y-102030000D01*
X220753806Y-102063333D01*
X220687140Y-102096666D01*
X220487140Y-102096666D01*
X220420473Y-102063333D01*
X220387140Y-102030000D01*
X213604520Y-114660476D02*
X213556900Y-114755714D01*
X213556900Y-114898571D01*
X213604520Y-115041428D01*
X213699758Y-115136666D01*
X213794996Y-115184285D01*
X213985472Y-115231904D01*
X214128329Y-115231904D01*
X214318805Y-115184285D01*
X214414043Y-115136666D01*
X214509281Y-115041428D01*
X214556900Y-114898571D01*
X214556900Y-114803333D01*
X214509281Y-114660476D01*
X214461662Y-114612857D01*
X214128329Y-114612857D01*
X214128329Y-114803333D01*
X214556900Y-114184285D02*
X213556900Y-114184285D01*
X213556900Y-113803333D01*
X213604520Y-113708095D01*
X213652139Y-113660476D01*
X213747377Y-113612857D01*
X213890234Y-113612857D01*
X213985472Y-113660476D01*
X214033091Y-113708095D01*
X214080710Y-113803333D01*
X214080710Y-114184285D01*
X214556900Y-112660476D02*
X214556900Y-113231904D01*
X214556900Y-112946190D02*
X213556900Y-112946190D01*
X213699758Y-113041428D01*
X213794996Y-113136666D01*
X213842615Y-113231904D01*
X213556900Y-111755714D02*
X213556900Y-112231904D01*
X214033091Y-112279523D01*
X213985472Y-112231904D01*
X213937853Y-112136666D01*
X213937853Y-111898571D01*
X213985472Y-111803333D01*
X214033091Y-111755714D01*
X214128329Y-111708095D01*
X214366424Y-111708095D01*
X214461662Y-111755714D01*
X214509281Y-111803333D01*
X214556900Y-111898571D01*
X214556900Y-112136666D01*
X214509281Y-112231904D01*
X214461662Y-112279523D01*
X209608573Y-110106666D02*
X209675240Y-110106666D01*
X209741906Y-110140000D01*
X209775240Y-110173333D01*
X209808573Y-110240000D01*
X209841906Y-110373333D01*
X209841906Y-110540000D01*
X209808573Y-110673333D01*
X209775240Y-110740000D01*
X209741906Y-110773333D01*
X209675240Y-110806666D01*
X209608573Y-110806666D01*
X209541906Y-110773333D01*
X209508573Y-110740000D01*
X209475240Y-110673333D01*
X209441906Y-110540000D01*
X209441906Y-110373333D01*
X209475240Y-110240000D01*
X209508573Y-110173333D01*
X209541906Y-110140000D01*
X209608573Y-110106666D01*
X210075240Y-110106666D02*
X210541906Y-110106666D01*
X210241906Y-110806666D01*
X213966666Y-102096666D02*
X213566666Y-102096666D01*
X213766666Y-102096666D02*
X213766666Y-101396666D01*
X213700000Y-101496666D01*
X213633333Y-101563333D01*
X213566666Y-101596666D01*
X214400000Y-101396666D02*
X214466666Y-101396666D01*
X214533333Y-101430000D01*
X214566666Y-101463333D01*
X214600000Y-101530000D01*
X214633333Y-101663333D01*
X214633333Y-101830000D01*
X214600000Y-101963333D01*
X214566666Y-102030000D01*
X214533333Y-102063333D01*
X214466666Y-102096666D01*
X214400000Y-102096666D01*
X214333333Y-102063333D01*
X214300000Y-102030000D01*
X214266666Y-101963333D01*
X214233333Y-101830000D01*
X214233333Y-101663333D01*
X214266666Y-101530000D01*
X214300000Y-101463333D01*
X214333333Y-101430000D01*
X214400000Y-101396666D01*
X238353080Y-114660476D02*
X238305460Y-114755714D01*
X238305460Y-114898571D01*
X238353080Y-115041428D01*
X238448318Y-115136666D01*
X238543556Y-115184285D01*
X238734032Y-115231904D01*
X238876889Y-115231904D01*
X239067365Y-115184285D01*
X239162603Y-115136666D01*
X239257841Y-115041428D01*
X239305460Y-114898571D01*
X239305460Y-114803333D01*
X239257841Y-114660476D01*
X239210222Y-114612857D01*
X238876889Y-114612857D01*
X238876889Y-114803333D01*
X239305460Y-114184285D02*
X238305460Y-114184285D01*
X238305460Y-113803333D01*
X238353080Y-113708095D01*
X238400699Y-113660476D01*
X238495937Y-113612857D01*
X238638794Y-113612857D01*
X238734032Y-113660476D01*
X238781651Y-113708095D01*
X238829270Y-113803333D01*
X238829270Y-114184285D01*
X238305460Y-112993809D02*
X238305460Y-112898571D01*
X238353080Y-112803333D01*
X238400699Y-112755714D01*
X238495937Y-112708095D01*
X238686413Y-112660476D01*
X238924508Y-112660476D01*
X239114984Y-112708095D01*
X239210222Y-112755714D01*
X239257841Y-112803333D01*
X239305460Y-112898571D01*
X239305460Y-112993809D01*
X239257841Y-113089047D01*
X239210222Y-113136666D01*
X239114984Y-113184285D01*
X238924508Y-113231904D01*
X238686413Y-113231904D01*
X238495937Y-113184285D01*
X238400699Y-113136666D01*
X238353080Y-113089047D01*
X238305460Y-112993809D01*
X238305460Y-112327142D02*
X238305460Y-111660476D01*
X239305460Y-112089047D01*
X258905693Y-101396666D02*
X259339026Y-101396666D01*
X259105693Y-101663333D01*
X259205693Y-101663333D01*
X259272360Y-101696666D01*
X259305693Y-101730000D01*
X259339026Y-101796666D01*
X259339026Y-101963333D01*
X259305693Y-102030000D01*
X259272360Y-102063333D01*
X259205693Y-102096666D01*
X259005693Y-102096666D01*
X258939026Y-102063333D01*
X258905693Y-102030000D01*
X259739026Y-101696666D02*
X259672360Y-101663333D01*
X259639026Y-101630000D01*
X259605693Y-101563333D01*
X259605693Y-101530000D01*
X259639026Y-101463333D01*
X259672360Y-101430000D01*
X259739026Y-101396666D01*
X259872360Y-101396666D01*
X259939026Y-101430000D01*
X259972360Y-101463333D01*
X260005693Y-101530000D01*
X260005693Y-101563333D01*
X259972360Y-101630000D01*
X259939026Y-101663333D01*
X259872360Y-101696666D01*
X259739026Y-101696666D01*
X259672360Y-101730000D01*
X259639026Y-101763333D01*
X259605693Y-101830000D01*
X259605693Y-101963333D01*
X259639026Y-102030000D01*
X259672360Y-102063333D01*
X259739026Y-102096666D01*
X259872360Y-102096666D01*
X259939026Y-102063333D01*
X259972360Y-102030000D01*
X260005693Y-101963333D01*
X260005693Y-101830000D01*
X259972360Y-101763333D01*
X259939026Y-101730000D01*
X259872360Y-101696666D01*
X256843313Y-101396666D02*
X257276646Y-101396666D01*
X257043313Y-101663333D01*
X257143313Y-101663333D01*
X257209980Y-101696666D01*
X257243313Y-101730000D01*
X257276646Y-101796666D01*
X257276646Y-101963333D01*
X257243313Y-102030000D01*
X257209980Y-102063333D01*
X257143313Y-102096666D01*
X256943313Y-102096666D01*
X256876646Y-102063333D01*
X256843313Y-102030000D01*
X257509980Y-101396666D02*
X257976646Y-101396666D01*
X257676646Y-102096666D01*
X205483813Y-110106666D02*
X205550480Y-110106666D01*
X205617146Y-110140000D01*
X205650480Y-110173333D01*
X205683813Y-110240000D01*
X205717146Y-110373333D01*
X205717146Y-110540000D01*
X205683813Y-110673333D01*
X205650480Y-110740000D01*
X205617146Y-110773333D01*
X205550480Y-110806666D01*
X205483813Y-110806666D01*
X205417146Y-110773333D01*
X205383813Y-110740000D01*
X205350480Y-110673333D01*
X205317146Y-110540000D01*
X205317146Y-110373333D01*
X205350480Y-110240000D01*
X205383813Y-110173333D01*
X205417146Y-110140000D01*
X205483813Y-110106666D01*
X205950480Y-110106666D02*
X206383813Y-110106666D01*
X206150480Y-110373333D01*
X206250480Y-110373333D01*
X206317146Y-110406666D01*
X206350480Y-110440000D01*
X206383813Y-110506666D01*
X206383813Y-110673333D01*
X206350480Y-110740000D01*
X206317146Y-110773333D01*
X206250480Y-110806666D01*
X206050480Y-110806666D01*
X205983813Y-110773333D01*
X205950480Y-110740000D01*
X240377606Y-101463333D02*
X240410940Y-101430000D01*
X240477606Y-101396666D01*
X240644273Y-101396666D01*
X240710940Y-101430000D01*
X240744273Y-101463333D01*
X240777606Y-101530000D01*
X240777606Y-101596666D01*
X240744273Y-101696666D01*
X240344273Y-102096666D01*
X240777606Y-102096666D01*
X241010940Y-101396666D02*
X241477606Y-101396666D01*
X241177606Y-102096666D01*
X236290700Y-114660476D02*
X236243080Y-114755714D01*
X236243080Y-114898571D01*
X236290700Y-115041428D01*
X236385938Y-115136666D01*
X236481176Y-115184285D01*
X236671652Y-115231904D01*
X236814509Y-115231904D01*
X237004985Y-115184285D01*
X237100223Y-115136666D01*
X237195461Y-115041428D01*
X237243080Y-114898571D01*
X237243080Y-114803333D01*
X237195461Y-114660476D01*
X237147842Y-114612857D01*
X236814509Y-114612857D01*
X236814509Y-114803333D01*
X237243080Y-114184285D02*
X236243080Y-114184285D01*
X236243080Y-113803333D01*
X236290700Y-113708095D01*
X236338319Y-113660476D01*
X236433557Y-113612857D01*
X236576414Y-113612857D01*
X236671652Y-113660476D01*
X236719271Y-113708095D01*
X236766890Y-113803333D01*
X236766890Y-114184285D01*
X236243080Y-112993809D02*
X236243080Y-112898571D01*
X236290700Y-112803333D01*
X236338319Y-112755714D01*
X236433557Y-112708095D01*
X236624033Y-112660476D01*
X236862128Y-112660476D01*
X237052604Y-112708095D01*
X237147842Y-112755714D01*
X237195461Y-112803333D01*
X237243080Y-112898571D01*
X237243080Y-112993809D01*
X237195461Y-113089047D01*
X237147842Y-113136666D01*
X237052604Y-113184285D01*
X236862128Y-113231904D01*
X236624033Y-113231904D01*
X236433557Y-113184285D01*
X236338319Y-113136666D01*
X236290700Y-113089047D01*
X236243080Y-112993809D01*
X236671652Y-112089047D02*
X236624033Y-112184285D01*
X236576414Y-112231904D01*
X236481176Y-112279523D01*
X236433557Y-112279523D01*
X236338319Y-112231904D01*
X236290700Y-112184285D01*
X236243080Y-112089047D01*
X236243080Y-111898571D01*
X236290700Y-111803333D01*
X236338319Y-111755714D01*
X236433557Y-111708095D01*
X236481176Y-111708095D01*
X236576414Y-111755714D01*
X236624033Y-111803333D01*
X236671652Y-111898571D01*
X236671652Y-112089047D01*
X236719271Y-112184285D01*
X236766890Y-112231904D01*
X236862128Y-112279523D01*
X237052604Y-112279523D01*
X237147842Y-112231904D01*
X237195461Y-112184285D01*
X237243080Y-112089047D01*
X237243080Y-111898571D01*
X237195461Y-111803333D01*
X237147842Y-111755714D01*
X237052604Y-111708095D01*
X236862128Y-111708095D01*
X236766890Y-111755714D01*
X236719271Y-111803333D01*
X236671652Y-111898571D01*
X207417380Y-114660476D02*
X207369760Y-114755714D01*
X207369760Y-114898571D01*
X207417380Y-115041428D01*
X207512618Y-115136666D01*
X207607856Y-115184285D01*
X207798332Y-115231904D01*
X207941189Y-115231904D01*
X208131665Y-115184285D01*
X208226903Y-115136666D01*
X208322141Y-115041428D01*
X208369760Y-114898571D01*
X208369760Y-114803333D01*
X208322141Y-114660476D01*
X208274522Y-114612857D01*
X207941189Y-114612857D01*
X207941189Y-114803333D01*
X208369760Y-114184285D02*
X207369760Y-114184285D01*
X207369760Y-113803333D01*
X207417380Y-113708095D01*
X207464999Y-113660476D01*
X207560237Y-113612857D01*
X207703094Y-113612857D01*
X207798332Y-113660476D01*
X207845951Y-113708095D01*
X207893570Y-113803333D01*
X207893570Y-114184285D01*
X207369760Y-112993809D02*
X207369760Y-112898571D01*
X207417380Y-112803333D01*
X207464999Y-112755714D01*
X207560237Y-112708095D01*
X207750713Y-112660476D01*
X207988808Y-112660476D01*
X208179284Y-112708095D01*
X208274522Y-112755714D01*
X208322141Y-112803333D01*
X208369760Y-112898571D01*
X208369760Y-112993809D01*
X208322141Y-113089047D01*
X208274522Y-113136666D01*
X208179284Y-113184285D01*
X207988808Y-113231904D01*
X207750713Y-113231904D01*
X207560237Y-113184285D01*
X207464999Y-113136666D01*
X207417380Y-113089047D01*
X207369760Y-112993809D01*
X207369760Y-112327142D02*
X207369760Y-111708095D01*
X207750713Y-112041428D01*
X207750713Y-111898571D01*
X207798332Y-111803333D01*
X207845951Y-111755714D01*
X207941189Y-111708095D01*
X208179284Y-111708095D01*
X208274522Y-111755714D01*
X208322141Y-111803333D01*
X208369760Y-111898571D01*
X208369760Y-112184285D01*
X208322141Y-112279523D01*
X208274522Y-112327142D01*
X258976880Y-114660476D02*
X258929260Y-114755714D01*
X258929260Y-114898571D01*
X258976880Y-115041428D01*
X259072118Y-115136666D01*
X259167356Y-115184285D01*
X259357832Y-115231904D01*
X259500689Y-115231904D01*
X259691165Y-115184285D01*
X259786403Y-115136666D01*
X259881641Y-115041428D01*
X259929260Y-114898571D01*
X259929260Y-114803333D01*
X259881641Y-114660476D01*
X259834022Y-114612857D01*
X259500689Y-114612857D01*
X259500689Y-114803333D01*
X259929260Y-114184285D02*
X258929260Y-114184285D01*
X258929260Y-113803333D01*
X258976880Y-113708095D01*
X259024499Y-113660476D01*
X259119737Y-113612857D01*
X259262594Y-113612857D01*
X259357832Y-113660476D01*
X259405451Y-113708095D01*
X259453070Y-113803333D01*
X259453070Y-114184285D01*
X259024499Y-113231904D02*
X258976880Y-113184285D01*
X258929260Y-113089047D01*
X258929260Y-112850952D01*
X258976880Y-112755714D01*
X259024499Y-112708095D01*
X259119737Y-112660476D01*
X259214975Y-112660476D01*
X259357832Y-112708095D01*
X259929260Y-113279523D01*
X259929260Y-112660476D01*
X258929260Y-112041428D02*
X258929260Y-111946190D01*
X258976880Y-111850952D01*
X259024499Y-111803333D01*
X259119737Y-111755714D01*
X259310213Y-111708095D01*
X259548308Y-111708095D01*
X259738784Y-111755714D01*
X259834022Y-111803333D01*
X259881641Y-111850952D01*
X259929260Y-111946190D01*
X259929260Y-112041428D01*
X259881641Y-112136666D01*
X259834022Y-112184285D01*
X259738784Y-112231904D01*
X259548308Y-112279523D01*
X259310213Y-112279523D01*
X259119737Y-112231904D01*
X259024499Y-112184285D01*
X258976880Y-112136666D01*
X258929260Y-112041428D01*
X225978800Y-114660476D02*
X225931180Y-114755714D01*
X225931180Y-114898571D01*
X225978800Y-115041428D01*
X226074038Y-115136666D01*
X226169276Y-115184285D01*
X226359752Y-115231904D01*
X226502609Y-115231904D01*
X226693085Y-115184285D01*
X226788323Y-115136666D01*
X226883561Y-115041428D01*
X226931180Y-114898571D01*
X226931180Y-114803333D01*
X226883561Y-114660476D01*
X226835942Y-114612857D01*
X226502609Y-114612857D01*
X226502609Y-114803333D01*
X226931180Y-114184285D02*
X225931180Y-114184285D01*
X225931180Y-113803333D01*
X225978800Y-113708095D01*
X226026419Y-113660476D01*
X226121657Y-113612857D01*
X226264514Y-113612857D01*
X226359752Y-113660476D01*
X226407371Y-113708095D01*
X226454990Y-113803333D01*
X226454990Y-114184285D01*
X226026419Y-113231904D02*
X225978800Y-113184285D01*
X225931180Y-113089047D01*
X225931180Y-112850952D01*
X225978800Y-112755714D01*
X226026419Y-112708095D01*
X226121657Y-112660476D01*
X226216895Y-112660476D01*
X226359752Y-112708095D01*
X226931180Y-113279523D01*
X226931180Y-112660476D01*
X226264514Y-111803333D02*
X226931180Y-111803333D01*
X225883561Y-112041428D02*
X226597847Y-112279523D01*
X226597847Y-111660476D01*
X241367840Y-115327142D02*
X240367840Y-115327142D01*
X241367840Y-114850952D02*
X240367840Y-114850952D01*
X240367840Y-114612857D01*
X240415460Y-114470000D01*
X240510698Y-114374761D01*
X240605936Y-114327142D01*
X240796412Y-114279523D01*
X240939269Y-114279523D01*
X241129745Y-114327142D01*
X241224983Y-114374761D01*
X241320221Y-114470000D01*
X241367840Y-114612857D01*
X241367840Y-114850952D01*
X241463079Y-114089047D02*
X241463079Y-113327142D01*
X241320221Y-113136666D02*
X241367840Y-112993809D01*
X241367840Y-112755714D01*
X241320221Y-112660476D01*
X241272602Y-112612857D01*
X241177364Y-112565238D01*
X241082126Y-112565238D01*
X240986888Y-112612857D01*
X240939269Y-112660476D01*
X240891650Y-112755714D01*
X240844031Y-112946190D01*
X240796412Y-113041428D01*
X240748793Y-113089047D01*
X240653555Y-113136666D01*
X240558317Y-113136666D01*
X240463079Y-113089047D01*
X240415460Y-113041428D01*
X240367840Y-112946190D01*
X240367840Y-112708095D01*
X240415460Y-112565238D01*
X241367840Y-112136666D02*
X240367840Y-112136666D01*
X240367840Y-111898571D01*
X240415460Y-111755714D01*
X240510698Y-111660476D01*
X240605936Y-111612857D01*
X240796412Y-111565238D01*
X240939269Y-111565238D01*
X241129745Y-111612857D01*
X241224983Y-111660476D01*
X241320221Y-111755714D01*
X241367840Y-111898571D01*
X241367840Y-112136666D01*
X238315226Y-101463333D02*
X238348560Y-101430000D01*
X238415226Y-101396666D01*
X238581893Y-101396666D01*
X238648560Y-101430000D01*
X238681893Y-101463333D01*
X238715226Y-101530000D01*
X238715226Y-101596666D01*
X238681893Y-101696666D01*
X238281893Y-102096666D01*
X238715226Y-102096666D01*
X239315226Y-101396666D02*
X239181893Y-101396666D01*
X239115226Y-101430000D01*
X239081893Y-101463333D01*
X239015226Y-101563333D01*
X238981893Y-101696666D01*
X238981893Y-101963333D01*
X239015226Y-102030000D01*
X239048560Y-102063333D01*
X239115226Y-102096666D01*
X239248560Y-102096666D01*
X239315226Y-102063333D01*
X239348560Y-102030000D01*
X239381893Y-101963333D01*
X239381893Y-101796666D01*
X239348560Y-101730000D01*
X239315226Y-101696666D01*
X239248560Y-101663333D01*
X239115226Y-101663333D01*
X239048560Y-101696666D01*
X239015226Y-101730000D01*
X238981893Y-101796666D01*
X236252846Y-110173333D02*
X236286180Y-110140000D01*
X236352846Y-110106666D01*
X236519513Y-110106666D01*
X236586180Y-110140000D01*
X236619513Y-110173333D01*
X236652846Y-110240000D01*
X236652846Y-110306666D01*
X236619513Y-110406666D01*
X236219513Y-110806666D01*
X236652846Y-110806666D01*
X237252846Y-110340000D02*
X237252846Y-110806666D01*
X237086180Y-110073333D02*
X236919513Y-110573333D01*
X237352846Y-110573333D01*
X248593793Y-101396666D02*
X249027126Y-101396666D01*
X248793793Y-101663333D01*
X248893793Y-101663333D01*
X248960460Y-101696666D01*
X248993793Y-101730000D01*
X249027126Y-101796666D01*
X249027126Y-101963333D01*
X248993793Y-102030000D01*
X248960460Y-102063333D01*
X248893793Y-102096666D01*
X248693793Y-102096666D01*
X248627126Y-102063333D01*
X248593793Y-102030000D01*
X249293793Y-101463333D02*
X249327126Y-101430000D01*
X249393793Y-101396666D01*
X249560460Y-101396666D01*
X249627126Y-101430000D01*
X249660460Y-101463333D01*
X249693793Y-101530000D01*
X249693793Y-101596666D01*
X249660460Y-101696666D01*
X249260460Y-102096666D01*
X249693793Y-102096666D01*
X205483813Y-101396666D02*
X205550480Y-101396666D01*
X205617146Y-101430000D01*
X205650480Y-101463333D01*
X205683813Y-101530000D01*
X205717146Y-101663333D01*
X205717146Y-101830000D01*
X205683813Y-101963333D01*
X205650480Y-102030000D01*
X205617146Y-102063333D01*
X205550480Y-102096666D01*
X205483813Y-102096666D01*
X205417146Y-102063333D01*
X205383813Y-102030000D01*
X205350480Y-101963333D01*
X205317146Y-101830000D01*
X205317146Y-101663333D01*
X205350480Y-101530000D01*
X205383813Y-101463333D01*
X205417146Y-101430000D01*
X205483813Y-101396666D01*
X205950480Y-101396666D02*
X206383813Y-101396666D01*
X206150480Y-101663333D01*
X206250480Y-101663333D01*
X206317146Y-101696666D01*
X206350480Y-101730000D01*
X206383813Y-101796666D01*
X206383813Y-101963333D01*
X206350480Y-102030000D01*
X206317146Y-102063333D01*
X206250480Y-102096666D01*
X206050480Y-102096666D01*
X205983813Y-102063333D01*
X205950480Y-102030000D01*
X221854040Y-114660476D02*
X221806420Y-114755714D01*
X221806420Y-114898571D01*
X221854040Y-115041428D01*
X221949278Y-115136666D01*
X222044516Y-115184285D01*
X222234992Y-115231904D01*
X222377849Y-115231904D01*
X222568325Y-115184285D01*
X222663563Y-115136666D01*
X222758801Y-115041428D01*
X222806420Y-114898571D01*
X222806420Y-114803333D01*
X222758801Y-114660476D01*
X222711182Y-114612857D01*
X222377849Y-114612857D01*
X222377849Y-114803333D01*
X222806420Y-114184285D02*
X221806420Y-114184285D01*
X221806420Y-113803333D01*
X221854040Y-113708095D01*
X221901659Y-113660476D01*
X221996897Y-113612857D01*
X222139754Y-113612857D01*
X222234992Y-113660476D01*
X222282611Y-113708095D01*
X222330230Y-113803333D01*
X222330230Y-114184285D01*
X221901659Y-113231904D02*
X221854040Y-113184285D01*
X221806420Y-113089047D01*
X221806420Y-112850952D01*
X221854040Y-112755714D01*
X221901659Y-112708095D01*
X221996897Y-112660476D01*
X222092135Y-112660476D01*
X222234992Y-112708095D01*
X222806420Y-113279523D01*
X222806420Y-112660476D01*
X221901659Y-112279523D02*
X221854040Y-112231904D01*
X221806420Y-112136666D01*
X221806420Y-111898571D01*
X221854040Y-111803333D01*
X221901659Y-111755714D01*
X221996897Y-111708095D01*
X222092135Y-111708095D01*
X222234992Y-111755714D01*
X222806420Y-112327142D01*
X222806420Y-111708095D01*
X207546193Y-110106666D02*
X207612860Y-110106666D01*
X207679526Y-110140000D01*
X207712860Y-110173333D01*
X207746193Y-110240000D01*
X207779526Y-110373333D01*
X207779526Y-110540000D01*
X207746193Y-110673333D01*
X207712860Y-110740000D01*
X207679526Y-110773333D01*
X207612860Y-110806666D01*
X207546193Y-110806666D01*
X207479526Y-110773333D01*
X207446193Y-110740000D01*
X207412860Y-110673333D01*
X207379526Y-110540000D01*
X207379526Y-110373333D01*
X207412860Y-110240000D01*
X207446193Y-110173333D01*
X207479526Y-110140000D01*
X207546193Y-110106666D01*
X208412860Y-110106666D02*
X208079526Y-110106666D01*
X208046193Y-110440000D01*
X208079526Y-110406666D01*
X208146193Y-110373333D01*
X208312860Y-110373333D01*
X208379526Y-110406666D01*
X208412860Y-110440000D01*
X208446193Y-110506666D01*
X208446193Y-110673333D01*
X208412860Y-110740000D01*
X208379526Y-110773333D01*
X208312860Y-110806666D01*
X208146193Y-110806666D01*
X208079526Y-110773333D01*
X208046193Y-110740000D01*
X261039278Y-114660476D02*
X260991658Y-114755714D01*
X260991658Y-114898571D01*
X261039278Y-115041428D01*
X261134516Y-115136666D01*
X261229754Y-115184285D01*
X261420230Y-115231904D01*
X261563087Y-115231904D01*
X261753563Y-115184285D01*
X261848801Y-115136666D01*
X261944039Y-115041428D01*
X261991658Y-114898571D01*
X261991658Y-114803333D01*
X261944039Y-114660476D01*
X261896420Y-114612857D01*
X261563087Y-114612857D01*
X261563087Y-114803333D01*
X261991658Y-114184285D02*
X260991658Y-114184285D01*
X260991658Y-113803333D01*
X261039278Y-113708095D01*
X261086897Y-113660476D01*
X261182135Y-113612857D01*
X261324992Y-113612857D01*
X261420230Y-113660476D01*
X261467849Y-113708095D01*
X261515468Y-113803333D01*
X261515468Y-114184285D01*
X261086897Y-113231904D02*
X261039278Y-113184285D01*
X260991658Y-113089047D01*
X260991658Y-112850952D01*
X261039278Y-112755714D01*
X261086897Y-112708095D01*
X261182135Y-112660476D01*
X261277373Y-112660476D01*
X261420230Y-112708095D01*
X261991658Y-113279523D01*
X261991658Y-112660476D01*
X261991658Y-111708095D02*
X261991658Y-112279523D01*
X261991658Y-111993809D02*
X260991658Y-111993809D01*
X261134516Y-112089047D01*
X261229754Y-112184285D01*
X261277373Y-112279523D01*
X254852120Y-114660476D02*
X254804500Y-114755714D01*
X254804500Y-114898571D01*
X254852120Y-115041428D01*
X254947358Y-115136666D01*
X255042596Y-115184285D01*
X255233072Y-115231904D01*
X255375929Y-115231904D01*
X255566405Y-115184285D01*
X255661643Y-115136666D01*
X255756881Y-115041428D01*
X255804500Y-114898571D01*
X255804500Y-114803333D01*
X255756881Y-114660476D01*
X255709262Y-114612857D01*
X255375929Y-114612857D01*
X255375929Y-114803333D01*
X255804500Y-114184285D02*
X254804500Y-114184285D01*
X254804500Y-113803333D01*
X254852120Y-113708095D01*
X254899739Y-113660476D01*
X254994977Y-113612857D01*
X255137834Y-113612857D01*
X255233072Y-113660476D01*
X255280691Y-113708095D01*
X255328310Y-113803333D01*
X255328310Y-114184285D01*
X255804500Y-112660476D02*
X255804500Y-113231904D01*
X255804500Y-112946190D02*
X254804500Y-112946190D01*
X254947358Y-113041428D01*
X255042596Y-113136666D01*
X255090215Y-113231904D01*
X254804500Y-111803333D02*
X254804500Y-111993809D01*
X254852120Y-112089047D01*
X254899739Y-112136666D01*
X255042596Y-112231904D01*
X255233072Y-112279523D01*
X255614024Y-112279523D01*
X255709262Y-112231904D01*
X255756881Y-112184285D01*
X255804500Y-112089047D01*
X255804500Y-111898571D01*
X255756881Y-111803333D01*
X255709262Y-111755714D01*
X255614024Y-111708095D01*
X255375929Y-111708095D01*
X255280691Y-111755714D01*
X255233072Y-111803333D01*
X255185453Y-111898571D01*
X255185453Y-112089047D01*
X255233072Y-112184285D01*
X255280691Y-112231904D01*
X255375929Y-112279523D01*
X224278566Y-110806666D02*
X223878566Y-110806666D01*
X224078566Y-110806666D02*
X224078566Y-110106666D01*
X224011900Y-110206666D01*
X223945233Y-110273333D01*
X223878566Y-110306666D01*
X224878566Y-110106666D02*
X224745233Y-110106666D01*
X224678566Y-110140000D01*
X224645233Y-110173333D01*
X224578566Y-110273333D01*
X224545233Y-110406666D01*
X224545233Y-110673333D01*
X224578566Y-110740000D01*
X224611900Y-110773333D01*
X224678566Y-110806666D01*
X224811900Y-110806666D01*
X224878566Y-110773333D01*
X224911900Y-110740000D01*
X224945233Y-110673333D01*
X224945233Y-110506666D01*
X224911900Y-110440000D01*
X224878566Y-110406666D01*
X224811900Y-110373333D01*
X224678566Y-110373333D01*
X224611900Y-110406666D01*
X224578566Y-110440000D01*
X224545233Y-110506666D01*
X222216186Y-110806666D02*
X221816186Y-110806666D01*
X222016186Y-110806666D02*
X222016186Y-110106666D01*
X221949520Y-110206666D01*
X221882853Y-110273333D01*
X221816186Y-110306666D01*
X222849520Y-110106666D02*
X222516186Y-110106666D01*
X222482853Y-110440000D01*
X222516186Y-110406666D01*
X222582853Y-110373333D01*
X222749520Y-110373333D01*
X222816186Y-110406666D01*
X222849520Y-110440000D01*
X222882853Y-110506666D01*
X222882853Y-110673333D01*
X222849520Y-110740000D01*
X222816186Y-110773333D01*
X222749520Y-110806666D01*
X222582853Y-110806666D01*
X222516186Y-110773333D01*
X222482853Y-110740000D01*
X224278566Y-102096666D02*
X223878566Y-102096666D01*
X224078566Y-102096666D02*
X224078566Y-101396666D01*
X224011900Y-101496666D01*
X223945233Y-101563333D01*
X223878566Y-101596666D01*
X224878566Y-101396666D02*
X224745233Y-101396666D01*
X224678566Y-101430000D01*
X224645233Y-101463333D01*
X224578566Y-101563333D01*
X224545233Y-101696666D01*
X224545233Y-101963333D01*
X224578566Y-102030000D01*
X224611900Y-102063333D01*
X224678566Y-102096666D01*
X224811900Y-102096666D01*
X224878566Y-102063333D01*
X224911900Y-102030000D01*
X224945233Y-101963333D01*
X224945233Y-101796666D01*
X224911900Y-101730000D01*
X224878566Y-101696666D01*
X224811900Y-101663333D01*
X224678566Y-101663333D01*
X224611900Y-101696666D01*
X224578566Y-101730000D01*
X224545233Y-101796666D01*
X232128086Y-101463333D02*
X232161420Y-101430000D01*
X232228086Y-101396666D01*
X232394753Y-101396666D01*
X232461420Y-101430000D01*
X232494753Y-101463333D01*
X232528086Y-101530000D01*
X232528086Y-101596666D01*
X232494753Y-101696666D01*
X232094753Y-102096666D01*
X232528086Y-102096666D01*
X232794753Y-101463333D02*
X232828086Y-101430000D01*
X232894753Y-101396666D01*
X233061420Y-101396666D01*
X233128086Y-101430000D01*
X233161420Y-101463333D01*
X233194753Y-101530000D01*
X233194753Y-101596666D01*
X233161420Y-101696666D01*
X232761420Y-102096666D01*
X233194753Y-102096666D01*
X254780933Y-110106666D02*
X255214266Y-110106666D01*
X254980933Y-110373333D01*
X255080933Y-110373333D01*
X255147600Y-110406666D01*
X255180933Y-110440000D01*
X255214266Y-110506666D01*
X255214266Y-110673333D01*
X255180933Y-110740000D01*
X255147600Y-110773333D01*
X255080933Y-110806666D01*
X254880933Y-110806666D01*
X254814266Y-110773333D01*
X254780933Y-110740000D01*
X255814266Y-110106666D02*
X255680933Y-110106666D01*
X255614266Y-110140000D01*
X255580933Y-110173333D01*
X255514266Y-110273333D01*
X255480933Y-110406666D01*
X255480933Y-110673333D01*
X255514266Y-110740000D01*
X255547600Y-110773333D01*
X255614266Y-110806666D01*
X255747600Y-110806666D01*
X255814266Y-110773333D01*
X255847600Y-110740000D01*
X255880933Y-110673333D01*
X255880933Y-110506666D01*
X255847600Y-110440000D01*
X255814266Y-110406666D01*
X255747600Y-110373333D01*
X255614266Y-110373333D01*
X255547600Y-110406666D01*
X255514266Y-110440000D01*
X255480933Y-110506666D01*
X252718553Y-101396666D02*
X253151886Y-101396666D01*
X252918553Y-101663333D01*
X253018553Y-101663333D01*
X253085220Y-101696666D01*
X253118553Y-101730000D01*
X253151886Y-101796666D01*
X253151886Y-101963333D01*
X253118553Y-102030000D01*
X253085220Y-102063333D01*
X253018553Y-102096666D01*
X252818553Y-102096666D01*
X252751886Y-102063333D01*
X252718553Y-102030000D01*
X253785220Y-101396666D02*
X253451886Y-101396666D01*
X253418553Y-101730000D01*
X253451886Y-101696666D01*
X253518553Y-101663333D01*
X253685220Y-101663333D01*
X253751886Y-101696666D01*
X253785220Y-101730000D01*
X253818553Y-101796666D01*
X253818553Y-101963333D01*
X253785220Y-102030000D01*
X253751886Y-102063333D01*
X253685220Y-102096666D01*
X253518553Y-102096666D01*
X253451886Y-102063333D01*
X253418553Y-102030000D01*
X238315226Y-110173333D02*
X238348560Y-110140000D01*
X238415226Y-110106666D01*
X238581893Y-110106666D01*
X238648560Y-110140000D01*
X238681893Y-110173333D01*
X238715226Y-110240000D01*
X238715226Y-110306666D01*
X238681893Y-110406666D01*
X238281893Y-110806666D01*
X238715226Y-110806666D01*
X239315226Y-110106666D02*
X239181893Y-110106666D01*
X239115226Y-110140000D01*
X239081893Y-110173333D01*
X239015226Y-110273333D01*
X238981893Y-110406666D01*
X238981893Y-110673333D01*
X239015226Y-110740000D01*
X239048560Y-110773333D01*
X239115226Y-110806666D01*
X239248560Y-110806666D01*
X239315226Y-110773333D01*
X239348560Y-110740000D01*
X239381893Y-110673333D01*
X239381893Y-110506666D01*
X239348560Y-110440000D01*
X239315226Y-110406666D01*
X239248560Y-110373333D01*
X239115226Y-110373333D01*
X239048560Y-110406666D01*
X239015226Y-110440000D01*
X238981893Y-110506666D01*
X246602600Y-114660476D02*
X246554980Y-114755714D01*
X246554980Y-114898571D01*
X246602600Y-115041428D01*
X246697838Y-115136666D01*
X246793076Y-115184285D01*
X246983552Y-115231904D01*
X247126409Y-115231904D01*
X247316885Y-115184285D01*
X247412123Y-115136666D01*
X247507361Y-115041428D01*
X247554980Y-114898571D01*
X247554980Y-114803333D01*
X247507361Y-114660476D01*
X247459742Y-114612857D01*
X247126409Y-114612857D01*
X247126409Y-114803333D01*
X247554980Y-114184285D02*
X246554980Y-114184285D01*
X246554980Y-113803333D01*
X246602600Y-113708095D01*
X246650219Y-113660476D01*
X246745457Y-113612857D01*
X246888314Y-113612857D01*
X246983552Y-113660476D01*
X247031171Y-113708095D01*
X247078790Y-113803333D01*
X247078790Y-114184285D01*
X246554980Y-112993809D02*
X246554980Y-112898571D01*
X246602600Y-112803333D01*
X246650219Y-112755714D01*
X246745457Y-112708095D01*
X246935933Y-112660476D01*
X247174028Y-112660476D01*
X247364504Y-112708095D01*
X247459742Y-112755714D01*
X247507361Y-112803333D01*
X247554980Y-112898571D01*
X247554980Y-112993809D01*
X247507361Y-113089047D01*
X247459742Y-113136666D01*
X247364504Y-113184285D01*
X247174028Y-113231904D01*
X246935933Y-113231904D01*
X246745457Y-113184285D01*
X246650219Y-113136666D01*
X246602600Y-113089047D01*
X246554980Y-112993809D01*
X246554980Y-111803333D02*
X246554980Y-111993809D01*
X246602600Y-112089047D01*
X246650219Y-112136666D01*
X246793076Y-112231904D01*
X246983552Y-112279523D01*
X247364504Y-112279523D01*
X247459742Y-112231904D01*
X247507361Y-112184285D01*
X247554980Y-112089047D01*
X247554980Y-111898571D01*
X247507361Y-111803333D01*
X247459742Y-111755714D01*
X247364504Y-111708095D01*
X247126409Y-111708095D01*
X247031171Y-111755714D01*
X246983552Y-111803333D01*
X246935933Y-111898571D01*
X246935933Y-112089047D01*
X246983552Y-112184285D01*
X247031171Y-112231904D01*
X247126409Y-112279523D01*
X217729280Y-114660476D02*
X217681660Y-114755714D01*
X217681660Y-114898571D01*
X217729280Y-115041428D01*
X217824518Y-115136666D01*
X217919756Y-115184285D01*
X218110232Y-115231904D01*
X218253089Y-115231904D01*
X218443565Y-115184285D01*
X218538803Y-115136666D01*
X218634041Y-115041428D01*
X218681660Y-114898571D01*
X218681660Y-114803333D01*
X218634041Y-114660476D01*
X218586422Y-114612857D01*
X218253089Y-114612857D01*
X218253089Y-114803333D01*
X218681660Y-114184285D02*
X217681660Y-114184285D01*
X217681660Y-113803333D01*
X217729280Y-113708095D01*
X217776899Y-113660476D01*
X217872137Y-113612857D01*
X218014994Y-113612857D01*
X218110232Y-113660476D01*
X218157851Y-113708095D01*
X218205470Y-113803333D01*
X218205470Y-114184285D01*
X218681660Y-112660476D02*
X218681660Y-113231904D01*
X218681660Y-112946190D02*
X217681660Y-112946190D01*
X217824518Y-113041428D01*
X217919756Y-113136666D01*
X217967375Y-113231904D01*
X218110232Y-112089047D02*
X218062613Y-112184285D01*
X218014994Y-112231904D01*
X217919756Y-112279523D01*
X217872137Y-112279523D01*
X217776899Y-112231904D01*
X217729280Y-112184285D01*
X217681660Y-112089047D01*
X217681660Y-111898571D01*
X217729280Y-111803333D01*
X217776899Y-111755714D01*
X217872137Y-111708095D01*
X217919756Y-111708095D01*
X218014994Y-111755714D01*
X218062613Y-111803333D01*
X218110232Y-111898571D01*
X218110232Y-112089047D01*
X218157851Y-112184285D01*
X218205470Y-112231904D01*
X218300708Y-112279523D01*
X218491184Y-112279523D01*
X218586422Y-112231904D01*
X218634041Y-112184285D01*
X218681660Y-112089047D01*
X218681660Y-111898571D01*
X218634041Y-111803333D01*
X218586422Y-111755714D01*
X218491184Y-111708095D01*
X218300708Y-111708095D01*
X218205470Y-111755714D01*
X218157851Y-111803333D01*
X218110232Y-111898571D01*
X240377606Y-110173333D02*
X240410940Y-110140000D01*
X240477606Y-110106666D01*
X240644273Y-110106666D01*
X240710940Y-110140000D01*
X240744273Y-110173333D01*
X240777606Y-110240000D01*
X240777606Y-110306666D01*
X240744273Y-110406666D01*
X240344273Y-110806666D01*
X240777606Y-110806666D01*
X241010940Y-110106666D02*
X241477606Y-110106666D01*
X241177606Y-110806666D01*
X228041180Y-114660476D02*
X227993560Y-114755714D01*
X227993560Y-114898571D01*
X228041180Y-115041428D01*
X228136418Y-115136666D01*
X228231656Y-115184285D01*
X228422132Y-115231904D01*
X228564989Y-115231904D01*
X228755465Y-115184285D01*
X228850703Y-115136666D01*
X228945941Y-115041428D01*
X228993560Y-114898571D01*
X228993560Y-114803333D01*
X228945941Y-114660476D01*
X228898322Y-114612857D01*
X228564989Y-114612857D01*
X228564989Y-114803333D01*
X228993560Y-114184285D02*
X227993560Y-114184285D01*
X227993560Y-113803333D01*
X228041180Y-113708095D01*
X228088799Y-113660476D01*
X228184037Y-113612857D01*
X228326894Y-113612857D01*
X228422132Y-113660476D01*
X228469751Y-113708095D01*
X228517370Y-113803333D01*
X228517370Y-114184285D01*
X228993560Y-112660476D02*
X228993560Y-113231904D01*
X228993560Y-112946190D02*
X227993560Y-112946190D01*
X228136418Y-113041428D01*
X228231656Y-113136666D01*
X228279275Y-113231904D01*
X227993560Y-112041428D02*
X227993560Y-111946190D01*
X228041180Y-111850952D01*
X228088799Y-111803333D01*
X228184037Y-111755714D01*
X228374513Y-111708095D01*
X228612608Y-111708095D01*
X228803084Y-111755714D01*
X228898322Y-111803333D01*
X228945941Y-111850952D01*
X228993560Y-111946190D01*
X228993560Y-112041428D01*
X228945941Y-112136666D01*
X228898322Y-112184285D01*
X228803084Y-112231904D01*
X228612608Y-112279523D01*
X228374513Y-112279523D01*
X228184037Y-112231904D01*
X228088799Y-112184285D01*
X228041180Y-112136666D01*
X227993560Y-112041428D01*
X216029046Y-110806666D02*
X215629046Y-110806666D01*
X215829046Y-110806666D02*
X215829046Y-110106666D01*
X215762380Y-110206666D01*
X215695713Y-110273333D01*
X215629046Y-110306666D01*
X216695713Y-110806666D02*
X216295713Y-110806666D01*
X216495713Y-110806666D02*
X216495713Y-110106666D01*
X216429046Y-110206666D01*
X216362380Y-110273333D01*
X216295713Y-110306666D01*
X244540220Y-114660476D02*
X244492600Y-114755714D01*
X244492600Y-114898571D01*
X244540220Y-115041428D01*
X244635458Y-115136666D01*
X244730696Y-115184285D01*
X244921172Y-115231904D01*
X245064029Y-115231904D01*
X245254505Y-115184285D01*
X245349743Y-115136666D01*
X245444981Y-115041428D01*
X245492600Y-114898571D01*
X245492600Y-114803333D01*
X245444981Y-114660476D01*
X245397362Y-114612857D01*
X245064029Y-114612857D01*
X245064029Y-114803333D01*
X245492600Y-114184285D02*
X244492600Y-114184285D01*
X244492600Y-113803333D01*
X244540220Y-113708095D01*
X244587839Y-113660476D01*
X244683077Y-113612857D01*
X244825934Y-113612857D01*
X244921172Y-113660476D01*
X244968791Y-113708095D01*
X245016410Y-113803333D01*
X245016410Y-114184285D01*
X244492600Y-112993809D02*
X244492600Y-112898571D01*
X244540220Y-112803333D01*
X244587839Y-112755714D01*
X244683077Y-112708095D01*
X244873553Y-112660476D01*
X245111648Y-112660476D01*
X245302124Y-112708095D01*
X245397362Y-112755714D01*
X245444981Y-112803333D01*
X245492600Y-112898571D01*
X245492600Y-112993809D01*
X245444981Y-113089047D01*
X245397362Y-113136666D01*
X245302124Y-113184285D01*
X245111648Y-113231904D01*
X244873553Y-113231904D01*
X244683077Y-113184285D01*
X244587839Y-113136666D01*
X244540220Y-113089047D01*
X244492600Y-112993809D01*
X244492600Y-111755714D02*
X244492600Y-112231904D01*
X244968791Y-112279523D01*
X244921172Y-112231904D01*
X244873553Y-112136666D01*
X244873553Y-111898571D01*
X244921172Y-111803333D01*
X244968791Y-111755714D01*
X245064029Y-111708095D01*
X245302124Y-111708095D01*
X245397362Y-111755714D01*
X245444981Y-111803333D01*
X245492600Y-111898571D01*
X245492600Y-112136666D01*
X245444981Y-112231904D01*
X245397362Y-112279523D01*
X211542140Y-114660476D02*
X211494520Y-114755714D01*
X211494520Y-114898571D01*
X211542140Y-115041428D01*
X211637378Y-115136666D01*
X211732616Y-115184285D01*
X211923092Y-115231904D01*
X212065949Y-115231904D01*
X212256425Y-115184285D01*
X212351663Y-115136666D01*
X212446901Y-115041428D01*
X212494520Y-114898571D01*
X212494520Y-114803333D01*
X212446901Y-114660476D01*
X212399282Y-114612857D01*
X212065949Y-114612857D01*
X212065949Y-114803333D01*
X212494520Y-114184285D02*
X211494520Y-114184285D01*
X211494520Y-113803333D01*
X211542140Y-113708095D01*
X211589759Y-113660476D01*
X211684997Y-113612857D01*
X211827854Y-113612857D01*
X211923092Y-113660476D01*
X211970711Y-113708095D01*
X212018330Y-113803333D01*
X212018330Y-114184285D01*
X212494520Y-112660476D02*
X212494520Y-113231904D01*
X212494520Y-112946190D02*
X211494520Y-112946190D01*
X211637378Y-113041428D01*
X211732616Y-113136666D01*
X211780235Y-113231904D01*
X211827854Y-111803333D02*
X212494520Y-111803333D01*
X211446901Y-112041428D02*
X212161187Y-112279523D01*
X212161187Y-111660476D01*
X258905693Y-110106666D02*
X259339026Y-110106666D01*
X259105693Y-110373333D01*
X259205693Y-110373333D01*
X259272360Y-110406666D01*
X259305693Y-110440000D01*
X259339026Y-110506666D01*
X259339026Y-110673333D01*
X259305693Y-110740000D01*
X259272360Y-110773333D01*
X259205693Y-110806666D01*
X259005693Y-110806666D01*
X258939026Y-110773333D01*
X258905693Y-110740000D01*
X259739026Y-110406666D02*
X259672360Y-110373333D01*
X259639026Y-110340000D01*
X259605693Y-110273333D01*
X259605693Y-110240000D01*
X259639026Y-110173333D01*
X259672360Y-110140000D01*
X259739026Y-110106666D01*
X259872360Y-110106666D01*
X259939026Y-110140000D01*
X259972360Y-110173333D01*
X260005693Y-110240000D01*
X260005693Y-110273333D01*
X259972360Y-110340000D01*
X259939026Y-110373333D01*
X259872360Y-110406666D01*
X259739026Y-110406666D01*
X259672360Y-110440000D01*
X259639026Y-110473333D01*
X259605693Y-110540000D01*
X259605693Y-110673333D01*
X259639026Y-110740000D01*
X259672360Y-110773333D01*
X259739026Y-110806666D01*
X259872360Y-110806666D01*
X259939026Y-110773333D01*
X259972360Y-110740000D01*
X260005693Y-110673333D01*
X260005693Y-110540000D01*
X259972360Y-110473333D01*
X259939026Y-110440000D01*
X259872360Y-110406666D01*
X226340946Y-110806666D02*
X225940946Y-110806666D01*
X226140946Y-110806666D02*
X226140946Y-110106666D01*
X226074280Y-110206666D01*
X226007613Y-110273333D01*
X225940946Y-110306666D01*
X226740946Y-110406666D02*
X226674280Y-110373333D01*
X226640946Y-110340000D01*
X226607613Y-110273333D01*
X226607613Y-110240000D01*
X226640946Y-110173333D01*
X226674280Y-110140000D01*
X226740946Y-110106666D01*
X226874280Y-110106666D01*
X226940946Y-110140000D01*
X226974280Y-110173333D01*
X227007613Y-110240000D01*
X227007613Y-110273333D01*
X226974280Y-110340000D01*
X226940946Y-110373333D01*
X226874280Y-110406666D01*
X226740946Y-110406666D01*
X226674280Y-110440000D01*
X226640946Y-110473333D01*
X226607613Y-110540000D01*
X226607613Y-110673333D01*
X226640946Y-110740000D01*
X226674280Y-110773333D01*
X226740946Y-110806666D01*
X226874280Y-110806666D01*
X226940946Y-110773333D01*
X226974280Y-110740000D01*
X227007613Y-110673333D01*
X227007613Y-110540000D01*
X226974280Y-110473333D01*
X226940946Y-110440000D01*
X226874280Y-110406666D01*
X211670953Y-110106666D02*
X211737620Y-110106666D01*
X211804286Y-110140000D01*
X211837620Y-110173333D01*
X211870953Y-110240000D01*
X211904286Y-110373333D01*
X211904286Y-110540000D01*
X211870953Y-110673333D01*
X211837620Y-110740000D01*
X211804286Y-110773333D01*
X211737620Y-110806666D01*
X211670953Y-110806666D01*
X211604286Y-110773333D01*
X211570953Y-110740000D01*
X211537620Y-110673333D01*
X211504286Y-110540000D01*
X211504286Y-110373333D01*
X211537620Y-110240000D01*
X211570953Y-110173333D01*
X211604286Y-110140000D01*
X211670953Y-110106666D01*
X212304286Y-110406666D02*
X212237620Y-110373333D01*
X212204286Y-110340000D01*
X212170953Y-110273333D01*
X212170953Y-110240000D01*
X212204286Y-110173333D01*
X212237620Y-110140000D01*
X212304286Y-110106666D01*
X212437620Y-110106666D01*
X212504286Y-110140000D01*
X212537620Y-110173333D01*
X212570953Y-110240000D01*
X212570953Y-110273333D01*
X212537620Y-110340000D01*
X212504286Y-110373333D01*
X212437620Y-110406666D01*
X212304286Y-110406666D01*
X212237620Y-110440000D01*
X212204286Y-110473333D01*
X212170953Y-110540000D01*
X212170953Y-110673333D01*
X212204286Y-110740000D01*
X212237620Y-110773333D01*
X212304286Y-110806666D01*
X212437620Y-110806666D01*
X212504286Y-110773333D01*
X212537620Y-110740000D01*
X212570953Y-110673333D01*
X212570953Y-110540000D01*
X212537620Y-110473333D01*
X212504286Y-110440000D01*
X212437620Y-110406666D01*
X234190466Y-110173333D02*
X234223800Y-110140000D01*
X234290466Y-110106666D01*
X234457133Y-110106666D01*
X234523800Y-110140000D01*
X234557133Y-110173333D01*
X234590466Y-110240000D01*
X234590466Y-110306666D01*
X234557133Y-110406666D01*
X234157133Y-110806666D01*
X234590466Y-110806666D01*
X234823800Y-110106666D02*
X235257133Y-110106666D01*
X235023800Y-110373333D01*
X235123800Y-110373333D01*
X235190466Y-110406666D01*
X235223800Y-110440000D01*
X235257133Y-110506666D01*
X235257133Y-110673333D01*
X235223800Y-110740000D01*
X235190466Y-110773333D01*
X235123800Y-110806666D01*
X234923800Y-110806666D01*
X234857133Y-110773333D01*
X234823800Y-110740000D01*
X219791660Y-114660476D02*
X219744040Y-114755714D01*
X219744040Y-114898571D01*
X219791660Y-115041428D01*
X219886898Y-115136666D01*
X219982136Y-115184285D01*
X220172612Y-115231904D01*
X220315469Y-115231904D01*
X220505945Y-115184285D01*
X220601183Y-115136666D01*
X220696421Y-115041428D01*
X220744040Y-114898571D01*
X220744040Y-114803333D01*
X220696421Y-114660476D01*
X220648802Y-114612857D01*
X220315469Y-114612857D01*
X220315469Y-114803333D01*
X220744040Y-114184285D02*
X219744040Y-114184285D01*
X219744040Y-113803333D01*
X219791660Y-113708095D01*
X219839279Y-113660476D01*
X219934517Y-113612857D01*
X220077374Y-113612857D01*
X220172612Y-113660476D01*
X220220231Y-113708095D01*
X220267850Y-113803333D01*
X220267850Y-114184285D01*
X219839279Y-113231904D02*
X219791660Y-113184285D01*
X219744040Y-113089047D01*
X219744040Y-112850952D01*
X219791660Y-112755714D01*
X219839279Y-112708095D01*
X219934517Y-112660476D01*
X220029755Y-112660476D01*
X220172612Y-112708095D01*
X220744040Y-113279523D01*
X220744040Y-112660476D01*
X219744040Y-112327142D02*
X219744040Y-111660476D01*
X220744040Y-112089047D01*
X213966666Y-110806666D02*
X213566666Y-110806666D01*
X213766666Y-110806666D02*
X213766666Y-110106666D01*
X213700000Y-110206666D01*
X213633333Y-110273333D01*
X213566666Y-110306666D01*
X214400000Y-110106666D02*
X214466666Y-110106666D01*
X214533333Y-110140000D01*
X214566666Y-110173333D01*
X214600000Y-110240000D01*
X214633333Y-110373333D01*
X214633333Y-110540000D01*
X214600000Y-110673333D01*
X214566666Y-110740000D01*
X214533333Y-110773333D01*
X214466666Y-110806666D01*
X214400000Y-110806666D01*
X214333333Y-110773333D01*
X214300000Y-110740000D01*
X214266666Y-110673333D01*
X214233333Y-110540000D01*
X214233333Y-110373333D01*
X214266666Y-110240000D01*
X214300000Y-110173333D01*
X214333333Y-110140000D01*
X214400000Y-110106666D01*
X244502366Y-101463333D02*
X244535700Y-101430000D01*
X244602366Y-101396666D01*
X244769033Y-101396666D01*
X244835700Y-101430000D01*
X244869033Y-101463333D01*
X244902366Y-101530000D01*
X244902366Y-101596666D01*
X244869033Y-101696666D01*
X244469033Y-102096666D01*
X244902366Y-102096666D01*
X245235700Y-102096666D02*
X245369033Y-102096666D01*
X245435700Y-102063333D01*
X245469033Y-102030000D01*
X245535700Y-101930000D01*
X245569033Y-101796666D01*
X245569033Y-101530000D01*
X245535700Y-101463333D01*
X245502366Y-101430000D01*
X245435700Y-101396666D01*
X245302366Y-101396666D01*
X245235700Y-101430000D01*
X245202366Y-101463333D01*
X245169033Y-101530000D01*
X245169033Y-101696666D01*
X245202366Y-101763333D01*
X245235700Y-101796666D01*
X245302366Y-101830000D01*
X245435700Y-101830000D01*
X245502366Y-101796666D01*
X245535700Y-101763333D01*
X245569033Y-101696666D01*
X254780933Y-101396666D02*
X255214266Y-101396666D01*
X254980933Y-101663333D01*
X255080933Y-101663333D01*
X255147600Y-101696666D01*
X255180933Y-101730000D01*
X255214266Y-101796666D01*
X255214266Y-101963333D01*
X255180933Y-102030000D01*
X255147600Y-102063333D01*
X255080933Y-102096666D01*
X254880933Y-102096666D01*
X254814266Y-102063333D01*
X254780933Y-102030000D01*
X255814266Y-101396666D02*
X255680933Y-101396666D01*
X255614266Y-101430000D01*
X255580933Y-101463333D01*
X255514266Y-101563333D01*
X255480933Y-101696666D01*
X255480933Y-101963333D01*
X255514266Y-102030000D01*
X255547600Y-102063333D01*
X255614266Y-102096666D01*
X255747600Y-102096666D01*
X255814266Y-102063333D01*
X255847600Y-102030000D01*
X255880933Y-101963333D01*
X255880933Y-101796666D01*
X255847600Y-101730000D01*
X255814266Y-101696666D01*
X255747600Y-101663333D01*
X255614266Y-101663333D01*
X255547600Y-101696666D01*
X255514266Y-101730000D01*
X255480933Y-101796666D01*
X207546193Y-101396666D02*
X207612860Y-101396666D01*
X207679526Y-101430000D01*
X207712860Y-101463333D01*
X207746193Y-101530000D01*
X207779526Y-101663333D01*
X207779526Y-101830000D01*
X207746193Y-101963333D01*
X207712860Y-102030000D01*
X207679526Y-102063333D01*
X207612860Y-102096666D01*
X207546193Y-102096666D01*
X207479526Y-102063333D01*
X207446193Y-102030000D01*
X207412860Y-101963333D01*
X207379526Y-101830000D01*
X207379526Y-101663333D01*
X207412860Y-101530000D01*
X207446193Y-101463333D01*
X207479526Y-101430000D01*
X207546193Y-101396666D01*
X208412860Y-101396666D02*
X208079526Y-101396666D01*
X208046193Y-101730000D01*
X208079526Y-101696666D01*
X208146193Y-101663333D01*
X208312860Y-101663333D01*
X208379526Y-101696666D01*
X208412860Y-101730000D01*
X208446193Y-101796666D01*
X208446193Y-101963333D01*
X208412860Y-102030000D01*
X208379526Y-102063333D01*
X208312860Y-102096666D01*
X208146193Y-102096666D01*
X208079526Y-102063333D01*
X208046193Y-102030000D01*
X228403326Y-110806666D02*
X228003326Y-110806666D01*
X228203326Y-110806666D02*
X228203326Y-110106666D01*
X228136660Y-110206666D01*
X228069993Y-110273333D01*
X228003326Y-110306666D01*
X228736660Y-110806666D02*
X228869993Y-110806666D01*
X228936660Y-110773333D01*
X228969993Y-110740000D01*
X229036660Y-110640000D01*
X229069993Y-110506666D01*
X229069993Y-110240000D01*
X229036660Y-110173333D01*
X229003326Y-110140000D01*
X228936660Y-110106666D01*
X228803326Y-110106666D01*
X228736660Y-110140000D01*
X228703326Y-110173333D01*
X228669993Y-110240000D01*
X228669993Y-110406666D01*
X228703326Y-110473333D01*
X228736660Y-110506666D01*
X228803326Y-110540000D01*
X228936660Y-110540000D01*
X229003326Y-110506666D01*
X229036660Y-110473333D01*
X229069993Y-110406666D01*
X252718553Y-110106666D02*
X253151886Y-110106666D01*
X252918553Y-110373333D01*
X253018553Y-110373333D01*
X253085220Y-110406666D01*
X253118553Y-110440000D01*
X253151886Y-110506666D01*
X253151886Y-110673333D01*
X253118553Y-110740000D01*
X253085220Y-110773333D01*
X253018553Y-110806666D01*
X252818553Y-110806666D01*
X252751886Y-110773333D01*
X252718553Y-110740000D01*
X253785220Y-110106666D02*
X253451886Y-110106666D01*
X253418553Y-110440000D01*
X253451886Y-110406666D01*
X253518553Y-110373333D01*
X253685220Y-110373333D01*
X253751886Y-110406666D01*
X253785220Y-110440000D01*
X253818553Y-110506666D01*
X253818553Y-110673333D01*
X253785220Y-110740000D01*
X253751886Y-110773333D01*
X253685220Y-110806666D01*
X253518553Y-110806666D01*
X253451886Y-110773333D01*
X253418553Y-110740000D01*
X232165940Y-114660476D02*
X232118320Y-114755714D01*
X232118320Y-114898571D01*
X232165940Y-115041428D01*
X232261178Y-115136666D01*
X232356416Y-115184285D01*
X232546892Y-115231904D01*
X232689749Y-115231904D01*
X232880225Y-115184285D01*
X232975463Y-115136666D01*
X233070701Y-115041428D01*
X233118320Y-114898571D01*
X233118320Y-114803333D01*
X233070701Y-114660476D01*
X233023082Y-114612857D01*
X232689749Y-114612857D01*
X232689749Y-114803333D01*
X233118320Y-114184285D02*
X232118320Y-114184285D01*
X232118320Y-113803333D01*
X232165940Y-113708095D01*
X232213559Y-113660476D01*
X232308797Y-113612857D01*
X232451654Y-113612857D01*
X232546892Y-113660476D01*
X232594511Y-113708095D01*
X232642130Y-113803333D01*
X232642130Y-114184285D01*
X232213559Y-113231904D02*
X232165940Y-113184285D01*
X232118320Y-113089047D01*
X232118320Y-112850952D01*
X232165940Y-112755714D01*
X232213559Y-112708095D01*
X232308797Y-112660476D01*
X232404035Y-112660476D01*
X232546892Y-112708095D01*
X233118320Y-113279523D01*
X233118320Y-112660476D01*
X232118320Y-111755714D02*
X232118320Y-112231904D01*
X232594511Y-112279523D01*
X232546892Y-112231904D01*
X232499273Y-112136666D01*
X232499273Y-111898571D01*
X232546892Y-111803333D01*
X232594511Y-111755714D01*
X232689749Y-111708095D01*
X232927844Y-111708095D01*
X233023082Y-111755714D01*
X233070701Y-111803333D01*
X233118320Y-111898571D01*
X233118320Y-112136666D01*
X233070701Y-112231904D01*
X233023082Y-112279523D01*
X242439986Y-101463333D02*
X242473320Y-101430000D01*
X242539986Y-101396666D01*
X242706653Y-101396666D01*
X242773320Y-101430000D01*
X242806653Y-101463333D01*
X242839986Y-101530000D01*
X242839986Y-101596666D01*
X242806653Y-101696666D01*
X242406653Y-102096666D01*
X242839986Y-102096666D01*
X243239986Y-101696666D02*
X243173320Y-101663333D01*
X243139986Y-101630000D01*
X243106653Y-101563333D01*
X243106653Y-101530000D01*
X243139986Y-101463333D01*
X243173320Y-101430000D01*
X243239986Y-101396666D01*
X243373320Y-101396666D01*
X243439986Y-101430000D01*
X243473320Y-101463333D01*
X243506653Y-101530000D01*
X243506653Y-101563333D01*
X243473320Y-101630000D01*
X243439986Y-101663333D01*
X243373320Y-101696666D01*
X243239986Y-101696666D01*
X243173320Y-101730000D01*
X243139986Y-101763333D01*
X243106653Y-101830000D01*
X243106653Y-101963333D01*
X243139986Y-102030000D01*
X243173320Y-102063333D01*
X243239986Y-102096666D01*
X243373320Y-102096666D01*
X243439986Y-102063333D01*
X243473320Y-102030000D01*
X243506653Y-101963333D01*
X243506653Y-101830000D01*
X243473320Y-101763333D01*
X243439986Y-101730000D01*
X243373320Y-101696666D01*
X252789740Y-114660476D02*
X252742120Y-114755714D01*
X252742120Y-114898571D01*
X252789740Y-115041428D01*
X252884978Y-115136666D01*
X252980216Y-115184285D01*
X253170692Y-115231904D01*
X253313549Y-115231904D01*
X253504025Y-115184285D01*
X253599263Y-115136666D01*
X253694501Y-115041428D01*
X253742120Y-114898571D01*
X253742120Y-114803333D01*
X253694501Y-114660476D01*
X253646882Y-114612857D01*
X253313549Y-114612857D01*
X253313549Y-114803333D01*
X253742120Y-114184285D02*
X252742120Y-114184285D01*
X252742120Y-113803333D01*
X252789740Y-113708095D01*
X252837359Y-113660476D01*
X252932597Y-113612857D01*
X253075454Y-113612857D01*
X253170692Y-113660476D01*
X253218311Y-113708095D01*
X253265930Y-113803333D01*
X253265930Y-114184285D01*
X253742120Y-112660476D02*
X253742120Y-113231904D01*
X253742120Y-112946190D02*
X252742120Y-112946190D01*
X252884978Y-113041428D01*
X252980216Y-113136666D01*
X253027835Y-113231904D01*
X253742120Y-112184285D02*
X253742120Y-111993809D01*
X253694501Y-111898571D01*
X253646882Y-111850952D01*
X253504025Y-111755714D01*
X253313549Y-111708095D01*
X252932597Y-111708095D01*
X252837359Y-111755714D01*
X252789740Y-111803333D01*
X252742120Y-111898571D01*
X252742120Y-112089047D01*
X252789740Y-112184285D01*
X252837359Y-112231904D01*
X252932597Y-112279523D01*
X253170692Y-112279523D01*
X253265930Y-112231904D01*
X253313549Y-112184285D01*
X253361168Y-112089047D01*
X253361168Y-111898571D01*
X253313549Y-111803333D01*
X253265930Y-111755714D01*
X253170692Y-111708095D01*
X248664980Y-114660476D02*
X248617360Y-114755714D01*
X248617360Y-114898571D01*
X248664980Y-115041428D01*
X248760218Y-115136666D01*
X248855456Y-115184285D01*
X249045932Y-115231904D01*
X249188789Y-115231904D01*
X249379265Y-115184285D01*
X249474503Y-115136666D01*
X249569741Y-115041428D01*
X249617360Y-114898571D01*
X249617360Y-114803333D01*
X249569741Y-114660476D01*
X249522122Y-114612857D01*
X249188789Y-114612857D01*
X249188789Y-114803333D01*
X249617360Y-114184285D02*
X248617360Y-114184285D01*
X248617360Y-113803333D01*
X248664980Y-113708095D01*
X248712599Y-113660476D01*
X248807837Y-113612857D01*
X248950694Y-113612857D01*
X249045932Y-113660476D01*
X249093551Y-113708095D01*
X249141170Y-113803333D01*
X249141170Y-114184285D01*
X249617360Y-112660476D02*
X249617360Y-113231904D01*
X249617360Y-112946190D02*
X248617360Y-112946190D01*
X248760218Y-113041428D01*
X248855456Y-113136666D01*
X248903075Y-113231904D01*
X248712599Y-112279523D02*
X248664980Y-112231904D01*
X248617360Y-112136666D01*
X248617360Y-111898571D01*
X248664980Y-111803333D01*
X248712599Y-111755714D01*
X248807837Y-111708095D01*
X248903075Y-111708095D01*
X249045932Y-111755714D01*
X249617360Y-112327142D01*
X249617360Y-111708095D01*
X209608573Y-101396666D02*
X209675240Y-101396666D01*
X209741906Y-101430000D01*
X209775240Y-101463333D01*
X209808573Y-101530000D01*
X209841906Y-101663333D01*
X209841906Y-101830000D01*
X209808573Y-101963333D01*
X209775240Y-102030000D01*
X209741906Y-102063333D01*
X209675240Y-102096666D01*
X209608573Y-102096666D01*
X209541906Y-102063333D01*
X209508573Y-102030000D01*
X209475240Y-101963333D01*
X209441906Y-101830000D01*
X209441906Y-101663333D01*
X209475240Y-101530000D01*
X209508573Y-101463333D01*
X209541906Y-101430000D01*
X209608573Y-101396666D01*
X210075240Y-101396666D02*
X210541906Y-101396666D01*
X210241906Y-102096666D01*
X261334758Y-110340000D02*
X261334758Y-110806666D01*
X261168091Y-110073333D02*
X261001424Y-110573333D01*
X261434758Y-110573333D01*
X261834758Y-110106666D02*
X261901424Y-110106666D01*
X261968091Y-110140000D01*
X262001424Y-110173333D01*
X262034758Y-110240000D01*
X262068091Y-110373333D01*
X262068091Y-110540000D01*
X262034758Y-110673333D01*
X262001424Y-110740000D01*
X261968091Y-110773333D01*
X261901424Y-110806666D01*
X261834758Y-110806666D01*
X261768091Y-110773333D01*
X261734758Y-110740000D01*
X261701424Y-110673333D01*
X261668091Y-110540000D01*
X261668091Y-110373333D01*
X261701424Y-110240000D01*
X261734758Y-110173333D01*
X261768091Y-110140000D01*
X261834758Y-110106666D01*
X243430220Y-115327142D02*
X242430220Y-115327142D01*
X243430220Y-114850952D02*
X242430220Y-114850952D01*
X242430220Y-114612857D01*
X242477840Y-114470000D01*
X242573078Y-114374761D01*
X242668316Y-114327142D01*
X242858792Y-114279523D01*
X243001649Y-114279523D01*
X243192125Y-114327142D01*
X243287363Y-114374761D01*
X243382601Y-114470000D01*
X243430220Y-114612857D01*
X243430220Y-114850952D01*
X243525459Y-114089047D02*
X243525459Y-113327142D01*
X243382601Y-113136666D02*
X243430220Y-112993809D01*
X243430220Y-112755714D01*
X243382601Y-112660476D01*
X243334982Y-112612857D01*
X243239744Y-112565238D01*
X243144506Y-112565238D01*
X243049268Y-112612857D01*
X243001649Y-112660476D01*
X242954030Y-112755714D01*
X242906411Y-112946190D01*
X242858792Y-113041428D01*
X242811173Y-113089047D01*
X242715935Y-113136666D01*
X242620697Y-113136666D01*
X242525459Y-113089047D01*
X242477840Y-113041428D01*
X242430220Y-112946190D01*
X242430220Y-112708095D01*
X242477840Y-112565238D01*
X243334982Y-111565238D02*
X243382601Y-111612857D01*
X243430220Y-111755714D01*
X243430220Y-111850952D01*
X243382601Y-111993809D01*
X243287363Y-112089047D01*
X243192125Y-112136666D01*
X243001649Y-112184285D01*
X242858792Y-112184285D01*
X242668316Y-112136666D01*
X242573078Y-112089047D01*
X242477840Y-111993809D01*
X242430220Y-111850952D01*
X242430220Y-111755714D01*
X242477840Y-111612857D01*
X242525459Y-111565238D01*
X232128086Y-110173333D02*
X232161420Y-110140000D01*
X232228086Y-110106666D01*
X232394753Y-110106666D01*
X232461420Y-110140000D01*
X232494753Y-110173333D01*
X232528086Y-110240000D01*
X232528086Y-110306666D01*
X232494753Y-110406666D01*
X232094753Y-110806666D01*
X232528086Y-110806666D01*
X232794753Y-110173333D02*
X232828086Y-110140000D01*
X232894753Y-110106666D01*
X233061420Y-110106666D01*
X233128086Y-110140000D01*
X233161420Y-110173333D01*
X233194753Y-110240000D01*
X233194753Y-110306666D01*
X233161420Y-110406666D01*
X232761420Y-110806666D01*
X233194753Y-110806666D01*
X211670953Y-101396666D02*
X211737620Y-101396666D01*
X211804286Y-101430000D01*
X211837620Y-101463333D01*
X211870953Y-101530000D01*
X211904286Y-101663333D01*
X211904286Y-101830000D01*
X211870953Y-101963333D01*
X211837620Y-102030000D01*
X211804286Y-102063333D01*
X211737620Y-102096666D01*
X211670953Y-102096666D01*
X211604286Y-102063333D01*
X211570953Y-102030000D01*
X211537620Y-101963333D01*
X211504286Y-101830000D01*
X211504286Y-101663333D01*
X211537620Y-101530000D01*
X211570953Y-101463333D01*
X211604286Y-101430000D01*
X211670953Y-101396666D01*
X212304286Y-101696666D02*
X212237620Y-101663333D01*
X212204286Y-101630000D01*
X212170953Y-101563333D01*
X212170953Y-101530000D01*
X212204286Y-101463333D01*
X212237620Y-101430000D01*
X212304286Y-101396666D01*
X212437620Y-101396666D01*
X212504286Y-101430000D01*
X212537620Y-101463333D01*
X212570953Y-101530000D01*
X212570953Y-101563333D01*
X212537620Y-101630000D01*
X212504286Y-101663333D01*
X212437620Y-101696666D01*
X212304286Y-101696666D01*
X212237620Y-101730000D01*
X212204286Y-101763333D01*
X212170953Y-101830000D01*
X212170953Y-101963333D01*
X212204286Y-102030000D01*
X212237620Y-102063333D01*
X212304286Y-102096666D01*
X212437620Y-102096666D01*
X212504286Y-102063333D01*
X212537620Y-102030000D01*
X212570953Y-101963333D01*
X212570953Y-101830000D01*
X212537620Y-101763333D01*
X212504286Y-101730000D01*
X212437620Y-101696666D01*
X234228320Y-114660476D02*
X234180700Y-114755714D01*
X234180700Y-114898571D01*
X234228320Y-115041428D01*
X234323558Y-115136666D01*
X234418796Y-115184285D01*
X234609272Y-115231904D01*
X234752129Y-115231904D01*
X234942605Y-115184285D01*
X235037843Y-115136666D01*
X235133081Y-115041428D01*
X235180700Y-114898571D01*
X235180700Y-114803333D01*
X235133081Y-114660476D01*
X235085462Y-114612857D01*
X234752129Y-114612857D01*
X234752129Y-114803333D01*
X235180700Y-114184285D02*
X234180700Y-114184285D01*
X234180700Y-113803333D01*
X234228320Y-113708095D01*
X234275939Y-113660476D01*
X234371177Y-113612857D01*
X234514034Y-113612857D01*
X234609272Y-113660476D01*
X234656891Y-113708095D01*
X234704510Y-113803333D01*
X234704510Y-114184285D01*
X235180700Y-112660476D02*
X235180700Y-113231904D01*
X235180700Y-112946190D02*
X234180700Y-112946190D01*
X234323558Y-113041428D01*
X234418796Y-113136666D01*
X234466415Y-113231904D01*
X235180700Y-111708095D02*
X235180700Y-112279523D01*
X235180700Y-111993809D02*
X234180700Y-111993809D01*
X234323558Y-112089047D01*
X234418796Y-112184285D01*
X234466415Y-112279523D01*
X216029046Y-102096666D02*
X215629046Y-102096666D01*
X215829046Y-102096666D02*
X215829046Y-101396666D01*
X215762380Y-101496666D01*
X215695713Y-101563333D01*
X215629046Y-101596666D01*
X216695713Y-102096666D02*
X216295713Y-102096666D01*
X216495713Y-102096666D02*
X216495713Y-101396666D01*
X216429046Y-101496666D01*
X216362380Y-101563333D01*
X216295713Y-101596666D01*
D11*
X239972138Y-109885000D02*
X241892138Y-109885000D01*
X241892138Y-109885000D02*
X241892138Y-107200000D01*
X239972138Y-107200000D02*
X239972138Y-109885000D01*
X235850710Y-107200000D02*
X235850710Y-109885000D01*
X237770710Y-109885000D02*
X237770710Y-107200000D01*
X235850710Y-109885000D02*
X237770710Y-109885000D01*
X225406426Y-109885000D02*
X225406426Y-107200000D01*
X223486426Y-107200000D02*
X223486426Y-109885000D01*
X223486426Y-109885000D02*
X225406426Y-109885000D01*
X238091424Y-103872936D02*
X238091424Y-104327064D01*
X239561424Y-103872936D02*
X239561424Y-104327064D01*
X214832856Y-103872936D02*
X214832856Y-104327064D01*
X213362856Y-103872936D02*
X213362856Y-104327064D01*
X258377850Y-109885000D02*
X258377850Y-107200000D01*
X256457850Y-109885000D02*
X258377850Y-109885000D01*
X256457850Y-107200000D02*
X256457850Y-109885000D01*
X225547140Y-107200000D02*
X225547140Y-109885000D01*
X227467140Y-109885000D02*
X227467140Y-107200000D01*
X225547140Y-109885000D02*
X227467140Y-109885000D01*
X204895000Y-107200000D02*
X204895000Y-109885000D01*
X204895000Y-109885000D02*
X206815000Y-109885000D01*
X206815000Y-109885000D02*
X206815000Y-107200000D01*
X208650714Y-103872936D02*
X208650714Y-104327064D01*
X207180714Y-103872936D02*
X207180714Y-104327064D01*
X250134994Y-109885000D02*
X250134994Y-107200000D01*
X248214994Y-107200000D02*
X248214994Y-109885000D01*
X248214994Y-109885000D02*
X250134994Y-109885000D01*
X258107850Y-103872936D02*
X258107850Y-104327064D01*
X256637850Y-103872936D02*
X256637850Y-104327064D01*
X227787854Y-103872936D02*
X227787854Y-104327064D01*
X229257854Y-103872936D02*
X229257854Y-104327064D01*
X200940000Y-109885000D02*
X202860000Y-109885000D01*
X202860000Y-109885000D02*
X202860000Y-107200000D01*
X200940000Y-107200000D02*
X200940000Y-109885000D01*
X256047136Y-103872936D02*
X256047136Y-104327064D01*
X254577136Y-103872936D02*
X254577136Y-104327064D01*
X227197140Y-103872936D02*
X227197140Y-104327064D01*
X225727140Y-103872936D02*
X225727140Y-104327064D01*
X229668568Y-109885000D02*
X231588568Y-109885000D01*
X229668568Y-107200000D02*
X229668568Y-109885000D01*
X231588568Y-109885000D02*
X231588568Y-107200000D01*
X246154280Y-109885000D02*
X248074280Y-109885000D01*
X248074280Y-109885000D02*
X248074280Y-107200000D01*
X246154280Y-107200000D02*
X246154280Y-109885000D01*
X244273566Y-103872936D02*
X244273566Y-104327064D01*
X245743566Y-103872936D02*
X245743566Y-104327064D01*
X225136426Y-103872936D02*
X225136426Y-104327064D01*
X223666426Y-103872936D02*
X223666426Y-104327064D01*
X260759278Y-103872936D02*
X260759278Y-104327064D01*
X262229278Y-103872936D02*
X262229278Y-104327064D01*
X258698564Y-103872936D02*
X258698564Y-104327064D01*
X260168564Y-103872936D02*
X260168564Y-104327064D01*
X216893570Y-103872936D02*
X216893570Y-104327064D01*
X215423570Y-103872936D02*
X215423570Y-104327064D01*
X227607854Y-109885000D02*
X229527854Y-109885000D01*
X227607854Y-107200000D02*
X227607854Y-109885000D01*
X229527854Y-109885000D02*
X229527854Y-107200000D01*
X258518564Y-107200000D02*
X258518564Y-109885000D01*
X258518564Y-109885000D02*
X260438564Y-109885000D01*
X260438564Y-109885000D02*
X260438564Y-107200000D01*
X260579278Y-107200000D02*
X260579278Y-109885000D01*
X260579278Y-109885000D02*
X262499278Y-109885000D01*
X262499278Y-109885000D02*
X262499278Y-107200000D01*
X223345712Y-109885000D02*
X223345712Y-107200000D01*
X221425712Y-107200000D02*
X221425712Y-109885000D01*
X221425712Y-109885000D02*
X223345712Y-109885000D01*
X207000714Y-109885000D02*
X208920714Y-109885000D01*
X207000714Y-107200000D02*
X207000714Y-109885000D01*
X208920714Y-109885000D02*
X208920714Y-107200000D01*
X241622138Y-103872936D02*
X241622138Y-104327064D01*
X240152138Y-103872936D02*
X240152138Y-104327064D01*
X202590000Y-103872936D02*
X202590000Y-104327064D01*
X201120000Y-103872936D02*
X201120000Y-104327064D01*
X215102856Y-109885000D02*
X215102856Y-107200000D01*
X213182856Y-109885000D02*
X215102856Y-109885000D01*
X213182856Y-107200000D02*
X213182856Y-109885000D01*
X206590000Y-103872936D02*
X206590000Y-104327064D01*
X205120000Y-103872936D02*
X205120000Y-104327064D01*
X211122142Y-109885000D02*
X213042142Y-109885000D01*
X211122142Y-107200000D02*
X211122142Y-109885000D01*
X213042142Y-109885000D02*
X213042142Y-107200000D01*
X250275708Y-109885000D02*
X252195708Y-109885000D01*
X250275708Y-107200000D02*
X250275708Y-109885000D01*
X252195708Y-109885000D02*
X252195708Y-107200000D01*
X221014998Y-103872936D02*
X221014998Y-104327064D01*
X219544998Y-103872936D02*
X219544998Y-104327064D01*
X221284998Y-109885000D02*
X221284998Y-107200000D01*
X219364998Y-109885000D02*
X221284998Y-109885000D01*
X219364998Y-107200000D02*
X219364998Y-109885000D01*
X210981428Y-109885000D02*
X210981428Y-107200000D01*
X209061428Y-109885000D02*
X210981428Y-109885000D01*
X209061428Y-107200000D02*
X209061428Y-109885000D01*
X219224284Y-109885000D02*
X219224284Y-107200000D01*
X217304284Y-109885000D02*
X219224284Y-109885000D01*
X217304284Y-107200000D02*
X217304284Y-109885000D01*
X237500710Y-103872936D02*
X237500710Y-104327064D01*
X236030710Y-103872936D02*
X236030710Y-104327064D01*
X244093566Y-107200000D02*
X244093566Y-109885000D01*
X244093566Y-109885000D02*
X246013566Y-109885000D01*
X246013566Y-109885000D02*
X246013566Y-107200000D01*
X252336422Y-109885000D02*
X254256422Y-109885000D01*
X252336422Y-107200000D02*
X252336422Y-109885000D01*
X254256422Y-109885000D02*
X254256422Y-107200000D01*
X243682852Y-103872936D02*
X243682852Y-104327064D01*
X242212852Y-103872936D02*
X242212852Y-104327064D01*
X229848568Y-103872936D02*
X229848568Y-104327064D01*
X231318568Y-103872936D02*
X231318568Y-104327064D01*
X209241428Y-103872936D02*
X209241428Y-104327064D01*
X210711428Y-103872936D02*
X210711428Y-104327064D01*
X247804280Y-103872936D02*
X247804280Y-104327064D01*
X246334280Y-103872936D02*
X246334280Y-104327064D01*
X233649282Y-109885000D02*
X233649282Y-107200000D01*
X231729282Y-109885000D02*
X233649282Y-109885000D01*
X231729282Y-107200000D02*
X231729282Y-109885000D01*
X250455708Y-103872936D02*
X250455708Y-104327064D01*
X251925708Y-103872936D02*
X251925708Y-104327064D01*
X233969996Y-103872936D02*
X233969996Y-104327064D01*
X235439996Y-103872936D02*
X235439996Y-104327064D01*
X253986422Y-103872936D02*
X253986422Y-104327064D01*
X252516422Y-103872936D02*
X252516422Y-104327064D01*
X254397136Y-107200000D02*
X254397136Y-109885000D01*
X256317136Y-109885000D02*
X256317136Y-107200000D01*
X254397136Y-109885000D02*
X256317136Y-109885000D01*
X233789996Y-109885000D02*
X235709996Y-109885000D01*
X233789996Y-107200000D02*
X233789996Y-109885000D01*
X235709996Y-109885000D02*
X235709996Y-107200000D01*
X221620000Y-103872936D02*
X221620000Y-104327064D01*
X223090000Y-103872936D02*
X223090000Y-104327064D01*
X242032852Y-107200000D02*
X242032852Y-109885000D01*
X242032852Y-109885000D02*
X243952852Y-109885000D01*
X243952852Y-109885000D02*
X243952852Y-107200000D01*
X231909282Y-103872936D02*
X231909282Y-104327064D01*
X233379282Y-103872936D02*
X233379282Y-104327064D01*
X217484284Y-103872936D02*
X217484284Y-104327064D01*
X218954284Y-103872936D02*
X218954284Y-104327064D01*
X217163570Y-109885000D02*
X217163570Y-107200000D01*
X215243570Y-109885000D02*
X217163570Y-109885000D01*
X215243570Y-107200000D02*
X215243570Y-109885000D01*
X249864994Y-103872936D02*
X249864994Y-104327064D01*
X248394994Y-103872936D02*
X248394994Y-104327064D01*
X237911424Y-107200000D02*
X237911424Y-109885000D01*
X237911424Y-109885000D02*
X239831424Y-109885000D01*
X239831424Y-109885000D02*
X239831424Y-107200000D01*
X211302142Y-103872936D02*
X211302142Y-104327064D01*
X212772142Y-103872936D02*
X212772142Y-104327064D01*
%LPC*%
D12*
X203500000Y-97500000D03*
X261500000Y-97500000D03*
D13*
X240932138Y-109137500D03*
X240932138Y-107262500D03*
X236810710Y-109137500D03*
X236810710Y-107262500D03*
X224446426Y-109137500D03*
X224446426Y-107262500D03*
D14*
X238826424Y-103187500D03*
X238826424Y-105012500D03*
X214097856Y-103187500D03*
X214097856Y-105012500D03*
D13*
X257417850Y-109137500D03*
X257417850Y-107262500D03*
X226507140Y-109137500D03*
X226507140Y-107262500D03*
X205855000Y-109137500D03*
X205855000Y-107262500D03*
D14*
X207915714Y-103187500D03*
X207915714Y-105012500D03*
D13*
X249174994Y-109137500D03*
X249174994Y-107262500D03*
D14*
X257372850Y-103187500D03*
X257372850Y-105012500D03*
X228522854Y-103187500D03*
X228522854Y-105012500D03*
D13*
X201900000Y-109137500D03*
X201900000Y-107262500D03*
D14*
X255312136Y-103187500D03*
X255312136Y-105012500D03*
X226462140Y-103187500D03*
X226462140Y-105012500D03*
D13*
X230628568Y-109137500D03*
X230628568Y-107262500D03*
X247114280Y-109137500D03*
X247114280Y-107262500D03*
D14*
X245008566Y-103187500D03*
X245008566Y-105012500D03*
X224401426Y-103187500D03*
X224401426Y-105012500D03*
X261494278Y-103187500D03*
X261494278Y-105012500D03*
X259433564Y-103187500D03*
X259433564Y-105012500D03*
X216158570Y-103187500D03*
X216158570Y-105012500D03*
D13*
X228567854Y-109137500D03*
X228567854Y-107262500D03*
X259478564Y-109137500D03*
X259478564Y-107262500D03*
X261539278Y-109137500D03*
X261539278Y-107262500D03*
X222385712Y-109137500D03*
X222385712Y-107262500D03*
X207960714Y-109137500D03*
X207960714Y-107262500D03*
D14*
X240887138Y-103187500D03*
X240887138Y-105012500D03*
X201855000Y-103187500D03*
X201855000Y-105012500D03*
D13*
X214142856Y-109137500D03*
X214142856Y-107262500D03*
D14*
X205855000Y-103187500D03*
X205855000Y-105012500D03*
D13*
X212082142Y-109137500D03*
X212082142Y-107262500D03*
X251235708Y-109137500D03*
X251235708Y-107262500D03*
D14*
X220279998Y-103187500D03*
X220279998Y-105012500D03*
D13*
X220324998Y-109137500D03*
X220324998Y-107262500D03*
X210021428Y-109137500D03*
X210021428Y-107262500D03*
X218264284Y-109137500D03*
X218264284Y-107262500D03*
D14*
X236765710Y-103187500D03*
X236765710Y-105012500D03*
D13*
X245053566Y-109137500D03*
X245053566Y-107262500D03*
X253296422Y-109137500D03*
X253296422Y-107262500D03*
D14*
X242947852Y-103187500D03*
X242947852Y-105012500D03*
X230583568Y-103187500D03*
X230583568Y-105012500D03*
X209976428Y-103187500D03*
X209976428Y-105012500D03*
X247069280Y-103187500D03*
X247069280Y-105012500D03*
D13*
X232689282Y-109137500D03*
X232689282Y-107262500D03*
D14*
X251190708Y-103187500D03*
X251190708Y-105012500D03*
X234704996Y-103187500D03*
X234704996Y-105012500D03*
X253251422Y-103187500D03*
X253251422Y-105012500D03*
D13*
X255357136Y-109137500D03*
X255357136Y-107262500D03*
X234749996Y-109137500D03*
X234749996Y-107262500D03*
D14*
X222355000Y-103187500D03*
X222355000Y-105012500D03*
D13*
X242992852Y-109137500D03*
X242992852Y-107262500D03*
D14*
X232644282Y-103187500D03*
X232644282Y-105012500D03*
X218219284Y-103187500D03*
X218219284Y-105012500D03*
D13*
X216203570Y-109137500D03*
X216203570Y-107262500D03*
D14*
X249129994Y-103187500D03*
X249129994Y-105012500D03*
D13*
X238871424Y-109137500D03*
X238871424Y-107262500D03*
D14*
X212037142Y-103187500D03*
X212037142Y-105012500D03*
D15*
X208370000Y-98770000D03*
D16*
X208370000Y-96230000D03*
X210910000Y-98770000D03*
X210910000Y-96230000D03*
X213450000Y-98770000D03*
X213450000Y-96230000D03*
X215990000Y-98770000D03*
X215990000Y-96230000D03*
X218530000Y-98770000D03*
X218530000Y-96230000D03*
X221070000Y-98770000D03*
X221070000Y-96230000D03*
X223610000Y-98770000D03*
X223610000Y-96230000D03*
X226150000Y-98770000D03*
X226150000Y-96230000D03*
X228690000Y-98770000D03*
X228690000Y-96230000D03*
X231230000Y-98770000D03*
X231230000Y-96230000D03*
X233770000Y-98770000D03*
X233770000Y-96230000D03*
X236310000Y-98770000D03*
X236310000Y-96230000D03*
X238850000Y-98770000D03*
X238850000Y-96230000D03*
X241390000Y-98770000D03*
X241390000Y-96230000D03*
X243930000Y-98770000D03*
X243930000Y-96230000D03*
X246470000Y-98770000D03*
X246470000Y-96230000D03*
X249010000Y-98770000D03*
X249010000Y-96230000D03*
X251550000Y-98770000D03*
X251550000Y-96230000D03*
X254090000Y-98770000D03*
X254090000Y-96230000D03*
X256630000Y-98770000D03*
X256630000Y-96230000D03*
M02*
