G04 #@! TF.GenerationSoftware,KiCad,Pcbnew,(6.0.0-0)*
G04 #@! TF.CreationDate,2022-04-16T20:11:23-05:00*
G04 #@! TF.ProjectId,rpi_led_board,7270695f-6c65-4645-9f62-6f6172642e6b,rev?*
G04 #@! TF.SameCoordinates,Original*
G04 #@! TF.FileFunction,Paste,Top*
G04 #@! TF.FilePolarity,Positive*
%FSLAX46Y46*%
G04 Gerber Fmt 4.6, Leading zero omitted, Abs format (unit mm)*
G04 Created by KiCad (PCBNEW (6.0.0-0)) date 2022-04-16 20:11:23*
%MOMM*%
%LPD*%
G01*
G04 APERTURE LIST*
G04 Aperture macros list*
%AMRoundRect*
0 Rectangle with rounded corners*
0 $1 Rounding radius*
0 $2 $3 $4 $5 $6 $7 $8 $9 X,Y pos of 4 corners*
0 Add a 4 corners polygon primitive as box body*
4,1,4,$2,$3,$4,$5,$6,$7,$8,$9,$2,$3,0*
0 Add four circle primitives for the rounded corners*
1,1,$1+$1,$2,$3*
1,1,$1+$1,$4,$5*
1,1,$1+$1,$6,$7*
1,1,$1+$1,$8,$9*
0 Add four rect primitives between the rounded corners*
20,1,$1+$1,$2,$3,$4,$5,0*
20,1,$1+$1,$4,$5,$6,$7,0*
20,1,$1+$1,$6,$7,$8,$9,0*
20,1,$1+$1,$8,$9,$2,$3,0*%
G04 Aperture macros list end*
%ADD10RoundRect,0.243750X0.456250X-0.243750X0.456250X0.243750X-0.456250X0.243750X-0.456250X-0.243750X0*%
%ADD11RoundRect,0.250000X-0.450000X0.262500X-0.450000X-0.262500X0.450000X-0.262500X0.450000X0.262500X0*%
G04 APERTURE END LIST*
D10*
X240932138Y-109137500D03*
X240932138Y-107262500D03*
X236810710Y-109137500D03*
X236810710Y-107262500D03*
X224446426Y-109137500D03*
X224446426Y-107262500D03*
D11*
X238826424Y-103187500D03*
X238826424Y-105012500D03*
X214097856Y-103187500D03*
X214097856Y-105012500D03*
D10*
X257417850Y-109137500D03*
X257417850Y-107262500D03*
X226507140Y-109137500D03*
X226507140Y-107262500D03*
X205855000Y-109137500D03*
X205855000Y-107262500D03*
D11*
X207915714Y-103187500D03*
X207915714Y-105012500D03*
D10*
X249174994Y-109137500D03*
X249174994Y-107262500D03*
D11*
X257372850Y-103187500D03*
X257372850Y-105012500D03*
X228522854Y-103187500D03*
X228522854Y-105012500D03*
D10*
X201900000Y-109137500D03*
X201900000Y-107262500D03*
D11*
X255312136Y-103187500D03*
X255312136Y-105012500D03*
X226462140Y-103187500D03*
X226462140Y-105012500D03*
D10*
X230628568Y-109137500D03*
X230628568Y-107262500D03*
X247114280Y-109137500D03*
X247114280Y-107262500D03*
D11*
X245008566Y-103187500D03*
X245008566Y-105012500D03*
X224401426Y-103187500D03*
X224401426Y-105012500D03*
X261494278Y-103187500D03*
X261494278Y-105012500D03*
X259433564Y-103187500D03*
X259433564Y-105012500D03*
X216158570Y-103187500D03*
X216158570Y-105012500D03*
D10*
X228567854Y-109137500D03*
X228567854Y-107262500D03*
X259478564Y-109137500D03*
X259478564Y-107262500D03*
X261539278Y-109137500D03*
X261539278Y-107262500D03*
X222385712Y-109137500D03*
X222385712Y-107262500D03*
X207960714Y-109137500D03*
X207960714Y-107262500D03*
D11*
X240887138Y-103187500D03*
X240887138Y-105012500D03*
X201855000Y-103187500D03*
X201855000Y-105012500D03*
D10*
X214142856Y-109137500D03*
X214142856Y-107262500D03*
D11*
X205855000Y-103187500D03*
X205855000Y-105012500D03*
D10*
X212082142Y-109137500D03*
X212082142Y-107262500D03*
X251235708Y-109137500D03*
X251235708Y-107262500D03*
D11*
X220279998Y-103187500D03*
X220279998Y-105012500D03*
D10*
X220324998Y-109137500D03*
X220324998Y-107262500D03*
X210021428Y-109137500D03*
X210021428Y-107262500D03*
X218264284Y-109137500D03*
X218264284Y-107262500D03*
D11*
X236765710Y-103187500D03*
X236765710Y-105012500D03*
D10*
X245053566Y-109137500D03*
X245053566Y-107262500D03*
X253296422Y-109137500D03*
X253296422Y-107262500D03*
D11*
X242947852Y-103187500D03*
X242947852Y-105012500D03*
X230583568Y-103187500D03*
X230583568Y-105012500D03*
X209976428Y-103187500D03*
X209976428Y-105012500D03*
X247069280Y-103187500D03*
X247069280Y-105012500D03*
D10*
X232689282Y-109137500D03*
X232689282Y-107262500D03*
D11*
X251190708Y-103187500D03*
X251190708Y-105012500D03*
X234704996Y-103187500D03*
X234704996Y-105012500D03*
X253251422Y-103187500D03*
X253251422Y-105012500D03*
D10*
X255357136Y-109137500D03*
X255357136Y-107262500D03*
X234749996Y-109137500D03*
X234749996Y-107262500D03*
D11*
X222355000Y-103187500D03*
X222355000Y-105012500D03*
D10*
X242992852Y-109137500D03*
X242992852Y-107262500D03*
D11*
X232644282Y-103187500D03*
X232644282Y-105012500D03*
X218219284Y-103187500D03*
X218219284Y-105012500D03*
D10*
X216203570Y-109137500D03*
X216203570Y-107262500D03*
D11*
X249129994Y-103187500D03*
X249129994Y-105012500D03*
D10*
X238871424Y-109137500D03*
X238871424Y-107262500D03*
D11*
X212037142Y-103187500D03*
X212037142Y-105012500D03*
M02*
