M48
; DRILL file {KiCad (5.1.7-0-10_14)} date Saturday, March 20, 2021 at 09:17:27 PM
; FORMAT={-:-/ absolute / inch / decimal}
; #@! TF.CreationDate,2021-03-20T21:17:27-05:00
; #@! TF.GenerationSoftware,Kicad,Pcbnew,(5.1.7-0-10_14)
; #@! TF.FileFunction,Plated,1,2,PTH
FMAT,2
INCH
T1C0.0157
T2C0.0394
%
G90
G05
T1
X7.0975Y-2.36
X7.294Y-2.366
X7.4945Y-2.403
T2
X5.294Y-3.827
X5.294Y-3.927
X5.394Y-3.827
X5.394Y-3.927
X5.494Y-3.827
X5.494Y-3.927
X5.594Y-3.827
X5.594Y-3.927
X5.694Y-3.827
X5.694Y-3.927
X5.794Y-3.827
X5.794Y-3.927
X5.894Y-3.827
X5.894Y-3.927
X5.994Y-3.827
X5.994Y-3.927
X6.094Y-3.827
X6.094Y-3.927
X6.194Y-3.827
X6.194Y-3.927
X6.294Y-3.827
X6.294Y-3.927
X6.394Y-3.827
X6.394Y-3.927
X6.494Y-3.827
X6.494Y-3.927
X6.594Y-3.827
X6.594Y-3.927
X6.694Y-3.827
X6.694Y-3.927
X6.794Y-3.827
X6.794Y-3.927
X6.894Y-3.827
X6.894Y-3.927
X6.994Y-3.827
X6.994Y-3.927
X7.094Y-3.827
X7.094Y-3.927
X7.194Y-3.827
X7.194Y-3.927
X7.294Y-3.827
X7.294Y-3.927
X7.394Y-3.827
X7.394Y-3.927
X7.494Y-3.827
X7.494Y-3.927
X7.594Y-3.827
X7.594Y-3.927
X7.694Y-3.827
X7.694Y-3.927
X6.994Y-2.561
X7.094Y-2.561
X7.194Y-2.561
X7.294Y-2.561
X7.394Y-2.561
X7.494Y-2.561
X7.594Y-2.561
X7.694Y-2.561
X4.7125Y-1.906
X4.7125Y-2.006
X4.7125Y-2.106
X4.7125Y-2.206
X4.7125Y-2.306
X4.7125Y-2.406
X4.7125Y-2.506
X4.7125Y-2.606
X4.7125Y-2.706
X4.7125Y-2.806
X4.7125Y-2.906
X4.7125Y-3.006
X4.7125Y-3.106
X4.7125Y-3.206
X4.7125Y-3.306
X4.7125Y-3.406
X4.7125Y-3.506
X4.7125Y-3.606
X4.7125Y-3.706
X4.7125Y-3.806
X4.7125Y-3.906
X4.7125Y-4.006
X4.7125Y-4.106
X4.7125Y-4.206
X4.7125Y-4.306
X4.7125Y-4.406
X4.7125Y-4.506
X4.8125Y-1.906
X4.8125Y-2.006
X4.8125Y-2.106
X4.8125Y-2.206
X4.8125Y-2.306
X4.8125Y-2.406
X4.8125Y-2.506
X4.8125Y-2.606
X4.8125Y-2.706
X4.8125Y-2.806
X4.8125Y-2.906
X4.8125Y-3.006
X4.8125Y-3.106
X4.8125Y-3.206
X4.8125Y-3.306
X4.8125Y-3.406
X4.8125Y-3.506
X4.8125Y-3.606
X4.8125Y-3.706
X4.8125Y-3.806
X4.8125Y-3.906
X4.8125Y-4.006
X4.8125Y-4.106
X4.8125Y-4.206
X4.8125Y-4.306
X4.8125Y-4.406
X4.8125Y-4.506
X4.5125Y-1.9065
X4.5125Y-2.0065
X4.5125Y-2.1065
X4.5125Y-2.2065
X4.5125Y-2.3065
X4.5125Y-2.4065
X4.5125Y-2.5065
X4.5125Y-2.6065
X4.5125Y-2.7065
X4.5125Y-2.8065
X4.5125Y-2.9065
X4.5125Y-3.0065
X4.5125Y-3.1065
X4.5125Y-3.2065
X4.5125Y-3.3065
X4.5125Y-3.4065
X4.5125Y-3.5065
X4.5125Y-3.6065
X4.5125Y-3.7065
X4.5125Y-3.8065
X4.5125Y-3.9065
X4.5125Y-4.0065
X4.5125Y-4.1065
X4.5125Y-4.2065
X4.5125Y-4.3065
X4.5125Y-4.4065
X4.5125Y-4.5065
X4.6125Y-1.9065
X4.6125Y-2.0065
X4.6125Y-2.1065
X4.6125Y-2.2065
X4.6125Y-2.3065
X4.6125Y-2.4065
X4.6125Y-2.5065
X4.6125Y-2.6065
X4.6125Y-2.7065
X4.6125Y-2.8065
X4.6125Y-2.9065
X4.6125Y-3.0065
X4.6125Y-3.1065
X4.6125Y-3.2065
X4.6125Y-3.3065
X4.6125Y-3.4065
X4.6125Y-3.5065
X4.6125Y-3.6065
X4.6125Y-3.7065
X4.6125Y-3.8065
X4.6125Y-3.9065
X4.6125Y-4.0065
X4.6125Y-4.1065
X4.6125Y-4.2065
X4.6125Y-4.3065
X4.6125Y-4.4065
X4.6125Y-4.5065
X5.294Y-2.5665
X5.394Y-2.5665
X5.494Y-2.5665
X5.594Y-2.5665
X5.694Y-2.5665
X5.794Y-2.5665
X5.894Y-2.5665
X5.994Y-2.5665
X4.3125Y-1.9065
X4.3125Y-2.0065
X4.3125Y-2.1065
X4.3125Y-2.2065
X4.3125Y-2.3065
X4.3125Y-2.4065
X4.3125Y-2.5065
X4.3125Y-2.6065
X4.3125Y-2.7065
X4.3125Y-2.8065
X4.3125Y-2.9065
X4.3125Y-3.0065
X4.3125Y-3.1065
X4.3125Y-3.2065
X4.3125Y-3.3065
X4.3125Y-3.4065
X4.3125Y-3.5065
X4.3125Y-3.6065
X4.3125Y-3.7065
X4.3125Y-3.8065
X4.3125Y-3.9065
X4.3125Y-4.0065
X4.3125Y-4.1065
X4.3125Y-4.2065
X4.3125Y-4.3065
X4.3125Y-4.4065
X4.3125Y-4.5065
X4.4125Y-1.9065
X4.4125Y-2.0065
X4.4125Y-2.1065
X4.4125Y-2.2065
X4.4125Y-2.3065
X4.4125Y-2.4065
X4.4125Y-2.5065
X4.4125Y-2.6065
X4.4125Y-2.7065
X4.4125Y-2.8065
X4.4125Y-2.9065
X4.4125Y-3.0065
X4.4125Y-3.1065
X4.4125Y-3.2065
X4.4125Y-3.3065
X4.4125Y-3.4065
X4.4125Y-3.5065
X4.4125Y-3.6065
X4.4125Y-3.7065
X4.4125Y-3.8065
X4.4125Y-3.9065
X4.4125Y-4.0065
X4.4125Y-4.1065
X4.4125Y-4.2065
X4.4125Y-4.3065
X4.4125Y-4.4065
X4.4125Y-4.5065
X5.294Y-3.302
X5.294Y-3.402
X5.394Y-3.302
X5.394Y-3.402
X5.494Y-3.302
X5.494Y-3.402
X5.594Y-3.302
X5.594Y-3.402
X5.694Y-3.302
X5.694Y-3.402
X5.794Y-3.302
X5.794Y-3.402
X5.894Y-3.302
X5.894Y-3.402
X5.994Y-3.302
X5.994Y-3.402
X6.094Y-3.302
X6.094Y-3.402
X6.194Y-3.302
X6.194Y-3.402
X6.294Y-3.302
X6.294Y-3.402
X6.394Y-3.302
X6.394Y-3.402
X6.494Y-3.302
X6.494Y-3.402
X6.594Y-3.302
X6.594Y-3.402
X6.694Y-3.302
X6.694Y-3.402
X6.794Y-3.302
X6.794Y-3.402
X6.894Y-3.302
X6.894Y-3.402
X6.994Y-3.302
X6.994Y-3.402
X7.094Y-3.302
X7.094Y-3.402
X7.194Y-3.302
X7.194Y-3.402
X7.294Y-3.302
X7.294Y-3.402
X7.394Y-3.302
X7.394Y-3.402
X7.494Y-3.302
X7.494Y-3.402
X7.594Y-3.302
X7.594Y-3.402
X7.694Y-3.302
X7.694Y-3.402
T0
M30
