%TF.GenerationSoftware,KiCad,Pcbnew,(5.1.7-0-10_14)*%
%TF.CreationDate,2021-03-20T21:17:23-05:00*%
%TF.ProjectId,Apple_II_Breakout,4170706c-655f-4494-995f-427265616b6f,rev?*%
%TF.SameCoordinates,Original*%
%TF.FileFunction,Soldermask,Bot*%
%TF.FilePolarity,Negative*%
%FSLAX46Y46*%
G04 Gerber Fmt 4.6, Leading zero omitted, Abs format (unit mm)*
G04 Created by KiCad (PCBNEW (5.1.7-0-10_14)) date 2021-03-20 21:17:23*
%MOMM*%
%LPD*%
G01*
G04 APERTURE LIST*
%ADD10O,1.700000X1.700000*%
%ADD11R,1.700000X1.700000*%
%ADD12R,1.778000X7.620000*%
G04 APERTURE END LIST*
D10*
%TO.C,J7*%
X122237500Y-114452400D03*
X119697500Y-114452400D03*
X122237500Y-111912400D03*
X119697500Y-111912400D03*
X122237500Y-109372400D03*
X119697500Y-109372400D03*
X122237500Y-106832400D03*
X119697500Y-106832400D03*
X122237500Y-104292400D03*
X119697500Y-104292400D03*
X122237500Y-101752400D03*
X119697500Y-101752400D03*
X122237500Y-99212400D03*
X119697500Y-99212400D03*
X122237500Y-96672400D03*
X119697500Y-96672400D03*
X122237500Y-94132400D03*
X119697500Y-94132400D03*
X122237500Y-91592400D03*
X119697500Y-91592400D03*
X122237500Y-89052400D03*
X119697500Y-89052400D03*
X122237500Y-86512400D03*
X119697500Y-86512400D03*
X122237500Y-83972400D03*
X119697500Y-83972400D03*
X122237500Y-81432400D03*
X119697500Y-81432400D03*
X122237500Y-78892400D03*
X119697500Y-78892400D03*
X122237500Y-76352400D03*
X119697500Y-76352400D03*
X122237500Y-73812400D03*
X119697500Y-73812400D03*
X122237500Y-71272400D03*
X119697500Y-71272400D03*
X122237500Y-68732400D03*
X119697500Y-68732400D03*
X122237500Y-66192400D03*
X119697500Y-66192400D03*
X122237500Y-63652400D03*
X119697500Y-63652400D03*
X122237500Y-61112400D03*
X119697500Y-61112400D03*
X122237500Y-58572400D03*
X119697500Y-58572400D03*
X122237500Y-56032400D03*
X119697500Y-56032400D03*
X122237500Y-53492400D03*
X119697500Y-53492400D03*
X122237500Y-50952400D03*
X119697500Y-50952400D03*
X122237500Y-48412400D03*
D11*
X119697500Y-48412400D03*
%TD*%
D10*
%TO.C,J6*%
X117157500Y-114465100D03*
X114617500Y-114465100D03*
X117157500Y-111925100D03*
X114617500Y-111925100D03*
X117157500Y-109385100D03*
X114617500Y-109385100D03*
X117157500Y-106845100D03*
X114617500Y-106845100D03*
X117157500Y-104305100D03*
X114617500Y-104305100D03*
X117157500Y-101765100D03*
X114617500Y-101765100D03*
X117157500Y-99225100D03*
X114617500Y-99225100D03*
X117157500Y-96685100D03*
X114617500Y-96685100D03*
X117157500Y-94145100D03*
X114617500Y-94145100D03*
X117157500Y-91605100D03*
X114617500Y-91605100D03*
X117157500Y-89065100D03*
X114617500Y-89065100D03*
X117157500Y-86525100D03*
X114617500Y-86525100D03*
X117157500Y-83985100D03*
X114617500Y-83985100D03*
X117157500Y-81445100D03*
X114617500Y-81445100D03*
X117157500Y-78905100D03*
X114617500Y-78905100D03*
X117157500Y-76365100D03*
X114617500Y-76365100D03*
X117157500Y-73825100D03*
X114617500Y-73825100D03*
X117157500Y-71285100D03*
X114617500Y-71285100D03*
X117157500Y-68745100D03*
X114617500Y-68745100D03*
X117157500Y-66205100D03*
X114617500Y-66205100D03*
X117157500Y-63665100D03*
X114617500Y-63665100D03*
X117157500Y-61125100D03*
X114617500Y-61125100D03*
X117157500Y-58585100D03*
X114617500Y-58585100D03*
X117157500Y-56045100D03*
X114617500Y-56045100D03*
X117157500Y-53505100D03*
X114617500Y-53505100D03*
X117157500Y-50965100D03*
X114617500Y-50965100D03*
X117157500Y-48425100D03*
D11*
X114617500Y-48425100D03*
%TD*%
D10*
%TO.C,J5*%
X112077500Y-114465100D03*
X109537500Y-114465100D03*
X112077500Y-111925100D03*
X109537500Y-111925100D03*
X112077500Y-109385100D03*
X109537500Y-109385100D03*
X112077500Y-106845100D03*
X109537500Y-106845100D03*
X112077500Y-104305100D03*
X109537500Y-104305100D03*
X112077500Y-101765100D03*
X109537500Y-101765100D03*
X112077500Y-99225100D03*
X109537500Y-99225100D03*
X112077500Y-96685100D03*
X109537500Y-96685100D03*
X112077500Y-94145100D03*
X109537500Y-94145100D03*
X112077500Y-91605100D03*
X109537500Y-91605100D03*
X112077500Y-89065100D03*
X109537500Y-89065100D03*
X112077500Y-86525100D03*
X109537500Y-86525100D03*
X112077500Y-83985100D03*
X109537500Y-83985100D03*
X112077500Y-81445100D03*
X109537500Y-81445100D03*
X112077500Y-78905100D03*
X109537500Y-78905100D03*
X112077500Y-76365100D03*
X109537500Y-76365100D03*
X112077500Y-73825100D03*
X109537500Y-73825100D03*
X112077500Y-71285100D03*
X109537500Y-71285100D03*
X112077500Y-68745100D03*
X109537500Y-68745100D03*
X112077500Y-66205100D03*
X109537500Y-66205100D03*
X112077500Y-63665100D03*
X109537500Y-63665100D03*
X112077500Y-61125100D03*
X109537500Y-61125100D03*
X112077500Y-58585100D03*
X109537500Y-58585100D03*
X112077500Y-56045100D03*
X109537500Y-56045100D03*
X112077500Y-53505100D03*
X109537500Y-53505100D03*
X112077500Y-50965100D03*
X109537500Y-50965100D03*
X112077500Y-48425100D03*
D11*
X109537500Y-48425100D03*
%TD*%
D10*
%TO.C,J4*%
X195427600Y-83870800D03*
X195427600Y-86410800D03*
X192887600Y-83870800D03*
X192887600Y-86410800D03*
X190347600Y-83870800D03*
X190347600Y-86410800D03*
X187807600Y-83870800D03*
X187807600Y-86410800D03*
X185267600Y-83870800D03*
X185267600Y-86410800D03*
X182727600Y-83870800D03*
X182727600Y-86410800D03*
X180187600Y-83870800D03*
X180187600Y-86410800D03*
X177647600Y-83870800D03*
X177647600Y-86410800D03*
X175107600Y-83870800D03*
X175107600Y-86410800D03*
X172567600Y-83870800D03*
X172567600Y-86410800D03*
X170027600Y-83870800D03*
X170027600Y-86410800D03*
X167487600Y-83870800D03*
X167487600Y-86410800D03*
X164947600Y-83870800D03*
X164947600Y-86410800D03*
X162407600Y-83870800D03*
X162407600Y-86410800D03*
X159867600Y-83870800D03*
X159867600Y-86410800D03*
X157327600Y-83870800D03*
X157327600Y-86410800D03*
X154787600Y-83870800D03*
X154787600Y-86410800D03*
X152247600Y-83870800D03*
X152247600Y-86410800D03*
X149707600Y-83870800D03*
X149707600Y-86410800D03*
X147167600Y-83870800D03*
X147167600Y-86410800D03*
X144627600Y-83870800D03*
X144627600Y-86410800D03*
X142087600Y-83870800D03*
X142087600Y-86410800D03*
X139547600Y-83870800D03*
X139547600Y-86410800D03*
X137007600Y-83870800D03*
X137007600Y-86410800D03*
X134467600Y-83870800D03*
D11*
X134467600Y-86410800D03*
%TD*%
D10*
%TO.C,J3*%
X177647600Y-65049400D03*
X180187600Y-65049400D03*
X182727600Y-65049400D03*
X185267600Y-65049400D03*
X187807600Y-65049400D03*
X190347600Y-65049400D03*
X192887600Y-65049400D03*
D11*
X195427600Y-65049400D03*
%TD*%
D10*
%TO.C,J2*%
X195427600Y-97205800D03*
X195427600Y-99745800D03*
X192887600Y-97205800D03*
X192887600Y-99745800D03*
X190347600Y-97205800D03*
X190347600Y-99745800D03*
X187807600Y-97205800D03*
X187807600Y-99745800D03*
X185267600Y-97205800D03*
X185267600Y-99745800D03*
X182727600Y-97205800D03*
X182727600Y-99745800D03*
X180187600Y-97205800D03*
X180187600Y-99745800D03*
X177647600Y-97205800D03*
X177647600Y-99745800D03*
X175107600Y-97205800D03*
X175107600Y-99745800D03*
X172567600Y-97205800D03*
X172567600Y-99745800D03*
X170027600Y-97205800D03*
X170027600Y-99745800D03*
X167487600Y-97205800D03*
X167487600Y-99745800D03*
X164947600Y-97205800D03*
X164947600Y-99745800D03*
X162407600Y-97205800D03*
X162407600Y-99745800D03*
X159867600Y-97205800D03*
X159867600Y-99745800D03*
X157327600Y-97205800D03*
X157327600Y-99745800D03*
X154787600Y-97205800D03*
X154787600Y-99745800D03*
X152247600Y-97205800D03*
X152247600Y-99745800D03*
X149707600Y-97205800D03*
X149707600Y-99745800D03*
X147167600Y-97205800D03*
X147167600Y-99745800D03*
X144627600Y-97205800D03*
X144627600Y-99745800D03*
X142087600Y-97205800D03*
X142087600Y-99745800D03*
X139547600Y-97205800D03*
X139547600Y-99745800D03*
X137007600Y-97205800D03*
X137007600Y-99745800D03*
X134467600Y-97205800D03*
D11*
X134467600Y-99745800D03*
%TD*%
D10*
%TO.C,J1*%
X134467600Y-65189100D03*
X137007600Y-65189100D03*
X139547600Y-65189100D03*
X142087600Y-65189100D03*
X144627600Y-65189100D03*
X147167600Y-65189100D03*
X149707600Y-65189100D03*
D11*
X152247600Y-65189100D03*
%TD*%
D12*
%TO.C,BUS1*%
X195453000Y-121539000D03*
X192913000Y-121539000D03*
X190373000Y-121539000D03*
X187833000Y-121539000D03*
X185293000Y-121539000D03*
X182753000Y-121539000D03*
X180213000Y-121539000D03*
X177673000Y-121539000D03*
X175133000Y-121539000D03*
X172593000Y-121539000D03*
X170053000Y-121539000D03*
X167513000Y-121539000D03*
X164973000Y-121539000D03*
X162433000Y-121539000D03*
X159893000Y-121539000D03*
X157353000Y-121539000D03*
X154813000Y-121539000D03*
X152273000Y-121539000D03*
X149733000Y-121539000D03*
X147193000Y-121539000D03*
X144653000Y-121539000D03*
X142113000Y-121539000D03*
X139573000Y-121539000D03*
X137033000Y-121539000D03*
X134493000Y-121539000D03*
%TD*%
M02*
