%TF.GenerationSoftware,KiCad,Pcbnew,(6.0.5)*%
%TF.CreationDate,2022-06-02T22:48:02-05:00*%
%TF.ProjectId,rascsi_3p5_holder,72617363-7369-45f3-9370-355f686f6c64,rev?*%
%TF.SameCoordinates,Original*%
%TF.FileFunction,Legend,Bot*%
%TF.FilePolarity,Positive*%
%FSLAX46Y46*%
G04 Gerber Fmt 4.6, Leading zero omitted, Abs format (unit mm)*
G04 Created by KiCad (PCBNEW (6.0.5)) date 2022-06-02 22:48:02*
%MOMM*%
%LPD*%
G01*
G04 APERTURE LIST*
%ADD10C,1.250000*%
%ADD11C,0.300000*%
%ADD12C,0.150000*%
%ADD13C,0.010000*%
G04 APERTURE END LIST*
D10*
X243547172Y-110286904D02*
X244916220Y-107905952D01*
X246404315Y-110286904D02*
X245779315Y-105286904D01*
X243874553Y-105286904D01*
X243428125Y-105525000D01*
X243219791Y-105763095D01*
X243041220Y-106239285D01*
X243130505Y-106953571D01*
X243428125Y-107429761D01*
X243695982Y-107667857D01*
X244201934Y-107905952D01*
X246106696Y-107905952D01*
X239261458Y-110286904D02*
X238934077Y-107667857D01*
X239112648Y-107191666D01*
X239559077Y-106953571D01*
X240511458Y-106953571D01*
X241017410Y-107191666D01*
X239231696Y-110048809D02*
X239737648Y-110286904D01*
X240928125Y-110286904D01*
X241374553Y-110048809D01*
X241553125Y-109572619D01*
X241493601Y-109096428D01*
X241195982Y-108620238D01*
X240690029Y-108382142D01*
X239499553Y-108382142D01*
X238993601Y-108144047D01*
X237088839Y-110048809D02*
X236404315Y-110286904D01*
X235213839Y-110286904D01*
X234707886Y-110048809D01*
X234440029Y-109810714D01*
X234142410Y-109334523D01*
X234082886Y-108858333D01*
X234261458Y-108382142D01*
X234469791Y-108144047D01*
X234916220Y-107905952D01*
X235838839Y-107667857D01*
X236285267Y-107429761D01*
X236493601Y-107191666D01*
X236672172Y-106715476D01*
X236612648Y-106239285D01*
X236315029Y-105763095D01*
X236047172Y-105525000D01*
X235541220Y-105286904D01*
X234350744Y-105286904D01*
X233666220Y-105525000D01*
X229201934Y-109810714D02*
X229469791Y-110048809D01*
X230213839Y-110286904D01*
X230690029Y-110286904D01*
X231374553Y-110048809D01*
X231791220Y-109572619D01*
X231969791Y-109096428D01*
X232088839Y-108144047D01*
X231999553Y-107429761D01*
X231642410Y-106477380D01*
X231344791Y-106001190D01*
X230809077Y-105525000D01*
X230065029Y-105286904D01*
X229588839Y-105286904D01*
X228904315Y-105525000D01*
X228695982Y-105763095D01*
X227326934Y-110048809D02*
X226642410Y-110286904D01*
X225451934Y-110286904D01*
X224945982Y-110048809D01*
X224678125Y-109810714D01*
X224380505Y-109334523D01*
X224320982Y-108858333D01*
X224499553Y-108382142D01*
X224707886Y-108144047D01*
X225154315Y-107905952D01*
X226076934Y-107667857D01*
X226523363Y-107429761D01*
X226731696Y-107191666D01*
X226910267Y-106715476D01*
X226850744Y-106239285D01*
X226553125Y-105763095D01*
X226285267Y-105525000D01*
X225779315Y-105286904D01*
X224588839Y-105286904D01*
X223904315Y-105525000D01*
X222356696Y-110286904D02*
X221731696Y-105286904D01*
X216017410Y-105286904D02*
X212922172Y-105286904D01*
X214826934Y-107191666D01*
X214112648Y-107191666D01*
X213666220Y-107429761D01*
X213457886Y-107667857D01*
X213279315Y-108144047D01*
X213428125Y-109334523D01*
X213725744Y-109810714D01*
X213993601Y-110048809D01*
X214499553Y-110286904D01*
X215928125Y-110286904D01*
X216374553Y-110048809D01*
X216582886Y-109810714D01*
X211344791Y-109810714D02*
X211136458Y-110048809D01*
X211404315Y-110286904D01*
X211612648Y-110048809D01*
X211344791Y-109810714D01*
X211404315Y-110286904D01*
X206017410Y-105286904D02*
X208398363Y-105286904D01*
X208934077Y-107667857D01*
X208666220Y-107429761D01*
X208160267Y-107191666D01*
X206969791Y-107191666D01*
X206523363Y-107429761D01*
X206315029Y-107667857D01*
X206136458Y-108144047D01*
X206285267Y-109334523D01*
X206582886Y-109810714D01*
X206850744Y-110048809D01*
X207356696Y-110286904D01*
X208547172Y-110286904D01*
X208993601Y-110048809D01*
X209201934Y-109810714D01*
X203874553Y-105286904D02*
X203993601Y-106239285D01*
X201969791Y-105286904D02*
X202088839Y-106239285D01*
X196642410Y-110286904D02*
X196017410Y-105286904D01*
X194826934Y-105286904D01*
X194142410Y-105525000D01*
X193725744Y-106001190D01*
X193547172Y-106477380D01*
X193428125Y-107429761D01*
X193517410Y-108144047D01*
X193874553Y-109096428D01*
X194172172Y-109572619D01*
X194707886Y-110048809D01*
X195451934Y-110286904D01*
X196642410Y-110286904D01*
X191642410Y-110286904D02*
X191225744Y-106953571D01*
X191344791Y-107905952D02*
X191047172Y-107429761D01*
X190779315Y-107191666D01*
X190273363Y-106953571D01*
X189797172Y-106953571D01*
X188547172Y-110286904D02*
X188130505Y-106953571D01*
X187922172Y-105286904D02*
X188190029Y-105525000D01*
X187981696Y-105763095D01*
X187713839Y-105525000D01*
X187922172Y-105286904D01*
X187981696Y-105763095D01*
X186225744Y-106953571D02*
X185451934Y-110286904D01*
X183844791Y-106953571D01*
X180422172Y-110048809D02*
X180928125Y-110286904D01*
X181880505Y-110286904D01*
X182326934Y-110048809D01*
X182505505Y-109572619D01*
X182267410Y-107667857D01*
X181969791Y-107191666D01*
X181463839Y-106953571D01*
X180511458Y-106953571D01*
X180065029Y-107191666D01*
X179886458Y-107667857D01*
X179945982Y-108144047D01*
X182386458Y-108620238D01*
X232892410Y-117860714D02*
X233160267Y-118098809D01*
X233904315Y-118336904D01*
X234380505Y-118336904D01*
X235065029Y-118098809D01*
X235481696Y-117622619D01*
X235660267Y-117146428D01*
X235779315Y-116194047D01*
X235690029Y-115479761D01*
X235332886Y-114527380D01*
X235035267Y-114051190D01*
X234499553Y-113575000D01*
X233755505Y-113336904D01*
X233279315Y-113336904D01*
X232594791Y-113575000D01*
X232386458Y-113813095D01*
X228666220Y-118336904D02*
X228338839Y-115717857D01*
X228517410Y-115241666D01*
X228963839Y-115003571D01*
X229916220Y-115003571D01*
X230422172Y-115241666D01*
X228636458Y-118098809D02*
X229142410Y-118336904D01*
X230332886Y-118336904D01*
X230779315Y-118098809D01*
X230957886Y-117622619D01*
X230898363Y-117146428D01*
X230600744Y-116670238D01*
X230094791Y-116432142D01*
X228904315Y-116432142D01*
X228398363Y-116194047D01*
X226285267Y-118336904D02*
X225868601Y-115003571D01*
X225987648Y-115955952D02*
X225690029Y-115479761D01*
X225422172Y-115241666D01*
X224916220Y-115003571D01*
X224440029Y-115003571D01*
X223190029Y-118336904D02*
X222773363Y-115003571D01*
X222892410Y-115955952D02*
X222594791Y-115479761D01*
X222326934Y-115241666D01*
X221820982Y-115003571D01*
X221344791Y-115003571D01*
X220094791Y-118336904D02*
X219678125Y-115003571D01*
X219469791Y-113336904D02*
X219737648Y-113575000D01*
X219529315Y-113813095D01*
X219261458Y-113575000D01*
X219469791Y-113336904D01*
X219529315Y-113813095D01*
X215779315Y-118098809D02*
X216285267Y-118336904D01*
X217237648Y-118336904D01*
X217684077Y-118098809D01*
X217862648Y-117622619D01*
X217624553Y-115717857D01*
X217326934Y-115241666D01*
X216820982Y-115003571D01*
X215868601Y-115003571D01*
X215422172Y-115241666D01*
X215243601Y-115717857D01*
X215303125Y-116194047D01*
X217743601Y-116670238D01*
X213428125Y-118336904D02*
X213011458Y-115003571D01*
X213130505Y-115955952D02*
X212832886Y-115479761D01*
X212565029Y-115241666D01*
X212059077Y-115003571D01*
X211582886Y-115003571D01*
X204529315Y-115717857D02*
X203844791Y-115955952D01*
X203636458Y-116194047D01*
X203457886Y-116670238D01*
X203547172Y-117384523D01*
X203844791Y-117860714D01*
X204112648Y-118098809D01*
X204618601Y-118336904D01*
X206523363Y-118336904D01*
X205898363Y-113336904D01*
X204231696Y-113336904D01*
X203785267Y-113575000D01*
X203576934Y-113813095D01*
X203398363Y-114289285D01*
X203457886Y-114765476D01*
X203755505Y-115241666D01*
X204023363Y-115479761D01*
X204529315Y-115717857D01*
X206195982Y-115717857D01*
X200809077Y-118336904D02*
X201255505Y-118098809D01*
X201463839Y-117860714D01*
X201642410Y-117384523D01*
X201463839Y-115955952D01*
X201166220Y-115479761D01*
X200898363Y-115241666D01*
X200392410Y-115003571D01*
X199678125Y-115003571D01*
X199231696Y-115241666D01*
X199023363Y-115479761D01*
X198844791Y-115955952D01*
X199023363Y-117384523D01*
X199320982Y-117860714D01*
X199588839Y-118098809D01*
X200094791Y-118336904D01*
X200809077Y-118336904D01*
X194856696Y-118336904D02*
X194529315Y-115717857D01*
X194707886Y-115241666D01*
X195154315Y-115003571D01*
X196106696Y-115003571D01*
X196612648Y-115241666D01*
X194826934Y-118098809D02*
X195332886Y-118336904D01*
X196523363Y-118336904D01*
X196969791Y-118098809D01*
X197148363Y-117622619D01*
X197088839Y-117146428D01*
X196791220Y-116670238D01*
X196285267Y-116432142D01*
X195094791Y-116432142D01*
X194588839Y-116194047D01*
X192475744Y-118336904D02*
X192059077Y-115003571D01*
X192178125Y-115955952D02*
X191880505Y-115479761D01*
X191612648Y-115241666D01*
X191106696Y-115003571D01*
X190630505Y-115003571D01*
X187237648Y-118336904D02*
X186612648Y-113336904D01*
X187207886Y-118098809D02*
X187713839Y-118336904D01*
X188666220Y-118336904D01*
X189112648Y-118098809D01*
X189320982Y-117860714D01*
X189499553Y-117384523D01*
X189320982Y-115955952D01*
X189023363Y-115479761D01*
X188755505Y-115241666D01*
X188249553Y-115003571D01*
X187297172Y-115003571D01*
X186850744Y-115241666D01*
D11*
X216535714Y-121928571D02*
X216035714Y-123428571D01*
X215535714Y-121928571D01*
X214464285Y-123357142D02*
X214607142Y-123428571D01*
X214892857Y-123428571D01*
X215035714Y-123357142D01*
X215107142Y-123214285D01*
X215107142Y-122642857D01*
X215035714Y-122500000D01*
X214892857Y-122428571D01*
X214607142Y-122428571D01*
X214464285Y-122500000D01*
X214392857Y-122642857D01*
X214392857Y-122785714D01*
X215107142Y-122928571D01*
X213750000Y-123428571D02*
X213750000Y-122428571D01*
X213750000Y-122714285D02*
X213678571Y-122571428D01*
X213607142Y-122500000D01*
X213464285Y-122428571D01*
X213321428Y-122428571D01*
X212892857Y-123357142D02*
X212750000Y-123428571D01*
X212464285Y-123428571D01*
X212321428Y-123357142D01*
X212250000Y-123214285D01*
X212250000Y-123142857D01*
X212321428Y-123000000D01*
X212464285Y-122928571D01*
X212678571Y-122928571D01*
X212821428Y-122857142D01*
X212892857Y-122714285D01*
X212892857Y-122642857D01*
X212821428Y-122500000D01*
X212678571Y-122428571D01*
X212464285Y-122428571D01*
X212321428Y-122500000D01*
X211607142Y-123428571D02*
X211607142Y-122428571D01*
X211607142Y-121928571D02*
X211678571Y-122000000D01*
X211607142Y-122071428D01*
X211535714Y-122000000D01*
X211607142Y-121928571D01*
X211607142Y-122071428D01*
X210678571Y-123428571D02*
X210821428Y-123357142D01*
X210892857Y-123285714D01*
X210964285Y-123142857D01*
X210964285Y-122714285D01*
X210892857Y-122571428D01*
X210821428Y-122500000D01*
X210678571Y-122428571D01*
X210464285Y-122428571D01*
X210321428Y-122500000D01*
X210250000Y-122571428D01*
X210178571Y-122714285D01*
X210178571Y-123142857D01*
X210250000Y-123285714D01*
X210321428Y-123357142D01*
X210464285Y-123428571D01*
X210678571Y-123428571D01*
X209535714Y-122428571D02*
X209535714Y-123428571D01*
X209535714Y-122571428D02*
X209464285Y-122500000D01*
X209321428Y-122428571D01*
X209107142Y-122428571D01*
X208964285Y-122500000D01*
X208892857Y-122642857D01*
X208892857Y-123428571D01*
X206250000Y-123428571D02*
X207107142Y-123428571D01*
X206678571Y-123428571D02*
X206678571Y-121928571D01*
X206821428Y-122142857D01*
X206964285Y-122285714D01*
X207107142Y-122357142D01*
X205607142Y-123285714D02*
X205535714Y-123357142D01*
X205607142Y-123428571D01*
X205678571Y-123357142D01*
X205607142Y-123285714D01*
X205607142Y-123428571D01*
X204607142Y-121928571D02*
X204464285Y-121928571D01*
X204321428Y-122000000D01*
X204250000Y-122071428D01*
X204178571Y-122214285D01*
X204107142Y-122500000D01*
X204107142Y-122857142D01*
X204178571Y-123142857D01*
X204250000Y-123285714D01*
X204321428Y-123357142D01*
X204464285Y-123428571D01*
X204607142Y-123428571D01*
X204750000Y-123357142D01*
X204821428Y-123285714D01*
X204892857Y-123142857D01*
X204964285Y-122857142D01*
X204964285Y-122500000D01*
X204892857Y-122214285D01*
X204821428Y-122071428D01*
X204750000Y-122000000D01*
X204607142Y-121928571D01*
D12*
X178211904Y-30500000D02*
X178307142Y-30452380D01*
X178450000Y-30452380D01*
X178592857Y-30500000D01*
X178688095Y-30595238D01*
X178735714Y-30690476D01*
X178783333Y-30880952D01*
X178783333Y-31023809D01*
X178735714Y-31214285D01*
X178688095Y-31309523D01*
X178592857Y-31404761D01*
X178450000Y-31452380D01*
X178354761Y-31452380D01*
X178211904Y-31404761D01*
X178164285Y-31357142D01*
X178164285Y-31023809D01*
X178354761Y-31023809D01*
X177735714Y-31452380D02*
X177735714Y-30452380D01*
X177164285Y-31452380D01*
X177164285Y-30452380D01*
X176688095Y-31452380D02*
X176688095Y-30452380D01*
X176450000Y-30452380D01*
X176307142Y-30500000D01*
X176211904Y-30595238D01*
X176164285Y-30690476D01*
X176116666Y-30880952D01*
X176116666Y-31023809D01*
X176164285Y-31214285D01*
X176211904Y-31309523D01*
X176307142Y-31404761D01*
X176450000Y-31452380D01*
X176688095Y-31452380D01*
X174364285Y-31071428D02*
X173602380Y-31071428D01*
X173983333Y-31452380D02*
X173983333Y-30690476D01*
X172602380Y-31452380D02*
X173173809Y-31452380D01*
X172888095Y-31452380D02*
X172888095Y-30452380D01*
X172983333Y-30595238D01*
X173078571Y-30690476D01*
X173173809Y-30738095D01*
X172221428Y-30547619D02*
X172173809Y-30500000D01*
X172078571Y-30452380D01*
X171840476Y-30452380D01*
X171745238Y-30500000D01*
X171697619Y-30547619D01*
X171650000Y-30642857D01*
X171650000Y-30738095D01*
X171697619Y-30880952D01*
X172269047Y-31452380D01*
X171650000Y-31452380D01*
X171316666Y-30785714D02*
X171078571Y-31452380D01*
X170840476Y-30785714D01*
X183211904Y-30450000D02*
X183307142Y-30402380D01*
X183450000Y-30402380D01*
X183592857Y-30450000D01*
X183688095Y-30545238D01*
X183735714Y-30640476D01*
X183783333Y-30830952D01*
X183783333Y-30973809D01*
X183735714Y-31164285D01*
X183688095Y-31259523D01*
X183592857Y-31354761D01*
X183450000Y-31402380D01*
X183354761Y-31402380D01*
X183211904Y-31354761D01*
X183164285Y-31307142D01*
X183164285Y-30973809D01*
X183354761Y-30973809D01*
X182735714Y-31402380D02*
X182735714Y-30402380D01*
X182164285Y-31402380D01*
X182164285Y-30402380D01*
X181688095Y-31402380D02*
X181688095Y-30402380D01*
X181450000Y-30402380D01*
X181307142Y-30450000D01*
X181211904Y-30545238D01*
X181164285Y-30640476D01*
X181116666Y-30830952D01*
X181116666Y-30973809D01*
X181164285Y-31164285D01*
X181211904Y-31259523D01*
X181307142Y-31354761D01*
X181450000Y-31402380D01*
X181688095Y-31402380D01*
X227704761Y-136702380D02*
X227704761Y-135702380D01*
X227276190Y-136702380D02*
X227276190Y-136178571D01*
X227323809Y-136083333D01*
X227419047Y-136035714D01*
X227561904Y-136035714D01*
X227657142Y-136083333D01*
X227704761Y-136130952D01*
X226942857Y-136035714D02*
X226561904Y-136035714D01*
X226800000Y-135702380D02*
X226800000Y-136559523D01*
X226752380Y-136654761D01*
X226657142Y-136702380D01*
X226561904Y-136702380D01*
X226371428Y-136035714D02*
X225990476Y-136035714D01*
X226228571Y-135702380D02*
X226228571Y-136559523D01*
X226180952Y-136654761D01*
X226085714Y-136702380D01*
X225990476Y-136702380D01*
X225657142Y-136035714D02*
X225657142Y-137035714D01*
X225657142Y-136083333D02*
X225561904Y-136035714D01*
X225371428Y-136035714D01*
X225276190Y-136083333D01*
X225228571Y-136130952D01*
X225180952Y-136226190D01*
X225180952Y-136511904D01*
X225228571Y-136607142D01*
X225276190Y-136654761D01*
X225371428Y-136702380D01*
X225561904Y-136702380D01*
X225657142Y-136654761D01*
X224800000Y-136654761D02*
X224704761Y-136702380D01*
X224514285Y-136702380D01*
X224419047Y-136654761D01*
X224371428Y-136559523D01*
X224371428Y-136511904D01*
X224419047Y-136416666D01*
X224514285Y-136369047D01*
X224657142Y-136369047D01*
X224752380Y-136321428D01*
X224800000Y-136226190D01*
X224800000Y-136178571D01*
X224752380Y-136083333D01*
X224657142Y-136035714D01*
X224514285Y-136035714D01*
X224419047Y-136083333D01*
X223942857Y-136607142D02*
X223895238Y-136654761D01*
X223942857Y-136702380D01*
X223990476Y-136654761D01*
X223942857Y-136607142D01*
X223942857Y-136702380D01*
X223942857Y-136083333D02*
X223895238Y-136130952D01*
X223942857Y-136178571D01*
X223990476Y-136130952D01*
X223942857Y-136083333D01*
X223942857Y-136178571D01*
X222752380Y-135654761D02*
X223609523Y-136940476D01*
X221704761Y-135654761D02*
X222561904Y-136940476D01*
X220942857Y-136035714D02*
X220942857Y-136845238D01*
X220990476Y-136940476D01*
X221038095Y-136988095D01*
X221133333Y-137035714D01*
X221276190Y-137035714D01*
X221371428Y-136988095D01*
X220942857Y-136654761D02*
X221038095Y-136702380D01*
X221228571Y-136702380D01*
X221323809Y-136654761D01*
X221371428Y-136607142D01*
X221419047Y-136511904D01*
X221419047Y-136226190D01*
X221371428Y-136130952D01*
X221323809Y-136083333D01*
X221228571Y-136035714D01*
X221038095Y-136035714D01*
X220942857Y-136083333D01*
X220466666Y-136702380D02*
X220466666Y-136035714D01*
X220466666Y-135702380D02*
X220514285Y-135750000D01*
X220466666Y-135797619D01*
X220419047Y-135750000D01*
X220466666Y-135702380D01*
X220466666Y-135797619D01*
X220133333Y-136035714D02*
X219752380Y-136035714D01*
X219990476Y-135702380D02*
X219990476Y-136559523D01*
X219942857Y-136654761D01*
X219847619Y-136702380D01*
X219752380Y-136702380D01*
X219419047Y-136702380D02*
X219419047Y-135702380D01*
X218990476Y-136702380D02*
X218990476Y-136178571D01*
X219038095Y-136083333D01*
X219133333Y-136035714D01*
X219276190Y-136035714D01*
X219371428Y-136083333D01*
X219419047Y-136130952D01*
X218085714Y-136035714D02*
X218085714Y-136702380D01*
X218514285Y-136035714D02*
X218514285Y-136559523D01*
X218466666Y-136654761D01*
X218371428Y-136702380D01*
X218228571Y-136702380D01*
X218133333Y-136654761D01*
X218085714Y-136607142D01*
X217609523Y-136702380D02*
X217609523Y-135702380D01*
X217609523Y-136083333D02*
X217514285Y-136035714D01*
X217323809Y-136035714D01*
X217228571Y-136083333D01*
X217180952Y-136130952D01*
X217133333Y-136226190D01*
X217133333Y-136511904D01*
X217180952Y-136607142D01*
X217228571Y-136654761D01*
X217323809Y-136702380D01*
X217514285Y-136702380D01*
X217609523Y-136654761D01*
X216704761Y-136607142D02*
X216657142Y-136654761D01*
X216704761Y-136702380D01*
X216752380Y-136654761D01*
X216704761Y-136607142D01*
X216704761Y-136702380D01*
X215800000Y-136654761D02*
X215895238Y-136702380D01*
X216085714Y-136702380D01*
X216180952Y-136654761D01*
X216228571Y-136607142D01*
X216276190Y-136511904D01*
X216276190Y-136226190D01*
X216228571Y-136130952D01*
X216180952Y-136083333D01*
X216085714Y-136035714D01*
X215895238Y-136035714D01*
X215800000Y-136083333D01*
X215228571Y-136702380D02*
X215323809Y-136654761D01*
X215371428Y-136607142D01*
X215419047Y-136511904D01*
X215419047Y-136226190D01*
X215371428Y-136130952D01*
X215323809Y-136083333D01*
X215228571Y-136035714D01*
X215085714Y-136035714D01*
X214990476Y-136083333D01*
X214942857Y-136130952D01*
X214895238Y-136226190D01*
X214895238Y-136511904D01*
X214942857Y-136607142D01*
X214990476Y-136654761D01*
X215085714Y-136702380D01*
X215228571Y-136702380D01*
X214466666Y-136702380D02*
X214466666Y-136035714D01*
X214466666Y-136130952D02*
X214419047Y-136083333D01*
X214323809Y-136035714D01*
X214180952Y-136035714D01*
X214085714Y-136083333D01*
X214038095Y-136178571D01*
X214038095Y-136702380D01*
X214038095Y-136178571D02*
X213990476Y-136083333D01*
X213895238Y-136035714D01*
X213752380Y-136035714D01*
X213657142Y-136083333D01*
X213609523Y-136178571D01*
X213609523Y-136702380D01*
X212419047Y-135654761D02*
X213276190Y-136940476D01*
X211657142Y-136702380D02*
X211657142Y-136178571D01*
X211704761Y-136083333D01*
X211800000Y-136035714D01*
X211990476Y-136035714D01*
X212085714Y-136083333D01*
X211657142Y-136654761D02*
X211752380Y-136702380D01*
X211990476Y-136702380D01*
X212085714Y-136654761D01*
X212133333Y-136559523D01*
X212133333Y-136464285D01*
X212085714Y-136369047D01*
X211990476Y-136321428D01*
X211752380Y-136321428D01*
X211657142Y-136273809D01*
X211180952Y-136702380D02*
X211180952Y-135702380D01*
X211085714Y-136321428D02*
X210800000Y-136702380D01*
X210800000Y-136035714D02*
X211180952Y-136416666D01*
X209942857Y-136035714D02*
X209942857Y-136702380D01*
X210371428Y-136035714D02*
X210371428Y-136559523D01*
X210323809Y-136654761D01*
X210228571Y-136702380D01*
X210085714Y-136702380D01*
X209990476Y-136654761D01*
X209942857Y-136607142D01*
X209466666Y-136702380D02*
X209466666Y-135702380D01*
X209371428Y-136321428D02*
X209085714Y-136702380D01*
X209085714Y-136035714D02*
X209466666Y-136416666D01*
X208276190Y-136654761D02*
X208371428Y-136702380D01*
X208561904Y-136702380D01*
X208657142Y-136654761D01*
X208704761Y-136559523D01*
X208704761Y-136178571D01*
X208657142Y-136083333D01*
X208561904Y-136035714D01*
X208371428Y-136035714D01*
X208276190Y-136083333D01*
X208228571Y-136178571D01*
X208228571Y-136273809D01*
X208704761Y-136369047D01*
X207800000Y-136702380D02*
X207800000Y-136035714D01*
X207800000Y-136226190D02*
X207752380Y-136130952D01*
X207704761Y-136083333D01*
X207609523Y-136035714D01*
X207514285Y-136035714D01*
X206466666Y-135654761D02*
X207323809Y-136940476D01*
X206133333Y-136702380D02*
X206133333Y-135702380D01*
X205704761Y-136702380D02*
X205704761Y-136178571D01*
X205752380Y-136083333D01*
X205847619Y-136035714D01*
X205990476Y-136035714D01*
X206085714Y-136083333D01*
X206133333Y-136130952D01*
X205323809Y-136035714D02*
X205133333Y-136702380D01*
X204942857Y-136226190D01*
X204752380Y-136702380D01*
X204561904Y-136035714D01*
X204419047Y-136797619D02*
X203657142Y-136797619D01*
X203419047Y-136035714D02*
X203419047Y-137035714D01*
X203419047Y-136083333D02*
X203323809Y-136035714D01*
X203133333Y-136035714D01*
X203038095Y-136083333D01*
X202990476Y-136130952D01*
X202942857Y-136226190D01*
X202942857Y-136511904D01*
X202990476Y-136607142D01*
X203038095Y-136654761D01*
X203133333Y-136702380D01*
X203323809Y-136702380D01*
X203419047Y-136654761D01*
X202514285Y-136702380D02*
X202514285Y-136035714D01*
X202514285Y-136226190D02*
X202466666Y-136130952D01*
X202419047Y-136083333D01*
X202323809Y-136035714D01*
X202228571Y-136035714D01*
X201752380Y-136702380D02*
X201847619Y-136654761D01*
X201895238Y-136607142D01*
X201942857Y-136511904D01*
X201942857Y-136226190D01*
X201895238Y-136130952D01*
X201847619Y-136083333D01*
X201752380Y-136035714D01*
X201609523Y-136035714D01*
X201514285Y-136083333D01*
X201466666Y-136130952D01*
X201419047Y-136226190D01*
X201419047Y-136511904D01*
X201466666Y-136607142D01*
X201514285Y-136654761D01*
X201609523Y-136702380D01*
X201752380Y-136702380D01*
X200990476Y-136035714D02*
X200990476Y-136892857D01*
X201038095Y-136988095D01*
X201133333Y-137035714D01*
X201180952Y-137035714D01*
X200990476Y-135702380D02*
X201038095Y-135750000D01*
X200990476Y-135797619D01*
X200942857Y-135750000D01*
X200990476Y-135702380D01*
X200990476Y-135797619D01*
X200133333Y-136654761D02*
X200228571Y-136702380D01*
X200419047Y-136702380D01*
X200514285Y-136654761D01*
X200561904Y-136559523D01*
X200561904Y-136178571D01*
X200514285Y-136083333D01*
X200419047Y-136035714D01*
X200228571Y-136035714D01*
X200133333Y-136083333D01*
X200085714Y-136178571D01*
X200085714Y-136273809D01*
X200561904Y-136369047D01*
X199228571Y-136654761D02*
X199323809Y-136702380D01*
X199514285Y-136702380D01*
X199609523Y-136654761D01*
X199657142Y-136607142D01*
X199704761Y-136511904D01*
X199704761Y-136226190D01*
X199657142Y-136130952D01*
X199609523Y-136083333D01*
X199514285Y-136035714D01*
X199323809Y-136035714D01*
X199228571Y-136083333D01*
X198942857Y-136035714D02*
X198561904Y-136035714D01*
X198800000Y-135702380D02*
X198800000Y-136559523D01*
X198752380Y-136654761D01*
X198657142Y-136702380D01*
X198561904Y-136702380D01*
X198276190Y-136654761D02*
X198180952Y-136702380D01*
X197990476Y-136702380D01*
X197895238Y-136654761D01*
X197847619Y-136559523D01*
X197847619Y-136511904D01*
X197895238Y-136416666D01*
X197990476Y-136369047D01*
X198133333Y-136369047D01*
X198228571Y-136321428D01*
X198276190Y-136226190D01*
X198276190Y-136178571D01*
X198228571Y-136083333D01*
X198133333Y-136035714D01*
X197990476Y-136035714D01*
X197895238Y-136083333D01*
%TO.C,G\u002A\u002A\u002A*%
G36*
X208093067Y-61122267D02*
G01*
X208279334Y-61122267D01*
X208279334Y-61511734D01*
X208093067Y-61511734D01*
X208093067Y-61123883D01*
X207987234Y-61118842D01*
X207881400Y-61113801D01*
X207876764Y-60810249D01*
X207876289Y-60776561D01*
X207875591Y-60669218D01*
X207876782Y-60590950D01*
X207880063Y-60537999D01*
X207885635Y-60506604D01*
X207893697Y-60493008D01*
X207907244Y-60488114D01*
X207949396Y-60481687D01*
X208004167Y-60479060D01*
X208093067Y-60478801D01*
X208093067Y-61122267D01*
G37*
D13*
X208093067Y-61122267D02*
X208279334Y-61122267D01*
X208279334Y-61511734D01*
X208093067Y-61511734D01*
X208093067Y-61123883D01*
X207987234Y-61118842D01*
X207881400Y-61113801D01*
X207876764Y-60810249D01*
X207876289Y-60776561D01*
X207875591Y-60669218D01*
X207876782Y-60590950D01*
X207880063Y-60537999D01*
X207885635Y-60506604D01*
X207893697Y-60493008D01*
X207907244Y-60488114D01*
X207949396Y-60481687D01*
X208004167Y-60479060D01*
X208093067Y-60478801D01*
X208093067Y-61122267D01*
G36*
X212411067Y-61714934D02*
G01*
X213020667Y-61714934D01*
X213020667Y-61813712D01*
X213019537Y-61857102D01*
X213015298Y-61902101D01*
X213008992Y-61924164D01*
X212996055Y-61927033D01*
X212953713Y-61929857D01*
X212887804Y-61931587D01*
X212804113Y-61932087D01*
X212708425Y-61931220D01*
X212419533Y-61926600D01*
X212409451Y-61714934D01*
X211987733Y-61714934D01*
X211987733Y-61511734D01*
X212411067Y-61511734D01*
X212411067Y-61714934D01*
G37*
X212411067Y-61714934D02*
X213020667Y-61714934D01*
X213020667Y-61813712D01*
X213019537Y-61857102D01*
X213015298Y-61902101D01*
X213008992Y-61924164D01*
X212996055Y-61927033D01*
X212953713Y-61929857D01*
X212887804Y-61931587D01*
X212804113Y-61932087D01*
X212708425Y-61931220D01*
X212419533Y-61926600D01*
X212409451Y-61714934D01*
X211987733Y-61714934D01*
X211987733Y-61511734D01*
X212411067Y-61511734D01*
X212411067Y-61714934D01*
G36*
X211784533Y-57396934D02*
G01*
X211378134Y-57396934D01*
X211378134Y-56990534D01*
X211784533Y-56990534D01*
X211784533Y-57396934D01*
G37*
X211784533Y-57396934D02*
X211378134Y-57396934D01*
X211378134Y-56990534D01*
X211784533Y-56990534D01*
X211784533Y-57396934D01*
G36*
X214680133Y-56990534D02*
G01*
X214256800Y-56990534D01*
X214256800Y-56804267D01*
X214680133Y-56804267D01*
X214680133Y-56990534D01*
G37*
X214680133Y-56990534D02*
X214256800Y-56990534D01*
X214256800Y-56804267D01*
X214680133Y-56804267D01*
X214680133Y-56990534D01*
G36*
X206751929Y-55740880D02*
G01*
X206848467Y-55745934D01*
X206857681Y-56380934D01*
X207043200Y-56380934D01*
X207043200Y-56584134D01*
X207246400Y-56584134D01*
X207246400Y-56804267D01*
X207669734Y-56804267D01*
X207669734Y-56990534D01*
X207871859Y-56990534D01*
X207876629Y-57189500D01*
X207881400Y-57388467D01*
X209629767Y-57392780D01*
X211378134Y-57397092D01*
X211378134Y-57617067D01*
X210548400Y-57617067D01*
X210548400Y-57820267D01*
X210362133Y-57820267D01*
X210362133Y-58006534D01*
X209938800Y-58006534D01*
X209938800Y-58429867D01*
X208703709Y-58429867D01*
X208698955Y-58222434D01*
X208694200Y-58015001D01*
X208279334Y-58005491D01*
X208279334Y-57618142D01*
X208080367Y-57613371D01*
X207881400Y-57608601D01*
X207881400Y-57396872D01*
X207669734Y-57396934D01*
X207669734Y-56991576D01*
X207462300Y-56986822D01*
X207254867Y-56982067D01*
X207249777Y-56893987D01*
X207244687Y-56805906D01*
X207148177Y-56800853D01*
X207051667Y-56795801D01*
X207046625Y-56689967D01*
X207041584Y-56584134D01*
X206856934Y-56584134D01*
X206856934Y-56380934D01*
X206653734Y-56380934D01*
X206653734Y-57396934D01*
X206433233Y-57396934D01*
X206437650Y-56681501D01*
X206442067Y-55966067D01*
X206543667Y-55957601D01*
X206645267Y-55949134D01*
X206650329Y-55842480D01*
X206655392Y-55735827D01*
X206751929Y-55740880D01*
G37*
X206751929Y-55740880D02*
X206848467Y-55745934D01*
X206857681Y-56380934D01*
X207043200Y-56380934D01*
X207043200Y-56584134D01*
X207246400Y-56584134D01*
X207246400Y-56804267D01*
X207669734Y-56804267D01*
X207669734Y-56990534D01*
X207871859Y-56990534D01*
X207876629Y-57189500D01*
X207881400Y-57388467D01*
X209629767Y-57392780D01*
X211378134Y-57397092D01*
X211378134Y-57617067D01*
X210548400Y-57617067D01*
X210548400Y-57820267D01*
X210362133Y-57820267D01*
X210362133Y-58006534D01*
X209938800Y-58006534D01*
X209938800Y-58429867D01*
X208703709Y-58429867D01*
X208698955Y-58222434D01*
X208694200Y-58015001D01*
X208279334Y-58005491D01*
X208279334Y-57618142D01*
X208080367Y-57613371D01*
X207881400Y-57608601D01*
X207881400Y-57396872D01*
X207669734Y-57396934D01*
X207669734Y-56991576D01*
X207462300Y-56986822D01*
X207254867Y-56982067D01*
X207249777Y-56893987D01*
X207244687Y-56805906D01*
X207148177Y-56800853D01*
X207051667Y-56795801D01*
X207046625Y-56689967D01*
X207041584Y-56584134D01*
X206856934Y-56584134D01*
X206856934Y-56380934D01*
X206653734Y-56380934D01*
X206653734Y-57396934D01*
X206433233Y-57396934D01*
X206437650Y-56681501D01*
X206442067Y-55966067D01*
X206543667Y-55957601D01*
X206645267Y-55949134D01*
X206650329Y-55842480D01*
X206655392Y-55735827D01*
X206751929Y-55740880D01*
G36*
X207043200Y-58006534D02*
G01*
X206856934Y-58006534D01*
X206856934Y-57617067D01*
X207043200Y-57617067D01*
X207043200Y-58006534D01*
G37*
X207043200Y-58006534D02*
X206856934Y-58006534D01*
X206856934Y-57617067D01*
X207043200Y-57617067D01*
X207043200Y-58006534D01*
G36*
X212411067Y-55551201D02*
G01*
X211987733Y-55551201D01*
X211987733Y-55957601D01*
X211784533Y-55957601D01*
X211784533Y-55348001D01*
X212411067Y-55348001D01*
X212411067Y-55551201D01*
G37*
X212411067Y-55551201D02*
X211987733Y-55551201D01*
X211987733Y-55957601D01*
X211784533Y-55957601D01*
X211784533Y-55348001D01*
X212411067Y-55348001D01*
X212411067Y-55551201D01*
G36*
X212614267Y-55737467D02*
G01*
X213020667Y-55737467D01*
X213020667Y-55551201D01*
X213223867Y-55551201D01*
X213223867Y-55958382D01*
X212622733Y-55949134D01*
X212617692Y-55843300D01*
X212612651Y-55737467D01*
X212411067Y-55737467D01*
X212411067Y-55551201D01*
X212614267Y-55551201D01*
X212614267Y-55737467D01*
G37*
X212614267Y-55737467D02*
X213020667Y-55737467D01*
X213020667Y-55551201D01*
X213223867Y-55551201D01*
X213223867Y-55958382D01*
X212622733Y-55949134D01*
X212617692Y-55843300D01*
X212612651Y-55737467D01*
X212411067Y-55737467D01*
X212411067Y-55551201D01*
X212614267Y-55551201D01*
X212614267Y-55737467D01*
G36*
X213647200Y-55551201D02*
G01*
X213833467Y-55551201D01*
X213833467Y-56380934D01*
X214056608Y-56380934D01*
X214045134Y-56584196D01*
X214256800Y-56584134D01*
X214256800Y-56804267D01*
X214055216Y-56804267D01*
X214045134Y-56592601D01*
X213939300Y-56587559D01*
X213833467Y-56582518D01*
X213833467Y-56382704D01*
X213744567Y-56377585D01*
X213655667Y-56372467D01*
X213651132Y-55961834D01*
X213646598Y-55551201D01*
X213223867Y-55551201D01*
X213223867Y-55348001D01*
X213647200Y-55348001D01*
X213647200Y-55551201D01*
G37*
X213647200Y-55551201D02*
X213833467Y-55551201D01*
X213833467Y-56380934D01*
X214056608Y-56380934D01*
X214045134Y-56584196D01*
X214256800Y-56584134D01*
X214256800Y-56804267D01*
X214055216Y-56804267D01*
X214045134Y-56592601D01*
X213939300Y-56587559D01*
X213833467Y-56582518D01*
X213833467Y-56382704D01*
X213744567Y-56377585D01*
X213655667Y-56372467D01*
X213651132Y-55961834D01*
X213646598Y-55551201D01*
X213223867Y-55551201D01*
X213223867Y-55348001D01*
X213647200Y-55348001D01*
X213647200Y-55551201D01*
G36*
X207246400Y-61511734D02*
G01*
X207043200Y-61511734D01*
X207043200Y-61122267D01*
X207246400Y-61122267D01*
X207246400Y-61511734D01*
G37*
X207246400Y-61511734D02*
X207043200Y-61511734D01*
X207043200Y-61122267D01*
X207246400Y-61122267D01*
X207246400Y-61511734D01*
G36*
X213223867Y-61714934D02*
G01*
X213020667Y-61714934D01*
X213020667Y-61511734D01*
X213223867Y-61511734D01*
X213223867Y-61714934D01*
G37*
X213223867Y-61714934D02*
X213020667Y-61714934D01*
X213020667Y-61511734D01*
X213223867Y-61511734D01*
X213223867Y-61714934D01*
G36*
X213223867Y-56584134D02*
G01*
X213020667Y-56584134D01*
X213020667Y-56380934D01*
X213223867Y-56380934D01*
X213223867Y-56584134D01*
G37*
X213223867Y-56584134D02*
X213020667Y-56584134D01*
X213020667Y-56380934D01*
X213223867Y-56380934D01*
X213223867Y-56584134D01*
G36*
X207669734Y-61714934D02*
G01*
X208279334Y-61714934D01*
X208279334Y-61511734D01*
X208702667Y-61511734D01*
X208702667Y-61714934D01*
X208280950Y-61714934D01*
X208275908Y-61820767D01*
X208270867Y-61926600D01*
X207678200Y-61926600D01*
X207673159Y-61820767D01*
X207668117Y-61714934D01*
X207246400Y-61714934D01*
X207246400Y-61511734D01*
X207669734Y-61511734D01*
X207669734Y-61714934D01*
G37*
X207669734Y-61714934D02*
X208279334Y-61714934D01*
X208279334Y-61511734D01*
X208702667Y-61511734D01*
X208702667Y-61714934D01*
X208280950Y-61714934D01*
X208275908Y-61820767D01*
X208270867Y-61926600D01*
X207678200Y-61926600D01*
X207673159Y-61820767D01*
X207668117Y-61714934D01*
X207246400Y-61714934D01*
X207246400Y-61511734D01*
X207669734Y-61511734D01*
X207669734Y-61714934D01*
G36*
X211987733Y-61511734D02*
G01*
X211784533Y-61511734D01*
X211784533Y-61122267D01*
X211987733Y-61122267D01*
X211987733Y-61511734D01*
G37*
X211987733Y-61511734D02*
X211784533Y-61511734D01*
X211784533Y-61122267D01*
X211987733Y-61122267D01*
X211987733Y-61511734D01*
G36*
X214883333Y-57617067D02*
G01*
X214680133Y-57617067D01*
X214680133Y-56990534D01*
X214883333Y-56990534D01*
X214883333Y-57617067D01*
G37*
X214883333Y-57617067D02*
X214680133Y-57617067D01*
X214680133Y-56990534D01*
X214883333Y-56990534D01*
X214883333Y-57617067D01*
G36*
X207246400Y-59462800D02*
G01*
X207043200Y-59462800D01*
X207043200Y-58006534D01*
X207246400Y-58006534D01*
X207246400Y-59462800D01*
G37*
X207246400Y-59462800D02*
X207043200Y-59462800D01*
X207043200Y-58006534D01*
X207246400Y-58006534D01*
X207246400Y-59462800D01*
G36*
X206856934Y-57617067D02*
G01*
X206653734Y-57617067D01*
X206653734Y-57396934D01*
X206856934Y-57396934D01*
X206856934Y-57617067D01*
G37*
X206856934Y-57617067D02*
X206653734Y-57617067D01*
X206653734Y-57396934D01*
X206856934Y-57396934D01*
X206856934Y-57617067D01*
G36*
X214680133Y-57820267D02*
G01*
X213021448Y-57820267D01*
X213012200Y-58421401D01*
X212800534Y-58431483D01*
X212800534Y-61122267D01*
X213020667Y-61122267D01*
X213020667Y-61511734D01*
X212800534Y-61511734D01*
X212800534Y-61124037D01*
X212711633Y-61118919D01*
X212622733Y-61113801D01*
X212613903Y-59666001D01*
X212411067Y-59666001D01*
X212411067Y-59462800D01*
X211987733Y-59462800D01*
X211987733Y-58651043D01*
X212195167Y-58646288D01*
X212402600Y-58641534D01*
X212407642Y-58535701D01*
X212412683Y-58429867D01*
X212799752Y-58429867D01*
X212804376Y-58129301D01*
X212809000Y-57828734D01*
X212914834Y-57823692D01*
X213020667Y-57818651D01*
X213020667Y-57617067D01*
X214680133Y-57617067D01*
X214680133Y-57820267D01*
G37*
X214680133Y-57820267D02*
X213021448Y-57820267D01*
X213012200Y-58421401D01*
X212800534Y-58431483D01*
X212800534Y-61122267D01*
X213020667Y-61122267D01*
X213020667Y-61511734D01*
X212800534Y-61511734D01*
X212800534Y-61124037D01*
X212711633Y-61118919D01*
X212622733Y-61113801D01*
X212613903Y-59666001D01*
X212411067Y-59666001D01*
X212411067Y-59462800D01*
X211987733Y-59462800D01*
X211987733Y-58651043D01*
X212195167Y-58646288D01*
X212402600Y-58641534D01*
X212407642Y-58535701D01*
X212412683Y-58429867D01*
X212799752Y-58429867D01*
X212804376Y-58129301D01*
X212809000Y-57828734D01*
X212914834Y-57823692D01*
X213020667Y-57818651D01*
X213020667Y-57617067D01*
X214680133Y-57617067D01*
X214680133Y-57820267D01*
G36*
X212407129Y-56376700D02*
G01*
X212402600Y-56795801D01*
X212195167Y-56800555D01*
X211987733Y-56805310D01*
X211987733Y-56990534D01*
X211784533Y-56990534D01*
X211784533Y-56804267D01*
X211987733Y-56804267D01*
X211987733Y-55957601D01*
X212411658Y-55957601D01*
X212407129Y-56376700D01*
G37*
X212407129Y-56376700D02*
X212402600Y-56795801D01*
X212195167Y-56800555D01*
X211987733Y-56805310D01*
X211987733Y-56990534D01*
X211784533Y-56990534D01*
X211784533Y-56804267D01*
X211987733Y-56804267D01*
X211987733Y-55957601D01*
X212411658Y-55957601D01*
X212407129Y-56376700D01*
G36*
X211572867Y-59674467D02*
G01*
X211577945Y-59771834D01*
X211583024Y-59869201D01*
X211784533Y-59869201D01*
X211784533Y-61122267D01*
X211581334Y-61122267D01*
X211581334Y-59869201D01*
X208702667Y-59869201D01*
X208702667Y-60089334D01*
X208279334Y-60089334D01*
X208279334Y-60478801D01*
X208093067Y-60478801D01*
X208093067Y-60089334D01*
X208277717Y-60089334D01*
X208282759Y-59983501D01*
X208287800Y-59877667D01*
X208495233Y-59872913D01*
X208702667Y-59868158D01*
X208702667Y-59665809D01*
X211572867Y-59674467D01*
G37*
X211572867Y-59674467D02*
X211577945Y-59771834D01*
X211583024Y-59869201D01*
X211784533Y-59869201D01*
X211784533Y-61122267D01*
X211581334Y-61122267D01*
X211581334Y-59869201D01*
X208702667Y-59869201D01*
X208702667Y-60089334D01*
X208279334Y-60089334D01*
X208279334Y-60478801D01*
X208093067Y-60478801D01*
X208093067Y-60089334D01*
X208277717Y-60089334D01*
X208282759Y-59983501D01*
X208287800Y-59877667D01*
X208495233Y-59872913D01*
X208702667Y-59868158D01*
X208702667Y-59665809D01*
X211572867Y-59674467D01*
G36*
X207043200Y-61122267D02*
G01*
X206856934Y-61122267D01*
X206856934Y-59462800D01*
X207043200Y-59462800D01*
X207043200Y-61122267D01*
G37*
X207043200Y-61122267D02*
X206856934Y-61122267D01*
X206856934Y-59462800D01*
X207043200Y-59462800D01*
X207043200Y-61122267D01*
G36*
X219118067Y-61122267D02*
G01*
X219304334Y-61122267D01*
X219304334Y-61511734D01*
X219118067Y-61511734D01*
X219118067Y-61123883D01*
X219012234Y-61118842D01*
X218906400Y-61113801D01*
X218901764Y-60810249D01*
X218901289Y-60776561D01*
X218900591Y-60669218D01*
X218901782Y-60590950D01*
X218905063Y-60537999D01*
X218910635Y-60506604D01*
X218918697Y-60493008D01*
X218932244Y-60488114D01*
X218974396Y-60481687D01*
X219029167Y-60479060D01*
X219118067Y-60478801D01*
X219118067Y-61122267D01*
G37*
X219118067Y-61122267D02*
X219304334Y-61122267D01*
X219304334Y-61511734D01*
X219118067Y-61511734D01*
X219118067Y-61123883D01*
X219012234Y-61118842D01*
X218906400Y-61113801D01*
X218901764Y-60810249D01*
X218901289Y-60776561D01*
X218900591Y-60669218D01*
X218901782Y-60590950D01*
X218905063Y-60537999D01*
X218910635Y-60506604D01*
X218918697Y-60493008D01*
X218932244Y-60488114D01*
X218974396Y-60481687D01*
X219029167Y-60479060D01*
X219118067Y-60478801D01*
X219118067Y-61122267D01*
G36*
X223436067Y-61714934D02*
G01*
X224045667Y-61714934D01*
X224045667Y-61813712D01*
X224044537Y-61857102D01*
X224040298Y-61902101D01*
X224033992Y-61924164D01*
X224021055Y-61927033D01*
X223978713Y-61929857D01*
X223912804Y-61931587D01*
X223829113Y-61932087D01*
X223733425Y-61931220D01*
X223444533Y-61926600D01*
X223434451Y-61714934D01*
X223012733Y-61714934D01*
X223012733Y-61511734D01*
X223436067Y-61511734D01*
X223436067Y-61714934D01*
G37*
X223436067Y-61714934D02*
X224045667Y-61714934D01*
X224045667Y-61813712D01*
X224044537Y-61857102D01*
X224040298Y-61902101D01*
X224033992Y-61924164D01*
X224021055Y-61927033D01*
X223978713Y-61929857D01*
X223912804Y-61931587D01*
X223829113Y-61932087D01*
X223733425Y-61931220D01*
X223444533Y-61926600D01*
X223434451Y-61714934D01*
X223012733Y-61714934D01*
X223012733Y-61511734D01*
X223436067Y-61511734D01*
X223436067Y-61714934D01*
G36*
X222809533Y-57396934D02*
G01*
X222403134Y-57396934D01*
X222403134Y-56990534D01*
X222809533Y-56990534D01*
X222809533Y-57396934D01*
G37*
X222809533Y-57396934D02*
X222403134Y-57396934D01*
X222403134Y-56990534D01*
X222809533Y-56990534D01*
X222809533Y-57396934D01*
G36*
X225705133Y-56990534D02*
G01*
X225281800Y-56990534D01*
X225281800Y-56804267D01*
X225705133Y-56804267D01*
X225705133Y-56990534D01*
G37*
X225705133Y-56990534D02*
X225281800Y-56990534D01*
X225281800Y-56804267D01*
X225705133Y-56804267D01*
X225705133Y-56990534D01*
G36*
X217776929Y-55740880D02*
G01*
X217873467Y-55745934D01*
X217882681Y-56380934D01*
X218068200Y-56380934D01*
X218068200Y-56584134D01*
X218271400Y-56584134D01*
X218271400Y-56804267D01*
X218694734Y-56804267D01*
X218694734Y-56990534D01*
X218896859Y-56990534D01*
X218901629Y-57189500D01*
X218906400Y-57388467D01*
X220654767Y-57392780D01*
X222403134Y-57397092D01*
X222403134Y-57617067D01*
X221573400Y-57617067D01*
X221573400Y-57820267D01*
X221387133Y-57820267D01*
X221387133Y-58006534D01*
X220963800Y-58006534D01*
X220963800Y-58429867D01*
X219728709Y-58429867D01*
X219723955Y-58222434D01*
X219719200Y-58015001D01*
X219304334Y-58005491D01*
X219304334Y-57618142D01*
X219105367Y-57613371D01*
X218906400Y-57608601D01*
X218906400Y-57396872D01*
X218694734Y-57396934D01*
X218694734Y-56991576D01*
X218487300Y-56986822D01*
X218279867Y-56982067D01*
X218274777Y-56893987D01*
X218269687Y-56805906D01*
X218173177Y-56800853D01*
X218076667Y-56795801D01*
X218071625Y-56689967D01*
X218066584Y-56584134D01*
X217881934Y-56584134D01*
X217881934Y-56380934D01*
X217678734Y-56380934D01*
X217678734Y-57396934D01*
X217458233Y-57396934D01*
X217462650Y-56681501D01*
X217467067Y-55966067D01*
X217568667Y-55957601D01*
X217670267Y-55949134D01*
X217675329Y-55842480D01*
X217680392Y-55735827D01*
X217776929Y-55740880D01*
G37*
X217776929Y-55740880D02*
X217873467Y-55745934D01*
X217882681Y-56380934D01*
X218068200Y-56380934D01*
X218068200Y-56584134D01*
X218271400Y-56584134D01*
X218271400Y-56804267D01*
X218694734Y-56804267D01*
X218694734Y-56990534D01*
X218896859Y-56990534D01*
X218901629Y-57189500D01*
X218906400Y-57388467D01*
X220654767Y-57392780D01*
X222403134Y-57397092D01*
X222403134Y-57617067D01*
X221573400Y-57617067D01*
X221573400Y-57820267D01*
X221387133Y-57820267D01*
X221387133Y-58006534D01*
X220963800Y-58006534D01*
X220963800Y-58429867D01*
X219728709Y-58429867D01*
X219723955Y-58222434D01*
X219719200Y-58015001D01*
X219304334Y-58005491D01*
X219304334Y-57618142D01*
X219105367Y-57613371D01*
X218906400Y-57608601D01*
X218906400Y-57396872D01*
X218694734Y-57396934D01*
X218694734Y-56991576D01*
X218487300Y-56986822D01*
X218279867Y-56982067D01*
X218274777Y-56893987D01*
X218269687Y-56805906D01*
X218173177Y-56800853D01*
X218076667Y-56795801D01*
X218071625Y-56689967D01*
X218066584Y-56584134D01*
X217881934Y-56584134D01*
X217881934Y-56380934D01*
X217678734Y-56380934D01*
X217678734Y-57396934D01*
X217458233Y-57396934D01*
X217462650Y-56681501D01*
X217467067Y-55966067D01*
X217568667Y-55957601D01*
X217670267Y-55949134D01*
X217675329Y-55842480D01*
X217680392Y-55735827D01*
X217776929Y-55740880D01*
G36*
X218068200Y-58006534D02*
G01*
X217881934Y-58006534D01*
X217881934Y-57617067D01*
X218068200Y-57617067D01*
X218068200Y-58006534D01*
G37*
X218068200Y-58006534D02*
X217881934Y-58006534D01*
X217881934Y-57617067D01*
X218068200Y-57617067D01*
X218068200Y-58006534D01*
G36*
X223436067Y-55551201D02*
G01*
X223012733Y-55551201D01*
X223012733Y-55957601D01*
X222809533Y-55957601D01*
X222809533Y-55348001D01*
X223436067Y-55348001D01*
X223436067Y-55551201D01*
G37*
X223436067Y-55551201D02*
X223012733Y-55551201D01*
X223012733Y-55957601D01*
X222809533Y-55957601D01*
X222809533Y-55348001D01*
X223436067Y-55348001D01*
X223436067Y-55551201D01*
G36*
X223639267Y-55737467D02*
G01*
X224045667Y-55737467D01*
X224045667Y-55551201D01*
X224248867Y-55551201D01*
X224248867Y-55958382D01*
X223647733Y-55949134D01*
X223642692Y-55843300D01*
X223637651Y-55737467D01*
X223436067Y-55737467D01*
X223436067Y-55551201D01*
X223639267Y-55551201D01*
X223639267Y-55737467D01*
G37*
X223639267Y-55737467D02*
X224045667Y-55737467D01*
X224045667Y-55551201D01*
X224248867Y-55551201D01*
X224248867Y-55958382D01*
X223647733Y-55949134D01*
X223642692Y-55843300D01*
X223637651Y-55737467D01*
X223436067Y-55737467D01*
X223436067Y-55551201D01*
X223639267Y-55551201D01*
X223639267Y-55737467D01*
G36*
X224672200Y-55551201D02*
G01*
X224858467Y-55551201D01*
X224858467Y-56380934D01*
X225081608Y-56380934D01*
X225070134Y-56584196D01*
X225281800Y-56584134D01*
X225281800Y-56804267D01*
X225080216Y-56804267D01*
X225070134Y-56592601D01*
X224964300Y-56587559D01*
X224858467Y-56582518D01*
X224858467Y-56382704D01*
X224769567Y-56377585D01*
X224680667Y-56372467D01*
X224676132Y-55961834D01*
X224671598Y-55551201D01*
X224248867Y-55551201D01*
X224248867Y-55348001D01*
X224672200Y-55348001D01*
X224672200Y-55551201D01*
G37*
X224672200Y-55551201D02*
X224858467Y-55551201D01*
X224858467Y-56380934D01*
X225081608Y-56380934D01*
X225070134Y-56584196D01*
X225281800Y-56584134D01*
X225281800Y-56804267D01*
X225080216Y-56804267D01*
X225070134Y-56592601D01*
X224964300Y-56587559D01*
X224858467Y-56582518D01*
X224858467Y-56382704D01*
X224769567Y-56377585D01*
X224680667Y-56372467D01*
X224676132Y-55961834D01*
X224671598Y-55551201D01*
X224248867Y-55551201D01*
X224248867Y-55348001D01*
X224672200Y-55348001D01*
X224672200Y-55551201D01*
G36*
X218271400Y-61511734D02*
G01*
X218068200Y-61511734D01*
X218068200Y-61122267D01*
X218271400Y-61122267D01*
X218271400Y-61511734D01*
G37*
X218271400Y-61511734D02*
X218068200Y-61511734D01*
X218068200Y-61122267D01*
X218271400Y-61122267D01*
X218271400Y-61511734D01*
G36*
X224248867Y-61714934D02*
G01*
X224045667Y-61714934D01*
X224045667Y-61511734D01*
X224248867Y-61511734D01*
X224248867Y-61714934D01*
G37*
X224248867Y-61714934D02*
X224045667Y-61714934D01*
X224045667Y-61511734D01*
X224248867Y-61511734D01*
X224248867Y-61714934D01*
G36*
X224248867Y-56584134D02*
G01*
X224045667Y-56584134D01*
X224045667Y-56380934D01*
X224248867Y-56380934D01*
X224248867Y-56584134D01*
G37*
X224248867Y-56584134D02*
X224045667Y-56584134D01*
X224045667Y-56380934D01*
X224248867Y-56380934D01*
X224248867Y-56584134D01*
G36*
X218694734Y-61714934D02*
G01*
X219304334Y-61714934D01*
X219304334Y-61511734D01*
X219727667Y-61511734D01*
X219727667Y-61714934D01*
X219305950Y-61714934D01*
X219300908Y-61820767D01*
X219295867Y-61926600D01*
X218703200Y-61926600D01*
X218698159Y-61820767D01*
X218693117Y-61714934D01*
X218271400Y-61714934D01*
X218271400Y-61511734D01*
X218694734Y-61511734D01*
X218694734Y-61714934D01*
G37*
X218694734Y-61714934D02*
X219304334Y-61714934D01*
X219304334Y-61511734D01*
X219727667Y-61511734D01*
X219727667Y-61714934D01*
X219305950Y-61714934D01*
X219300908Y-61820767D01*
X219295867Y-61926600D01*
X218703200Y-61926600D01*
X218698159Y-61820767D01*
X218693117Y-61714934D01*
X218271400Y-61714934D01*
X218271400Y-61511734D01*
X218694734Y-61511734D01*
X218694734Y-61714934D01*
G36*
X223012733Y-61511734D02*
G01*
X222809533Y-61511734D01*
X222809533Y-61122267D01*
X223012733Y-61122267D01*
X223012733Y-61511734D01*
G37*
X223012733Y-61511734D02*
X222809533Y-61511734D01*
X222809533Y-61122267D01*
X223012733Y-61122267D01*
X223012733Y-61511734D01*
G36*
X225908333Y-57617067D02*
G01*
X225705133Y-57617067D01*
X225705133Y-56990534D01*
X225908333Y-56990534D01*
X225908333Y-57617067D01*
G37*
X225908333Y-57617067D02*
X225705133Y-57617067D01*
X225705133Y-56990534D01*
X225908333Y-56990534D01*
X225908333Y-57617067D01*
G36*
X218271400Y-59462800D02*
G01*
X218068200Y-59462800D01*
X218068200Y-58006534D01*
X218271400Y-58006534D01*
X218271400Y-59462800D01*
G37*
X218271400Y-59462800D02*
X218068200Y-59462800D01*
X218068200Y-58006534D01*
X218271400Y-58006534D01*
X218271400Y-59462800D01*
G36*
X217881934Y-57617067D02*
G01*
X217678734Y-57617067D01*
X217678734Y-57396934D01*
X217881934Y-57396934D01*
X217881934Y-57617067D01*
G37*
X217881934Y-57617067D02*
X217678734Y-57617067D01*
X217678734Y-57396934D01*
X217881934Y-57396934D01*
X217881934Y-57617067D01*
G36*
X225705133Y-57820267D02*
G01*
X224046448Y-57820267D01*
X224037200Y-58421401D01*
X223825534Y-58431483D01*
X223825534Y-61122267D01*
X224045667Y-61122267D01*
X224045667Y-61511734D01*
X223825534Y-61511734D01*
X223825534Y-61124037D01*
X223736633Y-61118919D01*
X223647733Y-61113801D01*
X223638903Y-59666001D01*
X223436067Y-59666001D01*
X223436067Y-59462800D01*
X223012733Y-59462800D01*
X223012733Y-58651043D01*
X223220167Y-58646288D01*
X223427600Y-58641534D01*
X223432642Y-58535701D01*
X223437683Y-58429867D01*
X223824752Y-58429867D01*
X223829376Y-58129301D01*
X223834000Y-57828734D01*
X223939834Y-57823692D01*
X224045667Y-57818651D01*
X224045667Y-57617067D01*
X225705133Y-57617067D01*
X225705133Y-57820267D01*
G37*
X225705133Y-57820267D02*
X224046448Y-57820267D01*
X224037200Y-58421401D01*
X223825534Y-58431483D01*
X223825534Y-61122267D01*
X224045667Y-61122267D01*
X224045667Y-61511734D01*
X223825534Y-61511734D01*
X223825534Y-61124037D01*
X223736633Y-61118919D01*
X223647733Y-61113801D01*
X223638903Y-59666001D01*
X223436067Y-59666001D01*
X223436067Y-59462800D01*
X223012733Y-59462800D01*
X223012733Y-58651043D01*
X223220167Y-58646288D01*
X223427600Y-58641534D01*
X223432642Y-58535701D01*
X223437683Y-58429867D01*
X223824752Y-58429867D01*
X223829376Y-58129301D01*
X223834000Y-57828734D01*
X223939834Y-57823692D01*
X224045667Y-57818651D01*
X224045667Y-57617067D01*
X225705133Y-57617067D01*
X225705133Y-57820267D01*
G36*
X223432129Y-56376700D02*
G01*
X223427600Y-56795801D01*
X223220167Y-56800555D01*
X223012733Y-56805310D01*
X223012733Y-56990534D01*
X222809533Y-56990534D01*
X222809533Y-56804267D01*
X223012733Y-56804267D01*
X223012733Y-55957601D01*
X223436658Y-55957601D01*
X223432129Y-56376700D01*
G37*
X223432129Y-56376700D02*
X223427600Y-56795801D01*
X223220167Y-56800555D01*
X223012733Y-56805310D01*
X223012733Y-56990534D01*
X222809533Y-56990534D01*
X222809533Y-56804267D01*
X223012733Y-56804267D01*
X223012733Y-55957601D01*
X223436658Y-55957601D01*
X223432129Y-56376700D01*
G36*
X222597867Y-59674467D02*
G01*
X222602945Y-59771834D01*
X222608024Y-59869201D01*
X222809533Y-59869201D01*
X222809533Y-61122267D01*
X222606334Y-61122267D01*
X222606334Y-59869201D01*
X219727667Y-59869201D01*
X219727667Y-60089334D01*
X219304334Y-60089334D01*
X219304334Y-60478801D01*
X219118067Y-60478801D01*
X219118067Y-60089334D01*
X219302717Y-60089334D01*
X219307759Y-59983501D01*
X219312800Y-59877667D01*
X219520233Y-59872913D01*
X219727667Y-59868158D01*
X219727667Y-59665809D01*
X222597867Y-59674467D01*
G37*
X222597867Y-59674467D02*
X222602945Y-59771834D01*
X222608024Y-59869201D01*
X222809533Y-59869201D01*
X222809533Y-61122267D01*
X222606334Y-61122267D01*
X222606334Y-59869201D01*
X219727667Y-59869201D01*
X219727667Y-60089334D01*
X219304334Y-60089334D01*
X219304334Y-60478801D01*
X219118067Y-60478801D01*
X219118067Y-60089334D01*
X219302717Y-60089334D01*
X219307759Y-59983501D01*
X219312800Y-59877667D01*
X219520233Y-59872913D01*
X219727667Y-59868158D01*
X219727667Y-59665809D01*
X222597867Y-59674467D01*
G36*
X218068200Y-61122267D02*
G01*
X217881934Y-61122267D01*
X217881934Y-59462800D01*
X218068200Y-59462800D01*
X218068200Y-61122267D01*
G37*
X218068200Y-61122267D02*
X217881934Y-61122267D01*
X217881934Y-59462800D01*
X218068200Y-59462800D01*
X218068200Y-61122267D01*
%TO.C,REF\u002A\u002A*%
G36*
X208637998Y-100024034D02*
G01*
X208680850Y-100040829D01*
X208730615Y-100063503D01*
X208730615Y-100718533D01*
X208668785Y-100780363D01*
X208654662Y-100794228D01*
X208615536Y-100825046D01*
X208576078Y-100835028D01*
X208517362Y-100830433D01*
X208493456Y-100827462D01*
X208431801Y-100821176D01*
X208388692Y-100818672D01*
X208375905Y-100819055D01*
X208323446Y-100823200D01*
X208260022Y-100830433D01*
X208239730Y-100832918D01*
X208188610Y-100833895D01*
X208151207Y-100818462D01*
X208108599Y-100780363D01*
X208046769Y-100718533D01*
X208046769Y-100368343D01*
X208047251Y-100264857D01*
X208048753Y-100166192D01*
X208051089Y-100088068D01*
X208054071Y-100036662D01*
X208057509Y-100018154D01*
X208058230Y-100018204D01*
X208083203Y-100027413D01*
X208125399Y-100047707D01*
X208182549Y-100077261D01*
X208187928Y-100384746D01*
X208193308Y-100692231D01*
X208310539Y-100692231D01*
X208315885Y-100355192D01*
X208317579Y-100263574D01*
X208320005Y-100165649D01*
X208322634Y-100087906D01*
X208325246Y-100036642D01*
X208327623Y-100018154D01*
X208328306Y-100018219D01*
X208351996Y-100025020D01*
X208395546Y-100039604D01*
X208457077Y-100061054D01*
X208457376Y-100357104D01*
X208457676Y-100408532D01*
X208459754Y-100508466D01*
X208463470Y-100591925D01*
X208468430Y-100651377D01*
X208474240Y-100679287D01*
X208495024Y-100694214D01*
X208537440Y-100698825D01*
X208584077Y-100692231D01*
X208589423Y-100355192D01*
X208591336Y-100269546D01*
X208595303Y-100168172D01*
X208600491Y-100088655D01*
X208606499Y-100036736D01*
X208612927Y-100018154D01*
X208637998Y-100024034D01*
G37*
X208637998Y-100024034D02*
X208680850Y-100040829D01*
X208730615Y-100063503D01*
X208730615Y-100718533D01*
X208668785Y-100780363D01*
X208654662Y-100794228D01*
X208615536Y-100825046D01*
X208576078Y-100835028D01*
X208517362Y-100830433D01*
X208493456Y-100827462D01*
X208431801Y-100821176D01*
X208388692Y-100818672D01*
X208375905Y-100819055D01*
X208323446Y-100823200D01*
X208260022Y-100830433D01*
X208239730Y-100832918D01*
X208188610Y-100833895D01*
X208151207Y-100818462D01*
X208108599Y-100780363D01*
X208046769Y-100718533D01*
X208046769Y-100368343D01*
X208047251Y-100264857D01*
X208048753Y-100166192D01*
X208051089Y-100088068D01*
X208054071Y-100036662D01*
X208057509Y-100018154D01*
X208058230Y-100018204D01*
X208083203Y-100027413D01*
X208125399Y-100047707D01*
X208182549Y-100077261D01*
X208187928Y-100384746D01*
X208193308Y-100692231D01*
X208310539Y-100692231D01*
X208315885Y-100355192D01*
X208317579Y-100263574D01*
X208320005Y-100165649D01*
X208322634Y-100087906D01*
X208325246Y-100036642D01*
X208327623Y-100018154D01*
X208328306Y-100018219D01*
X208351996Y-100025020D01*
X208395546Y-100039604D01*
X208457077Y-100061054D01*
X208457376Y-100357104D01*
X208457676Y-100408532D01*
X208459754Y-100508466D01*
X208463470Y-100591925D01*
X208468430Y-100651377D01*
X208474240Y-100679287D01*
X208495024Y-100694214D01*
X208537440Y-100698825D01*
X208584077Y-100692231D01*
X208589423Y-100355192D01*
X208591336Y-100269546D01*
X208595303Y-100168172D01*
X208600491Y-100088655D01*
X208606499Y-100036736D01*
X208612927Y-100018154D01*
X208637998Y-100024034D01*
G36*
X213354574Y-100501643D02*
G01*
X213351066Y-100533021D01*
X213324927Y-100644705D01*
X213277694Y-100729642D01*
X213205862Y-100794741D01*
X213201802Y-100797428D01*
X213110487Y-100835634D01*
X213015144Y-100839034D01*
X212923274Y-100809939D01*
X212842379Y-100750660D01*
X212779962Y-100663510D01*
X212778914Y-100661409D01*
X212758173Y-100607289D01*
X212742980Y-100545781D01*
X212734921Y-100488039D01*
X212735582Y-100445215D01*
X212746548Y-100428462D01*
X212756290Y-100429480D01*
X212802877Y-100448009D01*
X212855682Y-100482081D01*
X212900603Y-100521522D01*
X212923535Y-100556155D01*
X212947373Y-100603133D01*
X212996230Y-100645862D01*
X213052963Y-100662923D01*
X213073758Y-100657990D01*
X213114804Y-100633157D01*
X213150557Y-100598685D01*
X213165846Y-100567411D01*
X213165842Y-100567295D01*
X213148495Y-100552933D01*
X213102247Y-100527025D01*
X213034067Y-100493210D01*
X212950923Y-100455129D01*
X212950466Y-100454927D01*
X212860138Y-100414709D01*
X212799592Y-100385733D01*
X212762888Y-100363474D01*
X212744086Y-100343407D01*
X212737246Y-100321009D01*
X212736429Y-100291756D01*
X212742113Y-100236363D01*
X212935000Y-100236363D01*
X212954911Y-100253777D01*
X213004521Y-100279872D01*
X213005976Y-100280610D01*
X213064506Y-100308483D01*
X213116868Y-100330719D01*
X213150086Y-100340126D01*
X213163410Y-100327552D01*
X213165846Y-100284468D01*
X213155724Y-100230847D01*
X213120631Y-100182119D01*
X213069823Y-100156856D01*
X213013181Y-100159406D01*
X212960584Y-100194120D01*
X212939910Y-100218107D01*
X212935000Y-100236363D01*
X212742113Y-100236363D01*
X212743622Y-100221654D01*
X212779184Y-100126412D01*
X212838714Y-100051567D01*
X212915746Y-99999745D01*
X213003815Y-99973573D01*
X213096454Y-99975676D01*
X213187198Y-100008681D01*
X213269579Y-100075215D01*
X213315222Y-100141055D01*
X213348008Y-100235036D01*
X213353339Y-100284468D01*
X213360787Y-100353536D01*
X213354574Y-100501643D01*
G37*
X213354574Y-100501643D02*
X213351066Y-100533021D01*
X213324927Y-100644705D01*
X213277694Y-100729642D01*
X213205862Y-100794741D01*
X213201802Y-100797428D01*
X213110487Y-100835634D01*
X213015144Y-100839034D01*
X212923274Y-100809939D01*
X212842379Y-100750660D01*
X212779962Y-100663510D01*
X212778914Y-100661409D01*
X212758173Y-100607289D01*
X212742980Y-100545781D01*
X212734921Y-100488039D01*
X212735582Y-100445215D01*
X212746548Y-100428462D01*
X212756290Y-100429480D01*
X212802877Y-100448009D01*
X212855682Y-100482081D01*
X212900603Y-100521522D01*
X212923535Y-100556155D01*
X212947373Y-100603133D01*
X212996230Y-100645862D01*
X213052963Y-100662923D01*
X213073758Y-100657990D01*
X213114804Y-100633157D01*
X213150557Y-100598685D01*
X213165846Y-100567411D01*
X213165842Y-100567295D01*
X213148495Y-100552933D01*
X213102247Y-100527025D01*
X213034067Y-100493210D01*
X212950923Y-100455129D01*
X212950466Y-100454927D01*
X212860138Y-100414709D01*
X212799592Y-100385733D01*
X212762888Y-100363474D01*
X212744086Y-100343407D01*
X212737246Y-100321009D01*
X212736429Y-100291756D01*
X212742113Y-100236363D01*
X212935000Y-100236363D01*
X212954911Y-100253777D01*
X213004521Y-100279872D01*
X213005976Y-100280610D01*
X213064506Y-100308483D01*
X213116868Y-100330719D01*
X213150086Y-100340126D01*
X213163410Y-100327552D01*
X213165846Y-100284468D01*
X213155724Y-100230847D01*
X213120631Y-100182119D01*
X213069823Y-100156856D01*
X213013181Y-100159406D01*
X212960584Y-100194120D01*
X212939910Y-100218107D01*
X212935000Y-100236363D01*
X212742113Y-100236363D01*
X212743622Y-100221654D01*
X212779184Y-100126412D01*
X212838714Y-100051567D01*
X212915746Y-99999745D01*
X213003815Y-99973573D01*
X213096454Y-99975676D01*
X213187198Y-100008681D01*
X213269579Y-100075215D01*
X213315222Y-100141055D01*
X213348008Y-100235036D01*
X213353339Y-100284468D01*
X213360787Y-100353536D01*
X213354574Y-100501643D01*
G36*
X207713936Y-100019911D02*
G01*
X207755807Y-100030547D01*
X207794791Y-100057062D01*
X207844965Y-100106420D01*
X207877232Y-100141279D01*
X207910844Y-100186534D01*
X207926003Y-100228951D01*
X207929539Y-100282768D01*
X207929539Y-100370850D01*
X207869470Y-100339787D01*
X207821867Y-100301936D01*
X207789261Y-100250950D01*
X207783661Y-100237088D01*
X207740992Y-100183358D01*
X207681707Y-100156417D01*
X207617061Y-100159039D01*
X207558308Y-100194000D01*
X207533450Y-100222394D01*
X207518970Y-100258718D01*
X207534470Y-100291046D01*
X207582667Y-100323565D01*
X207666274Y-100360461D01*
X207678962Y-100365557D01*
X207755078Y-100398907D01*
X207820396Y-100431793D01*
X207861953Y-100457769D01*
X207903576Y-100504167D01*
X207931247Y-100578211D01*
X207928310Y-100657670D01*
X207895571Y-100732868D01*
X207833841Y-100794131D01*
X207783858Y-100820210D01*
X207687303Y-100838470D01*
X207633647Y-100836007D01*
X207583976Y-100822687D01*
X207564919Y-100794739D01*
X207572045Y-100748710D01*
X207574118Y-100742624D01*
X207590556Y-100710349D01*
X207617926Y-100698133D01*
X207670068Y-100698950D01*
X207706884Y-100700061D01*
X207749961Y-100690528D01*
X207779475Y-100662026D01*
X207796286Y-100626935D01*
X207798161Y-100590175D01*
X207798074Y-100589961D01*
X207776279Y-100570098D01*
X207729632Y-100541192D01*
X207669278Y-100508886D01*
X207606360Y-100478823D01*
X207552023Y-100456646D01*
X207517410Y-100448000D01*
X207512260Y-100456467D01*
X207505778Y-100496309D01*
X207501339Y-100561371D01*
X207499692Y-100643385D01*
X207499309Y-100700153D01*
X207497505Y-100771648D01*
X207494558Y-100820610D01*
X207490843Y-100838769D01*
X207471424Y-100832667D01*
X207432227Y-100816095D01*
X207382462Y-100793420D01*
X207382462Y-100502509D01*
X207382780Y-100427940D01*
X207385789Y-100314701D01*
X207393454Y-100230692D01*
X207407562Y-100169520D01*
X207429899Y-100124795D01*
X207462253Y-100090124D01*
X207506410Y-100059117D01*
X207562667Y-100033528D01*
X207666540Y-100018154D01*
X207713936Y-100019911D01*
G37*
X207713936Y-100019911D02*
X207755807Y-100030547D01*
X207794791Y-100057062D01*
X207844965Y-100106420D01*
X207877232Y-100141279D01*
X207910844Y-100186534D01*
X207926003Y-100228951D01*
X207929539Y-100282768D01*
X207929539Y-100370850D01*
X207869470Y-100339787D01*
X207821867Y-100301936D01*
X207789261Y-100250950D01*
X207783661Y-100237088D01*
X207740992Y-100183358D01*
X207681707Y-100156417D01*
X207617061Y-100159039D01*
X207558308Y-100194000D01*
X207533450Y-100222394D01*
X207518970Y-100258718D01*
X207534470Y-100291046D01*
X207582667Y-100323565D01*
X207666274Y-100360461D01*
X207678962Y-100365557D01*
X207755078Y-100398907D01*
X207820396Y-100431793D01*
X207861953Y-100457769D01*
X207903576Y-100504167D01*
X207931247Y-100578211D01*
X207928310Y-100657670D01*
X207895571Y-100732868D01*
X207833841Y-100794131D01*
X207783858Y-100820210D01*
X207687303Y-100838470D01*
X207633647Y-100836007D01*
X207583976Y-100822687D01*
X207564919Y-100794739D01*
X207572045Y-100748710D01*
X207574118Y-100742624D01*
X207590556Y-100710349D01*
X207617926Y-100698133D01*
X207670068Y-100698950D01*
X207706884Y-100700061D01*
X207749961Y-100690528D01*
X207779475Y-100662026D01*
X207796286Y-100626935D01*
X207798161Y-100590175D01*
X207798074Y-100589961D01*
X207776279Y-100570098D01*
X207729632Y-100541192D01*
X207669278Y-100508886D01*
X207606360Y-100478823D01*
X207552023Y-100456646D01*
X207517410Y-100448000D01*
X207512260Y-100456467D01*
X207505778Y-100496309D01*
X207501339Y-100561371D01*
X207499692Y-100643385D01*
X207499309Y-100700153D01*
X207497505Y-100771648D01*
X207494558Y-100820610D01*
X207490843Y-100838769D01*
X207471424Y-100832667D01*
X207432227Y-100816095D01*
X207382462Y-100793420D01*
X207382462Y-100502509D01*
X207382780Y-100427940D01*
X207385789Y-100314701D01*
X207393454Y-100230692D01*
X207407562Y-100169520D01*
X207429899Y-100124795D01*
X207462253Y-100090124D01*
X207506410Y-100059117D01*
X207562667Y-100033528D01*
X207666540Y-100018154D01*
X207713936Y-100019911D01*
G36*
X210467575Y-93687693D02*
G01*
X210603371Y-93687807D01*
X210705576Y-93688472D01*
X210779122Y-93690182D01*
X210828942Y-93693429D01*
X210859967Y-93698706D01*
X210877129Y-93706507D01*
X210885361Y-93717325D01*
X210889594Y-93731654D01*
X210889716Y-93732168D01*
X210896672Y-93765851D01*
X210909320Y-93830917D01*
X210926360Y-93920542D01*
X210946496Y-94027904D01*
X210968429Y-94146178D01*
X210970218Y-94155856D01*
X210992083Y-94270650D01*
X211012430Y-94371480D01*
X211029934Y-94452217D01*
X211043271Y-94506734D01*
X211051116Y-94528901D01*
X211051158Y-94528936D01*
X211075884Y-94541200D01*
X211126631Y-94561576D01*
X211192462Y-94585674D01*
X211196169Y-94586983D01*
X211280331Y-94618791D01*
X211378230Y-94658685D01*
X211469435Y-94698353D01*
X211619407Y-94766420D01*
X211951499Y-94539639D01*
X211974889Y-94523688D01*
X212075080Y-94455890D01*
X212164480Y-94396208D01*
X212237745Y-94348156D01*
X212289527Y-94315250D01*
X212314480Y-94301004D01*
X212331577Y-94304270D01*
X212370395Y-94329571D01*
X212430385Y-94379675D01*
X212513210Y-94455989D01*
X212620535Y-94559922D01*
X212630139Y-94569382D01*
X212715302Y-94654145D01*
X212790949Y-94730937D01*
X212852449Y-94794947D01*
X212895173Y-94841361D01*
X212914489Y-94865369D01*
X212914552Y-94865485D01*
X212917006Y-94883763D01*
X212907956Y-94913411D01*
X212885119Y-94958486D01*
X212846213Y-95023044D01*
X212788954Y-95111140D01*
X212711059Y-95226830D01*
X212697785Y-95246357D01*
X212630652Y-95345278D01*
X212571410Y-95432848D01*
X212523588Y-95503831D01*
X212490715Y-95552991D01*
X212476318Y-95575095D01*
X212475232Y-95579777D01*
X212482044Y-95614710D01*
X212502450Y-95671753D01*
X212533123Y-95741172D01*
X212574808Y-95831959D01*
X212621352Y-95939686D01*
X212660877Y-96037192D01*
X212670676Y-96062430D01*
X212696340Y-96126870D01*
X212715193Y-96171763D01*
X212723710Y-96188616D01*
X212733111Y-96189875D01*
X212775363Y-96197159D01*
X212844521Y-96209739D01*
X212933387Y-96226246D01*
X213034768Y-96245312D01*
X213141467Y-96265569D01*
X213246288Y-96285647D01*
X213342036Y-96304179D01*
X213421516Y-96319795D01*
X213477530Y-96331127D01*
X213502885Y-96336807D01*
X213507088Y-96338408D01*
X213517334Y-96347045D01*
X213524957Y-96365433D01*
X213530338Y-96398460D01*
X213533859Y-96451013D01*
X213535901Y-96527979D01*
X213536847Y-96634246D01*
X213537077Y-96774701D01*
X213537077Y-97201845D01*
X213434500Y-97222091D01*
X213422092Y-97224518D01*
X213356199Y-97237088D01*
X213265084Y-97254170D01*
X213159104Y-97273829D01*
X213048615Y-97294132D01*
X213005105Y-97302299D01*
X212907882Y-97322167D01*
X212826858Y-97340954D01*
X212769477Y-97356859D01*
X212743187Y-97368079D01*
X212731273Y-97386411D01*
X212709583Y-97434916D01*
X212687395Y-97497692D01*
X212679585Y-97521200D01*
X212650835Y-97598366D01*
X212613752Y-97689694D01*
X212574375Y-97780093D01*
X212553315Y-97827310D01*
X212523311Y-97897837D01*
X212502692Y-97950655D01*
X212495026Y-97976912D01*
X212495452Y-97978894D01*
X212509993Y-98006751D01*
X212542783Y-98060510D01*
X212590493Y-98134963D01*
X212649798Y-98224897D01*
X212717369Y-98325104D01*
X212939713Y-98651416D01*
X212647601Y-98944016D01*
X212619349Y-98972171D01*
X212532961Y-99056449D01*
X212455756Y-99129128D01*
X212392258Y-99186112D01*
X212346990Y-99223307D01*
X212324474Y-99236616D01*
X212300023Y-99226490D01*
X212248819Y-99197421D01*
X212176747Y-99152896D01*
X212089460Y-99096411D01*
X211992612Y-99031462D01*
X211897486Y-98967314D01*
X211811669Y-98910827D01*
X211741652Y-98866184D01*
X211692876Y-98836855D01*
X211670783Y-98826308D01*
X211669488Y-98826404D01*
X211640139Y-98836802D01*
X211588093Y-98861012D01*
X211523708Y-98894249D01*
X211523032Y-98894613D01*
X211437521Y-98937441D01*
X211378926Y-98958365D01*
X211342571Y-98958423D01*
X211323775Y-98938654D01*
X211315819Y-98919195D01*
X211294347Y-98867080D01*
X211261273Y-98786964D01*
X211218356Y-98683107D01*
X211167356Y-98559767D01*
X211110033Y-98421201D01*
X211048146Y-98271670D01*
X210992052Y-98135636D01*
X210934977Y-97996050D01*
X210884479Y-97871315D01*
X210842254Y-97765672D01*
X210809995Y-97683365D01*
X210789397Y-97628635D01*
X210782154Y-97605726D01*
X210795986Y-97584718D01*
X210834412Y-97549642D01*
X210888807Y-97508887D01*
X211019395Y-97402267D01*
X211136260Y-97266025D01*
X211221780Y-97116118D01*
X211275431Y-96956971D01*
X211296684Y-96793012D01*
X211285014Y-96628667D01*
X211239894Y-96468361D01*
X211160797Y-96316520D01*
X211047197Y-96177572D01*
X210987965Y-96123460D01*
X210846054Y-96027782D01*
X210694206Y-95965405D01*
X210536861Y-95934844D01*
X210378456Y-95934615D01*
X210223429Y-95963232D01*
X210076220Y-96019210D01*
X209941266Y-96101064D01*
X209823005Y-96207309D01*
X209725877Y-96336459D01*
X209654318Y-96487031D01*
X209612769Y-96657539D01*
X209605143Y-96739722D01*
X209615634Y-96917775D01*
X209662882Y-97086704D01*
X209745489Y-97243522D01*
X209862059Y-97385245D01*
X210011193Y-97508887D01*
X210063561Y-97547982D01*
X210102832Y-97583443D01*
X210117846Y-97605692D01*
X210111859Y-97625088D01*
X210092432Y-97677059D01*
X210061194Y-97757002D01*
X210019839Y-97860673D01*
X209970061Y-97983832D01*
X209913553Y-98122234D01*
X209852009Y-98271637D01*
X209796008Y-98407020D01*
X209738184Y-98546852D01*
X209686500Y-98671872D01*
X209642718Y-98777822D01*
X209608597Y-98860441D01*
X209585898Y-98915472D01*
X209576380Y-98938654D01*
X209576269Y-98938928D01*
X209557228Y-98958503D01*
X209520694Y-98958279D01*
X209461954Y-98937210D01*
X209376292Y-98894249D01*
X209369549Y-98890631D01*
X209305938Y-98858087D01*
X209255707Y-98835050D01*
X209229218Y-98826308D01*
X209207506Y-98836639D01*
X209158984Y-98865788D01*
X209089163Y-98910287D01*
X209003484Y-98966668D01*
X208907388Y-99031462D01*
X208812706Y-99094984D01*
X208725132Y-99151705D01*
X208652642Y-99196547D01*
X208600889Y-99226016D01*
X208575526Y-99236616D01*
X208571206Y-99235270D01*
X208541092Y-99214056D01*
X208489640Y-99170237D01*
X208421375Y-99107909D01*
X208340820Y-99031170D01*
X208252500Y-98944116D01*
X207960488Y-98651617D01*
X208415360Y-97982525D01*
X208346208Y-97832916D01*
X208346003Y-97832473D01*
X208304477Y-97737101D01*
X208262044Y-97630896D01*
X208227858Y-97536769D01*
X208222684Y-97521588D01*
X208196601Y-97451109D01*
X208173081Y-97396342D01*
X208156677Y-97368079D01*
X208149996Y-97364088D01*
X208109892Y-97350697D01*
X208041795Y-97333373D01*
X207953145Y-97313917D01*
X207851385Y-97294132D01*
X207820904Y-97288551D01*
X207710628Y-97268233D01*
X207607731Y-97249095D01*
X207522569Y-97233070D01*
X207465500Y-97222091D01*
X207362923Y-97201845D01*
X207362923Y-96774701D01*
X207362946Y-96722180D01*
X207363379Y-96594047D01*
X207364659Y-96498420D01*
X207367168Y-96430411D01*
X207371286Y-96385133D01*
X207377395Y-96357697D01*
X207385878Y-96343218D01*
X207397115Y-96336807D01*
X207407994Y-96334209D01*
X207452347Y-96325022D01*
X207523106Y-96310991D01*
X207613074Y-96293486D01*
X207715056Y-96273874D01*
X207821857Y-96253525D01*
X207926281Y-96233807D01*
X208021132Y-96216089D01*
X208099214Y-96201738D01*
X208153332Y-96192124D01*
X208176291Y-96188616D01*
X208177842Y-96186497D01*
X208190325Y-96159006D01*
X208211927Y-96106406D01*
X208239123Y-96037192D01*
X208276866Y-95943937D01*
X208323328Y-95836159D01*
X208366878Y-95741172D01*
X208376858Y-95719851D01*
X208404862Y-95653086D01*
X208421641Y-95601590D01*
X208423854Y-95575095D01*
X208422713Y-95573218D01*
X208404584Y-95545565D01*
X208368644Y-95491849D01*
X208318418Y-95417303D01*
X208257430Y-95327162D01*
X208189205Y-95226657D01*
X208112330Y-95112470D01*
X208054663Y-95023770D01*
X208015426Y-94958721D01*
X207992350Y-94913295D01*
X207983166Y-94883463D01*
X207985604Y-94865195D01*
X207986424Y-94863825D01*
X208008477Y-94837205D01*
X208053436Y-94788697D01*
X208116673Y-94723108D01*
X208193559Y-94645247D01*
X208279465Y-94559922D01*
X208368579Y-94473334D01*
X208455872Y-94391947D01*
X208520018Y-94337035D01*
X208562679Y-94307190D01*
X208585521Y-94301004D01*
X208588505Y-94302394D01*
X208619936Y-94321127D01*
X208676997Y-94357733D01*
X208754343Y-94408697D01*
X208846626Y-94470504D01*
X208948502Y-94539639D01*
X209280593Y-94766420D01*
X209430566Y-94698353D01*
X209434923Y-94696381D01*
X209527000Y-94656491D01*
X209624683Y-94616818D01*
X209707539Y-94585674D01*
X209707905Y-94585545D01*
X209773685Y-94561456D01*
X209824323Y-94541110D01*
X209848884Y-94528901D01*
X209849282Y-94528458D01*
X209857619Y-94503456D01*
X209871341Y-94446598D01*
X209889123Y-94364014D01*
X209909641Y-94261831D01*
X209931571Y-94146178D01*
X209932336Y-94142033D01*
X209954229Y-94024019D01*
X209974281Y-93917151D01*
X209991192Y-93828252D01*
X210003667Y-93764145D01*
X210010406Y-93731654D01*
X210010837Y-93729853D01*
X210015273Y-93715944D01*
X210024263Y-93705489D01*
X210042737Y-93697996D01*
X210075628Y-93692972D01*
X210127868Y-93689922D01*
X210204388Y-93688355D01*
X210310122Y-93687776D01*
X210450000Y-93687692D01*
X210467575Y-93687693D01*
G37*
X210467575Y-93687693D02*
X210603371Y-93687807D01*
X210705576Y-93688472D01*
X210779122Y-93690182D01*
X210828942Y-93693429D01*
X210859967Y-93698706D01*
X210877129Y-93706507D01*
X210885361Y-93717325D01*
X210889594Y-93731654D01*
X210889716Y-93732168D01*
X210896672Y-93765851D01*
X210909320Y-93830917D01*
X210926360Y-93920542D01*
X210946496Y-94027904D01*
X210968429Y-94146178D01*
X210970218Y-94155856D01*
X210992083Y-94270650D01*
X211012430Y-94371480D01*
X211029934Y-94452217D01*
X211043271Y-94506734D01*
X211051116Y-94528901D01*
X211051158Y-94528936D01*
X211075884Y-94541200D01*
X211126631Y-94561576D01*
X211192462Y-94585674D01*
X211196169Y-94586983D01*
X211280331Y-94618791D01*
X211378230Y-94658685D01*
X211469435Y-94698353D01*
X211619407Y-94766420D01*
X211951499Y-94539639D01*
X211974889Y-94523688D01*
X212075080Y-94455890D01*
X212164480Y-94396208D01*
X212237745Y-94348156D01*
X212289527Y-94315250D01*
X212314480Y-94301004D01*
X212331577Y-94304270D01*
X212370395Y-94329571D01*
X212430385Y-94379675D01*
X212513210Y-94455989D01*
X212620535Y-94559922D01*
X212630139Y-94569382D01*
X212715302Y-94654145D01*
X212790949Y-94730937D01*
X212852449Y-94794947D01*
X212895173Y-94841361D01*
X212914489Y-94865369D01*
X212914552Y-94865485D01*
X212917006Y-94883763D01*
X212907956Y-94913411D01*
X212885119Y-94958486D01*
X212846213Y-95023044D01*
X212788954Y-95111140D01*
X212711059Y-95226830D01*
X212697785Y-95246357D01*
X212630652Y-95345278D01*
X212571410Y-95432848D01*
X212523588Y-95503831D01*
X212490715Y-95552991D01*
X212476318Y-95575095D01*
X212475232Y-95579777D01*
X212482044Y-95614710D01*
X212502450Y-95671753D01*
X212533123Y-95741172D01*
X212574808Y-95831959D01*
X212621352Y-95939686D01*
X212660877Y-96037192D01*
X212670676Y-96062430D01*
X212696340Y-96126870D01*
X212715193Y-96171763D01*
X212723710Y-96188616D01*
X212733111Y-96189875D01*
X212775363Y-96197159D01*
X212844521Y-96209739D01*
X212933387Y-96226246D01*
X213034768Y-96245312D01*
X213141467Y-96265569D01*
X213246288Y-96285647D01*
X213342036Y-96304179D01*
X213421516Y-96319795D01*
X213477530Y-96331127D01*
X213502885Y-96336807D01*
X213507088Y-96338408D01*
X213517334Y-96347045D01*
X213524957Y-96365433D01*
X213530338Y-96398460D01*
X213533859Y-96451013D01*
X213535901Y-96527979D01*
X213536847Y-96634246D01*
X213537077Y-96774701D01*
X213537077Y-97201845D01*
X213434500Y-97222091D01*
X213422092Y-97224518D01*
X213356199Y-97237088D01*
X213265084Y-97254170D01*
X213159104Y-97273829D01*
X213048615Y-97294132D01*
X213005105Y-97302299D01*
X212907882Y-97322167D01*
X212826858Y-97340954D01*
X212769477Y-97356859D01*
X212743187Y-97368079D01*
X212731273Y-97386411D01*
X212709583Y-97434916D01*
X212687395Y-97497692D01*
X212679585Y-97521200D01*
X212650835Y-97598366D01*
X212613752Y-97689694D01*
X212574375Y-97780093D01*
X212553315Y-97827310D01*
X212523311Y-97897837D01*
X212502692Y-97950655D01*
X212495026Y-97976912D01*
X212495452Y-97978894D01*
X212509993Y-98006751D01*
X212542783Y-98060510D01*
X212590493Y-98134963D01*
X212649798Y-98224897D01*
X212717369Y-98325104D01*
X212939713Y-98651416D01*
X212647601Y-98944016D01*
X212619349Y-98972171D01*
X212532961Y-99056449D01*
X212455756Y-99129128D01*
X212392258Y-99186112D01*
X212346990Y-99223307D01*
X212324474Y-99236616D01*
X212300023Y-99226490D01*
X212248819Y-99197421D01*
X212176747Y-99152896D01*
X212089460Y-99096411D01*
X211992612Y-99031462D01*
X211897486Y-98967314D01*
X211811669Y-98910827D01*
X211741652Y-98866184D01*
X211692876Y-98836855D01*
X211670783Y-98826308D01*
X211669488Y-98826404D01*
X211640139Y-98836802D01*
X211588093Y-98861012D01*
X211523708Y-98894249D01*
X211523032Y-98894613D01*
X211437521Y-98937441D01*
X211378926Y-98958365D01*
X211342571Y-98958423D01*
X211323775Y-98938654D01*
X211315819Y-98919195D01*
X211294347Y-98867080D01*
X211261273Y-98786964D01*
X211218356Y-98683107D01*
X211167356Y-98559767D01*
X211110033Y-98421201D01*
X211048146Y-98271670D01*
X210992052Y-98135636D01*
X210934977Y-97996050D01*
X210884479Y-97871315D01*
X210842254Y-97765672D01*
X210809995Y-97683365D01*
X210789397Y-97628635D01*
X210782154Y-97605726D01*
X210795986Y-97584718D01*
X210834412Y-97549642D01*
X210888807Y-97508887D01*
X211019395Y-97402267D01*
X211136260Y-97266025D01*
X211221780Y-97116118D01*
X211275431Y-96956971D01*
X211296684Y-96793012D01*
X211285014Y-96628667D01*
X211239894Y-96468361D01*
X211160797Y-96316520D01*
X211047197Y-96177572D01*
X210987965Y-96123460D01*
X210846054Y-96027782D01*
X210694206Y-95965405D01*
X210536861Y-95934844D01*
X210378456Y-95934615D01*
X210223429Y-95963232D01*
X210076220Y-96019210D01*
X209941266Y-96101064D01*
X209823005Y-96207309D01*
X209725877Y-96336459D01*
X209654318Y-96487031D01*
X209612769Y-96657539D01*
X209605143Y-96739722D01*
X209615634Y-96917775D01*
X209662882Y-97086704D01*
X209745489Y-97243522D01*
X209862059Y-97385245D01*
X210011193Y-97508887D01*
X210063561Y-97547982D01*
X210102832Y-97583443D01*
X210117846Y-97605692D01*
X210111859Y-97625088D01*
X210092432Y-97677059D01*
X210061194Y-97757002D01*
X210019839Y-97860673D01*
X209970061Y-97983832D01*
X209913553Y-98122234D01*
X209852009Y-98271637D01*
X209796008Y-98407020D01*
X209738184Y-98546852D01*
X209686500Y-98671872D01*
X209642718Y-98777822D01*
X209608597Y-98860441D01*
X209585898Y-98915472D01*
X209576380Y-98938654D01*
X209576269Y-98938928D01*
X209557228Y-98958503D01*
X209520694Y-98958279D01*
X209461954Y-98937210D01*
X209376292Y-98894249D01*
X209369549Y-98890631D01*
X209305938Y-98858087D01*
X209255707Y-98835050D01*
X209229218Y-98826308D01*
X209207506Y-98836639D01*
X209158984Y-98865788D01*
X209089163Y-98910287D01*
X209003484Y-98966668D01*
X208907388Y-99031462D01*
X208812706Y-99094984D01*
X208725132Y-99151705D01*
X208652642Y-99196547D01*
X208600889Y-99226016D01*
X208575526Y-99236616D01*
X208571206Y-99235270D01*
X208541092Y-99214056D01*
X208489640Y-99170237D01*
X208421375Y-99107909D01*
X208340820Y-99031170D01*
X208252500Y-98944116D01*
X207960488Y-98651617D01*
X208415360Y-97982525D01*
X208346208Y-97832916D01*
X208346003Y-97832473D01*
X208304477Y-97737101D01*
X208262044Y-97630896D01*
X208227858Y-97536769D01*
X208222684Y-97521588D01*
X208196601Y-97451109D01*
X208173081Y-97396342D01*
X208156677Y-97368079D01*
X208149996Y-97364088D01*
X208109892Y-97350697D01*
X208041795Y-97333373D01*
X207953145Y-97313917D01*
X207851385Y-97294132D01*
X207820904Y-97288551D01*
X207710628Y-97268233D01*
X207607731Y-97249095D01*
X207522569Y-97233070D01*
X207465500Y-97222091D01*
X207362923Y-97201845D01*
X207362923Y-96774701D01*
X207362946Y-96722180D01*
X207363379Y-96594047D01*
X207364659Y-96498420D01*
X207367168Y-96430411D01*
X207371286Y-96385133D01*
X207377395Y-96357697D01*
X207385878Y-96343218D01*
X207397115Y-96336807D01*
X207407994Y-96334209D01*
X207452347Y-96325022D01*
X207523106Y-96310991D01*
X207613074Y-96293486D01*
X207715056Y-96273874D01*
X207821857Y-96253525D01*
X207926281Y-96233807D01*
X208021132Y-96216089D01*
X208099214Y-96201738D01*
X208153332Y-96192124D01*
X208176291Y-96188616D01*
X208177842Y-96186497D01*
X208190325Y-96159006D01*
X208211927Y-96106406D01*
X208239123Y-96037192D01*
X208276866Y-95943937D01*
X208323328Y-95836159D01*
X208366878Y-95741172D01*
X208376858Y-95719851D01*
X208404862Y-95653086D01*
X208421641Y-95601590D01*
X208423854Y-95575095D01*
X208422713Y-95573218D01*
X208404584Y-95545565D01*
X208368644Y-95491849D01*
X208318418Y-95417303D01*
X208257430Y-95327162D01*
X208189205Y-95226657D01*
X208112330Y-95112470D01*
X208054663Y-95023770D01*
X208015426Y-94958721D01*
X207992350Y-94913295D01*
X207983166Y-94883463D01*
X207985604Y-94865195D01*
X207986424Y-94863825D01*
X208008477Y-94837205D01*
X208053436Y-94788697D01*
X208116673Y-94723108D01*
X208193559Y-94645247D01*
X208279465Y-94559922D01*
X208368579Y-94473334D01*
X208455872Y-94391947D01*
X208520018Y-94337035D01*
X208562679Y-94307190D01*
X208585521Y-94301004D01*
X208588505Y-94302394D01*
X208619936Y-94321127D01*
X208676997Y-94357733D01*
X208754343Y-94408697D01*
X208846626Y-94470504D01*
X208948502Y-94539639D01*
X209280593Y-94766420D01*
X209430566Y-94698353D01*
X209434923Y-94696381D01*
X209527000Y-94656491D01*
X209624683Y-94616818D01*
X209707539Y-94585674D01*
X209707905Y-94585545D01*
X209773685Y-94561456D01*
X209824323Y-94541110D01*
X209848884Y-94528901D01*
X209849282Y-94528458D01*
X209857619Y-94503456D01*
X209871341Y-94446598D01*
X209889123Y-94364014D01*
X209909641Y-94261831D01*
X209931571Y-94146178D01*
X209932336Y-94142033D01*
X209954229Y-94024019D01*
X209974281Y-93917151D01*
X209991192Y-93828252D01*
X210003667Y-93764145D01*
X210010406Y-93731654D01*
X210010837Y-93729853D01*
X210015273Y-93715944D01*
X210024263Y-93705489D01*
X210042737Y-93697996D01*
X210075628Y-93692972D01*
X210127868Y-93689922D01*
X210204388Y-93688355D01*
X210310122Y-93687776D01*
X210450000Y-93687692D01*
X210467575Y-93687693D01*
G36*
X209921892Y-100047167D02*
G01*
X209928060Y-100050581D01*
X209978447Y-100089692D01*
X210023498Y-100139975D01*
X210031355Y-100151339D01*
X210046376Y-100177860D01*
X210057107Y-100209336D01*
X210064486Y-100252591D01*
X210069452Y-100314449D01*
X210072942Y-100401733D01*
X210075893Y-100521269D01*
X210076311Y-100541478D01*
X210077654Y-100672499D01*
X210075761Y-100765296D01*
X210070605Y-100820507D01*
X210062158Y-100838769D01*
X210036594Y-100833301D01*
X209993166Y-100816733D01*
X209982940Y-100811888D01*
X209966967Y-100800920D01*
X209955954Y-100782890D01*
X209948750Y-100751396D01*
X209944208Y-100700036D01*
X209941180Y-100622410D01*
X209938516Y-100512115D01*
X209937785Y-100479875D01*
X209934965Y-100378050D01*
X209931304Y-100306788D01*
X209925694Y-100259332D01*
X209917029Y-100228925D01*
X209904202Y-100208810D01*
X209886105Y-100192229D01*
X209832525Y-100163161D01*
X209766612Y-100157564D01*
X209707635Y-100179807D01*
X209665203Y-100225859D01*
X209648923Y-100291692D01*
X209648470Y-100309587D01*
X209639578Y-100341982D01*
X209613325Y-100346925D01*
X209561919Y-100327633D01*
X209550013Y-100321446D01*
X209517835Y-100285058D01*
X209517198Y-100230954D01*
X209547856Y-100156128D01*
X209575978Y-100115350D01*
X209647883Y-100057421D01*
X209736638Y-100024670D01*
X209831542Y-100020212D01*
X209921892Y-100047167D01*
G37*
X209921892Y-100047167D02*
X209928060Y-100050581D01*
X209978447Y-100089692D01*
X210023498Y-100139975D01*
X210031355Y-100151339D01*
X210046376Y-100177860D01*
X210057107Y-100209336D01*
X210064486Y-100252591D01*
X210069452Y-100314449D01*
X210072942Y-100401733D01*
X210075893Y-100521269D01*
X210076311Y-100541478D01*
X210077654Y-100672499D01*
X210075761Y-100765296D01*
X210070605Y-100820507D01*
X210062158Y-100838769D01*
X210036594Y-100833301D01*
X209993166Y-100816733D01*
X209982940Y-100811888D01*
X209966967Y-100800920D01*
X209955954Y-100782890D01*
X209948750Y-100751396D01*
X209944208Y-100700036D01*
X209941180Y-100622410D01*
X209938516Y-100512115D01*
X209937785Y-100479875D01*
X209934965Y-100378050D01*
X209931304Y-100306788D01*
X209925694Y-100259332D01*
X209917029Y-100228925D01*
X209904202Y-100208810D01*
X209886105Y-100192229D01*
X209832525Y-100163161D01*
X209766612Y-100157564D01*
X209707635Y-100179807D01*
X209665203Y-100225859D01*
X209648923Y-100291692D01*
X209648470Y-100309587D01*
X209639578Y-100341982D01*
X209613325Y-100346925D01*
X209561919Y-100327633D01*
X209550013Y-100321446D01*
X209517835Y-100285058D01*
X209517198Y-100230954D01*
X209547856Y-100156128D01*
X209575978Y-100115350D01*
X209647883Y-100057421D01*
X209736638Y-100024670D01*
X209831542Y-100020212D01*
X209921892Y-100047167D01*
G36*
X214099763Y-100648269D02*
G01*
X214100300Y-100691802D01*
X214102019Y-100837344D01*
X214102365Y-100948711D01*
X214100277Y-101029804D01*
X214094698Y-101084522D01*
X214084567Y-101116761D01*
X214068826Y-101130422D01*
X214046417Y-101129403D01*
X214016280Y-101117603D01*
X213977355Y-101098920D01*
X213969038Y-101094933D01*
X213934402Y-101075419D01*
X213916314Y-101052202D01*
X213909392Y-101013492D01*
X213908256Y-100947497D01*
X213908205Y-100829000D01*
X213786141Y-100829000D01*
X213711055Y-100825712D01*
X213652015Y-100812377D01*
X213602986Y-100785423D01*
X213599330Y-100782788D01*
X213549581Y-100738286D01*
X213514959Y-100684523D01*
X213493123Y-100614154D01*
X213481737Y-100519830D01*
X213478959Y-100413271D01*
X213673846Y-100413271D01*
X213673880Y-100431131D01*
X213675735Y-100511748D01*
X213681693Y-100564447D01*
X213693506Y-100598668D01*
X213712923Y-100623846D01*
X213714133Y-100625049D01*
X213761858Y-100657628D01*
X213808110Y-100654417D01*
X213860350Y-100614965D01*
X213873128Y-100601482D01*
X213891949Y-100573837D01*
X213902562Y-100537880D01*
X213907252Y-100483364D01*
X213908308Y-100400042D01*
X213907394Y-100349598D01*
X213897477Y-100257857D01*
X213874842Y-100197752D01*
X213837238Y-100164900D01*
X213782416Y-100154923D01*
X213759317Y-100157050D01*
X213719350Y-100178147D01*
X213692926Y-100225161D01*
X213678330Y-100302175D01*
X213673846Y-100413271D01*
X213478959Y-100413271D01*
X213478462Y-100394206D01*
X213479187Y-100302536D01*
X213482490Y-100233098D01*
X213489828Y-100184945D01*
X213502655Y-100148866D01*
X213522423Y-100115648D01*
X213540569Y-100090261D01*
X213606461Y-100021727D01*
X213681114Y-99984505D01*
X213774904Y-99972722D01*
X213882240Y-99984467D01*
X213975031Y-100026595D01*
X214048421Y-100100898D01*
X214053954Y-100108764D01*
X214066857Y-100129668D01*
X214076742Y-100153555D01*
X214084093Y-100185582D01*
X214089394Y-100230905D01*
X214093127Y-100294679D01*
X214095778Y-100382060D01*
X214096096Y-100400042D01*
X214097828Y-100498205D01*
X214099763Y-100648269D01*
G37*
X214099763Y-100648269D02*
X214100300Y-100691802D01*
X214102019Y-100837344D01*
X214102365Y-100948711D01*
X214100277Y-101029804D01*
X214094698Y-101084522D01*
X214084567Y-101116761D01*
X214068826Y-101130422D01*
X214046417Y-101129403D01*
X214016280Y-101117603D01*
X213977355Y-101098920D01*
X213969038Y-101094933D01*
X213934402Y-101075419D01*
X213916314Y-101052202D01*
X213909392Y-101013492D01*
X213908256Y-100947497D01*
X213908205Y-100829000D01*
X213786141Y-100829000D01*
X213711055Y-100825712D01*
X213652015Y-100812377D01*
X213602986Y-100785423D01*
X213599330Y-100782788D01*
X213549581Y-100738286D01*
X213514959Y-100684523D01*
X213493123Y-100614154D01*
X213481737Y-100519830D01*
X213478959Y-100413271D01*
X213673846Y-100413271D01*
X213673880Y-100431131D01*
X213675735Y-100511748D01*
X213681693Y-100564447D01*
X213693506Y-100598668D01*
X213712923Y-100623846D01*
X213714133Y-100625049D01*
X213761858Y-100657628D01*
X213808110Y-100654417D01*
X213860350Y-100614965D01*
X213873128Y-100601482D01*
X213891949Y-100573837D01*
X213902562Y-100537880D01*
X213907252Y-100483364D01*
X213908308Y-100400042D01*
X213907394Y-100349598D01*
X213897477Y-100257857D01*
X213874842Y-100197752D01*
X213837238Y-100164900D01*
X213782416Y-100154923D01*
X213759317Y-100157050D01*
X213719350Y-100178147D01*
X213692926Y-100225161D01*
X213678330Y-100302175D01*
X213673846Y-100413271D01*
X213478959Y-100413271D01*
X213478462Y-100394206D01*
X213479187Y-100302536D01*
X213482490Y-100233098D01*
X213489828Y-100184945D01*
X213502655Y-100148866D01*
X213522423Y-100115648D01*
X213540569Y-100090261D01*
X213606461Y-100021727D01*
X213681114Y-99984505D01*
X213774904Y-99972722D01*
X213882240Y-99984467D01*
X213975031Y-100026595D01*
X214048421Y-100100898D01*
X214053954Y-100108764D01*
X214066857Y-100129668D01*
X214076742Y-100153555D01*
X214084093Y-100185582D01*
X214089394Y-100230905D01*
X214093127Y-100294679D01*
X214095778Y-100382060D01*
X214096096Y-100400042D01*
X214097828Y-100498205D01*
X214099763Y-100648269D01*
G36*
X209412839Y-100504652D02*
G01*
X209401810Y-100608507D01*
X209377814Y-100686333D01*
X209338043Y-100745760D01*
X209279688Y-100794418D01*
X209224100Y-100822546D01*
X209130751Y-100838199D01*
X209037530Y-100821084D01*
X208953272Y-100773388D01*
X208886818Y-100697294D01*
X208878793Y-100683262D01*
X208868196Y-100658679D01*
X208860335Y-100627309D01*
X208854807Y-100583769D01*
X208851206Y-100522678D01*
X208849128Y-100438655D01*
X208849064Y-100431200D01*
X208984615Y-100431200D01*
X208985077Y-100502316D01*
X208987999Y-100566641D01*
X208995221Y-100608166D01*
X209008561Y-100636067D01*
X209029836Y-100659517D01*
X209034821Y-100664025D01*
X209098863Y-100697295D01*
X209166625Y-100693890D01*
X209229734Y-100654042D01*
X209248526Y-100633398D01*
X209264254Y-100606029D01*
X209273039Y-100568192D01*
X209276859Y-100510355D01*
X209277692Y-100422986D01*
X209277281Y-100356319D01*
X209274434Y-100291245D01*
X209267256Y-100249251D01*
X209253889Y-100221063D01*
X209232472Y-100197406D01*
X209219890Y-100186753D01*
X209154699Y-100158057D01*
X209086400Y-100162575D01*
X209027098Y-100200144D01*
X209014333Y-100215040D01*
X208998764Y-100243089D01*
X208989762Y-100282258D01*
X208985617Y-100341858D01*
X208984615Y-100431200D01*
X208849064Y-100431200D01*
X208848167Y-100326320D01*
X208847919Y-100180289D01*
X208847846Y-99726963D01*
X208911346Y-99753564D01*
X208928136Y-99760845D01*
X208954859Y-99777287D01*
X208970156Y-99802187D01*
X208978563Y-99845732D01*
X208984615Y-99918106D01*
X208990144Y-99983089D01*
X208997450Y-100025750D01*
X209007918Y-100041670D01*
X209023692Y-100037400D01*
X209063890Y-100022397D01*
X209135728Y-100018678D01*
X209213010Y-100032572D01*
X209279688Y-100062505D01*
X209316371Y-100090211D01*
X209363472Y-100144269D01*
X209393638Y-100213577D01*
X209409678Y-100305765D01*
X209414191Y-100422986D01*
X209414401Y-100428462D01*
X209412839Y-100504652D01*
G37*
X209412839Y-100504652D02*
X209401810Y-100608507D01*
X209377814Y-100686333D01*
X209338043Y-100745760D01*
X209279688Y-100794418D01*
X209224100Y-100822546D01*
X209130751Y-100838199D01*
X209037530Y-100821084D01*
X208953272Y-100773388D01*
X208886818Y-100697294D01*
X208878793Y-100683262D01*
X208868196Y-100658679D01*
X208860335Y-100627309D01*
X208854807Y-100583769D01*
X208851206Y-100522678D01*
X208849128Y-100438655D01*
X208849064Y-100431200D01*
X208984615Y-100431200D01*
X208985077Y-100502316D01*
X208987999Y-100566641D01*
X208995221Y-100608166D01*
X209008561Y-100636067D01*
X209029836Y-100659517D01*
X209034821Y-100664025D01*
X209098863Y-100697295D01*
X209166625Y-100693890D01*
X209229734Y-100654042D01*
X209248526Y-100633398D01*
X209264254Y-100606029D01*
X209273039Y-100568192D01*
X209276859Y-100510355D01*
X209277692Y-100422986D01*
X209277281Y-100356319D01*
X209274434Y-100291245D01*
X209267256Y-100249251D01*
X209253889Y-100221063D01*
X209232472Y-100197406D01*
X209219890Y-100186753D01*
X209154699Y-100158057D01*
X209086400Y-100162575D01*
X209027098Y-100200144D01*
X209014333Y-100215040D01*
X208998764Y-100243089D01*
X208989762Y-100282258D01*
X208985617Y-100341858D01*
X208984615Y-100431200D01*
X208849064Y-100431200D01*
X208848167Y-100326320D01*
X208847919Y-100180289D01*
X208847846Y-99726963D01*
X208911346Y-99753564D01*
X208928136Y-99760845D01*
X208954859Y-99777287D01*
X208970156Y-99802187D01*
X208978563Y-99845732D01*
X208984615Y-99918106D01*
X208990144Y-99983089D01*
X208997450Y-100025750D01*
X209007918Y-100041670D01*
X209023692Y-100037400D01*
X209063890Y-100022397D01*
X209135728Y-100018678D01*
X209213010Y-100032572D01*
X209279688Y-100062505D01*
X209316371Y-100090211D01*
X209363472Y-100144269D01*
X209393638Y-100213577D01*
X209409678Y-100305765D01*
X209414191Y-100422986D01*
X209414401Y-100428462D01*
X209412839Y-100504652D01*
G36*
X206600413Y-100484449D02*
G01*
X206595641Y-100587047D01*
X206583150Y-100662126D01*
X206560121Y-100717748D01*
X206523732Y-100761975D01*
X206471162Y-100802869D01*
X206437714Y-100821466D01*
X206384098Y-100833991D01*
X206308780Y-100833003D01*
X206266672Y-100829035D01*
X206215879Y-100816920D01*
X206175280Y-100790585D01*
X206128049Y-100741514D01*
X206121738Y-100734346D01*
X206079277Y-100679189D01*
X206059018Y-100631150D01*
X206053846Y-100574184D01*
X206053846Y-100490471D01*
X206112346Y-100512552D01*
X206154994Y-100538364D01*
X206192064Y-100598928D01*
X206199803Y-100618320D01*
X206243074Y-100673235D01*
X206301976Y-100700879D01*
X206366111Y-100698393D01*
X206425077Y-100662923D01*
X206445342Y-100640805D01*
X206463720Y-100607436D01*
X206457971Y-100577117D01*
X206424887Y-100545913D01*
X206361261Y-100509887D01*
X206263885Y-100465103D01*
X206063615Y-100377445D01*
X206058301Y-100290607D01*
X206060299Y-100235296D01*
X206190783Y-100235296D01*
X206200688Y-100269538D01*
X206245756Y-100306096D01*
X206327557Y-100347692D01*
X206341092Y-100353718D01*
X206405818Y-100381753D01*
X206454247Y-100401472D01*
X206476751Y-100408923D01*
X206480161Y-100403438D01*
X206481529Y-100369948D01*
X206476651Y-100316116D01*
X206464364Y-100263473D01*
X206426041Y-100197151D01*
X206370720Y-100159780D01*
X206304640Y-100154721D01*
X206234040Y-100185339D01*
X206214474Y-100200648D01*
X206190783Y-100235296D01*
X206060299Y-100235296D01*
X206060647Y-100225663D01*
X206090186Y-100143590D01*
X206127472Y-100098361D01*
X206204776Y-100047838D01*
X206296478Y-100022316D01*
X206391274Y-100024336D01*
X206477859Y-100056440D01*
X206496920Y-100068767D01*
X206540640Y-100106912D01*
X206570540Y-100155167D01*
X206588968Y-100220710D01*
X206598270Y-100310720D01*
X206599499Y-100369948D01*
X206600794Y-100432376D01*
X206600413Y-100484449D01*
G37*
X206600413Y-100484449D02*
X206595641Y-100587047D01*
X206583150Y-100662126D01*
X206560121Y-100717748D01*
X206523732Y-100761975D01*
X206471162Y-100802869D01*
X206437714Y-100821466D01*
X206384098Y-100833991D01*
X206308780Y-100833003D01*
X206266672Y-100829035D01*
X206215879Y-100816920D01*
X206175280Y-100790585D01*
X206128049Y-100741514D01*
X206121738Y-100734346D01*
X206079277Y-100679189D01*
X206059018Y-100631150D01*
X206053846Y-100574184D01*
X206053846Y-100490471D01*
X206112346Y-100512552D01*
X206154994Y-100538364D01*
X206192064Y-100598928D01*
X206199803Y-100618320D01*
X206243074Y-100673235D01*
X206301976Y-100700879D01*
X206366111Y-100698393D01*
X206425077Y-100662923D01*
X206445342Y-100640805D01*
X206463720Y-100607436D01*
X206457971Y-100577117D01*
X206424887Y-100545913D01*
X206361261Y-100509887D01*
X206263885Y-100465103D01*
X206063615Y-100377445D01*
X206058301Y-100290607D01*
X206060299Y-100235296D01*
X206190783Y-100235296D01*
X206200688Y-100269538D01*
X206245756Y-100306096D01*
X206327557Y-100347692D01*
X206341092Y-100353718D01*
X206405818Y-100381753D01*
X206454247Y-100401472D01*
X206476751Y-100408923D01*
X206480161Y-100403438D01*
X206481529Y-100369948D01*
X206476651Y-100316116D01*
X206464364Y-100263473D01*
X206426041Y-100197151D01*
X206370720Y-100159780D01*
X206304640Y-100154721D01*
X206234040Y-100185339D01*
X206214474Y-100200648D01*
X206190783Y-100235296D01*
X206060299Y-100235296D01*
X206060647Y-100225663D01*
X206090186Y-100143590D01*
X206127472Y-100098361D01*
X206204776Y-100047838D01*
X206296478Y-100022316D01*
X206391274Y-100024336D01*
X206477859Y-100056440D01*
X206496920Y-100068767D01*
X206540640Y-100106912D01*
X206570540Y-100155167D01*
X206588968Y-100220710D01*
X206598270Y-100310720D01*
X206599499Y-100369948D01*
X206600794Y-100432376D01*
X206600413Y-100484449D01*
G36*
X214846135Y-100430105D02*
G01*
X214845076Y-100524584D01*
X214841436Y-100590414D01*
X214833892Y-100636394D01*
X214821122Y-100671321D01*
X214801803Y-100703995D01*
X214797050Y-100710775D01*
X214746759Y-100764231D01*
X214689457Y-100804547D01*
X214660032Y-100817629D01*
X214554299Y-100839450D01*
X214449734Y-100825336D01*
X214353368Y-100777105D01*
X214272235Y-100696579D01*
X214265385Y-100685791D01*
X214243097Y-100623153D01*
X214228079Y-100535935D01*
X214220792Y-100435210D01*
X214221611Y-100342037D01*
X214418796Y-100342037D01*
X214420349Y-100471114D01*
X214420974Y-100479420D01*
X214430077Y-100550643D01*
X214446288Y-100595809D01*
X214473660Y-100626752D01*
X214519553Y-100655737D01*
X214564942Y-100657261D01*
X214611692Y-100623846D01*
X214619824Y-100615053D01*
X214635754Y-100588741D01*
X214645159Y-100550520D01*
X214649632Y-100491349D01*
X214650769Y-100402182D01*
X214648822Y-100318664D01*
X214639105Y-100239095D01*
X214619047Y-100188808D01*
X214586240Y-100162513D01*
X214538280Y-100154923D01*
X214520016Y-100156432D01*
X214468848Y-100184107D01*
X214435035Y-100246172D01*
X214418796Y-100342037D01*
X214221611Y-100342037D01*
X214221699Y-100332052D01*
X214231262Y-100237533D01*
X214249943Y-100162727D01*
X214273951Y-100112905D01*
X214341536Y-100035409D01*
X214433114Y-99987256D01*
X214545213Y-99970703D01*
X214575151Y-99971599D01*
X214663315Y-99989929D01*
X214735733Y-100036104D01*
X214802192Y-100115648D01*
X214806147Y-100121548D01*
X214824040Y-100153288D01*
X214835678Y-100189163D01*
X214842371Y-100237906D01*
X214845426Y-100308249D01*
X214846106Y-100402182D01*
X214846154Y-100408923D01*
X214846135Y-100430105D01*
G37*
X214846135Y-100430105D02*
X214845076Y-100524584D01*
X214841436Y-100590414D01*
X214833892Y-100636394D01*
X214821122Y-100671321D01*
X214801803Y-100703995D01*
X214797050Y-100710775D01*
X214746759Y-100764231D01*
X214689457Y-100804547D01*
X214660032Y-100817629D01*
X214554299Y-100839450D01*
X214449734Y-100825336D01*
X214353368Y-100777105D01*
X214272235Y-100696579D01*
X214265385Y-100685791D01*
X214243097Y-100623153D01*
X214228079Y-100535935D01*
X214220792Y-100435210D01*
X214221611Y-100342037D01*
X214418796Y-100342037D01*
X214420349Y-100471114D01*
X214420974Y-100479420D01*
X214430077Y-100550643D01*
X214446288Y-100595809D01*
X214473660Y-100626752D01*
X214519553Y-100655737D01*
X214564942Y-100657261D01*
X214611692Y-100623846D01*
X214619824Y-100615053D01*
X214635754Y-100588741D01*
X214645159Y-100550520D01*
X214649632Y-100491349D01*
X214650769Y-100402182D01*
X214648822Y-100318664D01*
X214639105Y-100239095D01*
X214619047Y-100188808D01*
X214586240Y-100162513D01*
X214538280Y-100154923D01*
X214520016Y-100156432D01*
X214468848Y-100184107D01*
X214435035Y-100246172D01*
X214418796Y-100342037D01*
X214221611Y-100342037D01*
X214221699Y-100332052D01*
X214231262Y-100237533D01*
X214249943Y-100162727D01*
X214273951Y-100112905D01*
X214341536Y-100035409D01*
X214433114Y-99987256D01*
X214545213Y-99970703D01*
X214575151Y-99971599D01*
X214663315Y-99989929D01*
X214735733Y-100036104D01*
X214802192Y-100115648D01*
X214806147Y-100121548D01*
X214824040Y-100153288D01*
X214835678Y-100189163D01*
X214842371Y-100237906D01*
X214845426Y-100308249D01*
X214846106Y-100402182D01*
X214846154Y-100408923D01*
X214846135Y-100430105D01*
G36*
X210570458Y-100039228D02*
G01*
X210637622Y-100078389D01*
X210667169Y-100108902D01*
X210723948Y-100200110D01*
X210743077Y-100299548D01*
X210743077Y-100367960D01*
X210680191Y-100341518D01*
X210636700Y-100314837D01*
X210602426Y-100259446D01*
X210598907Y-100248024D01*
X210561028Y-100189838D01*
X210503936Y-100158407D01*
X210438383Y-100157058D01*
X210375117Y-100189116D01*
X210365672Y-100197383D01*
X210334087Y-100233311D01*
X210328871Y-100264635D01*
X210352765Y-100295391D01*
X210408510Y-100329617D01*
X210498846Y-100371350D01*
X210504956Y-100373993D01*
X210605241Y-100420755D01*
X210673735Y-100462181D01*
X210715899Y-100503542D01*
X210737193Y-100550111D01*
X210743077Y-100607160D01*
X210735366Y-100670408D01*
X210696430Y-100751364D01*
X210627932Y-100809522D01*
X210578388Y-100826983D01*
X210508469Y-100836537D01*
X210440575Y-100834496D01*
X210392093Y-100820082D01*
X210386943Y-100816493D01*
X210373267Y-100791416D01*
X210382757Y-100747218D01*
X210399246Y-100712527D01*
X210425687Y-100698084D01*
X210475834Y-100698803D01*
X210545453Y-100694660D01*
X210590943Y-100666054D01*
X210606308Y-100613104D01*
X210606294Y-100611582D01*
X210596983Y-100580845D01*
X210565311Y-100552643D01*
X210503731Y-100520136D01*
X210419986Y-100480998D01*
X210364518Y-100459706D01*
X210332497Y-100461079D01*
X210317534Y-100489203D01*
X210313242Y-100548170D01*
X210313231Y-100642068D01*
X210312752Y-100700031D01*
X210310556Y-100771612D01*
X210306986Y-100820606D01*
X210302491Y-100838769D01*
X210301290Y-100838646D01*
X210275319Y-100828802D01*
X210232305Y-100808028D01*
X210172859Y-100777287D01*
X210179923Y-100500298D01*
X210180414Y-100481928D01*
X210186025Y-100352992D01*
X210195938Y-100255814D01*
X210212175Y-100183925D01*
X210236759Y-100130852D01*
X210271715Y-100090127D01*
X210319064Y-100055279D01*
X210319940Y-100054733D01*
X210396499Y-100026303D01*
X210485044Y-100021500D01*
X210570458Y-100039228D01*
G37*
X210570458Y-100039228D02*
X210637622Y-100078389D01*
X210667169Y-100108902D01*
X210723948Y-100200110D01*
X210743077Y-100299548D01*
X210743077Y-100367960D01*
X210680191Y-100341518D01*
X210636700Y-100314837D01*
X210602426Y-100259446D01*
X210598907Y-100248024D01*
X210561028Y-100189838D01*
X210503936Y-100158407D01*
X210438383Y-100157058D01*
X210375117Y-100189116D01*
X210365672Y-100197383D01*
X210334087Y-100233311D01*
X210328871Y-100264635D01*
X210352765Y-100295391D01*
X210408510Y-100329617D01*
X210498846Y-100371350D01*
X210504956Y-100373993D01*
X210605241Y-100420755D01*
X210673735Y-100462181D01*
X210715899Y-100503542D01*
X210737193Y-100550111D01*
X210743077Y-100607160D01*
X210735366Y-100670408D01*
X210696430Y-100751364D01*
X210627932Y-100809522D01*
X210578388Y-100826983D01*
X210508469Y-100836537D01*
X210440575Y-100834496D01*
X210392093Y-100820082D01*
X210386943Y-100816493D01*
X210373267Y-100791416D01*
X210382757Y-100747218D01*
X210399246Y-100712527D01*
X210425687Y-100698084D01*
X210475834Y-100698803D01*
X210545453Y-100694660D01*
X210590943Y-100666054D01*
X210606308Y-100613104D01*
X210606294Y-100611582D01*
X210596983Y-100580845D01*
X210565311Y-100552643D01*
X210503731Y-100520136D01*
X210419986Y-100480998D01*
X210364518Y-100459706D01*
X210332497Y-100461079D01*
X210317534Y-100489203D01*
X210313242Y-100548170D01*
X210313231Y-100642068D01*
X210312752Y-100700031D01*
X210310556Y-100771612D01*
X210306986Y-100820606D01*
X210302491Y-100838769D01*
X210301290Y-100838646D01*
X210275319Y-100828802D01*
X210232305Y-100808028D01*
X210172859Y-100777287D01*
X210179923Y-100500298D01*
X210180414Y-100481928D01*
X210186025Y-100352992D01*
X210195938Y-100255814D01*
X210212175Y-100183925D01*
X210236759Y-100130852D01*
X210271715Y-100090127D01*
X210319064Y-100055279D01*
X210319940Y-100054733D01*
X210396499Y-100026303D01*
X210485044Y-100021500D01*
X210570458Y-100039228D01*
G36*
X212376372Y-99981684D02*
G01*
X212467629Y-100024569D01*
X212542416Y-100098729D01*
X212557917Y-100121944D01*
X212570774Y-100148256D01*
X212579893Y-100181420D01*
X212586102Y-100227881D01*
X212590233Y-100294082D01*
X212593116Y-100386468D01*
X212595579Y-100511485D01*
X212601697Y-100858278D01*
X212550303Y-100838738D01*
X212503246Y-100820787D01*
X212468015Y-100803511D01*
X212445017Y-100781242D01*
X212431655Y-100747165D01*
X212425328Y-100694463D01*
X212423437Y-100616323D01*
X212423385Y-100505928D01*
X212423117Y-100417935D01*
X212421521Y-100333502D01*
X212417712Y-100275834D01*
X212410820Y-100237988D01*
X212399975Y-100213024D01*
X212384308Y-100194000D01*
X212345792Y-100167153D01*
X212281091Y-100157034D01*
X212217081Y-100182606D01*
X212212856Y-100185880D01*
X212199689Y-100201007D01*
X212189975Y-100225268D01*
X212182903Y-100264650D01*
X212177656Y-100325141D01*
X212173421Y-100412729D01*
X212169385Y-100533402D01*
X212159615Y-100856515D01*
X211993539Y-100782065D01*
X211993539Y-100487062D01*
X211993883Y-100406919D01*
X211996847Y-100295431D01*
X212004351Y-100212421D01*
X212018190Y-100151199D01*
X212040155Y-100105075D01*
X212072039Y-100067358D01*
X212115633Y-100031358D01*
X212178336Y-99995089D01*
X212277117Y-99971412D01*
X212376372Y-99981684D01*
G37*
X212376372Y-99981684D02*
X212467629Y-100024569D01*
X212542416Y-100098729D01*
X212557917Y-100121944D01*
X212570774Y-100148256D01*
X212579893Y-100181420D01*
X212586102Y-100227881D01*
X212590233Y-100294082D01*
X212593116Y-100386468D01*
X212595579Y-100511485D01*
X212601697Y-100858278D01*
X212550303Y-100838738D01*
X212503246Y-100820787D01*
X212468015Y-100803511D01*
X212445017Y-100781242D01*
X212431655Y-100747165D01*
X212425328Y-100694463D01*
X212423437Y-100616323D01*
X212423385Y-100505928D01*
X212423117Y-100417935D01*
X212421521Y-100333502D01*
X212417712Y-100275834D01*
X212410820Y-100237988D01*
X212399975Y-100213024D01*
X212384308Y-100194000D01*
X212345792Y-100167153D01*
X212281091Y-100157034D01*
X212217081Y-100182606D01*
X212212856Y-100185880D01*
X212199689Y-100201007D01*
X212189975Y-100225268D01*
X212182903Y-100264650D01*
X212177656Y-100325141D01*
X212173421Y-100412729D01*
X212169385Y-100533402D01*
X212159615Y-100856515D01*
X211993539Y-100782065D01*
X211993539Y-100487062D01*
X211993883Y-100406919D01*
X211996847Y-100295431D01*
X212004351Y-100212421D01*
X212018190Y-100151199D01*
X212040155Y-100105075D01*
X212072039Y-100067358D01*
X212115633Y-100031358D01*
X212178336Y-99995089D01*
X212277117Y-99971412D01*
X212376372Y-99981684D01*
G36*
X211426923Y-99781806D02*
G01*
X211426923Y-100316455D01*
X211426660Y-100455094D01*
X211425958Y-100579805D01*
X211424883Y-100685557D01*
X211423500Y-100767322D01*
X211421874Y-100820069D01*
X211420070Y-100838769D01*
X211419364Y-100838706D01*
X211395387Y-100831912D01*
X211351685Y-100817320D01*
X211290154Y-100795870D01*
X211290154Y-100520617D01*
X211289763Y-100412466D01*
X211287946Y-100334026D01*
X211283767Y-100280647D01*
X211276286Y-100245256D01*
X211264567Y-100220779D01*
X211247671Y-100200144D01*
X211236152Y-100189170D01*
X211173864Y-100158775D01*
X211105211Y-100161466D01*
X211042298Y-100197406D01*
X211033139Y-100206325D01*
X211018471Y-100224844D01*
X211008433Y-100249326D01*
X211002151Y-100286393D01*
X210998748Y-100342667D01*
X210997349Y-100424771D01*
X210997077Y-100539329D01*
X210996947Y-100597430D01*
X210996099Y-100692993D01*
X210994594Y-100769526D01*
X210992585Y-100820345D01*
X210990223Y-100838769D01*
X210989518Y-100838706D01*
X210965541Y-100831912D01*
X210921839Y-100817320D01*
X210860308Y-100795870D01*
X210860338Y-100519358D01*
X210860384Y-100494742D01*
X210862970Y-100366419D01*
X210870913Y-100269384D01*
X210886155Y-100197057D01*
X210910636Y-100142855D01*
X210946298Y-100100198D01*
X210995082Y-100062505D01*
X211042661Y-100038910D01*
X211118732Y-100020672D01*
X211193556Y-100019636D01*
X211251077Y-100037378D01*
X211255402Y-100039829D01*
X211268738Y-100039566D01*
X211277851Y-100019039D01*
X211284428Y-99971980D01*
X211290154Y-99892120D01*
X211299923Y-99728236D01*
X211426923Y-99781806D01*
G37*
X211426923Y-99781806D02*
X211426923Y-100316455D01*
X211426660Y-100455094D01*
X211425958Y-100579805D01*
X211424883Y-100685557D01*
X211423500Y-100767322D01*
X211421874Y-100820069D01*
X211420070Y-100838769D01*
X211419364Y-100838706D01*
X211395387Y-100831912D01*
X211351685Y-100817320D01*
X211290154Y-100795870D01*
X211290154Y-100520617D01*
X211289763Y-100412466D01*
X211287946Y-100334026D01*
X211283767Y-100280647D01*
X211276286Y-100245256D01*
X211264567Y-100220779D01*
X211247671Y-100200144D01*
X211236152Y-100189170D01*
X211173864Y-100158775D01*
X211105211Y-100161466D01*
X211042298Y-100197406D01*
X211033139Y-100206325D01*
X211018471Y-100224844D01*
X211008433Y-100249326D01*
X211002151Y-100286393D01*
X210998748Y-100342667D01*
X210997349Y-100424771D01*
X210997077Y-100539329D01*
X210996947Y-100597430D01*
X210996099Y-100692993D01*
X210994594Y-100769526D01*
X210992585Y-100820345D01*
X210990223Y-100838769D01*
X210989518Y-100838706D01*
X210965541Y-100831912D01*
X210921839Y-100817320D01*
X210860308Y-100795870D01*
X210860338Y-100519358D01*
X210860384Y-100494742D01*
X210862970Y-100366419D01*
X210870913Y-100269384D01*
X210886155Y-100197057D01*
X210910636Y-100142855D01*
X210946298Y-100100198D01*
X210995082Y-100062505D01*
X211042661Y-100038910D01*
X211118732Y-100020672D01*
X211193556Y-100019636D01*
X211251077Y-100037378D01*
X211255402Y-100039829D01*
X211268738Y-100039566D01*
X211277851Y-100019039D01*
X211284428Y-99971980D01*
X211290154Y-99892120D01*
X211299923Y-99728236D01*
X211426923Y-99781806D01*
G36*
X207061501Y-100026476D02*
G01*
X207142167Y-100056440D01*
X207175714Y-100078954D01*
X207209687Y-100111212D01*
X207233919Y-100152246D01*
X207250001Y-100208108D01*
X207259521Y-100284851D01*
X207264068Y-100388525D01*
X207265231Y-100525184D01*
X207265003Y-100595805D01*
X207263860Y-100692308D01*
X207261919Y-100769323D01*
X207259365Y-100820319D01*
X207256381Y-100838769D01*
X207236962Y-100832667D01*
X207197766Y-100816095D01*
X207196589Y-100815558D01*
X207176235Y-100804903D01*
X207162546Y-100790282D01*
X207154199Y-100764673D01*
X207149874Y-100721054D01*
X207148248Y-100652403D01*
X207148000Y-100551698D01*
X207147500Y-100487813D01*
X207142164Y-100367751D01*
X207129945Y-100279809D01*
X207109552Y-100219375D01*
X207079695Y-100181836D01*
X207039082Y-100162581D01*
X207033448Y-100161239D01*
X206957378Y-100160191D01*
X206898052Y-100194271D01*
X206857077Y-100262598D01*
X206849770Y-100282351D01*
X206833114Y-100326066D01*
X206824679Y-100346155D01*
X206807356Y-100343387D01*
X206769525Y-100328365D01*
X206734240Y-100303556D01*
X206718154Y-100256670D01*
X206722952Y-100223087D01*
X206752431Y-100154967D01*
X206800098Y-100091134D01*
X206855839Y-100046988D01*
X206879193Y-100036782D01*
X206967619Y-100019718D01*
X207061501Y-100026476D01*
G37*
X207061501Y-100026476D02*
X207142167Y-100056440D01*
X207175714Y-100078954D01*
X207209687Y-100111212D01*
X207233919Y-100152246D01*
X207250001Y-100208108D01*
X207259521Y-100284851D01*
X207264068Y-100388525D01*
X207265231Y-100525184D01*
X207265003Y-100595805D01*
X207263860Y-100692308D01*
X207261919Y-100769323D01*
X207259365Y-100820319D01*
X207256381Y-100838769D01*
X207236962Y-100832667D01*
X207197766Y-100816095D01*
X207196589Y-100815558D01*
X207176235Y-100804903D01*
X207162546Y-100790282D01*
X207154199Y-100764673D01*
X207149874Y-100721054D01*
X207148248Y-100652403D01*
X207148000Y-100551698D01*
X207147500Y-100487813D01*
X207142164Y-100367751D01*
X207129945Y-100279809D01*
X207109552Y-100219375D01*
X207079695Y-100181836D01*
X207039082Y-100162581D01*
X207033448Y-100161239D01*
X206957378Y-100160191D01*
X206898052Y-100194271D01*
X206857077Y-100262598D01*
X206849770Y-100282351D01*
X206833114Y-100326066D01*
X206824679Y-100346155D01*
X206807356Y-100343387D01*
X206769525Y-100328365D01*
X206734240Y-100303556D01*
X206718154Y-100256670D01*
X206722952Y-100223087D01*
X206752431Y-100154967D01*
X206800098Y-100091134D01*
X206855839Y-100046988D01*
X206879193Y-100036782D01*
X206967619Y-100019718D01*
X207061501Y-100026476D01*
%TO.C,G\u002A\u002A\u002A*%
G36*
X230143067Y-61122267D02*
G01*
X230329334Y-61122267D01*
X230329334Y-61511734D01*
X230143067Y-61511734D01*
X230143067Y-61123883D01*
X230037234Y-61118842D01*
X229931400Y-61113801D01*
X229926764Y-60810249D01*
X229926289Y-60776561D01*
X229925591Y-60669218D01*
X229926782Y-60590950D01*
X229930063Y-60537999D01*
X229935635Y-60506604D01*
X229943697Y-60493008D01*
X229957244Y-60488114D01*
X229999396Y-60481687D01*
X230054167Y-60479060D01*
X230143067Y-60478801D01*
X230143067Y-61122267D01*
G37*
X230143067Y-61122267D02*
X230329334Y-61122267D01*
X230329334Y-61511734D01*
X230143067Y-61511734D01*
X230143067Y-61123883D01*
X230037234Y-61118842D01*
X229931400Y-61113801D01*
X229926764Y-60810249D01*
X229926289Y-60776561D01*
X229925591Y-60669218D01*
X229926782Y-60590950D01*
X229930063Y-60537999D01*
X229935635Y-60506604D01*
X229943697Y-60493008D01*
X229957244Y-60488114D01*
X229999396Y-60481687D01*
X230054167Y-60479060D01*
X230143067Y-60478801D01*
X230143067Y-61122267D01*
G36*
X234461067Y-61714934D02*
G01*
X235070667Y-61714934D01*
X235070667Y-61813712D01*
X235069537Y-61857102D01*
X235065298Y-61902101D01*
X235058992Y-61924164D01*
X235046055Y-61927033D01*
X235003713Y-61929857D01*
X234937804Y-61931587D01*
X234854113Y-61932087D01*
X234758425Y-61931220D01*
X234469533Y-61926600D01*
X234459451Y-61714934D01*
X234037733Y-61714934D01*
X234037733Y-61511734D01*
X234461067Y-61511734D01*
X234461067Y-61714934D01*
G37*
X234461067Y-61714934D02*
X235070667Y-61714934D01*
X235070667Y-61813712D01*
X235069537Y-61857102D01*
X235065298Y-61902101D01*
X235058992Y-61924164D01*
X235046055Y-61927033D01*
X235003713Y-61929857D01*
X234937804Y-61931587D01*
X234854113Y-61932087D01*
X234758425Y-61931220D01*
X234469533Y-61926600D01*
X234459451Y-61714934D01*
X234037733Y-61714934D01*
X234037733Y-61511734D01*
X234461067Y-61511734D01*
X234461067Y-61714934D01*
G36*
X233834533Y-57396934D02*
G01*
X233428134Y-57396934D01*
X233428134Y-56990534D01*
X233834533Y-56990534D01*
X233834533Y-57396934D01*
G37*
X233834533Y-57396934D02*
X233428134Y-57396934D01*
X233428134Y-56990534D01*
X233834533Y-56990534D01*
X233834533Y-57396934D01*
G36*
X236730133Y-56990534D02*
G01*
X236306800Y-56990534D01*
X236306800Y-56804267D01*
X236730133Y-56804267D01*
X236730133Y-56990534D01*
G37*
X236730133Y-56990534D02*
X236306800Y-56990534D01*
X236306800Y-56804267D01*
X236730133Y-56804267D01*
X236730133Y-56990534D01*
G36*
X228801929Y-55740880D02*
G01*
X228898467Y-55745934D01*
X228907681Y-56380934D01*
X229093200Y-56380934D01*
X229093200Y-56584134D01*
X229296400Y-56584134D01*
X229296400Y-56804267D01*
X229719734Y-56804267D01*
X229719734Y-56990534D01*
X229921859Y-56990534D01*
X229926629Y-57189500D01*
X229931400Y-57388467D01*
X231679767Y-57392780D01*
X233428134Y-57397092D01*
X233428134Y-57617067D01*
X232598400Y-57617067D01*
X232598400Y-57820267D01*
X232412133Y-57820267D01*
X232412133Y-58006534D01*
X231988800Y-58006534D01*
X231988800Y-58429867D01*
X230753709Y-58429867D01*
X230748955Y-58222434D01*
X230744200Y-58015001D01*
X230329334Y-58005491D01*
X230329334Y-57618142D01*
X230130367Y-57613371D01*
X229931400Y-57608601D01*
X229931400Y-57396872D01*
X229719734Y-57396934D01*
X229719734Y-56991576D01*
X229512300Y-56986822D01*
X229304867Y-56982067D01*
X229299777Y-56893987D01*
X229294687Y-56805906D01*
X229198177Y-56800853D01*
X229101667Y-56795801D01*
X229096625Y-56689967D01*
X229091584Y-56584134D01*
X228906934Y-56584134D01*
X228906934Y-56380934D01*
X228703734Y-56380934D01*
X228703734Y-57396934D01*
X228483233Y-57396934D01*
X228487650Y-56681501D01*
X228492067Y-55966067D01*
X228593667Y-55957601D01*
X228695267Y-55949134D01*
X228700329Y-55842480D01*
X228705392Y-55735827D01*
X228801929Y-55740880D01*
G37*
X228801929Y-55740880D02*
X228898467Y-55745934D01*
X228907681Y-56380934D01*
X229093200Y-56380934D01*
X229093200Y-56584134D01*
X229296400Y-56584134D01*
X229296400Y-56804267D01*
X229719734Y-56804267D01*
X229719734Y-56990534D01*
X229921859Y-56990534D01*
X229926629Y-57189500D01*
X229931400Y-57388467D01*
X231679767Y-57392780D01*
X233428134Y-57397092D01*
X233428134Y-57617067D01*
X232598400Y-57617067D01*
X232598400Y-57820267D01*
X232412133Y-57820267D01*
X232412133Y-58006534D01*
X231988800Y-58006534D01*
X231988800Y-58429867D01*
X230753709Y-58429867D01*
X230748955Y-58222434D01*
X230744200Y-58015001D01*
X230329334Y-58005491D01*
X230329334Y-57618142D01*
X230130367Y-57613371D01*
X229931400Y-57608601D01*
X229931400Y-57396872D01*
X229719734Y-57396934D01*
X229719734Y-56991576D01*
X229512300Y-56986822D01*
X229304867Y-56982067D01*
X229299777Y-56893987D01*
X229294687Y-56805906D01*
X229198177Y-56800853D01*
X229101667Y-56795801D01*
X229096625Y-56689967D01*
X229091584Y-56584134D01*
X228906934Y-56584134D01*
X228906934Y-56380934D01*
X228703734Y-56380934D01*
X228703734Y-57396934D01*
X228483233Y-57396934D01*
X228487650Y-56681501D01*
X228492067Y-55966067D01*
X228593667Y-55957601D01*
X228695267Y-55949134D01*
X228700329Y-55842480D01*
X228705392Y-55735827D01*
X228801929Y-55740880D01*
G36*
X229093200Y-58006534D02*
G01*
X228906934Y-58006534D01*
X228906934Y-57617067D01*
X229093200Y-57617067D01*
X229093200Y-58006534D01*
G37*
X229093200Y-58006534D02*
X228906934Y-58006534D01*
X228906934Y-57617067D01*
X229093200Y-57617067D01*
X229093200Y-58006534D01*
G36*
X234461067Y-55551201D02*
G01*
X234037733Y-55551201D01*
X234037733Y-55957601D01*
X233834533Y-55957601D01*
X233834533Y-55348001D01*
X234461067Y-55348001D01*
X234461067Y-55551201D01*
G37*
X234461067Y-55551201D02*
X234037733Y-55551201D01*
X234037733Y-55957601D01*
X233834533Y-55957601D01*
X233834533Y-55348001D01*
X234461067Y-55348001D01*
X234461067Y-55551201D01*
G36*
X234664267Y-55737467D02*
G01*
X235070667Y-55737467D01*
X235070667Y-55551201D01*
X235273867Y-55551201D01*
X235273867Y-55958382D01*
X234672733Y-55949134D01*
X234667692Y-55843300D01*
X234662651Y-55737467D01*
X234461067Y-55737467D01*
X234461067Y-55551201D01*
X234664267Y-55551201D01*
X234664267Y-55737467D01*
G37*
X234664267Y-55737467D02*
X235070667Y-55737467D01*
X235070667Y-55551201D01*
X235273867Y-55551201D01*
X235273867Y-55958382D01*
X234672733Y-55949134D01*
X234667692Y-55843300D01*
X234662651Y-55737467D01*
X234461067Y-55737467D01*
X234461067Y-55551201D01*
X234664267Y-55551201D01*
X234664267Y-55737467D01*
G36*
X235697200Y-55551201D02*
G01*
X235883467Y-55551201D01*
X235883467Y-56380934D01*
X236106608Y-56380934D01*
X236095134Y-56584196D01*
X236306800Y-56584134D01*
X236306800Y-56804267D01*
X236105216Y-56804267D01*
X236095134Y-56592601D01*
X235989300Y-56587559D01*
X235883467Y-56582518D01*
X235883467Y-56382704D01*
X235794567Y-56377585D01*
X235705667Y-56372467D01*
X235701132Y-55961834D01*
X235696598Y-55551201D01*
X235273867Y-55551201D01*
X235273867Y-55348001D01*
X235697200Y-55348001D01*
X235697200Y-55551201D01*
G37*
X235697200Y-55551201D02*
X235883467Y-55551201D01*
X235883467Y-56380934D01*
X236106608Y-56380934D01*
X236095134Y-56584196D01*
X236306800Y-56584134D01*
X236306800Y-56804267D01*
X236105216Y-56804267D01*
X236095134Y-56592601D01*
X235989300Y-56587559D01*
X235883467Y-56582518D01*
X235883467Y-56382704D01*
X235794567Y-56377585D01*
X235705667Y-56372467D01*
X235701132Y-55961834D01*
X235696598Y-55551201D01*
X235273867Y-55551201D01*
X235273867Y-55348001D01*
X235697200Y-55348001D01*
X235697200Y-55551201D01*
G36*
X229296400Y-61511734D02*
G01*
X229093200Y-61511734D01*
X229093200Y-61122267D01*
X229296400Y-61122267D01*
X229296400Y-61511734D01*
G37*
X229296400Y-61511734D02*
X229093200Y-61511734D01*
X229093200Y-61122267D01*
X229296400Y-61122267D01*
X229296400Y-61511734D01*
G36*
X235273867Y-61714934D02*
G01*
X235070667Y-61714934D01*
X235070667Y-61511734D01*
X235273867Y-61511734D01*
X235273867Y-61714934D01*
G37*
X235273867Y-61714934D02*
X235070667Y-61714934D01*
X235070667Y-61511734D01*
X235273867Y-61511734D01*
X235273867Y-61714934D01*
G36*
X235273867Y-56584134D02*
G01*
X235070667Y-56584134D01*
X235070667Y-56380934D01*
X235273867Y-56380934D01*
X235273867Y-56584134D01*
G37*
X235273867Y-56584134D02*
X235070667Y-56584134D01*
X235070667Y-56380934D01*
X235273867Y-56380934D01*
X235273867Y-56584134D01*
G36*
X229719734Y-61714934D02*
G01*
X230329334Y-61714934D01*
X230329334Y-61511734D01*
X230752667Y-61511734D01*
X230752667Y-61714934D01*
X230330950Y-61714934D01*
X230325908Y-61820767D01*
X230320867Y-61926600D01*
X229728200Y-61926600D01*
X229723159Y-61820767D01*
X229718117Y-61714934D01*
X229296400Y-61714934D01*
X229296400Y-61511734D01*
X229719734Y-61511734D01*
X229719734Y-61714934D01*
G37*
X229719734Y-61714934D02*
X230329334Y-61714934D01*
X230329334Y-61511734D01*
X230752667Y-61511734D01*
X230752667Y-61714934D01*
X230330950Y-61714934D01*
X230325908Y-61820767D01*
X230320867Y-61926600D01*
X229728200Y-61926600D01*
X229723159Y-61820767D01*
X229718117Y-61714934D01*
X229296400Y-61714934D01*
X229296400Y-61511734D01*
X229719734Y-61511734D01*
X229719734Y-61714934D01*
G36*
X234037733Y-61511734D02*
G01*
X233834533Y-61511734D01*
X233834533Y-61122267D01*
X234037733Y-61122267D01*
X234037733Y-61511734D01*
G37*
X234037733Y-61511734D02*
X233834533Y-61511734D01*
X233834533Y-61122267D01*
X234037733Y-61122267D01*
X234037733Y-61511734D01*
G36*
X236933333Y-57617067D02*
G01*
X236730133Y-57617067D01*
X236730133Y-56990534D01*
X236933333Y-56990534D01*
X236933333Y-57617067D01*
G37*
X236933333Y-57617067D02*
X236730133Y-57617067D01*
X236730133Y-56990534D01*
X236933333Y-56990534D01*
X236933333Y-57617067D01*
G36*
X229296400Y-59462800D02*
G01*
X229093200Y-59462800D01*
X229093200Y-58006534D01*
X229296400Y-58006534D01*
X229296400Y-59462800D01*
G37*
X229296400Y-59462800D02*
X229093200Y-59462800D01*
X229093200Y-58006534D01*
X229296400Y-58006534D01*
X229296400Y-59462800D01*
G36*
X228906934Y-57617067D02*
G01*
X228703734Y-57617067D01*
X228703734Y-57396934D01*
X228906934Y-57396934D01*
X228906934Y-57617067D01*
G37*
X228906934Y-57617067D02*
X228703734Y-57617067D01*
X228703734Y-57396934D01*
X228906934Y-57396934D01*
X228906934Y-57617067D01*
G36*
X236730133Y-57820267D02*
G01*
X235071448Y-57820267D01*
X235062200Y-58421401D01*
X234850534Y-58431483D01*
X234850534Y-61122267D01*
X235070667Y-61122267D01*
X235070667Y-61511734D01*
X234850534Y-61511734D01*
X234850534Y-61124037D01*
X234761633Y-61118919D01*
X234672733Y-61113801D01*
X234663903Y-59666001D01*
X234461067Y-59666001D01*
X234461067Y-59462800D01*
X234037733Y-59462800D01*
X234037733Y-58651043D01*
X234245167Y-58646288D01*
X234452600Y-58641534D01*
X234457642Y-58535701D01*
X234462683Y-58429867D01*
X234849752Y-58429867D01*
X234854376Y-58129301D01*
X234859000Y-57828734D01*
X234964834Y-57823692D01*
X235070667Y-57818651D01*
X235070667Y-57617067D01*
X236730133Y-57617067D01*
X236730133Y-57820267D01*
G37*
X236730133Y-57820267D02*
X235071448Y-57820267D01*
X235062200Y-58421401D01*
X234850534Y-58431483D01*
X234850534Y-61122267D01*
X235070667Y-61122267D01*
X235070667Y-61511734D01*
X234850534Y-61511734D01*
X234850534Y-61124037D01*
X234761633Y-61118919D01*
X234672733Y-61113801D01*
X234663903Y-59666001D01*
X234461067Y-59666001D01*
X234461067Y-59462800D01*
X234037733Y-59462800D01*
X234037733Y-58651043D01*
X234245167Y-58646288D01*
X234452600Y-58641534D01*
X234457642Y-58535701D01*
X234462683Y-58429867D01*
X234849752Y-58429867D01*
X234854376Y-58129301D01*
X234859000Y-57828734D01*
X234964834Y-57823692D01*
X235070667Y-57818651D01*
X235070667Y-57617067D01*
X236730133Y-57617067D01*
X236730133Y-57820267D01*
G36*
X234457129Y-56376700D02*
G01*
X234452600Y-56795801D01*
X234245167Y-56800555D01*
X234037733Y-56805310D01*
X234037733Y-56990534D01*
X233834533Y-56990534D01*
X233834533Y-56804267D01*
X234037733Y-56804267D01*
X234037733Y-55957601D01*
X234461658Y-55957601D01*
X234457129Y-56376700D01*
G37*
X234457129Y-56376700D02*
X234452600Y-56795801D01*
X234245167Y-56800555D01*
X234037733Y-56805310D01*
X234037733Y-56990534D01*
X233834533Y-56990534D01*
X233834533Y-56804267D01*
X234037733Y-56804267D01*
X234037733Y-55957601D01*
X234461658Y-55957601D01*
X234457129Y-56376700D01*
G36*
X233622867Y-59674467D02*
G01*
X233627945Y-59771834D01*
X233633024Y-59869201D01*
X233834533Y-59869201D01*
X233834533Y-61122267D01*
X233631334Y-61122267D01*
X233631334Y-59869201D01*
X230752667Y-59869201D01*
X230752667Y-60089334D01*
X230329334Y-60089334D01*
X230329334Y-60478801D01*
X230143067Y-60478801D01*
X230143067Y-60089334D01*
X230327717Y-60089334D01*
X230332759Y-59983501D01*
X230337800Y-59877667D01*
X230545233Y-59872913D01*
X230752667Y-59868158D01*
X230752667Y-59665809D01*
X233622867Y-59674467D01*
G37*
X233622867Y-59674467D02*
X233627945Y-59771834D01*
X233633024Y-59869201D01*
X233834533Y-59869201D01*
X233834533Y-61122267D01*
X233631334Y-61122267D01*
X233631334Y-59869201D01*
X230752667Y-59869201D01*
X230752667Y-60089334D01*
X230329334Y-60089334D01*
X230329334Y-60478801D01*
X230143067Y-60478801D01*
X230143067Y-60089334D01*
X230327717Y-60089334D01*
X230332759Y-59983501D01*
X230337800Y-59877667D01*
X230545233Y-59872913D01*
X230752667Y-59868158D01*
X230752667Y-59665809D01*
X233622867Y-59674467D01*
G36*
X229093200Y-61122267D02*
G01*
X228906934Y-61122267D01*
X228906934Y-59462800D01*
X229093200Y-59462800D01*
X229093200Y-61122267D01*
G37*
X229093200Y-61122267D02*
X228906934Y-61122267D01*
X228906934Y-59462800D01*
X229093200Y-59462800D01*
X229093200Y-61122267D01*
G36*
X186043067Y-61122267D02*
G01*
X186229334Y-61122267D01*
X186229334Y-61511734D01*
X186043067Y-61511734D01*
X186043067Y-61123883D01*
X185937234Y-61118842D01*
X185831400Y-61113801D01*
X185826764Y-60810249D01*
X185826289Y-60776561D01*
X185825591Y-60669218D01*
X185826782Y-60590950D01*
X185830063Y-60537999D01*
X185835635Y-60506604D01*
X185843697Y-60493008D01*
X185857244Y-60488114D01*
X185899396Y-60481687D01*
X185954167Y-60479060D01*
X186043067Y-60478801D01*
X186043067Y-61122267D01*
G37*
X186043067Y-61122267D02*
X186229334Y-61122267D01*
X186229334Y-61511734D01*
X186043067Y-61511734D01*
X186043067Y-61123883D01*
X185937234Y-61118842D01*
X185831400Y-61113801D01*
X185826764Y-60810249D01*
X185826289Y-60776561D01*
X185825591Y-60669218D01*
X185826782Y-60590950D01*
X185830063Y-60537999D01*
X185835635Y-60506604D01*
X185843697Y-60493008D01*
X185857244Y-60488114D01*
X185899396Y-60481687D01*
X185954167Y-60479060D01*
X186043067Y-60478801D01*
X186043067Y-61122267D01*
G36*
X190361067Y-61714934D02*
G01*
X190970667Y-61714934D01*
X190970667Y-61813712D01*
X190969537Y-61857102D01*
X190965298Y-61902101D01*
X190958992Y-61924164D01*
X190946055Y-61927033D01*
X190903713Y-61929857D01*
X190837804Y-61931587D01*
X190754113Y-61932087D01*
X190658425Y-61931220D01*
X190369533Y-61926600D01*
X190359451Y-61714934D01*
X189937733Y-61714934D01*
X189937733Y-61511734D01*
X190361067Y-61511734D01*
X190361067Y-61714934D01*
G37*
X190361067Y-61714934D02*
X190970667Y-61714934D01*
X190970667Y-61813712D01*
X190969537Y-61857102D01*
X190965298Y-61902101D01*
X190958992Y-61924164D01*
X190946055Y-61927033D01*
X190903713Y-61929857D01*
X190837804Y-61931587D01*
X190754113Y-61932087D01*
X190658425Y-61931220D01*
X190369533Y-61926600D01*
X190359451Y-61714934D01*
X189937733Y-61714934D01*
X189937733Y-61511734D01*
X190361067Y-61511734D01*
X190361067Y-61714934D01*
G36*
X189734533Y-57396934D02*
G01*
X189328134Y-57396934D01*
X189328134Y-56990534D01*
X189734533Y-56990534D01*
X189734533Y-57396934D01*
G37*
X189734533Y-57396934D02*
X189328134Y-57396934D01*
X189328134Y-56990534D01*
X189734533Y-56990534D01*
X189734533Y-57396934D01*
G36*
X192630133Y-56990534D02*
G01*
X192206800Y-56990534D01*
X192206800Y-56804267D01*
X192630133Y-56804267D01*
X192630133Y-56990534D01*
G37*
X192630133Y-56990534D02*
X192206800Y-56990534D01*
X192206800Y-56804267D01*
X192630133Y-56804267D01*
X192630133Y-56990534D01*
G36*
X184701929Y-55740880D02*
G01*
X184798467Y-55745934D01*
X184807681Y-56380934D01*
X184993200Y-56380934D01*
X184993200Y-56584134D01*
X185196400Y-56584134D01*
X185196400Y-56804267D01*
X185619734Y-56804267D01*
X185619734Y-56990534D01*
X185821859Y-56990534D01*
X185826629Y-57189500D01*
X185831400Y-57388467D01*
X187579767Y-57392780D01*
X189328134Y-57397092D01*
X189328134Y-57617067D01*
X188498400Y-57617067D01*
X188498400Y-57820267D01*
X188312133Y-57820267D01*
X188312133Y-58006534D01*
X187888800Y-58006534D01*
X187888800Y-58429867D01*
X186653709Y-58429867D01*
X186648955Y-58222434D01*
X186644200Y-58015001D01*
X186229334Y-58005491D01*
X186229334Y-57618142D01*
X186030367Y-57613371D01*
X185831400Y-57608601D01*
X185831400Y-57396872D01*
X185619734Y-57396934D01*
X185619734Y-56991576D01*
X185412300Y-56986822D01*
X185204867Y-56982067D01*
X185199777Y-56893987D01*
X185194687Y-56805906D01*
X185098177Y-56800853D01*
X185001667Y-56795801D01*
X184996625Y-56689967D01*
X184991584Y-56584134D01*
X184806934Y-56584134D01*
X184806934Y-56380934D01*
X184603734Y-56380934D01*
X184603734Y-57396934D01*
X184383233Y-57396934D01*
X184387650Y-56681501D01*
X184392067Y-55966067D01*
X184493667Y-55957601D01*
X184595267Y-55949134D01*
X184600329Y-55842480D01*
X184605392Y-55735827D01*
X184701929Y-55740880D01*
G37*
X184701929Y-55740880D02*
X184798467Y-55745934D01*
X184807681Y-56380934D01*
X184993200Y-56380934D01*
X184993200Y-56584134D01*
X185196400Y-56584134D01*
X185196400Y-56804267D01*
X185619734Y-56804267D01*
X185619734Y-56990534D01*
X185821859Y-56990534D01*
X185826629Y-57189500D01*
X185831400Y-57388467D01*
X187579767Y-57392780D01*
X189328134Y-57397092D01*
X189328134Y-57617067D01*
X188498400Y-57617067D01*
X188498400Y-57820267D01*
X188312133Y-57820267D01*
X188312133Y-58006534D01*
X187888800Y-58006534D01*
X187888800Y-58429867D01*
X186653709Y-58429867D01*
X186648955Y-58222434D01*
X186644200Y-58015001D01*
X186229334Y-58005491D01*
X186229334Y-57618142D01*
X186030367Y-57613371D01*
X185831400Y-57608601D01*
X185831400Y-57396872D01*
X185619734Y-57396934D01*
X185619734Y-56991576D01*
X185412300Y-56986822D01*
X185204867Y-56982067D01*
X185199777Y-56893987D01*
X185194687Y-56805906D01*
X185098177Y-56800853D01*
X185001667Y-56795801D01*
X184996625Y-56689967D01*
X184991584Y-56584134D01*
X184806934Y-56584134D01*
X184806934Y-56380934D01*
X184603734Y-56380934D01*
X184603734Y-57396934D01*
X184383233Y-57396934D01*
X184387650Y-56681501D01*
X184392067Y-55966067D01*
X184493667Y-55957601D01*
X184595267Y-55949134D01*
X184600329Y-55842480D01*
X184605392Y-55735827D01*
X184701929Y-55740880D01*
G36*
X184993200Y-58006534D02*
G01*
X184806934Y-58006534D01*
X184806934Y-57617067D01*
X184993200Y-57617067D01*
X184993200Y-58006534D01*
G37*
X184993200Y-58006534D02*
X184806934Y-58006534D01*
X184806934Y-57617067D01*
X184993200Y-57617067D01*
X184993200Y-58006534D01*
G36*
X190361067Y-55551201D02*
G01*
X189937733Y-55551201D01*
X189937733Y-55957601D01*
X189734533Y-55957601D01*
X189734533Y-55348001D01*
X190361067Y-55348001D01*
X190361067Y-55551201D01*
G37*
X190361067Y-55551201D02*
X189937733Y-55551201D01*
X189937733Y-55957601D01*
X189734533Y-55957601D01*
X189734533Y-55348001D01*
X190361067Y-55348001D01*
X190361067Y-55551201D01*
G36*
X190564267Y-55737467D02*
G01*
X190970667Y-55737467D01*
X190970667Y-55551201D01*
X191173867Y-55551201D01*
X191173867Y-55958382D01*
X190572733Y-55949134D01*
X190567692Y-55843300D01*
X190562651Y-55737467D01*
X190361067Y-55737467D01*
X190361067Y-55551201D01*
X190564267Y-55551201D01*
X190564267Y-55737467D01*
G37*
X190564267Y-55737467D02*
X190970667Y-55737467D01*
X190970667Y-55551201D01*
X191173867Y-55551201D01*
X191173867Y-55958382D01*
X190572733Y-55949134D01*
X190567692Y-55843300D01*
X190562651Y-55737467D01*
X190361067Y-55737467D01*
X190361067Y-55551201D01*
X190564267Y-55551201D01*
X190564267Y-55737467D01*
G36*
X191597200Y-55551201D02*
G01*
X191783467Y-55551201D01*
X191783467Y-56380934D01*
X192006608Y-56380934D01*
X191995134Y-56584196D01*
X192206800Y-56584134D01*
X192206800Y-56804267D01*
X192005216Y-56804267D01*
X191995134Y-56592601D01*
X191889300Y-56587559D01*
X191783467Y-56582518D01*
X191783467Y-56382704D01*
X191694567Y-56377585D01*
X191605667Y-56372467D01*
X191601132Y-55961834D01*
X191596598Y-55551201D01*
X191173867Y-55551201D01*
X191173867Y-55348001D01*
X191597200Y-55348001D01*
X191597200Y-55551201D01*
G37*
X191597200Y-55551201D02*
X191783467Y-55551201D01*
X191783467Y-56380934D01*
X192006608Y-56380934D01*
X191995134Y-56584196D01*
X192206800Y-56584134D01*
X192206800Y-56804267D01*
X192005216Y-56804267D01*
X191995134Y-56592601D01*
X191889300Y-56587559D01*
X191783467Y-56582518D01*
X191783467Y-56382704D01*
X191694567Y-56377585D01*
X191605667Y-56372467D01*
X191601132Y-55961834D01*
X191596598Y-55551201D01*
X191173867Y-55551201D01*
X191173867Y-55348001D01*
X191597200Y-55348001D01*
X191597200Y-55551201D01*
G36*
X185196400Y-61511734D02*
G01*
X184993200Y-61511734D01*
X184993200Y-61122267D01*
X185196400Y-61122267D01*
X185196400Y-61511734D01*
G37*
X185196400Y-61511734D02*
X184993200Y-61511734D01*
X184993200Y-61122267D01*
X185196400Y-61122267D01*
X185196400Y-61511734D01*
G36*
X191173867Y-61714934D02*
G01*
X190970667Y-61714934D01*
X190970667Y-61511734D01*
X191173867Y-61511734D01*
X191173867Y-61714934D01*
G37*
X191173867Y-61714934D02*
X190970667Y-61714934D01*
X190970667Y-61511734D01*
X191173867Y-61511734D01*
X191173867Y-61714934D01*
G36*
X191173867Y-56584134D02*
G01*
X190970667Y-56584134D01*
X190970667Y-56380934D01*
X191173867Y-56380934D01*
X191173867Y-56584134D01*
G37*
X191173867Y-56584134D02*
X190970667Y-56584134D01*
X190970667Y-56380934D01*
X191173867Y-56380934D01*
X191173867Y-56584134D01*
G36*
X185619734Y-61714934D02*
G01*
X186229334Y-61714934D01*
X186229334Y-61511734D01*
X186652667Y-61511734D01*
X186652667Y-61714934D01*
X186230950Y-61714934D01*
X186225908Y-61820767D01*
X186220867Y-61926600D01*
X185628200Y-61926600D01*
X185623159Y-61820767D01*
X185618117Y-61714934D01*
X185196400Y-61714934D01*
X185196400Y-61511734D01*
X185619734Y-61511734D01*
X185619734Y-61714934D01*
G37*
X185619734Y-61714934D02*
X186229334Y-61714934D01*
X186229334Y-61511734D01*
X186652667Y-61511734D01*
X186652667Y-61714934D01*
X186230950Y-61714934D01*
X186225908Y-61820767D01*
X186220867Y-61926600D01*
X185628200Y-61926600D01*
X185623159Y-61820767D01*
X185618117Y-61714934D01*
X185196400Y-61714934D01*
X185196400Y-61511734D01*
X185619734Y-61511734D01*
X185619734Y-61714934D01*
G36*
X189937733Y-61511734D02*
G01*
X189734533Y-61511734D01*
X189734533Y-61122267D01*
X189937733Y-61122267D01*
X189937733Y-61511734D01*
G37*
X189937733Y-61511734D02*
X189734533Y-61511734D01*
X189734533Y-61122267D01*
X189937733Y-61122267D01*
X189937733Y-61511734D01*
G36*
X192833333Y-57617067D02*
G01*
X192630133Y-57617067D01*
X192630133Y-56990534D01*
X192833333Y-56990534D01*
X192833333Y-57617067D01*
G37*
X192833333Y-57617067D02*
X192630133Y-57617067D01*
X192630133Y-56990534D01*
X192833333Y-56990534D01*
X192833333Y-57617067D01*
G36*
X185196400Y-59462800D02*
G01*
X184993200Y-59462800D01*
X184993200Y-58006534D01*
X185196400Y-58006534D01*
X185196400Y-59462800D01*
G37*
X185196400Y-59462800D02*
X184993200Y-59462800D01*
X184993200Y-58006534D01*
X185196400Y-58006534D01*
X185196400Y-59462800D01*
G36*
X184806934Y-57617067D02*
G01*
X184603734Y-57617067D01*
X184603734Y-57396934D01*
X184806934Y-57396934D01*
X184806934Y-57617067D01*
G37*
X184806934Y-57617067D02*
X184603734Y-57617067D01*
X184603734Y-57396934D01*
X184806934Y-57396934D01*
X184806934Y-57617067D01*
G36*
X192630133Y-57820267D02*
G01*
X190971448Y-57820267D01*
X190962200Y-58421401D01*
X190750534Y-58431483D01*
X190750534Y-61122267D01*
X190970667Y-61122267D01*
X190970667Y-61511734D01*
X190750534Y-61511734D01*
X190750534Y-61124037D01*
X190661633Y-61118919D01*
X190572733Y-61113801D01*
X190563903Y-59666001D01*
X190361067Y-59666001D01*
X190361067Y-59462800D01*
X189937733Y-59462800D01*
X189937733Y-58651043D01*
X190145167Y-58646288D01*
X190352600Y-58641534D01*
X190357642Y-58535701D01*
X190362683Y-58429867D01*
X190749752Y-58429867D01*
X190754376Y-58129301D01*
X190759000Y-57828734D01*
X190864834Y-57823692D01*
X190970667Y-57818651D01*
X190970667Y-57617067D01*
X192630133Y-57617067D01*
X192630133Y-57820267D01*
G37*
X192630133Y-57820267D02*
X190971448Y-57820267D01*
X190962200Y-58421401D01*
X190750534Y-58431483D01*
X190750534Y-61122267D01*
X190970667Y-61122267D01*
X190970667Y-61511734D01*
X190750534Y-61511734D01*
X190750534Y-61124037D01*
X190661633Y-61118919D01*
X190572733Y-61113801D01*
X190563903Y-59666001D01*
X190361067Y-59666001D01*
X190361067Y-59462800D01*
X189937733Y-59462800D01*
X189937733Y-58651043D01*
X190145167Y-58646288D01*
X190352600Y-58641534D01*
X190357642Y-58535701D01*
X190362683Y-58429867D01*
X190749752Y-58429867D01*
X190754376Y-58129301D01*
X190759000Y-57828734D01*
X190864834Y-57823692D01*
X190970667Y-57818651D01*
X190970667Y-57617067D01*
X192630133Y-57617067D01*
X192630133Y-57820267D01*
G36*
X190357129Y-56376700D02*
G01*
X190352600Y-56795801D01*
X190145167Y-56800555D01*
X189937733Y-56805310D01*
X189937733Y-56990534D01*
X189734533Y-56990534D01*
X189734533Y-56804267D01*
X189937733Y-56804267D01*
X189937733Y-55957601D01*
X190361658Y-55957601D01*
X190357129Y-56376700D01*
G37*
X190357129Y-56376700D02*
X190352600Y-56795801D01*
X190145167Y-56800555D01*
X189937733Y-56805310D01*
X189937733Y-56990534D01*
X189734533Y-56990534D01*
X189734533Y-56804267D01*
X189937733Y-56804267D01*
X189937733Y-55957601D01*
X190361658Y-55957601D01*
X190357129Y-56376700D01*
G36*
X189522867Y-59674467D02*
G01*
X189527945Y-59771834D01*
X189533024Y-59869201D01*
X189734533Y-59869201D01*
X189734533Y-61122267D01*
X189531334Y-61122267D01*
X189531334Y-59869201D01*
X186652667Y-59869201D01*
X186652667Y-60089334D01*
X186229334Y-60089334D01*
X186229334Y-60478801D01*
X186043067Y-60478801D01*
X186043067Y-60089334D01*
X186227717Y-60089334D01*
X186232759Y-59983501D01*
X186237800Y-59877667D01*
X186445233Y-59872913D01*
X186652667Y-59868158D01*
X186652667Y-59665809D01*
X189522867Y-59674467D01*
G37*
X189522867Y-59674467D02*
X189527945Y-59771834D01*
X189533024Y-59869201D01*
X189734533Y-59869201D01*
X189734533Y-61122267D01*
X189531334Y-61122267D01*
X189531334Y-59869201D01*
X186652667Y-59869201D01*
X186652667Y-60089334D01*
X186229334Y-60089334D01*
X186229334Y-60478801D01*
X186043067Y-60478801D01*
X186043067Y-60089334D01*
X186227717Y-60089334D01*
X186232759Y-59983501D01*
X186237800Y-59877667D01*
X186445233Y-59872913D01*
X186652667Y-59868158D01*
X186652667Y-59665809D01*
X189522867Y-59674467D01*
G36*
X184993200Y-61122267D02*
G01*
X184806934Y-61122267D01*
X184806934Y-59462800D01*
X184993200Y-59462800D01*
X184993200Y-61122267D01*
G37*
X184993200Y-61122267D02*
X184806934Y-61122267D01*
X184806934Y-59462800D01*
X184993200Y-59462800D01*
X184993200Y-61122267D01*
G36*
X197068067Y-61122267D02*
G01*
X197254334Y-61122267D01*
X197254334Y-61511734D01*
X197068067Y-61511734D01*
X197068067Y-61123883D01*
X196962234Y-61118842D01*
X196856400Y-61113801D01*
X196851764Y-60810249D01*
X196851289Y-60776561D01*
X196850591Y-60669218D01*
X196851782Y-60590950D01*
X196855063Y-60537999D01*
X196860635Y-60506604D01*
X196868697Y-60493008D01*
X196882244Y-60488114D01*
X196924396Y-60481687D01*
X196979167Y-60479060D01*
X197068067Y-60478801D01*
X197068067Y-61122267D01*
G37*
X197068067Y-61122267D02*
X197254334Y-61122267D01*
X197254334Y-61511734D01*
X197068067Y-61511734D01*
X197068067Y-61123883D01*
X196962234Y-61118842D01*
X196856400Y-61113801D01*
X196851764Y-60810249D01*
X196851289Y-60776561D01*
X196850591Y-60669218D01*
X196851782Y-60590950D01*
X196855063Y-60537999D01*
X196860635Y-60506604D01*
X196868697Y-60493008D01*
X196882244Y-60488114D01*
X196924396Y-60481687D01*
X196979167Y-60479060D01*
X197068067Y-60478801D01*
X197068067Y-61122267D01*
G36*
X201386067Y-61714934D02*
G01*
X201995667Y-61714934D01*
X201995667Y-61813712D01*
X201994537Y-61857102D01*
X201990298Y-61902101D01*
X201983992Y-61924164D01*
X201971055Y-61927033D01*
X201928713Y-61929857D01*
X201862804Y-61931587D01*
X201779113Y-61932087D01*
X201683425Y-61931220D01*
X201394533Y-61926600D01*
X201384451Y-61714934D01*
X200962733Y-61714934D01*
X200962733Y-61511734D01*
X201386067Y-61511734D01*
X201386067Y-61714934D01*
G37*
X201386067Y-61714934D02*
X201995667Y-61714934D01*
X201995667Y-61813712D01*
X201994537Y-61857102D01*
X201990298Y-61902101D01*
X201983992Y-61924164D01*
X201971055Y-61927033D01*
X201928713Y-61929857D01*
X201862804Y-61931587D01*
X201779113Y-61932087D01*
X201683425Y-61931220D01*
X201394533Y-61926600D01*
X201384451Y-61714934D01*
X200962733Y-61714934D01*
X200962733Y-61511734D01*
X201386067Y-61511734D01*
X201386067Y-61714934D01*
G36*
X200759533Y-57396934D02*
G01*
X200353134Y-57396934D01*
X200353134Y-56990534D01*
X200759533Y-56990534D01*
X200759533Y-57396934D01*
G37*
X200759533Y-57396934D02*
X200353134Y-57396934D01*
X200353134Y-56990534D01*
X200759533Y-56990534D01*
X200759533Y-57396934D01*
G36*
X203655133Y-56990534D02*
G01*
X203231800Y-56990534D01*
X203231800Y-56804267D01*
X203655133Y-56804267D01*
X203655133Y-56990534D01*
G37*
X203655133Y-56990534D02*
X203231800Y-56990534D01*
X203231800Y-56804267D01*
X203655133Y-56804267D01*
X203655133Y-56990534D01*
G36*
X195726929Y-55740880D02*
G01*
X195823467Y-55745934D01*
X195832681Y-56380934D01*
X196018200Y-56380934D01*
X196018200Y-56584134D01*
X196221400Y-56584134D01*
X196221400Y-56804267D01*
X196644734Y-56804267D01*
X196644734Y-56990534D01*
X196846859Y-56990534D01*
X196851629Y-57189500D01*
X196856400Y-57388467D01*
X198604767Y-57392780D01*
X200353134Y-57397092D01*
X200353134Y-57617067D01*
X199523400Y-57617067D01*
X199523400Y-57820267D01*
X199337133Y-57820267D01*
X199337133Y-58006534D01*
X198913800Y-58006534D01*
X198913800Y-58429867D01*
X197678709Y-58429867D01*
X197673955Y-58222434D01*
X197669200Y-58015001D01*
X197254334Y-58005491D01*
X197254334Y-57618142D01*
X197055367Y-57613371D01*
X196856400Y-57608601D01*
X196856400Y-57396872D01*
X196644734Y-57396934D01*
X196644734Y-56991576D01*
X196437300Y-56986822D01*
X196229867Y-56982067D01*
X196224777Y-56893987D01*
X196219687Y-56805906D01*
X196123177Y-56800853D01*
X196026667Y-56795801D01*
X196021625Y-56689967D01*
X196016584Y-56584134D01*
X195831934Y-56584134D01*
X195831934Y-56380934D01*
X195628734Y-56380934D01*
X195628734Y-57396934D01*
X195408233Y-57396934D01*
X195412650Y-56681501D01*
X195417067Y-55966067D01*
X195518667Y-55957601D01*
X195620267Y-55949134D01*
X195625329Y-55842480D01*
X195630392Y-55735827D01*
X195726929Y-55740880D01*
G37*
X195726929Y-55740880D02*
X195823467Y-55745934D01*
X195832681Y-56380934D01*
X196018200Y-56380934D01*
X196018200Y-56584134D01*
X196221400Y-56584134D01*
X196221400Y-56804267D01*
X196644734Y-56804267D01*
X196644734Y-56990534D01*
X196846859Y-56990534D01*
X196851629Y-57189500D01*
X196856400Y-57388467D01*
X198604767Y-57392780D01*
X200353134Y-57397092D01*
X200353134Y-57617067D01*
X199523400Y-57617067D01*
X199523400Y-57820267D01*
X199337133Y-57820267D01*
X199337133Y-58006534D01*
X198913800Y-58006534D01*
X198913800Y-58429867D01*
X197678709Y-58429867D01*
X197673955Y-58222434D01*
X197669200Y-58015001D01*
X197254334Y-58005491D01*
X197254334Y-57618142D01*
X197055367Y-57613371D01*
X196856400Y-57608601D01*
X196856400Y-57396872D01*
X196644734Y-57396934D01*
X196644734Y-56991576D01*
X196437300Y-56986822D01*
X196229867Y-56982067D01*
X196224777Y-56893987D01*
X196219687Y-56805906D01*
X196123177Y-56800853D01*
X196026667Y-56795801D01*
X196021625Y-56689967D01*
X196016584Y-56584134D01*
X195831934Y-56584134D01*
X195831934Y-56380934D01*
X195628734Y-56380934D01*
X195628734Y-57396934D01*
X195408233Y-57396934D01*
X195412650Y-56681501D01*
X195417067Y-55966067D01*
X195518667Y-55957601D01*
X195620267Y-55949134D01*
X195625329Y-55842480D01*
X195630392Y-55735827D01*
X195726929Y-55740880D01*
G36*
X196018200Y-58006534D02*
G01*
X195831934Y-58006534D01*
X195831934Y-57617067D01*
X196018200Y-57617067D01*
X196018200Y-58006534D01*
G37*
X196018200Y-58006534D02*
X195831934Y-58006534D01*
X195831934Y-57617067D01*
X196018200Y-57617067D01*
X196018200Y-58006534D01*
G36*
X201386067Y-55551201D02*
G01*
X200962733Y-55551201D01*
X200962733Y-55957601D01*
X200759533Y-55957601D01*
X200759533Y-55348001D01*
X201386067Y-55348001D01*
X201386067Y-55551201D01*
G37*
X201386067Y-55551201D02*
X200962733Y-55551201D01*
X200962733Y-55957601D01*
X200759533Y-55957601D01*
X200759533Y-55348001D01*
X201386067Y-55348001D01*
X201386067Y-55551201D01*
G36*
X201589267Y-55737467D02*
G01*
X201995667Y-55737467D01*
X201995667Y-55551201D01*
X202198867Y-55551201D01*
X202198867Y-55958382D01*
X201597733Y-55949134D01*
X201592692Y-55843300D01*
X201587651Y-55737467D01*
X201386067Y-55737467D01*
X201386067Y-55551201D01*
X201589267Y-55551201D01*
X201589267Y-55737467D01*
G37*
X201589267Y-55737467D02*
X201995667Y-55737467D01*
X201995667Y-55551201D01*
X202198867Y-55551201D01*
X202198867Y-55958382D01*
X201597733Y-55949134D01*
X201592692Y-55843300D01*
X201587651Y-55737467D01*
X201386067Y-55737467D01*
X201386067Y-55551201D01*
X201589267Y-55551201D01*
X201589267Y-55737467D01*
G36*
X202622200Y-55551201D02*
G01*
X202808467Y-55551201D01*
X202808467Y-56380934D01*
X203031608Y-56380934D01*
X203020134Y-56584196D01*
X203231800Y-56584134D01*
X203231800Y-56804267D01*
X203030216Y-56804267D01*
X203020134Y-56592601D01*
X202914300Y-56587559D01*
X202808467Y-56582518D01*
X202808467Y-56382704D01*
X202719567Y-56377585D01*
X202630667Y-56372467D01*
X202626132Y-55961834D01*
X202621598Y-55551201D01*
X202198867Y-55551201D01*
X202198867Y-55348001D01*
X202622200Y-55348001D01*
X202622200Y-55551201D01*
G37*
X202622200Y-55551201D02*
X202808467Y-55551201D01*
X202808467Y-56380934D01*
X203031608Y-56380934D01*
X203020134Y-56584196D01*
X203231800Y-56584134D01*
X203231800Y-56804267D01*
X203030216Y-56804267D01*
X203020134Y-56592601D01*
X202914300Y-56587559D01*
X202808467Y-56582518D01*
X202808467Y-56382704D01*
X202719567Y-56377585D01*
X202630667Y-56372467D01*
X202626132Y-55961834D01*
X202621598Y-55551201D01*
X202198867Y-55551201D01*
X202198867Y-55348001D01*
X202622200Y-55348001D01*
X202622200Y-55551201D01*
G36*
X196221400Y-61511734D02*
G01*
X196018200Y-61511734D01*
X196018200Y-61122267D01*
X196221400Y-61122267D01*
X196221400Y-61511734D01*
G37*
X196221400Y-61511734D02*
X196018200Y-61511734D01*
X196018200Y-61122267D01*
X196221400Y-61122267D01*
X196221400Y-61511734D01*
G36*
X202198867Y-61714934D02*
G01*
X201995667Y-61714934D01*
X201995667Y-61511734D01*
X202198867Y-61511734D01*
X202198867Y-61714934D01*
G37*
X202198867Y-61714934D02*
X201995667Y-61714934D01*
X201995667Y-61511734D01*
X202198867Y-61511734D01*
X202198867Y-61714934D01*
G36*
X202198867Y-56584134D02*
G01*
X201995667Y-56584134D01*
X201995667Y-56380934D01*
X202198867Y-56380934D01*
X202198867Y-56584134D01*
G37*
X202198867Y-56584134D02*
X201995667Y-56584134D01*
X201995667Y-56380934D01*
X202198867Y-56380934D01*
X202198867Y-56584134D01*
G36*
X196644734Y-61714934D02*
G01*
X197254334Y-61714934D01*
X197254334Y-61511734D01*
X197677667Y-61511734D01*
X197677667Y-61714934D01*
X197255950Y-61714934D01*
X197250908Y-61820767D01*
X197245867Y-61926600D01*
X196653200Y-61926600D01*
X196648159Y-61820767D01*
X196643117Y-61714934D01*
X196221400Y-61714934D01*
X196221400Y-61511734D01*
X196644734Y-61511734D01*
X196644734Y-61714934D01*
G37*
X196644734Y-61714934D02*
X197254334Y-61714934D01*
X197254334Y-61511734D01*
X197677667Y-61511734D01*
X197677667Y-61714934D01*
X197255950Y-61714934D01*
X197250908Y-61820767D01*
X197245867Y-61926600D01*
X196653200Y-61926600D01*
X196648159Y-61820767D01*
X196643117Y-61714934D01*
X196221400Y-61714934D01*
X196221400Y-61511734D01*
X196644734Y-61511734D01*
X196644734Y-61714934D01*
G36*
X200962733Y-61511734D02*
G01*
X200759533Y-61511734D01*
X200759533Y-61122267D01*
X200962733Y-61122267D01*
X200962733Y-61511734D01*
G37*
X200962733Y-61511734D02*
X200759533Y-61511734D01*
X200759533Y-61122267D01*
X200962733Y-61122267D01*
X200962733Y-61511734D01*
G36*
X203858333Y-57617067D02*
G01*
X203655133Y-57617067D01*
X203655133Y-56990534D01*
X203858333Y-56990534D01*
X203858333Y-57617067D01*
G37*
X203858333Y-57617067D02*
X203655133Y-57617067D01*
X203655133Y-56990534D01*
X203858333Y-56990534D01*
X203858333Y-57617067D01*
G36*
X196221400Y-59462800D02*
G01*
X196018200Y-59462800D01*
X196018200Y-58006534D01*
X196221400Y-58006534D01*
X196221400Y-59462800D01*
G37*
X196221400Y-59462800D02*
X196018200Y-59462800D01*
X196018200Y-58006534D01*
X196221400Y-58006534D01*
X196221400Y-59462800D01*
G36*
X195831934Y-57617067D02*
G01*
X195628734Y-57617067D01*
X195628734Y-57396934D01*
X195831934Y-57396934D01*
X195831934Y-57617067D01*
G37*
X195831934Y-57617067D02*
X195628734Y-57617067D01*
X195628734Y-57396934D01*
X195831934Y-57396934D01*
X195831934Y-57617067D01*
G36*
X203655133Y-57820267D02*
G01*
X201996448Y-57820267D01*
X201987200Y-58421401D01*
X201775534Y-58431483D01*
X201775534Y-61122267D01*
X201995667Y-61122267D01*
X201995667Y-61511734D01*
X201775534Y-61511734D01*
X201775534Y-61124037D01*
X201686633Y-61118919D01*
X201597733Y-61113801D01*
X201588903Y-59666001D01*
X201386067Y-59666001D01*
X201386067Y-59462800D01*
X200962733Y-59462800D01*
X200962733Y-58651043D01*
X201170167Y-58646288D01*
X201377600Y-58641534D01*
X201382642Y-58535701D01*
X201387683Y-58429867D01*
X201774752Y-58429867D01*
X201779376Y-58129301D01*
X201784000Y-57828734D01*
X201889834Y-57823692D01*
X201995667Y-57818651D01*
X201995667Y-57617067D01*
X203655133Y-57617067D01*
X203655133Y-57820267D01*
G37*
X203655133Y-57820267D02*
X201996448Y-57820267D01*
X201987200Y-58421401D01*
X201775534Y-58431483D01*
X201775534Y-61122267D01*
X201995667Y-61122267D01*
X201995667Y-61511734D01*
X201775534Y-61511734D01*
X201775534Y-61124037D01*
X201686633Y-61118919D01*
X201597733Y-61113801D01*
X201588903Y-59666001D01*
X201386067Y-59666001D01*
X201386067Y-59462800D01*
X200962733Y-59462800D01*
X200962733Y-58651043D01*
X201170167Y-58646288D01*
X201377600Y-58641534D01*
X201382642Y-58535701D01*
X201387683Y-58429867D01*
X201774752Y-58429867D01*
X201779376Y-58129301D01*
X201784000Y-57828734D01*
X201889834Y-57823692D01*
X201995667Y-57818651D01*
X201995667Y-57617067D01*
X203655133Y-57617067D01*
X203655133Y-57820267D01*
G36*
X201382129Y-56376700D02*
G01*
X201377600Y-56795801D01*
X201170167Y-56800555D01*
X200962733Y-56805310D01*
X200962733Y-56990534D01*
X200759533Y-56990534D01*
X200759533Y-56804267D01*
X200962733Y-56804267D01*
X200962733Y-55957601D01*
X201386658Y-55957601D01*
X201382129Y-56376700D01*
G37*
X201382129Y-56376700D02*
X201377600Y-56795801D01*
X201170167Y-56800555D01*
X200962733Y-56805310D01*
X200962733Y-56990534D01*
X200759533Y-56990534D01*
X200759533Y-56804267D01*
X200962733Y-56804267D01*
X200962733Y-55957601D01*
X201386658Y-55957601D01*
X201382129Y-56376700D01*
G36*
X200547867Y-59674467D02*
G01*
X200552945Y-59771834D01*
X200558024Y-59869201D01*
X200759533Y-59869201D01*
X200759533Y-61122267D01*
X200556334Y-61122267D01*
X200556334Y-59869201D01*
X197677667Y-59869201D01*
X197677667Y-60089334D01*
X197254334Y-60089334D01*
X197254334Y-60478801D01*
X197068067Y-60478801D01*
X197068067Y-60089334D01*
X197252717Y-60089334D01*
X197257759Y-59983501D01*
X197262800Y-59877667D01*
X197470233Y-59872913D01*
X197677667Y-59868158D01*
X197677667Y-59665809D01*
X200547867Y-59674467D01*
G37*
X200547867Y-59674467D02*
X200552945Y-59771834D01*
X200558024Y-59869201D01*
X200759533Y-59869201D01*
X200759533Y-61122267D01*
X200556334Y-61122267D01*
X200556334Y-59869201D01*
X197677667Y-59869201D01*
X197677667Y-60089334D01*
X197254334Y-60089334D01*
X197254334Y-60478801D01*
X197068067Y-60478801D01*
X197068067Y-60089334D01*
X197252717Y-60089334D01*
X197257759Y-59983501D01*
X197262800Y-59877667D01*
X197470233Y-59872913D01*
X197677667Y-59868158D01*
X197677667Y-59665809D01*
X200547867Y-59674467D01*
G36*
X196018200Y-61122267D02*
G01*
X195831934Y-61122267D01*
X195831934Y-59462800D01*
X196018200Y-59462800D01*
X196018200Y-61122267D01*
G37*
X196018200Y-61122267D02*
X195831934Y-61122267D01*
X195831934Y-59462800D01*
X196018200Y-59462800D01*
X196018200Y-61122267D01*
%TD*%
M02*
