M48
; DRILL file {KiCad (6.0.5)} date Thu Jun  2 22:48:04 2022
; FORMAT={-:-/ absolute / inch / decimal}
; #@! TF.CreationDate,2022-06-02T22:48:04-05:00
; #@! TF.GenerationSoftware,Kicad,Pcbnew,(6.0.5)
; #@! TF.FileFunction,Plated,1,2,PTH
FMAT,2
INCH
; #@! TA.AperFunction,Plated,PTH,ViaDrill
T1C0.0157
; #@! TA.AperFunction,Plated,PTH,ViaDrill
T2C0.0197
; #@! TA.AperFunction,Plated,PTH,ComponentDrill
T3C0.0394
; #@! TA.AperFunction,Plated,PTH,ComponentDrill
T4C0.0591
; #@! TA.AperFunction,Plated,PTH,ComponentDrill
T5C0.0906
%
G90
G05
T1
X6.6535Y-2.3622
X6.7087Y-2.0236
X6.8386Y-2.4429
X6.8504Y-2.187
X6.9646Y-3.1437
X6.998Y-2.9764
X7.0177Y-2.4055
X7.0217Y-2.128
X7.1004Y-2.8012
X7.2224Y-2.9783
X7.2697Y-3.8189
X7.622Y-1.9882
X7.6457Y-3.8622
X7.685Y-1.5571
X7.7343Y-1.9508
X7.7874Y-2.0689
X7.7933Y-1.5325
X7.8406Y-2.0177
X7.8858Y-1.5148
X7.9508Y-1.8917
X7.9803Y-1.4971
X7.9882Y-4.937
X8.0039Y-1.8661
X8.061Y-1.8986
X8.1161Y-1.8416
X8.1969Y-1.4794
X8.21Y-4.0939
X8.2205Y-2.3898
X8.2362Y-2.0984
X8.2559Y-2.2047
X8.2815Y-1.4617
X8.3307Y-1.5895
X8.3819Y-1.5768
X8.3839Y-1.444
X8.4331Y-1.561
X8.4921Y-1.5758
X8.5195Y-1.6122
X8.5492Y-1.5551
X8.5886Y-1.5551
X8.6575Y-1.5118
X8.7087Y-1.4882
X8.7264Y-3.0177
X8.8169Y-1.4764
X8.9311Y-1.5728
X8.9921Y-3.1909
X9.0217Y-1.6634
X9.0945Y-2.7244
X9.1102Y-1.6634
X9.1929Y-1.8701
X9.2256Y-2.8028
X9.2303Y-2.4016
X9.2461Y-4.8898
X9.2559Y-1.6634
X9.2618Y-2.2047
X9.2756Y-2.9055
X9.2972Y-2.7744
X9.3209Y-1.8484
X9.3406Y-1.8937
X9.3543Y-2.8386
X9.5315Y-3.1594
X9.5315Y-3.6988
X9.5846Y-3.0157
X9.5906Y-1.9134
X9.6378Y-1.6634
X9.6831Y-1.9587
X9.7303Y-1.6634
X9.7854Y-2.1004
X9.8386Y-1.6634
X9.8917Y-2.2382
X9.9449Y-1.6634
X9.9882Y-2.065
X10.0335Y-1.6634
X10.0354Y-1.9882
X10.065Y-2.0197
X10.126Y-3.5335
X10.1339Y-4.8012
X10.1575Y-1.6634
T2
X6.8976Y-3.7035
X6.8976Y-4.5598
X6.9311Y-4.9783
X6.9311Y-5.1535
X7.937Y-3.6681
X8.1614Y-4.2941
X9.4114Y-2.7232
X9.4461Y-2.8579
T3
X6.5945Y-1.6177
X6.5945Y-1.7177
X6.5945Y-1.8177
X6.5945Y-1.9177
X6.5945Y-2.0177
X6.6285Y-3.0998
X6.6285Y-3.1998
X6.6285Y-3.2998
X6.6285Y-3.3998
X6.6285Y-3.4998
X6.6285Y-3.5998
X6.6285Y-3.6998
X6.6285Y-3.7998
X6.6285Y-3.8998
X6.6285Y-3.9998
X6.6285Y-4.0998
X6.6285Y-4.1998
X6.6285Y-4.2998
X6.6285Y-4.3998
X6.6285Y-4.4998
X6.6285Y-4.5998
X6.6285Y-4.6998
X6.6285Y-4.7998
X6.6285Y-4.8998
X6.6285Y-4.9998
X6.7285Y-3.0998
X6.7285Y-3.1998
X6.7285Y-3.2998
X6.7285Y-3.3998
X6.7285Y-3.4998
X6.7285Y-3.5998
X6.7285Y-3.6998
X6.7285Y-3.7998
X6.7285Y-3.8998
X6.7285Y-3.9998
X6.7285Y-4.0998
X6.7285Y-4.1998
X6.7285Y-4.2998
X6.7285Y-4.3998
X6.7285Y-4.4998
X6.7285Y-4.5998
X6.7285Y-4.6998
X6.7285Y-4.7998
X6.7285Y-4.8998
X6.7285Y-4.9998
X7.2821Y-3.1262
X7.3256Y-2.5374
X7.3256Y-2.6374
X7.3821Y-3.1262
X7.4256Y-2.5374
X7.4256Y-2.6374
X7.4821Y-3.1262
X7.5256Y-2.5374
X7.5256Y-2.6374
X7.5821Y-3.1262
X7.621Y-1.7901
X7.6256Y-2.5374
X7.6256Y-2.6374
X7.6755Y-1.6783
X7.7256Y-2.5374
X7.7256Y-2.6374
X7.7301Y-1.7901
X7.7372Y-1.3016
X7.7372Y-1.4016
X7.7846Y-1.6783
X7.8256Y-2.5374
X7.8256Y-2.6374
X7.8372Y-1.3016
X7.8372Y-1.4016
X7.8391Y-1.7901
X7.8936Y-1.6783
X7.9256Y-2.5374
X7.9256Y-2.6374
X7.9372Y-1.3016
X7.9372Y-1.4016
X7.9482Y-1.7901
X8.0027Y-1.6783
X8.0256Y-2.5374
X8.0256Y-2.6374
X8.0372Y-1.3016
X8.0372Y-1.4016
X8.0572Y-1.7901
X8.1118Y-1.6783
X8.1256Y-2.5374
X8.1256Y-2.6374
X8.1372Y-1.3016
X8.1372Y-1.4016
X8.1663Y-1.7901
X8.2208Y-1.6783
X8.2256Y-2.5374
X8.2256Y-2.6374
X8.2372Y-1.3016
X8.2372Y-1.4016
X8.2753Y-1.7901
X8.3256Y-2.5374
X8.3256Y-2.6374
X8.3299Y-1.6783
X8.3372Y-1.3016
X8.3372Y-1.4016
X8.3844Y-1.7901
X8.4256Y-2.5374
X8.4256Y-2.6374
X8.4372Y-1.3016
X8.4372Y-1.4016
X8.4389Y-1.6783
X8.4935Y-1.7901
X8.5256Y-2.5374
X8.5256Y-2.6374
X8.5372Y-1.3016
X8.5372Y-1.4016
X8.548Y-1.6783
X8.6025Y-1.7901
X8.6256Y-2.5374
X8.6256Y-2.6374
X8.6372Y-1.3016
X8.6372Y-1.4016
X8.657Y-1.6783
X8.7116Y-1.7901
X8.7256Y-2.5374
X8.7256Y-2.6374
X8.7372Y-1.3016
X8.7372Y-1.4016
X8.7661Y-1.6783
X8.8206Y-1.7901
X8.8256Y-2.5374
X8.8256Y-2.6374
X8.8372Y-1.3016
X8.8372Y-1.4016
X8.8751Y-1.6783
X8.9256Y-2.5374
X8.9256Y-2.6374
X8.9297Y-1.7901
X8.9372Y-1.3016
X8.9372Y-1.4016
X9.0256Y-2.5374
X9.0256Y-2.6374
X9.0372Y-1.3016
X9.0372Y-1.4016
X9.1256Y-2.5374
X9.1256Y-2.6374
X9.1372Y-1.3016
X9.1372Y-1.4016
X9.2256Y-2.5374
X9.2256Y-2.6374
X9.2372Y-1.3016
X9.2372Y-1.4016
X9.3372Y-1.3016
X9.3372Y-1.4016
X9.4372Y-1.3016
X9.4372Y-1.4016
X9.5372Y-1.3016
X9.5372Y-1.4016
X9.6372Y-1.3016
X9.6372Y-1.4016
X9.7372Y-1.3016
X9.7372Y-1.4016
X9.7736Y-3.0972
X9.7736Y-3.1972
X9.7736Y-3.2972
X9.7736Y-3.3972
X9.7736Y-3.4972
X9.7736Y-3.5972
X9.7736Y-3.6972
X9.7736Y-3.7972
X9.7736Y-3.8972
X9.7736Y-3.9972
X9.7736Y-4.0972
X9.7736Y-4.1972
X9.7736Y-4.2972
X9.7736Y-4.3972
X9.7736Y-4.4972
X9.7736Y-4.5972
X9.7736Y-4.6972
X9.7736Y-4.7972
X9.7736Y-4.8972
X9.7736Y-4.9972
X9.8372Y-1.3016
X9.8372Y-1.4016
X9.8736Y-3.0972
X9.8736Y-3.1972
X9.8736Y-3.2972
X9.8736Y-3.3972
X9.8736Y-3.4972
X9.8736Y-3.5972
X9.8736Y-3.6972
X9.8736Y-3.7972
X9.8736Y-3.8972
X9.8736Y-3.9972
X9.8736Y-4.0972
X9.8736Y-4.1972
X9.8736Y-4.2972
X9.8736Y-4.3972
X9.8736Y-4.4972
X9.8736Y-4.5972
X9.8736Y-4.6972
X9.8736Y-4.7972
X9.8736Y-4.8972
X9.8736Y-4.9972
X9.9372Y-1.3016
X9.9372Y-1.4016
X10.0372Y-1.3016
X10.0372Y-1.4016
X10.1339Y-2.7736
X10.1339Y-2.8736
X10.1339Y-2.9736
X10.1339Y-3.0736
X10.1339Y-3.1736
X10.1339Y-3.2736
X10.1372Y-1.3016
X10.1372Y-1.4016
T4
X6.7862Y-1.3248
X6.9862Y-1.3248
X7.1862Y-1.3248
X7.3862Y-1.3248
T5
X6.6197Y-1.1102
X7.5528Y-1.1102
T0
M30
