%TF.GenerationSoftware,KiCad,Pcbnew,(6.0.5)*%
%TF.CreationDate,2022-06-02T22:48:02-05:00*%
%TF.ProjectId,rascsi_3p5_holder,72617363-7369-45f3-9370-355f686f6c64,rev?*%
%TF.SameCoordinates,Original*%
%TF.FileFunction,Legend,Top*%
%TF.FilePolarity,Positive*%
%FSLAX46Y46*%
G04 Gerber Fmt 4.6, Leading zero omitted, Abs format (unit mm)*
G04 Created by KiCad (PCBNEW (6.0.5)) date 2022-06-02 22:48:02*
%MOMM*%
%LPD*%
G01*
G04 APERTURE LIST*
%ADD10C,0.150000*%
%ADD11C,1.250000*%
%ADD12C,0.254000*%
%ADD13C,0.120000*%
%ADD14C,0.100000*%
G04 APERTURE END LIST*
D10*
X222135000Y-73865000D02*
X222135000Y-131865000D01*
X239200000Y-69220000D02*
X181200000Y-69220000D01*
X225870000Y-70300000D02*
X225870000Y-70300000D01*
X177700000Y-65720000D02*
X177700000Y-42220000D01*
X222520000Y-73800000D02*
X222520000Y-131800000D01*
X166135000Y-131865000D02*
X166135000Y-73865000D01*
X169635000Y-70365000D02*
X218635000Y-70365000D01*
X253020000Y-73800000D02*
X253020000Y-131800000D01*
X242700000Y-42220000D02*
X242700000Y-65720000D01*
X249520000Y-70300000D02*
X226020000Y-70300000D01*
X226020000Y-135300000D02*
X249520000Y-135300000D01*
X181200000Y-38720000D02*
X239200000Y-38720000D01*
X218635000Y-135365000D02*
X169635000Y-135365000D01*
D11*
X179523809Y-120386458D02*
X179761904Y-119701934D01*
X179761904Y-118511458D01*
X179523809Y-118005505D01*
X179285714Y-117737648D01*
X178809523Y-117440029D01*
X178333333Y-117380505D01*
X177857142Y-117559077D01*
X177619047Y-117767410D01*
X177380952Y-118213839D01*
X177142857Y-119136458D01*
X176904761Y-119582886D01*
X176666666Y-119791220D01*
X176190476Y-119969791D01*
X175714285Y-119910267D01*
X175238095Y-119612648D01*
X175000000Y-119344791D01*
X174761904Y-118838839D01*
X174761904Y-117648363D01*
X175000000Y-116963839D01*
X176428571Y-112856696D02*
X179761904Y-113273363D01*
X176428571Y-114999553D02*
X179047619Y-115326934D01*
X179523809Y-115148363D01*
X179761904Y-114701934D01*
X179761904Y-113987648D01*
X179523809Y-113481696D01*
X179285714Y-113213839D01*
X176428571Y-110475744D02*
X181428571Y-111100744D01*
X176666666Y-110505505D02*
X176428571Y-109999553D01*
X176428571Y-109047172D01*
X176666666Y-108600744D01*
X176904761Y-108392410D01*
X177380952Y-108213839D01*
X178809523Y-108392410D01*
X179285714Y-108690029D01*
X179523809Y-108957886D01*
X179761904Y-109463839D01*
X179761904Y-110416220D01*
X179523809Y-110862648D01*
X179523809Y-104434077D02*
X179761904Y-104940029D01*
X179761904Y-105892410D01*
X179523809Y-106338839D01*
X179047619Y-106517410D01*
X177142857Y-106279315D01*
X176666666Y-105981696D01*
X176428571Y-105475744D01*
X176428571Y-104523363D01*
X176666666Y-104076934D01*
X177142857Y-103898363D01*
X177619047Y-103957886D01*
X178095238Y-106398363D01*
X179761904Y-102082886D02*
X176428571Y-101666220D01*
X177380952Y-101785267D02*
X176904761Y-101487648D01*
X176666666Y-101219791D01*
X176428571Y-100713839D01*
X176428571Y-100237648D01*
X174761904Y-98362648D02*
X178809523Y-98868601D01*
X179285714Y-98690029D01*
X179523809Y-98481696D01*
X179761904Y-98035267D01*
X179761904Y-97082886D01*
X179523809Y-96576934D01*
X179285714Y-96309077D01*
X178809523Y-96011458D01*
X174761904Y-95505505D01*
X179761904Y-93749553D02*
X174761904Y-93124553D01*
X174761904Y-91219791D01*
X175000000Y-90773363D01*
X175238095Y-90565029D01*
X175714285Y-90386458D01*
X176428571Y-90475744D01*
X176904761Y-90773363D01*
X177142857Y-91041220D01*
X177380952Y-91547172D01*
X177380952Y-93451934D01*
X179523809Y-88957886D02*
X179761904Y-88273363D01*
X179761904Y-87082886D01*
X179523809Y-86576934D01*
X179285714Y-86309077D01*
X178809523Y-86011458D01*
X178333333Y-85951934D01*
X177857142Y-86130505D01*
X177619047Y-86338839D01*
X177380952Y-86785267D01*
X177142857Y-87707886D01*
X176904761Y-88154315D01*
X176666666Y-88362648D01*
X176190476Y-88541220D01*
X175714285Y-88481696D01*
X175238095Y-88184077D01*
X175000000Y-87916220D01*
X174761904Y-87410267D01*
X174761904Y-86219791D01*
X175000000Y-85535267D01*
X238463095Y-81971875D02*
X240844047Y-80602827D01*
X238463095Y-79114732D02*
X243463095Y-79739732D01*
X243463095Y-81644494D01*
X243225000Y-82090922D01*
X242986904Y-82299255D01*
X242510714Y-82477827D01*
X241796428Y-82388541D01*
X241320238Y-82090922D01*
X241082142Y-81823065D01*
X240844047Y-81317113D01*
X240844047Y-79412351D01*
X238463095Y-86257589D02*
X241082142Y-86584970D01*
X241558333Y-86406398D01*
X241796428Y-85959970D01*
X241796428Y-85007589D01*
X241558333Y-84501636D01*
X238701190Y-86287351D02*
X238463095Y-85781398D01*
X238463095Y-84590922D01*
X238701190Y-84144494D01*
X239177380Y-83965922D01*
X239653571Y-84025446D01*
X240129761Y-84323065D01*
X240367857Y-84829017D01*
X240367857Y-86019494D01*
X240605952Y-86525446D01*
X238701190Y-88430208D02*
X238463095Y-88876636D01*
X238463095Y-89829017D01*
X238701190Y-90334970D01*
X239177380Y-90632589D01*
X239415476Y-90662351D01*
X239891666Y-90483779D01*
X240129761Y-90037351D01*
X240129761Y-89323065D01*
X240367857Y-88876636D01*
X240844047Y-88698065D01*
X241082142Y-88727827D01*
X241558333Y-89025446D01*
X241796428Y-89531398D01*
X241796428Y-90245684D01*
X241558333Y-90692113D01*
X241796428Y-93102827D02*
X236796428Y-92477827D01*
X241558333Y-93073065D02*
X241796428Y-93579017D01*
X241796428Y-94531398D01*
X241558333Y-94977827D01*
X241320238Y-95186160D01*
X240844047Y-95364732D01*
X239415476Y-95186160D01*
X238939285Y-94888541D01*
X238701190Y-94620684D01*
X238463095Y-94114732D01*
X238463095Y-93162351D01*
X238701190Y-92715922D01*
X238463095Y-97209970D02*
X243463095Y-97834970D01*
X241558333Y-97596875D02*
X241796428Y-98102827D01*
X241796428Y-99055208D01*
X241558333Y-99501636D01*
X241320238Y-99709970D01*
X240844047Y-99888541D01*
X239415476Y-99709970D01*
X238939285Y-99412351D01*
X238701190Y-99144494D01*
X238463095Y-98638541D01*
X238463095Y-97686160D01*
X238701190Y-97239732D01*
X238701190Y-103668303D02*
X238463095Y-103162351D01*
X238463095Y-102209970D01*
X238701190Y-101763541D01*
X239177380Y-101584970D01*
X241082142Y-101823065D01*
X241558333Y-102120684D01*
X241796428Y-102626636D01*
X241796428Y-103579017D01*
X241558333Y-104025446D01*
X241082142Y-104204017D01*
X240605952Y-104144494D01*
X240129761Y-101704017D01*
X238463095Y-106019494D02*
X241796428Y-106436160D01*
X240844047Y-106317113D02*
X241320238Y-106614732D01*
X241558333Y-106882589D01*
X241796428Y-107388541D01*
X241796428Y-107864732D01*
X238463095Y-109114732D02*
X241796428Y-109531398D01*
X240844047Y-109412351D02*
X241320238Y-109709970D01*
X241558333Y-109977827D01*
X241796428Y-110483779D01*
X241796428Y-110959970D01*
X241796428Y-112150446D02*
X238463095Y-112924255D01*
X241796428Y-114531398D02*
X238463095Y-112924255D01*
X237272619Y-112299255D01*
X237034523Y-112031398D01*
X236796428Y-111525446D01*
X238463095Y-119829017D02*
X243463095Y-120454017D01*
X243463095Y-122358779D01*
X243225000Y-122805208D01*
X242986904Y-123013541D01*
X242510714Y-123192113D01*
X241796428Y-123102827D01*
X241320238Y-122805208D01*
X241082142Y-122537351D01*
X240844047Y-122031398D01*
X240844047Y-120126636D01*
X238463095Y-124829017D02*
X241796428Y-125245684D01*
X243463095Y-125454017D02*
X243225000Y-125186160D01*
X242986904Y-125394494D01*
X243225000Y-125662351D01*
X243463095Y-125454017D01*
X242986904Y-125394494D01*
X235413095Y-96882589D02*
X235413095Y-100215922D01*
X230413095Y-96257589D01*
X230413095Y-99590922D01*
X230651190Y-103430208D02*
X230413095Y-102924255D01*
X230413095Y-101971875D01*
X230651190Y-101525446D01*
X231127380Y-101346875D01*
X233032142Y-101584970D01*
X233508333Y-101882589D01*
X233746428Y-102388541D01*
X233746428Y-103340922D01*
X233508333Y-103787351D01*
X233032142Y-103965922D01*
X232555952Y-103906398D01*
X232079761Y-101465922D01*
X230413095Y-105781398D02*
X233746428Y-106198065D01*
X232794047Y-106079017D02*
X233270238Y-106376636D01*
X233508333Y-106644494D01*
X233746428Y-107150446D01*
X233746428Y-107626636D01*
X230413095Y-109590922D02*
X230651190Y-109144494D01*
X230889285Y-108936160D01*
X231365476Y-108757589D01*
X232794047Y-108936160D01*
X233270238Y-109233779D01*
X233508333Y-109501636D01*
X233746428Y-110007589D01*
X233746428Y-110721875D01*
X233508333Y-111168303D01*
X233270238Y-111376636D01*
X232794047Y-111555208D01*
X231365476Y-111376636D01*
X230889285Y-111079017D01*
X230651190Y-110811160D01*
X230413095Y-110305208D01*
X230413095Y-109590922D01*
X229678125Y-52758095D02*
X231047172Y-55139047D01*
X232535267Y-52758095D02*
X231910267Y-57758095D01*
X230005505Y-57758095D01*
X229559077Y-57520000D01*
X229350744Y-57281904D01*
X229172172Y-56805714D01*
X229261458Y-56091428D01*
X229559077Y-55615238D01*
X229826934Y-55377142D01*
X230332886Y-55139047D01*
X232237648Y-55139047D01*
X225392410Y-52758095D02*
X225065029Y-55377142D01*
X225243601Y-55853333D01*
X225690029Y-56091428D01*
X226642410Y-56091428D01*
X227148363Y-55853333D01*
X225362648Y-52996190D02*
X225868601Y-52758095D01*
X227059077Y-52758095D01*
X227505505Y-52996190D01*
X227684077Y-53472380D01*
X227624553Y-53948571D01*
X227326934Y-54424761D01*
X226820982Y-54662857D01*
X225630505Y-54662857D01*
X225124553Y-54900952D01*
X223219791Y-52996190D02*
X222535267Y-52758095D01*
X221344791Y-52758095D01*
X220838839Y-52996190D01*
X220570982Y-53234285D01*
X220273363Y-53710476D01*
X220213839Y-54186666D01*
X220392410Y-54662857D01*
X220600744Y-54900952D01*
X221047172Y-55139047D01*
X221969791Y-55377142D01*
X222416220Y-55615238D01*
X222624553Y-55853333D01*
X222803125Y-56329523D01*
X222743601Y-56805714D01*
X222445982Y-57281904D01*
X222178125Y-57520000D01*
X221672172Y-57758095D01*
X220481696Y-57758095D01*
X219797172Y-57520000D01*
X215332886Y-53234285D02*
X215600744Y-52996190D01*
X216344791Y-52758095D01*
X216820982Y-52758095D01*
X217505505Y-52996190D01*
X217922172Y-53472380D01*
X218100744Y-53948571D01*
X218219791Y-54900952D01*
X218130505Y-55615238D01*
X217773363Y-56567619D01*
X217475744Y-57043809D01*
X216940029Y-57520000D01*
X216195982Y-57758095D01*
X215719791Y-57758095D01*
X215035267Y-57520000D01*
X214826934Y-57281904D01*
X213457886Y-52996190D02*
X212773363Y-52758095D01*
X211582886Y-52758095D01*
X211076934Y-52996190D01*
X210809077Y-53234285D01*
X210511458Y-53710476D01*
X210451934Y-54186666D01*
X210630505Y-54662857D01*
X210838839Y-54900952D01*
X211285267Y-55139047D01*
X212207886Y-55377142D01*
X212654315Y-55615238D01*
X212862648Y-55853333D01*
X213041220Y-56329523D01*
X212981696Y-56805714D01*
X212684077Y-57281904D01*
X212416220Y-57520000D01*
X211910267Y-57758095D01*
X210719791Y-57758095D01*
X210035267Y-57520000D01*
X208487648Y-52758095D02*
X207862648Y-57758095D01*
X202148363Y-57758095D02*
X198815029Y-57758095D01*
X202773363Y-52758095D01*
X199440029Y-52758095D01*
X195600744Y-52996190D02*
X196106696Y-52758095D01*
X197059077Y-52758095D01*
X197505505Y-52996190D01*
X197684077Y-53472380D01*
X197445982Y-55377142D01*
X197148363Y-55853333D01*
X196642410Y-56091428D01*
X195690029Y-56091428D01*
X195243601Y-55853333D01*
X195065029Y-55377142D01*
X195124553Y-54900952D01*
X197565029Y-54424761D01*
X193249553Y-52758095D02*
X192832886Y-56091428D01*
X192951934Y-55139047D02*
X192654315Y-55615238D01*
X192386458Y-55853333D01*
X191880505Y-56091428D01*
X191404315Y-56091428D01*
X189440029Y-52758095D02*
X189886458Y-52996190D01*
X190094791Y-53234285D01*
X190273363Y-53710476D01*
X190094791Y-55139047D01*
X189797172Y-55615238D01*
X189529315Y-55853333D01*
X189023363Y-56091428D01*
X188309077Y-56091428D01*
X187862648Y-55853333D01*
X187654315Y-55615238D01*
X187475744Y-55139047D01*
X187654315Y-53710476D01*
X187951934Y-53234285D01*
X188219791Y-52996190D01*
X188725744Y-52758095D01*
X189440029Y-52758095D01*
D10*
X198045238Y-136702380D02*
X198045238Y-135702380D01*
X198473809Y-136702380D02*
X198473809Y-136178571D01*
X198426190Y-136083333D01*
X198330952Y-136035714D01*
X198188095Y-136035714D01*
X198092857Y-136083333D01*
X198045238Y-136130952D01*
X198807142Y-136035714D02*
X199188095Y-136035714D01*
X198950000Y-135702380D02*
X198950000Y-136559523D01*
X198997619Y-136654761D01*
X199092857Y-136702380D01*
X199188095Y-136702380D01*
X199378571Y-136035714D02*
X199759523Y-136035714D01*
X199521428Y-135702380D02*
X199521428Y-136559523D01*
X199569047Y-136654761D01*
X199664285Y-136702380D01*
X199759523Y-136702380D01*
X200092857Y-136035714D02*
X200092857Y-137035714D01*
X200092857Y-136083333D02*
X200188095Y-136035714D01*
X200378571Y-136035714D01*
X200473809Y-136083333D01*
X200521428Y-136130952D01*
X200569047Y-136226190D01*
X200569047Y-136511904D01*
X200521428Y-136607142D01*
X200473809Y-136654761D01*
X200378571Y-136702380D01*
X200188095Y-136702380D01*
X200092857Y-136654761D01*
X200950000Y-136654761D02*
X201045238Y-136702380D01*
X201235714Y-136702380D01*
X201330952Y-136654761D01*
X201378571Y-136559523D01*
X201378571Y-136511904D01*
X201330952Y-136416666D01*
X201235714Y-136369047D01*
X201092857Y-136369047D01*
X200997619Y-136321428D01*
X200950000Y-136226190D01*
X200950000Y-136178571D01*
X200997619Y-136083333D01*
X201092857Y-136035714D01*
X201235714Y-136035714D01*
X201330952Y-136083333D01*
X201807142Y-136607142D02*
X201854761Y-136654761D01*
X201807142Y-136702380D01*
X201759523Y-136654761D01*
X201807142Y-136607142D01*
X201807142Y-136702380D01*
X201807142Y-136083333D02*
X201854761Y-136130952D01*
X201807142Y-136178571D01*
X201759523Y-136130952D01*
X201807142Y-136083333D01*
X201807142Y-136178571D01*
X202997619Y-135654761D02*
X202140476Y-136940476D01*
X204045238Y-135654761D02*
X203188095Y-136940476D01*
X204807142Y-136035714D02*
X204807142Y-136845238D01*
X204759523Y-136940476D01*
X204711904Y-136988095D01*
X204616666Y-137035714D01*
X204473809Y-137035714D01*
X204378571Y-136988095D01*
X204807142Y-136654761D02*
X204711904Y-136702380D01*
X204521428Y-136702380D01*
X204426190Y-136654761D01*
X204378571Y-136607142D01*
X204330952Y-136511904D01*
X204330952Y-136226190D01*
X204378571Y-136130952D01*
X204426190Y-136083333D01*
X204521428Y-136035714D01*
X204711904Y-136035714D01*
X204807142Y-136083333D01*
X205283333Y-136702380D02*
X205283333Y-136035714D01*
X205283333Y-135702380D02*
X205235714Y-135750000D01*
X205283333Y-135797619D01*
X205330952Y-135750000D01*
X205283333Y-135702380D01*
X205283333Y-135797619D01*
X205616666Y-136035714D02*
X205997619Y-136035714D01*
X205759523Y-135702380D02*
X205759523Y-136559523D01*
X205807142Y-136654761D01*
X205902380Y-136702380D01*
X205997619Y-136702380D01*
X206330952Y-136702380D02*
X206330952Y-135702380D01*
X206759523Y-136702380D02*
X206759523Y-136178571D01*
X206711904Y-136083333D01*
X206616666Y-136035714D01*
X206473809Y-136035714D01*
X206378571Y-136083333D01*
X206330952Y-136130952D01*
X207664285Y-136035714D02*
X207664285Y-136702380D01*
X207235714Y-136035714D02*
X207235714Y-136559523D01*
X207283333Y-136654761D01*
X207378571Y-136702380D01*
X207521428Y-136702380D01*
X207616666Y-136654761D01*
X207664285Y-136607142D01*
X208140476Y-136702380D02*
X208140476Y-135702380D01*
X208140476Y-136083333D02*
X208235714Y-136035714D01*
X208426190Y-136035714D01*
X208521428Y-136083333D01*
X208569047Y-136130952D01*
X208616666Y-136226190D01*
X208616666Y-136511904D01*
X208569047Y-136607142D01*
X208521428Y-136654761D01*
X208426190Y-136702380D01*
X208235714Y-136702380D01*
X208140476Y-136654761D01*
X209045238Y-136607142D02*
X209092857Y-136654761D01*
X209045238Y-136702380D01*
X208997619Y-136654761D01*
X209045238Y-136607142D01*
X209045238Y-136702380D01*
X209950000Y-136654761D02*
X209854761Y-136702380D01*
X209664285Y-136702380D01*
X209569047Y-136654761D01*
X209521428Y-136607142D01*
X209473809Y-136511904D01*
X209473809Y-136226190D01*
X209521428Y-136130952D01*
X209569047Y-136083333D01*
X209664285Y-136035714D01*
X209854761Y-136035714D01*
X209950000Y-136083333D01*
X210521428Y-136702380D02*
X210426190Y-136654761D01*
X210378571Y-136607142D01*
X210330952Y-136511904D01*
X210330952Y-136226190D01*
X210378571Y-136130952D01*
X210426190Y-136083333D01*
X210521428Y-136035714D01*
X210664285Y-136035714D01*
X210759523Y-136083333D01*
X210807142Y-136130952D01*
X210854761Y-136226190D01*
X210854761Y-136511904D01*
X210807142Y-136607142D01*
X210759523Y-136654761D01*
X210664285Y-136702380D01*
X210521428Y-136702380D01*
X211283333Y-136702380D02*
X211283333Y-136035714D01*
X211283333Y-136130952D02*
X211330952Y-136083333D01*
X211426190Y-136035714D01*
X211569047Y-136035714D01*
X211664285Y-136083333D01*
X211711904Y-136178571D01*
X211711904Y-136702380D01*
X211711904Y-136178571D02*
X211759523Y-136083333D01*
X211854761Y-136035714D01*
X211997619Y-136035714D01*
X212092857Y-136083333D01*
X212140476Y-136178571D01*
X212140476Y-136702380D01*
X213330952Y-135654761D02*
X212473809Y-136940476D01*
X214092857Y-136702380D02*
X214092857Y-136178571D01*
X214045238Y-136083333D01*
X213950000Y-136035714D01*
X213759523Y-136035714D01*
X213664285Y-136083333D01*
X214092857Y-136654761D02*
X213997619Y-136702380D01*
X213759523Y-136702380D01*
X213664285Y-136654761D01*
X213616666Y-136559523D01*
X213616666Y-136464285D01*
X213664285Y-136369047D01*
X213759523Y-136321428D01*
X213997619Y-136321428D01*
X214092857Y-136273809D01*
X214569047Y-136702380D02*
X214569047Y-135702380D01*
X214664285Y-136321428D02*
X214950000Y-136702380D01*
X214950000Y-136035714D02*
X214569047Y-136416666D01*
X215807142Y-136035714D02*
X215807142Y-136702380D01*
X215378571Y-136035714D02*
X215378571Y-136559523D01*
X215426190Y-136654761D01*
X215521428Y-136702380D01*
X215664285Y-136702380D01*
X215759523Y-136654761D01*
X215807142Y-136607142D01*
X216283333Y-136702380D02*
X216283333Y-135702380D01*
X216378571Y-136321428D02*
X216664285Y-136702380D01*
X216664285Y-136035714D02*
X216283333Y-136416666D01*
X217473809Y-136654761D02*
X217378571Y-136702380D01*
X217188095Y-136702380D01*
X217092857Y-136654761D01*
X217045238Y-136559523D01*
X217045238Y-136178571D01*
X217092857Y-136083333D01*
X217188095Y-136035714D01*
X217378571Y-136035714D01*
X217473809Y-136083333D01*
X217521428Y-136178571D01*
X217521428Y-136273809D01*
X217045238Y-136369047D01*
X217950000Y-136702380D02*
X217950000Y-136035714D01*
X217950000Y-136226190D02*
X217997619Y-136130952D01*
X218045238Y-136083333D01*
X218140476Y-136035714D01*
X218235714Y-136035714D01*
X219283333Y-135654761D02*
X218426190Y-136940476D01*
X219616666Y-136702380D02*
X219616666Y-135702380D01*
X220045238Y-136702380D02*
X220045238Y-136178571D01*
X219997619Y-136083333D01*
X219902380Y-136035714D01*
X219759523Y-136035714D01*
X219664285Y-136083333D01*
X219616666Y-136130952D01*
X220426190Y-136035714D02*
X220616666Y-136702380D01*
X220807142Y-136226190D01*
X220997619Y-136702380D01*
X221188095Y-136035714D01*
X221330952Y-136797619D02*
X222092857Y-136797619D01*
X222330952Y-136035714D02*
X222330952Y-137035714D01*
X222330952Y-136083333D02*
X222426190Y-136035714D01*
X222616666Y-136035714D01*
X222711904Y-136083333D01*
X222759523Y-136130952D01*
X222807142Y-136226190D01*
X222807142Y-136511904D01*
X222759523Y-136607142D01*
X222711904Y-136654761D01*
X222616666Y-136702380D01*
X222426190Y-136702380D01*
X222330952Y-136654761D01*
X223235714Y-136702380D02*
X223235714Y-136035714D01*
X223235714Y-136226190D02*
X223283333Y-136130952D01*
X223330952Y-136083333D01*
X223426190Y-136035714D01*
X223521428Y-136035714D01*
X223997619Y-136702380D02*
X223902380Y-136654761D01*
X223854761Y-136607142D01*
X223807142Y-136511904D01*
X223807142Y-136226190D01*
X223854761Y-136130952D01*
X223902380Y-136083333D01*
X223997619Y-136035714D01*
X224140476Y-136035714D01*
X224235714Y-136083333D01*
X224283333Y-136130952D01*
X224330952Y-136226190D01*
X224330952Y-136511904D01*
X224283333Y-136607142D01*
X224235714Y-136654761D01*
X224140476Y-136702380D01*
X223997619Y-136702380D01*
X224759523Y-136035714D02*
X224759523Y-136892857D01*
X224711904Y-136988095D01*
X224616666Y-137035714D01*
X224569047Y-137035714D01*
X224759523Y-135702380D02*
X224711904Y-135750000D01*
X224759523Y-135797619D01*
X224807142Y-135750000D01*
X224759523Y-135702380D01*
X224759523Y-135797619D01*
X225616666Y-136654761D02*
X225521428Y-136702380D01*
X225330952Y-136702380D01*
X225235714Y-136654761D01*
X225188095Y-136559523D01*
X225188095Y-136178571D01*
X225235714Y-136083333D01*
X225330952Y-136035714D01*
X225521428Y-136035714D01*
X225616666Y-136083333D01*
X225664285Y-136178571D01*
X225664285Y-136273809D01*
X225188095Y-136369047D01*
X226521428Y-136654761D02*
X226426190Y-136702380D01*
X226235714Y-136702380D01*
X226140476Y-136654761D01*
X226092857Y-136607142D01*
X226045238Y-136511904D01*
X226045238Y-136226190D01*
X226092857Y-136130952D01*
X226140476Y-136083333D01*
X226235714Y-136035714D01*
X226426190Y-136035714D01*
X226521428Y-136083333D01*
X226807142Y-136035714D02*
X227188095Y-136035714D01*
X226950000Y-135702380D02*
X226950000Y-136559523D01*
X226997619Y-136654761D01*
X227092857Y-136702380D01*
X227188095Y-136702380D01*
X227473809Y-136654761D02*
X227569047Y-136702380D01*
X227759523Y-136702380D01*
X227854761Y-136654761D01*
X227902380Y-136559523D01*
X227902380Y-136511904D01*
X227854761Y-136416666D01*
X227759523Y-136369047D01*
X227616666Y-136369047D01*
X227521428Y-136321428D01*
X227473809Y-136226190D01*
X227473809Y-136178571D01*
X227521428Y-136083333D01*
X227616666Y-136035714D01*
X227759523Y-136035714D01*
X227854761Y-136083333D01*
%TO.C,J1*%
X236112380Y-66053333D02*
X236826666Y-66053333D01*
X236969523Y-66100952D01*
X237064761Y-66196190D01*
X237112380Y-66339047D01*
X237112380Y-66434285D01*
X237112380Y-65053333D02*
X237112380Y-65624761D01*
X237112380Y-65339047D02*
X236112380Y-65339047D01*
X236255238Y-65434285D01*
X236350476Y-65529523D01*
X236398095Y-65624761D01*
%TO.C,J8*%
X257066666Y-67572380D02*
X257066666Y-68286666D01*
X257019047Y-68429523D01*
X256923809Y-68524761D01*
X256780952Y-68572380D01*
X256685714Y-68572380D01*
X257685714Y-68000952D02*
X257590476Y-67953333D01*
X257542857Y-67905714D01*
X257495238Y-67810476D01*
X257495238Y-67762857D01*
X257542857Y-67667619D01*
X257590476Y-67620000D01*
X257685714Y-67572380D01*
X257876190Y-67572380D01*
X257971428Y-67620000D01*
X258019047Y-67667619D01*
X258066666Y-67762857D01*
X258066666Y-67810476D01*
X258019047Y-67905714D01*
X257971428Y-67953333D01*
X257876190Y-68000952D01*
X257685714Y-68000952D01*
X257590476Y-68048571D01*
X257542857Y-68096190D01*
X257495238Y-68191428D01*
X257495238Y-68381904D01*
X257542857Y-68477142D01*
X257590476Y-68524761D01*
X257685714Y-68572380D01*
X257876190Y-68572380D01*
X257971428Y-68524761D01*
X258019047Y-68477142D01*
X258066666Y-68381904D01*
X258066666Y-68191428D01*
X258019047Y-68096190D01*
X257971428Y-68048571D01*
X257876190Y-68000952D01*
D12*
%TO.C,J4*%
X179566666Y-28141523D02*
X179566666Y-29048666D01*
X179506190Y-29230095D01*
X179385238Y-29351047D01*
X179203809Y-29411523D01*
X179082857Y-29411523D01*
X180715714Y-28564857D02*
X180715714Y-29411523D01*
X180413333Y-28081047D02*
X180110952Y-28988190D01*
X180897142Y-28988190D01*
D10*
%TO.C,H16*%
X163261904Y-60432380D02*
X163261904Y-59432380D01*
X163261904Y-59908571D02*
X163833333Y-59908571D01*
X163833333Y-60432380D02*
X163833333Y-59432380D01*
X164833333Y-60432380D02*
X164261904Y-60432380D01*
X164547619Y-60432380D02*
X164547619Y-59432380D01*
X164452380Y-59575238D01*
X164357142Y-59670476D01*
X164261904Y-59718095D01*
X165690476Y-59432380D02*
X165500000Y-59432380D01*
X165404761Y-59480000D01*
X165357142Y-59527619D01*
X165261904Y-59670476D01*
X165214285Y-59860952D01*
X165214285Y-60241904D01*
X165261904Y-60337142D01*
X165309523Y-60384761D01*
X165404761Y-60432380D01*
X165595238Y-60432380D01*
X165690476Y-60384761D01*
X165738095Y-60337142D01*
X165785714Y-60241904D01*
X165785714Y-60003809D01*
X165738095Y-59908571D01*
X165690476Y-59860952D01*
X165595238Y-59813333D01*
X165404761Y-59813333D01*
X165309523Y-59860952D01*
X165261904Y-59908571D01*
X165214285Y-60003809D01*
%TO.C,J6*%
X169301666Y-128777380D02*
X169301666Y-129491666D01*
X169254047Y-129634523D01*
X169158809Y-129729761D01*
X169015952Y-129777380D01*
X168920714Y-129777380D01*
X170206428Y-128777380D02*
X170015952Y-128777380D01*
X169920714Y-128825000D01*
X169873095Y-128872619D01*
X169777857Y-129015476D01*
X169730238Y-129205952D01*
X169730238Y-129586904D01*
X169777857Y-129682142D01*
X169825476Y-129729761D01*
X169920714Y-129777380D01*
X170111190Y-129777380D01*
X170206428Y-129729761D01*
X170254047Y-129682142D01*
X170301666Y-129586904D01*
X170301666Y-129348809D01*
X170254047Y-129253571D01*
X170206428Y-129205952D01*
X170111190Y-129158333D01*
X169920714Y-129158333D01*
X169825476Y-129205952D01*
X169777857Y-129253571D01*
X169730238Y-129348809D01*
%TO.C,J9*%
X167166666Y-53032380D02*
X167166666Y-53746666D01*
X167119047Y-53889523D01*
X167023809Y-53984761D01*
X166880952Y-54032380D01*
X166785714Y-54032380D01*
X167690476Y-54032380D02*
X167880952Y-54032380D01*
X167976190Y-53984761D01*
X168023809Y-53937142D01*
X168119047Y-53794285D01*
X168166666Y-53603809D01*
X168166666Y-53222857D01*
X168119047Y-53127619D01*
X168071428Y-53080000D01*
X167976190Y-53032380D01*
X167785714Y-53032380D01*
X167690476Y-53080000D01*
X167642857Y-53127619D01*
X167595238Y-53222857D01*
X167595238Y-53460952D01*
X167642857Y-53556190D01*
X167690476Y-53603809D01*
X167785714Y-53651428D01*
X167976190Y-53651428D01*
X168071428Y-53603809D01*
X168119047Y-53556190D01*
X168166666Y-53460952D01*
%TO.C,J2*%
X193707380Y-30278333D02*
X194421666Y-30278333D01*
X194564523Y-30325952D01*
X194659761Y-30421190D01*
X194707380Y-30564047D01*
X194707380Y-30659285D01*
X193802619Y-29849761D02*
X193755000Y-29802142D01*
X193707380Y-29706904D01*
X193707380Y-29468809D01*
X193755000Y-29373571D01*
X193802619Y-29325952D01*
X193897857Y-29278333D01*
X193993095Y-29278333D01*
X194135952Y-29325952D01*
X194707380Y-29897380D01*
X194707380Y-29278333D01*
%TO.C,J5*%
X249186666Y-75792380D02*
X249186666Y-76506666D01*
X249139047Y-76649523D01*
X249043809Y-76744761D01*
X248900952Y-76792380D01*
X248805714Y-76792380D01*
X250139047Y-75792380D02*
X249662857Y-75792380D01*
X249615238Y-76268571D01*
X249662857Y-76220952D01*
X249758095Y-76173333D01*
X249996190Y-76173333D01*
X250091428Y-76220952D01*
X250139047Y-76268571D01*
X250186666Y-76363809D01*
X250186666Y-76601904D01*
X250139047Y-76697142D01*
X250091428Y-76744761D01*
X249996190Y-76792380D01*
X249758095Y-76792380D01*
X249662857Y-76744761D01*
X249615238Y-76697142D01*
%TO.C,J3*%
X209840346Y-48421180D02*
X209840346Y-49135466D01*
X209792727Y-49278323D01*
X209697489Y-49373561D01*
X209554632Y-49421180D01*
X209459394Y-49421180D01*
X210221299Y-48421180D02*
X210840346Y-48421180D01*
X210507013Y-48802133D01*
X210649870Y-48802133D01*
X210745108Y-48849752D01*
X210792727Y-48897371D01*
X210840346Y-48992609D01*
X210840346Y-49230704D01*
X210792727Y-49325942D01*
X210745108Y-49373561D01*
X210649870Y-49421180D01*
X210364156Y-49421180D01*
X210268918Y-49373561D01*
X210221299Y-49325942D01*
%TO.C,J7*%
X194367380Y-79738333D02*
X195081666Y-79738333D01*
X195224523Y-79785952D01*
X195319761Y-79881190D01*
X195367380Y-80024047D01*
X195367380Y-80119285D01*
X194367380Y-79357380D02*
X194367380Y-78690714D01*
X195367380Y-79119285D01*
D13*
%TO.C,J1*%
X235660000Y-63120000D02*
X235660000Y-64450000D01*
X233060000Y-63120000D02*
X233060000Y-65720000D01*
X235660000Y-65720000D02*
X235660000Y-68320000D01*
X233060000Y-63120000D02*
X184740000Y-63120000D01*
X184740000Y-63120000D02*
X184740000Y-68320000D01*
X234330000Y-63120000D02*
X235660000Y-63120000D01*
X233060000Y-65720000D02*
X235660000Y-65720000D01*
X235660000Y-68320000D02*
X184740000Y-68320000D01*
%TO.C,J8*%
X256070000Y-84480000D02*
X258730000Y-84480000D01*
X258730000Y-71720000D02*
X258730000Y-84480000D01*
X256070000Y-70450000D02*
X256070000Y-69120000D01*
X256070000Y-71720000D02*
X256070000Y-84480000D01*
X256070000Y-71720000D02*
X258730000Y-71720000D01*
X256070000Y-69120000D02*
X257400000Y-69120000D01*
D14*
%TO.C,J4*%
X172370000Y-35400000D02*
X172370000Y-35400000D01*
X186370000Y-34400000D02*
X183870000Y-34400000D01*
X167370000Y-22900000D02*
X167340000Y-26150000D01*
X172370000Y-35300000D02*
X172370000Y-35300000D01*
X189370000Y-34400000D02*
X192640000Y-34400000D01*
X192640000Y-34400000D02*
X192640000Y-30650000D01*
X175870000Y-34400000D02*
X173870000Y-34400000D01*
X181120000Y-34400000D02*
X178870000Y-34400000D01*
X170870000Y-34400000D02*
X167370000Y-34400000D01*
X167370000Y-34400000D02*
X167340000Y-30650000D01*
X192640000Y-26150000D02*
X192640000Y-22900000D01*
X192640000Y-22900000D02*
X167370000Y-22900000D01*
X172370000Y-35400000D02*
G75*
G03*
X172370000Y-35300000I0J50000D01*
G01*
X172370000Y-35300000D02*
G75*
G03*
X172370000Y-35400000I0J-50000D01*
G01*
D13*
%TO.C,J6*%
X172235000Y-128325000D02*
X170905000Y-128325000D01*
X172235000Y-125725000D02*
X169635000Y-125725000D01*
X169635000Y-125725000D02*
X169635000Y-128325000D01*
X167035000Y-128325000D02*
X167035000Y-77405000D01*
X172235000Y-126995000D02*
X172235000Y-128325000D01*
X172235000Y-125725000D02*
X172235000Y-77405000D01*
X172235000Y-77405000D02*
X167035000Y-77405000D01*
X169635000Y-128325000D02*
X167035000Y-128325000D01*
%TO.C,J9*%
X168830000Y-51250000D02*
X168830000Y-52580000D01*
X168830000Y-52580000D02*
X167500000Y-52580000D01*
X166170000Y-49980000D02*
X166170000Y-39760000D01*
X168830000Y-49980000D02*
X166170000Y-49980000D01*
X168830000Y-39760000D02*
X166170000Y-39760000D01*
X168830000Y-49980000D02*
X168830000Y-39760000D01*
%TO.C,J2*%
X245165000Y-34557071D02*
X245165000Y-34102929D01*
X221545000Y-22960000D02*
X222305000Y-22960000D01*
X255325000Y-32017071D02*
X255325000Y-31620000D01*
X222305000Y-32017071D02*
X222305000Y-31620000D01*
X255325000Y-34557071D02*
X255325000Y-34102929D01*
X258815000Y-31620000D02*
X258815000Y-28960000D01*
X224085000Y-32017071D02*
X224085000Y-31620000D01*
X224085000Y-34557071D02*
X224085000Y-34102929D01*
X218115000Y-31620000D02*
X218115000Y-28960000D01*
X196565000Y-28960000D02*
X196565000Y-22960000D01*
X252025000Y-32017071D02*
X252025000Y-31620000D01*
X219765000Y-22960000D02*
X219765000Y-28960000D01*
X221545000Y-32017071D02*
X221545000Y-31620000D01*
X198685000Y-22960000D02*
X199445000Y-22960000D01*
X226625000Y-32017071D02*
X226625000Y-31620000D01*
X257105000Y-32017071D02*
X257105000Y-31620000D01*
X231705000Y-32017071D02*
X231705000Y-31620000D01*
X229165000Y-22960000D02*
X229925000Y-22960000D01*
X219005000Y-32017071D02*
X219005000Y-31620000D01*
X208845000Y-32017071D02*
X208845000Y-31620000D01*
X219765000Y-32017071D02*
X219765000Y-31620000D01*
X197795000Y-31620000D02*
X197795000Y-28960000D01*
X203765000Y-28960000D02*
X203765000Y-22960000D01*
X212145000Y-22960000D02*
X212145000Y-28960000D01*
X205415000Y-31620000D02*
X205415000Y-28960000D01*
X237545000Y-22960000D02*
X237545000Y-28960000D01*
X200335000Y-31620000D02*
X200335000Y-28960000D01*
X212145000Y-32017071D02*
X212145000Y-31620000D01*
X222305000Y-34557071D02*
X222305000Y-34102929D01*
X214685000Y-22960000D02*
X214685000Y-28960000D01*
X252785000Y-32017071D02*
X252785000Y-31620000D01*
X222305000Y-22960000D02*
X222305000Y-28960000D01*
X257105000Y-34557071D02*
X257105000Y-34102929D01*
X207065000Y-22960000D02*
X207065000Y-28960000D01*
X245165000Y-32017071D02*
X245165000Y-31620000D01*
X231705000Y-22960000D02*
X232465000Y-22960000D01*
X202875000Y-31620000D02*
X202875000Y-28960000D01*
X227385000Y-32017071D02*
X227385000Y-31620000D01*
X199445000Y-34557071D02*
X199445000Y-34102929D01*
X209605000Y-22960000D02*
X209605000Y-28960000D01*
X230815000Y-31620000D02*
X230815000Y-28960000D01*
X209605000Y-32017071D02*
X209605000Y-31620000D01*
X208845000Y-28960000D02*
X208845000Y-22960000D01*
X235005000Y-22960000D02*
X235005000Y-28960000D01*
X245165000Y-22960000D02*
X245165000Y-28960000D01*
X241865000Y-34557071D02*
X241865000Y-34102929D01*
X229925000Y-22960000D02*
X229925000Y-28960000D01*
X235895000Y-31620000D02*
X235895000Y-28960000D01*
X249485000Y-34557071D02*
X249485000Y-34102929D01*
X204525000Y-22960000D02*
X204525000Y-28960000D01*
X250245000Y-32017071D02*
X250245000Y-31620000D01*
X254565000Y-32017071D02*
X254565000Y-31620000D01*
X239325000Y-32017071D02*
X239325000Y-31620000D01*
X206305000Y-34557071D02*
X206305000Y-34102929D01*
X257105000Y-28960000D02*
X257105000Y-22960000D01*
X219005000Y-34557071D02*
X219005000Y-34102929D01*
X195195000Y-31620000D02*
X258815000Y-31620000D01*
X196685000Y-28960000D02*
X196685000Y-22960000D01*
X254565000Y-34557071D02*
X254565000Y-34102929D01*
X213925000Y-28960000D02*
X213925000Y-22960000D01*
X232465000Y-22960000D02*
X232465000Y-28960000D01*
X249485000Y-22960000D02*
X250245000Y-22960000D01*
X219005000Y-28960000D02*
X219005000Y-22960000D01*
X247705000Y-34557071D02*
X247705000Y-34102929D01*
X237545000Y-32017071D02*
X237545000Y-31620000D01*
X228275000Y-31620000D02*
X228275000Y-28960000D01*
X258815000Y-28960000D02*
X195195000Y-28960000D01*
X232465000Y-32017071D02*
X232465000Y-31620000D01*
X249485000Y-32017071D02*
X249485000Y-31620000D01*
X201985000Y-34557071D02*
X201985000Y-34102929D01*
X232465000Y-34557071D02*
X232465000Y-34102929D01*
X252025000Y-28960000D02*
X252025000Y-22960000D01*
X239325000Y-22960000D02*
X240085000Y-22960000D01*
X195255000Y-36870000D02*
X195255000Y-35600000D01*
X195195000Y-28960000D02*
X195195000Y-31620000D01*
X229925000Y-32017071D02*
X229925000Y-31620000D01*
X246945000Y-22960000D02*
X247705000Y-22960000D01*
X236785000Y-34557071D02*
X236785000Y-34102929D01*
X255325000Y-22960000D02*
X255325000Y-28960000D01*
X241865000Y-32017071D02*
X241865000Y-31620000D01*
X229165000Y-28960000D02*
X229165000Y-22960000D01*
X244405000Y-22960000D02*
X245165000Y-22960000D01*
X252785000Y-34557071D02*
X252785000Y-34102929D01*
X216465000Y-28960000D02*
X216465000Y-22960000D01*
X257865000Y-22960000D02*
X257865000Y-28960000D01*
X231705000Y-34557071D02*
X231705000Y-34102929D01*
X224845000Y-32017071D02*
X224845000Y-31620000D01*
X210495000Y-31620000D02*
X210495000Y-28960000D01*
X243515000Y-31620000D02*
X243515000Y-28960000D01*
X199445000Y-22960000D02*
X199445000Y-28960000D01*
X239325000Y-34557071D02*
X239325000Y-34102929D01*
X196145000Y-32017071D02*
X196145000Y-31620000D01*
X196325000Y-28960000D02*
X196325000Y-22960000D01*
X196905000Y-22960000D02*
X196905000Y-28960000D01*
X240085000Y-22960000D02*
X240085000Y-28960000D01*
X217225000Y-34557071D02*
X217225000Y-34102929D01*
X219005000Y-22960000D02*
X219765000Y-22960000D01*
X238435000Y-31620000D02*
X238435000Y-28960000D01*
X214685000Y-32017071D02*
X214685000Y-31620000D01*
X213925000Y-34557071D02*
X213925000Y-34102929D01*
X198685000Y-34557071D02*
X198685000Y-34102929D01*
X244405000Y-28960000D02*
X244405000Y-22960000D01*
X201225000Y-22960000D02*
X201985000Y-22960000D01*
X241865000Y-22960000D02*
X242625000Y-22960000D01*
X227385000Y-22960000D02*
X227385000Y-28960000D01*
X252025000Y-22960000D02*
X252785000Y-22960000D01*
X240085000Y-34557071D02*
X240085000Y-34102929D01*
X208845000Y-34557071D02*
X208845000Y-34102929D01*
X236785000Y-22960000D02*
X237545000Y-22960000D01*
X250245000Y-34557071D02*
X250245000Y-34102929D01*
X216465000Y-34557071D02*
X216465000Y-34102929D01*
X196145000Y-22960000D02*
X196905000Y-22960000D01*
X203765000Y-34557071D02*
X203765000Y-34102929D01*
X198685000Y-32017071D02*
X198685000Y-31620000D01*
X244405000Y-34557071D02*
X244405000Y-34102929D01*
X215575000Y-31620000D02*
X215575000Y-28960000D01*
X201225000Y-28960000D02*
X201225000Y-22960000D01*
X226625000Y-34557071D02*
X226625000Y-34102929D01*
X248595000Y-31620000D02*
X248595000Y-28960000D01*
X207065000Y-34557071D02*
X207065000Y-34102929D01*
X211385000Y-28960000D02*
X211385000Y-22960000D01*
X196205000Y-28960000D02*
X196205000Y-22960000D01*
X239325000Y-28960000D02*
X239325000Y-22960000D01*
X252785000Y-22960000D02*
X252785000Y-28960000D01*
X257865000Y-32017071D02*
X257865000Y-31620000D01*
X199445000Y-32017071D02*
X199445000Y-31620000D01*
X242625000Y-32017071D02*
X242625000Y-31620000D01*
X234245000Y-28960000D02*
X234245000Y-22960000D01*
X229925000Y-34557071D02*
X229925000Y-34102929D01*
X201985000Y-32017071D02*
X201985000Y-31620000D01*
X217225000Y-32017071D02*
X217225000Y-31620000D01*
X196905000Y-34490000D02*
X196905000Y-34102929D01*
X196905000Y-32017071D02*
X196905000Y-31620000D01*
X211385000Y-22960000D02*
X212145000Y-22960000D01*
X224845000Y-34557071D02*
X224845000Y-34102929D01*
X198685000Y-28960000D02*
X198685000Y-22960000D01*
X201225000Y-34557071D02*
X201225000Y-34102929D01*
X236785000Y-28960000D02*
X236785000Y-22960000D01*
X196445000Y-28960000D02*
X196445000Y-22960000D01*
X221545000Y-28960000D02*
X221545000Y-22960000D01*
X201985000Y-22960000D02*
X201985000Y-28960000D01*
X224845000Y-22960000D02*
X224845000Y-28960000D01*
X207955000Y-31620000D02*
X207955000Y-28960000D01*
X235005000Y-34557071D02*
X235005000Y-34102929D01*
X234245000Y-22960000D02*
X235005000Y-22960000D01*
X251135000Y-31620000D02*
X251135000Y-28960000D01*
X242625000Y-22960000D02*
X242625000Y-28960000D01*
X234245000Y-32017071D02*
X234245000Y-31620000D01*
X246055000Y-31620000D02*
X246055000Y-28960000D01*
X216465000Y-22960000D02*
X217225000Y-22960000D01*
X203765000Y-22960000D02*
X204525000Y-22960000D01*
X253675000Y-31620000D02*
X253675000Y-28960000D01*
X226625000Y-22960000D02*
X227385000Y-22960000D01*
X196145000Y-28960000D02*
X196145000Y-22960000D01*
X249485000Y-28960000D02*
X249485000Y-22960000D01*
X201225000Y-32017071D02*
X201225000Y-31620000D01*
X213925000Y-22960000D02*
X214685000Y-22960000D01*
X246945000Y-32017071D02*
X246945000Y-31620000D01*
X252025000Y-34557071D02*
X252025000Y-34102929D01*
X241865000Y-28960000D02*
X241865000Y-22960000D01*
X242625000Y-34557071D02*
X242625000Y-34102929D01*
X206305000Y-28960000D02*
X206305000Y-22960000D01*
X204525000Y-32017071D02*
X204525000Y-31620000D01*
X244405000Y-32017071D02*
X244405000Y-31620000D01*
X209605000Y-34557071D02*
X209605000Y-34102929D01*
X213925000Y-32017071D02*
X213925000Y-31620000D01*
X229165000Y-32017071D02*
X229165000Y-31620000D01*
X196805000Y-28960000D02*
X196805000Y-22960000D01*
X246945000Y-28960000D02*
X246945000Y-22960000D01*
X237545000Y-34557071D02*
X237545000Y-34102929D01*
X236785000Y-32017071D02*
X236785000Y-31620000D01*
X257865000Y-34557071D02*
X257865000Y-34102929D01*
X196525000Y-36870000D02*
X195255000Y-36870000D01*
X246945000Y-34557071D02*
X246945000Y-34102929D01*
X250245000Y-22960000D02*
X250245000Y-28960000D01*
X225735000Y-31620000D02*
X225735000Y-28960000D01*
X226625000Y-28960000D02*
X226625000Y-22960000D01*
X206305000Y-22960000D02*
X207065000Y-22960000D01*
X229165000Y-34557071D02*
X229165000Y-34102929D01*
X220655000Y-31620000D02*
X220655000Y-28960000D01*
X206305000Y-32017071D02*
X206305000Y-31620000D01*
X254565000Y-22960000D02*
X255325000Y-22960000D01*
X254565000Y-28960000D02*
X254565000Y-22960000D01*
X208845000Y-22960000D02*
X209605000Y-22960000D01*
X203765000Y-32017071D02*
X203765000Y-31620000D01*
X217225000Y-22960000D02*
X217225000Y-28960000D01*
X213035000Y-31620000D02*
X213035000Y-28960000D01*
X221545000Y-34557071D02*
X221545000Y-34102929D01*
X247705000Y-22960000D02*
X247705000Y-28960000D01*
X207065000Y-32017071D02*
X207065000Y-31620000D01*
X196145000Y-34490000D02*
X196145000Y-34102929D01*
X223195000Y-31620000D02*
X223195000Y-28960000D01*
X227385000Y-34557071D02*
X227385000Y-34102929D01*
X256215000Y-31620000D02*
X256215000Y-28960000D01*
X235005000Y-32017071D02*
X235005000Y-31620000D01*
X224085000Y-28960000D02*
X224085000Y-22960000D01*
X247705000Y-32017071D02*
X247705000Y-31620000D01*
X216465000Y-32017071D02*
X216465000Y-31620000D01*
X231705000Y-28960000D02*
X231705000Y-22960000D01*
X224085000Y-22960000D02*
X224845000Y-22960000D01*
X204525000Y-34557071D02*
X204525000Y-34102929D01*
X257105000Y-22960000D02*
X257865000Y-22960000D01*
X219765000Y-34557071D02*
X219765000Y-34102929D01*
X240975000Y-31620000D02*
X240975000Y-28960000D01*
X212145000Y-34557071D02*
X212145000Y-34102929D01*
X240085000Y-32017071D02*
X240085000Y-31620000D01*
X234245000Y-34557071D02*
X234245000Y-34102929D01*
X214685000Y-34557071D02*
X214685000Y-34102929D01*
X211385000Y-34557071D02*
X211385000Y-34102929D01*
X233355000Y-31620000D02*
X233355000Y-28960000D01*
X211385000Y-32017071D02*
X211385000Y-31620000D01*
%TO.C,J5*%
X252120000Y-77340000D02*
X252120000Y-128260000D01*
X246920000Y-79940000D02*
X249520000Y-79940000D01*
X246920000Y-78670000D02*
X246920000Y-77340000D01*
X246920000Y-128260000D02*
X252120000Y-128260000D01*
X249520000Y-79940000D02*
X249520000Y-77340000D01*
X246920000Y-79940000D02*
X246920000Y-128260000D01*
X246920000Y-77340000D02*
X248250000Y-77340000D01*
X249520000Y-77340000D02*
X252120000Y-77340000D01*
%TO.C,J3*%
X227425369Y-48058800D02*
X192961991Y-48058800D01*
X191327210Y-46110544D02*
X192155947Y-41410544D01*
X193323680Y-47268800D02*
X193573680Y-46835787D01*
X193823680Y-47268800D02*
X193323680Y-47268800D01*
X226596632Y-40038800D02*
X193790728Y-40038800D01*
X229060150Y-46110544D02*
X228231413Y-41410544D01*
X193573680Y-46835787D02*
X193823680Y-47268800D01*
X227425369Y-48058800D02*
G75*
G03*
X229060150Y-46110544I1J1659999D01*
G01*
X193790728Y-40038800D02*
G75*
G03*
X192155947Y-41410544I-1J-1659999D01*
G01*
X191327209Y-46110544D02*
G75*
G03*
X192961991Y-48058800I1634781J-288256D01*
G01*
X228231413Y-41410544D02*
G75*
G03*
X226596632Y-40038800I-1634780J-288255D01*
G01*
%TO.C,J7*%
X191315000Y-80735000D02*
X183635000Y-80735000D01*
X191315000Y-78075000D02*
X191315000Y-80735000D01*
X193915000Y-78075000D02*
X193915000Y-79405000D01*
X183635000Y-78075000D02*
X183635000Y-80735000D01*
X191315000Y-78075000D02*
X183635000Y-78075000D01*
X192585000Y-78075000D02*
X193915000Y-78075000D01*
%TD*%
M02*
