%TF.GenerationSoftware,KiCad,Pcbnew,(6.0.5)*%
%TF.CreationDate,2022-06-02T22:48:02-05:00*%
%TF.ProjectId,rascsi_3p5_holder,72617363-7369-45f3-9370-355f686f6c64,rev?*%
%TF.SameCoordinates,Original*%
%TF.FileFunction,Soldermask,Top*%
%TF.FilePolarity,Negative*%
%FSLAX46Y46*%
G04 Gerber Fmt 4.6, Leading zero omitted, Abs format (unit mm)*
G04 Created by KiCad (PCBNEW (6.0.5)) date 2022-06-02 22:48:02*
%MOMM*%
%LPD*%
G01*
G04 APERTURE LIST*
%ADD10C,2.700000*%
%ADD11R,1.700000X1.700000*%
%ADD12O,1.700000X1.700000*%
%ADD13C,3.200000*%
%ADD14C,2.250000*%
%ADD15C,3.450000*%
%ADD16R,1.600000X1.600000*%
%ADD17C,1.600000*%
G04 APERTURE END LIST*
D10*
%TO.C,H6*%
X226020000Y-131800000D03*
%TD*%
%TO.C,H12*%
X169635000Y-131865000D03*
%TD*%
D11*
%TO.C,J1*%
X234330000Y-64450000D03*
D12*
X234330000Y-66990000D03*
X231790000Y-64450000D03*
X231790000Y-66990000D03*
X229250000Y-64450000D03*
X229250000Y-66990000D03*
X226710000Y-64450000D03*
X226710000Y-66990000D03*
X224170000Y-64450000D03*
X224170000Y-66990000D03*
X221630000Y-64450000D03*
X221630000Y-66990000D03*
X219090000Y-64450000D03*
X219090000Y-66990000D03*
X216550000Y-64450000D03*
X216550000Y-66990000D03*
X214010000Y-64450000D03*
X214010000Y-66990000D03*
X211470000Y-64450000D03*
X211470000Y-66990000D03*
X208930000Y-64450000D03*
X208930000Y-66990000D03*
X206390000Y-64450000D03*
X206390000Y-66990000D03*
X203850000Y-64450000D03*
X203850000Y-66990000D03*
X201310000Y-64450000D03*
X201310000Y-66990000D03*
X198770000Y-64450000D03*
X198770000Y-66990000D03*
X196230000Y-64450000D03*
X196230000Y-66990000D03*
X193690000Y-64450000D03*
X193690000Y-66990000D03*
X191150000Y-64450000D03*
X191150000Y-66990000D03*
X188610000Y-64450000D03*
X188610000Y-66990000D03*
X186070000Y-64450000D03*
X186070000Y-66990000D03*
%TD*%
D13*
%TO.C,H15*%
X164500000Y-108630000D03*
%TD*%
D10*
%TO.C,H5*%
X249520000Y-131800000D03*
%TD*%
D11*
%TO.C,J8*%
X257400000Y-70450000D03*
D12*
X257400000Y-72990000D03*
X257400000Y-75530000D03*
X257400000Y-78070000D03*
X257400000Y-80610000D03*
X257400000Y-83150000D03*
%TD*%
D10*
%TO.C,H10*%
X169635000Y-73865000D03*
%TD*%
D14*
%TO.C,J4*%
X172370000Y-33650000D03*
X177450000Y-33650000D03*
X182530000Y-33650000D03*
X187610000Y-33650000D03*
D15*
X168140000Y-28200000D03*
X191840000Y-28200000D03*
%TD*%
D13*
%TO.C,H13*%
X259750000Y-108630000D03*
%TD*%
%TO.C,H16*%
X164500000Y-64180000D03*
%TD*%
D11*
%TO.C,J6*%
X170905000Y-126995000D03*
D12*
X168365000Y-126995000D03*
X170905000Y-124455000D03*
X168365000Y-124455000D03*
X170905000Y-121915000D03*
X168365000Y-121915000D03*
X170905000Y-119375000D03*
X168365000Y-119375000D03*
X170905000Y-116835000D03*
X168365000Y-116835000D03*
X170905000Y-114295000D03*
X168365000Y-114295000D03*
X170905000Y-111755000D03*
X168365000Y-111755000D03*
X170905000Y-109215000D03*
X168365000Y-109215000D03*
X170905000Y-106675000D03*
X168365000Y-106675000D03*
X170905000Y-104135000D03*
X168365000Y-104135000D03*
X170905000Y-101595000D03*
X168365000Y-101595000D03*
X170905000Y-99055000D03*
X168365000Y-99055000D03*
X170905000Y-96515000D03*
X168365000Y-96515000D03*
X170905000Y-93975000D03*
X168365000Y-93975000D03*
X170905000Y-91435000D03*
X168365000Y-91435000D03*
X170905000Y-88895000D03*
X168365000Y-88895000D03*
X170905000Y-86355000D03*
X168365000Y-86355000D03*
X170905000Y-83815000D03*
X168365000Y-83815000D03*
X170905000Y-81275000D03*
X168365000Y-81275000D03*
X170905000Y-78735000D03*
X168365000Y-78735000D03*
%TD*%
D11*
%TO.C,J9*%
X167500000Y-51250000D03*
D12*
X167500000Y-48710000D03*
X167500000Y-46170000D03*
X167500000Y-43630000D03*
X167500000Y-41090000D03*
%TD*%
D10*
%TO.C,H2*%
X181200000Y-65720000D03*
%TD*%
%TO.C,H1*%
X239200000Y-65720000D03*
%TD*%
%TO.C,H7*%
X249520000Y-73800000D03*
%TD*%
D11*
%TO.C,J2*%
X196525000Y-35600000D03*
D12*
X196525000Y-33060000D03*
X199065000Y-35600000D03*
X199065000Y-33060000D03*
X201605000Y-35600000D03*
X201605000Y-33060000D03*
X204145000Y-35600000D03*
X204145000Y-33060000D03*
X206685000Y-35600000D03*
X206685000Y-33060000D03*
X209225000Y-35600000D03*
X209225000Y-33060000D03*
X211765000Y-35600000D03*
X211765000Y-33060000D03*
X214305000Y-35600000D03*
X214305000Y-33060000D03*
X216845000Y-35600000D03*
X216845000Y-33060000D03*
X219385000Y-35600000D03*
X219385000Y-33060000D03*
X221925000Y-35600000D03*
X221925000Y-33060000D03*
X224465000Y-35600000D03*
X224465000Y-33060000D03*
X227005000Y-35600000D03*
X227005000Y-33060000D03*
X229545000Y-35600000D03*
X229545000Y-33060000D03*
X232085000Y-35600000D03*
X232085000Y-33060000D03*
X234625000Y-35600000D03*
X234625000Y-33060000D03*
X237165000Y-35600000D03*
X237165000Y-33060000D03*
X239705000Y-35600000D03*
X239705000Y-33060000D03*
X242245000Y-35600000D03*
X242245000Y-33060000D03*
X244785000Y-35600000D03*
X244785000Y-33060000D03*
X247325000Y-35600000D03*
X247325000Y-33060000D03*
X249865000Y-35600000D03*
X249865000Y-33060000D03*
X252405000Y-35600000D03*
X252405000Y-33060000D03*
X254945000Y-35600000D03*
X254945000Y-33060000D03*
X257485000Y-35600000D03*
X257485000Y-33060000D03*
%TD*%
D11*
%TO.C,J5*%
X248250000Y-78670000D03*
D12*
X250790000Y-78670000D03*
X248250000Y-81210000D03*
X250790000Y-81210000D03*
X248250000Y-83750000D03*
X250790000Y-83750000D03*
X248250000Y-86290000D03*
X250790000Y-86290000D03*
X248250000Y-88830000D03*
X250790000Y-88830000D03*
X248250000Y-91370000D03*
X250790000Y-91370000D03*
X248250000Y-93910000D03*
X250790000Y-93910000D03*
X248250000Y-96450000D03*
X250790000Y-96450000D03*
X248250000Y-98990000D03*
X250790000Y-98990000D03*
X248250000Y-101530000D03*
X250790000Y-101530000D03*
X248250000Y-104070000D03*
X250790000Y-104070000D03*
X248250000Y-106610000D03*
X250790000Y-106610000D03*
X248250000Y-109150000D03*
X250790000Y-109150000D03*
X248250000Y-111690000D03*
X250790000Y-111690000D03*
X248250000Y-114230000D03*
X250790000Y-114230000D03*
X248250000Y-116770000D03*
X250790000Y-116770000D03*
X248250000Y-119310000D03*
X250790000Y-119310000D03*
X248250000Y-121850000D03*
X250790000Y-121850000D03*
X248250000Y-124390000D03*
X250790000Y-124390000D03*
X248250000Y-126930000D03*
X250790000Y-126930000D03*
%TD*%
D10*
%TO.C,H11*%
X218635000Y-73865000D03*
%TD*%
D13*
%TO.C,H14*%
X259750000Y-64180000D03*
%TD*%
D10*
%TO.C,H3*%
X239200000Y-42220000D03*
%TD*%
%TO.C,H8*%
X226020000Y-73800000D03*
%TD*%
D16*
%TO.C,J3*%
X193573680Y-45468800D03*
D17*
X196343680Y-45468800D03*
X199113680Y-45468800D03*
X201883680Y-45468800D03*
X204653680Y-45468800D03*
X207423680Y-45468800D03*
X210193680Y-45468800D03*
X212963680Y-45468800D03*
X215733680Y-45468800D03*
X218503680Y-45468800D03*
X221273680Y-45468800D03*
X224043680Y-45468800D03*
X226813680Y-45468800D03*
X194958680Y-42628800D03*
X197728680Y-42628800D03*
X200498680Y-42628800D03*
X203268680Y-42628800D03*
X206038680Y-42628800D03*
X208808680Y-42628800D03*
X211578680Y-42628800D03*
X214348680Y-42628800D03*
X217118680Y-42628800D03*
X219888680Y-42628800D03*
X222658680Y-42628800D03*
X225428680Y-42628800D03*
%TD*%
D10*
%TO.C,H9*%
X218635000Y-131865000D03*
%TD*%
%TO.C,H4*%
X181200000Y-42220000D03*
%TD*%
D11*
%TO.C,J7*%
X192585000Y-79405000D03*
D12*
X190045000Y-79405000D03*
X187505000Y-79405000D03*
X184965000Y-79405000D03*
%TD*%
M02*
