G04 #@! TF.GenerationSoftware,KiCad,Pcbnew,(6.0.4)*
G04 #@! TF.CreationDate,2022-05-06T11:38:26-05:00*
G04 #@! TF.ProjectId,12v_buck_converter,3132765f-6275-4636-9b5f-636f6e766572,rev?*
G04 #@! TF.SameCoordinates,Original*
G04 #@! TF.FileFunction,Copper,L1,Top*
G04 #@! TF.FilePolarity,Positive*
%FSLAX46Y46*%
G04 Gerber Fmt 4.6, Leading zero omitted, Abs format (unit mm)*
G04 Created by KiCad (PCBNEW (6.0.4)) date 2022-05-06 11:38:26*
%MOMM*%
%LPD*%
G01*
G04 APERTURE LIST*
G04 Aperture macros list*
%AMRoundRect*
0 Rectangle with rounded corners*
0 $1 Rounding radius*
0 $2 $3 $4 $5 $6 $7 $8 $9 X,Y pos of 4 corners*
0 Add a 4 corners polygon primitive as box body*
4,1,4,$2,$3,$4,$5,$6,$7,$8,$9,$2,$3,0*
0 Add four circle primitives for the rounded corners*
1,1,$1+$1,$2,$3*
1,1,$1+$1,$4,$5*
1,1,$1+$1,$6,$7*
1,1,$1+$1,$8,$9*
0 Add four rect primitives between the rounded corners*
20,1,$1+$1,$2,$3,$4,$5,0*
20,1,$1+$1,$4,$5,$6,$7,0*
20,1,$1+$1,$6,$7,$8,$9,0*
20,1,$1+$1,$8,$9,$2,$3,0*%
G04 Aperture macros list end*
G04 #@! TA.AperFunction,SMDPad,CuDef*
%ADD10RoundRect,0.250000X-0.475000X0.250000X-0.475000X-0.250000X0.475000X-0.250000X0.475000X0.250000X0*%
G04 #@! TD*
G04 #@! TA.AperFunction,ComponentPad*
%ADD11R,1.700000X1.700000*%
G04 #@! TD*
G04 #@! TA.AperFunction,ComponentPad*
%ADD12O,1.700000X1.700000*%
G04 #@! TD*
G04 #@! TA.AperFunction,SMDPad,CuDef*
%ADD13RoundRect,0.250000X-0.250000X-0.475000X0.250000X-0.475000X0.250000X0.475000X-0.250000X0.475000X0*%
G04 #@! TD*
G04 #@! TA.AperFunction,SMDPad,CuDef*
%ADD14RoundRect,0.250000X0.475000X-0.250000X0.475000X0.250000X-0.475000X0.250000X-0.475000X-0.250000X0*%
G04 #@! TD*
G04 #@! TA.AperFunction,SMDPad,CuDef*
%ADD15RoundRect,0.250000X-0.450000X0.262500X-0.450000X-0.262500X0.450000X-0.262500X0.450000X0.262500X0*%
G04 #@! TD*
G04 #@! TA.AperFunction,SMDPad,CuDef*
%ADD16R,2.500000X2.000000*%
G04 #@! TD*
G04 #@! TA.AperFunction,SMDPad,CuDef*
%ADD17RoundRect,0.042000X-0.943000X-0.258000X0.943000X-0.258000X0.943000X0.258000X-0.943000X0.258000X0*%
G04 #@! TD*
G04 #@! TA.AperFunction,SMDPad,CuDef*
%ADD18RoundRect,0.250000X0.450000X-0.262500X0.450000X0.262500X-0.450000X0.262500X-0.450000X-0.262500X0*%
G04 #@! TD*
G04 #@! TA.AperFunction,SMDPad,CuDef*
%ADD19R,2.500000X1.800000*%
G04 #@! TD*
G04 #@! TA.AperFunction,SMDPad,CuDef*
%ADD20RoundRect,0.250000X0.250000X0.475000X-0.250000X0.475000X-0.250000X-0.475000X0.250000X-0.475000X0*%
G04 #@! TD*
G04 #@! TA.AperFunction,ViaPad*
%ADD21C,0.800000*%
G04 #@! TD*
G04 #@! TA.AperFunction,Conductor*
%ADD22C,0.500000*%
G04 #@! TD*
G04 #@! TA.AperFunction,Conductor*
%ADD23C,0.250000*%
G04 #@! TD*
G04 APERTURE END LIST*
D10*
X69088000Y-101666000D03*
X69088000Y-103566000D03*
D11*
X78184000Y-104960000D03*
D12*
X78184000Y-107500000D03*
X78184000Y-110040000D03*
D13*
X67630000Y-113030000D03*
X69530000Y-113030000D03*
D14*
X56642000Y-105598000D03*
X56642000Y-103698000D03*
X54610000Y-105598000D03*
X54610000Y-103698000D03*
D11*
X51816000Y-110040000D03*
D12*
X51816000Y-107500000D03*
X51816000Y-104960000D03*
D10*
X56642000Y-107254000D03*
X56642000Y-109154000D03*
D14*
X67310000Y-111186000D03*
X67310000Y-109286000D03*
D15*
X73406000Y-109323500D03*
X73406000Y-111148500D03*
D16*
X73152000Y-106340000D03*
X73152000Y-101940000D03*
D15*
X75390000Y-109323500D03*
X75390000Y-111148500D03*
D17*
X59506000Y-107061000D03*
X59506000Y-108331000D03*
X59506000Y-109601000D03*
X59506000Y-110871000D03*
X64446000Y-110871000D03*
X64446000Y-109601000D03*
X64446000Y-108331000D03*
X64446000Y-107061000D03*
D15*
X56642000Y-110847500D03*
X56642000Y-112672500D03*
D10*
X67056000Y-101666000D03*
X67056000Y-103566000D03*
D18*
X71374000Y-111148500D03*
X71374000Y-109323500D03*
D19*
X64484000Y-103378000D03*
X60484000Y-103378000D03*
D15*
X54610000Y-107291500D03*
X54610000Y-109116500D03*
D13*
X58486000Y-113030000D03*
X60386000Y-113030000D03*
D18*
X69342000Y-111148500D03*
X69342000Y-109323500D03*
D20*
X69022000Y-106680000D03*
X67122000Y-106680000D03*
D21*
X61976000Y-109728000D03*
X62484000Y-104140000D03*
X57912000Y-109220000D03*
X61976000Y-108458000D03*
X54610000Y-112776000D03*
X61976000Y-107188000D03*
X70866000Y-103632000D03*
X61976000Y-110998000D03*
X58420000Y-103632000D03*
X61976000Y-105918000D03*
X61976000Y-112268000D03*
X59436000Y-105918000D03*
X66012177Y-106199823D03*
D22*
X51816000Y-102362000D02*
X52832000Y-101346000D01*
X75438000Y-109323500D02*
X77467500Y-109323500D01*
X52832000Y-101346000D02*
X65974000Y-101346000D01*
X51816000Y-104960000D02*
X51816000Y-102362000D01*
X66482000Y-101854000D02*
X73660000Y-101854000D01*
X65974000Y-101346000D02*
X66482000Y-101854000D01*
X73660000Y-101854000D02*
X75438000Y-103632000D01*
X77467500Y-109323500D02*
X78184000Y-110040000D01*
X75438000Y-103632000D02*
X75438000Y-109323500D01*
X51861500Y-110040000D02*
X54610000Y-107291500D01*
X51816000Y-110040000D02*
X51861500Y-110040000D01*
X54610000Y-105598000D02*
X54610000Y-107291500D01*
X54610000Y-107291500D02*
X56604500Y-107291500D01*
X56642000Y-105598000D02*
X54610000Y-105598000D01*
X56642000Y-105598000D02*
X56642000Y-107254000D01*
X59506000Y-108331000D02*
X57719000Y-108331000D01*
X57719000Y-108331000D02*
X56642000Y-107254000D01*
X56604500Y-107291500D02*
X56642000Y-107254000D01*
X65659000Y-108331000D02*
X64446000Y-108331000D01*
X57912000Y-109220000D02*
X56708000Y-109220000D01*
X56708000Y-109220000D02*
X56642000Y-109154000D01*
X66614000Y-109286000D02*
X65659000Y-108331000D01*
X54713500Y-112672500D02*
X54610000Y-112776000D01*
X53435480Y-105880520D02*
X53435480Y-104872520D01*
X53435480Y-104872520D02*
X54610000Y-103698000D01*
X56642000Y-112672500D02*
X54713500Y-112672500D01*
X51816000Y-107500000D02*
X53435480Y-105880520D01*
X67310000Y-109286000D02*
X66614000Y-109286000D01*
X73152000Y-107102000D02*
X69510000Y-107102000D01*
X64484000Y-103378000D02*
X64484000Y-105124000D01*
X64484000Y-107023000D02*
X64446000Y-107061000D01*
X64484000Y-105124000D02*
X64484000Y-107023000D01*
X67532000Y-105124000D02*
X64484000Y-105124000D01*
X69510000Y-107102000D02*
X67532000Y-105124000D01*
D23*
X59506000Y-105988000D02*
X59436000Y-105918000D01*
X67122000Y-107188000D02*
X67000354Y-107188000D01*
X59506000Y-107061000D02*
X59506000Y-105988000D01*
X67000354Y-107188000D02*
X66012177Y-106199823D01*
X59506000Y-112010000D02*
X59506000Y-110871000D01*
X58486000Y-113030000D02*
X59506000Y-112010000D01*
X67630000Y-113030000D02*
X67630000Y-111506000D01*
X65725000Y-109601000D02*
X64446000Y-109601000D01*
X67630000Y-111506000D02*
X67310000Y-111186000D01*
X67310000Y-111186000D02*
X65725000Y-109601000D01*
X69530000Y-111336500D02*
X69342000Y-111148500D01*
X69530000Y-113030000D02*
X69530000Y-111336500D01*
X59506000Y-109601000D02*
X58801000Y-109601000D01*
X57554500Y-110847500D02*
X56642000Y-110847500D01*
X54610000Y-109116500D02*
X54911000Y-109116500D01*
X58801000Y-109601000D02*
X57554500Y-110847500D01*
X54911000Y-109116500D02*
X56642000Y-110847500D01*
X75438000Y-111148500D02*
X75231000Y-111148500D01*
X75231000Y-111148500D02*
X73406000Y-109323500D01*
X67142027Y-114079520D02*
X70017973Y-114079520D01*
X70017973Y-114079520D02*
X71374000Y-112723493D01*
X71374000Y-112723493D02*
X71374000Y-111148500D01*
X64446000Y-111383493D02*
X67142027Y-114079520D01*
X64446000Y-110871000D02*
X64446000Y-111383493D01*
X73406000Y-111148500D02*
X71374000Y-111148500D01*
G04 #@! TA.AperFunction,Conductor*
G36*
X53413678Y-109664669D02*
G01*
X53470514Y-109707216D01*
X53476772Y-109716394D01*
X53561522Y-109853348D01*
X53686697Y-109978305D01*
X53692927Y-109982145D01*
X53692928Y-109982146D01*
X53819795Y-110060348D01*
X53837262Y-110071115D01*
X53878832Y-110084903D01*
X53998611Y-110124632D01*
X53998613Y-110124632D01*
X54005139Y-110126797D01*
X54011975Y-110127497D01*
X54011978Y-110127498D01*
X54053802Y-110131783D01*
X54109600Y-110137500D01*
X54983906Y-110137500D01*
X55052027Y-110157502D01*
X55073001Y-110174405D01*
X55396595Y-110497999D01*
X55430621Y-110560311D01*
X55433500Y-110587094D01*
X55433500Y-111160400D01*
X55433837Y-111163646D01*
X55433837Y-111163650D01*
X55438976Y-111213173D01*
X55444474Y-111266166D01*
X55446655Y-111272702D01*
X55446655Y-111272704D01*
X55480906Y-111375365D01*
X55500450Y-111433946D01*
X55593522Y-111584348D01*
X55598704Y-111589521D01*
X55680463Y-111671138D01*
X55714542Y-111733421D01*
X55709539Y-111804241D01*
X55680618Y-111849329D01*
X55598261Y-111931829D01*
X55589249Y-111943240D01*
X55504184Y-112081243D01*
X55498037Y-112094424D01*
X55446862Y-112248710D01*
X55443995Y-112262086D01*
X55434328Y-112356438D01*
X55434000Y-112362855D01*
X55434000Y-112400385D01*
X55438475Y-112415624D01*
X55439865Y-112416829D01*
X55447548Y-112418500D01*
X56770000Y-112418500D01*
X56838121Y-112438502D01*
X56884614Y-112492158D01*
X56896000Y-112544500D01*
X56896000Y-113674884D01*
X56900475Y-113690123D01*
X56901865Y-113691328D01*
X56909548Y-113692999D01*
X57139095Y-113692999D01*
X57145614Y-113692662D01*
X57241206Y-113682743D01*
X57254603Y-113679850D01*
X57351137Y-113647645D01*
X57422086Y-113645061D01*
X57483170Y-113681245D01*
X57510535Y-113727292D01*
X57544450Y-113828946D01*
X57637522Y-113979348D01*
X57762697Y-114104305D01*
X57768927Y-114108145D01*
X57768928Y-114108146D01*
X57906288Y-114192816D01*
X57913262Y-114197115D01*
X58029539Y-114235682D01*
X58060366Y-114245907D01*
X58118726Y-114286337D01*
X58145963Y-114351902D01*
X58133430Y-114421783D01*
X58085105Y-114473795D01*
X58020699Y-114491500D01*
X50634500Y-114491500D01*
X50566379Y-114471498D01*
X50519886Y-114417842D01*
X50508500Y-114365500D01*
X50508500Y-112982095D01*
X55434001Y-112982095D01*
X55434338Y-112988614D01*
X55444257Y-113084206D01*
X55447149Y-113097600D01*
X55498588Y-113251784D01*
X55504761Y-113264962D01*
X55590063Y-113402807D01*
X55599099Y-113414208D01*
X55713829Y-113528739D01*
X55725240Y-113537751D01*
X55863243Y-113622816D01*
X55876424Y-113628963D01*
X56030710Y-113680138D01*
X56044086Y-113683005D01*
X56138438Y-113692672D01*
X56144854Y-113693000D01*
X56369885Y-113693000D01*
X56385124Y-113688525D01*
X56386329Y-113687135D01*
X56388000Y-113679452D01*
X56388000Y-112944615D01*
X56383525Y-112929376D01*
X56382135Y-112928171D01*
X56374452Y-112926500D01*
X55452116Y-112926500D01*
X55436877Y-112930975D01*
X55435672Y-112932365D01*
X55434001Y-112940048D01*
X55434001Y-112982095D01*
X50508500Y-112982095D01*
X50508500Y-111434523D01*
X50528502Y-111366402D01*
X50582158Y-111319909D01*
X50652432Y-111309805D01*
X50704079Y-111331216D01*
X50704240Y-111330921D01*
X50706959Y-111332410D01*
X50710065Y-111333697D01*
X50719295Y-111340615D01*
X50855684Y-111391745D01*
X50917866Y-111398500D01*
X52714134Y-111398500D01*
X52776316Y-111391745D01*
X52912705Y-111340615D01*
X53029261Y-111253261D01*
X53116615Y-111136705D01*
X53167745Y-111000316D01*
X53174500Y-110938134D01*
X53174500Y-109851871D01*
X53194502Y-109783750D01*
X53211405Y-109762776D01*
X53280551Y-109693630D01*
X53342863Y-109659604D01*
X53413678Y-109664669D01*
G37*
G04 #@! TD.AperFunction*
G04 #@! TA.AperFunction,Conductor*
G36*
X58717775Y-102124502D02*
G01*
X58764268Y-102178158D01*
X58774372Y-102248432D01*
X58767636Y-102274730D01*
X58735522Y-102360394D01*
X58731895Y-102375649D01*
X58726369Y-102426514D01*
X58726000Y-102433328D01*
X58726000Y-103105885D01*
X58730475Y-103121124D01*
X58731865Y-103122329D01*
X58739548Y-103124000D01*
X62223884Y-103124000D01*
X62239123Y-103119525D01*
X62240328Y-103118135D01*
X62241999Y-103110452D01*
X62241999Y-102433331D01*
X62241629Y-102426510D01*
X62236105Y-102375648D01*
X62232479Y-102360396D01*
X62200364Y-102274730D01*
X62195181Y-102203923D01*
X62229102Y-102141554D01*
X62291357Y-102107424D01*
X62318346Y-102104500D01*
X62649120Y-102104500D01*
X62717241Y-102124502D01*
X62763734Y-102178158D01*
X62773838Y-102248432D01*
X62767102Y-102274729D01*
X62732255Y-102367684D01*
X62725500Y-102429866D01*
X62725500Y-104326134D01*
X62732255Y-104388316D01*
X62783385Y-104524705D01*
X62870739Y-104641261D01*
X62987295Y-104728615D01*
X63123684Y-104779745D01*
X63185866Y-104786500D01*
X63599500Y-104786500D01*
X63667621Y-104806502D01*
X63714114Y-104860158D01*
X63725500Y-104912500D01*
X63725500Y-105096165D01*
X63725258Y-105103966D01*
X63721453Y-105165298D01*
X63723506Y-105177242D01*
X63723680Y-105178257D01*
X63725500Y-105199596D01*
X63725500Y-106126500D01*
X63705498Y-106194621D01*
X63651842Y-106241114D01*
X63599500Y-106252500D01*
X63460228Y-106252500D01*
X63370453Y-106263364D01*
X63362925Y-106266344D01*
X63362923Y-106266345D01*
X63354091Y-106269842D01*
X63230217Y-106318887D01*
X63110078Y-106410078D01*
X63018887Y-106530217D01*
X63010850Y-106550517D01*
X62969555Y-106654817D01*
X62963364Y-106670453D01*
X62952500Y-106760228D01*
X62952500Y-107361772D01*
X62963364Y-107451547D01*
X62966344Y-107459074D01*
X62966345Y-107459077D01*
X62986430Y-107509807D01*
X63018887Y-107591783D01*
X63024077Y-107598621D01*
X63024079Y-107598624D01*
X63040483Y-107620235D01*
X63065736Y-107686589D01*
X63051107Y-107756062D01*
X63040482Y-107772595D01*
X63024520Y-107793624D01*
X63016165Y-107808451D01*
X62966834Y-107933047D01*
X62962881Y-107948612D01*
X62953456Y-108026502D01*
X62953000Y-108034057D01*
X62953000Y-108058885D01*
X62957475Y-108074124D01*
X62958865Y-108075329D01*
X62966548Y-108077000D01*
X65920885Y-108077000D01*
X65936124Y-108072525D01*
X65937329Y-108071135D01*
X65939000Y-108063452D01*
X65939000Y-108034057D01*
X65938544Y-108026502D01*
X65929119Y-107948612D01*
X65925166Y-107933047D01*
X65875835Y-107808451D01*
X65867480Y-107793624D01*
X65851518Y-107772595D01*
X65826264Y-107706242D01*
X65840892Y-107636768D01*
X65851517Y-107620235D01*
X65867921Y-107598624D01*
X65867923Y-107598621D01*
X65873113Y-107591783D01*
X65928636Y-107451547D01*
X65928783Y-107450331D01*
X65963347Y-107391915D01*
X66026795Y-107360058D01*
X66097394Y-107367562D01*
X66152729Y-107412042D01*
X66168841Y-107444152D01*
X66173820Y-107459074D01*
X66180450Y-107478946D01*
X66273522Y-107629348D01*
X66398697Y-107754305D01*
X66404927Y-107758145D01*
X66404928Y-107758146D01*
X66542090Y-107842694D01*
X66549262Y-107847115D01*
X66616751Y-107869500D01*
X66710611Y-107900632D01*
X66710613Y-107900632D01*
X66717139Y-107902797D01*
X66723975Y-107903497D01*
X66723978Y-107903498D01*
X66767031Y-107907909D01*
X66821600Y-107913500D01*
X67422400Y-107913500D01*
X67425646Y-107913163D01*
X67425650Y-107913163D01*
X67521308Y-107903238D01*
X67521312Y-107903237D01*
X67528166Y-107902526D01*
X67534702Y-107900345D01*
X67534704Y-107900345D01*
X67666806Y-107856272D01*
X67695946Y-107846550D01*
X67846348Y-107753478D01*
X67971305Y-107628303D01*
X67973906Y-107624084D01*
X68031030Y-107583583D01*
X68101953Y-107580351D01*
X68163365Y-107615976D01*
X68169922Y-107623530D01*
X68173522Y-107629348D01*
X68298697Y-107754305D01*
X68304927Y-107758145D01*
X68304928Y-107758146D01*
X68442090Y-107842694D01*
X68449262Y-107847115D01*
X68516751Y-107869500D01*
X68610611Y-107900632D01*
X68610613Y-107900632D01*
X68617139Y-107902797D01*
X68623975Y-107903497D01*
X68623978Y-107903498D01*
X68667031Y-107907909D01*
X68721600Y-107913500D01*
X69322400Y-107913500D01*
X69325646Y-107913163D01*
X69325650Y-107913163D01*
X69421308Y-107903238D01*
X69421312Y-107903237D01*
X69428166Y-107902526D01*
X69434702Y-107900345D01*
X69434704Y-107900345D01*
X69534722Y-107866976D01*
X69574598Y-107860500D01*
X73196293Y-107860500D01*
X73291948Y-107849348D01*
X73306538Y-107848500D01*
X74450134Y-107848500D01*
X74462884Y-107847115D01*
X74504464Y-107842598D01*
X74512316Y-107841745D01*
X74519712Y-107838972D01*
X74524352Y-107837869D01*
X74595253Y-107841570D01*
X74652896Y-107883015D01*
X74678983Y-107949045D01*
X74679500Y-107960451D01*
X74679500Y-108260550D01*
X74659498Y-108328671D01*
X74614943Y-108367655D01*
X74616054Y-108369450D01*
X74465652Y-108462522D01*
X74464157Y-108460106D01*
X74410399Y-108481847D01*
X74340639Y-108468655D01*
X74329442Y-108461470D01*
X74329303Y-108461695D01*
X74184968Y-108372725D01*
X74184966Y-108372724D01*
X74178738Y-108368885D01*
X74047809Y-108325458D01*
X74017389Y-108315368D01*
X74017387Y-108315368D01*
X74010861Y-108313203D01*
X74004025Y-108312503D01*
X74004022Y-108312502D01*
X73960969Y-108308091D01*
X73906400Y-108302500D01*
X72905600Y-108302500D01*
X72902354Y-108302837D01*
X72902350Y-108302837D01*
X72806692Y-108312762D01*
X72806688Y-108312763D01*
X72799834Y-108313474D01*
X72793298Y-108315655D01*
X72793296Y-108315655D01*
X72712569Y-108342588D01*
X72632054Y-108369450D01*
X72481652Y-108462522D01*
X72476479Y-108467704D01*
X72470742Y-108472251D01*
X72469402Y-108470560D01*
X72416431Y-108499543D01*
X72345611Y-108494538D01*
X72308672Y-108470843D01*
X72307917Y-108471799D01*
X72290760Y-108458249D01*
X72152757Y-108373184D01*
X72139576Y-108367037D01*
X71985290Y-108315862D01*
X71971914Y-108312995D01*
X71877562Y-108303328D01*
X71871145Y-108303000D01*
X71646115Y-108303000D01*
X71630876Y-108307475D01*
X71629671Y-108308865D01*
X71628000Y-108316548D01*
X71628000Y-109451500D01*
X71607998Y-109519621D01*
X71554342Y-109566114D01*
X71502000Y-109577500D01*
X68176479Y-109577500D01*
X68108358Y-109557498D01*
X68093966Y-109546724D01*
X68088135Y-109541671D01*
X68080452Y-109540000D01*
X67182000Y-109540000D01*
X67113879Y-109519998D01*
X67067386Y-109466342D01*
X67056000Y-109414000D01*
X67056000Y-109013885D01*
X67564000Y-109013885D01*
X67568475Y-109029124D01*
X67569865Y-109030329D01*
X67577548Y-109032000D01*
X68500521Y-109032000D01*
X68568642Y-109052002D01*
X68583034Y-109062776D01*
X68588865Y-109067829D01*
X68596548Y-109069500D01*
X69069885Y-109069500D01*
X69085124Y-109065025D01*
X69086329Y-109063635D01*
X69088000Y-109055952D01*
X69088000Y-109051385D01*
X69596000Y-109051385D01*
X69600475Y-109066624D01*
X69601865Y-109067829D01*
X69609548Y-109069500D01*
X71101885Y-109069500D01*
X71117124Y-109065025D01*
X71118329Y-109063635D01*
X71120000Y-109055952D01*
X71120000Y-108321116D01*
X71115525Y-108305877D01*
X71114135Y-108304672D01*
X71106452Y-108303001D01*
X70876905Y-108303001D01*
X70870386Y-108303338D01*
X70774794Y-108313257D01*
X70761400Y-108316149D01*
X70607216Y-108367588D01*
X70594038Y-108373761D01*
X70456193Y-108459063D01*
X70439055Y-108472646D01*
X70437704Y-108470942D01*
X70384786Y-108499896D01*
X70313966Y-108494893D01*
X70276606Y-108470926D01*
X70275917Y-108471799D01*
X70258760Y-108458249D01*
X70120757Y-108373184D01*
X70107576Y-108367037D01*
X69953290Y-108315862D01*
X69939914Y-108312995D01*
X69845562Y-108303328D01*
X69839145Y-108303000D01*
X69614115Y-108303000D01*
X69598876Y-108307475D01*
X69597671Y-108308865D01*
X69596000Y-108316548D01*
X69596000Y-109051385D01*
X69088000Y-109051385D01*
X69088000Y-108321116D01*
X69083525Y-108305877D01*
X69082135Y-108304672D01*
X69074452Y-108303001D01*
X68844905Y-108303001D01*
X68838386Y-108303338D01*
X68742794Y-108313257D01*
X68729400Y-108316149D01*
X68575216Y-108367588D01*
X68562038Y-108373761D01*
X68419951Y-108461688D01*
X68351499Y-108480526D01*
X68283730Y-108459365D01*
X68264633Y-108443720D01*
X68263173Y-108442263D01*
X68251760Y-108433249D01*
X68113757Y-108348184D01*
X68100576Y-108342037D01*
X67946290Y-108290862D01*
X67932914Y-108287995D01*
X67838562Y-108278328D01*
X67832145Y-108278000D01*
X67582115Y-108278000D01*
X67566876Y-108282475D01*
X67565671Y-108283865D01*
X67564000Y-108291548D01*
X67564000Y-109013885D01*
X67056000Y-109013885D01*
X67056000Y-108296116D01*
X67051525Y-108280877D01*
X67050135Y-108279672D01*
X67042452Y-108278001D01*
X66787905Y-108278001D01*
X66781386Y-108278338D01*
X66685794Y-108288257D01*
X66672400Y-108291149D01*
X66518216Y-108342588D01*
X66505038Y-108348761D01*
X66367193Y-108434063D01*
X66355792Y-108443099D01*
X66241261Y-108557829D01*
X66232249Y-108569240D01*
X66172260Y-108666561D01*
X66119488Y-108714054D01*
X66049417Y-108725478D01*
X65984293Y-108697204D01*
X65944793Y-108638210D01*
X65939858Y-108606036D01*
X65934525Y-108587876D01*
X65933135Y-108586671D01*
X65925452Y-108585000D01*
X62971115Y-108585000D01*
X62955876Y-108589475D01*
X62954671Y-108590865D01*
X62953000Y-108598548D01*
X62953000Y-108627943D01*
X62953456Y-108635498D01*
X62962881Y-108713388D01*
X62966834Y-108728953D01*
X63016165Y-108853549D01*
X63024520Y-108868376D01*
X63040482Y-108889405D01*
X63065736Y-108955758D01*
X63051108Y-109025232D01*
X63040483Y-109041765D01*
X63024079Y-109063376D01*
X63024077Y-109063379D01*
X63018887Y-109070217D01*
X62963364Y-109210453D01*
X62952500Y-109300228D01*
X62952500Y-109901772D01*
X62963364Y-109991547D01*
X63018887Y-110131783D01*
X63024079Y-110138623D01*
X63040169Y-110159821D01*
X63065422Y-110226174D01*
X63050794Y-110295647D01*
X63040169Y-110312179D01*
X63018887Y-110340217D01*
X62990604Y-110411652D01*
X62978353Y-110442596D01*
X62963364Y-110480453D01*
X62952500Y-110570228D01*
X62952500Y-111171772D01*
X62963364Y-111261547D01*
X62966344Y-111269075D01*
X62966345Y-111269077D01*
X62982809Y-111310661D01*
X63018887Y-111401783D01*
X63110078Y-111521922D01*
X63230217Y-111613113D01*
X63270929Y-111629232D01*
X63362923Y-111665655D01*
X63362925Y-111665656D01*
X63370453Y-111668636D01*
X63460228Y-111679500D01*
X63813196Y-111679500D01*
X63881317Y-111699502D01*
X63921649Y-111741361D01*
X63937418Y-111768025D01*
X63937421Y-111768029D01*
X63941458Y-111774855D01*
X63955779Y-111789176D01*
X63968619Y-111804209D01*
X63980528Y-111820600D01*
X63986634Y-111825651D01*
X64014605Y-111848791D01*
X64023384Y-111856781D01*
X66443007Y-114276405D01*
X66477033Y-114338717D01*
X66471968Y-114409533D01*
X66429421Y-114466368D01*
X66362901Y-114491179D01*
X66353912Y-114491500D01*
X60850091Y-114491500D01*
X60781970Y-114471498D01*
X60735477Y-114417842D01*
X60725373Y-114347568D01*
X60754867Y-114282988D01*
X60810215Y-114245976D01*
X60952784Y-114198412D01*
X60965962Y-114192239D01*
X61103807Y-114106937D01*
X61115208Y-114097901D01*
X61229739Y-113983171D01*
X61238751Y-113971760D01*
X61323816Y-113833757D01*
X61329963Y-113820576D01*
X61381138Y-113666290D01*
X61384005Y-113652914D01*
X61393672Y-113558562D01*
X61394000Y-113552146D01*
X61394000Y-113302115D01*
X61389525Y-113286876D01*
X61388135Y-113285671D01*
X61380452Y-113284000D01*
X60258000Y-113284000D01*
X60189879Y-113263998D01*
X60143386Y-113210342D01*
X60132000Y-113158000D01*
X60132000Y-112902000D01*
X60152002Y-112833879D01*
X60205658Y-112787386D01*
X60258000Y-112776000D01*
X61375884Y-112776000D01*
X61391123Y-112771525D01*
X61392328Y-112770135D01*
X61393999Y-112762452D01*
X61393999Y-112507905D01*
X61393662Y-112501386D01*
X61383743Y-112405794D01*
X61380851Y-112392400D01*
X61329412Y-112238216D01*
X61323239Y-112225038D01*
X61237937Y-112087193D01*
X61228901Y-112075792D01*
X61114171Y-111961261D01*
X61102760Y-111952249D01*
X60964757Y-111867184D01*
X60951576Y-111861037D01*
X60791430Y-111807918D01*
X60733070Y-111767487D01*
X60705834Y-111701922D01*
X60718368Y-111632041D01*
X60754918Y-111587962D01*
X60841922Y-111521922D01*
X60933113Y-111401783D01*
X60969191Y-111310661D01*
X60985655Y-111269077D01*
X60985656Y-111269075D01*
X60988636Y-111261547D01*
X60999500Y-111171772D01*
X60999500Y-110570228D01*
X60988636Y-110480453D01*
X60973648Y-110442596D01*
X60961396Y-110411652D01*
X60933113Y-110340217D01*
X60911831Y-110312179D01*
X60886578Y-110245826D01*
X60901206Y-110176353D01*
X60911831Y-110159821D01*
X60927921Y-110138623D01*
X60933113Y-110131783D01*
X60988636Y-109991547D01*
X60999500Y-109901772D01*
X60999500Y-109300228D01*
X60988636Y-109210453D01*
X60933113Y-109070217D01*
X60911831Y-109042179D01*
X60886578Y-108975826D01*
X60901206Y-108906353D01*
X60911831Y-108889821D01*
X60927921Y-108868623D01*
X60933113Y-108861783D01*
X60974956Y-108756100D01*
X60985655Y-108729077D01*
X60985656Y-108729075D01*
X60988636Y-108721547D01*
X60999500Y-108631772D01*
X60999500Y-108030228D01*
X60988636Y-107940453D01*
X60933113Y-107800217D01*
X60911831Y-107772179D01*
X60886578Y-107705826D01*
X60901206Y-107636353D01*
X60911831Y-107619821D01*
X60933113Y-107591783D01*
X60965570Y-107509807D01*
X60985655Y-107459077D01*
X60985656Y-107459074D01*
X60988636Y-107451547D01*
X60999500Y-107361772D01*
X60999500Y-106760228D01*
X60988636Y-106670453D01*
X60982446Y-106654817D01*
X60941150Y-106550517D01*
X60933113Y-106530217D01*
X60841922Y-106410078D01*
X60721783Y-106318887D01*
X60597909Y-106269842D01*
X60589077Y-106266345D01*
X60589075Y-106266344D01*
X60581547Y-106263364D01*
X60491772Y-106252500D01*
X60453704Y-106252500D01*
X60385583Y-106232498D01*
X60339090Y-106178842D01*
X60329093Y-106109311D01*
X60329542Y-106107928D01*
X60332832Y-106076632D01*
X60348814Y-105924565D01*
X60349504Y-105918000D01*
X60333763Y-105768235D01*
X60330232Y-105734635D01*
X60330232Y-105734633D01*
X60329542Y-105728072D01*
X60270527Y-105546444D01*
X60249822Y-105510581D01*
X60221664Y-105461811D01*
X60175040Y-105381056D01*
X60091675Y-105288469D01*
X60051675Y-105244045D01*
X60051674Y-105244044D01*
X60047253Y-105239134D01*
X59892752Y-105126882D01*
X59886724Y-105124198D01*
X59886722Y-105124197D01*
X59724319Y-105051891D01*
X59724318Y-105051891D01*
X59718288Y-105049206D01*
X59652616Y-105035247D01*
X59590143Y-105001519D01*
X59555821Y-104939369D01*
X59560549Y-104868530D01*
X59602825Y-104811492D01*
X59669226Y-104786365D01*
X59678813Y-104786000D01*
X60211885Y-104786000D01*
X60227124Y-104781525D01*
X60228329Y-104780135D01*
X60230000Y-104772452D01*
X60230000Y-104767884D01*
X60738000Y-104767884D01*
X60742475Y-104783123D01*
X60743865Y-104784328D01*
X60751548Y-104785999D01*
X61778669Y-104785999D01*
X61785490Y-104785629D01*
X61836352Y-104780105D01*
X61851604Y-104776479D01*
X61972054Y-104731324D01*
X61987649Y-104722786D01*
X62089724Y-104646285D01*
X62102285Y-104633724D01*
X62178786Y-104531649D01*
X62187324Y-104516054D01*
X62232478Y-104395606D01*
X62236105Y-104380351D01*
X62241631Y-104329486D01*
X62242000Y-104322672D01*
X62242000Y-103650115D01*
X62237525Y-103634876D01*
X62236135Y-103633671D01*
X62228452Y-103632000D01*
X60756115Y-103632000D01*
X60740876Y-103636475D01*
X60739671Y-103637865D01*
X60738000Y-103645548D01*
X60738000Y-104767884D01*
X60230000Y-104767884D01*
X60230000Y-103650115D01*
X60225525Y-103634876D01*
X60224135Y-103633671D01*
X60216452Y-103632000D01*
X58744116Y-103632000D01*
X58728877Y-103636475D01*
X58727672Y-103637865D01*
X58726001Y-103645548D01*
X58726001Y-104322669D01*
X58726371Y-104329490D01*
X58731895Y-104380352D01*
X58735521Y-104395604D01*
X58780676Y-104516054D01*
X58789214Y-104531649D01*
X58865715Y-104633724D01*
X58878276Y-104646285D01*
X58980351Y-104722786D01*
X58995946Y-104731324D01*
X59116394Y-104776478D01*
X59131649Y-104780105D01*
X59182514Y-104785631D01*
X59189328Y-104786000D01*
X59193187Y-104786000D01*
X59261308Y-104806002D01*
X59307801Y-104859658D01*
X59317905Y-104929932D01*
X59288411Y-104994512D01*
X59228685Y-105032896D01*
X59219386Y-105035246D01*
X59153712Y-105049206D01*
X59147682Y-105051891D01*
X59147681Y-105051891D01*
X58985278Y-105124197D01*
X58985276Y-105124198D01*
X58979248Y-105126882D01*
X58824747Y-105239134D01*
X58820326Y-105244044D01*
X58820325Y-105244045D01*
X58780326Y-105288469D01*
X58696960Y-105381056D01*
X58650336Y-105461811D01*
X58622179Y-105510581D01*
X58601473Y-105546444D01*
X58542458Y-105728072D01*
X58541768Y-105734633D01*
X58541768Y-105734635D01*
X58538237Y-105768235D01*
X58522496Y-105918000D01*
X58523186Y-105924565D01*
X58539169Y-106076632D01*
X58542458Y-106107928D01*
X58543850Y-106112211D01*
X58538507Y-106182224D01*
X58495690Y-106238856D01*
X58445897Y-106258695D01*
X58446330Y-106260401D01*
X58438494Y-106262391D01*
X58430453Y-106263364D01*
X58422925Y-106266344D01*
X58422923Y-106266345D01*
X58414091Y-106269842D01*
X58290217Y-106318887D01*
X58170078Y-106410078D01*
X58078887Y-106530217D01*
X58075726Y-106538201D01*
X58029555Y-106654817D01*
X57985881Y-106710790D01*
X57918878Y-106734267D01*
X57849819Y-106717791D01*
X57805259Y-106674736D01*
X57803533Y-106671946D01*
X57715478Y-106529652D01*
X57700890Y-106515089D01*
X57666812Y-106452806D01*
X57671816Y-106381986D01*
X57700736Y-106336899D01*
X57711134Y-106326483D01*
X57716305Y-106321303D01*
X57726523Y-106304726D01*
X57805275Y-106176968D01*
X57805276Y-106176966D01*
X57809115Y-106170738D01*
X57864797Y-106002861D01*
X57875500Y-105898400D01*
X57875500Y-105297600D01*
X57870361Y-105248069D01*
X57865238Y-105198692D01*
X57865237Y-105198688D01*
X57864526Y-105191834D01*
X57859997Y-105178257D01*
X57810868Y-105031002D01*
X57808550Y-105024054D01*
X57715478Y-104873652D01*
X57590303Y-104748695D01*
X57585765Y-104745898D01*
X57545176Y-104688647D01*
X57541946Y-104617724D01*
X57577572Y-104556313D01*
X57586068Y-104548938D01*
X57596207Y-104540902D01*
X57710739Y-104426171D01*
X57719751Y-104414760D01*
X57804816Y-104276757D01*
X57810963Y-104263576D01*
X57862138Y-104109290D01*
X57865005Y-104095914D01*
X57874672Y-104001562D01*
X57875000Y-103995146D01*
X57875000Y-103970115D01*
X57870525Y-103954876D01*
X57869135Y-103953671D01*
X57861452Y-103952000D01*
X53395116Y-103952000D01*
X53379877Y-103956475D01*
X53378672Y-103957865D01*
X53377001Y-103965548D01*
X53377001Y-103995095D01*
X53377338Y-104001614D01*
X53387257Y-104097206D01*
X53390149Y-104110600D01*
X53441588Y-104264784D01*
X53447761Y-104277962D01*
X53533063Y-104415807D01*
X53542099Y-104427208D01*
X53656828Y-104541738D01*
X53665762Y-104548794D01*
X53706823Y-104606712D01*
X53710053Y-104677635D01*
X53674426Y-104739046D01*
X53666593Y-104745846D01*
X53660652Y-104749522D01*
X53535695Y-104874697D01*
X53531855Y-104880927D01*
X53531854Y-104880928D01*
X53461840Y-104994512D01*
X53442885Y-105025262D01*
X53440581Y-105032209D01*
X53420867Y-105091645D01*
X53380437Y-105150005D01*
X53314873Y-105177242D01*
X53244991Y-105164709D01*
X53192979Y-105116384D01*
X53175350Y-105047611D01*
X53176352Y-105035533D01*
X53177092Y-105029914D01*
X53177093Y-105029902D01*
X53177529Y-105026590D01*
X53178747Y-104976739D01*
X53179074Y-104963365D01*
X53179074Y-104963361D01*
X53179156Y-104960000D01*
X53160852Y-104737361D01*
X53106431Y-104520702D01*
X53017354Y-104315840D01*
X52910394Y-104150505D01*
X52898822Y-104132617D01*
X52898820Y-104132614D01*
X52896014Y-104128277D01*
X52745670Y-103963051D01*
X52739104Y-103957865D01*
X52622407Y-103865703D01*
X52581345Y-103807785D01*
X52574500Y-103766821D01*
X52574500Y-103425885D01*
X53377000Y-103425885D01*
X53381475Y-103441124D01*
X53382865Y-103442329D01*
X53390548Y-103444000D01*
X54337885Y-103444000D01*
X54353124Y-103439525D01*
X54354329Y-103438135D01*
X54356000Y-103430452D01*
X54356000Y-103425885D01*
X54864000Y-103425885D01*
X54868475Y-103441124D01*
X54869865Y-103442329D01*
X54877548Y-103444000D01*
X56369885Y-103444000D01*
X56385124Y-103439525D01*
X56386329Y-103438135D01*
X56388000Y-103430452D01*
X56388000Y-103425885D01*
X56896000Y-103425885D01*
X56900475Y-103441124D01*
X56901865Y-103442329D01*
X56909548Y-103444000D01*
X57856884Y-103444000D01*
X57872123Y-103439525D01*
X57873328Y-103438135D01*
X57874999Y-103430452D01*
X57874999Y-103400905D01*
X57874662Y-103394386D01*
X57864743Y-103298794D01*
X57861851Y-103285400D01*
X57810412Y-103131216D01*
X57804239Y-103118038D01*
X57718937Y-102980193D01*
X57709901Y-102968792D01*
X57595171Y-102854261D01*
X57583760Y-102845249D01*
X57445757Y-102760184D01*
X57432576Y-102754037D01*
X57278290Y-102702862D01*
X57264914Y-102699995D01*
X57170562Y-102690328D01*
X57164145Y-102690000D01*
X56914115Y-102690000D01*
X56898876Y-102694475D01*
X56897671Y-102695865D01*
X56896000Y-102703548D01*
X56896000Y-103425885D01*
X56388000Y-103425885D01*
X56388000Y-102708116D01*
X56383525Y-102692877D01*
X56382135Y-102691672D01*
X56374452Y-102690001D01*
X56119905Y-102690001D01*
X56113386Y-102690338D01*
X56017794Y-102700257D01*
X56004400Y-102703149D01*
X55850216Y-102754588D01*
X55837038Y-102760761D01*
X55692965Y-102849917D01*
X55691337Y-102847286D01*
X55638418Y-102868696D01*
X55568656Y-102855515D01*
X55558175Y-102848792D01*
X55557991Y-102849090D01*
X55413757Y-102760184D01*
X55400576Y-102754037D01*
X55246290Y-102702862D01*
X55232914Y-102699995D01*
X55138562Y-102690328D01*
X55132145Y-102690000D01*
X54882115Y-102690000D01*
X54866876Y-102694475D01*
X54865671Y-102695865D01*
X54864000Y-102703548D01*
X54864000Y-103425885D01*
X54356000Y-103425885D01*
X54356000Y-102708116D01*
X54351525Y-102692877D01*
X54350135Y-102691672D01*
X54342452Y-102690001D01*
X54087905Y-102690001D01*
X54081386Y-102690338D01*
X53985794Y-102700257D01*
X53972400Y-102703149D01*
X53818216Y-102754588D01*
X53805038Y-102760761D01*
X53667193Y-102846063D01*
X53655792Y-102855099D01*
X53541261Y-102969829D01*
X53532249Y-102981240D01*
X53447184Y-103119243D01*
X53441037Y-103132424D01*
X53389862Y-103286710D01*
X53386995Y-103300086D01*
X53377328Y-103394438D01*
X53377000Y-103400855D01*
X53377000Y-103425885D01*
X52574500Y-103425885D01*
X52574500Y-102728371D01*
X52594502Y-102660250D01*
X52611405Y-102639276D01*
X53109276Y-102141405D01*
X53171588Y-102107379D01*
X53198371Y-102104500D01*
X58649654Y-102104500D01*
X58717775Y-102124502D01*
G37*
G04 #@! TD.AperFunction*
G04 #@! TA.AperFunction,Conductor*
G36*
X79433621Y-100528502D02*
G01*
X79480114Y-100582158D01*
X79491500Y-100634500D01*
X79491500Y-103565477D01*
X79471498Y-103633598D01*
X79417842Y-103680091D01*
X79347568Y-103690195D01*
X79295921Y-103668784D01*
X79295760Y-103669079D01*
X79293041Y-103667590D01*
X79289935Y-103666303D01*
X79280705Y-103659385D01*
X79144316Y-103608255D01*
X79082134Y-103601500D01*
X77285866Y-103601500D01*
X77223684Y-103608255D01*
X77087295Y-103659385D01*
X76970739Y-103746739D01*
X76883385Y-103863295D01*
X76832255Y-103999684D01*
X76825500Y-104061866D01*
X76825500Y-105858134D01*
X76832255Y-105920316D01*
X76883385Y-106056705D01*
X76970739Y-106173261D01*
X77087295Y-106260615D01*
X77095704Y-106263767D01*
X77095705Y-106263768D01*
X77204960Y-106304726D01*
X77261725Y-106347367D01*
X77286425Y-106413929D01*
X77271218Y-106483278D01*
X77251825Y-106509759D01*
X77128590Y-106638717D01*
X77122104Y-106646727D01*
X77002098Y-106822649D01*
X76997000Y-106831623D01*
X76907338Y-107024783D01*
X76903775Y-107034470D01*
X76848389Y-107234183D01*
X76849912Y-107242607D01*
X76862292Y-107246000D01*
X78312000Y-107246000D01*
X78380121Y-107266002D01*
X78426614Y-107319658D01*
X78438000Y-107372000D01*
X78438000Y-107628000D01*
X78417998Y-107696121D01*
X78364342Y-107742614D01*
X78312000Y-107754000D01*
X76867225Y-107754000D01*
X76853694Y-107757973D01*
X76852257Y-107767966D01*
X76882565Y-107902446D01*
X76885645Y-107912275D01*
X76965770Y-108109603D01*
X76970413Y-108118794D01*
X77081694Y-108300388D01*
X77087772Y-108308691D01*
X77129187Y-108356503D01*
X77158669Y-108421089D01*
X77148554Y-108491361D01*
X77102053Y-108545009D01*
X77033949Y-108565000D01*
X76468915Y-108565000D01*
X76400794Y-108544998D01*
X76379897Y-108528173D01*
X76318483Y-108466866D01*
X76313303Y-108461695D01*
X76307069Y-108457852D01*
X76256383Y-108426608D01*
X76208890Y-108373836D01*
X76196500Y-108319349D01*
X76196500Y-103699070D01*
X76197933Y-103680120D01*
X76200099Y-103665885D01*
X76200099Y-103665881D01*
X76201199Y-103658651D01*
X76200134Y-103645548D01*
X76196915Y-103605982D01*
X76196500Y-103595767D01*
X76196500Y-103587707D01*
X76193209Y-103559480D01*
X76192778Y-103555121D01*
X76187453Y-103489660D01*
X76186860Y-103482364D01*
X76184605Y-103475403D01*
X76183418Y-103469463D01*
X76182029Y-103463588D01*
X76181182Y-103456319D01*
X76156264Y-103387670D01*
X76154847Y-103383542D01*
X76134607Y-103321064D01*
X76134606Y-103321062D01*
X76132351Y-103314101D01*
X76128555Y-103307846D01*
X76126049Y-103302372D01*
X76123330Y-103296942D01*
X76120833Y-103290063D01*
X76080814Y-103229024D01*
X76078467Y-103225305D01*
X76040595Y-103162893D01*
X76033197Y-103154516D01*
X76033224Y-103154492D01*
X76030571Y-103151500D01*
X76027868Y-103148267D01*
X76023856Y-103142148D01*
X75967617Y-103088872D01*
X75965175Y-103086494D01*
X74947405Y-102068724D01*
X74913379Y-102006412D01*
X74910500Y-101979629D01*
X74910500Y-100891866D01*
X74903745Y-100829684D01*
X74852615Y-100693295D01*
X74851362Y-100691623D01*
X74836934Y-100625650D01*
X74861671Y-100559103D01*
X74918460Y-100516493D01*
X74962623Y-100508500D01*
X79365500Y-100508500D01*
X79433621Y-100528502D01*
G37*
G04 #@! TD.AperFunction*
G04 #@! TA.AperFunction,Conductor*
G36*
X53303913Y-105231232D02*
G01*
X53357131Y-105278226D01*
X53376500Y-105345351D01*
X53376500Y-105898400D01*
X53376837Y-105901646D01*
X53376837Y-105901650D01*
X53379542Y-105927715D01*
X53387474Y-106004166D01*
X53443450Y-106171946D01*
X53536522Y-106322348D01*
X53541704Y-106327521D01*
X53576131Y-106361888D01*
X53610210Y-106424170D01*
X53605207Y-106494991D01*
X53576286Y-106540078D01*
X53560695Y-106555697D01*
X53556855Y-106561927D01*
X53556854Y-106561928D01*
X53477730Y-106690291D01*
X53467885Y-106706262D01*
X53458596Y-106734267D01*
X53416623Y-106860814D01*
X53412203Y-106874139D01*
X53401500Y-106978600D01*
X53401500Y-107218636D01*
X53381498Y-107286757D01*
X53327842Y-107333250D01*
X53257568Y-107343354D01*
X53192988Y-107313860D01*
X53153296Y-107249332D01*
X53107214Y-107065875D01*
X53103894Y-107056124D01*
X53018972Y-106860814D01*
X53014105Y-106851739D01*
X52898426Y-106672926D01*
X52892136Y-106664757D01*
X52748806Y-106507240D01*
X52741273Y-106500215D01*
X52574139Y-106368222D01*
X52565556Y-106362520D01*
X52528602Y-106342120D01*
X52478631Y-106291687D01*
X52463859Y-106222245D01*
X52488975Y-106155839D01*
X52516327Y-106129232D01*
X52555405Y-106101358D01*
X52695860Y-106001173D01*
X52854096Y-105843489D01*
X52984453Y-105662077D01*
X53044431Y-105540721D01*
X53081136Y-105466453D01*
X53081137Y-105466451D01*
X53083430Y-105461811D01*
X53129943Y-105308721D01*
X53168883Y-105249358D01*
X53233737Y-105220471D01*
X53303913Y-105231232D01*
G37*
G04 #@! TD.AperFunction*
G04 #@! TA.AperFunction,Conductor*
G36*
X71335621Y-102632502D02*
G01*
X71382114Y-102686158D01*
X71393500Y-102738500D01*
X71393500Y-102988134D01*
X71400255Y-103050316D01*
X71451385Y-103186705D01*
X71538739Y-103303261D01*
X71655295Y-103390615D01*
X71791684Y-103441745D01*
X71853866Y-103448500D01*
X74129629Y-103448500D01*
X74197750Y-103468502D01*
X74218724Y-103485405D01*
X74642595Y-103909276D01*
X74676621Y-103971588D01*
X74679500Y-103998371D01*
X74679500Y-104719549D01*
X74659498Y-104787670D01*
X74605842Y-104834163D01*
X74535568Y-104844267D01*
X74524352Y-104842131D01*
X74519712Y-104841028D01*
X74512316Y-104838255D01*
X74450134Y-104831500D01*
X71853866Y-104831500D01*
X71791684Y-104838255D01*
X71655295Y-104889385D01*
X71538739Y-104976739D01*
X71451385Y-105093295D01*
X71400255Y-105229684D01*
X71393500Y-105291866D01*
X71393500Y-106217500D01*
X71373498Y-106285621D01*
X71319842Y-106332114D01*
X71267500Y-106343500D01*
X70156500Y-106343500D01*
X70088379Y-106323498D01*
X70041886Y-106269842D01*
X70030500Y-106217500D01*
X70030500Y-106154600D01*
X70027868Y-106129232D01*
X70020238Y-106055692D01*
X70020237Y-106055688D01*
X70019526Y-106048834D01*
X70001907Y-105996022D01*
X69965868Y-105888002D01*
X69963550Y-105881054D01*
X69870478Y-105730652D01*
X69745303Y-105605695D01*
X69594738Y-105512885D01*
X69514995Y-105486436D01*
X69433389Y-105459368D01*
X69433387Y-105459368D01*
X69426861Y-105457203D01*
X69420025Y-105456503D01*
X69420022Y-105456502D01*
X69376969Y-105452091D01*
X69322400Y-105446500D01*
X68979371Y-105446500D01*
X68911250Y-105426498D01*
X68890276Y-105409595D01*
X68214554Y-104733873D01*
X68180528Y-104671561D01*
X68185593Y-104600746D01*
X68228140Y-104543910D01*
X68294660Y-104519099D01*
X68343317Y-104525185D01*
X68451710Y-104561138D01*
X68465086Y-104564005D01*
X68559438Y-104573672D01*
X68565854Y-104574000D01*
X68815885Y-104574000D01*
X68831124Y-104569525D01*
X68832329Y-104568135D01*
X68834000Y-104560452D01*
X68834000Y-104555884D01*
X69342000Y-104555884D01*
X69346475Y-104571123D01*
X69347865Y-104572328D01*
X69355548Y-104573999D01*
X69610095Y-104573999D01*
X69616614Y-104573662D01*
X69712206Y-104563743D01*
X69725600Y-104560851D01*
X69879784Y-104509412D01*
X69892962Y-104503239D01*
X70030807Y-104417937D01*
X70042208Y-104408901D01*
X70156739Y-104294171D01*
X70165751Y-104282760D01*
X70250816Y-104144757D01*
X70256963Y-104131576D01*
X70308138Y-103977290D01*
X70311005Y-103963914D01*
X70320672Y-103869562D01*
X70321000Y-103863146D01*
X70321000Y-103838115D01*
X70316525Y-103822876D01*
X70315135Y-103821671D01*
X70307452Y-103820000D01*
X69360115Y-103820000D01*
X69344876Y-103824475D01*
X69343671Y-103825865D01*
X69342000Y-103833548D01*
X69342000Y-104555884D01*
X68834000Y-104555884D01*
X68834000Y-103838115D01*
X68829525Y-103822876D01*
X68828135Y-103821671D01*
X68820452Y-103820000D01*
X66928000Y-103820000D01*
X66859879Y-103799998D01*
X66813386Y-103746342D01*
X66802000Y-103694000D01*
X66802000Y-103438000D01*
X66822002Y-103369879D01*
X66875658Y-103323386D01*
X66928000Y-103312000D01*
X70302884Y-103312000D01*
X70318123Y-103307525D01*
X70319328Y-103306135D01*
X70320999Y-103298452D01*
X70320999Y-103268905D01*
X70320662Y-103262386D01*
X70310743Y-103166794D01*
X70307851Y-103153400D01*
X70256412Y-102999216D01*
X70250239Y-102986038D01*
X70164937Y-102848193D01*
X70155901Y-102836792D01*
X70146766Y-102827673D01*
X70112687Y-102765391D01*
X70117690Y-102694571D01*
X70160187Y-102637698D01*
X70226685Y-102612829D01*
X70235784Y-102612500D01*
X71267500Y-102612500D01*
X71335621Y-102632502D01*
G37*
G04 #@! TD.AperFunction*
M02*
