G04 #@! TF.GenerationSoftware,KiCad,Pcbnew,(6.0.4)*
G04 #@! TF.CreationDate,2022-05-06T11:38:26-05:00*
G04 #@! TF.ProjectId,12v_buck_converter,3132765f-6275-4636-9b5f-636f6e766572,rev?*
G04 #@! TF.SameCoordinates,Original*
G04 #@! TF.FileFunction,Legend,Top*
G04 #@! TF.FilePolarity,Positive*
%FSLAX46Y46*%
G04 Gerber Fmt 4.6, Leading zero omitted, Abs format (unit mm)*
G04 Created by KiCad (PCBNEW (6.0.4)) date 2022-05-06 11:38:26*
%MOMM*%
%LPD*%
G01*
G04 APERTURE LIST*
G04 Aperture macros list*
%AMRoundRect*
0 Rectangle with rounded corners*
0 $1 Rounding radius*
0 $2 $3 $4 $5 $6 $7 $8 $9 X,Y pos of 4 corners*
0 Add a 4 corners polygon primitive as box body*
4,1,4,$2,$3,$4,$5,$6,$7,$8,$9,$2,$3,0*
0 Add four circle primitives for the rounded corners*
1,1,$1+$1,$2,$3*
1,1,$1+$1,$4,$5*
1,1,$1+$1,$6,$7*
1,1,$1+$1,$8,$9*
0 Add four rect primitives between the rounded corners*
20,1,$1+$1,$2,$3,$4,$5,0*
20,1,$1+$1,$4,$5,$6,$7,0*
20,1,$1+$1,$6,$7,$8,$9,0*
20,1,$1+$1,$8,$9,$2,$3,0*%
G04 Aperture macros list end*
%ADD10C,0.100000*%
%ADD11C,0.150000*%
%ADD12C,0.120000*%
%ADD13C,0.127000*%
%ADD14C,0.200000*%
%ADD15RoundRect,0.250000X-0.475000X0.250000X-0.475000X-0.250000X0.475000X-0.250000X0.475000X0.250000X0*%
%ADD16R,1.700000X1.700000*%
%ADD17O,1.700000X1.700000*%
%ADD18RoundRect,0.250000X-0.250000X-0.475000X0.250000X-0.475000X0.250000X0.475000X-0.250000X0.475000X0*%
%ADD19RoundRect,0.250000X0.475000X-0.250000X0.475000X0.250000X-0.475000X0.250000X-0.475000X-0.250000X0*%
%ADD20RoundRect,0.250000X-0.450000X0.262500X-0.450000X-0.262500X0.450000X-0.262500X0.450000X0.262500X0*%
%ADD21R,2.500000X2.000000*%
%ADD22RoundRect,0.042000X-0.943000X-0.258000X0.943000X-0.258000X0.943000X0.258000X-0.943000X0.258000X0*%
%ADD23RoundRect,0.250000X0.450000X-0.262500X0.450000X0.262500X-0.450000X0.262500X-0.450000X-0.262500X0*%
%ADD24R,2.500000X1.800000*%
%ADD25RoundRect,0.250000X0.250000X0.475000X-0.250000X0.475000X-0.250000X-0.475000X0.250000X-0.475000X0*%
G04 APERTURE END LIST*
D10*
X69208666Y-105187714D02*
X69170571Y-105225809D01*
X69056285Y-105263904D01*
X68980095Y-105263904D01*
X68865809Y-105225809D01*
X68789619Y-105149619D01*
X68751523Y-105073428D01*
X68713428Y-104921047D01*
X68713428Y-104806761D01*
X68751523Y-104654380D01*
X68789619Y-104578190D01*
X68865809Y-104502000D01*
X68980095Y-104463904D01*
X69056285Y-104463904D01*
X69170571Y-104502000D01*
X69208666Y-104540095D01*
X69475333Y-104463904D02*
X70008666Y-104463904D01*
X69665809Y-105263904D01*
D11*
X77850666Y-111974380D02*
X77850666Y-112688666D01*
X77803047Y-112831523D01*
X77707809Y-112926761D01*
X77564952Y-112974380D01*
X77469714Y-112974380D01*
X78279238Y-112069619D02*
X78326857Y-112022000D01*
X78422095Y-111974380D01*
X78660190Y-111974380D01*
X78755428Y-112022000D01*
X78803047Y-112069619D01*
X78850666Y-112164857D01*
X78850666Y-112260095D01*
X78803047Y-112402952D01*
X78231619Y-112974380D01*
X78850666Y-112974380D01*
D10*
X70986666Y-113315714D02*
X70948571Y-113353809D01*
X70834285Y-113391904D01*
X70758095Y-113391904D01*
X70643809Y-113353809D01*
X70567619Y-113277619D01*
X70529523Y-113201428D01*
X70491428Y-113049047D01*
X70491428Y-112934761D01*
X70529523Y-112782380D01*
X70567619Y-112706190D01*
X70643809Y-112630000D01*
X70758095Y-112591904D01*
X70834285Y-112591904D01*
X70948571Y-112630000D01*
X70986666Y-112668095D01*
X71672380Y-112591904D02*
X71520000Y-112591904D01*
X71443809Y-112630000D01*
X71405714Y-112668095D01*
X71329523Y-112782380D01*
X71291428Y-112934761D01*
X71291428Y-113239523D01*
X71329523Y-113315714D01*
X71367619Y-113353809D01*
X71443809Y-113391904D01*
X71596190Y-113391904D01*
X71672380Y-113353809D01*
X71710476Y-113315714D01*
X71748571Y-113239523D01*
X71748571Y-113049047D01*
X71710476Y-112972857D01*
X71672380Y-112934761D01*
X71596190Y-112896666D01*
X71443809Y-112896666D01*
X71367619Y-112934761D01*
X71329523Y-112972857D01*
X71291428Y-113049047D01*
X56508666Y-102647714D02*
X56470571Y-102685809D01*
X56356285Y-102723904D01*
X56280095Y-102723904D01*
X56165809Y-102685809D01*
X56089619Y-102609619D01*
X56051523Y-102533428D01*
X56013428Y-102381047D01*
X56013428Y-102266761D01*
X56051523Y-102114380D01*
X56089619Y-102038190D01*
X56165809Y-101962000D01*
X56280095Y-101923904D01*
X56356285Y-101923904D01*
X56470571Y-101962000D01*
X56508666Y-102000095D01*
X56775333Y-101923904D02*
X57270571Y-101923904D01*
X57003904Y-102228666D01*
X57118190Y-102228666D01*
X57194380Y-102266761D01*
X57232476Y-102304857D01*
X57270571Y-102381047D01*
X57270571Y-102571523D01*
X57232476Y-102647714D01*
X57194380Y-102685809D01*
X57118190Y-102723904D01*
X56889619Y-102723904D01*
X56813428Y-102685809D01*
X56775333Y-102647714D01*
X54476666Y-102647714D02*
X54438571Y-102685809D01*
X54324285Y-102723904D01*
X54248095Y-102723904D01*
X54133809Y-102685809D01*
X54057619Y-102609619D01*
X54019523Y-102533428D01*
X53981428Y-102381047D01*
X53981428Y-102266761D01*
X54019523Y-102114380D01*
X54057619Y-102038190D01*
X54133809Y-101962000D01*
X54248095Y-101923904D01*
X54324285Y-101923904D01*
X54438571Y-101962000D01*
X54476666Y-102000095D01*
X54781428Y-102000095D02*
X54819523Y-101962000D01*
X54895714Y-101923904D01*
X55086190Y-101923904D01*
X55162380Y-101962000D01*
X55200476Y-102000095D01*
X55238571Y-102076285D01*
X55238571Y-102152476D01*
X55200476Y-102266761D01*
X54743333Y-102723904D01*
X55238571Y-102723904D01*
D11*
X51482666Y-111822380D02*
X51482666Y-112536666D01*
X51435047Y-112679523D01*
X51339809Y-112774761D01*
X51196952Y-112822380D01*
X51101714Y-112822380D01*
X52482666Y-112822380D02*
X51911238Y-112822380D01*
X52196952Y-112822380D02*
X52196952Y-111822380D01*
X52101714Y-111965238D01*
X52006476Y-112060476D01*
X51911238Y-112108095D01*
D10*
X58221714Y-107575333D02*
X58259809Y-107613428D01*
X58297904Y-107727714D01*
X58297904Y-107803904D01*
X58259809Y-107918190D01*
X58183619Y-107994380D01*
X58107428Y-108032476D01*
X57955047Y-108070571D01*
X57840761Y-108070571D01*
X57688380Y-108032476D01*
X57612190Y-107994380D01*
X57536000Y-107918190D01*
X57497904Y-107803904D01*
X57497904Y-107727714D01*
X57536000Y-107613428D01*
X57574095Y-107575333D01*
X58297904Y-106813428D02*
X58297904Y-107270571D01*
X58297904Y-107042000D02*
X57497904Y-107042000D01*
X57612190Y-107118190D01*
X57688380Y-107194380D01*
X57726476Y-107270571D01*
X67176666Y-108489714D02*
X67138571Y-108527809D01*
X67024285Y-108565904D01*
X66948095Y-108565904D01*
X66833809Y-108527809D01*
X66757619Y-108451619D01*
X66719523Y-108375428D01*
X66681428Y-108223047D01*
X66681428Y-108108761D01*
X66719523Y-107956380D01*
X66757619Y-107880190D01*
X66833809Y-107804000D01*
X66948095Y-107765904D01*
X67024285Y-107765904D01*
X67138571Y-107804000D01*
X67176666Y-107842095D01*
X67633809Y-108108761D02*
X67557619Y-108070666D01*
X67519523Y-108032571D01*
X67481428Y-107956380D01*
X67481428Y-107918285D01*
X67519523Y-107842095D01*
X67557619Y-107804000D01*
X67633809Y-107765904D01*
X67786190Y-107765904D01*
X67862380Y-107804000D01*
X67900476Y-107842095D01*
X67938571Y-107918285D01*
X67938571Y-107956380D01*
X67900476Y-108032571D01*
X67862380Y-108070666D01*
X67786190Y-108108761D01*
X67633809Y-108108761D01*
X67557619Y-108146857D01*
X67519523Y-108184952D01*
X67481428Y-108261142D01*
X67481428Y-108413523D01*
X67519523Y-108489714D01*
X67557619Y-108527809D01*
X67633809Y-108565904D01*
X67786190Y-108565904D01*
X67862380Y-108527809D01*
X67900476Y-108489714D01*
X67938571Y-108413523D01*
X67938571Y-108261142D01*
X67900476Y-108184952D01*
X67862380Y-108146857D01*
X67786190Y-108108761D01*
X73272666Y-108565904D02*
X73006000Y-108184952D01*
X72815523Y-108565904D02*
X72815523Y-107765904D01*
X73120285Y-107765904D01*
X73196476Y-107804000D01*
X73234571Y-107842095D01*
X73272666Y-107918285D01*
X73272666Y-108032571D01*
X73234571Y-108108761D01*
X73196476Y-108146857D01*
X73120285Y-108184952D01*
X72815523Y-108184952D01*
X73996476Y-107765904D02*
X73615523Y-107765904D01*
X73577428Y-108146857D01*
X73615523Y-108108761D01*
X73691714Y-108070666D01*
X73882190Y-108070666D01*
X73958380Y-108108761D01*
X73996476Y-108146857D01*
X74034571Y-108223047D01*
X74034571Y-108413523D01*
X73996476Y-108489714D01*
X73958380Y-108527809D01*
X73882190Y-108565904D01*
X73691714Y-108565904D01*
X73615523Y-108527809D01*
X73577428Y-108489714D01*
X76574666Y-103231904D02*
X76193714Y-103231904D01*
X76193714Y-102431904D01*
X77260380Y-103231904D02*
X76803238Y-103231904D01*
X77031809Y-103231904D02*
X77031809Y-102431904D01*
X76955619Y-102546190D01*
X76879428Y-102622380D01*
X76803238Y-102660476D01*
X75256666Y-108565904D02*
X74990000Y-108184952D01*
X74799523Y-108565904D02*
X74799523Y-107765904D01*
X75104285Y-107765904D01*
X75180476Y-107804000D01*
X75218571Y-107842095D01*
X75256666Y-107918285D01*
X75256666Y-108032571D01*
X75218571Y-108108761D01*
X75180476Y-108146857D01*
X75104285Y-108184952D01*
X74799523Y-108184952D01*
X75942380Y-108032571D02*
X75942380Y-108565904D01*
X75751904Y-107727809D02*
X75561428Y-108299238D01*
X76056666Y-108299238D01*
D11*
X64008095Y-105370380D02*
X64008095Y-106179904D01*
X64055714Y-106275142D01*
X64103333Y-106322761D01*
X64198571Y-106370380D01*
X64389047Y-106370380D01*
X64484285Y-106322761D01*
X64531904Y-106275142D01*
X64579523Y-106179904D01*
X64579523Y-105370380D01*
X65579523Y-106370380D02*
X65008095Y-106370380D01*
X65293809Y-106370380D02*
X65293809Y-105370380D01*
X65198571Y-105513238D01*
X65103333Y-105608476D01*
X65008095Y-105656095D01*
D10*
X56508666Y-114153904D02*
X56242000Y-113772952D01*
X56051523Y-114153904D02*
X56051523Y-113353904D01*
X56356285Y-113353904D01*
X56432476Y-113392000D01*
X56470571Y-113430095D01*
X56508666Y-113506285D01*
X56508666Y-113620571D01*
X56470571Y-113696761D01*
X56432476Y-113734857D01*
X56356285Y-113772952D01*
X56051523Y-113772952D01*
X56813428Y-113430095D02*
X56851523Y-113392000D01*
X56927714Y-113353904D01*
X57118190Y-113353904D01*
X57194380Y-113392000D01*
X57232476Y-113430095D01*
X57270571Y-113506285D01*
X57270571Y-113582476D01*
X57232476Y-113696761D01*
X56775333Y-114153904D01*
X57270571Y-114153904D01*
X66922666Y-105187714D02*
X66884571Y-105225809D01*
X66770285Y-105263904D01*
X66694095Y-105263904D01*
X66579809Y-105225809D01*
X66503619Y-105149619D01*
X66465523Y-105073428D01*
X66427428Y-104921047D01*
X66427428Y-104806761D01*
X66465523Y-104654380D01*
X66503619Y-104578190D01*
X66579809Y-104502000D01*
X66694095Y-104463904D01*
X66770285Y-104463904D01*
X66884571Y-104502000D01*
X66922666Y-104540095D01*
X67303619Y-105263904D02*
X67456000Y-105263904D01*
X67532190Y-105225809D01*
X67570285Y-105187714D01*
X67646476Y-105073428D01*
X67684571Y-104921047D01*
X67684571Y-104616285D01*
X67646476Y-104540095D01*
X67608380Y-104502000D01*
X67532190Y-104463904D01*
X67379809Y-104463904D01*
X67303619Y-104502000D01*
X67265523Y-104540095D01*
X67227428Y-104616285D01*
X67227428Y-104806761D01*
X67265523Y-104882952D01*
X67303619Y-104921047D01*
X67379809Y-104959142D01*
X67532190Y-104959142D01*
X67608380Y-104921047D01*
X67646476Y-104882952D01*
X67684571Y-104806761D01*
X71240666Y-108565904D02*
X70974000Y-108184952D01*
X70783523Y-108565904D02*
X70783523Y-107765904D01*
X71088285Y-107765904D01*
X71164476Y-107804000D01*
X71202571Y-107842095D01*
X71240666Y-107918285D01*
X71240666Y-108032571D01*
X71202571Y-108108761D01*
X71164476Y-108146857D01*
X71088285Y-108184952D01*
X70783523Y-108184952D01*
X71926380Y-107765904D02*
X71774000Y-107765904D01*
X71697809Y-107804000D01*
X71659714Y-107842095D01*
X71583523Y-107956380D01*
X71545428Y-108108761D01*
X71545428Y-108413523D01*
X71583523Y-108489714D01*
X71621619Y-108527809D01*
X71697809Y-108565904D01*
X71850190Y-108565904D01*
X71926380Y-108527809D01*
X71964476Y-108489714D01*
X72002571Y-108413523D01*
X72002571Y-108223047D01*
X71964476Y-108146857D01*
X71926380Y-108108761D01*
X71850190Y-108070666D01*
X71697809Y-108070666D01*
X71621619Y-108108761D01*
X71583523Y-108146857D01*
X71545428Y-108223047D01*
X58845523Y-102089904D02*
X58845523Y-101289904D01*
X59036000Y-101289904D01*
X59150285Y-101328000D01*
X59226476Y-101404190D01*
X59264571Y-101480380D01*
X59302666Y-101632761D01*
X59302666Y-101747047D01*
X59264571Y-101899428D01*
X59226476Y-101975619D01*
X59150285Y-102051809D01*
X59036000Y-102089904D01*
X58845523Y-102089904D01*
X60064571Y-102089904D02*
X59607428Y-102089904D01*
X59836000Y-102089904D02*
X59836000Y-101289904D01*
X59759809Y-101404190D01*
X59683619Y-101480380D01*
X59607428Y-101518476D01*
X54476666Y-111105904D02*
X54210000Y-110724952D01*
X54019523Y-111105904D02*
X54019523Y-110305904D01*
X54324285Y-110305904D01*
X54400476Y-110344000D01*
X54438571Y-110382095D01*
X54476666Y-110458285D01*
X54476666Y-110572571D01*
X54438571Y-110648761D01*
X54400476Y-110686857D01*
X54324285Y-110724952D01*
X54019523Y-110724952D01*
X55238571Y-111105904D02*
X54781428Y-111105904D01*
X55010000Y-111105904D02*
X55010000Y-110305904D01*
X54933809Y-110420190D01*
X54857619Y-110496380D01*
X54781428Y-110534476D01*
X61842666Y-113823714D02*
X61804571Y-113861809D01*
X61690285Y-113899904D01*
X61614095Y-113899904D01*
X61499809Y-113861809D01*
X61423619Y-113785619D01*
X61385523Y-113709428D01*
X61347428Y-113557047D01*
X61347428Y-113442761D01*
X61385523Y-113290380D01*
X61423619Y-113214190D01*
X61499809Y-113138000D01*
X61614095Y-113099904D01*
X61690285Y-113099904D01*
X61804571Y-113138000D01*
X61842666Y-113176095D01*
X62566476Y-113099904D02*
X62185523Y-113099904D01*
X62147428Y-113480857D01*
X62185523Y-113442761D01*
X62261714Y-113404666D01*
X62452190Y-113404666D01*
X62528380Y-113442761D01*
X62566476Y-113480857D01*
X62604571Y-113557047D01*
X62604571Y-113747523D01*
X62566476Y-113823714D01*
X62528380Y-113861809D01*
X62452190Y-113899904D01*
X62261714Y-113899904D01*
X62185523Y-113861809D01*
X62147428Y-113823714D01*
X69208666Y-108565904D02*
X68942000Y-108184952D01*
X68751523Y-108565904D02*
X68751523Y-107765904D01*
X69056285Y-107765904D01*
X69132476Y-107804000D01*
X69170571Y-107842095D01*
X69208666Y-107918285D01*
X69208666Y-108032571D01*
X69170571Y-108108761D01*
X69132476Y-108146857D01*
X69056285Y-108184952D01*
X68751523Y-108184952D01*
X69475333Y-107765904D02*
X69970571Y-107765904D01*
X69703904Y-108070666D01*
X69818190Y-108070666D01*
X69894380Y-108108761D01*
X69932476Y-108146857D01*
X69970571Y-108223047D01*
X69970571Y-108413523D01*
X69932476Y-108489714D01*
X69894380Y-108527809D01*
X69818190Y-108565904D01*
X69589619Y-108565904D01*
X69513428Y-108527809D01*
X69475333Y-108489714D01*
X66325714Y-107575333D02*
X66363809Y-107613428D01*
X66401904Y-107727714D01*
X66401904Y-107803904D01*
X66363809Y-107918190D01*
X66287619Y-107994380D01*
X66211428Y-108032476D01*
X66059047Y-108070571D01*
X65944761Y-108070571D01*
X65792380Y-108032476D01*
X65716190Y-107994380D01*
X65640000Y-107918190D01*
X65601904Y-107803904D01*
X65601904Y-107727714D01*
X65640000Y-107613428D01*
X65678095Y-107575333D01*
X65868571Y-106889619D02*
X66401904Y-106889619D01*
X65563809Y-107080095D02*
X66135238Y-107270571D01*
X66135238Y-106775333D01*
D12*
X68353000Y-102354748D02*
X68353000Y-102877252D01*
X69823000Y-102354748D02*
X69823000Y-102877252D01*
X79514000Y-106230000D02*
X79514000Y-111370000D01*
X76854000Y-111370000D02*
X79514000Y-111370000D01*
X76854000Y-103630000D02*
X78184000Y-103630000D01*
X76854000Y-106230000D02*
X79514000Y-106230000D01*
X76854000Y-106230000D02*
X76854000Y-111370000D01*
X76854000Y-104960000D02*
X76854000Y-103630000D01*
X68318748Y-113765000D02*
X68841252Y-113765000D01*
X68318748Y-112295000D02*
X68841252Y-112295000D01*
X57377000Y-104909252D02*
X57377000Y-104386748D01*
X55907000Y-104909252D02*
X55907000Y-104386748D01*
X53875000Y-104909252D02*
X53875000Y-104386748D01*
X55345000Y-104909252D02*
X55345000Y-104386748D01*
X53146000Y-103630000D02*
X50486000Y-103630000D01*
X53146000Y-111370000D02*
X51816000Y-111370000D01*
X53146000Y-108770000D02*
X50486000Y-108770000D01*
X53146000Y-110040000D02*
X53146000Y-111370000D01*
X50486000Y-108770000D02*
X50486000Y-103630000D01*
X53146000Y-108770000D02*
X53146000Y-103630000D01*
X57377000Y-107942748D02*
X57377000Y-108465252D01*
X55907000Y-107942748D02*
X55907000Y-108465252D01*
X66575000Y-110497252D02*
X66575000Y-109974748D01*
X68045000Y-110497252D02*
X68045000Y-109974748D01*
X74141000Y-110008936D02*
X74141000Y-110463064D01*
X72671000Y-110008936D02*
X72671000Y-110463064D01*
X70452000Y-101340000D02*
X71652000Y-101340000D01*
X70452000Y-106940000D02*
X70452000Y-101340000D01*
X75852000Y-101340000D02*
X75852000Y-106940000D01*
X74652000Y-101340000D02*
X75852000Y-101340000D01*
X71652000Y-106940000D02*
X70452000Y-106940000D01*
X75852000Y-106940000D02*
X74652000Y-106940000D01*
X74655000Y-110008936D02*
X74655000Y-110463064D01*
X76125000Y-110008936D02*
X76125000Y-110463064D01*
D13*
X60026000Y-106441000D02*
X63926000Y-106441000D01*
X60026000Y-111491000D02*
X63926000Y-111491000D01*
D14*
X58036000Y-106661000D02*
G75*
G03*
X58036000Y-106661000I-100000J0D01*
G01*
D12*
X57377000Y-111532936D02*
X57377000Y-111987064D01*
X55907000Y-111532936D02*
X55907000Y-111987064D01*
X67791000Y-102354748D02*
X67791000Y-102877252D01*
X66321000Y-102354748D02*
X66321000Y-102877252D01*
X70639000Y-110463064D02*
X70639000Y-110008936D01*
X72109000Y-110463064D02*
X72109000Y-110008936D01*
X65884000Y-105028000D02*
X65884000Y-101728000D01*
X65884000Y-105028000D02*
X60484000Y-105028000D01*
X65884000Y-101728000D02*
X60484000Y-101728000D01*
X55345000Y-107976936D02*
X55345000Y-108431064D01*
X53875000Y-107976936D02*
X53875000Y-108431064D01*
X59174748Y-112295000D02*
X59697252Y-112295000D01*
X59174748Y-113765000D02*
X59697252Y-113765000D01*
X68607000Y-110463064D02*
X68607000Y-110008936D01*
X70077000Y-110463064D02*
X70077000Y-110008936D01*
X68333252Y-105945000D02*
X67810748Y-105945000D01*
X68333252Y-107415000D02*
X67810748Y-107415000D01*
%LPC*%
D15*
X69088000Y-101666000D03*
X69088000Y-103566000D03*
D16*
X78184000Y-104960000D03*
D17*
X78184000Y-107500000D03*
X78184000Y-110040000D03*
D18*
X67630000Y-113030000D03*
X69530000Y-113030000D03*
D19*
X56642000Y-105598000D03*
X56642000Y-103698000D03*
X54610000Y-105598000D03*
X54610000Y-103698000D03*
D16*
X51816000Y-110040000D03*
D17*
X51816000Y-107500000D03*
X51816000Y-104960000D03*
D15*
X56642000Y-107254000D03*
X56642000Y-109154000D03*
D19*
X67310000Y-111186000D03*
X67310000Y-109286000D03*
D20*
X73406000Y-109323500D03*
X73406000Y-111148500D03*
D21*
X73152000Y-106340000D03*
X73152000Y-101940000D03*
D20*
X75390000Y-109323500D03*
X75390000Y-111148500D03*
D22*
X59506000Y-107061000D03*
X59506000Y-108331000D03*
X59506000Y-109601000D03*
X59506000Y-110871000D03*
X64446000Y-110871000D03*
X64446000Y-109601000D03*
X64446000Y-108331000D03*
X64446000Y-107061000D03*
D20*
X56642000Y-110847500D03*
X56642000Y-112672500D03*
D15*
X67056000Y-101666000D03*
X67056000Y-103566000D03*
D23*
X71374000Y-111148500D03*
X71374000Y-109323500D03*
D24*
X64484000Y-103378000D03*
X60484000Y-103378000D03*
D20*
X54610000Y-107291500D03*
X54610000Y-109116500D03*
D18*
X58486000Y-113030000D03*
X60386000Y-113030000D03*
D23*
X69342000Y-111148500D03*
X69342000Y-109323500D03*
D25*
X69022000Y-106680000D03*
X67122000Y-106680000D03*
M02*
