G04 #@! TF.GenerationSoftware,KiCad,Pcbnew,(6.0.4)*
G04 #@! TF.CreationDate,2022-05-06T11:38:26-05:00*
G04 #@! TF.ProjectId,12v_buck_converter,3132765f-6275-4636-9b5f-636f6e766572,rev?*
G04 #@! TF.SameCoordinates,Original*
G04 #@! TF.FileFunction,Soldermask,Top*
G04 #@! TF.FilePolarity,Negative*
%FSLAX46Y46*%
G04 Gerber Fmt 4.6, Leading zero omitted, Abs format (unit mm)*
G04 Created by KiCad (PCBNEW (6.0.4)) date 2022-05-06 11:38:26*
%MOMM*%
%LPD*%
G01*
G04 APERTURE LIST*
G04 Aperture macros list*
%AMRoundRect*
0 Rectangle with rounded corners*
0 $1 Rounding radius*
0 $2 $3 $4 $5 $6 $7 $8 $9 X,Y pos of 4 corners*
0 Add a 4 corners polygon primitive as box body*
4,1,4,$2,$3,$4,$5,$6,$7,$8,$9,$2,$3,0*
0 Add four circle primitives for the rounded corners*
1,1,$1+$1,$2,$3*
1,1,$1+$1,$4,$5*
1,1,$1+$1,$6,$7*
1,1,$1+$1,$8,$9*
0 Add four rect primitives between the rounded corners*
20,1,$1+$1,$2,$3,$4,$5,0*
20,1,$1+$1,$4,$5,$6,$7,0*
20,1,$1+$1,$6,$7,$8,$9,0*
20,1,$1+$1,$8,$9,$2,$3,0*%
G04 Aperture macros list end*
%ADD10RoundRect,0.250000X-0.475000X0.250000X-0.475000X-0.250000X0.475000X-0.250000X0.475000X0.250000X0*%
%ADD11R,1.700000X1.700000*%
%ADD12O,1.700000X1.700000*%
%ADD13RoundRect,0.250000X-0.250000X-0.475000X0.250000X-0.475000X0.250000X0.475000X-0.250000X0.475000X0*%
%ADD14RoundRect,0.250000X0.475000X-0.250000X0.475000X0.250000X-0.475000X0.250000X-0.475000X-0.250000X0*%
%ADD15RoundRect,0.250000X-0.450000X0.262500X-0.450000X-0.262500X0.450000X-0.262500X0.450000X0.262500X0*%
%ADD16R,2.500000X2.000000*%
%ADD17RoundRect,0.042000X-0.943000X-0.258000X0.943000X-0.258000X0.943000X0.258000X-0.943000X0.258000X0*%
%ADD18RoundRect,0.250000X0.450000X-0.262500X0.450000X0.262500X-0.450000X0.262500X-0.450000X-0.262500X0*%
%ADD19R,2.500000X1.800000*%
%ADD20RoundRect,0.250000X0.250000X0.475000X-0.250000X0.475000X-0.250000X-0.475000X0.250000X-0.475000X0*%
G04 APERTURE END LIST*
D10*
X69088000Y-101666000D03*
X69088000Y-103566000D03*
D11*
X78184000Y-104960000D03*
D12*
X78184000Y-107500000D03*
X78184000Y-110040000D03*
D13*
X67630000Y-113030000D03*
X69530000Y-113030000D03*
D14*
X56642000Y-105598000D03*
X56642000Y-103698000D03*
X54610000Y-105598000D03*
X54610000Y-103698000D03*
D11*
X51816000Y-110040000D03*
D12*
X51816000Y-107500000D03*
X51816000Y-104960000D03*
D10*
X56642000Y-107254000D03*
X56642000Y-109154000D03*
D14*
X67310000Y-111186000D03*
X67310000Y-109286000D03*
D15*
X73406000Y-109323500D03*
X73406000Y-111148500D03*
D16*
X73152000Y-106340000D03*
X73152000Y-101940000D03*
D15*
X75390000Y-109323500D03*
X75390000Y-111148500D03*
D17*
X59506000Y-107061000D03*
X59506000Y-108331000D03*
X59506000Y-109601000D03*
X59506000Y-110871000D03*
X64446000Y-110871000D03*
X64446000Y-109601000D03*
X64446000Y-108331000D03*
X64446000Y-107061000D03*
D15*
X56642000Y-110847500D03*
X56642000Y-112672500D03*
D10*
X67056000Y-101666000D03*
X67056000Y-103566000D03*
D18*
X71374000Y-111148500D03*
X71374000Y-109323500D03*
D19*
X64484000Y-103378000D03*
X60484000Y-103378000D03*
D15*
X54610000Y-107291500D03*
X54610000Y-109116500D03*
D13*
X58486000Y-113030000D03*
X60386000Y-113030000D03*
D18*
X69342000Y-111148500D03*
X69342000Y-109323500D03*
D20*
X69022000Y-106680000D03*
X67122000Y-106680000D03*
M02*
