G04 #@! TF.GenerationSoftware,KiCad,Pcbnew,(6.0.4)*
G04 #@! TF.CreationDate,2022-05-06T11:38:26-05:00*
G04 #@! TF.ProjectId,12v_buck_converter,3132765f-6275-4636-9b5f-636f6e766572,rev?*
G04 #@! TF.SameCoordinates,Original*
G04 #@! TF.FileFunction,Copper,L2,Bot*
G04 #@! TF.FilePolarity,Positive*
%FSLAX46Y46*%
G04 Gerber Fmt 4.6, Leading zero omitted, Abs format (unit mm)*
G04 Created by KiCad (PCBNEW (6.0.4)) date 2022-05-06 11:38:26*
%MOMM*%
%LPD*%
G01*
G04 APERTURE LIST*
G04 #@! TA.AperFunction,ComponentPad*
%ADD10R,1.700000X1.700000*%
G04 #@! TD*
G04 #@! TA.AperFunction,ComponentPad*
%ADD11O,1.700000X1.700000*%
G04 #@! TD*
G04 #@! TA.AperFunction,ViaPad*
%ADD12C,0.800000*%
G04 #@! TD*
G04 #@! TA.AperFunction,Conductor*
%ADD13C,0.500000*%
G04 #@! TD*
G04 #@! TA.AperFunction,Conductor*
%ADD14C,0.250000*%
G04 #@! TD*
G04 APERTURE END LIST*
D10*
X78184000Y-104960000D03*
D11*
X78184000Y-107500000D03*
X78184000Y-110040000D03*
D10*
X51816000Y-110040000D03*
D11*
X51816000Y-107500000D03*
X51816000Y-104960000D03*
D12*
X61976000Y-109728000D03*
X62484000Y-104140000D03*
X57912000Y-109220000D03*
X61976000Y-108458000D03*
X54610000Y-112776000D03*
X61976000Y-107188000D03*
X70866000Y-103632000D03*
X61976000Y-110998000D03*
X58420000Y-103632000D03*
X61976000Y-105918000D03*
X61976000Y-112268000D03*
X59436000Y-105918000D03*
X66012177Y-106199823D03*
D13*
X79502000Y-106278000D02*
X78184000Y-104960000D01*
X51816000Y-113538000D02*
X52578000Y-114300000D01*
X52578000Y-114300000D02*
X78486000Y-114300000D01*
X51816000Y-110040000D02*
X51816000Y-113538000D01*
X78486000Y-114300000D02*
X79502000Y-113284000D01*
X79502000Y-113284000D02*
X79502000Y-106278000D01*
D14*
X60198000Y-105156000D02*
X62738000Y-105156000D01*
X62738000Y-105156000D02*
X63781823Y-106199823D01*
X59436000Y-105918000D02*
X60198000Y-105156000D01*
X63781823Y-106199823D02*
X66012177Y-106199823D01*
G04 #@! TA.AperFunction,Conductor*
G36*
X79433621Y-100528502D02*
G01*
X79480114Y-100582158D01*
X79491500Y-100634500D01*
X79491500Y-103565477D01*
X79471498Y-103633598D01*
X79417842Y-103680091D01*
X79347568Y-103690195D01*
X79295921Y-103668784D01*
X79295760Y-103669079D01*
X79293041Y-103667590D01*
X79289935Y-103666303D01*
X79280705Y-103659385D01*
X79144316Y-103608255D01*
X79082134Y-103601500D01*
X77285866Y-103601500D01*
X77223684Y-103608255D01*
X77087295Y-103659385D01*
X76970739Y-103746739D01*
X76883385Y-103863295D01*
X76832255Y-103999684D01*
X76825500Y-104061866D01*
X76825500Y-105858134D01*
X76832255Y-105920316D01*
X76883385Y-106056705D01*
X76970739Y-106173261D01*
X77087295Y-106260615D01*
X77095704Y-106263767D01*
X77095705Y-106263768D01*
X77204960Y-106304726D01*
X77261725Y-106347367D01*
X77286425Y-106413929D01*
X77271218Y-106483278D01*
X77251825Y-106509759D01*
X77128590Y-106638717D01*
X77122104Y-106646727D01*
X77002098Y-106822649D01*
X76997000Y-106831623D01*
X76907338Y-107024783D01*
X76903775Y-107034470D01*
X76848389Y-107234183D01*
X76849912Y-107242607D01*
X76862292Y-107246000D01*
X78312000Y-107246000D01*
X78380121Y-107266002D01*
X78426614Y-107319658D01*
X78438000Y-107372000D01*
X78438000Y-107628000D01*
X78417998Y-107696121D01*
X78364342Y-107742614D01*
X78312000Y-107754000D01*
X76867225Y-107754000D01*
X76853694Y-107757973D01*
X76852257Y-107767966D01*
X76882565Y-107902446D01*
X76885645Y-107912275D01*
X76965770Y-108109603D01*
X76970413Y-108118794D01*
X77081694Y-108300388D01*
X77087777Y-108308699D01*
X77227213Y-108469667D01*
X77234580Y-108476883D01*
X77398434Y-108612916D01*
X77406881Y-108618831D01*
X77475969Y-108659203D01*
X77524693Y-108710842D01*
X77537764Y-108780625D01*
X77511033Y-108846396D01*
X77470584Y-108879752D01*
X77457607Y-108886507D01*
X77453474Y-108889610D01*
X77453471Y-108889612D01*
X77357511Y-108961661D01*
X77278965Y-109020635D01*
X77124629Y-109182138D01*
X76998743Y-109366680D01*
X76904688Y-109569305D01*
X76844989Y-109784570D01*
X76821251Y-110006695D01*
X76834110Y-110229715D01*
X76835247Y-110234761D01*
X76835248Y-110234767D01*
X76859304Y-110341508D01*
X76883222Y-110447639D01*
X76967266Y-110654616D01*
X77083987Y-110845088D01*
X77230250Y-111013938D01*
X77402126Y-111156632D01*
X77595000Y-111269338D01*
X77803692Y-111349030D01*
X77808760Y-111350061D01*
X77808763Y-111350062D01*
X77916003Y-111371880D01*
X78022597Y-111393567D01*
X78027772Y-111393757D01*
X78027774Y-111393757D01*
X78240673Y-111401564D01*
X78240677Y-111401564D01*
X78245837Y-111401753D01*
X78250957Y-111401097D01*
X78250959Y-111401097D01*
X78462288Y-111374025D01*
X78462289Y-111374025D01*
X78467416Y-111373368D01*
X78472373Y-111371881D01*
X78472377Y-111371880D01*
X78581292Y-111339204D01*
X78652287Y-111338786D01*
X78712238Y-111376819D01*
X78742110Y-111441225D01*
X78743500Y-111459889D01*
X78743500Y-112917629D01*
X78723498Y-112985750D01*
X78706595Y-113006724D01*
X78208724Y-113504595D01*
X78146412Y-113538621D01*
X78119629Y-113541500D01*
X52944371Y-113541500D01*
X52876250Y-113521498D01*
X52855276Y-113504595D01*
X52611405Y-113260724D01*
X52577379Y-113198412D01*
X52574500Y-113171629D01*
X52574500Y-111524500D01*
X52594502Y-111456379D01*
X52648158Y-111409886D01*
X52700500Y-111398500D01*
X52714134Y-111398500D01*
X52776316Y-111391745D01*
X52912705Y-111340615D01*
X53029261Y-111253261D01*
X53116615Y-111136705D01*
X53167745Y-111000316D01*
X53174500Y-110938134D01*
X53174500Y-109141866D01*
X53167745Y-109079684D01*
X53116615Y-108943295D01*
X53029261Y-108826739D01*
X52912705Y-108739385D01*
X52793687Y-108694767D01*
X52736923Y-108652125D01*
X52712223Y-108585564D01*
X52727430Y-108516215D01*
X52748977Y-108487535D01*
X52850052Y-108386812D01*
X52856730Y-108378965D01*
X52981003Y-108206020D01*
X52986313Y-108197183D01*
X53080670Y-108006267D01*
X53084469Y-107996672D01*
X53146377Y-107792910D01*
X53148555Y-107782837D01*
X53149986Y-107771962D01*
X53147775Y-107757778D01*
X53134617Y-107754000D01*
X51688000Y-107754000D01*
X51619879Y-107733998D01*
X51573386Y-107680342D01*
X51562000Y-107628000D01*
X51562000Y-107372000D01*
X51582002Y-107303879D01*
X51635658Y-107257386D01*
X51688000Y-107246000D01*
X53134344Y-107246000D01*
X53147875Y-107242027D01*
X53149180Y-107232947D01*
X53107214Y-107065875D01*
X53103894Y-107056124D01*
X53018972Y-106860814D01*
X53014105Y-106851739D01*
X52898426Y-106672926D01*
X52892136Y-106664757D01*
X52748806Y-106507240D01*
X52741273Y-106500215D01*
X52574139Y-106368222D01*
X52565556Y-106362520D01*
X52528602Y-106342120D01*
X52478631Y-106291687D01*
X52463859Y-106222245D01*
X52488975Y-106155839D01*
X52516327Y-106129232D01*
X52555395Y-106101365D01*
X52695860Y-106001173D01*
X52779324Y-105918000D01*
X58522496Y-105918000D01*
X58523186Y-105924565D01*
X58537830Y-106063891D01*
X58542458Y-106107928D01*
X58601473Y-106289556D01*
X58696960Y-106454944D01*
X58701378Y-106459851D01*
X58701379Y-106459852D01*
X58796139Y-106565094D01*
X58824747Y-106596866D01*
X58918191Y-106664757D01*
X58947622Y-106686140D01*
X58979248Y-106709118D01*
X58985276Y-106711802D01*
X58985278Y-106711803D01*
X59147681Y-106784109D01*
X59153712Y-106786794D01*
X59239176Y-106804960D01*
X59334056Y-106825128D01*
X59334061Y-106825128D01*
X59340513Y-106826500D01*
X59531487Y-106826500D01*
X59537939Y-106825128D01*
X59537944Y-106825128D01*
X59632824Y-106804960D01*
X59718288Y-106786794D01*
X59724319Y-106784109D01*
X59886722Y-106711803D01*
X59886724Y-106711802D01*
X59892752Y-106709118D01*
X59924379Y-106686140D01*
X59953809Y-106664757D01*
X60047253Y-106596866D01*
X60075861Y-106565094D01*
X60170621Y-106459852D01*
X60170622Y-106459851D01*
X60175040Y-106454944D01*
X60270527Y-106289556D01*
X60329542Y-106107928D01*
X60334171Y-106063891D01*
X60346907Y-105942708D01*
X60373920Y-105877051D01*
X60383123Y-105866781D01*
X60423502Y-105826403D01*
X60485814Y-105792379D01*
X60512596Y-105789500D01*
X62423406Y-105789500D01*
X62491527Y-105809502D01*
X62512501Y-105826405D01*
X63278166Y-106592070D01*
X63285710Y-106600360D01*
X63289823Y-106606841D01*
X63295600Y-106612266D01*
X63339490Y-106653481D01*
X63342332Y-106656236D01*
X63362054Y-106675958D01*
X63365178Y-106678381D01*
X63365182Y-106678385D01*
X63365247Y-106678435D01*
X63374268Y-106686140D01*
X63406502Y-106716409D01*
X63413450Y-106720228D01*
X63413452Y-106720230D01*
X63424255Y-106726169D01*
X63440782Y-106737025D01*
X63450521Y-106744580D01*
X63450523Y-106744581D01*
X63456783Y-106749437D01*
X63497363Y-106766997D01*
X63508011Y-106772214D01*
X63537028Y-106788166D01*
X63546763Y-106793518D01*
X63554439Y-106795489D01*
X63554442Y-106795490D01*
X63566385Y-106798556D01*
X63585090Y-106804960D01*
X63603678Y-106813004D01*
X63611501Y-106814243D01*
X63611511Y-106814246D01*
X63647347Y-106819922D01*
X63658967Y-106822328D01*
X63694112Y-106831351D01*
X63701793Y-106833323D01*
X63722047Y-106833323D01*
X63741757Y-106834874D01*
X63761766Y-106838043D01*
X63769658Y-106837297D01*
X63805784Y-106833882D01*
X63817642Y-106833323D01*
X65303977Y-106833323D01*
X65372098Y-106853325D01*
X65391324Y-106869666D01*
X65391597Y-106869363D01*
X65396509Y-106873786D01*
X65400924Y-106878689D01*
X65555425Y-106990941D01*
X65561453Y-106993625D01*
X65561455Y-106993626D01*
X65653193Y-107034470D01*
X65729889Y-107068617D01*
X65823290Y-107088470D01*
X65910233Y-107106951D01*
X65910238Y-107106951D01*
X65916690Y-107108323D01*
X66107664Y-107108323D01*
X66114116Y-107106951D01*
X66114121Y-107106951D01*
X66201065Y-107088470D01*
X66294465Y-107068617D01*
X66371161Y-107034470D01*
X66462899Y-106993626D01*
X66462901Y-106993625D01*
X66468929Y-106990941D01*
X66623430Y-106878689D01*
X66660028Y-106838043D01*
X66746798Y-106741675D01*
X66746799Y-106741674D01*
X66751217Y-106736767D01*
X66826230Y-106606841D01*
X66843400Y-106577102D01*
X66843401Y-106577101D01*
X66846704Y-106571379D01*
X66905719Y-106389751D01*
X66925681Y-106199823D01*
X66905719Y-106009895D01*
X66846704Y-105828267D01*
X66751217Y-105662879D01*
X66623430Y-105520957D01*
X66468929Y-105408705D01*
X66462901Y-105406021D01*
X66462899Y-105406020D01*
X66300496Y-105333714D01*
X66300495Y-105333714D01*
X66294465Y-105331029D01*
X66201065Y-105311176D01*
X66114121Y-105292695D01*
X66114116Y-105292695D01*
X66107664Y-105291323D01*
X65916690Y-105291323D01*
X65910238Y-105292695D01*
X65910233Y-105292695D01*
X65823290Y-105311176D01*
X65729889Y-105331029D01*
X65723859Y-105333714D01*
X65723858Y-105333714D01*
X65561455Y-105406020D01*
X65561453Y-105406021D01*
X65555425Y-105408705D01*
X65400924Y-105520957D01*
X65396509Y-105525860D01*
X65391597Y-105530283D01*
X65390472Y-105529034D01*
X65337163Y-105561874D01*
X65303977Y-105566323D01*
X64096418Y-105566323D01*
X64028297Y-105546321D01*
X64007322Y-105529418D01*
X63241647Y-104763742D01*
X63234113Y-104755463D01*
X63230000Y-104748982D01*
X63180348Y-104702356D01*
X63177507Y-104699602D01*
X63157770Y-104679865D01*
X63154573Y-104677385D01*
X63145551Y-104669680D01*
X63132122Y-104657069D01*
X63113321Y-104639414D01*
X63106375Y-104635595D01*
X63106372Y-104635593D01*
X63095566Y-104629652D01*
X63079047Y-104618801D01*
X63078583Y-104618441D01*
X63063041Y-104606386D01*
X63055772Y-104603241D01*
X63055768Y-104603238D01*
X63022463Y-104588826D01*
X63011813Y-104583609D01*
X62973060Y-104562305D01*
X62953437Y-104557267D01*
X62934734Y-104550863D01*
X62923420Y-104545967D01*
X62923419Y-104545967D01*
X62916145Y-104542819D01*
X62908322Y-104541580D01*
X62908312Y-104541577D01*
X62872476Y-104535901D01*
X62860856Y-104533495D01*
X62825711Y-104524472D01*
X62825710Y-104524472D01*
X62818030Y-104522500D01*
X62797776Y-104522500D01*
X62778065Y-104520949D01*
X62765886Y-104519020D01*
X62758057Y-104517780D01*
X62728786Y-104520547D01*
X62714039Y-104521941D01*
X62702181Y-104522500D01*
X60276768Y-104522500D01*
X60265585Y-104521973D01*
X60258092Y-104520298D01*
X60250166Y-104520547D01*
X60250165Y-104520547D01*
X60190002Y-104522438D01*
X60186044Y-104522500D01*
X60158144Y-104522500D01*
X60154154Y-104523004D01*
X60142320Y-104523936D01*
X60098111Y-104525326D01*
X60090497Y-104527538D01*
X60090492Y-104527539D01*
X60078659Y-104530977D01*
X60059296Y-104534988D01*
X60039203Y-104537526D01*
X60031836Y-104540443D01*
X60031831Y-104540444D01*
X59998092Y-104553802D01*
X59986865Y-104557646D01*
X59944407Y-104569982D01*
X59937581Y-104574019D01*
X59926972Y-104580293D01*
X59909224Y-104588988D01*
X59890383Y-104596448D01*
X59883967Y-104601110D01*
X59883966Y-104601110D01*
X59854613Y-104622436D01*
X59844693Y-104628952D01*
X59813465Y-104647420D01*
X59813462Y-104647422D01*
X59806638Y-104651458D01*
X59792317Y-104665779D01*
X59777284Y-104678619D01*
X59760893Y-104690528D01*
X59755840Y-104696636D01*
X59732708Y-104724598D01*
X59724718Y-104733378D01*
X59485501Y-104972595D01*
X59423189Y-105006621D01*
X59396406Y-105009500D01*
X59340513Y-105009500D01*
X59334061Y-105010872D01*
X59334056Y-105010872D01*
X59260111Y-105026590D01*
X59153712Y-105049206D01*
X59147682Y-105051891D01*
X59147681Y-105051891D01*
X58985278Y-105124197D01*
X58985276Y-105124198D01*
X58979248Y-105126882D01*
X58824747Y-105239134D01*
X58820326Y-105244044D01*
X58820325Y-105244045D01*
X58776521Y-105292695D01*
X58696960Y-105381056D01*
X58693659Y-105386774D01*
X58610804Y-105530283D01*
X58601473Y-105546444D01*
X58542458Y-105728072D01*
X58541768Y-105734633D01*
X58541768Y-105734635D01*
X58538237Y-105768235D01*
X58522496Y-105918000D01*
X52779324Y-105918000D01*
X52854096Y-105843489D01*
X52866374Y-105826403D01*
X52981435Y-105666277D01*
X52984453Y-105662077D01*
X53031778Y-105566323D01*
X53081136Y-105466453D01*
X53081137Y-105466451D01*
X53083430Y-105461811D01*
X53148370Y-105248069D01*
X53177529Y-105026590D01*
X53179156Y-104960000D01*
X53160852Y-104737361D01*
X53106431Y-104520702D01*
X53017354Y-104315840D01*
X52896014Y-104128277D01*
X52745670Y-103963051D01*
X52741619Y-103959852D01*
X52741615Y-103959848D01*
X52574414Y-103827800D01*
X52574410Y-103827798D01*
X52570359Y-103824598D01*
X52374789Y-103716638D01*
X52369920Y-103714914D01*
X52369916Y-103714912D01*
X52169087Y-103643795D01*
X52169083Y-103643794D01*
X52164212Y-103642069D01*
X52159119Y-103641162D01*
X52159116Y-103641161D01*
X51949373Y-103603800D01*
X51949367Y-103603799D01*
X51944284Y-103602894D01*
X51870452Y-103601992D01*
X51726081Y-103600228D01*
X51726079Y-103600228D01*
X51720911Y-103600165D01*
X51500091Y-103633955D01*
X51287756Y-103703357D01*
X51089607Y-103806507D01*
X51085474Y-103809610D01*
X51085471Y-103809612D01*
X50989511Y-103881661D01*
X50910965Y-103940635D01*
X50756629Y-104102138D01*
X50753715Y-104106410D01*
X50753714Y-104106411D01*
X50738588Y-104128585D01*
X50683677Y-104173588D01*
X50613152Y-104181759D01*
X50549405Y-104150505D01*
X50512675Y-104089748D01*
X50508500Y-104057581D01*
X50508500Y-100634500D01*
X50528502Y-100566379D01*
X50582158Y-100519886D01*
X50634500Y-100508500D01*
X79365500Y-100508500D01*
X79433621Y-100528502D01*
G37*
G04 #@! TD.AperFunction*
M02*
