G04 #@! TF.GenerationSoftware,KiCad,Pcbnew,(6.0.4)*
G04 #@! TF.CreationDate,2022-05-06T11:38:26-05:00*
G04 #@! TF.ProjectId,12v_buck_converter,3132765f-6275-4636-9b5f-636f6e766572,rev?*
G04 #@! TF.SameCoordinates,Original*
G04 #@! TF.FileFunction,Legend,Bot*
G04 #@! TF.FilePolarity,Positive*
%FSLAX46Y46*%
G04 Gerber Fmt 4.6, Leading zero omitted, Abs format (unit mm)*
G04 Created by KiCad (PCBNEW (6.0.4)) date 2022-05-06 11:38:26*
%MOMM*%
%LPD*%
G01*
G04 APERTURE LIST*
%ADD10C,0.150000*%
%ADD11C,0.100000*%
%ADD12C,0.010000*%
%ADD13R,1.700000X1.700000*%
%ADD14O,1.700000X1.700000*%
G04 APERTURE END LIST*
D10*
X53340000Y-100330000D02*
X76200000Y-100330000D01*
X76200000Y-100330000D02*
X76200000Y-103632000D01*
X76200000Y-103632000D02*
X53340000Y-103632000D01*
X53340000Y-103632000D02*
X53340000Y-100330000D01*
D11*
X76947809Y-114407904D02*
X76947809Y-113607904D01*
X76604952Y-114407904D02*
X76604952Y-113988857D01*
X76643047Y-113912666D01*
X76719238Y-113874571D01*
X76833523Y-113874571D01*
X76909714Y-113912666D01*
X76947809Y-113950761D01*
X76338285Y-113874571D02*
X76033523Y-113874571D01*
X76224000Y-113607904D02*
X76224000Y-114293619D01*
X76185904Y-114369809D01*
X76109714Y-114407904D01*
X76033523Y-114407904D01*
X75881142Y-113874571D02*
X75576380Y-113874571D01*
X75766857Y-113607904D02*
X75766857Y-114293619D01*
X75728761Y-114369809D01*
X75652571Y-114407904D01*
X75576380Y-114407904D01*
X75309714Y-113874571D02*
X75309714Y-114674571D01*
X75309714Y-113912666D02*
X75233523Y-113874571D01*
X75081142Y-113874571D01*
X75004952Y-113912666D01*
X74966857Y-113950761D01*
X74928761Y-114026952D01*
X74928761Y-114255523D01*
X74966857Y-114331714D01*
X75004952Y-114369809D01*
X75081142Y-114407904D01*
X75233523Y-114407904D01*
X75309714Y-114369809D01*
X74624000Y-114369809D02*
X74547809Y-114407904D01*
X74395428Y-114407904D01*
X74319238Y-114369809D01*
X74281142Y-114293619D01*
X74281142Y-114255523D01*
X74319238Y-114179333D01*
X74395428Y-114141238D01*
X74509714Y-114141238D01*
X74585904Y-114103142D01*
X74624000Y-114026952D01*
X74624000Y-113988857D01*
X74585904Y-113912666D01*
X74509714Y-113874571D01*
X74395428Y-113874571D01*
X74319238Y-113912666D01*
X73938285Y-114331714D02*
X73900190Y-114369809D01*
X73938285Y-114407904D01*
X73976380Y-114369809D01*
X73938285Y-114331714D01*
X73938285Y-114407904D01*
X73938285Y-113912666D02*
X73900190Y-113950761D01*
X73938285Y-113988857D01*
X73976380Y-113950761D01*
X73938285Y-113912666D01*
X73938285Y-113988857D01*
X72985904Y-113569809D02*
X73671619Y-114598380D01*
X72147809Y-113569809D02*
X72833523Y-114598380D01*
X71538285Y-113874571D02*
X71538285Y-114522190D01*
X71576380Y-114598380D01*
X71614476Y-114636476D01*
X71690666Y-114674571D01*
X71804952Y-114674571D01*
X71881142Y-114636476D01*
X71538285Y-114369809D02*
X71614476Y-114407904D01*
X71766857Y-114407904D01*
X71843047Y-114369809D01*
X71881142Y-114331714D01*
X71919238Y-114255523D01*
X71919238Y-114026952D01*
X71881142Y-113950761D01*
X71843047Y-113912666D01*
X71766857Y-113874571D01*
X71614476Y-113874571D01*
X71538285Y-113912666D01*
X71157333Y-114407904D02*
X71157333Y-113874571D01*
X71157333Y-113607904D02*
X71195428Y-113646000D01*
X71157333Y-113684095D01*
X71119238Y-113646000D01*
X71157333Y-113607904D01*
X71157333Y-113684095D01*
X70890666Y-113874571D02*
X70585904Y-113874571D01*
X70776380Y-113607904D02*
X70776380Y-114293619D01*
X70738285Y-114369809D01*
X70662095Y-114407904D01*
X70585904Y-114407904D01*
X70319238Y-114407904D02*
X70319238Y-113607904D01*
X69976380Y-114407904D02*
X69976380Y-113988857D01*
X70014476Y-113912666D01*
X70090666Y-113874571D01*
X70204952Y-113874571D01*
X70281142Y-113912666D01*
X70319238Y-113950761D01*
X69252571Y-113874571D02*
X69252571Y-114407904D01*
X69595428Y-113874571D02*
X69595428Y-114293619D01*
X69557333Y-114369809D01*
X69481142Y-114407904D01*
X69366857Y-114407904D01*
X69290666Y-114369809D01*
X69252571Y-114331714D01*
X68871619Y-114407904D02*
X68871619Y-113607904D01*
X68871619Y-113912666D02*
X68795428Y-113874571D01*
X68643047Y-113874571D01*
X68566857Y-113912666D01*
X68528761Y-113950761D01*
X68490666Y-114026952D01*
X68490666Y-114255523D01*
X68528761Y-114331714D01*
X68566857Y-114369809D01*
X68643047Y-114407904D01*
X68795428Y-114407904D01*
X68871619Y-114369809D01*
X68147809Y-114331714D02*
X68109714Y-114369809D01*
X68147809Y-114407904D01*
X68185904Y-114369809D01*
X68147809Y-114331714D01*
X68147809Y-114407904D01*
X67424000Y-114369809D02*
X67500190Y-114407904D01*
X67652571Y-114407904D01*
X67728761Y-114369809D01*
X67766857Y-114331714D01*
X67804952Y-114255523D01*
X67804952Y-114026952D01*
X67766857Y-113950761D01*
X67728761Y-113912666D01*
X67652571Y-113874571D01*
X67500190Y-113874571D01*
X67424000Y-113912666D01*
X66966857Y-114407904D02*
X67043047Y-114369809D01*
X67081142Y-114331714D01*
X67119238Y-114255523D01*
X67119238Y-114026952D01*
X67081142Y-113950761D01*
X67043047Y-113912666D01*
X66966857Y-113874571D01*
X66852571Y-113874571D01*
X66776380Y-113912666D01*
X66738285Y-113950761D01*
X66700190Y-114026952D01*
X66700190Y-114255523D01*
X66738285Y-114331714D01*
X66776380Y-114369809D01*
X66852571Y-114407904D01*
X66966857Y-114407904D01*
X66357333Y-114407904D02*
X66357333Y-113874571D01*
X66357333Y-113950761D02*
X66319238Y-113912666D01*
X66243047Y-113874571D01*
X66128761Y-113874571D01*
X66052571Y-113912666D01*
X66014476Y-113988857D01*
X66014476Y-114407904D01*
X66014476Y-113988857D02*
X65976380Y-113912666D01*
X65900190Y-113874571D01*
X65785904Y-113874571D01*
X65709714Y-113912666D01*
X65671619Y-113988857D01*
X65671619Y-114407904D01*
X64719238Y-113569809D02*
X65404952Y-114598380D01*
X64109714Y-114407904D02*
X64109714Y-113988857D01*
X64147809Y-113912666D01*
X64224000Y-113874571D01*
X64376380Y-113874571D01*
X64452571Y-113912666D01*
X64109714Y-114369809D02*
X64185904Y-114407904D01*
X64376380Y-114407904D01*
X64452571Y-114369809D01*
X64490666Y-114293619D01*
X64490666Y-114217428D01*
X64452571Y-114141238D01*
X64376380Y-114103142D01*
X64185904Y-114103142D01*
X64109714Y-114065047D01*
X63728761Y-114407904D02*
X63728761Y-113607904D01*
X63652571Y-114103142D02*
X63424000Y-114407904D01*
X63424000Y-113874571D02*
X63728761Y-114179333D01*
X62738285Y-113874571D02*
X62738285Y-114407904D01*
X63081142Y-113874571D02*
X63081142Y-114293619D01*
X63043047Y-114369809D01*
X62966857Y-114407904D01*
X62852571Y-114407904D01*
X62776380Y-114369809D01*
X62738285Y-114331714D01*
X62357333Y-114407904D02*
X62357333Y-113607904D01*
X62281142Y-114103142D02*
X62052571Y-114407904D01*
X62052571Y-113874571D02*
X62357333Y-114179333D01*
X61404952Y-114369809D02*
X61481142Y-114407904D01*
X61633523Y-114407904D01*
X61709714Y-114369809D01*
X61747809Y-114293619D01*
X61747809Y-113988857D01*
X61709714Y-113912666D01*
X61633523Y-113874571D01*
X61481142Y-113874571D01*
X61404952Y-113912666D01*
X61366857Y-113988857D01*
X61366857Y-114065047D01*
X61747809Y-114141238D01*
X61024000Y-114407904D02*
X61024000Y-113874571D01*
X61024000Y-114026952D02*
X60985904Y-113950761D01*
X60947809Y-113912666D01*
X60871619Y-113874571D01*
X60795428Y-113874571D01*
X59957333Y-113569809D02*
X60643047Y-114598380D01*
X59690666Y-114407904D02*
X59690666Y-113607904D01*
X59347809Y-114407904D02*
X59347809Y-113988857D01*
X59385904Y-113912666D01*
X59462095Y-113874571D01*
X59576380Y-113874571D01*
X59652571Y-113912666D01*
X59690666Y-113950761D01*
X59043047Y-113874571D02*
X58890666Y-114407904D01*
X58738285Y-114026952D01*
X58585904Y-114407904D01*
X58433523Y-113874571D01*
X58319238Y-114484095D02*
X57709714Y-114484095D01*
X57519238Y-113874571D02*
X57519238Y-114674571D01*
X57519238Y-113912666D02*
X57443047Y-113874571D01*
X57290666Y-113874571D01*
X57214476Y-113912666D01*
X57176380Y-113950761D01*
X57138285Y-114026952D01*
X57138285Y-114255523D01*
X57176380Y-114331714D01*
X57214476Y-114369809D01*
X57290666Y-114407904D01*
X57443047Y-114407904D01*
X57519238Y-114369809D01*
X56795428Y-114407904D02*
X56795428Y-113874571D01*
X56795428Y-114026952D02*
X56757333Y-113950761D01*
X56719238Y-113912666D01*
X56643047Y-113874571D01*
X56566857Y-113874571D01*
X56185904Y-114407904D02*
X56262095Y-114369809D01*
X56300190Y-114331714D01*
X56338285Y-114255523D01*
X56338285Y-114026952D01*
X56300190Y-113950761D01*
X56262095Y-113912666D01*
X56185904Y-113874571D01*
X56071619Y-113874571D01*
X55995428Y-113912666D01*
X55957333Y-113950761D01*
X55919238Y-114026952D01*
X55919238Y-114255523D01*
X55957333Y-114331714D01*
X55995428Y-114369809D01*
X56071619Y-114407904D01*
X56185904Y-114407904D01*
X55576380Y-113874571D02*
X55576380Y-114560285D01*
X55614476Y-114636476D01*
X55690666Y-114674571D01*
X55728761Y-114674571D01*
X55576380Y-113607904D02*
X55614476Y-113646000D01*
X55576380Y-113684095D01*
X55538285Y-113646000D01*
X55576380Y-113607904D01*
X55576380Y-113684095D01*
X54890666Y-114369809D02*
X54966857Y-114407904D01*
X55119238Y-114407904D01*
X55195428Y-114369809D01*
X55233523Y-114293619D01*
X55233523Y-113988857D01*
X55195428Y-113912666D01*
X55119238Y-113874571D01*
X54966857Y-113874571D01*
X54890666Y-113912666D01*
X54852571Y-113988857D01*
X54852571Y-114065047D01*
X55233523Y-114141238D01*
X54166857Y-114369809D02*
X54243047Y-114407904D01*
X54395428Y-114407904D01*
X54471619Y-114369809D01*
X54509714Y-114331714D01*
X54547809Y-114255523D01*
X54547809Y-114026952D01*
X54509714Y-113950761D01*
X54471619Y-113912666D01*
X54395428Y-113874571D01*
X54243047Y-113874571D01*
X54166857Y-113912666D01*
X53938285Y-113874571D02*
X53633523Y-113874571D01*
X53824000Y-113607904D02*
X53824000Y-114293619D01*
X53785904Y-114369809D01*
X53709714Y-114407904D01*
X53633523Y-114407904D01*
X53404952Y-114369809D02*
X53328761Y-114407904D01*
X53176380Y-114407904D01*
X53100190Y-114369809D01*
X53062095Y-114293619D01*
X53062095Y-114255523D01*
X53100190Y-114179333D01*
X53176380Y-114141238D01*
X53290666Y-114141238D01*
X53366857Y-114103142D01*
X53404952Y-114026952D01*
X53404952Y-113988857D01*
X53366857Y-113912666D01*
X53290666Y-113874571D01*
X53176380Y-113874571D01*
X53100190Y-113912666D01*
D10*
X75945904Y-106942000D02*
X76041142Y-106894380D01*
X76184000Y-106894380D01*
X76326857Y-106942000D01*
X76422095Y-107037238D01*
X76469714Y-107132476D01*
X76517333Y-107322952D01*
X76517333Y-107465809D01*
X76469714Y-107656285D01*
X76422095Y-107751523D01*
X76326857Y-107846761D01*
X76184000Y-107894380D01*
X76088761Y-107894380D01*
X75945904Y-107846761D01*
X75898285Y-107799142D01*
X75898285Y-107465809D01*
X76088761Y-107465809D01*
X75469714Y-107894380D02*
X75469714Y-106894380D01*
X74898285Y-107894380D01*
X74898285Y-106894380D01*
X74422095Y-107894380D02*
X74422095Y-106894380D01*
X74184000Y-106894380D01*
X74041142Y-106942000D01*
X73945904Y-107037238D01*
X73898285Y-107132476D01*
X73850666Y-107322952D01*
X73850666Y-107465809D01*
X73898285Y-107656285D01*
X73945904Y-107751523D01*
X74041142Y-107846761D01*
X74184000Y-107894380D01*
X74422095Y-107894380D01*
X76676095Y-110307428D02*
X75914190Y-110307428D01*
X76295142Y-110688380D02*
X76295142Y-109926476D01*
X74961809Y-109688380D02*
X75438000Y-109688380D01*
X75485619Y-110164571D01*
X75438000Y-110116952D01*
X75342761Y-110069333D01*
X75104666Y-110069333D01*
X75009428Y-110116952D01*
X74961809Y-110164571D01*
X74914190Y-110259809D01*
X74914190Y-110497904D01*
X74961809Y-110593142D01*
X75009428Y-110640761D01*
X75104666Y-110688380D01*
X75342761Y-110688380D01*
X75438000Y-110640761D01*
X75485619Y-110593142D01*
X74580857Y-110021714D02*
X74342761Y-110688380D01*
X74104666Y-110021714D01*
X54244857Y-104608380D02*
X54721047Y-104608380D01*
X54768666Y-105084571D01*
X54721047Y-105036952D01*
X54625809Y-104989333D01*
X54387714Y-104989333D01*
X54292476Y-105036952D01*
X54244857Y-105084571D01*
X54197238Y-105179809D01*
X54197238Y-105417904D01*
X54244857Y-105513142D01*
X54292476Y-105560761D01*
X54387714Y-105608380D01*
X54625809Y-105608380D01*
X54721047Y-105560761D01*
X54768666Y-105513142D01*
X53863904Y-104941714D02*
X53625809Y-105608380D01*
X53387714Y-104941714D01*
X76644285Y-104973428D02*
X75882380Y-104973428D01*
X76263333Y-105354380D02*
X76263333Y-104592476D01*
X74882380Y-105354380D02*
X75453809Y-105354380D01*
X75168095Y-105354380D02*
X75168095Y-104354380D01*
X75263333Y-104497238D01*
X75358571Y-104592476D01*
X75453809Y-104640095D01*
X74501428Y-104449619D02*
X74453809Y-104402000D01*
X74358571Y-104354380D01*
X74120476Y-104354380D01*
X74025238Y-104402000D01*
X73977619Y-104449619D01*
X73930000Y-104544857D01*
X73930000Y-104640095D01*
X73977619Y-104782952D01*
X74549047Y-105354380D01*
X73930000Y-105354380D01*
X73596666Y-104687714D02*
X73358571Y-105354380D01*
X73120476Y-104687714D01*
X55181428Y-110434380D02*
X55752857Y-110434380D01*
X55467142Y-110434380D02*
X55467142Y-109434380D01*
X55562380Y-109577238D01*
X55657619Y-109672476D01*
X55752857Y-109720095D01*
X54800476Y-109529619D02*
X54752857Y-109482000D01*
X54657619Y-109434380D01*
X54419523Y-109434380D01*
X54324285Y-109482000D01*
X54276666Y-109529619D01*
X54229047Y-109624857D01*
X54229047Y-109720095D01*
X54276666Y-109862952D01*
X54848095Y-110434380D01*
X54229047Y-110434380D01*
X53895714Y-109767714D02*
X53657619Y-110434380D01*
X53419523Y-109767714D01*
X55371904Y-107196000D02*
X55467142Y-107148380D01*
X55610000Y-107148380D01*
X55752857Y-107196000D01*
X55848095Y-107291238D01*
X55895714Y-107386476D01*
X55943333Y-107576952D01*
X55943333Y-107719809D01*
X55895714Y-107910285D01*
X55848095Y-108005523D01*
X55752857Y-108100761D01*
X55610000Y-108148380D01*
X55514761Y-108148380D01*
X55371904Y-108100761D01*
X55324285Y-108053142D01*
X55324285Y-107719809D01*
X55514761Y-107719809D01*
X54895714Y-108148380D02*
X54895714Y-107148380D01*
X54324285Y-108148380D01*
X54324285Y-107148380D01*
X53848095Y-108148380D02*
X53848095Y-107148380D01*
X53610000Y-107148380D01*
X53467142Y-107196000D01*
X53371904Y-107291238D01*
X53324285Y-107386476D01*
X53276666Y-107576952D01*
X53276666Y-107719809D01*
X53324285Y-107910285D01*
X53371904Y-108005523D01*
X53467142Y-108100761D01*
X53610000Y-108148380D01*
X53848095Y-108148380D01*
X75079523Y-101755380D02*
X75650952Y-101755380D01*
X75365238Y-101755380D02*
X75365238Y-100755380D01*
X75460476Y-100898238D01*
X75555714Y-100993476D01*
X75650952Y-101041095D01*
X74698571Y-100850619D02*
X74650952Y-100803000D01*
X74555714Y-100755380D01*
X74317619Y-100755380D01*
X74222380Y-100803000D01*
X74174761Y-100850619D01*
X74127142Y-100945857D01*
X74127142Y-101041095D01*
X74174761Y-101183952D01*
X74746190Y-101755380D01*
X74127142Y-101755380D01*
X73793809Y-101088714D02*
X73555714Y-101755380D01*
X73317619Y-101088714D01*
X72317619Y-101088714D02*
X71936666Y-101088714D01*
X72174761Y-100755380D02*
X72174761Y-101612523D01*
X72127142Y-101707761D01*
X72031904Y-101755380D01*
X71936666Y-101755380D01*
X71460476Y-101755380D02*
X71555714Y-101707761D01*
X71603333Y-101660142D01*
X71650952Y-101564904D01*
X71650952Y-101279190D01*
X71603333Y-101183952D01*
X71555714Y-101136333D01*
X71460476Y-101088714D01*
X71317619Y-101088714D01*
X71222380Y-101136333D01*
X71174761Y-101183952D01*
X71127142Y-101279190D01*
X71127142Y-101564904D01*
X71174761Y-101660142D01*
X71222380Y-101707761D01*
X71317619Y-101755380D01*
X71460476Y-101755380D01*
X69460476Y-100755380D02*
X69936666Y-100755380D01*
X69984285Y-101231571D01*
X69936666Y-101183952D01*
X69841428Y-101136333D01*
X69603333Y-101136333D01*
X69508095Y-101183952D01*
X69460476Y-101231571D01*
X69412857Y-101326809D01*
X69412857Y-101564904D01*
X69460476Y-101660142D01*
X69508095Y-101707761D01*
X69603333Y-101755380D01*
X69841428Y-101755380D01*
X69936666Y-101707761D01*
X69984285Y-101660142D01*
X69079523Y-101088714D02*
X68841428Y-101755380D01*
X68603333Y-101088714D01*
X67555714Y-100755380D02*
X66936666Y-100755380D01*
X67270000Y-101136333D01*
X67127142Y-101136333D01*
X67031904Y-101183952D01*
X66984285Y-101231571D01*
X66936666Y-101326809D01*
X66936666Y-101564904D01*
X66984285Y-101660142D01*
X67031904Y-101707761D01*
X67127142Y-101755380D01*
X67412857Y-101755380D01*
X67508095Y-101707761D01*
X67555714Y-101660142D01*
X66555714Y-101469666D02*
X66079523Y-101469666D01*
X66650952Y-101755380D02*
X66317619Y-100755380D01*
X65984285Y-101755380D01*
X64555714Y-101231571D02*
X64412857Y-101279190D01*
X64365238Y-101326809D01*
X64317619Y-101422047D01*
X64317619Y-101564904D01*
X64365238Y-101660142D01*
X64412857Y-101707761D01*
X64508095Y-101755380D01*
X64889047Y-101755380D01*
X64889047Y-100755380D01*
X64555714Y-100755380D01*
X64460476Y-100803000D01*
X64412857Y-100850619D01*
X64365238Y-100945857D01*
X64365238Y-101041095D01*
X64412857Y-101136333D01*
X64460476Y-101183952D01*
X64555714Y-101231571D01*
X64889047Y-101231571D01*
X63460476Y-101088714D02*
X63460476Y-101755380D01*
X63889047Y-101088714D02*
X63889047Y-101612523D01*
X63841428Y-101707761D01*
X63746190Y-101755380D01*
X63603333Y-101755380D01*
X63508095Y-101707761D01*
X63460476Y-101660142D01*
X62555714Y-101707761D02*
X62650952Y-101755380D01*
X62841428Y-101755380D01*
X62936666Y-101707761D01*
X62984285Y-101660142D01*
X63031904Y-101564904D01*
X63031904Y-101279190D01*
X62984285Y-101183952D01*
X62936666Y-101136333D01*
X62841428Y-101088714D01*
X62650952Y-101088714D01*
X62555714Y-101136333D01*
X62127142Y-101755380D02*
X62127142Y-100755380D01*
X62031904Y-101374428D02*
X61746190Y-101755380D01*
X61746190Y-101088714D02*
X62127142Y-101469666D01*
X59984285Y-101660142D02*
X60031904Y-101707761D01*
X60174761Y-101755380D01*
X60270000Y-101755380D01*
X60412857Y-101707761D01*
X60508095Y-101612523D01*
X60555714Y-101517285D01*
X60603333Y-101326809D01*
X60603333Y-101183952D01*
X60555714Y-100993476D01*
X60508095Y-100898238D01*
X60412857Y-100803000D01*
X60270000Y-100755380D01*
X60174761Y-100755380D01*
X60031904Y-100803000D01*
X59984285Y-100850619D01*
X59412857Y-101755380D02*
X59508095Y-101707761D01*
X59555714Y-101660142D01*
X59603333Y-101564904D01*
X59603333Y-101279190D01*
X59555714Y-101183952D01*
X59508095Y-101136333D01*
X59412857Y-101088714D01*
X59270000Y-101088714D01*
X59174761Y-101136333D01*
X59127142Y-101183952D01*
X59079523Y-101279190D01*
X59079523Y-101564904D01*
X59127142Y-101660142D01*
X59174761Y-101707761D01*
X59270000Y-101755380D01*
X59412857Y-101755380D01*
X58650952Y-101088714D02*
X58650952Y-101755380D01*
X58650952Y-101183952D02*
X58603333Y-101136333D01*
X58508095Y-101088714D01*
X58365238Y-101088714D01*
X58270000Y-101136333D01*
X58222380Y-101231571D01*
X58222380Y-101755380D01*
X57841428Y-101088714D02*
X57603333Y-101755380D01*
X57365238Y-101088714D01*
X56603333Y-101707761D02*
X56698571Y-101755380D01*
X56889047Y-101755380D01*
X56984285Y-101707761D01*
X57031904Y-101612523D01*
X57031904Y-101231571D01*
X56984285Y-101136333D01*
X56889047Y-101088714D01*
X56698571Y-101088714D01*
X56603333Y-101136333D01*
X56555714Y-101231571D01*
X56555714Y-101326809D01*
X57031904Y-101422047D01*
X56127142Y-101755380D02*
X56127142Y-101088714D01*
X56127142Y-101279190D02*
X56079523Y-101183952D01*
X56031904Y-101136333D01*
X55936666Y-101088714D01*
X55841428Y-101088714D01*
X55650952Y-101088714D02*
X55270000Y-101088714D01*
X55508095Y-100755380D02*
X55508095Y-101612523D01*
X55460476Y-101707761D01*
X55365238Y-101755380D01*
X55270000Y-101755380D01*
X54555714Y-101707761D02*
X54650952Y-101755380D01*
X54841428Y-101755380D01*
X54936666Y-101707761D01*
X54984285Y-101612523D01*
X54984285Y-101231571D01*
X54936666Y-101136333D01*
X54841428Y-101088714D01*
X54650952Y-101088714D01*
X54555714Y-101136333D01*
X54508095Y-101231571D01*
X54508095Y-101326809D01*
X54984285Y-101422047D01*
X54079523Y-101755380D02*
X54079523Y-101088714D01*
X54079523Y-101279190D02*
X54031904Y-101183952D01*
X53984285Y-101136333D01*
X53889047Y-101088714D01*
X53793809Y-101088714D01*
X68960476Y-102365380D02*
X68627142Y-103365380D01*
X68293809Y-102365380D01*
X67579523Y-103317761D02*
X67674761Y-103365380D01*
X67865238Y-103365380D01*
X67960476Y-103317761D01*
X68008095Y-103222523D01*
X68008095Y-102841571D01*
X67960476Y-102746333D01*
X67865238Y-102698714D01*
X67674761Y-102698714D01*
X67579523Y-102746333D01*
X67531904Y-102841571D01*
X67531904Y-102936809D01*
X68008095Y-103032047D01*
X67103333Y-103365380D02*
X67103333Y-102698714D01*
X67103333Y-102889190D02*
X67055714Y-102793952D01*
X67008095Y-102746333D01*
X66912857Y-102698714D01*
X66817619Y-102698714D01*
X66531904Y-103317761D02*
X66436666Y-103365380D01*
X66246190Y-103365380D01*
X66150952Y-103317761D01*
X66103333Y-103222523D01*
X66103333Y-103174904D01*
X66150952Y-103079666D01*
X66246190Y-103032047D01*
X66389047Y-103032047D01*
X66484285Y-102984428D01*
X66531904Y-102889190D01*
X66531904Y-102841571D01*
X66484285Y-102746333D01*
X66389047Y-102698714D01*
X66246190Y-102698714D01*
X66150952Y-102746333D01*
X65674761Y-103365380D02*
X65674761Y-102698714D01*
X65674761Y-102365380D02*
X65722380Y-102413000D01*
X65674761Y-102460619D01*
X65627142Y-102413000D01*
X65674761Y-102365380D01*
X65674761Y-102460619D01*
X65055714Y-103365380D02*
X65150952Y-103317761D01*
X65198571Y-103270142D01*
X65246190Y-103174904D01*
X65246190Y-102889190D01*
X65198571Y-102793952D01*
X65150952Y-102746333D01*
X65055714Y-102698714D01*
X64912857Y-102698714D01*
X64817619Y-102746333D01*
X64770000Y-102793952D01*
X64722380Y-102889190D01*
X64722380Y-103174904D01*
X64770000Y-103270142D01*
X64817619Y-103317761D01*
X64912857Y-103365380D01*
X65055714Y-103365380D01*
X64293809Y-102698714D02*
X64293809Y-103365380D01*
X64293809Y-102793952D02*
X64246190Y-102746333D01*
X64150952Y-102698714D01*
X64008095Y-102698714D01*
X63912857Y-102746333D01*
X63865238Y-102841571D01*
X63865238Y-103365380D01*
X62103333Y-103365380D02*
X62674761Y-103365380D01*
X62389047Y-103365380D02*
X62389047Y-102365380D01*
X62484285Y-102508238D01*
X62579523Y-102603476D01*
X62674761Y-102651095D01*
X61674761Y-103270142D02*
X61627142Y-103317761D01*
X61674761Y-103365380D01*
X61722380Y-103317761D01*
X61674761Y-103270142D01*
X61674761Y-103365380D01*
X61008095Y-102365380D02*
X60912857Y-102365380D01*
X60817619Y-102413000D01*
X60770000Y-102460619D01*
X60722380Y-102555857D01*
X60674761Y-102746333D01*
X60674761Y-102984428D01*
X60722380Y-103174904D01*
X60770000Y-103270142D01*
X60817619Y-103317761D01*
X60912857Y-103365380D01*
X61008095Y-103365380D01*
X61103333Y-103317761D01*
X61150952Y-103270142D01*
X61198571Y-103174904D01*
X61246190Y-102984428D01*
X61246190Y-102746333D01*
X61198571Y-102555857D01*
X61150952Y-102460619D01*
X61103333Y-102413000D01*
X61008095Y-102365380D01*
G36*
X65537275Y-107196931D02*
G01*
X65621095Y-107641555D01*
X66239667Y-107896551D01*
X66610707Y-107644246D01*
X66684144Y-107594506D01*
X66781499Y-107529218D01*
X66865787Y-107473454D01*
X66932631Y-107430078D01*
X66977654Y-107401953D01*
X66996478Y-107391942D01*
X67008039Y-107399061D01*
X67042596Y-107428894D01*
X67094894Y-107477852D01*
X67160500Y-107541440D01*
X67234983Y-107615163D01*
X67313913Y-107694525D01*
X67392856Y-107775031D01*
X67467384Y-107852185D01*
X67533063Y-107921493D01*
X67585463Y-107978457D01*
X67620153Y-108018584D01*
X67632701Y-108037377D01*
X67629782Y-108045451D01*
X67609571Y-108081469D01*
X67572663Y-108140744D01*
X67522050Y-108218630D01*
X67460725Y-108310481D01*
X67391679Y-108411650D01*
X67353787Y-108466826D01*
X67288606Y-108562884D01*
X67232723Y-108646717D01*
X67189117Y-108713777D01*
X67160769Y-108759519D01*
X67150657Y-108779396D01*
X67150823Y-108780497D01*
X67159743Y-108805694D01*
X67180206Y-108857147D01*
X67209360Y-108928135D01*
X67244353Y-109011935D01*
X67282332Y-109101828D01*
X67320445Y-109191091D01*
X67355839Y-109273003D01*
X67385662Y-109340843D01*
X67407061Y-109387890D01*
X67417184Y-109407422D01*
X67423174Y-109409155D01*
X67459566Y-109416969D01*
X67524427Y-109429915D01*
X67612565Y-109446979D01*
X67718787Y-109467151D01*
X67837902Y-109489418D01*
X67900683Y-109501223D01*
X68015912Y-109523748D01*
X68116662Y-109544550D01*
X68197426Y-109562435D01*
X68252698Y-109576208D01*
X68276971Y-109584674D01*
X68281331Y-109593066D01*
X68288563Y-109634072D01*
X68294246Y-109702368D01*
X68298382Y-109791529D01*
X68300977Y-109895128D01*
X68302036Y-110006740D01*
X68301561Y-110119938D01*
X68299559Y-110228296D01*
X68296033Y-110325389D01*
X68290987Y-110404790D01*
X68284427Y-110460072D01*
X68276356Y-110484810D01*
X68271458Y-110487600D01*
X68234930Y-110499569D01*
X68171565Y-110515405D01*
X68088686Y-110533374D01*
X67993618Y-110551741D01*
X67961542Y-110557591D01*
X67813393Y-110584798D01*
X67696961Y-110606663D01*
X67608209Y-110624093D01*
X67543103Y-110637996D01*
X67497606Y-110649277D01*
X67467682Y-110658843D01*
X67449294Y-110667601D01*
X67438407Y-110676457D01*
X67437142Y-110677943D01*
X67419338Y-110708931D01*
X67392994Y-110765634D01*
X67360661Y-110841399D01*
X67324893Y-110929574D01*
X67288244Y-111023507D01*
X67253266Y-111116547D01*
X67222513Y-111202041D01*
X67198538Y-111273336D01*
X67183895Y-111323782D01*
X67181136Y-111346726D01*
X67182981Y-111349703D01*
X67202075Y-111378493D01*
X67237984Y-111431595D01*
X67287378Y-111504117D01*
X67346927Y-111591167D01*
X67413303Y-111687854D01*
X67431520Y-111714456D01*
X67495577Y-111809875D01*
X67550937Y-111895212D01*
X67594439Y-111965405D01*
X67622924Y-112015394D01*
X67633232Y-112040116D01*
X67631011Y-112046616D01*
X67607858Y-112078644D01*
X67562177Y-112130945D01*
X67497241Y-112199999D01*
X67416319Y-112282286D01*
X67322685Y-112374286D01*
X67269165Y-112425781D01*
X67184542Y-112505983D01*
X67110475Y-112574678D01*
X67050941Y-112628252D01*
X67009917Y-112663085D01*
X66991381Y-112675563D01*
X66978646Y-112670938D01*
X66939436Y-112649057D01*
X66882495Y-112613273D01*
X66815250Y-112568117D01*
X66767438Y-112535165D01*
X66671985Y-112469727D01*
X66570125Y-112400228D01*
X66477088Y-112337075D01*
X66294832Y-112213800D01*
X66141841Y-112296520D01*
X66105817Y-112315613D01*
X66040303Y-112348272D01*
X65989640Y-112370819D01*
X65962564Y-112379226D01*
X65953703Y-112368430D01*
X65931699Y-112327323D01*
X65899199Y-112259549D01*
X65858010Y-112169409D01*
X65809942Y-112061205D01*
X65756802Y-111939237D01*
X65700399Y-111807808D01*
X65642542Y-111671218D01*
X65585038Y-111533767D01*
X65529697Y-111399758D01*
X65478326Y-111273491D01*
X65432735Y-111159268D01*
X65394732Y-111061390D01*
X65366124Y-110984157D01*
X65348721Y-110931871D01*
X65344331Y-110908833D01*
X65344628Y-110908160D01*
X65365077Y-110886863D01*
X65407850Y-110853508D01*
X65464117Y-110815011D01*
X65481877Y-110803256D01*
X65617014Y-110691735D01*
X65728856Y-110558906D01*
X65814755Y-110410298D01*
X65872062Y-110251440D01*
X65898131Y-110087860D01*
X65890313Y-109925088D01*
X65858644Y-109780315D01*
X65801782Y-109634124D01*
X65718888Y-109503703D01*
X65605131Y-109379813D01*
X65560433Y-109340235D01*
X65415935Y-109242723D01*
X65259838Y-109177050D01*
X65096667Y-109142630D01*
X64930943Y-109138874D01*
X64767192Y-109165194D01*
X64609936Y-109221003D01*
X64463698Y-109305714D01*
X64333004Y-109418737D01*
X64222374Y-109559487D01*
X64201105Y-109594342D01*
X64128810Y-109753655D01*
X64090415Y-109919552D01*
X64084914Y-110087737D01*
X64111301Y-110253913D01*
X64168570Y-110413784D01*
X64255717Y-110563053D01*
X64371736Y-110697423D01*
X64515622Y-110812599D01*
X64520294Y-110815702D01*
X64575964Y-110854933D01*
X64617689Y-110888286D01*
X64636746Y-110908833D01*
X64634342Y-110924941D01*
X64619391Y-110971844D01*
X64592881Y-111044539D01*
X64556620Y-111138725D01*
X64512416Y-111250098D01*
X64462076Y-111374358D01*
X64407407Y-111507202D01*
X64350218Y-111644327D01*
X64292316Y-111781432D01*
X64235510Y-111914215D01*
X64181606Y-112038374D01*
X64132412Y-112149606D01*
X64089737Y-112243609D01*
X64055387Y-112316082D01*
X64031171Y-112362722D01*
X64018897Y-112379226D01*
X64008689Y-112376991D01*
X63968586Y-112360926D01*
X63909318Y-112332759D01*
X63839619Y-112296520D01*
X63686629Y-112213800D01*
X63504373Y-112337075D01*
X63450527Y-112373579D01*
X63350374Y-112441784D01*
X63250525Y-112510098D01*
X63166211Y-112568117D01*
X63119679Y-112599736D01*
X63059200Y-112639020D01*
X63014357Y-112665912D01*
X62992455Y-112675883D01*
X62983045Y-112671650D01*
X62949031Y-112645721D01*
X62896595Y-112600070D01*
X62830301Y-112539186D01*
X62754713Y-112467561D01*
X62674396Y-112389683D01*
X62593913Y-112310045D01*
X62517829Y-112233135D01*
X62450707Y-112163445D01*
X62397112Y-112105464D01*
X62361608Y-112063684D01*
X62348759Y-112042593D01*
X62349500Y-112038581D01*
X62364793Y-112005920D01*
X62397462Y-111949412D01*
X62444350Y-111874163D01*
X62502301Y-111785275D01*
X62568157Y-111687854D01*
X62586627Y-111660982D01*
X62651482Y-111566423D01*
X62708609Y-111482827D01*
X62754678Y-111415084D01*
X62786359Y-111368086D01*
X62800324Y-111346726D01*
X62800668Y-111345811D01*
X62796546Y-111319678D01*
X62780807Y-111266740D01*
X62756004Y-111193647D01*
X62724689Y-111107052D01*
X62689417Y-111013608D01*
X62652740Y-110919965D01*
X62617212Y-110832777D01*
X62585386Y-110758695D01*
X62559816Y-110704371D01*
X62543053Y-110676457D01*
X62541374Y-110674724D01*
X62529372Y-110665956D01*
X62509103Y-110657115D01*
X62476529Y-110647292D01*
X62427616Y-110635583D01*
X62358327Y-110621080D01*
X62264625Y-110602876D01*
X62142476Y-110580066D01*
X61987842Y-110551741D01*
X61955770Y-110545780D01*
X61863893Y-110527352D01*
X61786607Y-110509892D01*
X61731236Y-110495133D01*
X61705105Y-110484810D01*
X61700733Y-110476197D01*
X61693445Y-110434826D01*
X61687669Y-110366241D01*
X61683410Y-110276868D01*
X61680673Y-110173135D01*
X61679462Y-110061465D01*
X61679782Y-109948287D01*
X61681636Y-109840026D01*
X61685030Y-109743108D01*
X61689967Y-109663959D01*
X61696452Y-109609006D01*
X61704489Y-109584674D01*
X61712696Y-109581079D01*
X61753519Y-109569748D01*
X61822524Y-109553722D01*
X61914203Y-109534195D01*
X62023050Y-109512362D01*
X62143558Y-109489418D01*
X62209357Y-109477159D01*
X62322135Y-109455901D01*
X62419207Y-109437287D01*
X62495382Y-109422328D01*
X62545469Y-109412036D01*
X62564276Y-109407422D01*
X62564983Y-109406471D01*
X62576961Y-109382310D01*
X62599794Y-109331694D01*
X62630630Y-109261338D01*
X62666613Y-109177958D01*
X62704891Y-109088270D01*
X62742609Y-108998989D01*
X62776913Y-108916832D01*
X62804949Y-108848513D01*
X62823864Y-108800748D01*
X62830803Y-108780254D01*
X62827742Y-108773043D01*
X62807372Y-108738728D01*
X62770422Y-108680970D01*
X62719860Y-108604299D01*
X62658657Y-108513248D01*
X62589781Y-108412350D01*
X62551994Y-108357093D01*
X62486782Y-108260215D01*
X62430871Y-108175193D01*
X62387241Y-108106662D01*
X62358877Y-108059260D01*
X62348759Y-108037623D01*
X62355790Y-108025887D01*
X62385197Y-107990818D01*
X62433441Y-107937745D01*
X62496093Y-107871164D01*
X62568725Y-107795574D01*
X62646908Y-107715472D01*
X62726214Y-107635354D01*
X62802213Y-107559718D01*
X62870478Y-107493062D01*
X62926580Y-107439882D01*
X62966090Y-107404676D01*
X62984579Y-107391942D01*
X62994843Y-107396893D01*
X63032530Y-107419857D01*
X63093348Y-107458938D01*
X63172913Y-107511272D01*
X63266843Y-107573996D01*
X63370754Y-107644246D01*
X63741794Y-107896551D01*
X64051080Y-107769053D01*
X64360365Y-107641555D01*
X64444186Y-107196931D01*
X64528006Y-106752307D01*
X65453454Y-106752307D01*
X65537275Y-107196931D01*
G37*
D12*
X65537275Y-107196931D02*
X65621095Y-107641555D01*
X66239667Y-107896551D01*
X66610707Y-107644246D01*
X66684144Y-107594506D01*
X66781499Y-107529218D01*
X66865787Y-107473454D01*
X66932631Y-107430078D01*
X66977654Y-107401953D01*
X66996478Y-107391942D01*
X67008039Y-107399061D01*
X67042596Y-107428894D01*
X67094894Y-107477852D01*
X67160500Y-107541440D01*
X67234983Y-107615163D01*
X67313913Y-107694525D01*
X67392856Y-107775031D01*
X67467384Y-107852185D01*
X67533063Y-107921493D01*
X67585463Y-107978457D01*
X67620153Y-108018584D01*
X67632701Y-108037377D01*
X67629782Y-108045451D01*
X67609571Y-108081469D01*
X67572663Y-108140744D01*
X67522050Y-108218630D01*
X67460725Y-108310481D01*
X67391679Y-108411650D01*
X67353787Y-108466826D01*
X67288606Y-108562884D01*
X67232723Y-108646717D01*
X67189117Y-108713777D01*
X67160769Y-108759519D01*
X67150657Y-108779396D01*
X67150823Y-108780497D01*
X67159743Y-108805694D01*
X67180206Y-108857147D01*
X67209360Y-108928135D01*
X67244353Y-109011935D01*
X67282332Y-109101828D01*
X67320445Y-109191091D01*
X67355839Y-109273003D01*
X67385662Y-109340843D01*
X67407061Y-109387890D01*
X67417184Y-109407422D01*
X67423174Y-109409155D01*
X67459566Y-109416969D01*
X67524427Y-109429915D01*
X67612565Y-109446979D01*
X67718787Y-109467151D01*
X67837902Y-109489418D01*
X67900683Y-109501223D01*
X68015912Y-109523748D01*
X68116662Y-109544550D01*
X68197426Y-109562435D01*
X68252698Y-109576208D01*
X68276971Y-109584674D01*
X68281331Y-109593066D01*
X68288563Y-109634072D01*
X68294246Y-109702368D01*
X68298382Y-109791529D01*
X68300977Y-109895128D01*
X68302036Y-110006740D01*
X68301561Y-110119938D01*
X68299559Y-110228296D01*
X68296033Y-110325389D01*
X68290987Y-110404790D01*
X68284427Y-110460072D01*
X68276356Y-110484810D01*
X68271458Y-110487600D01*
X68234930Y-110499569D01*
X68171565Y-110515405D01*
X68088686Y-110533374D01*
X67993618Y-110551741D01*
X67961542Y-110557591D01*
X67813393Y-110584798D01*
X67696961Y-110606663D01*
X67608209Y-110624093D01*
X67543103Y-110637996D01*
X67497606Y-110649277D01*
X67467682Y-110658843D01*
X67449294Y-110667601D01*
X67438407Y-110676457D01*
X67437142Y-110677943D01*
X67419338Y-110708931D01*
X67392994Y-110765634D01*
X67360661Y-110841399D01*
X67324893Y-110929574D01*
X67288244Y-111023507D01*
X67253266Y-111116547D01*
X67222513Y-111202041D01*
X67198538Y-111273336D01*
X67183895Y-111323782D01*
X67181136Y-111346726D01*
X67182981Y-111349703D01*
X67202075Y-111378493D01*
X67237984Y-111431595D01*
X67287378Y-111504117D01*
X67346927Y-111591167D01*
X67413303Y-111687854D01*
X67431520Y-111714456D01*
X67495577Y-111809875D01*
X67550937Y-111895212D01*
X67594439Y-111965405D01*
X67622924Y-112015394D01*
X67633232Y-112040116D01*
X67631011Y-112046616D01*
X67607858Y-112078644D01*
X67562177Y-112130945D01*
X67497241Y-112199999D01*
X67416319Y-112282286D01*
X67322685Y-112374286D01*
X67269165Y-112425781D01*
X67184542Y-112505983D01*
X67110475Y-112574678D01*
X67050941Y-112628252D01*
X67009917Y-112663085D01*
X66991381Y-112675563D01*
X66978646Y-112670938D01*
X66939436Y-112649057D01*
X66882495Y-112613273D01*
X66815250Y-112568117D01*
X66767438Y-112535165D01*
X66671985Y-112469727D01*
X66570125Y-112400228D01*
X66477088Y-112337075D01*
X66294832Y-112213800D01*
X66141841Y-112296520D01*
X66105817Y-112315613D01*
X66040303Y-112348272D01*
X65989640Y-112370819D01*
X65962564Y-112379226D01*
X65953703Y-112368430D01*
X65931699Y-112327323D01*
X65899199Y-112259549D01*
X65858010Y-112169409D01*
X65809942Y-112061205D01*
X65756802Y-111939237D01*
X65700399Y-111807808D01*
X65642542Y-111671218D01*
X65585038Y-111533767D01*
X65529697Y-111399758D01*
X65478326Y-111273491D01*
X65432735Y-111159268D01*
X65394732Y-111061390D01*
X65366124Y-110984157D01*
X65348721Y-110931871D01*
X65344331Y-110908833D01*
X65344628Y-110908160D01*
X65365077Y-110886863D01*
X65407850Y-110853508D01*
X65464117Y-110815011D01*
X65481877Y-110803256D01*
X65617014Y-110691735D01*
X65728856Y-110558906D01*
X65814755Y-110410298D01*
X65872062Y-110251440D01*
X65898131Y-110087860D01*
X65890313Y-109925088D01*
X65858644Y-109780315D01*
X65801782Y-109634124D01*
X65718888Y-109503703D01*
X65605131Y-109379813D01*
X65560433Y-109340235D01*
X65415935Y-109242723D01*
X65259838Y-109177050D01*
X65096667Y-109142630D01*
X64930943Y-109138874D01*
X64767192Y-109165194D01*
X64609936Y-109221003D01*
X64463698Y-109305714D01*
X64333004Y-109418737D01*
X64222374Y-109559487D01*
X64201105Y-109594342D01*
X64128810Y-109753655D01*
X64090415Y-109919552D01*
X64084914Y-110087737D01*
X64111301Y-110253913D01*
X64168570Y-110413784D01*
X64255717Y-110563053D01*
X64371736Y-110697423D01*
X64515622Y-110812599D01*
X64520294Y-110815702D01*
X64575964Y-110854933D01*
X64617689Y-110888286D01*
X64636746Y-110908833D01*
X64634342Y-110924941D01*
X64619391Y-110971844D01*
X64592881Y-111044539D01*
X64556620Y-111138725D01*
X64512416Y-111250098D01*
X64462076Y-111374358D01*
X64407407Y-111507202D01*
X64350218Y-111644327D01*
X64292316Y-111781432D01*
X64235510Y-111914215D01*
X64181606Y-112038374D01*
X64132412Y-112149606D01*
X64089737Y-112243609D01*
X64055387Y-112316082D01*
X64031171Y-112362722D01*
X64018897Y-112379226D01*
X64008689Y-112376991D01*
X63968586Y-112360926D01*
X63909318Y-112332759D01*
X63839619Y-112296520D01*
X63686629Y-112213800D01*
X63504373Y-112337075D01*
X63450527Y-112373579D01*
X63350374Y-112441784D01*
X63250525Y-112510098D01*
X63166211Y-112568117D01*
X63119679Y-112599736D01*
X63059200Y-112639020D01*
X63014357Y-112665912D01*
X62992455Y-112675883D01*
X62983045Y-112671650D01*
X62949031Y-112645721D01*
X62896595Y-112600070D01*
X62830301Y-112539186D01*
X62754713Y-112467561D01*
X62674396Y-112389683D01*
X62593913Y-112310045D01*
X62517829Y-112233135D01*
X62450707Y-112163445D01*
X62397112Y-112105464D01*
X62361608Y-112063684D01*
X62348759Y-112042593D01*
X62349500Y-112038581D01*
X62364793Y-112005920D01*
X62397462Y-111949412D01*
X62444350Y-111874163D01*
X62502301Y-111785275D01*
X62568157Y-111687854D01*
X62586627Y-111660982D01*
X62651482Y-111566423D01*
X62708609Y-111482827D01*
X62754678Y-111415084D01*
X62786359Y-111368086D01*
X62800324Y-111346726D01*
X62800668Y-111345811D01*
X62796546Y-111319678D01*
X62780807Y-111266740D01*
X62756004Y-111193647D01*
X62724689Y-111107052D01*
X62689417Y-111013608D01*
X62652740Y-110919965D01*
X62617212Y-110832777D01*
X62585386Y-110758695D01*
X62559816Y-110704371D01*
X62543053Y-110676457D01*
X62541374Y-110674724D01*
X62529372Y-110665956D01*
X62509103Y-110657115D01*
X62476529Y-110647292D01*
X62427616Y-110635583D01*
X62358327Y-110621080D01*
X62264625Y-110602876D01*
X62142476Y-110580066D01*
X61987842Y-110551741D01*
X61955770Y-110545780D01*
X61863893Y-110527352D01*
X61786607Y-110509892D01*
X61731236Y-110495133D01*
X61705105Y-110484810D01*
X61700733Y-110476197D01*
X61693445Y-110434826D01*
X61687669Y-110366241D01*
X61683410Y-110276868D01*
X61680673Y-110173135D01*
X61679462Y-110061465D01*
X61679782Y-109948287D01*
X61681636Y-109840026D01*
X61685030Y-109743108D01*
X61689967Y-109663959D01*
X61696452Y-109609006D01*
X61704489Y-109584674D01*
X61712696Y-109581079D01*
X61753519Y-109569748D01*
X61822524Y-109553722D01*
X61914203Y-109534195D01*
X62023050Y-109512362D01*
X62143558Y-109489418D01*
X62209357Y-109477159D01*
X62322135Y-109455901D01*
X62419207Y-109437287D01*
X62495382Y-109422328D01*
X62545469Y-109412036D01*
X62564276Y-109407422D01*
X62564983Y-109406471D01*
X62576961Y-109382310D01*
X62599794Y-109331694D01*
X62630630Y-109261338D01*
X62666613Y-109177958D01*
X62704891Y-109088270D01*
X62742609Y-108998989D01*
X62776913Y-108916832D01*
X62804949Y-108848513D01*
X62823864Y-108800748D01*
X62830803Y-108780254D01*
X62827742Y-108773043D01*
X62807372Y-108738728D01*
X62770422Y-108680970D01*
X62719860Y-108604299D01*
X62658657Y-108513248D01*
X62589781Y-108412350D01*
X62551994Y-108357093D01*
X62486782Y-108260215D01*
X62430871Y-108175193D01*
X62387241Y-108106662D01*
X62358877Y-108059260D01*
X62348759Y-108037623D01*
X62355790Y-108025887D01*
X62385197Y-107990818D01*
X62433441Y-107937745D01*
X62496093Y-107871164D01*
X62568725Y-107795574D01*
X62646908Y-107715472D01*
X62726214Y-107635354D01*
X62802213Y-107559718D01*
X62870478Y-107493062D01*
X62926580Y-107439882D01*
X62966090Y-107404676D01*
X62984579Y-107391942D01*
X62994843Y-107396893D01*
X63032530Y-107419857D01*
X63093348Y-107458938D01*
X63172913Y-107511272D01*
X63266843Y-107573996D01*
X63370754Y-107644246D01*
X63741794Y-107896551D01*
X64051080Y-107769053D01*
X64360365Y-107641555D01*
X64444186Y-107196931D01*
X64528006Y-106752307D01*
X65453454Y-106752307D01*
X65537275Y-107196931D01*
%LPC*%
D13*
X78184000Y-104960000D03*
D14*
X78184000Y-107500000D03*
X78184000Y-110040000D03*
D13*
X51816000Y-110040000D03*
D14*
X51816000Y-107500000D03*
X51816000Y-104960000D03*
M02*
