%TF.GenerationSoftware,KiCad,Pcbnew,7.0.1*%
%TF.CreationDate,2023-04-11T11:00:07-05:00*%
%TF.ProjectId,ata_40_to_ata_44_adapter,6174615f-3430-45f7-946f-5f6174615f34,rev?*%
%TF.SameCoordinates,Original*%
%TF.FileFunction,Copper,L1,Top*%
%TF.FilePolarity,Positive*%
%FSLAX46Y46*%
G04 Gerber Fmt 4.6, Leading zero omitted, Abs format (unit mm)*
G04 Created by KiCad (PCBNEW 7.0.1) date 2023-04-11 11:00:07*
%MOMM*%
%LPD*%
G01*
G04 APERTURE LIST*
G04 Aperture macros list*
%AMRoundRect*
0 Rectangle with rounded corners*
0 $1 Rounding radius*
0 $2 $3 $4 $5 $6 $7 $8 $9 X,Y pos of 4 corners*
0 Add a 4 corners polygon primitive as box body*
4,1,4,$2,$3,$4,$5,$6,$7,$8,$9,$2,$3,0*
0 Add four circle primitives for the rounded corners*
1,1,$1+$1,$2,$3*
1,1,$1+$1,$4,$5*
1,1,$1+$1,$6,$7*
1,1,$1+$1,$8,$9*
0 Add four rect primitives between the rounded corners*
20,1,$1+$1,$2,$3,$4,$5,0*
20,1,$1+$1,$4,$5,$6,$7,0*
20,1,$1+$1,$6,$7,$8,$9,0*
20,1,$1+$1,$8,$9,$2,$3,0*%
G04 Aperture macros list end*
%ADD10C,0.300000*%
%TA.AperFunction,NonConductor*%
%ADD11C,0.300000*%
%TD*%
%TA.AperFunction,SMDPad,CuDef*%
%ADD12RoundRect,0.237500X0.250000X0.237500X-0.250000X0.237500X-0.250000X-0.237500X0.250000X-0.237500X0*%
%TD*%
%TA.AperFunction,SMDPad,CuDef*%
%ADD13RoundRect,0.237500X0.237500X-0.250000X0.237500X0.250000X-0.237500X0.250000X-0.237500X-0.250000X0*%
%TD*%
%TA.AperFunction,SMDPad,CuDef*%
%ADD14RoundRect,0.250000X-0.325000X-0.450000X0.325000X-0.450000X0.325000X0.450000X-0.325000X0.450000X0*%
%TD*%
%TA.AperFunction,ComponentPad*%
%ADD15C,1.408000*%
%TD*%
%TA.AperFunction,ComponentPad*%
%ADD16R,1.408000X1.408000*%
%TD*%
%TA.AperFunction,ComponentPad*%
%ADD17C,2.780000*%
%TD*%
%TA.AperFunction,ComponentPad*%
%ADD18R,2.780000X2.780000*%
%TD*%
%TA.AperFunction,ComponentPad*%
%ADD19R,1.350000X1.350000*%
%TD*%
%TA.AperFunction,ComponentPad*%
%ADD20O,1.350000X1.350000*%
%TD*%
%TA.AperFunction,ComponentPad*%
%ADD21R,1.700000X1.700000*%
%TD*%
%TA.AperFunction,ComponentPad*%
%ADD22O,1.700000X1.700000*%
%TD*%
%TA.AperFunction,ViaPad*%
%ADD23C,0.800000*%
%TD*%
%TA.AperFunction,Conductor*%
%ADD24C,0.250000*%
%TD*%
%TA.AperFunction,Conductor*%
%ADD25C,0.500000*%
%TD*%
G04 APERTURE END LIST*
D10*
D11*
X60357142Y-62330714D02*
X60571428Y-62402142D01*
X60571428Y-62402142D02*
X60642857Y-62473571D01*
X60642857Y-62473571D02*
X60714285Y-62616428D01*
X60714285Y-62616428D02*
X60714285Y-62830714D01*
X60714285Y-62830714D02*
X60642857Y-62973571D01*
X60642857Y-62973571D02*
X60571428Y-63045000D01*
X60571428Y-63045000D02*
X60428571Y-63116428D01*
X60428571Y-63116428D02*
X59857142Y-63116428D01*
X59857142Y-63116428D02*
X59857142Y-61616428D01*
X59857142Y-61616428D02*
X60357142Y-61616428D01*
X60357142Y-61616428D02*
X60500000Y-61687857D01*
X60500000Y-61687857D02*
X60571428Y-61759285D01*
X60571428Y-61759285D02*
X60642857Y-61902142D01*
X60642857Y-61902142D02*
X60642857Y-62045000D01*
X60642857Y-62045000D02*
X60571428Y-62187857D01*
X60571428Y-62187857D02*
X60500000Y-62259285D01*
X60500000Y-62259285D02*
X60357142Y-62330714D01*
X60357142Y-62330714D02*
X59857142Y-62330714D01*
X61285714Y-62687857D02*
X62000000Y-62687857D01*
X61142857Y-63116428D02*
X61642857Y-61616428D01*
X61642857Y-61616428D02*
X62142857Y-63116428D01*
X62642856Y-63116428D02*
X62642856Y-61616428D01*
X62642856Y-61616428D02*
X62999999Y-61616428D01*
X62999999Y-61616428D02*
X63214285Y-61687857D01*
X63214285Y-61687857D02*
X63357142Y-61830714D01*
X63357142Y-61830714D02*
X63428571Y-61973571D01*
X63428571Y-61973571D02*
X63499999Y-62259285D01*
X63499999Y-62259285D02*
X63499999Y-62473571D01*
X63499999Y-62473571D02*
X63428571Y-62759285D01*
X63428571Y-62759285D02*
X63357142Y-62902142D01*
X63357142Y-62902142D02*
X63214285Y-63045000D01*
X63214285Y-63045000D02*
X62999999Y-63116428D01*
X62999999Y-63116428D02*
X62642856Y-63116428D01*
X65142856Y-61616428D02*
X65499999Y-63116428D01*
X65499999Y-63116428D02*
X65785713Y-62045000D01*
X65785713Y-62045000D02*
X66071428Y-63116428D01*
X66071428Y-63116428D02*
X66428571Y-61616428D01*
X67285714Y-61616428D02*
X67571428Y-61616428D01*
X67571428Y-61616428D02*
X67714285Y-61687857D01*
X67714285Y-61687857D02*
X67857142Y-61830714D01*
X67857142Y-61830714D02*
X67928571Y-62116428D01*
X67928571Y-62116428D02*
X67928571Y-62616428D01*
X67928571Y-62616428D02*
X67857142Y-62902142D01*
X67857142Y-62902142D02*
X67714285Y-63045000D01*
X67714285Y-63045000D02*
X67571428Y-63116428D01*
X67571428Y-63116428D02*
X67285714Y-63116428D01*
X67285714Y-63116428D02*
X67142857Y-63045000D01*
X67142857Y-63045000D02*
X66999999Y-62902142D01*
X66999999Y-62902142D02*
X66928571Y-62616428D01*
X66928571Y-62616428D02*
X66928571Y-62116428D01*
X66928571Y-62116428D02*
X66999999Y-61830714D01*
X66999999Y-61830714D02*
X67142857Y-61687857D01*
X67142857Y-61687857D02*
X67285714Y-61616428D01*
X69285714Y-63116428D02*
X68571428Y-63116428D01*
X68571428Y-63116428D02*
X68571428Y-61616428D01*
X70285714Y-62330714D02*
X69785714Y-62330714D01*
X69785714Y-63116428D02*
X69785714Y-61616428D01*
X69785714Y-61616428D02*
X70500000Y-61616428D01*
D12*
%TO.P,R2,1*%
%TO.N,LED_DRIVER*%
X77212500Y-71900000D03*
%TO.P,R2,2*%
%TO.N,Net-(D2-A)*%
X75387500Y-71900000D03*
%TD*%
D13*
%TO.P,R1,1*%
%TO.N,+5V*%
X78700000Y-69112500D03*
%TO.P,R1,2*%
%TO.N,Net-(D1-A)*%
X78700000Y-67287500D03*
%TD*%
D14*
%TO.P,D2,1,K*%
%TO.N,GROUND*%
X74975000Y-70000000D03*
%TO.P,D2,2,A*%
%TO.N,Net-(D2-A)*%
X77025000Y-70000000D03*
%TD*%
%TO.P,D1,1,K*%
%TO.N,GROUND*%
X74975000Y-67600000D03*
%TO.P,D1,2,A*%
%TO.N,Net-(D1-A)*%
X77025000Y-67600000D03*
%TD*%
D15*
%TO.P,J4,4,Pin_4*%
%TO.N,+12V*%
X96900000Y-75800000D03*
%TO.P,J4,3,Pin_3*%
%TO.N,GROUND*%
X96900000Y-78300000D03*
%TO.P,J4,2,Pin_2*%
X96900000Y-80800000D03*
D16*
%TO.P,J4,1,Pin_1*%
%TO.N,+5V*%
X96900000Y-83300000D03*
%TD*%
D17*
%TO.P,J3,4,Pin_4*%
%TO.N,+5V*%
X85560000Y-70900000D03*
%TO.P,J3,3,Pin_3*%
%TO.N,GROUND*%
X90640000Y-70900000D03*
%TO.P,J3,2,Pin_2*%
X95720000Y-70900000D03*
D18*
%TO.P,J3,1,Pin_1*%
%TO.N,+12V*%
X100800000Y-70900000D03*
%TD*%
D19*
%TO.P,J2,1,Pin_1*%
%TO.N,RESET*%
X112785000Y-69120000D03*
D20*
%TO.P,J2,2,Pin_2*%
%TO.N,GROUND*%
X112785000Y-71120000D03*
%TO.P,J2,3,Pin_3*%
%TO.N,DATA_07*%
X114785000Y-69120000D03*
%TO.P,J2,4,Pin_4*%
%TO.N,DATA_08*%
X114785000Y-71120000D03*
%TO.P,J2,5,Pin_5*%
%TO.N,DATA_06*%
X116785000Y-69120000D03*
%TO.P,J2,6,Pin_6*%
%TO.N,DATA_09*%
X116785000Y-71120000D03*
%TO.P,J2,7,Pin_7*%
%TO.N,DATA_05*%
X118785000Y-69120000D03*
%TO.P,J2,8,Pin_8*%
%TO.N,DATA_10*%
X118785000Y-71120000D03*
%TO.P,J2,9,Pin_9*%
%TO.N,DATA_04*%
X120785000Y-69120000D03*
%TO.P,J2,10,Pin_10*%
%TO.N,DATA_11*%
X120785000Y-71120000D03*
%TO.P,J2,11,Pin_11*%
%TO.N,DATA_03*%
X122785000Y-69120000D03*
%TO.P,J2,12,Pin_12*%
%TO.N,DATA_12*%
X122785000Y-71120000D03*
%TO.P,J2,13,Pin_13*%
%TO.N,DATA_02*%
X124785000Y-69120000D03*
%TO.P,J2,14,Pin_14*%
%TO.N,DATA_13*%
X124785000Y-71120000D03*
%TO.P,J2,15,Pin_15*%
%TO.N,DATA_01*%
X126785000Y-69120000D03*
%TO.P,J2,16,Pin_16*%
%TO.N,DATA_14*%
X126785000Y-71120000D03*
%TO.P,J2,17,Pin_17*%
%TO.N,DATA_00*%
X128785000Y-69120000D03*
%TO.P,J2,18,Pin_18*%
%TO.N,DATA_15*%
X128785000Y-71120000D03*
%TO.P,J2,19,Pin_19*%
%TO.N,GROUND*%
X130785000Y-69120000D03*
%TO.P,J2,20,Pin_20*%
%TO.N,unconnected-(J2-Pin_20-Pad20)*%
X130785000Y-71120000D03*
%TO.P,J2,21,Pin_21*%
%TO.N,DMA_REQ*%
X132785000Y-69120000D03*
%TO.P,J2,22,Pin_22*%
%TO.N,GROUND*%
X132785000Y-71120000D03*
%TO.P,J2,23,Pin_23*%
%TO.N,WRITE_STROBE*%
X134785000Y-69120000D03*
%TO.P,J2,24,Pin_24*%
%TO.N,GROUND*%
X134785000Y-71120000D03*
%TO.P,J2,25,Pin_25*%
%TO.N,READ_STROBE*%
X136785000Y-69120000D03*
%TO.P,J2,26,Pin_26*%
%TO.N,GROUND*%
X136785000Y-71120000D03*
%TO.P,J2,27,Pin_27*%
%TO.N,IO_READY*%
X138785000Y-69120000D03*
%TO.P,J2,28,Pin_28*%
%TO.N,DEVICE_CFG*%
X138785000Y-71120000D03*
%TO.P,J2,29,Pin_29*%
%TO.N,DMA_ACK*%
X140785000Y-69120000D03*
%TO.P,J2,30,Pin_30*%
%TO.N,GROUND*%
X140785000Y-71120000D03*
%TO.P,J2,31,Pin_31*%
%TO.N,INTERRUPT_REQ*%
X142785000Y-69120000D03*
%TO.P,J2,32,Pin_32*%
%TO.N,IO_CHIPSEL_16*%
X142785000Y-71120000D03*
%TO.P,J2,33,Pin_33*%
%TO.N,ADDRESS_1*%
X144785000Y-69120000D03*
%TO.P,J2,34,Pin_34*%
%TO.N,PASSED_DIAG*%
X144785000Y-71120000D03*
%TO.P,J2,35,Pin_35*%
%TO.N,ADDRESS_0*%
X146785000Y-69120000D03*
%TO.P,J2,36,Pin_36*%
%TO.N,ADDRESS_2*%
X146785000Y-71120000D03*
%TO.P,J2,37,Pin_37*%
%TO.N,IDE_CS0*%
X148785000Y-69120000D03*
%TO.P,J2,38,Pin_38*%
%TO.N,IDE_CS1*%
X148785000Y-71120000D03*
%TO.P,J2,39,Pin_39*%
%TO.N,LED_DRIVER*%
X150785000Y-69120000D03*
%TO.P,J2,40,Pin_40*%
%TO.N,GROUND*%
X150785000Y-71120000D03*
%TO.P,J2,41,Pin_41*%
%TO.N,+5V*%
X152785000Y-69120000D03*
%TO.P,J2,42,Pin_42*%
X152785000Y-71120000D03*
%TO.P,J2,43,Pin_43*%
%TO.N,GROUND*%
X154785000Y-69120000D03*
%TO.P,J2,44,Pin_44*%
X154785000Y-71120000D03*
%TD*%
D21*
%TO.P,J1,1,Pin_1*%
%TO.N,RESET*%
X109660000Y-82560000D03*
D22*
%TO.P,J1,2,Pin_2*%
%TO.N,GROUND*%
X109660000Y-80020000D03*
%TO.P,J1,3,Pin_3*%
%TO.N,DATA_07*%
X112200000Y-82560000D03*
%TO.P,J1,4,Pin_4*%
%TO.N,DATA_08*%
X112200000Y-80020000D03*
%TO.P,J1,5,Pin_5*%
%TO.N,DATA_06*%
X114740000Y-82560000D03*
%TO.P,J1,6,Pin_6*%
%TO.N,DATA_09*%
X114740000Y-80020000D03*
%TO.P,J1,7,Pin_7*%
%TO.N,DATA_05*%
X117280000Y-82560000D03*
%TO.P,J1,8,Pin_8*%
%TO.N,DATA_10*%
X117280000Y-80020000D03*
%TO.P,J1,9,Pin_9*%
%TO.N,DATA_04*%
X119820000Y-82560000D03*
%TO.P,J1,10,Pin_10*%
%TO.N,DATA_11*%
X119820000Y-80020000D03*
%TO.P,J1,11,Pin_11*%
%TO.N,DATA_03*%
X122360000Y-82560000D03*
%TO.P,J1,12,Pin_12*%
%TO.N,DATA_12*%
X122360000Y-80020000D03*
%TO.P,J1,13,Pin_13*%
%TO.N,DATA_02*%
X124900000Y-82560000D03*
%TO.P,J1,14,Pin_14*%
%TO.N,DATA_13*%
X124900000Y-80020000D03*
%TO.P,J1,15,Pin_15*%
%TO.N,DATA_01*%
X127440000Y-82560000D03*
%TO.P,J1,16,Pin_16*%
%TO.N,DATA_14*%
X127440000Y-80020000D03*
%TO.P,J1,17,Pin_17*%
%TO.N,DATA_00*%
X129980000Y-82560000D03*
%TO.P,J1,18,Pin_18*%
%TO.N,DATA_15*%
X129980000Y-80020000D03*
%TO.P,J1,19,Pin_19*%
%TO.N,GROUND*%
X132520000Y-82560000D03*
%TO.P,J1,20,Pin_20*%
%TO.N,unconnected-(J1-Pin_20-Pad20)*%
X132520000Y-80020000D03*
%TO.P,J1,21,Pin_21*%
%TO.N,DMA_REQ*%
X135060000Y-82560000D03*
%TO.P,J1,22,Pin_22*%
%TO.N,GROUND*%
X135060000Y-80020000D03*
%TO.P,J1,23,Pin_23*%
%TO.N,WRITE_STROBE*%
X137600000Y-82560000D03*
%TO.P,J1,24,Pin_24*%
%TO.N,GROUND*%
X137600000Y-80020000D03*
%TO.P,J1,25,Pin_25*%
%TO.N,READ_STROBE*%
X140140000Y-82560000D03*
%TO.P,J1,26,Pin_26*%
%TO.N,GROUND*%
X140140000Y-80020000D03*
%TO.P,J1,27,Pin_27*%
%TO.N,IO_READY*%
X142680000Y-82560000D03*
%TO.P,J1,28,Pin_28*%
%TO.N,DEVICE_CFG*%
X142680000Y-80020000D03*
%TO.P,J1,29,Pin_29*%
%TO.N,DMA_ACK*%
X145220000Y-82560000D03*
%TO.P,J1,30,Pin_30*%
%TO.N,GROUND*%
X145220000Y-80020000D03*
%TO.P,J1,31,Pin_31*%
%TO.N,INTERRUPT_REQ*%
X147760000Y-82560000D03*
%TO.P,J1,32,Pin_32*%
%TO.N,IO_CHIPSEL_16*%
X147760000Y-80020000D03*
%TO.P,J1,33,Pin_33*%
%TO.N,ADDRESS_1*%
X150300000Y-82560000D03*
%TO.P,J1,34,Pin_34*%
%TO.N,PASSED_DIAG*%
X150300000Y-80020000D03*
%TO.P,J1,35,Pin_35*%
%TO.N,ADDRESS_0*%
X152840000Y-82560000D03*
%TO.P,J1,36,Pin_36*%
%TO.N,ADDRESS_2*%
X152840000Y-80020000D03*
%TO.P,J1,37,Pin_37*%
%TO.N,IDE_CS0*%
X155380000Y-82560000D03*
%TO.P,J1,38,Pin_38*%
%TO.N,IDE_CS1*%
X155380000Y-80020000D03*
%TO.P,J1,39,Pin_39*%
%TO.N,LED_DRIVER*%
X157920000Y-82560000D03*
%TO.P,J1,40,Pin_40*%
%TO.N,GROUND*%
X157920000Y-80020000D03*
%TD*%
D23*
%TO.N,LED_DRIVER*%
X78300000Y-71900000D03*
%TD*%
D24*
%TO.N,LED_DRIVER*%
X78300000Y-71900000D02*
X77212500Y-71900000D01*
%TO.N,GROUND*%
X74575000Y-70400000D02*
X74575000Y-79775000D01*
X74575000Y-79775000D02*
X76900000Y-82100000D01*
X74975000Y-70000000D02*
X74575000Y-70400000D01*
X74975000Y-67600000D02*
X74975000Y-70000000D01*
%TO.N,Net-(D1-A)*%
X77337500Y-67287500D02*
X77025000Y-67600000D01*
X78700000Y-67287500D02*
X77337500Y-67287500D01*
%TO.N,+5V*%
X80487500Y-70900000D02*
X85560000Y-70900000D01*
X78700000Y-69112500D02*
X80487500Y-70900000D01*
%TO.N,Net-(D2-A)*%
X75387500Y-71637500D02*
X77025000Y-70000000D01*
X75387500Y-71900000D02*
X75387500Y-71637500D01*
%TO.N,LED_DRIVER*%
X151785000Y-70705786D02*
X152077893Y-70412893D01*
X151785000Y-73385000D02*
X151785000Y-70705786D01*
X152077893Y-70412893D02*
X150785000Y-69120000D01*
X157861701Y-78300000D02*
X156700000Y-78300000D01*
X159095000Y-79533299D02*
X157861701Y-78300000D01*
X159095000Y-81385000D02*
X159095000Y-79533299D01*
X157920000Y-82560000D02*
X159095000Y-81385000D01*
X156700000Y-78300000D02*
X151785000Y-73385000D01*
D25*
%TO.N,+12V*%
X96900000Y-75800000D02*
X100800000Y-71900000D01*
X100800000Y-71900000D02*
X100800000Y-70900000D01*
%TO.N,+5V*%
X85560000Y-71960000D02*
X85560000Y-70900000D01*
X96900000Y-83300000D02*
X85560000Y-71960000D01*
X150665000Y-67000000D02*
X89460000Y-67000000D01*
X152785000Y-69120000D02*
X150665000Y-67000000D01*
X89460000Y-67000000D02*
X85560000Y-70900000D01*
X152785000Y-71120000D02*
X152785000Y-69120000D01*
D24*
%TO.N,IDE_CS0*%
X149785000Y-70120000D02*
X148785000Y-69120000D01*
X149785000Y-72465786D02*
X149785000Y-70120000D01*
X156555000Y-79235786D02*
X149785000Y-72465786D01*
X156555000Y-81385000D02*
X156555000Y-79235786D01*
X155380000Y-82560000D02*
X156555000Y-81385000D01*
%TO.N,IDE_CS1*%
X155380000Y-78743604D02*
X148785000Y-72148604D01*
X155380000Y-80020000D02*
X155380000Y-78743604D01*
X148785000Y-72148604D02*
X148785000Y-71120000D01*
%TO.N,ADDRESS_0*%
X147785000Y-70120000D02*
X146785000Y-69120000D01*
X147785000Y-71785000D02*
X147785000Y-70120000D01*
X154015000Y-78015000D02*
X147785000Y-71785000D01*
X152840000Y-82560000D02*
X154015000Y-81385000D01*
X154015000Y-81385000D02*
X154015000Y-78015000D01*
%TO.N,ADDRESS_2*%
X146785000Y-71702500D02*
X146785000Y-71120000D01*
X152840000Y-77757500D02*
X146785000Y-71702500D01*
X152840000Y-80020000D02*
X152840000Y-77757500D01*
%TO.N,ADDRESS_1*%
X151475000Y-77475000D02*
X145785000Y-71785000D01*
X145785000Y-71785000D02*
X145785000Y-70120000D01*
X151475000Y-81385000D02*
X151475000Y-77475000D01*
X150300000Y-82560000D02*
X151475000Y-81385000D01*
X145785000Y-70120000D02*
X144785000Y-69120000D01*
%TO.N,PASSED_DIAG*%
X144785000Y-72285000D02*
X144785000Y-71120000D01*
X150300000Y-77800000D02*
X144785000Y-72285000D01*
X150300000Y-80020000D02*
X150300000Y-77800000D01*
%TO.N,INTERRUPT_REQ*%
X143785000Y-70120000D02*
X142785000Y-69120000D01*
X148935000Y-77254214D02*
X143785000Y-72104214D01*
X148935000Y-81385000D02*
X148935000Y-77254214D01*
X147760000Y-82560000D02*
X148935000Y-81385000D01*
X143785000Y-72104214D02*
X143785000Y-70120000D01*
%TO.N,DMA_ACK*%
X141785000Y-70120000D02*
X140785000Y-69120000D01*
X141785000Y-72785000D02*
X141785000Y-70120000D01*
X146395000Y-77395000D02*
X141785000Y-72785000D01*
X145220000Y-82560000D02*
X146395000Y-81385000D01*
X146395000Y-81385000D02*
X146395000Y-77395000D01*
%TO.N,IO_CHIPSEL_16*%
X142785000Y-71897818D02*
X142785000Y-71120000D01*
X147760000Y-76872818D02*
X142785000Y-71897818D01*
X147760000Y-80020000D02*
X147760000Y-76872818D01*
%TO.N,IO_READY*%
X143855000Y-75855000D02*
X139785000Y-71785000D01*
X139785000Y-71785000D02*
X139785000Y-70120000D01*
X143855000Y-81385000D02*
X143855000Y-75855000D01*
X142680000Y-82560000D02*
X143855000Y-81385000D01*
X139785000Y-70120000D02*
X138785000Y-69120000D01*
%TO.N,DEVICE_CFG*%
X142680000Y-77180000D02*
X138785000Y-73285000D01*
X138785000Y-73285000D02*
X138785000Y-71120000D01*
X142680000Y-80020000D02*
X142680000Y-77180000D01*
%TO.N,READ_STROBE*%
X137785000Y-73785000D02*
X137785000Y-70120000D01*
X138965000Y-74965000D02*
X137785000Y-73785000D01*
X137785000Y-70120000D02*
X136785000Y-69120000D01*
X138965000Y-81385000D02*
X138965000Y-74965000D01*
X140140000Y-82560000D02*
X138965000Y-81385000D01*
%TO.N,WRITE_STROBE*%
X135785000Y-72285000D02*
X135785000Y-70120000D01*
X136425000Y-72925000D02*
X135785000Y-72285000D01*
X135785000Y-70120000D02*
X134785000Y-69120000D01*
X137600000Y-82560000D02*
X136425000Y-81385000D01*
X136425000Y-81385000D02*
X136425000Y-72925000D01*
%TO.N,DMA_REQ*%
X133785000Y-70120000D02*
X132785000Y-69120000D01*
X133785000Y-81285000D02*
X133785000Y-70120000D01*
X135060000Y-82560000D02*
X133785000Y-81285000D01*
%TO.N,DATA_00*%
X129785000Y-73148604D02*
X129785000Y-70120000D01*
X131155000Y-74518604D02*
X129785000Y-73148604D01*
X131155000Y-81385000D02*
X131155000Y-74518604D01*
X129785000Y-70120000D02*
X128785000Y-69120000D01*
X129980000Y-82560000D02*
X131155000Y-81385000D01*
%TO.N,DATA_15*%
X128785000Y-72785000D02*
X128785000Y-71120000D01*
X129980000Y-73980000D02*
X128785000Y-72785000D01*
X129980000Y-80020000D02*
X129980000Y-73980000D01*
%TO.N,DATA_01*%
X127785000Y-70120000D02*
X126785000Y-69120000D01*
X127785000Y-73050000D02*
X127785000Y-70120000D01*
X128615000Y-81385000D02*
X128615000Y-73880000D01*
X127440000Y-82560000D02*
X128615000Y-81385000D01*
X128615000Y-73880000D02*
X127785000Y-73050000D01*
%TO.N,DATA_14*%
X126785000Y-73285000D02*
X126785000Y-71120000D01*
X127440000Y-80020000D02*
X127440000Y-73940000D01*
X127440000Y-73940000D02*
X126785000Y-73285000D01*
%TO.N,DATA_02*%
X125785000Y-70120000D02*
X124785000Y-69120000D01*
X125785000Y-71534214D02*
X125785000Y-70120000D01*
X126075000Y-71824214D02*
X125785000Y-71534214D01*
X126075000Y-81385000D02*
X126075000Y-71824214D01*
X124900000Y-82560000D02*
X126075000Y-81385000D01*
%TO.N,DATA_13*%
X124900000Y-80020000D02*
X124900000Y-71235000D01*
X124900000Y-71235000D02*
X124785000Y-71120000D01*
%TO.N,DATA_03*%
X123785000Y-71534214D02*
X123785000Y-70120000D01*
X123785000Y-70120000D02*
X122785000Y-69120000D01*
X123535000Y-71784214D02*
X123785000Y-71534214D01*
X123535000Y-81385000D02*
X123535000Y-71784214D01*
X122360000Y-82560000D02*
X123535000Y-81385000D01*
%TO.N,DATA_12*%
X122360000Y-71545000D02*
X122785000Y-71120000D01*
X122360000Y-80020000D02*
X122360000Y-71545000D01*
%TO.N,DATA_04*%
X121785000Y-72351396D02*
X121785000Y-70120000D01*
X121785000Y-70120000D02*
X120785000Y-69120000D01*
X120995000Y-73141396D02*
X121785000Y-72351396D01*
X120995000Y-81385000D02*
X120995000Y-73141396D01*
X119820000Y-82560000D02*
X120995000Y-81385000D01*
%TO.N,DATA_11*%
X120785000Y-72715000D02*
X120785000Y-71120000D01*
X119820000Y-73680000D02*
X120785000Y-72715000D01*
X119820000Y-80020000D02*
X119820000Y-73680000D01*
%TO.N,DATA_05*%
X119785000Y-70120000D02*
X118785000Y-69120000D01*
X118645000Y-81195000D02*
X118645000Y-73855000D01*
X118645000Y-73855000D02*
X119785000Y-72715000D01*
X117280000Y-82560000D02*
X118645000Y-81195000D01*
X119785000Y-72715000D02*
X119785000Y-70120000D01*
%TO.N,DATA_10*%
X118785000Y-72715000D02*
X118785000Y-71120000D01*
X117280000Y-74220000D02*
X118785000Y-72715000D01*
X117280000Y-80020000D02*
X117280000Y-74220000D01*
%TO.N,DATA_06*%
X116105000Y-74031396D02*
X117785000Y-72351396D01*
X117785000Y-72351396D02*
X117785000Y-70120000D01*
X116105000Y-81195000D02*
X116105000Y-74031396D01*
X117785000Y-70120000D02*
X116785000Y-69120000D01*
X114740000Y-82560000D02*
X116105000Y-81195000D01*
%TO.N,DATA_09*%
X114740000Y-74760000D02*
X116785000Y-72715000D01*
X116785000Y-72715000D02*
X116785000Y-71120000D01*
X114740000Y-80020000D02*
X114740000Y-74760000D01*
%TO.N,DATA_07*%
X115785000Y-70120000D02*
X114785000Y-69120000D01*
X115785000Y-71534214D02*
X115785000Y-70120000D01*
X113565000Y-73754214D02*
X115785000Y-71534214D01*
X113565000Y-81195000D02*
X113565000Y-73754214D01*
X112200000Y-82560000D02*
X113565000Y-81195000D01*
%TO.N,DATA_08*%
X112200000Y-73705000D02*
X114785000Y-71120000D01*
X112200000Y-80020000D02*
X112200000Y-73705000D01*
%TO.N,RESET*%
X111025000Y-70880000D02*
X112785000Y-69120000D01*
X111025000Y-81195000D02*
X111025000Y-70880000D01*
X109660000Y-82560000D02*
X111025000Y-81195000D01*
%TD*%
%TA.AperFunction,Conductor*%
%TO.N,GROUND*%
G36*
X159937500Y-66517113D02*
G01*
X159982887Y-66562500D01*
X159999500Y-66624500D01*
X159999500Y-84875500D01*
X159982887Y-84937500D01*
X159937500Y-84982887D01*
X159875500Y-84999500D01*
X74124500Y-84999500D01*
X74062500Y-84982887D01*
X74017113Y-84937500D01*
X74000500Y-84875500D01*
X74000500Y-75702500D01*
X75494551Y-75702500D01*
X75514317Y-75953649D01*
X75573126Y-76198610D01*
X75589020Y-76236980D01*
X75669534Y-76431359D01*
X75801164Y-76646159D01*
X75964776Y-76837724D01*
X76156341Y-77001336D01*
X76371141Y-77132966D01*
X76603889Y-77229373D01*
X76848852Y-77288183D01*
X77037118Y-77303000D01*
X77162879Y-77303000D01*
X77162882Y-77303000D01*
X77351148Y-77288183D01*
X77596111Y-77229373D01*
X77828859Y-77132966D01*
X78043659Y-77001336D01*
X78235224Y-76837724D01*
X78398836Y-76646159D01*
X78530466Y-76431359D01*
X78626873Y-76198611D01*
X78685683Y-75953648D01*
X78705449Y-75702500D01*
X78685683Y-75451352D01*
X78626873Y-75206389D01*
X78530466Y-74973641D01*
X78398836Y-74758841D01*
X78235224Y-74567276D01*
X78043659Y-74403664D01*
X77828859Y-74272034D01*
X77686886Y-74213227D01*
X77596110Y-74175626D01*
X77351149Y-74116817D01*
X77304081Y-74113112D01*
X77162882Y-74102000D01*
X77037118Y-74102000D01*
X76924158Y-74110890D01*
X76848850Y-74116817D01*
X76603889Y-74175626D01*
X76418810Y-74252289D01*
X76378761Y-74268878D01*
X76371139Y-74272035D01*
X76156342Y-74403663D01*
X75964776Y-74567276D01*
X75801163Y-74758842D01*
X75669535Y-74973639D01*
X75573126Y-75206389D01*
X75514317Y-75451350D01*
X75494551Y-75702500D01*
X74000500Y-75702500D01*
X74000500Y-71152754D01*
X74017566Y-71089975D01*
X74064068Y-71044477D01*
X74127204Y-71028783D01*
X74189596Y-71047215D01*
X74330877Y-71134357D01*
X74402283Y-71158019D01*
X74449676Y-71186778D01*
X74479801Y-71233314D01*
X74486637Y-71288327D01*
X74468818Y-71340821D01*
X74464092Y-71348482D01*
X74409825Y-71512246D01*
X74399500Y-71613323D01*
X74399500Y-72186676D01*
X74409825Y-72287752D01*
X74464091Y-72451515D01*
X74554661Y-72598352D01*
X74676647Y-72720338D01*
X74676649Y-72720339D01*
X74676650Y-72720340D01*
X74771438Y-72778806D01*
X74823484Y-72810908D01*
X74987246Y-72865174D01*
X74996614Y-72866131D01*
X75088323Y-72875500D01*
X75686676Y-72875499D01*
X75787753Y-72865174D01*
X75951516Y-72810908D01*
X76098350Y-72720340D01*
X76147274Y-72671416D01*
X76212319Y-72606372D01*
X76267906Y-72574278D01*
X76332094Y-72574278D01*
X76387681Y-72606372D01*
X76501647Y-72720338D01*
X76501649Y-72720339D01*
X76501650Y-72720340D01*
X76596438Y-72778806D01*
X76648484Y-72810908D01*
X76812246Y-72865174D01*
X76821614Y-72866131D01*
X76913323Y-72875500D01*
X77511676Y-72875499D01*
X77612753Y-72865174D01*
X77776516Y-72810908D01*
X77869809Y-72753364D01*
X77926615Y-72735181D01*
X77985341Y-72745625D01*
X78020198Y-72761145D01*
X78205352Y-72800500D01*
X78205354Y-72800500D01*
X78394646Y-72800500D01*
X78394648Y-72800500D01*
X78546569Y-72768208D01*
X78579803Y-72761144D01*
X78752730Y-72684151D01*
X78836081Y-72623593D01*
X78905870Y-72572889D01*
X78939634Y-72535391D01*
X79032533Y-72432216D01*
X79127179Y-72268284D01*
X79185674Y-72088256D01*
X79205460Y-71900000D01*
X79185674Y-71711744D01*
X79137646Y-71563930D01*
X79127179Y-71531715D01*
X79032533Y-71367783D01*
X78905870Y-71227110D01*
X78752730Y-71115848D01*
X78579802Y-71038855D01*
X78394648Y-70999500D01*
X78394646Y-70999500D01*
X78205354Y-70999500D01*
X78159755Y-71009192D01*
X78129137Y-71015700D01*
X78071820Y-71014332D01*
X78021246Y-70987327D01*
X77988225Y-70940458D01*
X77979816Y-70883745D01*
X77997819Y-70829312D01*
X78015296Y-70800978D01*
X78034814Y-70769334D01*
X78089999Y-70602797D01*
X78100500Y-70500009D01*
X78100499Y-70191726D01*
X78114096Y-70135273D01*
X78151906Y-70091198D01*
X78205636Y-70069171D01*
X78263503Y-70074022D01*
X78312246Y-70090174D01*
X78321614Y-70091131D01*
X78413323Y-70100500D01*
X78752047Y-70100499D01*
X78799500Y-70109938D01*
X78839728Y-70136818D01*
X79986697Y-71283787D01*
X79999598Y-71299889D01*
X80001712Y-71301874D01*
X80001714Y-71301877D01*
X80039034Y-71336923D01*
X80050740Y-71347916D01*
X80053536Y-71350626D01*
X80073030Y-71370120D01*
X80076204Y-71372582D01*
X80085068Y-71380153D01*
X80116918Y-71410062D01*
X80127414Y-71415832D01*
X80134474Y-71419714D01*
X80150731Y-71430392D01*
X80166564Y-71442674D01*
X80182685Y-71449649D01*
X80206656Y-71460023D01*
X80217143Y-71465160D01*
X80255408Y-71486197D01*
X80274816Y-71491180D01*
X80293210Y-71497478D01*
X80311605Y-71505438D01*
X80354754Y-71512271D01*
X80366180Y-71514638D01*
X80381722Y-71518629D01*
X80408480Y-71525500D01*
X80408481Y-71525500D01*
X80428516Y-71525500D01*
X80447913Y-71527026D01*
X80467696Y-71530160D01*
X80511174Y-71526050D01*
X80522844Y-71525500D01*
X83689487Y-71525500D01*
X83738299Y-71535512D01*
X83779230Y-71563930D01*
X83805669Y-71606166D01*
X83835949Y-71687350D01*
X83965548Y-71924693D01*
X84127606Y-72141177D01*
X84318822Y-72332393D01*
X84535306Y-72494451D01*
X84535308Y-72494452D01*
X84772652Y-72624052D01*
X85026024Y-72718555D01*
X85026027Y-72718555D01*
X85026028Y-72718556D01*
X85285876Y-72775082D01*
X85318945Y-72787416D01*
X85347199Y-72808567D01*
X95659181Y-83120549D01*
X95686061Y-83160777D01*
X95695500Y-83208230D01*
X95695500Y-84051869D01*
X95701909Y-84111483D01*
X95752204Y-84246331D01*
X95838454Y-84361546D01*
X95953669Y-84447796D01*
X96088517Y-84498091D01*
X96148127Y-84504500D01*
X97651872Y-84504499D01*
X97711483Y-84498091D01*
X97846331Y-84447796D01*
X97961546Y-84361546D01*
X98047796Y-84246331D01*
X98098091Y-84111483D01*
X98104500Y-84051873D01*
X98104499Y-82548128D01*
X98098091Y-82488517D01*
X98047796Y-82353669D01*
X97961546Y-82238454D01*
X97846331Y-82152204D01*
X97711483Y-82101909D01*
X97651873Y-82095500D01*
X97651869Y-82095500D01*
X97530605Y-82095500D01*
X97469268Y-82079267D01*
X97423990Y-82034819D01*
X97406626Y-81973792D01*
X97421722Y-81912166D01*
X97465326Y-81866074D01*
X97556231Y-81809786D01*
X97556231Y-81809785D01*
X96900000Y-81153553D01*
X96546448Y-80800001D01*
X97253553Y-80800001D01*
X97911716Y-81458163D01*
X97911717Y-81458163D01*
X97928047Y-81436540D01*
X98027505Y-81236799D01*
X98088570Y-81022182D01*
X98109157Y-80800000D01*
X98088570Y-80577817D01*
X98027505Y-80363200D01*
X97928048Y-80163461D01*
X97911716Y-80141836D01*
X97253553Y-80800000D01*
X97253553Y-80800001D01*
X96546448Y-80800001D01*
X95888282Y-80141836D01*
X95888281Y-80141836D01*
X95871952Y-80163460D01*
X95772494Y-80363200D01*
X95711429Y-80577817D01*
X95695753Y-80746994D01*
X95670366Y-80811418D01*
X95614393Y-80852183D01*
X95545288Y-80856579D01*
X95484601Y-80823234D01*
X94451580Y-79790213D01*
X96243766Y-79790213D01*
X96899998Y-80446446D01*
X96899999Y-80446446D01*
X97556232Y-79790213D01*
X97523587Y-79770000D01*
X108329364Y-79770000D01*
X109410000Y-79770000D01*
X109410000Y-78689364D01*
X109409999Y-78689364D01*
X109196507Y-78746569D01*
X108982421Y-78846400D01*
X108788921Y-78981890D01*
X108621890Y-79148921D01*
X108486400Y-79342421D01*
X108386569Y-79556507D01*
X108329364Y-79769999D01*
X108329364Y-79770000D01*
X97523587Y-79770000D01*
X97438968Y-79717606D01*
X97304793Y-79665627D01*
X97256422Y-79631831D01*
X97229148Y-79579504D01*
X97229148Y-79520496D01*
X97256422Y-79468169D01*
X97304794Y-79434373D01*
X97438968Y-79382394D01*
X97556231Y-79309786D01*
X97556231Y-79309785D01*
X96900001Y-78653553D01*
X96900000Y-78653553D01*
X96243766Y-79309785D01*
X96361031Y-79382393D01*
X96495206Y-79434373D01*
X96543577Y-79468169D01*
X96570851Y-79520496D01*
X96570851Y-79579504D01*
X96543577Y-79631831D01*
X96495206Y-79665627D01*
X96361029Y-79717607D01*
X96243767Y-79790212D01*
X96243766Y-79790213D01*
X94451580Y-79790213D01*
X92961366Y-78299999D01*
X95690842Y-78299999D01*
X95711429Y-78522182D01*
X95772494Y-78736799D01*
X95871950Y-78936537D01*
X95888282Y-78958163D01*
X96546446Y-78299999D01*
X97253553Y-78299999D01*
X97911716Y-78958163D01*
X97911717Y-78958163D01*
X97928047Y-78936540D01*
X98027505Y-78736799D01*
X98088570Y-78522182D01*
X98109157Y-78299999D01*
X98088570Y-78077817D01*
X98027505Y-77863200D01*
X97928048Y-77663461D01*
X97911716Y-77641835D01*
X97253553Y-78299998D01*
X97253553Y-78299999D01*
X96546446Y-78299999D01*
X96546446Y-78299998D01*
X95888282Y-77641836D01*
X95888281Y-77641836D01*
X95871952Y-77663460D01*
X95772494Y-77863200D01*
X95711429Y-78077817D01*
X95690842Y-78299999D01*
X92961366Y-78299999D01*
X91805977Y-77144610D01*
X90461366Y-75799999D01*
X95690340Y-75799999D01*
X95710936Y-76022276D01*
X95772025Y-76236980D01*
X95871523Y-76436801D01*
X96006050Y-76614944D01*
X96152460Y-76748413D01*
X96171017Y-76765330D01*
X96360808Y-76882843D01*
X96494517Y-76934642D01*
X96542886Y-76968436D01*
X96570160Y-77020762D01*
X96570160Y-77079770D01*
X96542887Y-77132097D01*
X96494516Y-77165893D01*
X96361031Y-77217605D01*
X96243767Y-77290212D01*
X96243766Y-77290213D01*
X96900000Y-77946446D01*
X96900001Y-77946446D01*
X97556232Y-77290213D01*
X97438963Y-77217603D01*
X97305484Y-77165893D01*
X97257113Y-77132097D01*
X97229839Y-77079770D01*
X97229839Y-77020762D01*
X97257113Y-76968436D01*
X97305480Y-76934643D01*
X97439192Y-76882843D01*
X97628983Y-76765330D01*
X97793950Y-76614943D01*
X97928474Y-76436804D01*
X97928474Y-76436802D01*
X97928476Y-76436801D01*
X98027974Y-76236980D01*
X98089063Y-76022276D01*
X98109660Y-75800000D01*
X98109526Y-75798556D01*
X98102454Y-75722243D01*
X98109294Y-75668692D01*
X98138242Y-75623124D01*
X100934549Y-72826817D01*
X100974777Y-72799938D01*
X101022230Y-72790499D01*
X102237870Y-72790499D01*
X102237872Y-72790499D01*
X102297483Y-72784091D01*
X102432331Y-72733796D01*
X102547546Y-72647546D01*
X102633796Y-72532331D01*
X102684091Y-72397483D01*
X102690500Y-72337873D01*
X102690499Y-69462128D01*
X102684091Y-69402517D01*
X102633796Y-69267669D01*
X102547546Y-69152454D01*
X102432331Y-69066204D01*
X102297483Y-69015909D01*
X102237873Y-69009500D01*
X102237869Y-69009500D01*
X99362130Y-69009500D01*
X99302515Y-69015909D01*
X99167669Y-69066204D01*
X99052454Y-69152454D01*
X98966204Y-69267668D01*
X98915909Y-69402516D01*
X98909500Y-69462130D01*
X98909500Y-72337869D01*
X98915909Y-72397484D01*
X98932435Y-72441792D01*
X98951957Y-72494134D01*
X98972435Y-72549036D01*
X98971601Y-72549346D01*
X98984806Y-72580183D01*
X98980635Y-72638502D01*
X98950204Y-72688426D01*
X97079451Y-74559181D01*
X97039223Y-74586061D01*
X96991770Y-74595500D01*
X96788387Y-74595500D01*
X96568960Y-74636518D01*
X96568961Y-74636518D01*
X96360804Y-74717158D01*
X96171016Y-74834670D01*
X96006050Y-74985055D01*
X95871523Y-75163198D01*
X95772025Y-75363019D01*
X95710936Y-75577723D01*
X95690340Y-75799999D01*
X90461366Y-75799999D01*
X87062901Y-72401533D01*
X89492018Y-72401533D01*
X89492019Y-72401534D01*
X89615576Y-72494029D01*
X89852856Y-72623593D01*
X90106169Y-72718075D01*
X90370336Y-72775540D01*
X90640000Y-72794828D01*
X90909663Y-72775540D01*
X91173830Y-72718075D01*
X91427143Y-72623593D01*
X91664423Y-72494029D01*
X91787980Y-72401534D01*
X91787980Y-72401533D01*
X94572018Y-72401533D01*
X94572019Y-72401534D01*
X94695576Y-72494029D01*
X94932856Y-72623593D01*
X95186169Y-72718075D01*
X95450336Y-72775540D01*
X95720000Y-72794828D01*
X95989663Y-72775540D01*
X96253830Y-72718075D01*
X96507143Y-72623593D01*
X96744423Y-72494029D01*
X96867980Y-72401534D01*
X96867980Y-72401533D01*
X95720001Y-71253553D01*
X95720000Y-71253553D01*
X94572018Y-72401533D01*
X91787980Y-72401533D01*
X90640001Y-71253553D01*
X90640000Y-71253553D01*
X89492018Y-72401533D01*
X87062901Y-72401533D01*
X86985150Y-72323782D01*
X86953056Y-72268193D01*
X86953057Y-72204004D01*
X86985151Y-72148419D01*
X86992394Y-72141177D01*
X87154452Y-71924692D01*
X87284052Y-71687348D01*
X87378555Y-71433976D01*
X87436037Y-71169733D01*
X87455329Y-70900000D01*
X88745171Y-70900000D01*
X88764459Y-71169663D01*
X88821924Y-71433830D01*
X88916406Y-71687143D01*
X89045967Y-71924418D01*
X89138465Y-72047980D01*
X90286446Y-70900001D01*
X90286446Y-70900000D01*
X90993553Y-70900000D01*
X92141533Y-72047980D01*
X92141534Y-72047980D01*
X92234029Y-71924423D01*
X92363593Y-71687143D01*
X92458075Y-71433830D01*
X92515540Y-71169663D01*
X92534828Y-70900000D01*
X93825171Y-70900000D01*
X93844459Y-71169663D01*
X93901924Y-71433830D01*
X93996406Y-71687143D01*
X94125967Y-71924418D01*
X94218465Y-72047980D01*
X95366446Y-70900001D01*
X96073553Y-70900001D01*
X97221533Y-72047980D01*
X97221534Y-72047980D01*
X97314029Y-71924423D01*
X97443593Y-71687143D01*
X97538075Y-71433830D01*
X97595540Y-71169663D01*
X97614828Y-70900000D01*
X97595540Y-70630336D01*
X97538075Y-70366169D01*
X97443593Y-70112856D01*
X97314029Y-69875576D01*
X97221534Y-69752019D01*
X97221533Y-69752018D01*
X96073553Y-70900000D01*
X96073553Y-70900001D01*
X95366446Y-70900001D01*
X95366446Y-70900000D01*
X94218465Y-69752018D01*
X94125967Y-69875580D01*
X93996406Y-70112856D01*
X93901924Y-70366169D01*
X93844459Y-70630336D01*
X93825171Y-70900000D01*
X92534828Y-70900000D01*
X92515540Y-70630336D01*
X92458075Y-70366169D01*
X92363593Y-70112856D01*
X92234029Y-69875576D01*
X92141534Y-69752019D01*
X92141533Y-69752018D01*
X90993553Y-70900000D01*
X90286446Y-70900000D01*
X89138465Y-69752018D01*
X89045967Y-69875580D01*
X88916406Y-70112856D01*
X88821924Y-70366169D01*
X88764459Y-70630336D01*
X88745171Y-70900000D01*
X87455329Y-70900000D01*
X87436037Y-70630267D01*
X87378555Y-70366024D01*
X87345765Y-70278113D01*
X87337982Y-70231831D01*
X87347959Y-70185969D01*
X87374263Y-70147103D01*
X88122901Y-69398465D01*
X89492018Y-69398465D01*
X90639998Y-70546446D01*
X90639999Y-70546446D01*
X91787980Y-69398465D01*
X94572018Y-69398465D01*
X95719998Y-70546446D01*
X95719999Y-70546446D01*
X96867980Y-69398465D01*
X96744418Y-69305967D01*
X96507143Y-69176406D01*
X96253830Y-69081924D01*
X95989663Y-69024459D01*
X95720000Y-69005171D01*
X95450336Y-69024459D01*
X95186169Y-69081924D01*
X94932856Y-69176406D01*
X94695580Y-69305967D01*
X94572018Y-69398465D01*
X91787980Y-69398465D01*
X91664418Y-69305967D01*
X91427143Y-69176406D01*
X91173830Y-69081924D01*
X90909663Y-69024459D01*
X90640000Y-69005171D01*
X90370336Y-69024459D01*
X90106169Y-69081924D01*
X89852856Y-69176406D01*
X89615580Y-69305967D01*
X89492018Y-69398465D01*
X88122901Y-69398465D01*
X89734548Y-67786819D01*
X89774777Y-67759939D01*
X89822230Y-67750500D01*
X111852548Y-67750500D01*
X111918091Y-67769238D01*
X111963825Y-67819789D01*
X111975929Y-67886875D01*
X111950744Y-67950221D01*
X111895882Y-67990681D01*
X111875321Y-67998350D01*
X111867669Y-68001204D01*
X111752454Y-68087454D01*
X111666204Y-68202668D01*
X111615909Y-68337516D01*
X111609500Y-68397131D01*
X111609500Y-69359546D01*
X111600061Y-69406999D01*
X111573181Y-69447227D01*
X110641208Y-70379199D01*
X110625110Y-70392096D01*
X110577096Y-70443225D01*
X110574391Y-70446017D01*
X110554874Y-70465534D01*
X110552415Y-70468705D01*
X110544842Y-70477572D01*
X110514935Y-70509420D01*
X110505285Y-70526974D01*
X110494609Y-70543228D01*
X110482326Y-70559063D01*
X110464975Y-70599158D01*
X110459838Y-70609644D01*
X110438802Y-70647907D01*
X110433821Y-70667309D01*
X110427520Y-70685711D01*
X110419561Y-70704102D01*
X110412728Y-70747242D01*
X110410360Y-70758674D01*
X110399500Y-70800978D01*
X110399500Y-70821016D01*
X110397973Y-70840415D01*
X110394840Y-70860194D01*
X110398950Y-70903675D01*
X110399500Y-70915344D01*
X110399500Y-78680633D01*
X110384214Y-78740276D01*
X110342125Y-78785214D01*
X110283610Y-78804368D01*
X110223095Y-78793015D01*
X110123492Y-78746569D01*
X109910000Y-78689364D01*
X109910000Y-80146000D01*
X109893387Y-80208000D01*
X109848000Y-80253387D01*
X109786000Y-80270000D01*
X108329364Y-80270000D01*
X108386569Y-80483492D01*
X108486399Y-80697576D01*
X108621893Y-80891081D01*
X108743946Y-81013134D01*
X108775242Y-81065880D01*
X108777431Y-81127173D01*
X108749978Y-81182018D01*
X108699599Y-81216997D01*
X108567669Y-81266204D01*
X108452454Y-81352454D01*
X108366204Y-81467668D01*
X108331432Y-81560896D01*
X108315909Y-81602517D01*
X108310228Y-81655362D01*
X108309500Y-81662130D01*
X108309500Y-83457869D01*
X108315909Y-83517484D01*
X108341056Y-83584906D01*
X108366204Y-83652331D01*
X108452454Y-83767546D01*
X108567669Y-83853796D01*
X108702517Y-83904091D01*
X108762127Y-83910500D01*
X110557872Y-83910499D01*
X110617483Y-83904091D01*
X110752331Y-83853796D01*
X110867546Y-83767546D01*
X110953796Y-83652331D01*
X111002810Y-83520916D01*
X111037789Y-83470537D01*
X111092634Y-83443084D01*
X111153927Y-83445273D01*
X111206673Y-83476569D01*
X111328599Y-83598495D01*
X111522170Y-83734035D01*
X111736337Y-83833903D01*
X111964592Y-83895063D01*
X112200000Y-83915659D01*
X112435408Y-83895063D01*
X112663663Y-83833903D01*
X112877830Y-83734035D01*
X113071401Y-83598495D01*
X113238495Y-83431401D01*
X113368426Y-83245839D01*
X113412743Y-83206975D01*
X113470000Y-83192964D01*
X113527257Y-83206975D01*
X113571573Y-83245839D01*
X113701505Y-83431401D01*
X113868599Y-83598495D01*
X114062170Y-83734035D01*
X114276337Y-83833903D01*
X114504592Y-83895063D01*
X114740000Y-83915659D01*
X114975408Y-83895063D01*
X115203663Y-83833903D01*
X115417830Y-83734035D01*
X115611401Y-83598495D01*
X115778495Y-83431401D01*
X115908426Y-83245839D01*
X115952743Y-83206975D01*
X116010000Y-83192964D01*
X116067257Y-83206975D01*
X116111573Y-83245839D01*
X116241505Y-83431401D01*
X116408599Y-83598495D01*
X116602170Y-83734035D01*
X116816337Y-83833903D01*
X117044592Y-83895063D01*
X117280000Y-83915659D01*
X117515408Y-83895063D01*
X117743663Y-83833903D01*
X117957830Y-83734035D01*
X118151401Y-83598495D01*
X118318495Y-83431401D01*
X118448426Y-83245839D01*
X118492743Y-83206975D01*
X118550000Y-83192964D01*
X118607257Y-83206975D01*
X118651573Y-83245839D01*
X118781505Y-83431401D01*
X118948599Y-83598495D01*
X119142170Y-83734035D01*
X119356337Y-83833903D01*
X119584592Y-83895063D01*
X119820000Y-83915659D01*
X120055408Y-83895063D01*
X120283663Y-83833903D01*
X120497830Y-83734035D01*
X120691401Y-83598495D01*
X120858495Y-83431401D01*
X120988426Y-83245839D01*
X121032743Y-83206975D01*
X121090000Y-83192964D01*
X121147257Y-83206975D01*
X121191573Y-83245839D01*
X121321505Y-83431401D01*
X121488599Y-83598495D01*
X121682170Y-83734035D01*
X121896337Y-83833903D01*
X122124592Y-83895063D01*
X122360000Y-83915659D01*
X122595408Y-83895063D01*
X122823663Y-83833903D01*
X123037830Y-83734035D01*
X123231401Y-83598495D01*
X123398495Y-83431401D01*
X123528426Y-83245839D01*
X123572743Y-83206975D01*
X123630000Y-83192964D01*
X123687257Y-83206975D01*
X123731573Y-83245839D01*
X123861505Y-83431401D01*
X124028599Y-83598495D01*
X124222170Y-83734035D01*
X124436337Y-83833903D01*
X124664592Y-83895063D01*
X124900000Y-83915659D01*
X125135408Y-83895063D01*
X125363663Y-83833903D01*
X125577830Y-83734035D01*
X125771401Y-83598495D01*
X125938495Y-83431401D01*
X126068426Y-83245839D01*
X126112743Y-83206975D01*
X126170000Y-83192964D01*
X126227257Y-83206975D01*
X126271573Y-83245839D01*
X126401505Y-83431401D01*
X126568599Y-83598495D01*
X126762170Y-83734035D01*
X126976337Y-83833903D01*
X127204592Y-83895063D01*
X127440000Y-83915659D01*
X127675408Y-83895063D01*
X127903663Y-83833903D01*
X128117830Y-83734035D01*
X128311401Y-83598495D01*
X128478495Y-83431401D01*
X128608426Y-83245839D01*
X128652743Y-83206975D01*
X128710000Y-83192964D01*
X128767257Y-83206975D01*
X128811573Y-83245839D01*
X128941505Y-83431401D01*
X129108599Y-83598495D01*
X129302170Y-83734035D01*
X129516337Y-83833903D01*
X129744592Y-83895063D01*
X129980000Y-83915659D01*
X130215408Y-83895063D01*
X130443663Y-83833903D01*
X130657830Y-83734035D01*
X130851401Y-83598495D01*
X131018495Y-83431401D01*
X131148732Y-83245402D01*
X131193048Y-83206539D01*
X131250305Y-83192528D01*
X131307562Y-83206539D01*
X131351880Y-83245404D01*
X131481893Y-83431081D01*
X131648918Y-83598106D01*
X131842423Y-83733600D01*
X132056507Y-83833430D01*
X132269999Y-83890635D01*
X132270000Y-83890636D01*
X132270000Y-82434000D01*
X132286613Y-82372000D01*
X132332000Y-82326613D01*
X132394000Y-82310000D01*
X132646000Y-82310000D01*
X132708000Y-82326613D01*
X132753387Y-82372000D01*
X132770000Y-82434000D01*
X132770000Y-83890635D01*
X132983492Y-83833430D01*
X133197576Y-83733600D01*
X133391081Y-83598106D01*
X133558109Y-83431078D01*
X133688119Y-83245405D01*
X133732437Y-83206539D01*
X133789694Y-83192528D01*
X133846951Y-83206539D01*
X133891267Y-83245402D01*
X134021505Y-83431401D01*
X134188599Y-83598495D01*
X134382170Y-83734035D01*
X134596337Y-83833903D01*
X134824592Y-83895063D01*
X135060000Y-83915659D01*
X135295408Y-83895063D01*
X135523663Y-83833903D01*
X135737830Y-83734035D01*
X135931401Y-83598495D01*
X136098495Y-83431401D01*
X136228426Y-83245839D01*
X136272743Y-83206975D01*
X136330000Y-83192964D01*
X136387257Y-83206975D01*
X136431573Y-83245839D01*
X136561505Y-83431401D01*
X136728599Y-83598495D01*
X136922170Y-83734035D01*
X137136337Y-83833903D01*
X137364592Y-83895063D01*
X137600000Y-83915659D01*
X137835408Y-83895063D01*
X138063663Y-83833903D01*
X138277830Y-83734035D01*
X138471401Y-83598495D01*
X138638495Y-83431401D01*
X138768426Y-83245839D01*
X138812743Y-83206975D01*
X138870000Y-83192964D01*
X138927257Y-83206975D01*
X138971573Y-83245839D01*
X139101505Y-83431401D01*
X139268599Y-83598495D01*
X139462170Y-83734035D01*
X139676337Y-83833903D01*
X139904592Y-83895063D01*
X140140000Y-83915659D01*
X140375408Y-83895063D01*
X140603663Y-83833903D01*
X140817830Y-83734035D01*
X141011401Y-83598495D01*
X141178495Y-83431401D01*
X141308426Y-83245839D01*
X141352743Y-83206975D01*
X141410000Y-83192964D01*
X141467257Y-83206975D01*
X141511573Y-83245839D01*
X141641505Y-83431401D01*
X141808599Y-83598495D01*
X142002170Y-83734035D01*
X142216337Y-83833903D01*
X142444592Y-83895063D01*
X142680000Y-83915659D01*
X142915408Y-83895063D01*
X143143663Y-83833903D01*
X143357830Y-83734035D01*
X143551401Y-83598495D01*
X143718495Y-83431401D01*
X143848426Y-83245839D01*
X143892743Y-83206975D01*
X143950000Y-83192964D01*
X144007257Y-83206975D01*
X144051573Y-83245839D01*
X144181505Y-83431401D01*
X144348599Y-83598495D01*
X144542170Y-83734035D01*
X144756337Y-83833903D01*
X144984592Y-83895063D01*
X145220000Y-83915659D01*
X145455408Y-83895063D01*
X145683663Y-83833903D01*
X145897830Y-83734035D01*
X146091401Y-83598495D01*
X146258495Y-83431401D01*
X146388426Y-83245839D01*
X146432743Y-83206975D01*
X146490000Y-83192964D01*
X146547257Y-83206975D01*
X146591573Y-83245839D01*
X146721505Y-83431401D01*
X146888599Y-83598495D01*
X147082170Y-83734035D01*
X147296337Y-83833903D01*
X147524592Y-83895063D01*
X147760000Y-83915659D01*
X147995408Y-83895063D01*
X148223663Y-83833903D01*
X148437830Y-83734035D01*
X148631401Y-83598495D01*
X148798495Y-83431401D01*
X148928426Y-83245839D01*
X148972743Y-83206975D01*
X149030000Y-83192964D01*
X149087257Y-83206975D01*
X149131573Y-83245839D01*
X149261505Y-83431401D01*
X149428599Y-83598495D01*
X149622170Y-83734035D01*
X149836337Y-83833903D01*
X150064592Y-83895063D01*
X150300000Y-83915659D01*
X150535408Y-83895063D01*
X150763663Y-83833903D01*
X150977830Y-83734035D01*
X151171401Y-83598495D01*
X151338495Y-83431401D01*
X151468426Y-83245839D01*
X151512743Y-83206975D01*
X151570000Y-83192964D01*
X151627257Y-83206975D01*
X151671573Y-83245839D01*
X151801505Y-83431401D01*
X151968599Y-83598495D01*
X152162170Y-83734035D01*
X152376337Y-83833903D01*
X152604592Y-83895063D01*
X152840000Y-83915659D01*
X153075408Y-83895063D01*
X153303663Y-83833903D01*
X153517830Y-83734035D01*
X153711401Y-83598495D01*
X153878495Y-83431401D01*
X154008426Y-83245839D01*
X154052743Y-83206975D01*
X154110000Y-83192964D01*
X154167257Y-83206975D01*
X154211573Y-83245839D01*
X154341505Y-83431401D01*
X154508599Y-83598495D01*
X154702170Y-83734035D01*
X154916337Y-83833903D01*
X155144592Y-83895063D01*
X155380000Y-83915659D01*
X155615408Y-83895063D01*
X155843663Y-83833903D01*
X156057830Y-83734035D01*
X156251401Y-83598495D01*
X156418495Y-83431401D01*
X156548426Y-83245839D01*
X156592743Y-83206975D01*
X156650000Y-83192964D01*
X156707257Y-83206975D01*
X156751573Y-83245839D01*
X156881505Y-83431401D01*
X157048599Y-83598495D01*
X157242170Y-83734035D01*
X157456337Y-83833903D01*
X157684592Y-83895063D01*
X157920000Y-83915659D01*
X158155408Y-83895063D01*
X158383663Y-83833903D01*
X158597830Y-83734035D01*
X158791401Y-83598495D01*
X158958495Y-83431401D01*
X159094035Y-83237830D01*
X159193903Y-83023663D01*
X159255063Y-82795408D01*
X159275659Y-82560000D01*
X159255063Y-82324592D01*
X159228143Y-82224124D01*
X159228143Y-82159940D01*
X159260235Y-82104354D01*
X159478789Y-81885800D01*
X159494885Y-81872906D01*
X159496873Y-81870787D01*
X159496877Y-81870786D01*
X159542948Y-81821723D01*
X159545566Y-81819023D01*
X159565120Y-81799471D01*
X159567581Y-81796298D01*
X159575156Y-81787427D01*
X159605062Y-81755582D01*
X159614712Y-81738027D01*
X159625400Y-81721757D01*
X159637673Y-81705936D01*
X159655026Y-81665832D01*
X159660157Y-81655362D01*
X159681197Y-81617092D01*
X159686175Y-81597699D01*
X159692481Y-81579282D01*
X159700379Y-81561032D01*
X159700438Y-81560896D01*
X159707272Y-81517745D01*
X159709635Y-81506331D01*
X159720500Y-81464019D01*
X159720500Y-81443984D01*
X159722027Y-81424585D01*
X159723983Y-81412233D01*
X159725160Y-81404804D01*
X159721050Y-81361325D01*
X159720500Y-81349656D01*
X159720500Y-79616040D01*
X159722763Y-79595536D01*
X159722259Y-79579504D01*
X159720561Y-79525444D01*
X159720500Y-79521550D01*
X159720500Y-79493956D01*
X159720500Y-79493949D01*
X159719995Y-79489952D01*
X159719080Y-79478322D01*
X159718761Y-79468169D01*
X159717709Y-79434672D01*
X159712120Y-79415439D01*
X159708174Y-79396381D01*
X159705664Y-79376507D01*
X159689588Y-79335905D01*
X159685804Y-79324851D01*
X159673619Y-79282912D01*
X159673618Y-79282911D01*
X159673618Y-79282909D01*
X159663417Y-79265660D01*
X159654860Y-79248194D01*
X159647486Y-79229567D01*
X159621813Y-79194231D01*
X159615402Y-79184471D01*
X159594378Y-79148921D01*
X159593170Y-79146878D01*
X159579006Y-79132714D01*
X159566369Y-79117919D01*
X159554595Y-79101713D01*
X159554594Y-79101712D01*
X159520935Y-79073867D01*
X159512305Y-79066013D01*
X158362503Y-77916211D01*
X158349607Y-77900113D01*
X158298476Y-77852098D01*
X158295679Y-77849387D01*
X158276171Y-77829879D01*
X158272991Y-77827412D01*
X158264125Y-77819839D01*
X158232283Y-77789938D01*
X158214725Y-77780285D01*
X158198465Y-77769604D01*
X158182637Y-77757327D01*
X158142552Y-77739980D01*
X158132062Y-77734841D01*
X158093792Y-77713802D01*
X158074392Y-77708821D01*
X158055985Y-77702519D01*
X158037598Y-77694562D01*
X157994459Y-77687729D01*
X157983025Y-77685361D01*
X157940720Y-77674500D01*
X157920685Y-77674500D01*
X157901287Y-77672973D01*
X157893863Y-77671797D01*
X157881506Y-77669840D01*
X157881505Y-77669840D01*
X157848452Y-77672964D01*
X157838026Y-77673950D01*
X157826357Y-77674500D01*
X157010452Y-77674500D01*
X156962999Y-77665061D01*
X156922771Y-77638181D01*
X156799271Y-77514681D01*
X156769021Y-77465318D01*
X156764479Y-77407602D01*
X156786634Y-77354115D01*
X156830657Y-77316515D01*
X156886952Y-77303000D01*
X156962879Y-77303000D01*
X156962882Y-77303000D01*
X157151148Y-77288183D01*
X157396111Y-77229373D01*
X157628859Y-77132966D01*
X157843659Y-77001336D01*
X158035224Y-76837724D01*
X158198836Y-76646159D01*
X158330466Y-76431359D01*
X158426873Y-76198611D01*
X158485683Y-75953648D01*
X158505449Y-75702500D01*
X158485683Y-75451352D01*
X158426873Y-75206389D01*
X158330466Y-74973641D01*
X158198836Y-74758841D01*
X158035224Y-74567276D01*
X157843659Y-74403664D01*
X157628859Y-74272034D01*
X157486886Y-74213227D01*
X157396110Y-74175626D01*
X157151149Y-74116817D01*
X157104081Y-74113112D01*
X156962882Y-74102000D01*
X156837118Y-74102000D01*
X156724158Y-74110890D01*
X156648850Y-74116817D01*
X156403889Y-74175626D01*
X156218810Y-74252289D01*
X156178761Y-74268878D01*
X156171139Y-74272035D01*
X155956342Y-74403663D01*
X155764776Y-74567276D01*
X155601163Y-74758842D01*
X155469535Y-74973639D01*
X155373126Y-75206389D01*
X155335523Y-75363020D01*
X155314317Y-75451352D01*
X155294551Y-75702500D01*
X155294551Y-75702504D01*
X155293786Y-75712229D01*
X155292615Y-75712136D01*
X155284628Y-75760123D01*
X155248356Y-75807649D01*
X155194062Y-75832679D01*
X155134366Y-75829393D01*
X155083146Y-75798556D01*
X153872248Y-74587658D01*
X152446819Y-73162228D01*
X152419939Y-73122000D01*
X152410500Y-73074547D01*
X152410500Y-72395183D01*
X152422253Y-72342490D01*
X152455283Y-72299786D01*
X152503330Y-72275165D01*
X152557282Y-72273294D01*
X152676074Y-72295500D01*
X152893924Y-72295500D01*
X152893926Y-72295500D01*
X153108069Y-72255470D01*
X153285645Y-72186676D01*
X153311208Y-72176773D01*
X153311210Y-72176772D01*
X153496432Y-72062088D01*
X153657427Y-71915322D01*
X153686360Y-71877008D01*
X153730041Y-71840736D01*
X153785313Y-71827736D01*
X153840585Y-71840736D01*
X153884268Y-71877010D01*
X153912945Y-71914986D01*
X154073868Y-72061685D01*
X154259012Y-72176322D01*
X154462069Y-72254986D01*
X154535000Y-72268620D01*
X154535000Y-71370000D01*
X155035000Y-71370000D01*
X155035000Y-72268620D01*
X155107930Y-72254986D01*
X155310987Y-72176322D01*
X155496131Y-72061685D01*
X155657055Y-71914985D01*
X155788287Y-71741205D01*
X155885348Y-71546278D01*
X155935505Y-71370000D01*
X155035000Y-71370000D01*
X154535000Y-71370000D01*
X154535000Y-69370000D01*
X155035000Y-69370000D01*
X155035000Y-70870000D01*
X155935505Y-70870000D01*
X155935505Y-70869999D01*
X155885348Y-70693721D01*
X155788287Y-70498794D01*
X155657057Y-70325018D01*
X155532684Y-70211638D01*
X155496956Y-70153934D01*
X155496956Y-70086066D01*
X155532684Y-70028362D01*
X155657057Y-69914981D01*
X155788287Y-69741205D01*
X155885348Y-69546278D01*
X155935505Y-69370000D01*
X155035000Y-69370000D01*
X154535000Y-69370000D01*
X154535000Y-67971380D01*
X155035000Y-67971380D01*
X155035000Y-68870000D01*
X155935505Y-68870000D01*
X155935505Y-68869999D01*
X155885348Y-68693721D01*
X155788287Y-68498794D01*
X155657055Y-68325014D01*
X155496131Y-68178314D01*
X155310987Y-68063677D01*
X155107930Y-67985013D01*
X155035000Y-67971380D01*
X154535000Y-67971380D01*
X154462069Y-67985013D01*
X154259012Y-68063677D01*
X154073868Y-68178314D01*
X153912944Y-68325015D01*
X153884267Y-68362990D01*
X153840584Y-68399263D01*
X153785313Y-68412263D01*
X153730041Y-68399263D01*
X153686359Y-68362990D01*
X153657426Y-68324676D01*
X153496432Y-68177912D01*
X153311208Y-68063226D01*
X153108073Y-67984531D01*
X153108070Y-67984530D01*
X153108069Y-67984530D01*
X152893926Y-67944500D01*
X152722229Y-67944500D01*
X152674776Y-67935061D01*
X152634548Y-67908181D01*
X151438549Y-66712181D01*
X151408299Y-66662818D01*
X151403757Y-66605102D01*
X151425912Y-66551615D01*
X151469935Y-66514015D01*
X151526230Y-66500500D01*
X159875500Y-66500500D01*
X159937500Y-66517113D01*
G37*
%TD.AperFunction*%
%TA.AperFunction,Conductor*%
G36*
X144642818Y-76546521D02*
G01*
X144692181Y-76576771D01*
X145733181Y-77617771D01*
X145760061Y-77657999D01*
X145769500Y-77705452D01*
X145769500Y-78608015D01*
X145756712Y-78662859D01*
X145720986Y-78706391D01*
X145669691Y-78729632D01*
X145613406Y-78727790D01*
X145470000Y-78689364D01*
X145470000Y-80146000D01*
X145453387Y-80208000D01*
X145408000Y-80253387D01*
X145346000Y-80270000D01*
X145094000Y-80270000D01*
X145032000Y-80253387D01*
X144986613Y-80208000D01*
X144970000Y-80146000D01*
X144970000Y-78689364D01*
X144969999Y-78689364D01*
X144756507Y-78746569D01*
X144656905Y-78793015D01*
X144596390Y-78804368D01*
X144537875Y-78785214D01*
X144495786Y-78740276D01*
X144480500Y-78680633D01*
X144480500Y-76664452D01*
X144494015Y-76608157D01*
X144531615Y-76564134D01*
X144585102Y-76541979D01*
X144642818Y-76546521D01*
G37*
%TD.AperFunction*%
%TA.AperFunction,Conductor*%
G36*
X139752818Y-75156522D02*
G01*
X139802181Y-75186772D01*
X142018181Y-77402772D01*
X142045061Y-77443000D01*
X142054500Y-77490453D01*
X142054500Y-78744774D01*
X142040489Y-78802031D01*
X142001623Y-78846348D01*
X142001550Y-78846400D01*
X141808598Y-78981505D01*
X141641508Y-79148595D01*
X141641505Y-79148598D01*
X141641505Y-79148599D01*
X141609550Y-79194236D01*
X141511269Y-79334596D01*
X141466951Y-79373461D01*
X141409694Y-79387472D01*
X141352437Y-79373461D01*
X141308119Y-79334595D01*
X141178109Y-79148921D01*
X141011081Y-78981893D01*
X140817576Y-78846399D01*
X140603492Y-78746569D01*
X140390000Y-78689364D01*
X140390000Y-80146000D01*
X140373387Y-80208000D01*
X140328000Y-80253387D01*
X140266000Y-80270000D01*
X139714500Y-80270000D01*
X139652500Y-80253387D01*
X139607113Y-80208000D01*
X139590500Y-80146000D01*
X139590500Y-79894000D01*
X139607113Y-79832000D01*
X139652500Y-79786613D01*
X139714500Y-79770000D01*
X139890000Y-79770000D01*
X139890000Y-78689364D01*
X139889999Y-78689364D01*
X139746594Y-78727790D01*
X139690309Y-78729632D01*
X139639014Y-78706391D01*
X139603288Y-78662859D01*
X139590500Y-78608015D01*
X139590500Y-75274453D01*
X139604015Y-75218158D01*
X139641615Y-75174135D01*
X139695102Y-75151980D01*
X139752818Y-75156522D01*
G37*
%TD.AperFunction*%
%TA.AperFunction,Conductor*%
G36*
X137235598Y-74117173D02*
G01*
X137281232Y-74161955D01*
X137286830Y-74171420D01*
X137300995Y-74185585D01*
X137313627Y-74200375D01*
X137325406Y-74216587D01*
X137359058Y-74244426D01*
X137367699Y-74252289D01*
X138303181Y-75187772D01*
X138330061Y-75228000D01*
X138339500Y-75275453D01*
X138339500Y-78680633D01*
X138324214Y-78740276D01*
X138282125Y-78785214D01*
X138223610Y-78804368D01*
X138163095Y-78793015D01*
X138063492Y-78746569D01*
X137850000Y-78689364D01*
X137850000Y-79770000D01*
X138215500Y-79770000D01*
X138277500Y-79786613D01*
X138322887Y-79832000D01*
X138339500Y-79894000D01*
X138339500Y-80146000D01*
X138322887Y-80208000D01*
X138277500Y-80253387D01*
X138215500Y-80270000D01*
X137174500Y-80270000D01*
X137112500Y-80253387D01*
X137067113Y-80208000D01*
X137050500Y-80146000D01*
X137050500Y-79894000D01*
X137067113Y-79832000D01*
X137112500Y-79786613D01*
X137174500Y-79770000D01*
X137350000Y-79770000D01*
X137350000Y-78689364D01*
X137349999Y-78689364D01*
X137206594Y-78727790D01*
X137150309Y-78729632D01*
X137099014Y-78706391D01*
X137063288Y-78662859D01*
X137050500Y-78608015D01*
X137050500Y-74225076D01*
X137066983Y-74163301D01*
X137112051Y-74117949D01*
X137173721Y-74101078D01*
X137235598Y-74117173D01*
G37*
%TD.AperFunction*%
%TA.AperFunction,Conductor*%
G36*
X135097500Y-70886613D02*
G01*
X135142887Y-70932000D01*
X135159500Y-70994000D01*
X135159500Y-71246000D01*
X135142887Y-71308000D01*
X135097500Y-71353387D01*
X135035500Y-71370000D01*
X135035000Y-71370000D01*
X135035000Y-72268621D01*
X135040231Y-72272964D01*
X135068780Y-72273841D01*
X135116262Y-72297468D01*
X135149529Y-72338772D01*
X135157106Y-72368819D01*
X135157920Y-72368583D01*
X135167879Y-72402860D01*
X135171825Y-72421916D01*
X135174335Y-72441792D01*
X135190414Y-72482404D01*
X135194197Y-72493451D01*
X135206382Y-72535391D01*
X135216580Y-72552635D01*
X135225136Y-72570100D01*
X135232514Y-72588732D01*
X135232515Y-72588733D01*
X135258180Y-72624059D01*
X135264593Y-72633822D01*
X135286826Y-72671416D01*
X135286829Y-72671419D01*
X135286830Y-72671420D01*
X135300995Y-72685585D01*
X135313627Y-72700375D01*
X135325406Y-72716587D01*
X135359058Y-72744426D01*
X135367699Y-72752289D01*
X135763181Y-73147771D01*
X135790061Y-73187999D01*
X135799500Y-73235452D01*
X135799500Y-78680633D01*
X135784214Y-78740276D01*
X135742125Y-78785214D01*
X135683610Y-78804368D01*
X135623095Y-78793015D01*
X135523492Y-78746569D01*
X135310000Y-78689364D01*
X135310000Y-79770000D01*
X135675500Y-79770000D01*
X135737500Y-79786613D01*
X135782887Y-79832000D01*
X135799500Y-79894000D01*
X135799500Y-80146000D01*
X135782887Y-80208000D01*
X135737500Y-80253387D01*
X135675500Y-80270000D01*
X134934000Y-80270000D01*
X134872000Y-80253387D01*
X134826613Y-80208000D01*
X134810000Y-80146000D01*
X134810000Y-78689364D01*
X134809999Y-78689364D01*
X134596509Y-78746569D01*
X134586904Y-78751048D01*
X134526389Y-78762399D01*
X134467875Y-78743245D01*
X134425786Y-78698307D01*
X134410500Y-78638665D01*
X134410500Y-72394675D01*
X134422253Y-72341982D01*
X134455283Y-72299278D01*
X134503329Y-72274657D01*
X134528793Y-72273773D01*
X134535000Y-72268620D01*
X134535000Y-71370000D01*
X134534500Y-71370000D01*
X134472500Y-71353387D01*
X134427113Y-71308000D01*
X134410500Y-71246000D01*
X134410500Y-70994000D01*
X134427113Y-70932000D01*
X134472500Y-70886613D01*
X134534500Y-70870000D01*
X135035500Y-70870000D01*
X135097500Y-70886613D01*
G37*
%TD.AperFunction*%
%TA.AperFunction,Conductor*%
G36*
X133097500Y-70886613D02*
G01*
X133142887Y-70932000D01*
X133159500Y-70994000D01*
X133159500Y-71246000D01*
X133142887Y-71308000D01*
X133097500Y-71353387D01*
X133035500Y-71370000D01*
X133035000Y-71370000D01*
X133035000Y-72268621D01*
X133041206Y-72273773D01*
X133066671Y-72274657D01*
X133114717Y-72299278D01*
X133147747Y-72341982D01*
X133159500Y-72394675D01*
X133159500Y-78633450D01*
X133144215Y-78693092D01*
X133102127Y-78738030D01*
X133043613Y-78757184D01*
X132994397Y-78747953D01*
X132994142Y-78748905D01*
X132983663Y-78746097D01*
X132915340Y-78727790D01*
X132755407Y-78684936D01*
X132520000Y-78664340D01*
X132284592Y-78684936D01*
X132056336Y-78746097D01*
X131956905Y-78792463D01*
X131896390Y-78803816D01*
X131837875Y-78784662D01*
X131795786Y-78739724D01*
X131780500Y-78680081D01*
X131780500Y-74601348D01*
X131782764Y-74580840D01*
X131780561Y-74510717D01*
X131780500Y-74506823D01*
X131780500Y-74479258D01*
X131780500Y-74479254D01*
X131779997Y-74475274D01*
X131779081Y-74463632D01*
X131778805Y-74454840D01*
X131777710Y-74419977D01*
X131772118Y-74400730D01*
X131768174Y-74381689D01*
X131765664Y-74361812D01*
X131749579Y-74321187D01*
X131745808Y-74310172D01*
X131733618Y-74268214D01*
X131723414Y-74250959D01*
X131714861Y-74233499D01*
X131707486Y-74214873D01*
X131707486Y-74214872D01*
X131681808Y-74179529D01*
X131675401Y-74169775D01*
X131653169Y-74132183D01*
X131639006Y-74118020D01*
X131626367Y-74103221D01*
X131614595Y-74087017D01*
X131580941Y-74059177D01*
X131572299Y-74051313D01*
X130446819Y-72925832D01*
X130419939Y-72885604D01*
X130410500Y-72838151D01*
X130410500Y-72395183D01*
X130422253Y-72342490D01*
X130455283Y-72299786D01*
X130503330Y-72275165D01*
X130557282Y-72273294D01*
X130676074Y-72295500D01*
X130893924Y-72295500D01*
X130893926Y-72295500D01*
X131108069Y-72255470D01*
X131285645Y-72186676D01*
X131311208Y-72176773D01*
X131311210Y-72176772D01*
X131496432Y-72062088D01*
X131657427Y-71915322D01*
X131686360Y-71877008D01*
X131730041Y-71840736D01*
X131785313Y-71827736D01*
X131840585Y-71840736D01*
X131884268Y-71877010D01*
X131912945Y-71914986D01*
X132073868Y-72061685D01*
X132259012Y-72176322D01*
X132462069Y-72254986D01*
X132535000Y-72268619D01*
X132535000Y-70994000D01*
X132551613Y-70932000D01*
X132597000Y-70886613D01*
X132659000Y-70870000D01*
X133035500Y-70870000D01*
X133097500Y-70886613D01*
G37*
%TD.AperFunction*%
%TA.AperFunction,Conductor*%
G36*
X150973000Y-70886613D02*
G01*
X151018387Y-70932000D01*
X151035000Y-70994000D01*
X151035000Y-72268621D01*
X151041206Y-72273773D01*
X151066671Y-72274657D01*
X151114717Y-72299278D01*
X151147747Y-72341982D01*
X151159500Y-72394675D01*
X151159500Y-72656333D01*
X151145985Y-72712628D01*
X151108385Y-72756651D01*
X151054898Y-72778806D01*
X150997182Y-72774264D01*
X150947819Y-72744014D01*
X150571319Y-72367514D01*
X150544439Y-72327286D01*
X150535000Y-72279833D01*
X150535000Y-70994000D01*
X150551613Y-70932000D01*
X150597000Y-70886613D01*
X150659000Y-70870000D01*
X150911000Y-70870000D01*
X150973000Y-70886613D01*
G37*
%TD.AperFunction*%
%TA.AperFunction,Conductor*%
G36*
X136973000Y-70886613D02*
G01*
X137018387Y-70932000D01*
X137035000Y-70994000D01*
X137035000Y-71246000D01*
X137018387Y-71308000D01*
X136973000Y-71353387D01*
X136911000Y-71370000D01*
X136534500Y-71370000D01*
X136472500Y-71353387D01*
X136427113Y-71308000D01*
X136410500Y-71246000D01*
X136410500Y-70994000D01*
X136427113Y-70932000D01*
X136472500Y-70886613D01*
X136534500Y-70870000D01*
X136911000Y-70870000D01*
X136973000Y-70886613D01*
G37*
%TD.AperFunction*%
%TA.AperFunction,Conductor*%
G36*
X75163000Y-67366613D02*
G01*
X75208387Y-67412000D01*
X75225000Y-67474000D01*
X75225000Y-70126000D01*
X75208387Y-70188000D01*
X75163000Y-70233387D01*
X75101000Y-70250000D01*
X74849000Y-70250000D01*
X74787000Y-70233387D01*
X74741613Y-70188000D01*
X74725000Y-70126000D01*
X74725000Y-67474000D01*
X74741613Y-67412000D01*
X74787000Y-67366613D01*
X74849000Y-67350000D01*
X75101000Y-67350000D01*
X75163000Y-67366613D01*
G37*
%TD.AperFunction*%
%TD*%
M02*
