%TF.GenerationSoftware,KiCad,Pcbnew,7.0.1*%
%TF.CreationDate,2023-04-11T11:00:07-05:00*%
%TF.ProjectId,ata_40_to_ata_44_adapter,6174615f-3430-45f7-946f-5f6174615f34,rev?*%
%TF.SameCoordinates,Original*%
%TF.FileFunction,Soldermask,Bot*%
%TF.FilePolarity,Negative*%
%FSLAX46Y46*%
G04 Gerber Fmt 4.6, Leading zero omitted, Abs format (unit mm)*
G04 Created by KiCad (PCBNEW 7.0.1) date 2023-04-11 11:00:07*
%MOMM*%
%LPD*%
G01*
G04 APERTURE LIST*
%ADD10C,2.700000*%
%ADD11C,1.408000*%
%ADD12R,1.408000X1.408000*%
%ADD13C,2.780000*%
%ADD14R,2.780000X2.780000*%
%ADD15R,1.350000X1.350000*%
%ADD16O,1.350000X1.350000*%
%ADD17R,1.700000X1.700000*%
%ADD18O,1.700000X1.700000*%
G04 APERTURE END LIST*
D10*
%TO.C,H2*%
X77100000Y-75702500D03*
%TD*%
%TO.C,H1*%
X156900000Y-75702500D03*
%TD*%
D11*
%TO.C,J4*%
X96900000Y-75800000D03*
X96900000Y-78300000D03*
X96900000Y-80800000D03*
D12*
X96900000Y-83300000D03*
%TD*%
D13*
%TO.C,J3*%
X85560000Y-70900000D03*
X90640000Y-70900000D03*
X95720000Y-70900000D03*
D14*
X100800000Y-70900000D03*
%TD*%
D15*
%TO.C,J2*%
X112785000Y-69120000D03*
D16*
X112785000Y-71120000D03*
X114785000Y-69120000D03*
X114785000Y-71120000D03*
X116785000Y-69120000D03*
X116785000Y-71120000D03*
X118785000Y-69120000D03*
X118785000Y-71120000D03*
X120785000Y-69120000D03*
X120785000Y-71120000D03*
X122785000Y-69120000D03*
X122785000Y-71120000D03*
X124785000Y-69120000D03*
X124785000Y-71120000D03*
X126785000Y-69120000D03*
X126785000Y-71120000D03*
X128785000Y-69120000D03*
X128785000Y-71120000D03*
X130785000Y-69120000D03*
X130785000Y-71120000D03*
X132785000Y-69120000D03*
X132785000Y-71120000D03*
X134785000Y-69120000D03*
X134785000Y-71120000D03*
X136785000Y-69120000D03*
X136785000Y-71120000D03*
X138785000Y-69120000D03*
X138785000Y-71120000D03*
X140785000Y-69120000D03*
X140785000Y-71120000D03*
X142785000Y-69120000D03*
X142785000Y-71120000D03*
X144785000Y-69120000D03*
X144785000Y-71120000D03*
X146785000Y-69120000D03*
X146785000Y-71120000D03*
X148785000Y-69120000D03*
X148785000Y-71120000D03*
X150785000Y-69120000D03*
X150785000Y-71120000D03*
X152785000Y-69120000D03*
X152785000Y-71120000D03*
X154785000Y-69120000D03*
X154785000Y-71120000D03*
%TD*%
D17*
%TO.C,J1*%
X109660000Y-82560000D03*
D18*
X109660000Y-80020000D03*
X112200000Y-82560000D03*
X112200000Y-80020000D03*
X114740000Y-82560000D03*
X114740000Y-80020000D03*
X117280000Y-82560000D03*
X117280000Y-80020000D03*
X119820000Y-82560000D03*
X119820000Y-80020000D03*
X122360000Y-82560000D03*
X122360000Y-80020000D03*
X124900000Y-82560000D03*
X124900000Y-80020000D03*
X127440000Y-82560000D03*
X127440000Y-80020000D03*
X129980000Y-82560000D03*
X129980000Y-80020000D03*
X132520000Y-82560000D03*
X132520000Y-80020000D03*
X135060000Y-82560000D03*
X135060000Y-80020000D03*
X137600000Y-82560000D03*
X137600000Y-80020000D03*
X140140000Y-82560000D03*
X140140000Y-80020000D03*
X142680000Y-82560000D03*
X142680000Y-80020000D03*
X145220000Y-82560000D03*
X145220000Y-80020000D03*
X147760000Y-82560000D03*
X147760000Y-80020000D03*
X150300000Y-82560000D03*
X150300000Y-80020000D03*
X152840000Y-82560000D03*
X152840000Y-80020000D03*
X155380000Y-82560000D03*
X155380000Y-80020000D03*
X157920000Y-82560000D03*
X157920000Y-80020000D03*
%TD*%
M02*
