M48
; DRILL file {KiCad 7.0.1} date Tue Apr 11 11:00:08 2023
; FORMAT={-:-/ absolute / inch / decimal}
; #@! TF.CreationDate,2023-04-11T11:00:08-05:00
; #@! TF.GenerationSoftware,Kicad,Pcbnew,7.0.1
; #@! TF.FileFunction,Plated,1,2,PTH
FMAT,2
INCH
; #@! TA.AperFunction,Plated,PTH,ViaDrill
T1C0.0157
; #@! TA.AperFunction,Plated,PTH,ComponentDrill
T2C0.0315
; #@! TA.AperFunction,Plated,PTH,ComponentDrill
T3C0.0354
; #@! TA.AperFunction,Plated,PTH,ComponentDrill
T4C0.0394
; #@! TA.AperFunction,Plated,PTH,ComponentDrill
T5C0.0701
%
G90
G05
T1
X3.0827Y-2.8307
T2
X4.4404Y-2.7213
X4.4404Y-2.8
X4.5191Y-2.7213
X4.5191Y-2.8
X4.5978Y-2.7213
X4.5978Y-2.8
X4.6766Y-2.7213
X4.6766Y-2.8
X4.7553Y-2.7213
X4.7553Y-2.8
X4.8341Y-2.7213
X4.8341Y-2.8
X4.9128Y-2.7213
X4.9128Y-2.8
X4.9915Y-2.7213
X4.9915Y-2.8
X5.0703Y-2.7213
X5.0703Y-2.8
X5.149Y-2.7213
X5.149Y-2.8
X5.2278Y-2.7213
X5.2278Y-2.8
X5.3065Y-2.7213
X5.3065Y-2.8
X5.3852Y-2.7213
X5.3852Y-2.8
X5.464Y-2.7213
X5.464Y-2.8
X5.5427Y-2.7213
X5.5427Y-2.8
X5.6215Y-2.7213
X5.6215Y-2.8
X5.7002Y-2.7213
X5.7002Y-2.8
X5.7789Y-2.7213
X5.7789Y-2.8
X5.8577Y-2.7213
X5.8577Y-2.8
X5.9364Y-2.7213
X5.9364Y-2.8
X6.0152Y-2.7213
X6.0152Y-2.8
X6.0939Y-2.7213
X6.0939Y-2.8
T3
X3.815Y-2.9843
X3.815Y-3.0827
X3.815Y-3.1811
X3.815Y-3.2795
T4
X4.3173Y-3.1504
X4.3173Y-3.2504
X4.4173Y-3.1504
X4.4173Y-3.2504
X4.5173Y-3.1504
X4.5173Y-3.2504
X4.6173Y-3.1504
X4.6173Y-3.2504
X4.7173Y-3.1504
X4.7173Y-3.2504
X4.8173Y-3.1504
X4.8173Y-3.2504
X4.9173Y-3.1504
X4.9173Y-3.2504
X5.0173Y-3.1504
X5.0173Y-3.2504
X5.1173Y-3.1504
X5.1173Y-3.2504
X5.2173Y-3.1504
X5.2173Y-3.2504
X5.3173Y-3.1504
X5.3173Y-3.2504
X5.4173Y-3.1504
X5.4173Y-3.2504
X5.5173Y-3.1504
X5.5173Y-3.2504
X5.6173Y-3.1504
X5.6173Y-3.2504
X5.7173Y-3.1504
X5.7173Y-3.2504
X5.8173Y-3.1504
X5.8173Y-3.2504
X5.9173Y-3.1504
X5.9173Y-3.2504
X6.0173Y-3.1504
X6.0173Y-3.2504
X6.1173Y-3.1504
X6.1173Y-3.2504
X6.2173Y-3.1504
X6.2173Y-3.2504
T5
X3.3685Y-2.7913
X3.5685Y-2.7913
X3.7685Y-2.7913
X3.9685Y-2.7913
T0
M30
