%TF.GenerationSoftware,KiCad,Pcbnew,7.0.1*%
%TF.CreationDate,2023-04-11T11:00:07-05:00*%
%TF.ProjectId,ata_40_to_ata_44_adapter,6174615f-3430-45f7-946f-5f6174615f34,rev?*%
%TF.SameCoordinates,Original*%
%TF.FileFunction,Legend,Top*%
%TF.FilePolarity,Positive*%
%FSLAX46Y46*%
G04 Gerber Fmt 4.6, Leading zero omitted, Abs format (unit mm)*
G04 Created by KiCad (PCBNEW 7.0.1) date 2023-04-11 11:00:07*
%MOMM*%
%LPD*%
G01*
G04 APERTURE LIST*
G04 Aperture macros list*
%AMRoundRect*
0 Rectangle with rounded corners*
0 $1 Rounding radius*
0 $2 $3 $4 $5 $6 $7 $8 $9 X,Y pos of 4 corners*
0 Add a 4 corners polygon primitive as box body*
4,1,4,$2,$3,$4,$5,$6,$7,$8,$9,$2,$3,0*
0 Add four circle primitives for the rounded corners*
1,1,$1+$1,$2,$3*
1,1,$1+$1,$4,$5*
1,1,$1+$1,$6,$7*
1,1,$1+$1,$8,$9*
0 Add four rect primitives between the rounded corners*
20,1,$1+$1,$2,$3,$4,$5,0*
20,1,$1+$1,$4,$5,$6,$7,0*
20,1,$1+$1,$6,$7,$8,$9,0*
20,1,$1+$1,$8,$9,$2,$3,0*%
G04 Aperture macros list end*
%ADD10C,0.150000*%
%ADD11C,0.110000*%
%ADD12C,0.120000*%
%ADD13C,0.010000*%
%ADD14RoundRect,0.237500X0.250000X0.237500X-0.250000X0.237500X-0.250000X-0.237500X0.250000X-0.237500X0*%
%ADD15RoundRect,0.237500X0.237500X-0.250000X0.237500X0.250000X-0.237500X0.250000X-0.237500X-0.250000X0*%
%ADD16RoundRect,0.250000X-0.325000X-0.450000X0.325000X-0.450000X0.325000X0.450000X-0.325000X0.450000X0*%
%ADD17C,2.700000*%
%ADD18C,1.408000*%
%ADD19R,1.408000X1.408000*%
%ADD20C,2.780000*%
%ADD21R,2.780000X2.780000*%
%ADD22R,1.350000X1.350000*%
%ADD23O,1.350000X1.350000*%
%ADD24R,1.700000X1.700000*%
%ADD25O,1.700000X1.700000*%
G04 APERTURE END LIST*
D10*
X107900000Y-81290000D02*
X110930000Y-81290000D01*
X110930000Y-84400000D01*
X107900000Y-84400000D01*
X107900000Y-81290000D01*
X107300000Y-81290000D02*
X110930000Y-81290000D01*
X110930000Y-84900000D01*
X107300000Y-84900000D01*
X107300000Y-81290000D01*
X107000000Y-83300000D02*
X104200000Y-84700000D01*
X104200000Y-82100000D01*
X107000000Y-83300000D01*
G36*
X107000000Y-83300000D02*
G01*
X104200000Y-84700000D01*
X104200000Y-82100000D01*
X107000000Y-83300000D01*
G37*
X74990476Y-78612857D02*
X75038095Y-78565238D01*
X75038095Y-78565238D02*
X75133333Y-78517619D01*
X75133333Y-78517619D02*
X75371428Y-78517619D01*
X75371428Y-78517619D02*
X75466666Y-78565238D01*
X75466666Y-78565238D02*
X75514285Y-78612857D01*
X75514285Y-78612857D02*
X75561904Y-78708095D01*
X75561904Y-78708095D02*
X75561904Y-78803333D01*
X75561904Y-78803333D02*
X75514285Y-78946190D01*
X75514285Y-78946190D02*
X74942857Y-79517619D01*
X74942857Y-79517619D02*
X75561904Y-79517619D01*
X75990476Y-79422380D02*
X76038095Y-79470000D01*
X76038095Y-79470000D02*
X75990476Y-79517619D01*
X75990476Y-79517619D02*
X75942857Y-79470000D01*
X75942857Y-79470000D02*
X75990476Y-79422380D01*
X75990476Y-79422380D02*
X75990476Y-79517619D01*
X76942856Y-78517619D02*
X76466666Y-78517619D01*
X76466666Y-78517619D02*
X76419047Y-78993809D01*
X76419047Y-78993809D02*
X76466666Y-78946190D01*
X76466666Y-78946190D02*
X76561904Y-78898571D01*
X76561904Y-78898571D02*
X76799999Y-78898571D01*
X76799999Y-78898571D02*
X76895237Y-78946190D01*
X76895237Y-78946190D02*
X76942856Y-78993809D01*
X76942856Y-78993809D02*
X76990475Y-79089047D01*
X76990475Y-79089047D02*
X76990475Y-79327142D01*
X76990475Y-79327142D02*
X76942856Y-79422380D01*
X76942856Y-79422380D02*
X76895237Y-79470000D01*
X76895237Y-79470000D02*
X76799999Y-79517619D01*
X76799999Y-79517619D02*
X76561904Y-79517619D01*
X76561904Y-79517619D02*
X76466666Y-79470000D01*
X76466666Y-79470000D02*
X76419047Y-79422380D01*
X77371428Y-78517619D02*
X77371428Y-78708095D01*
X77752380Y-78517619D02*
X77752380Y-78708095D01*
X78800000Y-78850952D02*
X79180952Y-78850952D01*
X78942857Y-78517619D02*
X78942857Y-79374761D01*
X78942857Y-79374761D02*
X78990476Y-79470000D01*
X78990476Y-79470000D02*
X79085714Y-79517619D01*
X79085714Y-79517619D02*
X79180952Y-79517619D01*
X79657143Y-79517619D02*
X79561905Y-79470000D01*
X79561905Y-79470000D02*
X79514286Y-79422380D01*
X79514286Y-79422380D02*
X79466667Y-79327142D01*
X79466667Y-79327142D02*
X79466667Y-79041428D01*
X79466667Y-79041428D02*
X79514286Y-78946190D01*
X79514286Y-78946190D02*
X79561905Y-78898571D01*
X79561905Y-78898571D02*
X79657143Y-78850952D01*
X79657143Y-78850952D02*
X79800000Y-78850952D01*
X79800000Y-78850952D02*
X79895238Y-78898571D01*
X79895238Y-78898571D02*
X79942857Y-78946190D01*
X79942857Y-78946190D02*
X79990476Y-79041428D01*
X79990476Y-79041428D02*
X79990476Y-79327142D01*
X79990476Y-79327142D02*
X79942857Y-79422380D01*
X79942857Y-79422380D02*
X79895238Y-79470000D01*
X79895238Y-79470000D02*
X79800000Y-79517619D01*
X79800000Y-79517619D02*
X79657143Y-79517619D01*
X81085715Y-78517619D02*
X81704762Y-78517619D01*
X81704762Y-78517619D02*
X81371429Y-78898571D01*
X81371429Y-78898571D02*
X81514286Y-78898571D01*
X81514286Y-78898571D02*
X81609524Y-78946190D01*
X81609524Y-78946190D02*
X81657143Y-78993809D01*
X81657143Y-78993809D02*
X81704762Y-79089047D01*
X81704762Y-79089047D02*
X81704762Y-79327142D01*
X81704762Y-79327142D02*
X81657143Y-79422380D01*
X81657143Y-79422380D02*
X81609524Y-79470000D01*
X81609524Y-79470000D02*
X81514286Y-79517619D01*
X81514286Y-79517619D02*
X81228572Y-79517619D01*
X81228572Y-79517619D02*
X81133334Y-79470000D01*
X81133334Y-79470000D02*
X81085715Y-79422380D01*
X82133334Y-79422380D02*
X82180953Y-79470000D01*
X82180953Y-79470000D02*
X82133334Y-79517619D01*
X82133334Y-79517619D02*
X82085715Y-79470000D01*
X82085715Y-79470000D02*
X82133334Y-79422380D01*
X82133334Y-79422380D02*
X82133334Y-79517619D01*
X83085714Y-78517619D02*
X82609524Y-78517619D01*
X82609524Y-78517619D02*
X82561905Y-78993809D01*
X82561905Y-78993809D02*
X82609524Y-78946190D01*
X82609524Y-78946190D02*
X82704762Y-78898571D01*
X82704762Y-78898571D02*
X82942857Y-78898571D01*
X82942857Y-78898571D02*
X83038095Y-78946190D01*
X83038095Y-78946190D02*
X83085714Y-78993809D01*
X83085714Y-78993809D02*
X83133333Y-79089047D01*
X83133333Y-79089047D02*
X83133333Y-79327142D01*
X83133333Y-79327142D02*
X83085714Y-79422380D01*
X83085714Y-79422380D02*
X83038095Y-79470000D01*
X83038095Y-79470000D02*
X82942857Y-79517619D01*
X82942857Y-79517619D02*
X82704762Y-79517619D01*
X82704762Y-79517619D02*
X82609524Y-79470000D01*
X82609524Y-79470000D02*
X82561905Y-79422380D01*
X83514286Y-78517619D02*
X83514286Y-78708095D01*
X83895238Y-78517619D02*
X83895238Y-78708095D01*
X85085715Y-79517619D02*
X85085715Y-78517619D01*
X85561905Y-79517619D02*
X85561905Y-78517619D01*
X85561905Y-78517619D02*
X85800000Y-78517619D01*
X85800000Y-78517619D02*
X85942857Y-78565238D01*
X85942857Y-78565238D02*
X86038095Y-78660476D01*
X86038095Y-78660476D02*
X86085714Y-78755714D01*
X86085714Y-78755714D02*
X86133333Y-78946190D01*
X86133333Y-78946190D02*
X86133333Y-79089047D01*
X86133333Y-79089047D02*
X86085714Y-79279523D01*
X86085714Y-79279523D02*
X86038095Y-79374761D01*
X86038095Y-79374761D02*
X85942857Y-79470000D01*
X85942857Y-79470000D02*
X85800000Y-79517619D01*
X85800000Y-79517619D02*
X85561905Y-79517619D01*
X86561905Y-78993809D02*
X86895238Y-78993809D01*
X87038095Y-79517619D02*
X86561905Y-79517619D01*
X86561905Y-79517619D02*
X86561905Y-78517619D01*
X86561905Y-78517619D02*
X87038095Y-78517619D01*
X88180952Y-78470000D02*
X87323810Y-79755714D01*
X88514286Y-79517619D02*
X88514286Y-78517619D01*
X88514286Y-78517619D02*
X88895238Y-78517619D01*
X88895238Y-78517619D02*
X88990476Y-78565238D01*
X88990476Y-78565238D02*
X89038095Y-78612857D01*
X89038095Y-78612857D02*
X89085714Y-78708095D01*
X89085714Y-78708095D02*
X89085714Y-78850952D01*
X89085714Y-78850952D02*
X89038095Y-78946190D01*
X89038095Y-78946190D02*
X88990476Y-78993809D01*
X88990476Y-78993809D02*
X88895238Y-79041428D01*
X88895238Y-79041428D02*
X88514286Y-79041428D01*
X89466667Y-79231904D02*
X89942857Y-79231904D01*
X89371429Y-79517619D02*
X89704762Y-78517619D01*
X89704762Y-78517619D02*
X90038095Y-79517619D01*
X90228572Y-78517619D02*
X90800000Y-78517619D01*
X90514286Y-79517619D02*
X90514286Y-78517619D01*
X91085715Y-79231904D02*
X91561905Y-79231904D01*
X90990477Y-79517619D02*
X91323810Y-78517619D01*
X91323810Y-78517619D02*
X91657143Y-79517619D01*
X74990476Y-80851904D02*
X75466666Y-80851904D01*
X74895238Y-81137619D02*
X75228571Y-80137619D01*
X75228571Y-80137619D02*
X75561904Y-81137619D01*
X76323809Y-81137619D02*
X76323809Y-80137619D01*
X76323809Y-81090000D02*
X76228571Y-81137619D01*
X76228571Y-81137619D02*
X76038095Y-81137619D01*
X76038095Y-81137619D02*
X75942857Y-81090000D01*
X75942857Y-81090000D02*
X75895238Y-81042380D01*
X75895238Y-81042380D02*
X75847619Y-80947142D01*
X75847619Y-80947142D02*
X75847619Y-80661428D01*
X75847619Y-80661428D02*
X75895238Y-80566190D01*
X75895238Y-80566190D02*
X75942857Y-80518571D01*
X75942857Y-80518571D02*
X76038095Y-80470952D01*
X76038095Y-80470952D02*
X76228571Y-80470952D01*
X76228571Y-80470952D02*
X76323809Y-80518571D01*
X77228571Y-81137619D02*
X77228571Y-80613809D01*
X77228571Y-80613809D02*
X77180952Y-80518571D01*
X77180952Y-80518571D02*
X77085714Y-80470952D01*
X77085714Y-80470952D02*
X76895238Y-80470952D01*
X76895238Y-80470952D02*
X76800000Y-80518571D01*
X77228571Y-81090000D02*
X77133333Y-81137619D01*
X77133333Y-81137619D02*
X76895238Y-81137619D01*
X76895238Y-81137619D02*
X76800000Y-81090000D01*
X76800000Y-81090000D02*
X76752381Y-80994761D01*
X76752381Y-80994761D02*
X76752381Y-80899523D01*
X76752381Y-80899523D02*
X76800000Y-80804285D01*
X76800000Y-80804285D02*
X76895238Y-80756666D01*
X76895238Y-80756666D02*
X77133333Y-80756666D01*
X77133333Y-80756666D02*
X77228571Y-80709047D01*
X77704762Y-80470952D02*
X77704762Y-81470952D01*
X77704762Y-80518571D02*
X77800000Y-80470952D01*
X77800000Y-80470952D02*
X77990476Y-80470952D01*
X77990476Y-80470952D02*
X78085714Y-80518571D01*
X78085714Y-80518571D02*
X78133333Y-80566190D01*
X78133333Y-80566190D02*
X78180952Y-80661428D01*
X78180952Y-80661428D02*
X78180952Y-80947142D01*
X78180952Y-80947142D02*
X78133333Y-81042380D01*
X78133333Y-81042380D02*
X78085714Y-81090000D01*
X78085714Y-81090000D02*
X77990476Y-81137619D01*
X77990476Y-81137619D02*
X77800000Y-81137619D01*
X77800000Y-81137619D02*
X77704762Y-81090000D01*
X78466667Y-80470952D02*
X78847619Y-80470952D01*
X78609524Y-80137619D02*
X78609524Y-80994761D01*
X78609524Y-80994761D02*
X78657143Y-81090000D01*
X78657143Y-81090000D02*
X78752381Y-81137619D01*
X78752381Y-81137619D02*
X78847619Y-81137619D01*
X79561905Y-81090000D02*
X79466667Y-81137619D01*
X79466667Y-81137619D02*
X79276191Y-81137619D01*
X79276191Y-81137619D02*
X79180953Y-81090000D01*
X79180953Y-81090000D02*
X79133334Y-80994761D01*
X79133334Y-80994761D02*
X79133334Y-80613809D01*
X79133334Y-80613809D02*
X79180953Y-80518571D01*
X79180953Y-80518571D02*
X79276191Y-80470952D01*
X79276191Y-80470952D02*
X79466667Y-80470952D01*
X79466667Y-80470952D02*
X79561905Y-80518571D01*
X79561905Y-80518571D02*
X79609524Y-80613809D01*
X79609524Y-80613809D02*
X79609524Y-80709047D01*
X79609524Y-80709047D02*
X79133334Y-80804285D01*
X80038096Y-81137619D02*
X80038096Y-80470952D01*
X80038096Y-80661428D02*
X80085715Y-80566190D01*
X80085715Y-80566190D02*
X80133334Y-80518571D01*
X80133334Y-80518571D02*
X80228572Y-80470952D01*
X80228572Y-80470952D02*
X80323810Y-80470952D01*
X75609523Y-82662380D02*
X75561904Y-82710000D01*
X75561904Y-82710000D02*
X75419047Y-82757619D01*
X75419047Y-82757619D02*
X75323809Y-82757619D01*
X75323809Y-82757619D02*
X75180952Y-82710000D01*
X75180952Y-82710000D02*
X75085714Y-82614761D01*
X75085714Y-82614761D02*
X75038095Y-82519523D01*
X75038095Y-82519523D02*
X74990476Y-82329047D01*
X74990476Y-82329047D02*
X74990476Y-82186190D01*
X74990476Y-82186190D02*
X75038095Y-81995714D01*
X75038095Y-81995714D02*
X75085714Y-81900476D01*
X75085714Y-81900476D02*
X75180952Y-81805238D01*
X75180952Y-81805238D02*
X75323809Y-81757619D01*
X75323809Y-81757619D02*
X75419047Y-81757619D01*
X75419047Y-81757619D02*
X75561904Y-81805238D01*
X75561904Y-81805238D02*
X75609523Y-81852857D01*
X76180952Y-82757619D02*
X76085714Y-82710000D01*
X76085714Y-82710000D02*
X76038095Y-82662380D01*
X76038095Y-82662380D02*
X75990476Y-82567142D01*
X75990476Y-82567142D02*
X75990476Y-82281428D01*
X75990476Y-82281428D02*
X76038095Y-82186190D01*
X76038095Y-82186190D02*
X76085714Y-82138571D01*
X76085714Y-82138571D02*
X76180952Y-82090952D01*
X76180952Y-82090952D02*
X76323809Y-82090952D01*
X76323809Y-82090952D02*
X76419047Y-82138571D01*
X76419047Y-82138571D02*
X76466666Y-82186190D01*
X76466666Y-82186190D02*
X76514285Y-82281428D01*
X76514285Y-82281428D02*
X76514285Y-82567142D01*
X76514285Y-82567142D02*
X76466666Y-82662380D01*
X76466666Y-82662380D02*
X76419047Y-82710000D01*
X76419047Y-82710000D02*
X76323809Y-82757619D01*
X76323809Y-82757619D02*
X76180952Y-82757619D01*
X76942857Y-82090952D02*
X76942857Y-83090952D01*
X76942857Y-82138571D02*
X77038095Y-82090952D01*
X77038095Y-82090952D02*
X77228571Y-82090952D01*
X77228571Y-82090952D02*
X77323809Y-82138571D01*
X77323809Y-82138571D02*
X77371428Y-82186190D01*
X77371428Y-82186190D02*
X77419047Y-82281428D01*
X77419047Y-82281428D02*
X77419047Y-82567142D01*
X77419047Y-82567142D02*
X77371428Y-82662380D01*
X77371428Y-82662380D02*
X77323809Y-82710000D01*
X77323809Y-82710000D02*
X77228571Y-82757619D01*
X77228571Y-82757619D02*
X77038095Y-82757619D01*
X77038095Y-82757619D02*
X76942857Y-82710000D01*
X77752381Y-82090952D02*
X77990476Y-82757619D01*
X78228571Y-82090952D02*
X77990476Y-82757619D01*
X77990476Y-82757619D02*
X77895238Y-82995714D01*
X77895238Y-82995714D02*
X77847619Y-83043333D01*
X77847619Y-83043333D02*
X77752381Y-83090952D01*
X78609524Y-82757619D02*
X78609524Y-82090952D01*
X78609524Y-82281428D02*
X78657143Y-82186190D01*
X78657143Y-82186190D02*
X78704762Y-82138571D01*
X78704762Y-82138571D02*
X78800000Y-82090952D01*
X78800000Y-82090952D02*
X78895238Y-82090952D01*
X79228572Y-82757619D02*
X79228572Y-82090952D01*
X79228572Y-81757619D02*
X79180953Y-81805238D01*
X79180953Y-81805238D02*
X79228572Y-81852857D01*
X79228572Y-81852857D02*
X79276191Y-81805238D01*
X79276191Y-81805238D02*
X79228572Y-81757619D01*
X79228572Y-81757619D02*
X79228572Y-81852857D01*
X80133333Y-82090952D02*
X80133333Y-82900476D01*
X80133333Y-82900476D02*
X80085714Y-82995714D01*
X80085714Y-82995714D02*
X80038095Y-83043333D01*
X80038095Y-83043333D02*
X79942857Y-83090952D01*
X79942857Y-83090952D02*
X79800000Y-83090952D01*
X79800000Y-83090952D02*
X79704762Y-83043333D01*
X80133333Y-82710000D02*
X80038095Y-82757619D01*
X80038095Y-82757619D02*
X79847619Y-82757619D01*
X79847619Y-82757619D02*
X79752381Y-82710000D01*
X79752381Y-82710000D02*
X79704762Y-82662380D01*
X79704762Y-82662380D02*
X79657143Y-82567142D01*
X79657143Y-82567142D02*
X79657143Y-82281428D01*
X79657143Y-82281428D02*
X79704762Y-82186190D01*
X79704762Y-82186190D02*
X79752381Y-82138571D01*
X79752381Y-82138571D02*
X79847619Y-82090952D01*
X79847619Y-82090952D02*
X80038095Y-82090952D01*
X80038095Y-82090952D02*
X80133333Y-82138571D01*
X80609524Y-82757619D02*
X80609524Y-81757619D01*
X81038095Y-82757619D02*
X81038095Y-82233809D01*
X81038095Y-82233809D02*
X80990476Y-82138571D01*
X80990476Y-82138571D02*
X80895238Y-82090952D01*
X80895238Y-82090952D02*
X80752381Y-82090952D01*
X80752381Y-82090952D02*
X80657143Y-82138571D01*
X80657143Y-82138571D02*
X80609524Y-82186190D01*
X81371429Y-82090952D02*
X81752381Y-82090952D01*
X81514286Y-81757619D02*
X81514286Y-82614761D01*
X81514286Y-82614761D02*
X81561905Y-82710000D01*
X81561905Y-82710000D02*
X81657143Y-82757619D01*
X81657143Y-82757619D02*
X81752381Y-82757619D01*
X83133334Y-83138571D02*
X83085715Y-83090952D01*
X83085715Y-83090952D02*
X82990477Y-82948095D01*
X82990477Y-82948095D02*
X82942858Y-82852857D01*
X82942858Y-82852857D02*
X82895239Y-82710000D01*
X82895239Y-82710000D02*
X82847620Y-82471904D01*
X82847620Y-82471904D02*
X82847620Y-82281428D01*
X82847620Y-82281428D02*
X82895239Y-82043333D01*
X82895239Y-82043333D02*
X82942858Y-81900476D01*
X82942858Y-81900476D02*
X82990477Y-81805238D01*
X82990477Y-81805238D02*
X83085715Y-81662380D01*
X83085715Y-81662380D02*
X83133334Y-81614761D01*
X84085715Y-82662380D02*
X84038096Y-82710000D01*
X84038096Y-82710000D02*
X83895239Y-82757619D01*
X83895239Y-82757619D02*
X83800001Y-82757619D01*
X83800001Y-82757619D02*
X83657144Y-82710000D01*
X83657144Y-82710000D02*
X83561906Y-82614761D01*
X83561906Y-82614761D02*
X83514287Y-82519523D01*
X83514287Y-82519523D02*
X83466668Y-82329047D01*
X83466668Y-82329047D02*
X83466668Y-82186190D01*
X83466668Y-82186190D02*
X83514287Y-81995714D01*
X83514287Y-81995714D02*
X83561906Y-81900476D01*
X83561906Y-81900476D02*
X83657144Y-81805238D01*
X83657144Y-81805238D02*
X83800001Y-81757619D01*
X83800001Y-81757619D02*
X83895239Y-81757619D01*
X83895239Y-81757619D02*
X84038096Y-81805238D01*
X84038096Y-81805238D02*
X84085715Y-81852857D01*
X84419049Y-83138571D02*
X84466668Y-83090952D01*
X84466668Y-83090952D02*
X84561906Y-82948095D01*
X84561906Y-82948095D02*
X84609525Y-82852857D01*
X84609525Y-82852857D02*
X84657144Y-82710000D01*
X84657144Y-82710000D02*
X84704763Y-82471904D01*
X84704763Y-82471904D02*
X84704763Y-82281428D01*
X84704763Y-82281428D02*
X84657144Y-82043333D01*
X84657144Y-82043333D02*
X84609525Y-81900476D01*
X84609525Y-81900476D02*
X84561906Y-81805238D01*
X84561906Y-81805238D02*
X84466668Y-81662380D01*
X84466668Y-81662380D02*
X84419049Y-81614761D01*
X85895240Y-81852857D02*
X85942859Y-81805238D01*
X85942859Y-81805238D02*
X86038097Y-81757619D01*
X86038097Y-81757619D02*
X86276192Y-81757619D01*
X86276192Y-81757619D02*
X86371430Y-81805238D01*
X86371430Y-81805238D02*
X86419049Y-81852857D01*
X86419049Y-81852857D02*
X86466668Y-81948095D01*
X86466668Y-81948095D02*
X86466668Y-82043333D01*
X86466668Y-82043333D02*
X86419049Y-82186190D01*
X86419049Y-82186190D02*
X85847621Y-82757619D01*
X85847621Y-82757619D02*
X86466668Y-82757619D01*
X87085716Y-81757619D02*
X87180954Y-81757619D01*
X87180954Y-81757619D02*
X87276192Y-81805238D01*
X87276192Y-81805238D02*
X87323811Y-81852857D01*
X87323811Y-81852857D02*
X87371430Y-81948095D01*
X87371430Y-81948095D02*
X87419049Y-82138571D01*
X87419049Y-82138571D02*
X87419049Y-82376666D01*
X87419049Y-82376666D02*
X87371430Y-82567142D01*
X87371430Y-82567142D02*
X87323811Y-82662380D01*
X87323811Y-82662380D02*
X87276192Y-82710000D01*
X87276192Y-82710000D02*
X87180954Y-82757619D01*
X87180954Y-82757619D02*
X87085716Y-82757619D01*
X87085716Y-82757619D02*
X86990478Y-82710000D01*
X86990478Y-82710000D02*
X86942859Y-82662380D01*
X86942859Y-82662380D02*
X86895240Y-82567142D01*
X86895240Y-82567142D02*
X86847621Y-82376666D01*
X86847621Y-82376666D02*
X86847621Y-82138571D01*
X86847621Y-82138571D02*
X86895240Y-81948095D01*
X86895240Y-81948095D02*
X86942859Y-81852857D01*
X86942859Y-81852857D02*
X86990478Y-81805238D01*
X86990478Y-81805238D02*
X87085716Y-81757619D01*
X87800002Y-81852857D02*
X87847621Y-81805238D01*
X87847621Y-81805238D02*
X87942859Y-81757619D01*
X87942859Y-81757619D02*
X88180954Y-81757619D01*
X88180954Y-81757619D02*
X88276192Y-81805238D01*
X88276192Y-81805238D02*
X88323811Y-81852857D01*
X88323811Y-81852857D02*
X88371430Y-81948095D01*
X88371430Y-81948095D02*
X88371430Y-82043333D01*
X88371430Y-82043333D02*
X88323811Y-82186190D01*
X88323811Y-82186190D02*
X87752383Y-82757619D01*
X87752383Y-82757619D02*
X88371430Y-82757619D01*
X88704764Y-81757619D02*
X89323811Y-81757619D01*
X89323811Y-81757619D02*
X88990478Y-82138571D01*
X88990478Y-82138571D02*
X89133335Y-82138571D01*
X89133335Y-82138571D02*
X89228573Y-82186190D01*
X89228573Y-82186190D02*
X89276192Y-82233809D01*
X89276192Y-82233809D02*
X89323811Y-82329047D01*
X89323811Y-82329047D02*
X89323811Y-82567142D01*
X89323811Y-82567142D02*
X89276192Y-82662380D01*
X89276192Y-82662380D02*
X89228573Y-82710000D01*
X89228573Y-82710000D02*
X89133335Y-82757619D01*
X89133335Y-82757619D02*
X88847621Y-82757619D01*
X88847621Y-82757619D02*
X88752383Y-82710000D01*
X88752383Y-82710000D02*
X88704764Y-82662380D01*
X90942859Y-82757619D02*
X90942859Y-82233809D01*
X90942859Y-82233809D02*
X90895240Y-82138571D01*
X90895240Y-82138571D02*
X90800002Y-82090952D01*
X90800002Y-82090952D02*
X90609526Y-82090952D01*
X90609526Y-82090952D02*
X90514288Y-82138571D01*
X90942859Y-82710000D02*
X90847621Y-82757619D01*
X90847621Y-82757619D02*
X90609526Y-82757619D01*
X90609526Y-82757619D02*
X90514288Y-82710000D01*
X90514288Y-82710000D02*
X90466669Y-82614761D01*
X90466669Y-82614761D02*
X90466669Y-82519523D01*
X90466669Y-82519523D02*
X90514288Y-82424285D01*
X90514288Y-82424285D02*
X90609526Y-82376666D01*
X90609526Y-82376666D02*
X90847621Y-82376666D01*
X90847621Y-82376666D02*
X90942859Y-82329047D01*
X91419050Y-82757619D02*
X91419050Y-81757619D01*
X91514288Y-82376666D02*
X91800002Y-82757619D01*
X91800002Y-82090952D02*
X91419050Y-82471904D01*
X92657145Y-82090952D02*
X92657145Y-82757619D01*
X92228574Y-82090952D02*
X92228574Y-82614761D01*
X92228574Y-82614761D02*
X92276193Y-82710000D01*
X92276193Y-82710000D02*
X92371431Y-82757619D01*
X92371431Y-82757619D02*
X92514288Y-82757619D01*
X92514288Y-82757619D02*
X92609526Y-82710000D01*
X92609526Y-82710000D02*
X92657145Y-82662380D01*
X93133336Y-82757619D02*
X93133336Y-81757619D01*
X93228574Y-82376666D02*
X93514288Y-82757619D01*
X93514288Y-82090952D02*
X93133336Y-82471904D01*
X94323812Y-82710000D02*
X94228574Y-82757619D01*
X94228574Y-82757619D02*
X94038098Y-82757619D01*
X94038098Y-82757619D02*
X93942860Y-82710000D01*
X93942860Y-82710000D02*
X93895241Y-82614761D01*
X93895241Y-82614761D02*
X93895241Y-82233809D01*
X93895241Y-82233809D02*
X93942860Y-82138571D01*
X93942860Y-82138571D02*
X94038098Y-82090952D01*
X94038098Y-82090952D02*
X94228574Y-82090952D01*
X94228574Y-82090952D02*
X94323812Y-82138571D01*
X94323812Y-82138571D02*
X94371431Y-82233809D01*
X94371431Y-82233809D02*
X94371431Y-82329047D01*
X94371431Y-82329047D02*
X93895241Y-82424285D01*
X94800003Y-82757619D02*
X94800003Y-82090952D01*
X94800003Y-82281428D02*
X94847622Y-82186190D01*
X94847622Y-82186190D02*
X94895241Y-82138571D01*
X94895241Y-82138571D02*
X94990479Y-82090952D01*
X94990479Y-82090952D02*
X95085717Y-82090952D01*
X74895238Y-83377619D02*
X75228571Y-84377619D01*
X75228571Y-84377619D02*
X75561904Y-83377619D01*
X76276190Y-84330000D02*
X76180952Y-84377619D01*
X76180952Y-84377619D02*
X75990476Y-84377619D01*
X75990476Y-84377619D02*
X75895238Y-84330000D01*
X75895238Y-84330000D02*
X75847619Y-84234761D01*
X75847619Y-84234761D02*
X75847619Y-83853809D01*
X75847619Y-83853809D02*
X75895238Y-83758571D01*
X75895238Y-83758571D02*
X75990476Y-83710952D01*
X75990476Y-83710952D02*
X76180952Y-83710952D01*
X76180952Y-83710952D02*
X76276190Y-83758571D01*
X76276190Y-83758571D02*
X76323809Y-83853809D01*
X76323809Y-83853809D02*
X76323809Y-83949047D01*
X76323809Y-83949047D02*
X75847619Y-84044285D01*
X76752381Y-84377619D02*
X76752381Y-83710952D01*
X76752381Y-83901428D02*
X76800000Y-83806190D01*
X76800000Y-83806190D02*
X76847619Y-83758571D01*
X76847619Y-83758571D02*
X76942857Y-83710952D01*
X76942857Y-83710952D02*
X77038095Y-83710952D01*
X77323810Y-84330000D02*
X77419048Y-84377619D01*
X77419048Y-84377619D02*
X77609524Y-84377619D01*
X77609524Y-84377619D02*
X77704762Y-84330000D01*
X77704762Y-84330000D02*
X77752381Y-84234761D01*
X77752381Y-84234761D02*
X77752381Y-84187142D01*
X77752381Y-84187142D02*
X77704762Y-84091904D01*
X77704762Y-84091904D02*
X77609524Y-84044285D01*
X77609524Y-84044285D02*
X77466667Y-84044285D01*
X77466667Y-84044285D02*
X77371429Y-83996666D01*
X77371429Y-83996666D02*
X77323810Y-83901428D01*
X77323810Y-83901428D02*
X77323810Y-83853809D01*
X77323810Y-83853809D02*
X77371429Y-83758571D01*
X77371429Y-83758571D02*
X77466667Y-83710952D01*
X77466667Y-83710952D02*
X77609524Y-83710952D01*
X77609524Y-83710952D02*
X77704762Y-83758571D01*
X78180953Y-84377619D02*
X78180953Y-83710952D01*
X78180953Y-83377619D02*
X78133334Y-83425238D01*
X78133334Y-83425238D02*
X78180953Y-83472857D01*
X78180953Y-83472857D02*
X78228572Y-83425238D01*
X78228572Y-83425238D02*
X78180953Y-83377619D01*
X78180953Y-83377619D02*
X78180953Y-83472857D01*
X78800000Y-84377619D02*
X78704762Y-84330000D01*
X78704762Y-84330000D02*
X78657143Y-84282380D01*
X78657143Y-84282380D02*
X78609524Y-84187142D01*
X78609524Y-84187142D02*
X78609524Y-83901428D01*
X78609524Y-83901428D02*
X78657143Y-83806190D01*
X78657143Y-83806190D02*
X78704762Y-83758571D01*
X78704762Y-83758571D02*
X78800000Y-83710952D01*
X78800000Y-83710952D02*
X78942857Y-83710952D01*
X78942857Y-83710952D02*
X79038095Y-83758571D01*
X79038095Y-83758571D02*
X79085714Y-83806190D01*
X79085714Y-83806190D02*
X79133333Y-83901428D01*
X79133333Y-83901428D02*
X79133333Y-84187142D01*
X79133333Y-84187142D02*
X79085714Y-84282380D01*
X79085714Y-84282380D02*
X79038095Y-84330000D01*
X79038095Y-84330000D02*
X78942857Y-84377619D01*
X78942857Y-84377619D02*
X78800000Y-84377619D01*
X79561905Y-83710952D02*
X79561905Y-84377619D01*
X79561905Y-83806190D02*
X79609524Y-83758571D01*
X79609524Y-83758571D02*
X79704762Y-83710952D01*
X79704762Y-83710952D02*
X79847619Y-83710952D01*
X79847619Y-83710952D02*
X79942857Y-83758571D01*
X79942857Y-83758571D02*
X79990476Y-83853809D01*
X79990476Y-83853809D02*
X79990476Y-84377619D01*
X81752381Y-84377619D02*
X81180953Y-84377619D01*
X81466667Y-84377619D02*
X81466667Y-83377619D01*
X81466667Y-83377619D02*
X81371429Y-83520476D01*
X81371429Y-83520476D02*
X81276191Y-83615714D01*
X81276191Y-83615714D02*
X81180953Y-83663333D01*
X82180953Y-84282380D02*
X82228572Y-84330000D01*
X82228572Y-84330000D02*
X82180953Y-84377619D01*
X82180953Y-84377619D02*
X82133334Y-84330000D01*
X82133334Y-84330000D02*
X82180953Y-84282380D01*
X82180953Y-84282380D02*
X82180953Y-84377619D01*
X82847619Y-83377619D02*
X82942857Y-83377619D01*
X82942857Y-83377619D02*
X83038095Y-83425238D01*
X83038095Y-83425238D02*
X83085714Y-83472857D01*
X83085714Y-83472857D02*
X83133333Y-83568095D01*
X83133333Y-83568095D02*
X83180952Y-83758571D01*
X83180952Y-83758571D02*
X83180952Y-83996666D01*
X83180952Y-83996666D02*
X83133333Y-84187142D01*
X83133333Y-84187142D02*
X83085714Y-84282380D01*
X83085714Y-84282380D02*
X83038095Y-84330000D01*
X83038095Y-84330000D02*
X82942857Y-84377619D01*
X82942857Y-84377619D02*
X82847619Y-84377619D01*
X82847619Y-84377619D02*
X82752381Y-84330000D01*
X82752381Y-84330000D02*
X82704762Y-84282380D01*
X82704762Y-84282380D02*
X82657143Y-84187142D01*
X82657143Y-84187142D02*
X82609524Y-83996666D01*
X82609524Y-83996666D02*
X82609524Y-83758571D01*
X82609524Y-83758571D02*
X82657143Y-83568095D01*
X82657143Y-83568095D02*
X82704762Y-83472857D01*
X82704762Y-83472857D02*
X82752381Y-83425238D01*
X82752381Y-83425238D02*
X82847619Y-83377619D01*
X132909523Y-75077619D02*
X132576190Y-74601428D01*
X132338095Y-75077619D02*
X132338095Y-74077619D01*
X132338095Y-74077619D02*
X132719047Y-74077619D01*
X132719047Y-74077619D02*
X132814285Y-74125238D01*
X132814285Y-74125238D02*
X132861904Y-74172857D01*
X132861904Y-74172857D02*
X132909523Y-74268095D01*
X132909523Y-74268095D02*
X132909523Y-74410952D01*
X132909523Y-74410952D02*
X132861904Y-74506190D01*
X132861904Y-74506190D02*
X132814285Y-74553809D01*
X132814285Y-74553809D02*
X132719047Y-74601428D01*
X132719047Y-74601428D02*
X132338095Y-74601428D01*
X133719047Y-75030000D02*
X133623809Y-75077619D01*
X133623809Y-75077619D02*
X133433333Y-75077619D01*
X133433333Y-75077619D02*
X133338095Y-75030000D01*
X133338095Y-75030000D02*
X133290476Y-74934761D01*
X133290476Y-74934761D02*
X133290476Y-74553809D01*
X133290476Y-74553809D02*
X133338095Y-74458571D01*
X133338095Y-74458571D02*
X133433333Y-74410952D01*
X133433333Y-74410952D02*
X133623809Y-74410952D01*
X133623809Y-74410952D02*
X133719047Y-74458571D01*
X133719047Y-74458571D02*
X133766666Y-74553809D01*
X133766666Y-74553809D02*
X133766666Y-74649047D01*
X133766666Y-74649047D02*
X133290476Y-74744285D01*
X134195238Y-75077619D02*
X134195238Y-74410952D01*
X134195238Y-74506190D02*
X134242857Y-74458571D01*
X134242857Y-74458571D02*
X134338095Y-74410952D01*
X134338095Y-74410952D02*
X134480952Y-74410952D01*
X134480952Y-74410952D02*
X134576190Y-74458571D01*
X134576190Y-74458571D02*
X134623809Y-74553809D01*
X134623809Y-74553809D02*
X134623809Y-75077619D01*
X134623809Y-74553809D02*
X134671428Y-74458571D01*
X134671428Y-74458571D02*
X134766666Y-74410952D01*
X134766666Y-74410952D02*
X134909523Y-74410952D01*
X134909523Y-74410952D02*
X135004762Y-74458571D01*
X135004762Y-74458571D02*
X135052381Y-74553809D01*
X135052381Y-74553809D02*
X135052381Y-75077619D01*
X135671428Y-75077619D02*
X135576190Y-75030000D01*
X135576190Y-75030000D02*
X135528571Y-74982380D01*
X135528571Y-74982380D02*
X135480952Y-74887142D01*
X135480952Y-74887142D02*
X135480952Y-74601428D01*
X135480952Y-74601428D02*
X135528571Y-74506190D01*
X135528571Y-74506190D02*
X135576190Y-74458571D01*
X135576190Y-74458571D02*
X135671428Y-74410952D01*
X135671428Y-74410952D02*
X135814285Y-74410952D01*
X135814285Y-74410952D02*
X135909523Y-74458571D01*
X135909523Y-74458571D02*
X135957142Y-74506190D01*
X135957142Y-74506190D02*
X136004761Y-74601428D01*
X136004761Y-74601428D02*
X136004761Y-74887142D01*
X136004761Y-74887142D02*
X135957142Y-74982380D01*
X135957142Y-74982380D02*
X135909523Y-75030000D01*
X135909523Y-75030000D02*
X135814285Y-75077619D01*
X135814285Y-75077619D02*
X135671428Y-75077619D01*
X136338095Y-74410952D02*
X136576190Y-75077619D01*
X136576190Y-75077619D02*
X136814285Y-74410952D01*
X137576190Y-75030000D02*
X137480952Y-75077619D01*
X137480952Y-75077619D02*
X137290476Y-75077619D01*
X137290476Y-75077619D02*
X137195238Y-75030000D01*
X137195238Y-75030000D02*
X137147619Y-74934761D01*
X137147619Y-74934761D02*
X137147619Y-74553809D01*
X137147619Y-74553809D02*
X137195238Y-74458571D01*
X137195238Y-74458571D02*
X137290476Y-74410952D01*
X137290476Y-74410952D02*
X137480952Y-74410952D01*
X137480952Y-74410952D02*
X137576190Y-74458571D01*
X137576190Y-74458571D02*
X137623809Y-74553809D01*
X137623809Y-74553809D02*
X137623809Y-74649047D01*
X137623809Y-74649047D02*
X137147619Y-74744285D01*
X138814286Y-74410952D02*
X138814286Y-75410952D01*
X138814286Y-74458571D02*
X138909524Y-74410952D01*
X138909524Y-74410952D02*
X139100000Y-74410952D01*
X139100000Y-74410952D02*
X139195238Y-74458571D01*
X139195238Y-74458571D02*
X139242857Y-74506190D01*
X139242857Y-74506190D02*
X139290476Y-74601428D01*
X139290476Y-74601428D02*
X139290476Y-74887142D01*
X139290476Y-74887142D02*
X139242857Y-74982380D01*
X139242857Y-74982380D02*
X139195238Y-75030000D01*
X139195238Y-75030000D02*
X139100000Y-75077619D01*
X139100000Y-75077619D02*
X138909524Y-75077619D01*
X138909524Y-75077619D02*
X138814286Y-75030000D01*
X139719048Y-75077619D02*
X139719048Y-74410952D01*
X139719048Y-74077619D02*
X139671429Y-74125238D01*
X139671429Y-74125238D02*
X139719048Y-74172857D01*
X139719048Y-74172857D02*
X139766667Y-74125238D01*
X139766667Y-74125238D02*
X139719048Y-74077619D01*
X139719048Y-74077619D02*
X139719048Y-74172857D01*
X140195238Y-74410952D02*
X140195238Y-75077619D01*
X140195238Y-74506190D02*
X140242857Y-74458571D01*
X140242857Y-74458571D02*
X140338095Y-74410952D01*
X140338095Y-74410952D02*
X140480952Y-74410952D01*
X140480952Y-74410952D02*
X140576190Y-74458571D01*
X140576190Y-74458571D02*
X140623809Y-74553809D01*
X140623809Y-74553809D02*
X140623809Y-75077619D01*
X141052381Y-75030000D02*
X141147619Y-75077619D01*
X141147619Y-75077619D02*
X141338095Y-75077619D01*
X141338095Y-75077619D02*
X141433333Y-75030000D01*
X141433333Y-75030000D02*
X141480952Y-74934761D01*
X141480952Y-74934761D02*
X141480952Y-74887142D01*
X141480952Y-74887142D02*
X141433333Y-74791904D01*
X141433333Y-74791904D02*
X141338095Y-74744285D01*
X141338095Y-74744285D02*
X141195238Y-74744285D01*
X141195238Y-74744285D02*
X141100000Y-74696666D01*
X141100000Y-74696666D02*
X141052381Y-74601428D01*
X141052381Y-74601428D02*
X141052381Y-74553809D01*
X141052381Y-74553809D02*
X141100000Y-74458571D01*
X141100000Y-74458571D02*
X141195238Y-74410952D01*
X141195238Y-74410952D02*
X141338095Y-74410952D01*
X141338095Y-74410952D02*
X141433333Y-74458571D01*
X129800000Y-75500000D02*
X131800000Y-75500000D01*
X131800000Y-70000000D01*
X129800000Y-70000000D01*
X129800000Y-75500000D01*
X131157142Y-75122380D02*
X130490476Y-74122380D01*
X130490476Y-75122380D02*
X131157142Y-74122380D01*
X132142857Y-75877619D02*
X132809523Y-76877619D01*
X132809523Y-75877619D02*
X132142857Y-76877619D01*
X131500000Y-75500000D02*
X133500000Y-75500000D01*
X133500000Y-81000000D01*
X131500000Y-81000000D01*
X131500000Y-75500000D01*
D11*
X98090476Y-84397333D02*
X98700000Y-84397333D01*
X98395238Y-84702095D02*
X98395238Y-84092571D01*
X99461904Y-83902095D02*
X99080952Y-83902095D01*
X99080952Y-83902095D02*
X99042856Y-84283047D01*
X99042856Y-84283047D02*
X99080952Y-84244952D01*
X99080952Y-84244952D02*
X99157142Y-84206857D01*
X99157142Y-84206857D02*
X99347618Y-84206857D01*
X99347618Y-84206857D02*
X99423809Y-84244952D01*
X99423809Y-84244952D02*
X99461904Y-84283047D01*
X99461904Y-84283047D02*
X99499999Y-84359238D01*
X99499999Y-84359238D02*
X99499999Y-84549714D01*
X99499999Y-84549714D02*
X99461904Y-84625904D01*
X99461904Y-84625904D02*
X99423809Y-84664000D01*
X99423809Y-84664000D02*
X99347618Y-84702095D01*
X99347618Y-84702095D02*
X99157142Y-84702095D01*
X99157142Y-84702095D02*
X99080952Y-84664000D01*
X99080952Y-84664000D02*
X99042856Y-84625904D01*
X99766666Y-84168761D02*
X99957142Y-84702095D01*
X99957142Y-84702095D02*
X100147619Y-84168761D01*
X98809523Y-79040190D02*
X98733333Y-79002095D01*
X98733333Y-79002095D02*
X98619047Y-79002095D01*
X98619047Y-79002095D02*
X98504761Y-79040190D01*
X98504761Y-79040190D02*
X98428571Y-79116380D01*
X98428571Y-79116380D02*
X98390476Y-79192571D01*
X98390476Y-79192571D02*
X98352380Y-79344952D01*
X98352380Y-79344952D02*
X98352380Y-79459238D01*
X98352380Y-79459238D02*
X98390476Y-79611619D01*
X98390476Y-79611619D02*
X98428571Y-79687809D01*
X98428571Y-79687809D02*
X98504761Y-79764000D01*
X98504761Y-79764000D02*
X98619047Y-79802095D01*
X98619047Y-79802095D02*
X98695238Y-79802095D01*
X98695238Y-79802095D02*
X98809523Y-79764000D01*
X98809523Y-79764000D02*
X98847619Y-79725904D01*
X98847619Y-79725904D02*
X98847619Y-79459238D01*
X98847619Y-79459238D02*
X98695238Y-79459238D01*
X99190476Y-79802095D02*
X99190476Y-79002095D01*
X99190476Y-79002095D02*
X99647619Y-79802095D01*
X99647619Y-79802095D02*
X99647619Y-79002095D01*
X100028571Y-79802095D02*
X100028571Y-79002095D01*
X100028571Y-79002095D02*
X100219047Y-79002095D01*
X100219047Y-79002095D02*
X100333333Y-79040190D01*
X100333333Y-79040190D02*
X100409523Y-79116380D01*
X100409523Y-79116380D02*
X100447618Y-79192571D01*
X100447618Y-79192571D02*
X100485714Y-79344952D01*
X100485714Y-79344952D02*
X100485714Y-79459238D01*
X100485714Y-79459238D02*
X100447618Y-79611619D01*
X100447618Y-79611619D02*
X100409523Y-79687809D01*
X100409523Y-79687809D02*
X100333333Y-79764000D01*
X100333333Y-79764000D02*
X100219047Y-79802095D01*
X100219047Y-79802095D02*
X100028571Y-79802095D01*
X97790476Y-76897333D02*
X98400000Y-76897333D01*
X98095238Y-77202095D02*
X98095238Y-76592571D01*
X99199999Y-77202095D02*
X98742856Y-77202095D01*
X98971428Y-77202095D02*
X98971428Y-76402095D01*
X98971428Y-76402095D02*
X98895237Y-76516380D01*
X98895237Y-76516380D02*
X98819047Y-76592571D01*
X98819047Y-76592571D02*
X98742856Y-76630666D01*
X99504761Y-76478285D02*
X99542857Y-76440190D01*
X99542857Y-76440190D02*
X99619047Y-76402095D01*
X99619047Y-76402095D02*
X99809523Y-76402095D01*
X99809523Y-76402095D02*
X99885714Y-76440190D01*
X99885714Y-76440190D02*
X99923809Y-76478285D01*
X99923809Y-76478285D02*
X99961904Y-76554476D01*
X99961904Y-76554476D02*
X99961904Y-76630666D01*
X99961904Y-76630666D02*
X99923809Y-76744952D01*
X99923809Y-76744952D02*
X99466666Y-77202095D01*
X99466666Y-77202095D02*
X99961904Y-77202095D01*
X100228571Y-76668761D02*
X100419047Y-77202095D01*
X100419047Y-77202095D02*
X100609524Y-76668761D01*
X98809523Y-81440190D02*
X98733333Y-81402095D01*
X98733333Y-81402095D02*
X98619047Y-81402095D01*
X98619047Y-81402095D02*
X98504761Y-81440190D01*
X98504761Y-81440190D02*
X98428571Y-81516380D01*
X98428571Y-81516380D02*
X98390476Y-81592571D01*
X98390476Y-81592571D02*
X98352380Y-81744952D01*
X98352380Y-81744952D02*
X98352380Y-81859238D01*
X98352380Y-81859238D02*
X98390476Y-82011619D01*
X98390476Y-82011619D02*
X98428571Y-82087809D01*
X98428571Y-82087809D02*
X98504761Y-82164000D01*
X98504761Y-82164000D02*
X98619047Y-82202095D01*
X98619047Y-82202095D02*
X98695238Y-82202095D01*
X98695238Y-82202095D02*
X98809523Y-82164000D01*
X98809523Y-82164000D02*
X98847619Y-82125904D01*
X98847619Y-82125904D02*
X98847619Y-81859238D01*
X98847619Y-81859238D02*
X98695238Y-81859238D01*
X99190476Y-82202095D02*
X99190476Y-81402095D01*
X99190476Y-81402095D02*
X99647619Y-82202095D01*
X99647619Y-82202095D02*
X99647619Y-81402095D01*
X100028571Y-82202095D02*
X100028571Y-81402095D01*
X100028571Y-81402095D02*
X100219047Y-81402095D01*
X100219047Y-81402095D02*
X100333333Y-81440190D01*
X100333333Y-81440190D02*
X100409523Y-81516380D01*
X100409523Y-81516380D02*
X100447618Y-81592571D01*
X100447618Y-81592571D02*
X100485714Y-81744952D01*
X100485714Y-81744952D02*
X100485714Y-81859238D01*
X100485714Y-81859238D02*
X100447618Y-82011619D01*
X100447618Y-82011619D02*
X100409523Y-82087809D01*
X100409523Y-82087809D02*
X100333333Y-82164000D01*
X100333333Y-82164000D02*
X100219047Y-82202095D01*
X100219047Y-82202095D02*
X100028571Y-82202095D01*
X84229286Y-73297333D02*
X84838810Y-73297333D01*
X84534048Y-73602095D02*
X84534048Y-72992571D01*
X85600714Y-72802095D02*
X85219762Y-72802095D01*
X85219762Y-72802095D02*
X85181666Y-73183047D01*
X85181666Y-73183047D02*
X85219762Y-73144952D01*
X85219762Y-73144952D02*
X85295952Y-73106857D01*
X85295952Y-73106857D02*
X85486428Y-73106857D01*
X85486428Y-73106857D02*
X85562619Y-73144952D01*
X85562619Y-73144952D02*
X85600714Y-73183047D01*
X85600714Y-73183047D02*
X85638809Y-73259238D01*
X85638809Y-73259238D02*
X85638809Y-73449714D01*
X85638809Y-73449714D02*
X85600714Y-73525904D01*
X85600714Y-73525904D02*
X85562619Y-73564000D01*
X85562619Y-73564000D02*
X85486428Y-73602095D01*
X85486428Y-73602095D02*
X85295952Y-73602095D01*
X85295952Y-73602095D02*
X85219762Y-73564000D01*
X85219762Y-73564000D02*
X85181666Y-73525904D01*
X85905476Y-73068761D02*
X86095952Y-73602095D01*
X86095952Y-73602095D02*
X86286429Y-73068761D01*
X90148333Y-72840190D02*
X90072143Y-72802095D01*
X90072143Y-72802095D02*
X89957857Y-72802095D01*
X89957857Y-72802095D02*
X89843571Y-72840190D01*
X89843571Y-72840190D02*
X89767381Y-72916380D01*
X89767381Y-72916380D02*
X89729286Y-72992571D01*
X89729286Y-72992571D02*
X89691190Y-73144952D01*
X89691190Y-73144952D02*
X89691190Y-73259238D01*
X89691190Y-73259238D02*
X89729286Y-73411619D01*
X89729286Y-73411619D02*
X89767381Y-73487809D01*
X89767381Y-73487809D02*
X89843571Y-73564000D01*
X89843571Y-73564000D02*
X89957857Y-73602095D01*
X89957857Y-73602095D02*
X90034048Y-73602095D01*
X90034048Y-73602095D02*
X90148333Y-73564000D01*
X90148333Y-73564000D02*
X90186429Y-73525904D01*
X90186429Y-73525904D02*
X90186429Y-73259238D01*
X90186429Y-73259238D02*
X90034048Y-73259238D01*
X90529286Y-73602095D02*
X90529286Y-72802095D01*
X90529286Y-72802095D02*
X90986429Y-73602095D01*
X90986429Y-73602095D02*
X90986429Y-72802095D01*
X91367381Y-73602095D02*
X91367381Y-72802095D01*
X91367381Y-72802095D02*
X91557857Y-72802095D01*
X91557857Y-72802095D02*
X91672143Y-72840190D01*
X91672143Y-72840190D02*
X91748333Y-72916380D01*
X91748333Y-72916380D02*
X91786428Y-72992571D01*
X91786428Y-72992571D02*
X91824524Y-73144952D01*
X91824524Y-73144952D02*
X91824524Y-73259238D01*
X91824524Y-73259238D02*
X91786428Y-73411619D01*
X91786428Y-73411619D02*
X91748333Y-73487809D01*
X91748333Y-73487809D02*
X91672143Y-73564000D01*
X91672143Y-73564000D02*
X91557857Y-73602095D01*
X91557857Y-73602095D02*
X91367381Y-73602095D01*
X95148333Y-72840190D02*
X95072143Y-72802095D01*
X95072143Y-72802095D02*
X94957857Y-72802095D01*
X94957857Y-72802095D02*
X94843571Y-72840190D01*
X94843571Y-72840190D02*
X94767381Y-72916380D01*
X94767381Y-72916380D02*
X94729286Y-72992571D01*
X94729286Y-72992571D02*
X94691190Y-73144952D01*
X94691190Y-73144952D02*
X94691190Y-73259238D01*
X94691190Y-73259238D02*
X94729286Y-73411619D01*
X94729286Y-73411619D02*
X94767381Y-73487809D01*
X94767381Y-73487809D02*
X94843571Y-73564000D01*
X94843571Y-73564000D02*
X94957857Y-73602095D01*
X94957857Y-73602095D02*
X95034048Y-73602095D01*
X95034048Y-73602095D02*
X95148333Y-73564000D01*
X95148333Y-73564000D02*
X95186429Y-73525904D01*
X95186429Y-73525904D02*
X95186429Y-73259238D01*
X95186429Y-73259238D02*
X95034048Y-73259238D01*
X95529286Y-73602095D02*
X95529286Y-72802095D01*
X95529286Y-72802095D02*
X95986429Y-73602095D01*
X95986429Y-73602095D02*
X95986429Y-72802095D01*
X96367381Y-73602095D02*
X96367381Y-72802095D01*
X96367381Y-72802095D02*
X96557857Y-72802095D01*
X96557857Y-72802095D02*
X96672143Y-72840190D01*
X96672143Y-72840190D02*
X96748333Y-72916380D01*
X96748333Y-72916380D02*
X96786428Y-72992571D01*
X96786428Y-72992571D02*
X96824524Y-73144952D01*
X96824524Y-73144952D02*
X96824524Y-73259238D01*
X96824524Y-73259238D02*
X96786428Y-73411619D01*
X96786428Y-73411619D02*
X96748333Y-73487809D01*
X96748333Y-73487809D02*
X96672143Y-73564000D01*
X96672143Y-73564000D02*
X96557857Y-73602095D01*
X96557857Y-73602095D02*
X96367381Y-73602095D01*
X99229286Y-73297333D02*
X99838810Y-73297333D01*
X99534048Y-73602095D02*
X99534048Y-72992571D01*
X100638809Y-73602095D02*
X100181666Y-73602095D01*
X100410238Y-73602095D02*
X100410238Y-72802095D01*
X100410238Y-72802095D02*
X100334047Y-72916380D01*
X100334047Y-72916380D02*
X100257857Y-72992571D01*
X100257857Y-72992571D02*
X100181666Y-73030666D01*
X100943571Y-72878285D02*
X100981667Y-72840190D01*
X100981667Y-72840190D02*
X101057857Y-72802095D01*
X101057857Y-72802095D02*
X101248333Y-72802095D01*
X101248333Y-72802095D02*
X101324524Y-72840190D01*
X101324524Y-72840190D02*
X101362619Y-72878285D01*
X101362619Y-72878285D02*
X101400714Y-72954476D01*
X101400714Y-72954476D02*
X101400714Y-73030666D01*
X101400714Y-73030666D02*
X101362619Y-73144952D01*
X101362619Y-73144952D02*
X100905476Y-73602095D01*
X100905476Y-73602095D02*
X101400714Y-73602095D01*
X101667381Y-73068761D02*
X101857857Y-73602095D01*
X101857857Y-73602095D02*
X102048334Y-73068761D01*
D10*
%TO.C,J3*%
X91576666Y-76862619D02*
X91576666Y-77576904D01*
X91576666Y-77576904D02*
X91529047Y-77719761D01*
X91529047Y-77719761D02*
X91433809Y-77815000D01*
X91433809Y-77815000D02*
X91290952Y-77862619D01*
X91290952Y-77862619D02*
X91195714Y-77862619D01*
X91957619Y-76862619D02*
X92576666Y-76862619D01*
X92576666Y-76862619D02*
X92243333Y-77243571D01*
X92243333Y-77243571D02*
X92386190Y-77243571D01*
X92386190Y-77243571D02*
X92481428Y-77291190D01*
X92481428Y-77291190D02*
X92529047Y-77338809D01*
X92529047Y-77338809D02*
X92576666Y-77434047D01*
X92576666Y-77434047D02*
X92576666Y-77672142D01*
X92576666Y-77672142D02*
X92529047Y-77767380D01*
X92529047Y-77767380D02*
X92481428Y-77815000D01*
X92481428Y-77815000D02*
X92386190Y-77862619D01*
X92386190Y-77862619D02*
X92100476Y-77862619D01*
X92100476Y-77862619D02*
X92005238Y-77815000D01*
X92005238Y-77815000D02*
X91957619Y-77767380D01*
%TO.C,J1*%
X108966666Y-77162619D02*
X108966666Y-77876904D01*
X108966666Y-77876904D02*
X108919047Y-78019761D01*
X108919047Y-78019761D02*
X108823809Y-78115000D01*
X108823809Y-78115000D02*
X108680952Y-78162619D01*
X108680952Y-78162619D02*
X108585714Y-78162619D01*
X109966666Y-78162619D02*
X109395238Y-78162619D01*
X109680952Y-78162619D02*
X109680952Y-77162619D01*
X109680952Y-77162619D02*
X109585714Y-77305476D01*
X109585714Y-77305476D02*
X109490476Y-77400714D01*
X109490476Y-77400714D02*
X109395238Y-77448333D01*
D12*
%TO.C,R2*%
X76554724Y-72422500D02*
X76045276Y-72422500D01*
X76554724Y-71377500D02*
X76045276Y-71377500D01*
%TO.C,R1*%
X78177500Y-68454724D02*
X78177500Y-67945276D01*
X79222500Y-68454724D02*
X79222500Y-67945276D01*
%TO.C,D2*%
X74140000Y-70960000D02*
X77000000Y-70960000D01*
X77000000Y-69040000D02*
X74140000Y-69040000D01*
X74140000Y-69040000D02*
X74140000Y-70960000D01*
%TO.C,D1*%
X74140000Y-68560000D02*
X77000000Y-68560000D01*
X77000000Y-66640000D02*
X74140000Y-66640000D01*
X74140000Y-66640000D02*
X74140000Y-68560000D01*
%TO.C,REF\u002A\u002A*%
D13*
X109467590Y-74153766D02*
X109602376Y-74153766D01*
X109606917Y-74226732D01*
X109619986Y-74282334D01*
X109640756Y-74317861D01*
X109655552Y-74328020D01*
X109693464Y-74335104D01*
X109738527Y-74333007D01*
X109777487Y-74322812D01*
X109787704Y-74317204D01*
X109814659Y-74284538D01*
X109832451Y-74234545D01*
X109840024Y-74173705D01*
X109836325Y-74108497D01*
X109828057Y-74069253D01*
X109804320Y-74023805D01*
X109766849Y-73995396D01*
X109721720Y-73985573D01*
X109675011Y-73995887D01*
X109639132Y-74021112D01*
X109620277Y-74041925D01*
X109609272Y-74062439D01*
X109604026Y-74090203D01*
X109602449Y-74132762D01*
X109602376Y-74153766D01*
X109467590Y-74153766D01*
X109468094Y-74097580D01*
X109485388Y-74010501D01*
X109519029Y-73942530D01*
X109569018Y-73893664D01*
X109635356Y-73863899D01*
X109649601Y-73860448D01*
X109735210Y-73852345D01*
X109810762Y-73866055D01*
X109874363Y-73900692D01*
X109924123Y-73955372D01*
X109947568Y-73999842D01*
X109957634Y-74039121D01*
X109964156Y-74095116D01*
X109966951Y-74159621D01*
X109965836Y-74224429D01*
X109960626Y-74281334D01*
X109954541Y-74311727D01*
X109934014Y-74353306D01*
X109898463Y-74397468D01*
X109855619Y-74436087D01*
X109813211Y-74461034D01*
X109812177Y-74461430D01*
X109759553Y-74472331D01*
X109697188Y-74472601D01*
X109637924Y-74462676D01*
X109615040Y-74454722D01*
X109556102Y-74421300D01*
X109513890Y-74377511D01*
X109486156Y-74319538D01*
X109470651Y-74243565D01*
X109467143Y-74203771D01*
X109467590Y-74153766D01*
G36*
X109467590Y-74153766D02*
G01*
X109602376Y-74153766D01*
X109606917Y-74226732D01*
X109619986Y-74282334D01*
X109640756Y-74317861D01*
X109655552Y-74328020D01*
X109693464Y-74335104D01*
X109738527Y-74333007D01*
X109777487Y-74322812D01*
X109787704Y-74317204D01*
X109814659Y-74284538D01*
X109832451Y-74234545D01*
X109840024Y-74173705D01*
X109836325Y-74108497D01*
X109828057Y-74069253D01*
X109804320Y-74023805D01*
X109766849Y-73995396D01*
X109721720Y-73985573D01*
X109675011Y-73995887D01*
X109639132Y-74021112D01*
X109620277Y-74041925D01*
X109609272Y-74062439D01*
X109604026Y-74090203D01*
X109602449Y-74132762D01*
X109602376Y-74153766D01*
X109467590Y-74153766D01*
X109468094Y-74097580D01*
X109485388Y-74010501D01*
X109519029Y-73942530D01*
X109569018Y-73893664D01*
X109635356Y-73863899D01*
X109649601Y-73860448D01*
X109735210Y-73852345D01*
X109810762Y-73866055D01*
X109874363Y-73900692D01*
X109924123Y-73955372D01*
X109947568Y-73999842D01*
X109957634Y-74039121D01*
X109964156Y-74095116D01*
X109966951Y-74159621D01*
X109965836Y-74224429D01*
X109960626Y-74281334D01*
X109954541Y-74311727D01*
X109934014Y-74353306D01*
X109898463Y-74397468D01*
X109855619Y-74436087D01*
X109813211Y-74461034D01*
X109812177Y-74461430D01*
X109759553Y-74472331D01*
X109697188Y-74472601D01*
X109637924Y-74462676D01*
X109615040Y-74454722D01*
X109556102Y-74421300D01*
X109513890Y-74377511D01*
X109486156Y-74319538D01*
X109470651Y-74243565D01*
X109467143Y-74203771D01*
X109467590Y-74153766D01*
G37*
X108206644Y-74803020D02*
X108225461Y-74808660D01*
X108231527Y-74821053D01*
X108231782Y-74826647D01*
X108232871Y-74842230D01*
X108240368Y-74844676D01*
X108260619Y-74833993D01*
X108272649Y-74826694D01*
X108310600Y-74811063D01*
X108355928Y-74803334D01*
X108403456Y-74802740D01*
X108448005Y-74808513D01*
X108484398Y-74819884D01*
X108507457Y-74836088D01*
X108512004Y-74856355D01*
X108509709Y-74861843D01*
X108492980Y-74884626D01*
X108467037Y-74912647D01*
X108462345Y-74917177D01*
X108437617Y-74938005D01*
X108416282Y-74944735D01*
X108386445Y-74940038D01*
X108374492Y-74936917D01*
X108337295Y-74929421D01*
X108311141Y-74932792D01*
X108289054Y-74944681D01*
X108268822Y-74960635D01*
X108253921Y-74980700D01*
X108243566Y-75008702D01*
X108236971Y-75048467D01*
X108233351Y-75103823D01*
X108231922Y-75178594D01*
X108231782Y-75223740D01*
X108231782Y-75417822D01*
X108106040Y-75417822D01*
X108106040Y-74801683D01*
X108168911Y-74801683D01*
X108206644Y-74803020D01*
G36*
X108206644Y-74803020D02*
G01*
X108225461Y-74808660D01*
X108231527Y-74821053D01*
X108231782Y-74826647D01*
X108232871Y-74842230D01*
X108240368Y-74844676D01*
X108260619Y-74833993D01*
X108272649Y-74826694D01*
X108310600Y-74811063D01*
X108355928Y-74803334D01*
X108403456Y-74802740D01*
X108448005Y-74808513D01*
X108484398Y-74819884D01*
X108507457Y-74836088D01*
X108512004Y-74856355D01*
X108509709Y-74861843D01*
X108492980Y-74884626D01*
X108467037Y-74912647D01*
X108462345Y-74917177D01*
X108437617Y-74938005D01*
X108416282Y-74944735D01*
X108386445Y-74940038D01*
X108374492Y-74936917D01*
X108337295Y-74929421D01*
X108311141Y-74932792D01*
X108289054Y-74944681D01*
X108268822Y-74960635D01*
X108253921Y-74980700D01*
X108243566Y-75008702D01*
X108236971Y-75048467D01*
X108233351Y-75103823D01*
X108231922Y-75178594D01*
X108231782Y-75223740D01*
X108231782Y-75417822D01*
X108106040Y-75417822D01*
X108106040Y-74801683D01*
X108168911Y-74801683D01*
X108206644Y-74803020D01*
G37*
X110193367Y-74054342D02*
X110194555Y-74146563D01*
X110198897Y-74216610D01*
X110207558Y-74267381D01*
X110221704Y-74301772D01*
X110242500Y-74322679D01*
X110271110Y-74333000D01*
X110306535Y-74335636D01*
X110343636Y-74332682D01*
X110371818Y-74321889D01*
X110392243Y-74300360D01*
X110406079Y-74265199D01*
X110414491Y-74213510D01*
X110418643Y-74142394D01*
X110419703Y-74054342D01*
X110419703Y-73858614D01*
X110558020Y-73858614D01*
X110558020Y-74462179D01*
X110488862Y-74462179D01*
X110447170Y-74460489D01*
X110425701Y-74454556D01*
X110419703Y-74443293D01*
X110416091Y-74433261D01*
X110401714Y-74435383D01*
X110372736Y-74449580D01*
X110306319Y-74471480D01*
X110235875Y-74469928D01*
X110168377Y-74446147D01*
X110136233Y-74427362D01*
X110111715Y-74407022D01*
X110093804Y-74381573D01*
X110081479Y-74347458D01*
X110073723Y-74301121D01*
X110069516Y-74239007D01*
X110067840Y-74157561D01*
X110067624Y-74094578D01*
X110067624Y-73858614D01*
X110193367Y-73858614D01*
X110193367Y-74054342D01*
G36*
X110193367Y-74054342D02*
G01*
X110194555Y-74146563D01*
X110198897Y-74216610D01*
X110207558Y-74267381D01*
X110221704Y-74301772D01*
X110242500Y-74322679D01*
X110271110Y-74333000D01*
X110306535Y-74335636D01*
X110343636Y-74332682D01*
X110371818Y-74321889D01*
X110392243Y-74300360D01*
X110406079Y-74265199D01*
X110414491Y-74213510D01*
X110418643Y-74142394D01*
X110419703Y-74054342D01*
X110419703Y-73858614D01*
X110558020Y-73858614D01*
X110558020Y-74462179D01*
X110488862Y-74462179D01*
X110447170Y-74460489D01*
X110425701Y-74454556D01*
X110419703Y-74443293D01*
X110416091Y-74433261D01*
X110401714Y-74435383D01*
X110372736Y-74449580D01*
X110306319Y-74471480D01*
X110235875Y-74469928D01*
X110168377Y-74446147D01*
X110136233Y-74427362D01*
X110111715Y-74407022D01*
X110093804Y-74381573D01*
X110081479Y-74347458D01*
X110073723Y-74301121D01*
X110069516Y-74239007D01*
X110067840Y-74157561D01*
X110067624Y-74094578D01*
X110067624Y-73858614D01*
X110193367Y-73858614D01*
X110193367Y-74054342D01*
G37*
X108445988Y-73869002D02*
X108477283Y-73883950D01*
X108507591Y-73905541D01*
X108530682Y-73930391D01*
X108547500Y-73962087D01*
X108558994Y-74004214D01*
X108566109Y-74060358D01*
X108569793Y-74134106D01*
X108570992Y-74229044D01*
X108571011Y-74238985D01*
X108571287Y-74462179D01*
X108432970Y-74462179D01*
X108432970Y-74256418D01*
X108432872Y-74180189D01*
X108432191Y-74124939D01*
X108430349Y-74086501D01*
X108426767Y-74060706D01*
X108420868Y-74043384D01*
X108412073Y-74030368D01*
X108399820Y-74017507D01*
X108356953Y-73989873D01*
X108310157Y-73984745D01*
X108265576Y-74002217D01*
X108250072Y-74015221D01*
X108238690Y-74027447D01*
X108230519Y-74040540D01*
X108225026Y-74058615D01*
X108221680Y-74085787D01*
X108219949Y-74126170D01*
X108219303Y-74183879D01*
X108219208Y-74254132D01*
X108219208Y-74462179D01*
X108080891Y-74462179D01*
X108080891Y-73858614D01*
X108150050Y-73858614D01*
X108191572Y-73860256D01*
X108212994Y-73866087D01*
X108219205Y-73877461D01*
X108219208Y-73877798D01*
X108222090Y-73888938D01*
X108234801Y-73887674D01*
X108260074Y-73875434D01*
X108317395Y-73857424D01*
X108382963Y-73855421D01*
X108445988Y-73869002D01*
G36*
X108445988Y-73869002D02*
G01*
X108477283Y-73883950D01*
X108507591Y-73905541D01*
X108530682Y-73930391D01*
X108547500Y-73962087D01*
X108558994Y-74004214D01*
X108566109Y-74060358D01*
X108569793Y-74134106D01*
X108570992Y-74229044D01*
X108571011Y-74238985D01*
X108571287Y-74462179D01*
X108432970Y-74462179D01*
X108432970Y-74256418D01*
X108432872Y-74180189D01*
X108432191Y-74124939D01*
X108430349Y-74086501D01*
X108426767Y-74060706D01*
X108420868Y-74043384D01*
X108412073Y-74030368D01*
X108399820Y-74017507D01*
X108356953Y-73989873D01*
X108310157Y-73984745D01*
X108265576Y-74002217D01*
X108250072Y-74015221D01*
X108238690Y-74027447D01*
X108230519Y-74040540D01*
X108225026Y-74058615D01*
X108221680Y-74085787D01*
X108219949Y-74126170D01*
X108219303Y-74183879D01*
X108219208Y-74254132D01*
X108219208Y-74462179D01*
X108080891Y-74462179D01*
X108080891Y-73858614D01*
X108150050Y-73858614D01*
X108191572Y-73860256D01*
X108212994Y-73866087D01*
X108219205Y-73877461D01*
X108219208Y-73877798D01*
X108222090Y-73888938D01*
X108234801Y-73887674D01*
X108260074Y-73875434D01*
X108317395Y-73857424D01*
X108382963Y-73855421D01*
X108445988Y-73869002D01*
G37*
X111587100Y-74085542D02*
X111714852Y-74085542D01*
X111726584Y-74090822D01*
X111758438Y-74094867D01*
X111805397Y-74097176D01*
X111835154Y-74097525D01*
X111890648Y-74097306D01*
X111925346Y-74095916D01*
X111943601Y-74092251D01*
X111949766Y-74085210D01*
X111948195Y-74073690D01*
X111946878Y-74069233D01*
X111924382Y-74027355D01*
X111889003Y-73993604D01*
X111857780Y-73978773D01*
X111816301Y-73979668D01*
X111774269Y-73998164D01*
X111739012Y-74028786D01*
X111717854Y-74066062D01*
X111714852Y-74085542D01*
X111587100Y-74085542D01*
X111596690Y-74035229D01*
X111628698Y-73964191D01*
X111674701Y-73908779D01*
X111732821Y-73871009D01*
X111801180Y-73852896D01*
X111877898Y-73856457D01*
X111910096Y-73864279D01*
X111971825Y-73892921D01*
X112024610Y-73936667D01*
X112061141Y-73989117D01*
X112066160Y-74000893D01*
X112073045Y-74031740D01*
X112077864Y-74077371D01*
X112079505Y-74123492D01*
X112079505Y-74210693D01*
X111897178Y-74210693D01*
X111821979Y-74210978D01*
X111769003Y-74212704D01*
X111735325Y-74217181D01*
X111718020Y-74225720D01*
X111714163Y-74239630D01*
X111720829Y-74260222D01*
X111732770Y-74284315D01*
X111766080Y-74324525D01*
X111812368Y-74344558D01*
X111868944Y-74343905D01*
X111933031Y-74322101D01*
X111988417Y-74295193D01*
X112034375Y-74331532D01*
X112080333Y-74367872D01*
X112037096Y-74407819D01*
X111979374Y-74445563D01*
X111908386Y-74468320D01*
X111832029Y-74474688D01*
X111758199Y-74463268D01*
X111746287Y-74459393D01*
X111681399Y-74425506D01*
X111633130Y-74374986D01*
X111600465Y-74306325D01*
X111582385Y-74218014D01*
X111582175Y-74216121D01*
X111580556Y-74119878D01*
X111587100Y-74085542D01*
G36*
X111587100Y-74085542D02*
G01*
X111714852Y-74085542D01*
X111726584Y-74090822D01*
X111758438Y-74094867D01*
X111805397Y-74097176D01*
X111835154Y-74097525D01*
X111890648Y-74097306D01*
X111925346Y-74095916D01*
X111943601Y-74092251D01*
X111949766Y-74085210D01*
X111948195Y-74073690D01*
X111946878Y-74069233D01*
X111924382Y-74027355D01*
X111889003Y-73993604D01*
X111857780Y-73978773D01*
X111816301Y-73979668D01*
X111774269Y-73998164D01*
X111739012Y-74028786D01*
X111717854Y-74066062D01*
X111714852Y-74085542D01*
X111587100Y-74085542D01*
X111596690Y-74035229D01*
X111628698Y-73964191D01*
X111674701Y-73908779D01*
X111732821Y-73871009D01*
X111801180Y-73852896D01*
X111877898Y-73856457D01*
X111910096Y-73864279D01*
X111971825Y-73892921D01*
X112024610Y-73936667D01*
X112061141Y-73989117D01*
X112066160Y-74000893D01*
X112073045Y-74031740D01*
X112077864Y-74077371D01*
X112079505Y-74123492D01*
X112079505Y-74210693D01*
X111897178Y-74210693D01*
X111821979Y-74210978D01*
X111769003Y-74212704D01*
X111735325Y-74217181D01*
X111718020Y-74225720D01*
X111714163Y-74239630D01*
X111720829Y-74260222D01*
X111732770Y-74284315D01*
X111766080Y-74324525D01*
X111812368Y-74344558D01*
X111868944Y-74343905D01*
X111933031Y-74322101D01*
X111988417Y-74295193D01*
X112034375Y-74331532D01*
X112080333Y-74367872D01*
X112037096Y-74407819D01*
X111979374Y-74445563D01*
X111908386Y-74468320D01*
X111832029Y-74474688D01*
X111758199Y-74463268D01*
X111746287Y-74459393D01*
X111681399Y-74425506D01*
X111633130Y-74374986D01*
X111600465Y-74306325D01*
X111582385Y-74218014D01*
X111582175Y-74216121D01*
X111580556Y-74119878D01*
X111587100Y-74085542D01*
G37*
X110940421Y-75041413D02*
X111060990Y-75041413D01*
X111072652Y-75046465D01*
X111103998Y-75050429D01*
X111149571Y-75052768D01*
X111180446Y-75053169D01*
X111235981Y-75052783D01*
X111271033Y-75050975D01*
X111290262Y-75046773D01*
X111298330Y-75039203D01*
X111299901Y-75028218D01*
X111289121Y-74994381D01*
X111261980Y-74960940D01*
X111226277Y-74935272D01*
X111190560Y-74924772D01*
X111142048Y-74934086D01*
X111100053Y-74961013D01*
X111070936Y-74999827D01*
X111060990Y-75041413D01*
X110940421Y-75041413D01*
X110942599Y-75010236D01*
X110964055Y-74930949D01*
X111000470Y-74871263D01*
X111052297Y-74830549D01*
X111119990Y-74808179D01*
X111156662Y-74803871D01*
X111232581Y-74804970D01*
X111292685Y-74820597D01*
X111343021Y-74852848D01*
X111367393Y-74876940D01*
X111407345Y-74933895D01*
X111430242Y-74999965D01*
X111438108Y-75081182D01*
X111438148Y-75087748D01*
X111438218Y-75153763D01*
X111058264Y-75153763D01*
X111066363Y-75188342D01*
X111080987Y-75219659D01*
X111106581Y-75252291D01*
X111111935Y-75257500D01*
X111157943Y-75285694D01*
X111210410Y-75290475D01*
X111270803Y-75271926D01*
X111281040Y-75266931D01*
X111312439Y-75251745D01*
X111333470Y-75243094D01*
X111337139Y-75242293D01*
X111349948Y-75250063D01*
X111374378Y-75269072D01*
X111386779Y-75279460D01*
X111412476Y-75303321D01*
X111420915Y-75319077D01*
X111415058Y-75333571D01*
X111411928Y-75337534D01*
X111390725Y-75354879D01*
X111355738Y-75375959D01*
X111331337Y-75388265D01*
X111262072Y-75409946D01*
X111185388Y-75416971D01*
X111112765Y-75408647D01*
X111092426Y-75402686D01*
X111029476Y-75368952D01*
X110982815Y-75317045D01*
X110952173Y-75246459D01*
X110937282Y-75156692D01*
X110935647Y-75109753D01*
X110940421Y-75041413D01*
G36*
X110940421Y-75041413D02*
G01*
X111060990Y-75041413D01*
X111072652Y-75046465D01*
X111103998Y-75050429D01*
X111149571Y-75052768D01*
X111180446Y-75053169D01*
X111235981Y-75052783D01*
X111271033Y-75050975D01*
X111290262Y-75046773D01*
X111298330Y-75039203D01*
X111299901Y-75028218D01*
X111289121Y-74994381D01*
X111261980Y-74960940D01*
X111226277Y-74935272D01*
X111190560Y-74924772D01*
X111142048Y-74934086D01*
X111100053Y-74961013D01*
X111070936Y-74999827D01*
X111060990Y-75041413D01*
X110940421Y-75041413D01*
X110942599Y-75010236D01*
X110964055Y-74930949D01*
X111000470Y-74871263D01*
X111052297Y-74830549D01*
X111119990Y-74808179D01*
X111156662Y-74803871D01*
X111232581Y-74804970D01*
X111292685Y-74820597D01*
X111343021Y-74852848D01*
X111367393Y-74876940D01*
X111407345Y-74933895D01*
X111430242Y-74999965D01*
X111438108Y-75081182D01*
X111438148Y-75087748D01*
X111438218Y-75153763D01*
X111058264Y-75153763D01*
X111066363Y-75188342D01*
X111080987Y-75219659D01*
X111106581Y-75252291D01*
X111111935Y-75257500D01*
X111157943Y-75285694D01*
X111210410Y-75290475D01*
X111270803Y-75271926D01*
X111281040Y-75266931D01*
X111312439Y-75251745D01*
X111333470Y-75243094D01*
X111337139Y-75242293D01*
X111349948Y-75250063D01*
X111374378Y-75269072D01*
X111386779Y-75279460D01*
X111412476Y-75303321D01*
X111420915Y-75319077D01*
X111415058Y-75333571D01*
X111411928Y-75337534D01*
X111390725Y-75354879D01*
X111355738Y-75375959D01*
X111331337Y-75388265D01*
X111262072Y-75409946D01*
X111185388Y-75416971D01*
X111112765Y-75408647D01*
X111092426Y-75402686D01*
X111029476Y-75368952D01*
X110982815Y-75317045D01*
X110952173Y-75246459D01*
X110937282Y-75156692D01*
X110935647Y-75109753D01*
X110940421Y-75041413D01*
G37*
X111417226Y-73863880D02*
X111490080Y-73894830D01*
X111513027Y-73909895D01*
X111542354Y-73933048D01*
X111560764Y-73951253D01*
X111563961Y-73957183D01*
X111554935Y-73970340D01*
X111531837Y-73992667D01*
X111513344Y-74008250D01*
X111462728Y-74048926D01*
X111422760Y-74015295D01*
X111391874Y-73993584D01*
X111361759Y-73986090D01*
X111327292Y-73987920D01*
X111272561Y-74001528D01*
X111234886Y-74029772D01*
X111211991Y-74075433D01*
X111201597Y-74141289D01*
X111201595Y-74141331D01*
X111202494Y-74214939D01*
X111216463Y-74268946D01*
X111244328Y-74305716D01*
X111263325Y-74318168D01*
X111313776Y-74333673D01*
X111367663Y-74333683D01*
X111414546Y-74318638D01*
X111425644Y-74311287D01*
X111453476Y-74292511D01*
X111475236Y-74289434D01*
X111498704Y-74303409D01*
X111524649Y-74328510D01*
X111565716Y-74370880D01*
X111520121Y-74408464D01*
X111449674Y-74450882D01*
X111370233Y-74471785D01*
X111287215Y-74470272D01*
X111232694Y-74456411D01*
X111168970Y-74422135D01*
X111118005Y-74368212D01*
X111094851Y-74330149D01*
X111076099Y-74275536D01*
X111066715Y-74206369D01*
X111066643Y-74131407D01*
X111075824Y-74059409D01*
X111094199Y-73999137D01*
X111097093Y-73992958D01*
X111139952Y-73932351D01*
X111197979Y-73888224D01*
X111266591Y-73861493D01*
X111341201Y-73853073D01*
X111417226Y-73863880D01*
G36*
X111417226Y-73863880D02*
G01*
X111490080Y-73894830D01*
X111513027Y-73909895D01*
X111542354Y-73933048D01*
X111560764Y-73951253D01*
X111563961Y-73957183D01*
X111554935Y-73970340D01*
X111531837Y-73992667D01*
X111513344Y-74008250D01*
X111462728Y-74048926D01*
X111422760Y-74015295D01*
X111391874Y-73993584D01*
X111361759Y-73986090D01*
X111327292Y-73987920D01*
X111272561Y-74001528D01*
X111234886Y-74029772D01*
X111211991Y-74075433D01*
X111201597Y-74141289D01*
X111201595Y-74141331D01*
X111202494Y-74214939D01*
X111216463Y-74268946D01*
X111244328Y-74305716D01*
X111263325Y-74318168D01*
X111313776Y-74333673D01*
X111367663Y-74333683D01*
X111414546Y-74318638D01*
X111425644Y-74311287D01*
X111453476Y-74292511D01*
X111475236Y-74289434D01*
X111498704Y-74303409D01*
X111524649Y-74328510D01*
X111565716Y-74370880D01*
X111520121Y-74408464D01*
X111449674Y-74450882D01*
X111370233Y-74471785D01*
X111287215Y-74470272D01*
X111232694Y-74456411D01*
X111168970Y-74422135D01*
X111118005Y-74368212D01*
X111094851Y-74330149D01*
X111076099Y-74275536D01*
X111066715Y-74206369D01*
X111066643Y-74131407D01*
X111075824Y-74059409D01*
X111094199Y-73999137D01*
X111097093Y-73992958D01*
X111139952Y-73932351D01*
X111197979Y-73888224D01*
X111266591Y-73861493D01*
X111341201Y-73853073D01*
X111417226Y-73863880D01*
G37*
X109576964Y-69690018D02*
X109633812Y-69991570D01*
X110053338Y-70164512D01*
X110304984Y-69993395D01*
X110375458Y-69945750D01*
X110439163Y-69903210D01*
X110493126Y-69867715D01*
X110534373Y-69841210D01*
X110559934Y-69825636D01*
X110566895Y-69822278D01*
X110579435Y-69830914D01*
X110606231Y-69854792D01*
X110644280Y-69890859D01*
X110690579Y-69936067D01*
X110742123Y-69987364D01*
X110795909Y-70041701D01*
X110848935Y-70096028D01*
X110898195Y-70147295D01*
X110940687Y-70192451D01*
X110973407Y-70228446D01*
X110993351Y-70252230D01*
X110998119Y-70260190D01*
X110991257Y-70274865D01*
X110972020Y-70307014D01*
X110942430Y-70353492D01*
X110904510Y-70411156D01*
X110860282Y-70476860D01*
X110834654Y-70514336D01*
X110787941Y-70582768D01*
X110746432Y-70644520D01*
X110712140Y-70696519D01*
X110687080Y-70735692D01*
X110673264Y-70758965D01*
X110671188Y-70763855D01*
X110675895Y-70777755D01*
X110688723Y-70810150D01*
X110707738Y-70856485D01*
X110731003Y-70912206D01*
X110756584Y-70972758D01*
X110782545Y-71033586D01*
X110806950Y-71090136D01*
X110827863Y-71137852D01*
X110843349Y-71172181D01*
X110851472Y-71188568D01*
X110851952Y-71189212D01*
X110864707Y-71192341D01*
X110898677Y-71199321D01*
X110950340Y-71209467D01*
X111016176Y-71222092D01*
X111092664Y-71236509D01*
X111137290Y-71244823D01*
X111219021Y-71260384D01*
X111292843Y-71275192D01*
X111355021Y-71288436D01*
X111401822Y-71299305D01*
X111429509Y-71306989D01*
X111435074Y-71309427D01*
X111440526Y-71325930D01*
X111444924Y-71363200D01*
X111448272Y-71416880D01*
X111450574Y-71482612D01*
X111451832Y-71556037D01*
X111452048Y-71632796D01*
X111451227Y-71708532D01*
X111449371Y-71778886D01*
X111446482Y-71839500D01*
X111442565Y-71886016D01*
X111437622Y-71914075D01*
X111434657Y-71919916D01*
X111416934Y-71926917D01*
X111379381Y-71936927D01*
X111326964Y-71948769D01*
X111264652Y-71961267D01*
X111242900Y-71965310D01*
X111138024Y-71984520D01*
X111055180Y-71999991D01*
X110991630Y-72012337D01*
X110944637Y-72022173D01*
X110911463Y-72030114D01*
X110889371Y-72036776D01*
X110875624Y-72042773D01*
X110867484Y-72048719D01*
X110866345Y-72049894D01*
X110854977Y-72068826D01*
X110837635Y-72105669D01*
X110816050Y-72155913D01*
X110791954Y-72215046D01*
X110767079Y-72278556D01*
X110743157Y-72341932D01*
X110721919Y-72400662D01*
X110705097Y-72450235D01*
X110694422Y-72486139D01*
X110691627Y-72503862D01*
X110691860Y-72504483D01*
X110701331Y-72518970D01*
X110722818Y-72550844D01*
X110754063Y-72596789D01*
X110792807Y-72653485D01*
X110836793Y-72717617D01*
X110849319Y-72735842D01*
X110893984Y-72801914D01*
X110933288Y-72862200D01*
X110965088Y-72913235D01*
X110987245Y-72951560D01*
X110997617Y-72973711D01*
X110998119Y-72976432D01*
X110989405Y-72990736D01*
X110965325Y-73019072D01*
X110928976Y-73058396D01*
X110883453Y-73105661D01*
X110831852Y-73157823D01*
X110777267Y-73211835D01*
X110722794Y-73264653D01*
X110671529Y-73313231D01*
X110626567Y-73354523D01*
X110591004Y-73385485D01*
X110567935Y-73403070D01*
X110561554Y-73405941D01*
X110546699Y-73399178D01*
X110516286Y-73380939D01*
X110475268Y-73354297D01*
X110443709Y-73332852D01*
X110386525Y-73293503D01*
X110318806Y-73247171D01*
X110250880Y-73200913D01*
X110214361Y-73176155D01*
X110090752Y-73092547D01*
X109986991Y-73148650D01*
X109939720Y-73173228D01*
X109899523Y-73192331D01*
X109872326Y-73203227D01*
X109865402Y-73204743D01*
X109857077Y-73193549D01*
X109840654Y-73161917D01*
X109817357Y-73112765D01*
X109788414Y-73049010D01*
X109755050Y-72973571D01*
X109718491Y-72889364D01*
X109679964Y-72799308D01*
X109640694Y-72706321D01*
X109601908Y-72613320D01*
X109564830Y-72523223D01*
X109530689Y-72438948D01*
X109500708Y-72363413D01*
X109476116Y-72299534D01*
X109458136Y-72250231D01*
X109447997Y-72218421D01*
X109446366Y-72207496D01*
X109459291Y-72193561D01*
X109487589Y-72170940D01*
X109525346Y-72144333D01*
X109528515Y-72142228D01*
X109626100Y-72064114D01*
X109704786Y-71972982D01*
X109763891Y-71871745D01*
X109802732Y-71763318D01*
X109820628Y-71650614D01*
X109816897Y-71536548D01*
X109790857Y-71424034D01*
X109741825Y-71315985D01*
X109727400Y-71292345D01*
X109652369Y-71196887D01*
X109563730Y-71120232D01*
X109464549Y-71062780D01*
X109357895Y-71024929D01*
X109246836Y-71007078D01*
X109134439Y-71009625D01*
X109023773Y-71032970D01*
X108917906Y-71077510D01*
X108819905Y-71143645D01*
X108789590Y-71170487D01*
X108712438Y-71254512D01*
X108656218Y-71342966D01*
X108617653Y-71442115D01*
X108596174Y-71540303D01*
X108590872Y-71650697D01*
X108608552Y-71761640D01*
X108647419Y-71869381D01*
X108705677Y-71970169D01*
X108781531Y-72060256D01*
X108873183Y-72135892D01*
X108885228Y-72143864D01*
X108923389Y-72169974D01*
X108952399Y-72192595D01*
X108966268Y-72207039D01*
X108966469Y-72207496D01*
X108963492Y-72223121D01*
X108951689Y-72258582D01*
X108932286Y-72310962D01*
X108906512Y-72377345D01*
X108875591Y-72454814D01*
X108840751Y-72540450D01*
X108803217Y-72631337D01*
X108764217Y-72724559D01*
X108724977Y-72817197D01*
X108686724Y-72906335D01*
X108650683Y-72989055D01*
X108618083Y-73062441D01*
X108590148Y-73123575D01*
X108568105Y-73169541D01*
X108553182Y-73197421D01*
X108547172Y-73204743D01*
X108528809Y-73199041D01*
X108494448Y-73183749D01*
X108450016Y-73161599D01*
X108425583Y-73148650D01*
X108321822Y-73092547D01*
X108198213Y-73176155D01*
X108135114Y-73218987D01*
X108066030Y-73266122D01*
X108001293Y-73310503D01*
X107968866Y-73332852D01*
X107923259Y-73363477D01*
X107884640Y-73387747D01*
X107858048Y-73402587D01*
X107849410Y-73405724D01*
X107836839Y-73397261D01*
X107809016Y-73373636D01*
X107768639Y-73337302D01*
X107718405Y-73290711D01*
X107661012Y-73236317D01*
X107624714Y-73201392D01*
X107561210Y-73138996D01*
X107506327Y-73083188D01*
X107462286Y-73036354D01*
X107431305Y-73000882D01*
X107415602Y-72979161D01*
X107414095Y-72974752D01*
X107421086Y-72957985D01*
X107440406Y-72924082D01*
X107469909Y-72876476D01*
X107507455Y-72818599D01*
X107550900Y-72753884D01*
X107563255Y-72735842D01*
X107608273Y-72670267D01*
X107648660Y-72611228D01*
X107682160Y-72562042D01*
X107706514Y-72526028D01*
X107719464Y-72506502D01*
X107720715Y-72504483D01*
X107718844Y-72488922D01*
X107708913Y-72454709D01*
X107692653Y-72406355D01*
X107671795Y-72348371D01*
X107648073Y-72285270D01*
X107623216Y-72221563D01*
X107598958Y-72161761D01*
X107577029Y-72110376D01*
X107559162Y-72071919D01*
X107547087Y-72050902D01*
X107546229Y-72049894D01*
X107538846Y-72043888D01*
X107526375Y-72037948D01*
X107506080Y-72031460D01*
X107475222Y-72023809D01*
X107431066Y-72014380D01*
X107370874Y-72002559D01*
X107291907Y-71987729D01*
X107191430Y-71969277D01*
X107169675Y-71965310D01*
X107105198Y-71952853D01*
X107048989Y-71940666D01*
X107006013Y-71929926D01*
X106981240Y-71921809D01*
X106977918Y-71919916D01*
X106972444Y-71903138D01*
X106967994Y-71865645D01*
X106964572Y-71811794D01*
X106962181Y-71745944D01*
X106960823Y-71672453D01*
X106960501Y-71595680D01*
X106961219Y-71519983D01*
X106962979Y-71449720D01*
X106965784Y-71389250D01*
X106969638Y-71342930D01*
X106974543Y-71315119D01*
X106977500Y-71309427D01*
X106993963Y-71303686D01*
X107031449Y-71294345D01*
X107086225Y-71282215D01*
X107154555Y-71268107D01*
X107232706Y-71252830D01*
X107275284Y-71244823D01*
X107356071Y-71229721D01*
X107428113Y-71216040D01*
X107487889Y-71204467D01*
X107531879Y-71195687D01*
X107556561Y-71190387D01*
X107560623Y-71189212D01*
X107567489Y-71175965D01*
X107582002Y-71144057D01*
X107602229Y-71098047D01*
X107626234Y-71042492D01*
X107652082Y-70981953D01*
X107677840Y-70920986D01*
X107701573Y-70864151D01*
X107721346Y-70816006D01*
X107735224Y-70781110D01*
X107741274Y-70764021D01*
X107741386Y-70763274D01*
X107734528Y-70749793D01*
X107715302Y-70718770D01*
X107685728Y-70673289D01*
X107647827Y-70616432D01*
X107603620Y-70551283D01*
X107577921Y-70513862D01*
X107531093Y-70445247D01*
X107489501Y-70382952D01*
X107455175Y-70330129D01*
X107430143Y-70289927D01*
X107416435Y-70265500D01*
X107414456Y-70260024D01*
X107422966Y-70247278D01*
X107446493Y-70220063D01*
X107482032Y-70181428D01*
X107526577Y-70134423D01*
X107577123Y-70082095D01*
X107630664Y-70027495D01*
X107684195Y-69973670D01*
X107734711Y-69923670D01*
X107779206Y-69880543D01*
X107814675Y-69847339D01*
X107838113Y-69827106D01*
X107845954Y-69822278D01*
X107858720Y-69829067D01*
X107889256Y-69848142D01*
X107934590Y-69877561D01*
X107991756Y-69915381D01*
X108057784Y-69959661D01*
X108107590Y-69993395D01*
X108359236Y-70164512D01*
X108568999Y-70078041D01*
X108778763Y-69991570D01*
X108835611Y-69690018D01*
X108892460Y-69388466D01*
X109520115Y-69388466D01*
X109576964Y-69690018D01*
G36*
X109576964Y-69690018D02*
G01*
X109633812Y-69991570D01*
X110053338Y-70164512D01*
X110304984Y-69993395D01*
X110375458Y-69945750D01*
X110439163Y-69903210D01*
X110493126Y-69867715D01*
X110534373Y-69841210D01*
X110559934Y-69825636D01*
X110566895Y-69822278D01*
X110579435Y-69830914D01*
X110606231Y-69854792D01*
X110644280Y-69890859D01*
X110690579Y-69936067D01*
X110742123Y-69987364D01*
X110795909Y-70041701D01*
X110848935Y-70096028D01*
X110898195Y-70147295D01*
X110940687Y-70192451D01*
X110973407Y-70228446D01*
X110993351Y-70252230D01*
X110998119Y-70260190D01*
X110991257Y-70274865D01*
X110972020Y-70307014D01*
X110942430Y-70353492D01*
X110904510Y-70411156D01*
X110860282Y-70476860D01*
X110834654Y-70514336D01*
X110787941Y-70582768D01*
X110746432Y-70644520D01*
X110712140Y-70696519D01*
X110687080Y-70735692D01*
X110673264Y-70758965D01*
X110671188Y-70763855D01*
X110675895Y-70777755D01*
X110688723Y-70810150D01*
X110707738Y-70856485D01*
X110731003Y-70912206D01*
X110756584Y-70972758D01*
X110782545Y-71033586D01*
X110806950Y-71090136D01*
X110827863Y-71137852D01*
X110843349Y-71172181D01*
X110851472Y-71188568D01*
X110851952Y-71189212D01*
X110864707Y-71192341D01*
X110898677Y-71199321D01*
X110950340Y-71209467D01*
X111016176Y-71222092D01*
X111092664Y-71236509D01*
X111137290Y-71244823D01*
X111219021Y-71260384D01*
X111292843Y-71275192D01*
X111355021Y-71288436D01*
X111401822Y-71299305D01*
X111429509Y-71306989D01*
X111435074Y-71309427D01*
X111440526Y-71325930D01*
X111444924Y-71363200D01*
X111448272Y-71416880D01*
X111450574Y-71482612D01*
X111451832Y-71556037D01*
X111452048Y-71632796D01*
X111451227Y-71708532D01*
X111449371Y-71778886D01*
X111446482Y-71839500D01*
X111442565Y-71886016D01*
X111437622Y-71914075D01*
X111434657Y-71919916D01*
X111416934Y-71926917D01*
X111379381Y-71936927D01*
X111326964Y-71948769D01*
X111264652Y-71961267D01*
X111242900Y-71965310D01*
X111138024Y-71984520D01*
X111055180Y-71999991D01*
X110991630Y-72012337D01*
X110944637Y-72022173D01*
X110911463Y-72030114D01*
X110889371Y-72036776D01*
X110875624Y-72042773D01*
X110867484Y-72048719D01*
X110866345Y-72049894D01*
X110854977Y-72068826D01*
X110837635Y-72105669D01*
X110816050Y-72155913D01*
X110791954Y-72215046D01*
X110767079Y-72278556D01*
X110743157Y-72341932D01*
X110721919Y-72400662D01*
X110705097Y-72450235D01*
X110694422Y-72486139D01*
X110691627Y-72503862D01*
X110691860Y-72504483D01*
X110701331Y-72518970D01*
X110722818Y-72550844D01*
X110754063Y-72596789D01*
X110792807Y-72653485D01*
X110836793Y-72717617D01*
X110849319Y-72735842D01*
X110893984Y-72801914D01*
X110933288Y-72862200D01*
X110965088Y-72913235D01*
X110987245Y-72951560D01*
X110997617Y-72973711D01*
X110998119Y-72976432D01*
X110989405Y-72990736D01*
X110965325Y-73019072D01*
X110928976Y-73058396D01*
X110883453Y-73105661D01*
X110831852Y-73157823D01*
X110777267Y-73211835D01*
X110722794Y-73264653D01*
X110671529Y-73313231D01*
X110626567Y-73354523D01*
X110591004Y-73385485D01*
X110567935Y-73403070D01*
X110561554Y-73405941D01*
X110546699Y-73399178D01*
X110516286Y-73380939D01*
X110475268Y-73354297D01*
X110443709Y-73332852D01*
X110386525Y-73293503D01*
X110318806Y-73247171D01*
X110250880Y-73200913D01*
X110214361Y-73176155D01*
X110090752Y-73092547D01*
X109986991Y-73148650D01*
X109939720Y-73173228D01*
X109899523Y-73192331D01*
X109872326Y-73203227D01*
X109865402Y-73204743D01*
X109857077Y-73193549D01*
X109840654Y-73161917D01*
X109817357Y-73112765D01*
X109788414Y-73049010D01*
X109755050Y-72973571D01*
X109718491Y-72889364D01*
X109679964Y-72799308D01*
X109640694Y-72706321D01*
X109601908Y-72613320D01*
X109564830Y-72523223D01*
X109530689Y-72438948D01*
X109500708Y-72363413D01*
X109476116Y-72299534D01*
X109458136Y-72250231D01*
X109447997Y-72218421D01*
X109446366Y-72207496D01*
X109459291Y-72193561D01*
X109487589Y-72170940D01*
X109525346Y-72144333D01*
X109528515Y-72142228D01*
X109626100Y-72064114D01*
X109704786Y-71972982D01*
X109763891Y-71871745D01*
X109802732Y-71763318D01*
X109820628Y-71650614D01*
X109816897Y-71536548D01*
X109790857Y-71424034D01*
X109741825Y-71315985D01*
X109727400Y-71292345D01*
X109652369Y-71196887D01*
X109563730Y-71120232D01*
X109464549Y-71062780D01*
X109357895Y-71024929D01*
X109246836Y-71007078D01*
X109134439Y-71009625D01*
X109023773Y-71032970D01*
X108917906Y-71077510D01*
X108819905Y-71143645D01*
X108789590Y-71170487D01*
X108712438Y-71254512D01*
X108656218Y-71342966D01*
X108617653Y-71442115D01*
X108596174Y-71540303D01*
X108590872Y-71650697D01*
X108608552Y-71761640D01*
X108647419Y-71869381D01*
X108705677Y-71970169D01*
X108781531Y-72060256D01*
X108873183Y-72135892D01*
X108885228Y-72143864D01*
X108923389Y-72169974D01*
X108952399Y-72192595D01*
X108966268Y-72207039D01*
X108966469Y-72207496D01*
X108963492Y-72223121D01*
X108951689Y-72258582D01*
X108932286Y-72310962D01*
X108906512Y-72377345D01*
X108875591Y-72454814D01*
X108840751Y-72540450D01*
X108803217Y-72631337D01*
X108764217Y-72724559D01*
X108724977Y-72817197D01*
X108686724Y-72906335D01*
X108650683Y-72989055D01*
X108618083Y-73062441D01*
X108590148Y-73123575D01*
X108568105Y-73169541D01*
X108553182Y-73197421D01*
X108547172Y-73204743D01*
X108528809Y-73199041D01*
X108494448Y-73183749D01*
X108450016Y-73161599D01*
X108425583Y-73148650D01*
X108321822Y-73092547D01*
X108198213Y-73176155D01*
X108135114Y-73218987D01*
X108066030Y-73266122D01*
X108001293Y-73310503D01*
X107968866Y-73332852D01*
X107923259Y-73363477D01*
X107884640Y-73387747D01*
X107858048Y-73402587D01*
X107849410Y-73405724D01*
X107836839Y-73397261D01*
X107809016Y-73373636D01*
X107768639Y-73337302D01*
X107718405Y-73290711D01*
X107661012Y-73236317D01*
X107624714Y-73201392D01*
X107561210Y-73138996D01*
X107506327Y-73083188D01*
X107462286Y-73036354D01*
X107431305Y-73000882D01*
X107415602Y-72979161D01*
X107414095Y-72974752D01*
X107421086Y-72957985D01*
X107440406Y-72924082D01*
X107469909Y-72876476D01*
X107507455Y-72818599D01*
X107550900Y-72753884D01*
X107563255Y-72735842D01*
X107608273Y-72670267D01*
X107648660Y-72611228D01*
X107682160Y-72562042D01*
X107706514Y-72526028D01*
X107719464Y-72506502D01*
X107720715Y-72504483D01*
X107718844Y-72488922D01*
X107708913Y-72454709D01*
X107692653Y-72406355D01*
X107671795Y-72348371D01*
X107648073Y-72285270D01*
X107623216Y-72221563D01*
X107598958Y-72161761D01*
X107577029Y-72110376D01*
X107559162Y-72071919D01*
X107547087Y-72050902D01*
X107546229Y-72049894D01*
X107538846Y-72043888D01*
X107526375Y-72037948D01*
X107506080Y-72031460D01*
X107475222Y-72023809D01*
X107431066Y-72014380D01*
X107370874Y-72002559D01*
X107291907Y-71987729D01*
X107191430Y-71969277D01*
X107169675Y-71965310D01*
X107105198Y-71952853D01*
X107048989Y-71940666D01*
X107006013Y-71929926D01*
X106981240Y-71921809D01*
X106977918Y-71919916D01*
X106972444Y-71903138D01*
X106967994Y-71865645D01*
X106964572Y-71811794D01*
X106962181Y-71745944D01*
X106960823Y-71672453D01*
X106960501Y-71595680D01*
X106961219Y-71519983D01*
X106962979Y-71449720D01*
X106965784Y-71389250D01*
X106969638Y-71342930D01*
X106974543Y-71315119D01*
X106977500Y-71309427D01*
X106993963Y-71303686D01*
X107031449Y-71294345D01*
X107086225Y-71282215D01*
X107154555Y-71268107D01*
X107232706Y-71252830D01*
X107275284Y-71244823D01*
X107356071Y-71229721D01*
X107428113Y-71216040D01*
X107487889Y-71204467D01*
X107531879Y-71195687D01*
X107556561Y-71190387D01*
X107560623Y-71189212D01*
X107567489Y-71175965D01*
X107582002Y-71144057D01*
X107602229Y-71098047D01*
X107626234Y-71042492D01*
X107652082Y-70981953D01*
X107677840Y-70920986D01*
X107701573Y-70864151D01*
X107721346Y-70816006D01*
X107735224Y-70781110D01*
X107741274Y-70764021D01*
X107741386Y-70763274D01*
X107734528Y-70749793D01*
X107715302Y-70718770D01*
X107685728Y-70673289D01*
X107647827Y-70616432D01*
X107603620Y-70551283D01*
X107577921Y-70513862D01*
X107531093Y-70445247D01*
X107489501Y-70382952D01*
X107455175Y-70330129D01*
X107430143Y-70289927D01*
X107416435Y-70265500D01*
X107414456Y-70260024D01*
X107422966Y-70247278D01*
X107446493Y-70220063D01*
X107482032Y-70181428D01*
X107526577Y-70134423D01*
X107577123Y-70082095D01*
X107630664Y-70027495D01*
X107684195Y-69973670D01*
X107734711Y-69923670D01*
X107779206Y-69880543D01*
X107814675Y-69847339D01*
X107838113Y-69827106D01*
X107845954Y-69822278D01*
X107858720Y-69829067D01*
X107889256Y-69848142D01*
X107934590Y-69877561D01*
X107991756Y-69915381D01*
X108057784Y-69959661D01*
X108107590Y-69993395D01*
X108359236Y-70164512D01*
X108568999Y-70078041D01*
X108778763Y-69991570D01*
X108835611Y-69690018D01*
X108892460Y-69388466D01*
X109520115Y-69388466D01*
X109576964Y-69690018D01*
G37*
X109911746Y-75231824D02*
X110035508Y-75231824D01*
X110046413Y-75259425D01*
X110078745Y-75279204D01*
X110130910Y-75289819D01*
X110158787Y-75291228D01*
X110205247Y-75287620D01*
X110236129Y-75273597D01*
X110243664Y-75266931D01*
X110264076Y-75230666D01*
X110268812Y-75197773D01*
X110268812Y-75153763D01*
X110207513Y-75153763D01*
X110136256Y-75157395D01*
X110086276Y-75168818D01*
X110054696Y-75188824D01*
X110047626Y-75197743D01*
X110035508Y-75231824D01*
X109911746Y-75231824D01*
X109913971Y-75192456D01*
X109936663Y-75135244D01*
X109967624Y-75096580D01*
X109986376Y-75079864D01*
X110004733Y-75068878D01*
X110028619Y-75062180D01*
X110063957Y-75058326D01*
X110116669Y-75055873D01*
X110137577Y-75055168D01*
X110268812Y-75050879D01*
X110268620Y-75011158D01*
X110263537Y-74969405D01*
X110245162Y-74944158D01*
X110208039Y-74928030D01*
X110207043Y-74927742D01*
X110154410Y-74921400D01*
X110102906Y-74929684D01*
X110064630Y-74949827D01*
X110049272Y-74959773D01*
X110032730Y-74958397D01*
X110007275Y-74943987D01*
X109992328Y-74933817D01*
X109963091Y-74912088D01*
X109944980Y-74895800D01*
X109942074Y-74891137D01*
X109954040Y-74867005D01*
X109989396Y-74838185D01*
X110004753Y-74828461D01*
X110048901Y-74811714D01*
X110108398Y-74802227D01*
X110174487Y-74800095D01*
X110238411Y-74805417D01*
X110291411Y-74818290D01*
X110306731Y-74825110D01*
X110336428Y-74842974D01*
X110359220Y-74863093D01*
X110376083Y-74888962D01*
X110387998Y-74924073D01*
X110395942Y-74971920D01*
X110400894Y-75035996D01*
X110403831Y-75119794D01*
X110404947Y-75175768D01*
X110409052Y-75417822D01*
X110338932Y-75417822D01*
X110296393Y-75416038D01*
X110274476Y-75409942D01*
X110268812Y-75399706D01*
X110265821Y-75388637D01*
X110252451Y-75390754D01*
X110234233Y-75399629D01*
X110188624Y-75413233D01*
X110130007Y-75416899D01*
X110068354Y-75410903D01*
X110013638Y-75395521D01*
X110008730Y-75393386D01*
X109958723Y-75358255D01*
X109925756Y-75309419D01*
X109910587Y-75252333D01*
X109911746Y-75231824D01*
G36*
X109911746Y-75231824D02*
G01*
X110035508Y-75231824D01*
X110046413Y-75259425D01*
X110078745Y-75279204D01*
X110130910Y-75289819D01*
X110158787Y-75291228D01*
X110205247Y-75287620D01*
X110236129Y-75273597D01*
X110243664Y-75266931D01*
X110264076Y-75230666D01*
X110268812Y-75197773D01*
X110268812Y-75153763D01*
X110207513Y-75153763D01*
X110136256Y-75157395D01*
X110086276Y-75168818D01*
X110054696Y-75188824D01*
X110047626Y-75197743D01*
X110035508Y-75231824D01*
X109911746Y-75231824D01*
X109913971Y-75192456D01*
X109936663Y-75135244D01*
X109967624Y-75096580D01*
X109986376Y-75079864D01*
X110004733Y-75068878D01*
X110028619Y-75062180D01*
X110063957Y-75058326D01*
X110116669Y-75055873D01*
X110137577Y-75055168D01*
X110268812Y-75050879D01*
X110268620Y-75011158D01*
X110263537Y-74969405D01*
X110245162Y-74944158D01*
X110208039Y-74928030D01*
X110207043Y-74927742D01*
X110154410Y-74921400D01*
X110102906Y-74929684D01*
X110064630Y-74949827D01*
X110049272Y-74959773D01*
X110032730Y-74958397D01*
X110007275Y-74943987D01*
X109992328Y-74933817D01*
X109963091Y-74912088D01*
X109944980Y-74895800D01*
X109942074Y-74891137D01*
X109954040Y-74867005D01*
X109989396Y-74838185D01*
X110004753Y-74828461D01*
X110048901Y-74811714D01*
X110108398Y-74802227D01*
X110174487Y-74800095D01*
X110238411Y-74805417D01*
X110291411Y-74818290D01*
X110306731Y-74825110D01*
X110336428Y-74842974D01*
X110359220Y-74863093D01*
X110376083Y-74888962D01*
X110387998Y-74924073D01*
X110395942Y-74971920D01*
X110400894Y-75035996D01*
X110403831Y-75119794D01*
X110404947Y-75175768D01*
X110409052Y-75417822D01*
X110338932Y-75417822D01*
X110296393Y-75416038D01*
X110274476Y-75409942D01*
X110268812Y-75399706D01*
X110265821Y-75388637D01*
X110252451Y-75390754D01*
X110234233Y-75399629D01*
X110188624Y-75413233D01*
X110130007Y-75416899D01*
X110068354Y-75410903D01*
X110013638Y-75395521D01*
X110008730Y-75393386D01*
X109958723Y-75358255D01*
X109925756Y-75309419D01*
X109910587Y-75252333D01*
X109911746Y-75231824D01*
G37*
X107493518Y-74082299D02*
X107619418Y-74082299D01*
X107622885Y-74090558D01*
X107637137Y-74095113D01*
X107666530Y-74097065D01*
X107715425Y-74097517D01*
X107734252Y-74097525D01*
X107791533Y-74096843D01*
X107827859Y-74094364D01*
X107847396Y-74089443D01*
X107854310Y-74081434D01*
X107854555Y-74078862D01*
X107846664Y-74058423D01*
X107826915Y-74029789D01*
X107818425Y-74019763D01*
X107786906Y-73991408D01*
X107754051Y-73980259D01*
X107736349Y-73979327D01*
X107688461Y-73990981D01*
X107648301Y-74022285D01*
X107622827Y-74067752D01*
X107622375Y-74069233D01*
X107619418Y-74082299D01*
X107493518Y-74082299D01*
X107507608Y-74015510D01*
X107533962Y-73960025D01*
X107566193Y-73920639D01*
X107625783Y-73877931D01*
X107695832Y-73855109D01*
X107770339Y-73853046D01*
X107843301Y-73872614D01*
X107855832Y-73878514D01*
X107899201Y-73910283D01*
X107940210Y-73956646D01*
X107970832Y-74007696D01*
X107979541Y-74031166D01*
X107987488Y-74073091D01*
X107992226Y-74123757D01*
X107992801Y-74144679D01*
X107992871Y-74210693D01*
X107612917Y-74210693D01*
X107621017Y-74245273D01*
X107640896Y-74286170D01*
X107675653Y-74321514D01*
X107717002Y-74344282D01*
X107743351Y-74349010D01*
X107779084Y-74343273D01*
X107821718Y-74328882D01*
X107836201Y-74322262D01*
X107889760Y-74295513D01*
X107935467Y-74330376D01*
X107961842Y-74353955D01*
X107975876Y-74373417D01*
X107976586Y-74379129D01*
X107964049Y-74392973D01*
X107936572Y-74414012D01*
X107911634Y-74430425D01*
X107844336Y-74459930D01*
X107768890Y-74473284D01*
X107694112Y-74469812D01*
X107634505Y-74451663D01*
X107573059Y-74412784D01*
X107529392Y-74361595D01*
X107502074Y-74295367D01*
X107489678Y-74211371D01*
X107488579Y-74172936D01*
X107492978Y-74084861D01*
X107493518Y-74082299D01*
G36*
X107493518Y-74082299D02*
G01*
X107619418Y-74082299D01*
X107622885Y-74090558D01*
X107637137Y-74095113D01*
X107666530Y-74097065D01*
X107715425Y-74097517D01*
X107734252Y-74097525D01*
X107791533Y-74096843D01*
X107827859Y-74094364D01*
X107847396Y-74089443D01*
X107854310Y-74081434D01*
X107854555Y-74078862D01*
X107846664Y-74058423D01*
X107826915Y-74029789D01*
X107818425Y-74019763D01*
X107786906Y-73991408D01*
X107754051Y-73980259D01*
X107736349Y-73979327D01*
X107688461Y-73990981D01*
X107648301Y-74022285D01*
X107622827Y-74067752D01*
X107622375Y-74069233D01*
X107619418Y-74082299D01*
X107493518Y-74082299D01*
X107507608Y-74015510D01*
X107533962Y-73960025D01*
X107566193Y-73920639D01*
X107625783Y-73877931D01*
X107695832Y-73855109D01*
X107770339Y-73853046D01*
X107843301Y-73872614D01*
X107855832Y-73878514D01*
X107899201Y-73910283D01*
X107940210Y-73956646D01*
X107970832Y-74007696D01*
X107979541Y-74031166D01*
X107987488Y-74073091D01*
X107992226Y-74123757D01*
X107992801Y-74144679D01*
X107992871Y-74210693D01*
X107612917Y-74210693D01*
X107621017Y-74245273D01*
X107640896Y-74286170D01*
X107675653Y-74321514D01*
X107717002Y-74344282D01*
X107743351Y-74349010D01*
X107779084Y-74343273D01*
X107821718Y-74328882D01*
X107836201Y-74322262D01*
X107889760Y-74295513D01*
X107935467Y-74330376D01*
X107961842Y-74353955D01*
X107975876Y-74373417D01*
X107976586Y-74379129D01*
X107964049Y-74392973D01*
X107936572Y-74414012D01*
X107911634Y-74430425D01*
X107844336Y-74459930D01*
X107768890Y-74473284D01*
X107694112Y-74469812D01*
X107634505Y-74451663D01*
X107573059Y-74412784D01*
X107529392Y-74361595D01*
X107502074Y-74295367D01*
X107489678Y-74211371D01*
X107488579Y-74172936D01*
X107492978Y-74084861D01*
X107493518Y-74082299D01*
G37*
X106924060Y-74170650D02*
X107062376Y-74170650D01*
X107065903Y-74240254D01*
X107077785Y-74288569D01*
X107099980Y-74318631D01*
X107134441Y-74333471D01*
X107169258Y-74336436D01*
X107208671Y-74333028D01*
X107234829Y-74319617D01*
X107251186Y-74301896D01*
X107264063Y-74282835D01*
X107271728Y-74261601D01*
X107275139Y-74231849D01*
X107275251Y-74187236D01*
X107274103Y-74149880D01*
X107271468Y-74093604D01*
X107267544Y-74056658D01*
X107260937Y-74033223D01*
X107250251Y-74017480D01*
X107240167Y-74008380D01*
X107198030Y-73988537D01*
X107148160Y-73985332D01*
X107119524Y-73992168D01*
X107091172Y-74016464D01*
X107072391Y-74063728D01*
X107063288Y-74133624D01*
X107062376Y-74170650D01*
X106924060Y-74170650D01*
X106924060Y-73858614D01*
X106993218Y-73858614D01*
X107034740Y-73860256D01*
X107056162Y-73866087D01*
X107062374Y-73877461D01*
X107062376Y-73877798D01*
X107065258Y-73888938D01*
X107077970Y-73887673D01*
X107103243Y-73875433D01*
X107162131Y-73856707D01*
X107228385Y-73854739D01*
X107291241Y-73869184D01*
X107317753Y-73882282D01*
X107350447Y-73905106D01*
X107374275Y-73929996D01*
X107390594Y-73961249D01*
X107400760Y-74003166D01*
X107406128Y-74060044D01*
X107408056Y-74136184D01*
X107408169Y-74168917D01*
X107407839Y-74240656D01*
X107406473Y-74291927D01*
X107403500Y-74327404D01*
X107398351Y-74351763D01*
X107390457Y-74369680D01*
X107382243Y-74381902D01*
X107329813Y-74433905D01*
X107268070Y-74465184D01*
X107201464Y-74474592D01*
X107134442Y-74460980D01*
X107113208Y-74451354D01*
X107062376Y-74424859D01*
X107062376Y-74840052D01*
X107099475Y-74820868D01*
X107148357Y-74806025D01*
X107208439Y-74802222D01*
X107268436Y-74809243D01*
X107313744Y-74825013D01*
X107351325Y-74855047D01*
X107383436Y-74898024D01*
X107385850Y-74902436D01*
X107396033Y-74923221D01*
X107403470Y-74944170D01*
X107408589Y-74969548D01*
X107411819Y-75003618D01*
X107413587Y-75050641D01*
X107414323Y-75114882D01*
X107414456Y-75187176D01*
X107414456Y-75417822D01*
X107276139Y-75417822D01*
X107276139Y-74992533D01*
X107237451Y-74959979D01*
X107197262Y-74933940D01*
X107159203Y-74929205D01*
X107120934Y-74941389D01*
X107100538Y-74953320D01*
X107085358Y-74970313D01*
X107074562Y-74995995D01*
X107067317Y-75033991D01*
X107062792Y-75087926D01*
X107060156Y-75161425D01*
X107059228Y-75210347D01*
X107056089Y-75411535D01*
X106990074Y-75415336D01*
X106924060Y-75419136D01*
X106924060Y-74170650D01*
G36*
X106924060Y-74170650D02*
G01*
X107062376Y-74170650D01*
X107065903Y-74240254D01*
X107077785Y-74288569D01*
X107099980Y-74318631D01*
X107134441Y-74333471D01*
X107169258Y-74336436D01*
X107208671Y-74333028D01*
X107234829Y-74319617D01*
X107251186Y-74301896D01*
X107264063Y-74282835D01*
X107271728Y-74261601D01*
X107275139Y-74231849D01*
X107275251Y-74187236D01*
X107274103Y-74149880D01*
X107271468Y-74093604D01*
X107267544Y-74056658D01*
X107260937Y-74033223D01*
X107250251Y-74017480D01*
X107240167Y-74008380D01*
X107198030Y-73988537D01*
X107148160Y-73985332D01*
X107119524Y-73992168D01*
X107091172Y-74016464D01*
X107072391Y-74063728D01*
X107063288Y-74133624D01*
X107062376Y-74170650D01*
X106924060Y-74170650D01*
X106924060Y-73858614D01*
X106993218Y-73858614D01*
X107034740Y-73860256D01*
X107056162Y-73866087D01*
X107062374Y-73877461D01*
X107062376Y-73877798D01*
X107065258Y-73888938D01*
X107077970Y-73887673D01*
X107103243Y-73875433D01*
X107162131Y-73856707D01*
X107228385Y-73854739D01*
X107291241Y-73869184D01*
X107317753Y-73882282D01*
X107350447Y-73905106D01*
X107374275Y-73929996D01*
X107390594Y-73961249D01*
X107400760Y-74003166D01*
X107406128Y-74060044D01*
X107408056Y-74136184D01*
X107408169Y-74168917D01*
X107407839Y-74240656D01*
X107406473Y-74291927D01*
X107403500Y-74327404D01*
X107398351Y-74351763D01*
X107390457Y-74369680D01*
X107382243Y-74381902D01*
X107329813Y-74433905D01*
X107268070Y-74465184D01*
X107201464Y-74474592D01*
X107134442Y-74460980D01*
X107113208Y-74451354D01*
X107062376Y-74424859D01*
X107062376Y-74840052D01*
X107099475Y-74820868D01*
X107148357Y-74806025D01*
X107208439Y-74802222D01*
X107268436Y-74809243D01*
X107313744Y-74825013D01*
X107351325Y-74855047D01*
X107383436Y-74898024D01*
X107385850Y-74902436D01*
X107396033Y-74923221D01*
X107403470Y-74944170D01*
X107408589Y-74969548D01*
X107411819Y-75003618D01*
X107413587Y-75050641D01*
X107414323Y-75114882D01*
X107414456Y-75187176D01*
X107414456Y-75417822D01*
X107276139Y-75417822D01*
X107276139Y-74992533D01*
X107237451Y-74959979D01*
X107197262Y-74933940D01*
X107159203Y-74929205D01*
X107120934Y-74941389D01*
X107100538Y-74953320D01*
X107085358Y-74970313D01*
X107074562Y-74995995D01*
X107067317Y-75033991D01*
X107062792Y-75087926D01*
X107060156Y-75161425D01*
X107059228Y-75210347D01*
X107056089Y-75411535D01*
X106990074Y-75415336D01*
X106924060Y-75419136D01*
X106924060Y-74170650D01*
G37*
X110999460Y-73858030D02*
X111042711Y-73871245D01*
X111070558Y-73887941D01*
X111079629Y-73901145D01*
X111077132Y-73916797D01*
X111060931Y-73941385D01*
X111047232Y-73958800D01*
X111018992Y-73990283D01*
X110997775Y-74003529D01*
X110979688Y-74002664D01*
X110926035Y-73989010D01*
X110886630Y-73989630D01*
X110854632Y-74005104D01*
X110843890Y-74014161D01*
X110809505Y-74046027D01*
X110809505Y-74462179D01*
X110671188Y-74462179D01*
X110671188Y-73858614D01*
X110740347Y-73858614D01*
X110781869Y-73860256D01*
X110803291Y-73866087D01*
X110809502Y-73877461D01*
X110809505Y-73877798D01*
X110812439Y-73889713D01*
X110825704Y-73888159D01*
X110844084Y-73879563D01*
X110882046Y-73863568D01*
X110912872Y-73853945D01*
X110952536Y-73851478D01*
X110999460Y-73858030D01*
G36*
X110999460Y-73858030D02*
G01*
X111042711Y-73871245D01*
X111070558Y-73887941D01*
X111079629Y-73901145D01*
X111077132Y-73916797D01*
X111060931Y-73941385D01*
X111047232Y-73958800D01*
X111018992Y-73990283D01*
X110997775Y-74003529D01*
X110979688Y-74002664D01*
X110926035Y-73989010D01*
X110886630Y-73989630D01*
X110854632Y-74005104D01*
X110843890Y-74014161D01*
X110809505Y-74046027D01*
X110809505Y-74462179D01*
X110671188Y-74462179D01*
X110671188Y-73858614D01*
X110740347Y-73858614D01*
X110781869Y-73860256D01*
X110803291Y-73866087D01*
X110809502Y-73877461D01*
X110809505Y-73877798D01*
X110812439Y-73889713D01*
X110825704Y-73888159D01*
X110844084Y-73879563D01*
X110882046Y-73863568D01*
X110912872Y-73853945D01*
X110952536Y-73851478D01*
X110999460Y-73858030D01*
G37*
X109214017Y-73856452D02*
X109261634Y-73865482D01*
X109311034Y-73884370D01*
X109316312Y-73886777D01*
X109353774Y-73906476D01*
X109379717Y-73924781D01*
X109388103Y-73936508D01*
X109380117Y-73955632D01*
X109360720Y-73983850D01*
X109352110Y-73994384D01*
X109316628Y-74035847D01*
X109270885Y-74008858D01*
X109227350Y-73990878D01*
X109177050Y-73981267D01*
X109128812Y-73980660D01*
X109091467Y-73989691D01*
X109082505Y-73995327D01*
X109065437Y-74021171D01*
X109063363Y-74050941D01*
X109076134Y-74074197D01*
X109083688Y-74078708D01*
X109106325Y-74084309D01*
X109146115Y-74090892D01*
X109195166Y-74097183D01*
X109204215Y-74098170D01*
X109282996Y-74111798D01*
X109340136Y-74134946D01*
X109378030Y-74169752D01*
X109399079Y-74218354D01*
X109405635Y-74277718D01*
X109396577Y-74345198D01*
X109367164Y-74398188D01*
X109317278Y-74436783D01*
X109246800Y-74461081D01*
X109168565Y-74470667D01*
X109104766Y-74470552D01*
X109053016Y-74461845D01*
X109017673Y-74449825D01*
X108973017Y-74428880D01*
X108931747Y-74404574D01*
X108917079Y-74393876D01*
X108879357Y-74363084D01*
X108924852Y-74317049D01*
X108970347Y-74271013D01*
X109022072Y-74305243D01*
X109073952Y-74330952D01*
X109129351Y-74344399D01*
X109182605Y-74345818D01*
X109228049Y-74335443D01*
X109260016Y-74313507D01*
X109270338Y-74294998D01*
X109268789Y-74265314D01*
X109243140Y-74242615D01*
X109193460Y-74226940D01*
X109139031Y-74219695D01*
X109055264Y-74205873D01*
X108993033Y-74179796D01*
X108951507Y-74140699D01*
X108929853Y-74087820D01*
X108926853Y-74025126D01*
X108941671Y-73959642D01*
X108975454Y-73910144D01*
X109028505Y-73876408D01*
X109101126Y-73858207D01*
X109154928Y-73854639D01*
X109214017Y-73856452D01*
G36*
X109214017Y-73856452D02*
G01*
X109261634Y-73865482D01*
X109311034Y-73884370D01*
X109316312Y-73886777D01*
X109353774Y-73906476D01*
X109379717Y-73924781D01*
X109388103Y-73936508D01*
X109380117Y-73955632D01*
X109360720Y-73983850D01*
X109352110Y-73994384D01*
X109316628Y-74035847D01*
X109270885Y-74008858D01*
X109227350Y-73990878D01*
X109177050Y-73981267D01*
X109128812Y-73980660D01*
X109091467Y-73989691D01*
X109082505Y-73995327D01*
X109065437Y-74021171D01*
X109063363Y-74050941D01*
X109076134Y-74074197D01*
X109083688Y-74078708D01*
X109106325Y-74084309D01*
X109146115Y-74090892D01*
X109195166Y-74097183D01*
X109204215Y-74098170D01*
X109282996Y-74111798D01*
X109340136Y-74134946D01*
X109378030Y-74169752D01*
X109399079Y-74218354D01*
X109405635Y-74277718D01*
X109396577Y-74345198D01*
X109367164Y-74398188D01*
X109317278Y-74436783D01*
X109246800Y-74461081D01*
X109168565Y-74470667D01*
X109104766Y-74470552D01*
X109053016Y-74461845D01*
X109017673Y-74449825D01*
X108973017Y-74428880D01*
X108931747Y-74404574D01*
X108917079Y-74393876D01*
X108879357Y-74363084D01*
X108924852Y-74317049D01*
X108970347Y-74271013D01*
X109022072Y-74305243D01*
X109073952Y-74330952D01*
X109129351Y-74344399D01*
X109182605Y-74345818D01*
X109228049Y-74335443D01*
X109260016Y-74313507D01*
X109270338Y-74294998D01*
X109268789Y-74265314D01*
X109243140Y-74242615D01*
X109193460Y-74226940D01*
X109139031Y-74219695D01*
X109055264Y-74205873D01*
X108993033Y-74179796D01*
X108951507Y-74140699D01*
X108929853Y-74087820D01*
X108926853Y-74025126D01*
X108941671Y-73959642D01*
X108975454Y-73910144D01*
X109028505Y-73876408D01*
X109101126Y-73858207D01*
X109154928Y-73854639D01*
X109214017Y-73856452D01*
G37*
X108509367Y-75116155D02*
X108646721Y-75116155D01*
X108649903Y-75170194D01*
X108657141Y-75214735D01*
X108666940Y-75239888D01*
X108704011Y-75274260D01*
X108748026Y-75286582D01*
X108793416Y-75276618D01*
X108832203Y-75246895D01*
X108846892Y-75226905D01*
X108855481Y-75203050D01*
X108859504Y-75168230D01*
X108860495Y-75115930D01*
X108858722Y-75064139D01*
X108854037Y-75018634D01*
X108847397Y-74988181D01*
X108846290Y-74985452D01*
X108819509Y-74953000D01*
X108780421Y-74935183D01*
X108736685Y-74932306D01*
X108695962Y-74944674D01*
X108665913Y-74972593D01*
X108662796Y-74978148D01*
X108653039Y-75012022D01*
X108647723Y-75060728D01*
X108646721Y-75116155D01*
X108509367Y-75116155D01*
X108509432Y-75095540D01*
X108510336Y-75062563D01*
X108516486Y-74980981D01*
X108529267Y-74919730D01*
X108550529Y-74874449D01*
X108582122Y-74840779D01*
X108612793Y-74821014D01*
X108655646Y-74807120D01*
X108708944Y-74802354D01*
X108763520Y-74806236D01*
X108810208Y-74818282D01*
X108834876Y-74832693D01*
X108860495Y-74855878D01*
X108860495Y-74562773D01*
X108998812Y-74562773D01*
X108998812Y-75417822D01*
X108929654Y-75417822D01*
X108889512Y-75416645D01*
X108868606Y-75411772D01*
X108861078Y-75401186D01*
X108860495Y-75394029D01*
X108859226Y-75379676D01*
X108851221Y-75376923D01*
X108830185Y-75385771D01*
X108813827Y-75394029D01*
X108751023Y-75413597D01*
X108682752Y-75414729D01*
X108627248Y-75400135D01*
X108575562Y-75364877D01*
X108536162Y-75312835D01*
X108514587Y-75251450D01*
X108514038Y-75248018D01*
X108510833Y-75210571D01*
X108509239Y-75156813D01*
X108509367Y-75116155D01*
G36*
X108509367Y-75116155D02*
G01*
X108646721Y-75116155D01*
X108649903Y-75170194D01*
X108657141Y-75214735D01*
X108666940Y-75239888D01*
X108704011Y-75274260D01*
X108748026Y-75286582D01*
X108793416Y-75276618D01*
X108832203Y-75246895D01*
X108846892Y-75226905D01*
X108855481Y-75203050D01*
X108859504Y-75168230D01*
X108860495Y-75115930D01*
X108858722Y-75064139D01*
X108854037Y-75018634D01*
X108847397Y-74988181D01*
X108846290Y-74985452D01*
X108819509Y-74953000D01*
X108780421Y-74935183D01*
X108736685Y-74932306D01*
X108695962Y-74944674D01*
X108665913Y-74972593D01*
X108662796Y-74978148D01*
X108653039Y-75012022D01*
X108647723Y-75060728D01*
X108646721Y-75116155D01*
X108509367Y-75116155D01*
X108509432Y-75095540D01*
X108510336Y-75062563D01*
X108516486Y-74980981D01*
X108529267Y-74919730D01*
X108550529Y-74874449D01*
X108582122Y-74840779D01*
X108612793Y-74821014D01*
X108655646Y-74807120D01*
X108708944Y-74802354D01*
X108763520Y-74806236D01*
X108810208Y-74818282D01*
X108834876Y-74832693D01*
X108860495Y-74855878D01*
X108860495Y-74562773D01*
X108998812Y-74562773D01*
X108998812Y-75417822D01*
X108929654Y-75417822D01*
X108889512Y-75416645D01*
X108868606Y-75411772D01*
X108861078Y-75401186D01*
X108860495Y-75394029D01*
X108859226Y-75379676D01*
X108851221Y-75376923D01*
X108830185Y-75385771D01*
X108813827Y-75394029D01*
X108751023Y-75413597D01*
X108682752Y-75414729D01*
X108627248Y-75400135D01*
X108575562Y-75364877D01*
X108536162Y-75312835D01*
X108514587Y-75251450D01*
X108514038Y-75248018D01*
X108510833Y-75210571D01*
X108509239Y-75156813D01*
X108509367Y-75116155D01*
G37*
X110835255Y-74801486D02*
X110883595Y-74811015D01*
X110911114Y-74825125D01*
X110940064Y-74848568D01*
X110898876Y-74900571D01*
X110873482Y-74932064D01*
X110856238Y-74947428D01*
X110839102Y-74949776D01*
X110814027Y-74942217D01*
X110802257Y-74937941D01*
X110754270Y-74931631D01*
X110710324Y-74945156D01*
X110678060Y-74975710D01*
X110672819Y-74985452D01*
X110667112Y-75011258D01*
X110662706Y-75058817D01*
X110659811Y-75124758D01*
X110658631Y-75205710D01*
X110658614Y-75217226D01*
X110658614Y-75417822D01*
X110520297Y-75417822D01*
X110520297Y-74801683D01*
X110589456Y-74801683D01*
X110629333Y-74802725D01*
X110650107Y-74807358D01*
X110657789Y-74817849D01*
X110658614Y-74827745D01*
X110658614Y-74853806D01*
X110691745Y-74827745D01*
X110729735Y-74809965D01*
X110780770Y-74801174D01*
X110835255Y-74801486D01*
G36*
X110835255Y-74801486D02*
G01*
X110883595Y-74811015D01*
X110911114Y-74825125D01*
X110940064Y-74848568D01*
X110898876Y-74900571D01*
X110873482Y-74932064D01*
X110856238Y-74947428D01*
X110839102Y-74949776D01*
X110814027Y-74942217D01*
X110802257Y-74937941D01*
X110754270Y-74931631D01*
X110710324Y-74945156D01*
X110678060Y-74975710D01*
X110672819Y-74985452D01*
X110667112Y-75011258D01*
X110662706Y-75058817D01*
X110659811Y-75124758D01*
X110658631Y-75205710D01*
X110658614Y-75217226D01*
X110658614Y-75417822D01*
X110520297Y-75417822D01*
X110520297Y-74801683D01*
X110589456Y-74801683D01*
X110629333Y-74802725D01*
X110650107Y-74807358D01*
X110657789Y-74817849D01*
X110658614Y-74827745D01*
X110658614Y-74853806D01*
X110691745Y-74827745D01*
X110729735Y-74809965D01*
X110780770Y-74801174D01*
X110835255Y-74801486D01*
G37*
X107494045Y-75221566D02*
X107615644Y-75221566D01*
X107626274Y-75254161D01*
X107643590Y-75272505D01*
X107678348Y-75286379D01*
X107724227Y-75291917D01*
X107771012Y-75289191D01*
X107808486Y-75278274D01*
X107818985Y-75271269D01*
X107837332Y-75238904D01*
X107841980Y-75202111D01*
X107841980Y-75153763D01*
X107772418Y-75153763D01*
X107706333Y-75158850D01*
X107656236Y-75173263D01*
X107625071Y-75195729D01*
X107615644Y-75221566D01*
X107494045Y-75221566D01*
X107496013Y-75179647D01*
X107519290Y-75123845D01*
X107563052Y-75081647D01*
X107569101Y-75077808D01*
X107595093Y-75065309D01*
X107627265Y-75057740D01*
X107672240Y-75054061D01*
X107725669Y-75053216D01*
X107841980Y-75053169D01*
X107841980Y-75004411D01*
X107837047Y-74966581D01*
X107824457Y-74941236D01*
X107822983Y-74939887D01*
X107794966Y-74928800D01*
X107752674Y-74924503D01*
X107705936Y-74926615D01*
X107664582Y-74934756D01*
X107640043Y-74946965D01*
X107626747Y-74956746D01*
X107612706Y-74958613D01*
X107593329Y-74950600D01*
X107564024Y-74930739D01*
X107520197Y-74897063D01*
X107516175Y-74893909D01*
X107518236Y-74882236D01*
X107535432Y-74862822D01*
X107561567Y-74841248D01*
X107590448Y-74823096D01*
X107599522Y-74818809D01*
X107632620Y-74810256D01*
X107681120Y-74804155D01*
X107735305Y-74801708D01*
X107737839Y-74801703D01*
X107815790Y-74806555D01*
X107874945Y-74822339D01*
X107919977Y-74850948D01*
X107951754Y-74888419D01*
X107961634Y-74904411D01*
X107968927Y-74921163D01*
X107974026Y-74942592D01*
X107977321Y-74972616D01*
X107979203Y-75015154D01*
X107980063Y-75074122D01*
X107980293Y-75153440D01*
X107980297Y-75174484D01*
X107980297Y-75417822D01*
X107919941Y-75417822D01*
X107881443Y-75415126D01*
X107852977Y-75408295D01*
X107845845Y-75404083D01*
X107826348Y-75396813D01*
X107806434Y-75404083D01*
X107773647Y-75413160D01*
X107726022Y-75416813D01*
X107673236Y-75415228D01*
X107624964Y-75408589D01*
X107596782Y-75400072D01*
X107542247Y-75365063D01*
X107508165Y-75316479D01*
X107492843Y-75251882D01*
X107492701Y-75250223D01*
X107494045Y-75221566D01*
G36*
X107494045Y-75221566D02*
G01*
X107615644Y-75221566D01*
X107626274Y-75254161D01*
X107643590Y-75272505D01*
X107678348Y-75286379D01*
X107724227Y-75291917D01*
X107771012Y-75289191D01*
X107808486Y-75278274D01*
X107818985Y-75271269D01*
X107837332Y-75238904D01*
X107841980Y-75202111D01*
X107841980Y-75153763D01*
X107772418Y-75153763D01*
X107706333Y-75158850D01*
X107656236Y-75173263D01*
X107625071Y-75195729D01*
X107615644Y-75221566D01*
X107494045Y-75221566D01*
X107496013Y-75179647D01*
X107519290Y-75123845D01*
X107563052Y-75081647D01*
X107569101Y-75077808D01*
X107595093Y-75065309D01*
X107627265Y-75057740D01*
X107672240Y-75054061D01*
X107725669Y-75053216D01*
X107841980Y-75053169D01*
X107841980Y-75004411D01*
X107837047Y-74966581D01*
X107824457Y-74941236D01*
X107822983Y-74939887D01*
X107794966Y-74928800D01*
X107752674Y-74924503D01*
X107705936Y-74926615D01*
X107664582Y-74934756D01*
X107640043Y-74946965D01*
X107626747Y-74956746D01*
X107612706Y-74958613D01*
X107593329Y-74950600D01*
X107564024Y-74930739D01*
X107520197Y-74897063D01*
X107516175Y-74893909D01*
X107518236Y-74882236D01*
X107535432Y-74862822D01*
X107561567Y-74841248D01*
X107590448Y-74823096D01*
X107599522Y-74818809D01*
X107632620Y-74810256D01*
X107681120Y-74804155D01*
X107735305Y-74801708D01*
X107737839Y-74801703D01*
X107815790Y-74806555D01*
X107874945Y-74822339D01*
X107919977Y-74850948D01*
X107951754Y-74888419D01*
X107961634Y-74904411D01*
X107968927Y-74921163D01*
X107974026Y-74942592D01*
X107977321Y-74972616D01*
X107979203Y-75015154D01*
X107980063Y-75074122D01*
X107980293Y-75153440D01*
X107980297Y-75174484D01*
X107980297Y-75417822D01*
X107919941Y-75417822D01*
X107881443Y-75415126D01*
X107852977Y-75408295D01*
X107845845Y-75404083D01*
X107826348Y-75396813D01*
X107806434Y-75404083D01*
X107773647Y-75413160D01*
X107726022Y-75416813D01*
X107673236Y-75415228D01*
X107624964Y-75408589D01*
X107596782Y-75400072D01*
X107542247Y-75365063D01*
X107508165Y-75316479D01*
X107492843Y-75251882D01*
X107492701Y-75250223D01*
X107494045Y-75221566D01*
G37*
X109481524Y-74804237D02*
X109531255Y-74807971D01*
X109661291Y-75197773D01*
X109681678Y-75128614D01*
X109693946Y-75085874D01*
X109710085Y-75028115D01*
X109727512Y-74964625D01*
X109736726Y-74930570D01*
X109771388Y-74801683D01*
X109914391Y-74801683D01*
X109871646Y-74936857D01*
X109850596Y-75003342D01*
X109825167Y-75083539D01*
X109798610Y-75167193D01*
X109774902Y-75241782D01*
X109720902Y-75411535D01*
X109662598Y-75415328D01*
X109604295Y-75419122D01*
X109572679Y-75314734D01*
X109553182Y-75249889D01*
X109531904Y-75178400D01*
X109513308Y-75115263D01*
X109512574Y-75112750D01*
X109498684Y-75069969D01*
X109486429Y-75040779D01*
X109477846Y-75029741D01*
X109476082Y-75031018D01*
X109469891Y-75048130D01*
X109458128Y-75084787D01*
X109442225Y-75136378D01*
X109423614Y-75198294D01*
X109413543Y-75232352D01*
X109359007Y-75417822D01*
X109243264Y-75417822D01*
X109150737Y-75125471D01*
X109124744Y-75043462D01*
X109101066Y-74968987D01*
X109080820Y-74905544D01*
X109065126Y-74856632D01*
X109055102Y-74825749D01*
X109052055Y-74816726D01*
X109054467Y-74807487D01*
X109073408Y-74803441D01*
X109112823Y-74803846D01*
X109118993Y-74804152D01*
X109192086Y-74807971D01*
X109239957Y-74984010D01*
X109257553Y-75048211D01*
X109273277Y-75104649D01*
X109285746Y-75148422D01*
X109293574Y-75174630D01*
X109295020Y-75178903D01*
X109301014Y-75173990D01*
X109313101Y-75148532D01*
X109329893Y-75105997D01*
X109350003Y-75049850D01*
X109367003Y-74999130D01*
X109431794Y-74800504D01*
X109481524Y-74804237D01*
G36*
X109481524Y-74804237D02*
G01*
X109531255Y-74807971D01*
X109661291Y-75197773D01*
X109681678Y-75128614D01*
X109693946Y-75085874D01*
X109710085Y-75028115D01*
X109727512Y-74964625D01*
X109736726Y-74930570D01*
X109771388Y-74801683D01*
X109914391Y-74801683D01*
X109871646Y-74936857D01*
X109850596Y-75003342D01*
X109825167Y-75083539D01*
X109798610Y-75167193D01*
X109774902Y-75241782D01*
X109720902Y-75411535D01*
X109662598Y-75415328D01*
X109604295Y-75419122D01*
X109572679Y-75314734D01*
X109553182Y-75249889D01*
X109531904Y-75178400D01*
X109513308Y-75115263D01*
X109512574Y-75112750D01*
X109498684Y-75069969D01*
X109486429Y-75040779D01*
X109477846Y-75029741D01*
X109476082Y-75031018D01*
X109469891Y-75048130D01*
X109458128Y-75084787D01*
X109442225Y-75136378D01*
X109423614Y-75198294D01*
X109413543Y-75232352D01*
X109359007Y-75417822D01*
X109243264Y-75417822D01*
X109150737Y-75125471D01*
X109124744Y-75043462D01*
X109101066Y-74968987D01*
X109080820Y-74905544D01*
X109065126Y-74856632D01*
X109055102Y-74825749D01*
X109052055Y-74816726D01*
X109054467Y-74807487D01*
X109073408Y-74803441D01*
X109112823Y-74803846D01*
X109118993Y-74804152D01*
X109192086Y-74807971D01*
X109239957Y-74984010D01*
X109257553Y-75048211D01*
X109273277Y-75104649D01*
X109285746Y-75148422D01*
X109293574Y-75174630D01*
X109295020Y-75178903D01*
X109301014Y-75173990D01*
X109313101Y-75148532D01*
X109329893Y-75105997D01*
X109350003Y-75049850D01*
X109367003Y-74999130D01*
X109431794Y-74800504D01*
X109481524Y-74804237D01*
G37*
X106334328Y-74159219D02*
X106460045Y-74159219D01*
X106461274Y-74194770D01*
X106465734Y-74242094D01*
X106473603Y-74272465D01*
X106487793Y-74294072D01*
X106501083Y-74306694D01*
X106548198Y-74333122D01*
X106597495Y-74336653D01*
X106643407Y-74317639D01*
X106666362Y-74296331D01*
X106682904Y-74274859D01*
X106692579Y-74254313D01*
X106696826Y-74227574D01*
X106697080Y-74187523D01*
X106695772Y-74150638D01*
X106692957Y-74097947D01*
X106688495Y-74063772D01*
X106680452Y-74041480D01*
X106666897Y-74024442D01*
X106656155Y-74014703D01*
X106611223Y-73989123D01*
X106562751Y-73987847D01*
X106522106Y-74002999D01*
X106487433Y-74034642D01*
X106466776Y-74086620D01*
X106460045Y-74159219D01*
X106334328Y-74159219D01*
X106333521Y-74116621D01*
X106336052Y-74058056D01*
X106343638Y-74014007D01*
X106357319Y-73979248D01*
X106378135Y-73948551D01*
X106385853Y-73939436D01*
X106434111Y-73894021D01*
X106485872Y-73867493D01*
X106549172Y-73856379D01*
X106580039Y-73855471D01*
X106661739Y-73865148D01*
X106727521Y-73894231D01*
X106777460Y-73942793D01*
X106811626Y-74010908D01*
X106830093Y-74098651D01*
X106831417Y-74112351D01*
X106832454Y-74208939D01*
X106819007Y-74293602D01*
X106791892Y-74362221D01*
X106777373Y-74384294D01*
X106726799Y-74431011D01*
X106662391Y-74461268D01*
X106590334Y-74473824D01*
X106516815Y-74467439D01*
X106460928Y-74447772D01*
X106412868Y-74414629D01*
X106373588Y-74371175D01*
X106372908Y-74370158D01*
X106356956Y-74343338D01*
X106346590Y-74316368D01*
X106340312Y-74282332D01*
X106336627Y-74234310D01*
X106335003Y-74194931D01*
X106334328Y-74159219D01*
G36*
X106334328Y-74159219D02*
G01*
X106460045Y-74159219D01*
X106461274Y-74194770D01*
X106465734Y-74242094D01*
X106473603Y-74272465D01*
X106487793Y-74294072D01*
X106501083Y-74306694D01*
X106548198Y-74333122D01*
X106597495Y-74336653D01*
X106643407Y-74317639D01*
X106666362Y-74296331D01*
X106682904Y-74274859D01*
X106692579Y-74254313D01*
X106696826Y-74227574D01*
X106697080Y-74187523D01*
X106695772Y-74150638D01*
X106692957Y-74097947D01*
X106688495Y-74063772D01*
X106680452Y-74041480D01*
X106666897Y-74024442D01*
X106656155Y-74014703D01*
X106611223Y-73989123D01*
X106562751Y-73987847D01*
X106522106Y-74002999D01*
X106487433Y-74034642D01*
X106466776Y-74086620D01*
X106460045Y-74159219D01*
X106334328Y-74159219D01*
X106333521Y-74116621D01*
X106336052Y-74058056D01*
X106343638Y-74014007D01*
X106357319Y-73979248D01*
X106378135Y-73948551D01*
X106385853Y-73939436D01*
X106434111Y-73894021D01*
X106485872Y-73867493D01*
X106549172Y-73856379D01*
X106580039Y-73855471D01*
X106661739Y-73865148D01*
X106727521Y-73894231D01*
X106777460Y-73942793D01*
X106811626Y-74010908D01*
X106830093Y-74098651D01*
X106831417Y-74112351D01*
X106832454Y-74208939D01*
X106819007Y-74293602D01*
X106791892Y-74362221D01*
X106777373Y-74384294D01*
X106726799Y-74431011D01*
X106662391Y-74461268D01*
X106590334Y-74473824D01*
X106516815Y-74467439D01*
X106460928Y-74447772D01*
X106412868Y-74414629D01*
X106373588Y-74371175D01*
X106372908Y-74370158D01*
X106356956Y-74343338D01*
X106346590Y-74316368D01*
X106340312Y-74282332D01*
X106336627Y-74234310D01*
X106335003Y-74194931D01*
X106334328Y-74159219D01*
G37*
D12*
%TO.C,J3*%
X81410000Y-74040000D02*
G75*
G03*
X82550000Y-75180000I1140000J0D01*
G01*
X103810000Y-75180000D02*
G75*
G03*
X104950000Y-74040000I1J1139999D01*
G01*
X104950000Y-67760000D02*
G75*
G03*
X103810000Y-66620000I-1139999J1D01*
G01*
X82550000Y-66620000D02*
G75*
G03*
X81410000Y-67760000I0J-1140000D01*
G01*
X91610000Y-76570000D02*
X91610000Y-75180000D01*
X103750000Y-69510000D02*
X103750000Y-74120000D01*
X103270000Y-75180000D02*
X103270000Y-76570000D01*
X98380000Y-75180000D02*
X98380000Y-76570000D01*
X103810000Y-66620000D02*
X82550000Y-66620000D01*
X81410000Y-67760000D02*
X81410000Y-76570000D01*
X82610000Y-74120000D02*
X82610000Y-69510000D01*
X104950000Y-74040000D02*
X104950000Y-67760000D01*
X88200000Y-76570000D02*
X86510000Y-76570000D01*
X104950000Y-69040000D02*
X106030000Y-69040000D01*
X81410000Y-69040000D02*
X80330000Y-69040000D01*
X103270000Y-76570000D02*
X101580000Y-76570000D01*
X106030000Y-72760000D02*
X104950000Y-72760000D01*
X80330000Y-72760000D02*
X81410000Y-72760000D01*
X103750000Y-74120000D02*
X82610000Y-74120000D01*
X82550000Y-75180000D02*
X103810000Y-75180000D01*
X101580000Y-76570000D02*
X101580000Y-75180000D01*
X80330000Y-69040000D02*
X80330000Y-72760000D01*
X93300000Y-76570000D02*
X91610000Y-76570000D01*
X106030000Y-69040000D02*
X106030000Y-72760000D01*
X93300000Y-75180000D02*
X93300000Y-76570000D01*
X83100000Y-75180000D02*
X83100000Y-76570000D01*
X98380000Y-76570000D02*
X96690000Y-76570000D01*
X84440000Y-67680000D02*
X101920000Y-67680000D01*
X86510000Y-76570000D02*
X86510000Y-75180000D01*
X83100000Y-76570000D02*
X81410000Y-76570000D01*
X82610000Y-69510000D02*
X84440000Y-67680000D01*
X88200000Y-75180000D02*
X88200000Y-76570000D01*
X96690000Y-76570000D02*
X96690000Y-75180000D01*
X101920000Y-67680000D02*
X103750000Y-69510000D01*
%TO.C,J1*%
X108330000Y-81290000D02*
X108330000Y-78690000D01*
X108330000Y-83890000D02*
X108330000Y-82560000D01*
X110930000Y-83890000D02*
X159250000Y-83890000D01*
X109660000Y-83890000D02*
X108330000Y-83890000D01*
X110930000Y-83890000D02*
X110930000Y-81290000D01*
X159250000Y-83890000D02*
X159250000Y-78690000D01*
X108330000Y-78690000D02*
X159250000Y-78690000D01*
X110930000Y-81290000D02*
X108330000Y-81290000D01*
%TD*%
%LPC*%
D14*
%TO.C,R2*%
X77212500Y-71900000D03*
X75387500Y-71900000D03*
%TD*%
D15*
%TO.C,R1*%
X78700000Y-69112500D03*
X78700000Y-67287500D03*
%TD*%
D16*
%TO.C,D2*%
X74975000Y-70000000D03*
X77025000Y-70000000D03*
%TD*%
%TO.C,D1*%
X74975000Y-67600000D03*
X77025000Y-67600000D03*
%TD*%
D17*
%TO.C,H2*%
X77100000Y-75702500D03*
%TD*%
%TO.C,H1*%
X156900000Y-75702500D03*
%TD*%
D18*
%TO.C,J4*%
X96900000Y-75800000D03*
X96900000Y-78300000D03*
X96900000Y-80800000D03*
D19*
X96900000Y-83300000D03*
%TD*%
D20*
%TO.C,J3*%
X85560000Y-70900000D03*
X90640000Y-70900000D03*
X95720000Y-70900000D03*
D21*
X100800000Y-70900000D03*
%TD*%
D22*
%TO.C,J2*%
X112785000Y-69120000D03*
D23*
X112785000Y-71120000D03*
X114785000Y-69120000D03*
X114785000Y-71120000D03*
X116785000Y-69120000D03*
X116785000Y-71120000D03*
X118785000Y-69120000D03*
X118785000Y-71120000D03*
X120785000Y-69120000D03*
X120785000Y-71120000D03*
X122785000Y-69120000D03*
X122785000Y-71120000D03*
X124785000Y-69120000D03*
X124785000Y-71120000D03*
X126785000Y-69120000D03*
X126785000Y-71120000D03*
X128785000Y-69120000D03*
X128785000Y-71120000D03*
X130785000Y-69120000D03*
X130785000Y-71120000D03*
X132785000Y-69120000D03*
X132785000Y-71120000D03*
X134785000Y-69120000D03*
X134785000Y-71120000D03*
X136785000Y-69120000D03*
X136785000Y-71120000D03*
X138785000Y-69120000D03*
X138785000Y-71120000D03*
X140785000Y-69120000D03*
X140785000Y-71120000D03*
X142785000Y-69120000D03*
X142785000Y-71120000D03*
X144785000Y-69120000D03*
X144785000Y-71120000D03*
X146785000Y-69120000D03*
X146785000Y-71120000D03*
X148785000Y-69120000D03*
X148785000Y-71120000D03*
X150785000Y-69120000D03*
X150785000Y-71120000D03*
X152785000Y-69120000D03*
X152785000Y-71120000D03*
X154785000Y-69120000D03*
X154785000Y-71120000D03*
%TD*%
D24*
%TO.C,J1*%
X109660000Y-82560000D03*
D25*
X109660000Y-80020000D03*
X112200000Y-82560000D03*
X112200000Y-80020000D03*
X114740000Y-82560000D03*
X114740000Y-80020000D03*
X117280000Y-82560000D03*
X117280000Y-80020000D03*
X119820000Y-82560000D03*
X119820000Y-80020000D03*
X122360000Y-82560000D03*
X122360000Y-80020000D03*
X124900000Y-82560000D03*
X124900000Y-80020000D03*
X127440000Y-82560000D03*
X127440000Y-80020000D03*
X129980000Y-82560000D03*
X129980000Y-80020000D03*
X132520000Y-82560000D03*
X132520000Y-80020000D03*
X135060000Y-82560000D03*
X135060000Y-80020000D03*
X137600000Y-82560000D03*
X137600000Y-80020000D03*
X140140000Y-82560000D03*
X140140000Y-80020000D03*
X142680000Y-82560000D03*
X142680000Y-80020000D03*
X145220000Y-82560000D03*
X145220000Y-80020000D03*
X147760000Y-82560000D03*
X147760000Y-80020000D03*
X150300000Y-82560000D03*
X150300000Y-80020000D03*
X152840000Y-82560000D03*
X152840000Y-80020000D03*
X155380000Y-82560000D03*
X155380000Y-80020000D03*
X157920000Y-82560000D03*
X157920000Y-80020000D03*
%TD*%
M02*
