M48
; DRILL file {KiCad 8.0.2} date 2024-05-05T20:52:19-0500
; FORMAT={-:-/ absolute / inch / decimal}
; #@! TF.CreationDate,2024-05-05T20:52:19-05:00
; #@! TF.GenerationSoftware,Kicad,Pcbnew,8.0.2
; #@! TF.FileFunction,Plated,1,2,PTH
FMAT,2
INCH
; #@! TA.AperFunction,Plated,PTH,ViaDrill
T1C0.0118
; #@! TA.AperFunction,Plated,PTH,ComponentDrill
T2C0.0374
; #@! TA.AperFunction,Plated,PTH,ComponentDrill
T3C0.0394
; #@! TA.AperFunction,Plated,PTH,ComponentDrill
T4C0.0523
; #@! TA.AperFunction,Plated,PTH,ComponentDrill
T5C0.0906
%
G90
G05
T1
X4.2598Y-1.9587
X4.2874Y-1.8189
X4.2884Y-1.935
X4.2992Y-2.2701
X4.3858Y-1.9587
X4.4087Y-2.1421
X4.4394Y-1.8413
X4.4439Y-2.0226
X4.4941Y-2.1433
X4.535Y-2.3842
X4.5744Y-2.1358
X4.5744Y-2.2563
X4.6016Y-1.8232
X4.628Y-1.999
X4.7992Y-2.4323
X4.8189Y-2.298
X4.9244Y-1.8764
X4.9315Y-2.4358
X4.9374Y-2.0201
X4.9484Y-2.1969
X5.0035Y-1.9016
X5.011Y-2.2118
X5.0287Y-2.0768
X5.0547Y-2.2091
X5.0752Y-2.3378
X5.1Y-1.9709
X5.1166Y-2.039
X5.1327Y-2.1886
X5.1535Y-1.8205
X5.2248Y-2.3276
X5.5406Y-1.9547
T2
X3.8734Y-1.9565
X3.8734Y-2.0549
X3.8734Y-2.1337
X3.8734Y-2.2321
T3
X4.1831Y-1.8941
X4.1831Y-1.9941
X4.1831Y-2.0941
X4.1831Y-2.1941
X4.1831Y-2.2941
X4.7283Y-1.8941
X4.7283Y-1.9941
X4.7283Y-2.0941
X4.7283Y-2.1941
X4.7283Y-2.2941
T4
X4.8844Y-2.2537
X4.8844Y-2.3896
X5.1659Y-2.2537
X5.1659Y-2.3896
T5
X3.7667Y-1.8356
X3.7667Y-2.353
X5.5378Y-2.0943
T3
G00X5.5417Y-1.8423
M15
G01X5.589Y-1.8423
M16
G05
G00X5.5417Y-2.3463
M15
G01X5.589Y-2.3463
M16
G05
M30
