%TF.GenerationSoftware,KiCad,Pcbnew,8.0.2*%
%TF.CreationDate,2024-05-05T20:52:19-05:00*%
%TF.ProjectId,ch554_USB_Host_Test,63683535-345f-4555-9342-5f486f73745f,rev?*%
%TF.SameCoordinates,Original*%
%TF.FileFunction,Copper,L1,Top*%
%TF.FilePolarity,Positive*%
%FSLAX46Y46*%
G04 Gerber Fmt 4.6, Leading zero omitted, Abs format (unit mm)*
G04 Created by KiCad (PCBNEW 8.0.2) date 2024-05-05 20:52:19*
%MOMM*%
%LPD*%
G01*
G04 APERTURE LIST*
G04 Aperture macros list*
%AMRoundRect*
0 Rectangle with rounded corners*
0 $1 Rounding radius*
0 $2 $3 $4 $5 $6 $7 $8 $9 X,Y pos of 4 corners*
0 Add a 4 corners polygon primitive as box body*
4,1,4,$2,$3,$4,$5,$6,$7,$8,$9,$2,$3,0*
0 Add four circle primitives for the rounded corners*
1,1,$1+$1,$2,$3*
1,1,$1+$1,$4,$5*
1,1,$1+$1,$6,$7*
1,1,$1+$1,$8,$9*
0 Add four rect primitives between the rounded corners*
20,1,$1+$1,$2,$3,$4,$5,0*
20,1,$1+$1,$4,$5,$6,$7,0*
20,1,$1+$1,$6,$7,$8,$9,0*
20,1,$1+$1,$8,$9,$2,$3,0*%
%AMFreePoly0*
4,1,19,0.500000,-0.750000,0.000000,-0.750000,0.000000,-0.744911,-0.071157,-0.744911,-0.207708,-0.704816,-0.327430,-0.627875,-0.420627,-0.520320,-0.479746,-0.390866,-0.500000,-0.250000,-0.500000,0.250000,-0.479746,0.390866,-0.420627,0.520320,-0.327430,0.627875,-0.207708,0.704816,-0.071157,0.744911,0.000000,0.744911,0.000000,0.750000,0.500000,0.750000,0.500000,-0.750000,0.500000,-0.750000,
$1*%
%AMFreePoly1*
4,1,19,0.000000,0.744911,0.071157,0.744911,0.207708,0.704816,0.327430,0.627875,0.420627,0.520320,0.479746,0.390866,0.500000,0.250000,0.500000,-0.250000,0.479746,-0.390866,0.420627,-0.520320,0.327430,-0.627875,0.207708,-0.704816,0.071157,-0.744911,0.000000,-0.744911,0.000000,-0.750000,-0.500000,-0.750000,-0.500000,0.750000,0.000000,0.750000,0.000000,0.744911,0.000000,0.744911,
$1*%
G04 Aperture macros list end*
%TA.AperFunction,SMDPad,CuDef*%
%ADD10R,0.400000X1.400000*%
%TD*%
%TA.AperFunction,ComponentPad*%
%ADD11C,2.000000*%
%TD*%
%TA.AperFunction,SMDPad,CuDef*%
%ADD12RoundRect,0.250000X0.450000X-0.350000X0.450000X0.350000X-0.450000X0.350000X-0.450000X-0.350000X0*%
%TD*%
%TA.AperFunction,SMDPad,CuDef*%
%ADD13RoundRect,0.250000X-0.350000X-0.450000X0.350000X-0.450000X0.350000X0.450000X-0.350000X0.450000X0*%
%TD*%
%TA.AperFunction,SMDPad,CuDef*%
%ADD14FreePoly0,0.000000*%
%TD*%
%TA.AperFunction,SMDPad,CuDef*%
%ADD15FreePoly1,0.000000*%
%TD*%
%TA.AperFunction,SMDPad,CuDef*%
%ADD16RoundRect,0.237500X0.287500X0.237500X-0.287500X0.237500X-0.287500X-0.237500X0.287500X-0.237500X0*%
%TD*%
%TA.AperFunction,ComponentPad*%
%ADD17R,1.700000X1.700000*%
%TD*%
%TA.AperFunction,ComponentPad*%
%ADD18O,1.700000X1.700000*%
%TD*%
%TA.AperFunction,ComponentPad*%
%ADD19R,1.500000X1.600000*%
%TD*%
%TA.AperFunction,ComponentPad*%
%ADD20C,1.600000*%
%TD*%
%TA.AperFunction,ComponentPad*%
%ADD21C,3.000000*%
%TD*%
%TA.AperFunction,SMDPad,CuDef*%
%ADD22RoundRect,0.250000X-0.337500X-0.475000X0.337500X-0.475000X0.337500X0.475000X-0.337500X0.475000X0*%
%TD*%
%TA.AperFunction,SMDPad,CuDef*%
%ADD23R,3.500000X0.900000*%
%TD*%
%TA.AperFunction,ComponentPad*%
%ADD24C,3.316000*%
%TD*%
%TA.AperFunction,ComponentPad*%
%ADD25O,3.600000X1.800000*%
%TD*%
%TA.AperFunction,SMDPad,CuDef*%
%ADD26FreePoly0,180.000000*%
%TD*%
%TA.AperFunction,SMDPad,CuDef*%
%ADD27FreePoly1,180.000000*%
%TD*%
%TA.AperFunction,SMDPad,CuDef*%
%ADD28RoundRect,0.250000X0.337500X0.475000X-0.337500X0.475000X-0.337500X-0.475000X0.337500X-0.475000X0*%
%TD*%
%TA.AperFunction,SMDPad,CuDef*%
%ADD29C,1.000000*%
%TD*%
%TA.AperFunction,SMDPad,CuDef*%
%ADD30RoundRect,0.150000X0.675000X0.150000X-0.675000X0.150000X-0.675000X-0.150000X0.675000X-0.150000X0*%
%TD*%
%TA.AperFunction,SMDPad,CuDef*%
%ADD31RoundRect,0.087500X0.725000X0.087500X-0.725000X0.087500X-0.725000X-0.087500X0.725000X-0.087500X0*%
%TD*%
%TA.AperFunction,SMDPad,CuDef*%
%ADD32RoundRect,0.250000X-0.475000X0.337500X-0.475000X-0.337500X0.475000X-0.337500X0.475000X0.337500X0*%
%TD*%
%TA.AperFunction,SMDPad,CuDef*%
%ADD33RoundRect,0.237500X-0.237500X0.300000X-0.237500X-0.300000X0.237500X-0.300000X0.237500X0.300000X0*%
%TD*%
%TA.AperFunction,SMDPad,CuDef*%
%ADD34R,1.000000X0.750000*%
%TD*%
%TA.AperFunction,ViaPad*%
%ADD35C,0.600000*%
%TD*%
%TA.AperFunction,Conductor*%
%ADD36C,0.200000*%
%TD*%
G04 APERTURE END LIST*
D10*
%TO.P,J4,1,1*%
%TO.N,+5V*%
X126340000Y-57745000D03*
%TO.P,J4,2,2*%
%TO.N,/USB2D-*%
X126990000Y-57745000D03*
%TO.P,J4,3,3*%
%TO.N,/USBD2+*%
X127640000Y-57745000D03*
%TO.P,J4,4,4*%
%TO.N,Net-(J4-Pad4)*%
X128290000Y-57745000D03*
%TO.P,J4,5,5*%
%TO.N,GND*%
X128940000Y-57745000D03*
D11*
%TO.P,J4,MH1,MH1*%
X124065000Y-60695000D03*
%TO.P,J4,MH2,MH2*%
X131215000Y-60695000D03*
%TO.P,J4,MH3,MH3*%
X131215000Y-57245000D03*
%TO.P,J4,MH4,MH4*%
X124065000Y-57245000D03*
%TD*%
D12*
%TO.P,R4,1*%
%TO.N,Net-(R4-Pad1)*%
X110125000Y-53025000D03*
%TO.P,R4,2*%
%TO.N,/UDP*%
X110125000Y-51025000D03*
%TD*%
D13*
%TO.P,R2,1*%
%TO.N,Net-(D2-K)*%
X110224286Y-45230000D03*
%TO.P,R2,2*%
%TO.N,GND*%
X112224286Y-45230000D03*
%TD*%
%TO.P,R5,1*%
%TO.N,Net-(D4-K)*%
X109952857Y-61175000D03*
%TO.P,R5,2*%
%TO.N,/LED1*%
X111952857Y-61175000D03*
%TD*%
D14*
%TO.P,JP3,1,A*%
%TO.N,/LED2*%
X130890000Y-53510000D03*
D15*
%TO.P,JP3,2,B*%
%TO.N,/ADB_PWR_ON*%
X132190000Y-53510000D03*
%TD*%
D13*
%TO.P,R3,1*%
%TO.N,Net-(D3-K)*%
X118325000Y-45230000D03*
%TO.P,R3,2*%
%TO.N,GND*%
X120325000Y-45230000D03*
%TD*%
D16*
%TO.P,D5,1,K*%
%TO.N,Net-(D5-K)*%
X115900714Y-61400000D03*
%TO.P,D5,2,A*%
%TO.N,+5V*%
X114150714Y-61400000D03*
%TD*%
D17*
%TO.P,J3,1,Pin_1*%
%TO.N,+3.3V*%
X106250000Y-58270000D03*
D18*
%TO.P,J3,2,Pin_2*%
%TO.N,+5V*%
X106250000Y-55730000D03*
%TO.P,J3,3,Pin_3*%
%TO.N,GND*%
X106250000Y-53190000D03*
%TO.P,J3,4,Pin_4*%
%TO.N,/UDM*%
X106250000Y-50650000D03*
%TO.P,J3,5,Pin_5*%
%TO.N,/UDP*%
X106250000Y-48110000D03*
%TD*%
D19*
%TO.P,J5,1,VBUS*%
%TO.N,+5V*%
X98385000Y-49695000D03*
D20*
%TO.P,J5,2,D-*%
%TO.N,/UDM*%
X98385000Y-52195000D03*
%TO.P,J5,3,D+*%
%TO.N,/UDP*%
X98385000Y-54195000D03*
%TO.P,J5,4,GND*%
%TO.N,GND*%
X98385000Y-56695000D03*
D21*
%TO.P,J5,5,Shield*%
X95675000Y-46625000D03*
X95675000Y-59765000D03*
%TD*%
D17*
%TO.P,J2,1,Pin_1*%
%TO.N,/LED1*%
X120100000Y-58270000D03*
D18*
%TO.P,J2,2,Pin_2*%
%TO.N,/LED2*%
X120100000Y-55730000D03*
%TO.P,J2,3,Pin_3*%
%TO.N,/RXD*%
X120100000Y-53190000D03*
%TO.P,J2,4,Pin_4*%
%TO.N,/TXD*%
X120100000Y-50650000D03*
%TO.P,J2,5,Pin_5*%
%TO.N,/RST*%
X120100000Y-48110000D03*
%TD*%
D22*
%TO.P,C4,1*%
%TO.N,Net-(U3-V3)*%
X122772500Y-53760000D03*
%TO.P,C4,2*%
%TO.N,GND*%
X124847500Y-53760000D03*
%TD*%
D16*
%TO.P,D4,1,K*%
%TO.N,Net-(D4-K)*%
X107800000Y-61400000D03*
%TO.P,D4,2,A*%
%TO.N,+5V*%
X106050000Y-61400000D03*
%TD*%
D23*
%TO.P,J6,1*%
%TO.N,/ADB_Data*%
X135560000Y-50495000D03*
%TO.P,J6,2*%
%TO.N,/ADB_PWR_ON*%
X135560000Y-55895000D03*
%TO.P,J6,3*%
%TO.N,Net-(JP4-A)*%
X135560000Y-48695000D03*
%TO.P,J6,4*%
%TO.N,GND*%
X135560000Y-57695000D03*
D24*
%TO.P,J6,S1*%
X140660000Y-53195000D03*
D25*
%TO.P,J6,S2*%
X141360000Y-46795000D03*
%TO.P,J6,S3*%
X141360000Y-59595000D03*
%TD*%
D26*
%TO.P,JP4,1,A*%
%TO.N,Net-(JP4-A)*%
X132200000Y-48340000D03*
D27*
%TO.P,JP4,2,B*%
%TO.N,+5V*%
X130900000Y-48340000D03*
%TD*%
D28*
%TO.P,C2,1*%
%TO.N,GND*%
X124887500Y-45585000D03*
%TO.P,C2,2*%
%TO.N,+5V*%
X122812500Y-45585000D03*
%TD*%
D16*
%TO.P,D2,1,K*%
%TO.N,Net-(D2-K)*%
X108026429Y-45050000D03*
%TO.P,D2,2,A*%
%TO.N,+3.3V*%
X106276429Y-45050000D03*
%TD*%
D26*
%TO.P,JP5,1,A*%
%TO.N,/ADB_Data*%
X132160000Y-50990000D03*
D27*
%TO.P,JP5,2,B*%
%TO.N,/LED1*%
X130860000Y-50990000D03*
%TD*%
D29*
%TO.P,TP2,1,1*%
%TO.N,Net-(U3-~{RTS})*%
X128070000Y-45560000D03*
%TD*%
D16*
%TO.P,D3,1,K*%
%TO.N,Net-(D3-K)*%
X116172143Y-45050000D03*
%TO.P,D3,2,A*%
%TO.N,+5V*%
X114422143Y-45050000D03*
%TD*%
D30*
%TO.P,U3,1,UD+*%
%TO.N,/USBD2+*%
X128295000Y-51415000D03*
%TO.P,U3,2,UD-*%
%TO.N,/USB2D-*%
X128295000Y-50145000D03*
%TO.P,U3,3,GND*%
%TO.N,GND*%
X128295000Y-48875000D03*
%TO.P,U3,4,~{RTS}*%
%TO.N,Net-(U3-~{RTS})*%
X128295000Y-47605000D03*
%TO.P,U3,5,VCC*%
%TO.N,+5V*%
X123045000Y-47605000D03*
%TO.P,U3,6,TXD*%
%TO.N,/TXD*%
X123045000Y-48875000D03*
%TO.P,U3,7,RXD*%
%TO.N,/RXD*%
X123045000Y-50145000D03*
%TO.P,U3,8,V3*%
%TO.N,Net-(U3-V3)*%
X123045000Y-51415000D03*
%TD*%
D31*
%TO.P,U2,1,P1.4*%
%TO.N,/LED1*%
X115287500Y-49070000D03*
%TO.P,U2,2,P1.5*%
%TO.N,/LED2*%
X115287500Y-48570000D03*
%TO.P,U2,3,P1.6*%
%TO.N,/RXD*%
X115287500Y-48070000D03*
%TO.P,U2,4,P1.7*%
%TO.N,/TXD*%
X115287500Y-47570000D03*
%TO.P,U2,5,RST*%
%TO.N,/RST*%
X115287500Y-47070000D03*
%TO.P,U2,6,P3.6*%
%TO.N,/UDP*%
X111062500Y-47070000D03*
%TO.P,U2,7,P3.7*%
%TO.N,/UDM*%
X111062500Y-47570000D03*
%TO.P,U2,8,GND*%
%TO.N,GND*%
X111062500Y-48070000D03*
%TO.P,U2,9,VCC*%
%TO.N,+5V*%
X111062500Y-48570000D03*
%TO.P,U2,10,V33*%
%TO.N,+3.3V*%
X111062500Y-49070000D03*
%TD*%
D32*
%TO.P,C5,1*%
%TO.N,+5V*%
X114016666Y-50987500D03*
%TO.P,C5,2*%
%TO.N,GND*%
X114016666Y-53062500D03*
%TD*%
D13*
%TO.P,R6,1*%
%TO.N,Net-(D5-K)*%
X118053572Y-61175000D03*
%TO.P,R6,2*%
%TO.N,/LED2*%
X120053572Y-61175000D03*
%TD*%
D32*
%TO.P,C3,1*%
%TO.N,+3.3V*%
X116225000Y-50987500D03*
%TO.P,C3,2*%
%TO.N,GND*%
X116225000Y-53062500D03*
%TD*%
D33*
%TO.P,C6,1*%
%TO.N,+5V*%
X112058333Y-51162500D03*
%TO.P,C6,2*%
%TO.N,GND*%
X112058333Y-52887500D03*
%TD*%
D34*
%TO.P,SW2,1,1*%
%TO.N,+3.3V*%
X116325000Y-59175000D03*
X110325000Y-59175000D03*
%TO.P,SW2,2,2*%
%TO.N,Net-(R4-Pad1)*%
X116325000Y-55425000D03*
X110325000Y-55425000D03*
%TD*%
D35*
%TO.N,GND*%
X130370000Y-55590000D03*
X140730000Y-49650000D03*
X116880000Y-46310000D03*
X132710000Y-59120000D03*
X108925000Y-49150000D03*
X109200000Y-57660000D03*
X114150000Y-54440000D03*
X116190000Y-57310000D03*
X125410000Y-51310000D03*
X122400000Y-58370000D03*
X111980000Y-54410000D03*
X121900000Y-61780000D03*
X125260000Y-61870000D03*
X112760000Y-46770000D03*
X127090000Y-48300000D03*
X116190000Y-54250000D03*
%TO.N,+5V*%
X115190159Y-60558191D03*
X130900000Y-46240000D03*
X125080000Y-47660000D03*
X112875000Y-51375000D03*
X125690000Y-55800000D03*
%TO.N,+3.3V*%
X117550000Y-50775000D03*
X111400000Y-49750000D03*
X108900000Y-46200000D03*
%TO.N,/LED1*%
X127730000Y-52750000D03*
%TO.N,/UDP*%
X108200000Y-49750000D03*
%TO.N,/USBD2+*%
X129960735Y-51790735D03*
X128390000Y-56110000D03*
%TO.N,Net-(J4-Pad4)*%
X128910000Y-59380000D03*
%TO.N,/USB2D-*%
X129540000Y-50060000D03*
X127280000Y-56180000D03*
%TD*%
D36*
%TO.N,GND*%
X120995000Y-44560000D02*
X123862500Y-44560000D01*
X119245000Y-46310000D02*
X120325000Y-45230000D01*
X116880000Y-46310000D02*
X119245000Y-46310000D01*
X128940000Y-57020000D02*
X130370000Y-55590000D01*
X128940000Y-57745000D02*
X128940000Y-57020000D01*
X111062500Y-48070000D02*
X110005000Y-48070000D01*
X130041123Y-48875000D02*
X130816123Y-49650000D01*
X130816123Y-49650000D02*
X140730000Y-49650000D01*
X112224286Y-45230000D02*
X112224286Y-46234286D01*
X110005000Y-48070000D02*
X108925000Y-49150000D01*
X117125000Y-56375000D02*
X117125000Y-54750000D01*
X120325000Y-45230000D02*
X120995000Y-44560000D01*
X112224286Y-46234286D02*
X112760000Y-46770000D01*
X128295000Y-48875000D02*
X130041123Y-48875000D01*
X116190000Y-57310000D02*
X117125000Y-56375000D01*
X123862500Y-44560000D02*
X124887500Y-45585000D01*
X116625000Y-54250000D02*
X116190000Y-54250000D01*
X117125000Y-54750000D02*
X116625000Y-54250000D01*
%TO.N,+5V*%
X114422143Y-45137857D02*
X113620000Y-45940000D01*
X115190159Y-60558191D02*
X114992523Y-60558191D01*
X112662500Y-51162500D02*
X112875000Y-51375000D01*
X114992523Y-60558191D02*
X114150714Y-61400000D01*
X113620000Y-45940000D02*
X113620000Y-48880000D01*
X113620000Y-48880000D02*
X112927716Y-49572284D01*
X105100000Y-56880000D02*
X105100000Y-60450000D01*
X122812500Y-47372500D02*
X123045000Y-47605000D01*
X112927716Y-49572284D02*
X114016666Y-50661234D01*
X112875000Y-51375000D02*
X113629166Y-51375000D01*
X105100000Y-60450000D02*
X106050000Y-61400000D01*
X125080000Y-47660000D02*
X125025000Y-47605000D01*
X125690000Y-55800000D02*
X126340000Y-56450000D01*
X111925432Y-48570000D02*
X112927716Y-49572284D01*
X125025000Y-47605000D02*
X123045000Y-47605000D01*
X130900000Y-48340000D02*
X130900000Y-46240000D01*
X106250000Y-55730000D02*
X105100000Y-56880000D01*
X111062500Y-48570000D02*
X111925432Y-48570000D01*
X126340000Y-56450000D02*
X126340000Y-57745000D01*
X122812500Y-45585000D02*
X122812500Y-47372500D01*
X112058333Y-50441667D02*
X112927716Y-49572284D01*
X112058333Y-51162500D02*
X112662500Y-51162500D01*
X112058333Y-51162500D02*
X112058333Y-50441667D01*
%TO.N,+3.3V*%
X117550000Y-50775000D02*
X116437500Y-50775000D01*
X111062500Y-49070000D02*
X111062500Y-49412500D01*
X111062500Y-49412500D02*
X111400000Y-49750000D01*
X106276429Y-45050000D02*
X107426429Y-46200000D01*
X117550000Y-50775000D02*
X117550000Y-57950000D01*
X117550000Y-57950000D02*
X116325000Y-59175000D01*
X110325000Y-59300000D02*
X116325000Y-59300000D01*
X110325000Y-59300000D02*
X107280000Y-59300000D01*
X107426429Y-46200000D02*
X108900000Y-46200000D01*
X107280000Y-59300000D02*
X106250000Y-58270000D01*
%TO.N,Net-(U3-V3)*%
X123045000Y-51415000D02*
X123045000Y-53487500D01*
%TO.N,Net-(D2-K)*%
X108026429Y-45050000D02*
X110044286Y-45050000D01*
%TO.N,Net-(D3-K)*%
X116172143Y-45050000D02*
X118145000Y-45050000D01*
%TO.N,Net-(D4-K)*%
X107800000Y-61450000D02*
X109527857Y-61450000D01*
%TO.N,Net-(D5-K)*%
X115900714Y-61400000D02*
X117828572Y-61400000D01*
%TO.N,/RXD*%
X118950000Y-50184314D02*
X116835686Y-48070000D01*
X118950000Y-52040000D02*
X118950000Y-50184314D01*
X120100000Y-53190000D02*
X118950000Y-52040000D01*
X120100000Y-52894448D02*
X122849448Y-50145000D01*
X116835686Y-48070000D02*
X115287500Y-48070000D01*
%TO.N,/TXD*%
X121875000Y-48875000D02*
X123045000Y-48875000D01*
X120100000Y-50650000D02*
X121875000Y-48875000D01*
X115287500Y-47570000D02*
X117020000Y-47570000D01*
X117020000Y-47570000D02*
X120100000Y-50650000D01*
%TO.N,/LED1*%
X116693529Y-49070000D02*
X118150000Y-50526471D01*
X117975000Y-56145000D02*
X120100000Y-58270000D01*
X113169666Y-59958191D02*
X118411809Y-59958191D01*
X129850000Y-52750000D02*
X130860000Y-51740000D01*
X115287500Y-49070000D02*
X116693529Y-49070000D01*
X118150000Y-51023529D02*
X117975000Y-51198529D01*
X117975000Y-51198529D02*
X117975000Y-56145000D01*
X127730000Y-52750000D02*
X129850000Y-52750000D01*
X130860000Y-51740000D02*
X130860000Y-50990000D01*
X118150000Y-50526471D02*
X118150000Y-51023529D01*
X111952857Y-61175000D02*
X113169666Y-59958191D01*
X118411809Y-59958191D02*
X120100000Y-58270000D01*
%TO.N,/LED2*%
X120100000Y-55730000D02*
X120740000Y-55090000D01*
X120053572Y-61175000D02*
X121250000Y-59978572D01*
X121250000Y-59978572D02*
X121250000Y-56880000D01*
X118550000Y-54180000D02*
X118550000Y-50350000D01*
X120740000Y-55090000D02*
X129310000Y-55090000D01*
X129310000Y-55090000D02*
X130890000Y-53510000D01*
X118550000Y-50350000D02*
X116770000Y-48570000D01*
X120100000Y-55730000D02*
X118550000Y-54180000D01*
X116770000Y-48570000D02*
X115287500Y-48570000D01*
X121250000Y-56880000D02*
X120100000Y-55730000D01*
%TO.N,/RST*%
X119060000Y-47070000D02*
X115287500Y-47070000D01*
X120100000Y-48110000D02*
X119060000Y-47070000D01*
%TO.N,/UDM*%
X103700000Y-50650000D02*
X106250000Y-50650000D01*
X98385000Y-52549500D02*
X101800500Y-52549500D01*
X101800500Y-52549500D02*
X103700000Y-50650000D01*
X109330000Y-47570000D02*
X106250000Y-50650000D01*
X111062500Y-47570000D02*
X109330000Y-47570000D01*
%TO.N,/UDP*%
X106250000Y-48110000D02*
X107290000Y-47070000D01*
X98385000Y-54549500D02*
X97285000Y-53449500D01*
X108850000Y-49750000D02*
X108200000Y-49750000D01*
X103965000Y-48110000D02*
X106250000Y-48110000D01*
X100925500Y-51149500D02*
X103965000Y-48110000D01*
X107290000Y-47070000D02*
X111062500Y-47070000D01*
X110125000Y-51025000D02*
X108850000Y-49750000D01*
X97285000Y-51740000D02*
X97875500Y-51149500D01*
X97875500Y-51149500D02*
X100925500Y-51149500D01*
X97285000Y-53449500D02*
X97285000Y-51740000D01*
%TO.N,/USBD2+*%
X127640000Y-57745000D02*
X127640000Y-56860000D01*
X127640000Y-56860000D02*
X128390000Y-56110000D01*
X129960735Y-51790735D02*
X128670735Y-51790735D01*
X128670735Y-51790735D02*
X128295000Y-51415000D01*
%TO.N,Net-(J4-Pad4)*%
X128140000Y-58610000D02*
X128140000Y-57895000D01*
X128140000Y-57895000D02*
X128290000Y-57745000D01*
X128910000Y-59380000D02*
X128140000Y-58610000D01*
%TO.N,/USB2D-*%
X128380000Y-50060000D02*
X128295000Y-50145000D01*
X129540000Y-50060000D02*
X128380000Y-50060000D01*
X126990000Y-57745000D02*
X126990000Y-56470000D01*
X126990000Y-56470000D02*
X127280000Y-56180000D01*
%TO.N,Net-(R4-Pad1)*%
X110325000Y-55550000D02*
X116325000Y-55550000D01*
X110125000Y-53025000D02*
X110125000Y-55350000D01*
%TO.N,Net-(U3-~{RTS})*%
X128295000Y-47605000D02*
X128295000Y-45785000D01*
%TO.N,/ADB_PWR_ON*%
X132190000Y-53510000D02*
X134575000Y-55895000D01*
%TO.N,/ADB_Data*%
X132655000Y-50495000D02*
X135560000Y-50495000D01*
X132160000Y-50990000D02*
X132655000Y-50495000D01*
%TO.N,Net-(JP4-A)*%
X132200000Y-48340000D02*
X135205000Y-48340000D01*
X135205000Y-48340000D02*
X135560000Y-48695000D01*
%TD*%
%TA.AperFunction,Conductor*%
%TO.N,GND*%
G36*
X105347268Y-44215185D02*
G01*
X105393023Y-44267989D01*
X105402967Y-44337147D01*
X105385767Y-44384597D01*
X105315525Y-44498475D01*
X105315520Y-44498486D01*
X105296906Y-44554659D01*
X105261255Y-44662247D01*
X105261255Y-44662248D01*
X105261254Y-44662248D01*
X105250929Y-44763315D01*
X105250929Y-45336669D01*
X105250930Y-45336687D01*
X105261254Y-45437752D01*
X105282981Y-45503317D01*
X105315521Y-45601516D01*
X105406089Y-45748350D01*
X105528079Y-45870340D01*
X105674913Y-45960908D01*
X105838676Y-46015174D01*
X105939752Y-46025500D01*
X106351330Y-46025499D01*
X106418369Y-46045183D01*
X106439011Y-46061818D01*
X106856297Y-46479104D01*
X106889782Y-46540427D01*
X106884798Y-46610119D01*
X106856298Y-46654465D01*
X106832268Y-46678496D01*
X106809480Y-46701284D01*
X106809478Y-46701286D01*
X106768502Y-46742262D01*
X106733530Y-46777234D01*
X106672206Y-46810718D01*
X106613756Y-46809327D01*
X106485413Y-46774938D01*
X106485403Y-46774936D01*
X106250001Y-46754341D01*
X106249999Y-46754341D01*
X106014596Y-46774936D01*
X106014586Y-46774938D01*
X105786344Y-46836094D01*
X105786335Y-46836098D01*
X105572171Y-46935964D01*
X105572169Y-46935965D01*
X105378597Y-47071505D01*
X105211506Y-47238596D01*
X105075965Y-47432170D01*
X105075962Y-47432175D01*
X105073289Y-47437909D01*
X105027115Y-47490346D01*
X104960909Y-47509500D01*
X103885943Y-47509500D01*
X103733213Y-47550423D01*
X103711201Y-47563133D01*
X103711200Y-47563133D01*
X103596287Y-47629477D01*
X103596282Y-47629481D01*
X103539685Y-47686079D01*
X103484480Y-47741284D01*
X103484478Y-47741286D01*
X102091928Y-49133837D01*
X100713084Y-50512681D01*
X100651761Y-50546166D01*
X100625403Y-50549000D01*
X99759500Y-50549000D01*
X99692461Y-50529315D01*
X99646706Y-50476511D01*
X99635500Y-50425000D01*
X99635499Y-48847129D01*
X99635498Y-48847123D01*
X99635497Y-48847116D01*
X99629091Y-48787517D01*
X99627070Y-48782099D01*
X99578797Y-48652671D01*
X99578793Y-48652664D01*
X99492547Y-48537455D01*
X99492544Y-48537452D01*
X99377335Y-48451206D01*
X99377328Y-48451202D01*
X99242482Y-48400908D01*
X99242483Y-48400908D01*
X99182883Y-48394501D01*
X99182881Y-48394500D01*
X99182873Y-48394500D01*
X99182864Y-48394500D01*
X97587129Y-48394500D01*
X97587123Y-48394501D01*
X97527516Y-48400908D01*
X97392671Y-48451202D01*
X97392664Y-48451206D01*
X97277455Y-48537452D01*
X97277452Y-48537455D01*
X97191206Y-48652664D01*
X97191202Y-48652671D01*
X97140908Y-48787517D01*
X97135676Y-48836186D01*
X97134501Y-48847123D01*
X97134500Y-48847135D01*
X97134500Y-50542870D01*
X97134501Y-50542876D01*
X97140908Y-50602483D01*
X97191202Y-50737328D01*
X97191203Y-50737330D01*
X97232655Y-50792702D01*
X97257072Y-50858166D01*
X97242221Y-50926439D01*
X97221069Y-50954694D01*
X96916286Y-51259478D01*
X96804481Y-51371282D01*
X96804479Y-51371284D01*
X96776101Y-51420437D01*
X96764107Y-51441213D01*
X96756577Y-51454256D01*
X96725547Y-51508001D01*
X96725423Y-51508215D01*
X96684499Y-51660943D01*
X96684499Y-51660945D01*
X96684499Y-51829046D01*
X96684500Y-51829059D01*
X96684500Y-53362830D01*
X96684499Y-53362848D01*
X96684499Y-53528554D01*
X96684498Y-53528554D01*
X96689857Y-53548553D01*
X96725423Y-53681285D01*
X96728479Y-53686579D01*
X96732955Y-53694332D01*
X96732957Y-53694334D01*
X96804477Y-53818212D01*
X96804481Y-53818217D01*
X96923349Y-53937085D01*
X96923355Y-53937090D01*
X97046829Y-54060564D01*
X97080314Y-54121887D01*
X97082676Y-54159049D01*
X97079532Y-54194994D01*
X97079532Y-54195001D01*
X97099364Y-54421686D01*
X97099366Y-54421697D01*
X97158258Y-54641488D01*
X97158261Y-54641497D01*
X97254431Y-54847732D01*
X97254432Y-54847734D01*
X97384954Y-55034141D01*
X97545858Y-55195045D01*
X97545861Y-55195047D01*
X97732266Y-55325568D01*
X97747975Y-55332893D01*
X97800414Y-55379064D01*
X97819567Y-55446257D01*
X97799352Y-55513138D01*
X97747979Y-55557656D01*
X97732514Y-55564867D01*
X97732512Y-55564868D01*
X97659526Y-55615973D01*
X97659526Y-55615974D01*
X98276002Y-56232449D01*
X98201657Y-56252370D01*
X98093343Y-56314905D01*
X98004905Y-56403343D01*
X97942370Y-56511657D01*
X97922449Y-56586001D01*
X97305974Y-55969526D01*
X97305973Y-55969526D01*
X97254868Y-56042512D01*
X97254866Y-56042516D01*
X97158734Y-56248673D01*
X97158730Y-56248682D01*
X97099860Y-56468389D01*
X97099858Y-56468400D01*
X97080034Y-56694997D01*
X97080034Y-56695002D01*
X97099858Y-56921599D01*
X97099860Y-56921610D01*
X97158730Y-57141317D01*
X97158735Y-57141331D01*
X97254863Y-57347478D01*
X97305974Y-57420472D01*
X97922449Y-56803997D01*
X97942370Y-56878343D01*
X98004905Y-56986657D01*
X98093343Y-57075095D01*
X98201657Y-57137630D01*
X98276002Y-57157550D01*
X97659526Y-57774025D01*
X97732513Y-57825132D01*
X97732521Y-57825136D01*
X97938668Y-57921264D01*
X97938682Y-57921269D01*
X98158389Y-57980139D01*
X98158400Y-57980141D01*
X98384998Y-57999966D01*
X98385002Y-57999966D01*
X98611599Y-57980141D01*
X98611610Y-57980139D01*
X98831317Y-57921269D01*
X98831331Y-57921264D01*
X99037478Y-57825136D01*
X99110471Y-57774024D01*
X98493997Y-57157550D01*
X98568343Y-57137630D01*
X98676657Y-57075095D01*
X98765095Y-56986657D01*
X98827630Y-56878343D01*
X98847550Y-56803997D01*
X99464024Y-57420471D01*
X99515136Y-57347478D01*
X99611264Y-57141331D01*
X99611269Y-57141317D01*
X99670139Y-56921610D01*
X99670141Y-56921599D01*
X99689966Y-56695002D01*
X99689966Y-56694997D01*
X99670141Y-56468400D01*
X99670139Y-56468389D01*
X99611269Y-56248682D01*
X99611264Y-56248668D01*
X99515136Y-56042521D01*
X99515132Y-56042513D01*
X99464025Y-55969526D01*
X98847550Y-56586001D01*
X98827630Y-56511657D01*
X98765095Y-56403343D01*
X98676657Y-56314905D01*
X98568343Y-56252370D01*
X98493998Y-56232449D01*
X99110472Y-55615974D01*
X99037480Y-55564864D01*
X99022024Y-55557657D01*
X98969585Y-55511484D01*
X98950433Y-55444290D01*
X98970649Y-55377409D01*
X99022023Y-55332893D01*
X99037734Y-55325568D01*
X99224139Y-55195047D01*
X99385047Y-55034139D01*
X99515568Y-54847734D01*
X99611739Y-54641496D01*
X99670635Y-54421692D01*
X99690468Y-54195000D01*
X99690467Y-54194994D01*
X99683469Y-54114999D01*
X99670635Y-53968308D01*
X99614148Y-53757494D01*
X99611741Y-53748511D01*
X99611738Y-53748502D01*
X99586478Y-53694332D01*
X99515568Y-53542266D01*
X99385047Y-53355861D01*
X99385046Y-53355860D01*
X99383240Y-53353707D01*
X99382741Y-53352567D01*
X99381942Y-53351426D01*
X99382171Y-53351265D01*
X99355226Y-53289699D01*
X99366264Y-53220707D01*
X99412851Y-53168635D01*
X99478228Y-53150000D01*
X101713831Y-53150000D01*
X101713847Y-53150001D01*
X101721443Y-53150001D01*
X101879554Y-53150001D01*
X101879557Y-53150001D01*
X102032285Y-53109077D01*
X102109612Y-53064432D01*
X102169216Y-53030020D01*
X102281020Y-52918216D01*
X102281020Y-52918214D01*
X102291224Y-52908011D01*
X102291227Y-52908006D01*
X103912417Y-51286819D01*
X103973740Y-51253334D01*
X104000098Y-51250500D01*
X104960909Y-51250500D01*
X105027948Y-51270185D01*
X105073292Y-51322097D01*
X105075965Y-51327830D01*
X105202271Y-51508213D01*
X105211501Y-51521395D01*
X105211506Y-51521402D01*
X105378597Y-51688493D01*
X105378603Y-51688498D01*
X105413801Y-51713144D01*
X105528784Y-51793656D01*
X105564594Y-51818730D01*
X105608219Y-51873307D01*
X105615413Y-51942805D01*
X105583890Y-52005160D01*
X105564595Y-52021880D01*
X105378922Y-52151890D01*
X105378920Y-52151891D01*
X105211891Y-52318920D01*
X105211886Y-52318926D01*
X105076400Y-52512420D01*
X105076399Y-52512422D01*
X104976570Y-52726507D01*
X104976567Y-52726513D01*
X104919364Y-52939999D01*
X104919364Y-52940000D01*
X105816988Y-52940000D01*
X105784075Y-52997007D01*
X105750000Y-53124174D01*
X105750000Y-53255826D01*
X105784075Y-53382993D01*
X105816988Y-53440000D01*
X104919364Y-53440000D01*
X104976567Y-53653486D01*
X104976570Y-53653492D01*
X105076399Y-53867578D01*
X105211894Y-54061082D01*
X105378917Y-54228105D01*
X105564595Y-54358119D01*
X105608219Y-54412696D01*
X105615412Y-54482195D01*
X105583890Y-54544549D01*
X105564595Y-54561269D01*
X105378594Y-54691508D01*
X105211505Y-54858597D01*
X105075965Y-55052169D01*
X105075964Y-55052171D01*
X104976098Y-55266335D01*
X104976094Y-55266344D01*
X104914938Y-55494586D01*
X104914936Y-55494596D01*
X104894341Y-55729999D01*
X104894341Y-55730000D01*
X104914936Y-55965403D01*
X104914938Y-55965413D01*
X104949327Y-56093756D01*
X104947664Y-56163606D01*
X104917233Y-56213530D01*
X104731286Y-56399478D01*
X104619481Y-56511282D01*
X104619477Y-56511287D01*
X104609464Y-56528632D01*
X104596603Y-56550909D01*
X104540423Y-56648215D01*
X104499499Y-56800943D01*
X104499499Y-56800944D01*
X104499499Y-56800945D01*
X104499499Y-56969046D01*
X104499500Y-56969059D01*
X104499500Y-60363330D01*
X104499499Y-60363348D01*
X104499499Y-60529054D01*
X104499498Y-60529054D01*
X104540424Y-60681789D01*
X104540425Y-60681790D01*
X104559604Y-60715008D01*
X104559605Y-60715009D01*
X104619477Y-60818712D01*
X104619481Y-60818717D01*
X104738349Y-60937585D01*
X104738355Y-60937590D01*
X104988181Y-61187416D01*
X105021666Y-61248739D01*
X105024500Y-61275097D01*
X105024500Y-61686669D01*
X105024501Y-61686687D01*
X105034825Y-61787752D01*
X105089092Y-61951515D01*
X105089095Y-61951522D01*
X105122330Y-62005404D01*
X105140770Y-62072796D01*
X105119847Y-62139460D01*
X105066205Y-62184229D01*
X105016791Y-62194500D01*
X89612000Y-62194500D01*
X89544961Y-62174815D01*
X89499206Y-62122011D01*
X89488000Y-62070500D01*
X89488000Y-59764998D01*
X93669891Y-59764998D01*
X93669891Y-59765001D01*
X93690300Y-60050362D01*
X93751109Y-60329895D01*
X93851091Y-60597958D01*
X93988191Y-60849038D01*
X93988196Y-60849046D01*
X94094882Y-60991561D01*
X94094883Y-60991562D01*
X94702912Y-60383532D01*
X94797829Y-60514175D01*
X94925825Y-60642171D01*
X95056465Y-60737086D01*
X94448436Y-61345115D01*
X94590960Y-61451807D01*
X94590961Y-61451808D01*
X94842042Y-61588908D01*
X94842041Y-61588908D01*
X95110104Y-61688890D01*
X95389637Y-61749699D01*
X95674999Y-61770109D01*
X95675001Y-61770109D01*
X95960362Y-61749699D01*
X96239895Y-61688890D01*
X96507958Y-61588908D01*
X96759047Y-61451803D01*
X96901561Y-61345116D01*
X96901562Y-61345115D01*
X96293534Y-60737086D01*
X96424175Y-60642171D01*
X96552171Y-60514175D01*
X96647086Y-60383533D01*
X97255115Y-60991562D01*
X97255116Y-60991561D01*
X97361803Y-60849047D01*
X97498908Y-60597958D01*
X97598890Y-60329895D01*
X97659699Y-60050362D01*
X97680109Y-59765001D01*
X97680109Y-59764998D01*
X97659699Y-59479637D01*
X97598890Y-59200104D01*
X97498908Y-58932041D01*
X97361808Y-58680961D01*
X97361807Y-58680960D01*
X97255115Y-58538436D01*
X96647086Y-59146465D01*
X96552171Y-59015825D01*
X96424175Y-58887829D01*
X96293533Y-58792912D01*
X96901562Y-58184883D01*
X96901561Y-58184882D01*
X96759046Y-58078196D01*
X96759038Y-58078191D01*
X96507957Y-57941091D01*
X96507958Y-57941091D01*
X96239895Y-57841109D01*
X95960362Y-57780300D01*
X95675001Y-57759891D01*
X95674999Y-57759891D01*
X95389637Y-57780300D01*
X95110104Y-57841109D01*
X94842041Y-57941091D01*
X94590961Y-58078191D01*
X94590953Y-58078196D01*
X94448437Y-58184882D01*
X94448436Y-58184883D01*
X95056466Y-58792913D01*
X94925825Y-58887829D01*
X94797829Y-59015825D01*
X94702913Y-59146466D01*
X94094883Y-58538436D01*
X94094882Y-58538437D01*
X93988196Y-58680953D01*
X93988191Y-58680961D01*
X93851091Y-58932041D01*
X93751109Y-59200104D01*
X93690300Y-59479637D01*
X93669891Y-59764998D01*
X89488000Y-59764998D01*
X89488000Y-46624998D01*
X93669891Y-46624998D01*
X93669891Y-46625001D01*
X93690300Y-46910362D01*
X93751109Y-47189895D01*
X93851091Y-47457958D01*
X93988191Y-47709038D01*
X93988196Y-47709046D01*
X94094882Y-47851561D01*
X94094883Y-47851562D01*
X94702912Y-47243532D01*
X94797829Y-47374175D01*
X94925825Y-47502171D01*
X95056465Y-47597086D01*
X94448436Y-48205115D01*
X94590960Y-48311807D01*
X94590961Y-48311808D01*
X94842042Y-48448908D01*
X94842041Y-48448908D01*
X95110104Y-48548890D01*
X95389637Y-48609699D01*
X95674999Y-48630109D01*
X95675001Y-48630109D01*
X95960362Y-48609699D01*
X96239895Y-48548890D01*
X96507958Y-48448908D01*
X96759047Y-48311803D01*
X96901561Y-48205116D01*
X96901562Y-48205115D01*
X96293534Y-47597086D01*
X96424175Y-47502171D01*
X96552171Y-47374175D01*
X96647086Y-47243533D01*
X97255115Y-47851562D01*
X97255116Y-47851561D01*
X97361803Y-47709047D01*
X97498908Y-47457958D01*
X97598890Y-47189895D01*
X97659699Y-46910362D01*
X97680109Y-46625001D01*
X97680109Y-46624998D01*
X97659699Y-46339637D01*
X97598890Y-46060104D01*
X97498908Y-45792041D01*
X97361808Y-45540961D01*
X97361807Y-45540960D01*
X97255115Y-45398436D01*
X96647086Y-46006465D01*
X96552171Y-45875825D01*
X96424175Y-45747829D01*
X96293533Y-45652912D01*
X96901562Y-45044883D01*
X96901561Y-45044882D01*
X96759046Y-44938196D01*
X96759038Y-44938191D01*
X96507957Y-44801091D01*
X96507958Y-44801091D01*
X96239895Y-44701109D01*
X95960362Y-44640300D01*
X95675001Y-44619891D01*
X95674999Y-44619891D01*
X95389637Y-44640300D01*
X95110104Y-44701109D01*
X94842041Y-44801091D01*
X94590961Y-44938191D01*
X94590953Y-44938196D01*
X94448437Y-45044882D01*
X94448436Y-45044883D01*
X95056466Y-45652913D01*
X94925825Y-45747829D01*
X94797829Y-45875825D01*
X94702913Y-46006466D01*
X94094883Y-45398436D01*
X94094882Y-45398437D01*
X93988196Y-45540953D01*
X93988191Y-45540961D01*
X93851091Y-45792041D01*
X93751109Y-46060104D01*
X93690300Y-46339637D01*
X93669891Y-46624998D01*
X89488000Y-46624998D01*
X89488000Y-44319500D01*
X89507685Y-44252461D01*
X89560489Y-44206706D01*
X89612000Y-44195500D01*
X105280229Y-44195500D01*
X105347268Y-44215185D01*
G37*
%TD.AperFunction*%
%TA.AperFunction,Conductor*%
G36*
X143475039Y-44215185D02*
G01*
X143520794Y-44267989D01*
X143532000Y-44319500D01*
X143532000Y-45787739D01*
X143512315Y-45854778D01*
X143459511Y-45900533D01*
X143390353Y-45910477D01*
X143326797Y-45881452D01*
X143320319Y-45875420D01*
X143172041Y-45727142D01*
X142993760Y-45597613D01*
X142797410Y-45497567D01*
X142587835Y-45429473D01*
X142370181Y-45395000D01*
X141610000Y-45395000D01*
X141610000Y-46295000D01*
X141110000Y-46295000D01*
X141110000Y-45395000D01*
X140349819Y-45395000D01*
X140132164Y-45429473D01*
X139922589Y-45497567D01*
X139726239Y-45597613D01*
X139547958Y-45727142D01*
X139392142Y-45882958D01*
X139262613Y-46061239D01*
X139162567Y-46257589D01*
X139094473Y-46467161D01*
X139094473Y-46467164D01*
X139082145Y-46545000D01*
X140326988Y-46545000D01*
X140294075Y-46602007D01*
X140260000Y-46729174D01*
X140260000Y-46860826D01*
X140294075Y-46987993D01*
X140326988Y-47045000D01*
X139082145Y-47045000D01*
X139094473Y-47122835D01*
X139094473Y-47122838D01*
X139162567Y-47332410D01*
X139262613Y-47528760D01*
X139392142Y-47707041D01*
X139547958Y-47862857D01*
X139726239Y-47992386D01*
X139922589Y-48092432D01*
X140132164Y-48160526D01*
X140349819Y-48195000D01*
X141110000Y-48195000D01*
X141110000Y-47295000D01*
X141610000Y-47295000D01*
X141610000Y-48195000D01*
X142370181Y-48195000D01*
X142587835Y-48160526D01*
X142797410Y-48092432D01*
X142993760Y-47992386D01*
X143172041Y-47862857D01*
X143320319Y-47714580D01*
X143381642Y-47681095D01*
X143451334Y-47686079D01*
X143507267Y-47727951D01*
X143531684Y-47793415D01*
X143532000Y-47802261D01*
X143532000Y-58587739D01*
X143512315Y-58654778D01*
X143459511Y-58700533D01*
X143390353Y-58710477D01*
X143326797Y-58681452D01*
X143320319Y-58675420D01*
X143172041Y-58527142D01*
X142993760Y-58397613D01*
X142797410Y-58297567D01*
X142587835Y-58229473D01*
X142370181Y-58195000D01*
X141610000Y-58195000D01*
X141610000Y-59095000D01*
X141110000Y-59095000D01*
X141110000Y-58195000D01*
X140349819Y-58195000D01*
X140132164Y-58229473D01*
X139922589Y-58297567D01*
X139726239Y-58397613D01*
X139547958Y-58527142D01*
X139392142Y-58682958D01*
X139262613Y-58861239D01*
X139162567Y-59057589D01*
X139094473Y-59267161D01*
X139094473Y-59267164D01*
X139082145Y-59345000D01*
X140326988Y-59345000D01*
X140294075Y-59402007D01*
X140260000Y-59529174D01*
X140260000Y-59660826D01*
X140294075Y-59787993D01*
X140326988Y-59845000D01*
X139082145Y-59845000D01*
X139094473Y-59922835D01*
X139094473Y-59922838D01*
X139162567Y-60132410D01*
X139262613Y-60328760D01*
X139392142Y-60507041D01*
X139547958Y-60662857D01*
X139726239Y-60792386D01*
X139922589Y-60892432D01*
X140132164Y-60960526D01*
X140349819Y-60995000D01*
X141110000Y-60995000D01*
X141110000Y-60095000D01*
X141610000Y-60095000D01*
X141610000Y-60995000D01*
X142370181Y-60995000D01*
X142587835Y-60960526D01*
X142797410Y-60892432D01*
X142993760Y-60792386D01*
X143172041Y-60662857D01*
X143320319Y-60514580D01*
X143381642Y-60481095D01*
X143451334Y-60486079D01*
X143507267Y-60527951D01*
X143531684Y-60593415D01*
X143532000Y-60602261D01*
X143532000Y-62070500D01*
X143512315Y-62137539D01*
X143459511Y-62183294D01*
X143408000Y-62194500D01*
X132085442Y-62194500D01*
X132018403Y-62174815D01*
X131972648Y-62122011D01*
X131962704Y-62052853D01*
X131991729Y-61989297D01*
X132026424Y-61961445D01*
X132038232Y-61955054D01*
X132085056Y-61918609D01*
X131473395Y-61306948D01*
X131529640Y-61283651D01*
X131638435Y-61210957D01*
X131730957Y-61118435D01*
X131803651Y-61009640D01*
X131826947Y-60953395D01*
X132438434Y-61564882D01*
X132538731Y-61411369D01*
X132638587Y-61183717D01*
X132699612Y-60942738D01*
X132699614Y-60942729D01*
X132720141Y-60695005D01*
X132720141Y-60694994D01*
X132699614Y-60447270D01*
X132699612Y-60447261D01*
X132638587Y-60206282D01*
X132538731Y-59978630D01*
X132438434Y-59825116D01*
X131826947Y-60436603D01*
X131803651Y-60380360D01*
X131730957Y-60271565D01*
X131638435Y-60179043D01*
X131529640Y-60106349D01*
X131473395Y-60083051D01*
X132085057Y-59471390D01*
X132085056Y-59471389D01*
X132038229Y-59434943D01*
X131819614Y-59316635D01*
X131819603Y-59316630D01*
X131584493Y-59235916D01*
X131339293Y-59195000D01*
X131090707Y-59195000D01*
X130845506Y-59235916D01*
X130610396Y-59316630D01*
X130610390Y-59316632D01*
X130391761Y-59434949D01*
X130344942Y-59471388D01*
X130344942Y-59471390D01*
X130956604Y-60083051D01*
X130900360Y-60106349D01*
X130791565Y-60179043D01*
X130699043Y-60271565D01*
X130626349Y-60380360D01*
X130603052Y-60436604D01*
X129991564Y-59825116D01*
X129891267Y-59978632D01*
X129791412Y-60206282D01*
X129730387Y-60447261D01*
X129730385Y-60447270D01*
X129709859Y-60694994D01*
X129709859Y-60695005D01*
X129730385Y-60942729D01*
X129730387Y-60942738D01*
X129791412Y-61183717D01*
X129891266Y-61411364D01*
X129991564Y-61564882D01*
X130603051Y-60953395D01*
X130626349Y-61009640D01*
X130699043Y-61118435D01*
X130791565Y-61210957D01*
X130900360Y-61283651D01*
X130956604Y-61306948D01*
X130344942Y-61918609D01*
X130391767Y-61955054D01*
X130403576Y-61961445D01*
X130453166Y-62010665D01*
X130468274Y-62078882D01*
X130444103Y-62144437D01*
X130388328Y-62186518D01*
X130344558Y-62194500D01*
X124935442Y-62194500D01*
X124868403Y-62174815D01*
X124822648Y-62122011D01*
X124812704Y-62052853D01*
X124841729Y-61989297D01*
X124876424Y-61961445D01*
X124888232Y-61955054D01*
X124935056Y-61918609D01*
X124323395Y-61306948D01*
X124379640Y-61283651D01*
X124488435Y-61210957D01*
X124580957Y-61118435D01*
X124653651Y-61009640D01*
X124676947Y-60953395D01*
X125288434Y-61564882D01*
X125388731Y-61411369D01*
X125488587Y-61183717D01*
X125549612Y-60942738D01*
X125549614Y-60942729D01*
X125570141Y-60695005D01*
X125570141Y-60694994D01*
X125549614Y-60447270D01*
X125549612Y-60447261D01*
X125488587Y-60206282D01*
X125388731Y-59978630D01*
X125288434Y-59825116D01*
X124676947Y-60436603D01*
X124653651Y-60380360D01*
X124580957Y-60271565D01*
X124488435Y-60179043D01*
X124379640Y-60106349D01*
X124323395Y-60083051D01*
X124935057Y-59471390D01*
X124935056Y-59471389D01*
X124888229Y-59434943D01*
X124669614Y-59316635D01*
X124669603Y-59316630D01*
X124434493Y-59235916D01*
X124189293Y-59195000D01*
X123940707Y-59195000D01*
X123695506Y-59235916D01*
X123460396Y-59316630D01*
X123460390Y-59316632D01*
X123241761Y-59434949D01*
X123194942Y-59471388D01*
X123194942Y-59471390D01*
X123806604Y-60083051D01*
X123750360Y-60106349D01*
X123641565Y-60179043D01*
X123549043Y-60271565D01*
X123476349Y-60380360D01*
X123453052Y-60436604D01*
X122841564Y-59825116D01*
X122741267Y-59978632D01*
X122641412Y-60206282D01*
X122580387Y-60447261D01*
X122580385Y-60447270D01*
X122559859Y-60694994D01*
X122559859Y-60695005D01*
X122580385Y-60942729D01*
X122580387Y-60942738D01*
X122641412Y-61183717D01*
X122741266Y-61411364D01*
X122841564Y-61564882D01*
X123453051Y-60953395D01*
X123476349Y-61009640D01*
X123549043Y-61118435D01*
X123641565Y-61210957D01*
X123750360Y-61283651D01*
X123806604Y-61306948D01*
X123194942Y-61918609D01*
X123241767Y-61955054D01*
X123253576Y-61961445D01*
X123303166Y-62010665D01*
X123318274Y-62078882D01*
X123294103Y-62144437D01*
X123238328Y-62186518D01*
X123194558Y-62194500D01*
X121156257Y-62194500D01*
X121089218Y-62174815D01*
X121043463Y-62122011D01*
X121033519Y-62052853D01*
X121050718Y-62005404D01*
X121088386Y-61944334D01*
X121143571Y-61777797D01*
X121154072Y-61675009D01*
X121154071Y-60975096D01*
X121173755Y-60908058D01*
X121190385Y-60887421D01*
X121730520Y-60347288D01*
X121809577Y-60210356D01*
X121850501Y-60057629D01*
X121850501Y-59899514D01*
X121850501Y-59891919D01*
X121850500Y-59891901D01*
X121850500Y-56969060D01*
X121850501Y-56969047D01*
X121850501Y-56800944D01*
X121839707Y-56760660D01*
X121809577Y-56648216D01*
X121782692Y-56601649D01*
X121730524Y-56511290D01*
X121730518Y-56511282D01*
X121432766Y-56213530D01*
X121399281Y-56152207D01*
X121400672Y-56093755D01*
X121435063Y-55965408D01*
X121445346Y-55847872D01*
X121449212Y-55803692D01*
X121474665Y-55738623D01*
X121531256Y-55697645D01*
X121572740Y-55690500D01*
X123296190Y-55690500D01*
X123363229Y-55710185D01*
X123408984Y-55762989D01*
X123418928Y-55832147D01*
X123389903Y-55895703D01*
X123355208Y-55923555D01*
X123241761Y-55984949D01*
X123194942Y-56021388D01*
X123194942Y-56021390D01*
X123806604Y-56633051D01*
X123750360Y-56656349D01*
X123641565Y-56729043D01*
X123549043Y-56821565D01*
X123476349Y-56930360D01*
X123453052Y-56986604D01*
X122841564Y-56375116D01*
X122741267Y-56528632D01*
X122641412Y-56756282D01*
X122580387Y-56997261D01*
X122580385Y-56997270D01*
X122559859Y-57244994D01*
X122559859Y-57245005D01*
X122580385Y-57492729D01*
X122580387Y-57492738D01*
X122641412Y-57733717D01*
X122741266Y-57961364D01*
X122841564Y-58114882D01*
X123453051Y-57503395D01*
X123476349Y-57559640D01*
X123549043Y-57668435D01*
X123641565Y-57760957D01*
X123750360Y-57833651D01*
X123806603Y-57856947D01*
X123194942Y-58468609D01*
X123241768Y-58505055D01*
X123241770Y-58505056D01*
X123460385Y-58623364D01*
X123460396Y-58623369D01*
X123695506Y-58704083D01*
X123940707Y-58745000D01*
X124189293Y-58745000D01*
X124434493Y-58704083D01*
X124669603Y-58623369D01*
X124669609Y-58623367D01*
X124881482Y-58508707D01*
X124949811Y-58494112D01*
X125015183Y-58518775D01*
X125056844Y-58574865D01*
X125064500Y-58617762D01*
X125064500Y-58640766D01*
X125080153Y-58699184D01*
X125103719Y-58787136D01*
X125115524Y-58807582D01*
X125179485Y-58918365D01*
X125286635Y-59025515D01*
X125417865Y-59101281D01*
X125564234Y-59140500D01*
X125564236Y-59140500D01*
X125715764Y-59140500D01*
X125715766Y-59140500D01*
X125862135Y-59101281D01*
X125993365Y-59025515D01*
X126037060Y-58981819D01*
X126098381Y-58948333D01*
X126124733Y-58945499D01*
X126587872Y-58945499D01*
X126647483Y-58939091D01*
X126647486Y-58939089D01*
X126651744Y-58938632D01*
X126678254Y-58938632D01*
X126682514Y-58939089D01*
X126682517Y-58939091D01*
X126742127Y-58945500D01*
X127237872Y-58945499D01*
X127297483Y-58939091D01*
X127297486Y-58939089D01*
X127301744Y-58938632D01*
X127328254Y-58938632D01*
X127332514Y-58939089D01*
X127332517Y-58939091D01*
X127392127Y-58945500D01*
X127574900Y-58945499D01*
X127641940Y-58965183D01*
X127662582Y-58981818D01*
X127778349Y-59097585D01*
X127778355Y-59097590D01*
X128079298Y-59398533D01*
X128112783Y-59459856D01*
X128114837Y-59472330D01*
X128124630Y-59559249D01*
X128184210Y-59729521D01*
X128206503Y-59765000D01*
X128280184Y-59882262D01*
X128407738Y-60009816D01*
X128560478Y-60105789D01*
X128686549Y-60149903D01*
X128730745Y-60165368D01*
X128730750Y-60165369D01*
X128909996Y-60185565D01*
X128910000Y-60185565D01*
X128910004Y-60185565D01*
X129089249Y-60165369D01*
X129089252Y-60165368D01*
X129089255Y-60165368D01*
X129259522Y-60105789D01*
X129412262Y-60009816D01*
X129539816Y-59882262D01*
X129635789Y-59729522D01*
X129695368Y-59559255D01*
X129695369Y-59559249D01*
X129715565Y-59380003D01*
X129715565Y-59379996D01*
X129701325Y-59253609D01*
X129713380Y-59184787D01*
X129760729Y-59133408D01*
X129792446Y-59119953D01*
X129862135Y-59101281D01*
X129993365Y-59025515D01*
X130100515Y-58918365D01*
X130176281Y-58787135D01*
X130215500Y-58640766D01*
X130215500Y-58617762D01*
X130235185Y-58550723D01*
X130287989Y-58504968D01*
X130357147Y-58495024D01*
X130398518Y-58508707D01*
X130610390Y-58623367D01*
X130610396Y-58623369D01*
X130845506Y-58704083D01*
X131090707Y-58745000D01*
X131339293Y-58745000D01*
X131584493Y-58704083D01*
X131819603Y-58623369D01*
X131819614Y-58623364D01*
X132038228Y-58505057D01*
X132038231Y-58505055D01*
X132085056Y-58468609D01*
X131809291Y-58192844D01*
X133310000Y-58192844D01*
X133316401Y-58252372D01*
X133316403Y-58252379D01*
X133366645Y-58387086D01*
X133366649Y-58387093D01*
X133452809Y-58502187D01*
X133452812Y-58502190D01*
X133567906Y-58588350D01*
X133567913Y-58588354D01*
X133702620Y-58638596D01*
X133702627Y-58638598D01*
X133762155Y-58644999D01*
X133762172Y-58645000D01*
X135310000Y-58645000D01*
X135810000Y-58645000D01*
X137357828Y-58645000D01*
X137357844Y-58644999D01*
X137417372Y-58638598D01*
X137417379Y-58638596D01*
X137552086Y-58588354D01*
X137552093Y-58588350D01*
X137667187Y-58502190D01*
X137667190Y-58502187D01*
X137753350Y-58387093D01*
X137753354Y-58387086D01*
X137803596Y-58252379D01*
X137803598Y-58252372D01*
X137809999Y-58192844D01*
X137810000Y-58192827D01*
X137810000Y-57945000D01*
X135810000Y-57945000D01*
X135810000Y-58645000D01*
X135310000Y-58645000D01*
X135310000Y-57945000D01*
X133310000Y-57945000D01*
X133310000Y-58192844D01*
X131809291Y-58192844D01*
X131473395Y-57856948D01*
X131529640Y-57833651D01*
X131638435Y-57760957D01*
X131730957Y-57668435D01*
X131803651Y-57559640D01*
X131826947Y-57503395D01*
X132438434Y-58114882D01*
X132538731Y-57961369D01*
X132638587Y-57733717D01*
X132699612Y-57492738D01*
X132699614Y-57492729D01*
X132720141Y-57245005D01*
X132720141Y-57244994D01*
X132699614Y-56997270D01*
X132699612Y-56997261D01*
X132638587Y-56756282D01*
X132538731Y-56528630D01*
X132438434Y-56375116D01*
X131826947Y-56986603D01*
X131803651Y-56930360D01*
X131730957Y-56821565D01*
X131638435Y-56729043D01*
X131529640Y-56656349D01*
X131473395Y-56633051D01*
X132085057Y-56021390D01*
X132085056Y-56021389D01*
X132038229Y-55984943D01*
X131819614Y-55866635D01*
X131819603Y-55866630D01*
X131584493Y-55785916D01*
X131339293Y-55745000D01*
X131090707Y-55745000D01*
X130845506Y-55785916D01*
X130610396Y-55866630D01*
X130610390Y-55866632D01*
X130391761Y-55984949D01*
X130344942Y-56021388D01*
X130344942Y-56021390D01*
X130956604Y-56633051D01*
X130900360Y-56656349D01*
X130791565Y-56729043D01*
X130699043Y-56821565D01*
X130626349Y-56930360D01*
X130603051Y-56986604D01*
X129991564Y-56375116D01*
X129891267Y-56528632D01*
X129791408Y-56756289D01*
X129791112Y-56757154D01*
X129790896Y-56757458D01*
X129789352Y-56760979D01*
X129788626Y-56760660D01*
X129750716Y-56814162D01*
X129685911Y-56840280D01*
X129617274Y-56827216D01*
X129574572Y-56791180D01*
X129497190Y-56687812D01*
X129497187Y-56687809D01*
X129382093Y-56601649D01*
X129382086Y-56601645D01*
X129247379Y-56551403D01*
X129247368Y-56551400D01*
X129244975Y-56551143D01*
X129243245Y-56550426D01*
X129239832Y-56549620D01*
X129239962Y-56549066D01*
X129180426Y-56524399D01*
X129140584Y-56467002D01*
X129138097Y-56397177D01*
X129141201Y-56386900D01*
X129175366Y-56289262D01*
X129175369Y-56289249D01*
X129195565Y-56110003D01*
X129195565Y-56109996D01*
X129175369Y-55930750D01*
X129175366Y-55930737D01*
X129149024Y-55855456D01*
X129145462Y-55785677D01*
X129180190Y-55725050D01*
X129242184Y-55692822D01*
X129266065Y-55690501D01*
X129389054Y-55690501D01*
X129389057Y-55690501D01*
X129541785Y-55649577D01*
X129592281Y-55620423D01*
X129592282Y-55620423D01*
X129678709Y-55570524D01*
X129678708Y-55570524D01*
X129678716Y-55570520D01*
X129790520Y-55458716D01*
X129790520Y-55458714D01*
X129800724Y-55448511D01*
X129800728Y-55448506D01*
X130491111Y-54758122D01*
X130552432Y-54724639D01*
X130613725Y-54726828D01*
X130654564Y-54738819D01*
X130675696Y-54745024D01*
X130675700Y-54745024D01*
X130675702Y-54745025D01*
X130695386Y-54747855D01*
X130818111Y-54765500D01*
X130818114Y-54765500D01*
X131390000Y-54765500D01*
X131461940Y-54760355D01*
X131499259Y-54749396D01*
X131551841Y-54745636D01*
X131690000Y-54765500D01*
X131690003Y-54765500D01*
X132261886Y-54765500D01*
X132261889Y-54765500D01*
X132404304Y-54745024D01*
X132466273Y-54726828D01*
X132536142Y-54726828D01*
X132588889Y-54758124D01*
X133273181Y-55442416D01*
X133306666Y-55503739D01*
X133309500Y-55530097D01*
X133309500Y-56392870D01*
X133309501Y-56392876D01*
X133315908Y-56452483D01*
X133366202Y-56587328D01*
X133366206Y-56587335D01*
X133452452Y-56702544D01*
X133457584Y-56707676D01*
X133491069Y-56768999D01*
X133486085Y-56838691D01*
X133457584Y-56883038D01*
X133452809Y-56887812D01*
X133366649Y-57002906D01*
X133366645Y-57002913D01*
X133316403Y-57137620D01*
X133316401Y-57137627D01*
X133310000Y-57197155D01*
X133310000Y-57445000D01*
X137810000Y-57445000D01*
X137810000Y-57197172D01*
X137809999Y-57197155D01*
X137803598Y-57137627D01*
X137803596Y-57137620D01*
X137753354Y-57002913D01*
X137753350Y-57002906D01*
X137667190Y-56887812D01*
X137662416Y-56883038D01*
X137628931Y-56821715D01*
X137633915Y-56752023D01*
X137662416Y-56707676D01*
X137667542Y-56702548D01*
X137667546Y-56702546D01*
X137753796Y-56587331D01*
X137804091Y-56452483D01*
X137810500Y-56392873D01*
X137810499Y-55397128D01*
X137804091Y-55337517D01*
X137799634Y-55325568D01*
X137753797Y-55202671D01*
X137753793Y-55202664D01*
X137667547Y-55087455D01*
X137667544Y-55087452D01*
X137552335Y-55001206D01*
X137552328Y-55001202D01*
X137417482Y-54950908D01*
X137417483Y-54950908D01*
X137357883Y-54944501D01*
X137357881Y-54944500D01*
X137357873Y-54944500D01*
X137357865Y-54944500D01*
X134525097Y-54944500D01*
X134458058Y-54924815D01*
X134437416Y-54908181D01*
X133231819Y-53702584D01*
X133198334Y-53641261D01*
X133195500Y-53614903D01*
X133195500Y-53244426D01*
X133195497Y-53244399D01*
X133195497Y-53195000D01*
X138496957Y-53195000D01*
X138517103Y-53489534D01*
X138517104Y-53489536D01*
X138577165Y-53778570D01*
X138577170Y-53778587D01*
X138676032Y-54056757D01*
X138811854Y-54318883D01*
X138811858Y-54318889D01*
X138965249Y-54536194D01*
X138965250Y-54536195D01*
X139687912Y-53813532D01*
X139782829Y-53944175D01*
X139910825Y-54072171D01*
X140041465Y-54167086D01*
X139320970Y-54887581D01*
X139412619Y-54962143D01*
X139664861Y-55115535D01*
X139935636Y-55233149D01*
X140219909Y-55312799D01*
X140219916Y-55312800D01*
X140512388Y-55353000D01*
X140807612Y-55353000D01*
X141100083Y-55312800D01*
X141100090Y-55312799D01*
X141384363Y-55233149D01*
X141655138Y-55115535D01*
X141907377Y-54962145D01*
X141907383Y-54962141D01*
X141999028Y-54887581D01*
X141278534Y-54167086D01*
X141409175Y-54072171D01*
X141537171Y-53944175D01*
X141632087Y-53813533D01*
X142354748Y-54536194D01*
X142508145Y-54318882D01*
X142643967Y-54056757D01*
X142742829Y-53778587D01*
X142742834Y-53778570D01*
X142802895Y-53489536D01*
X142802896Y-53489534D01*
X142823042Y-53195000D01*
X142802896Y-52900465D01*
X142802895Y-52900463D01*
X142742834Y-52611429D01*
X142742829Y-52611412D01*
X142643967Y-52333242D01*
X142508145Y-52071116D01*
X142508141Y-52071110D01*
X142354749Y-51853804D01*
X141632086Y-52576465D01*
X141537171Y-52445825D01*
X141409175Y-52317829D01*
X141278533Y-52222912D01*
X141999028Y-51502417D01*
X141907380Y-51427856D01*
X141655138Y-51274464D01*
X141384363Y-51156850D01*
X141100090Y-51077200D01*
X141100083Y-51077199D01*
X140807612Y-51037000D01*
X140512388Y-51037000D01*
X140219916Y-51077199D01*
X140219909Y-51077200D01*
X139935636Y-51156850D01*
X139664861Y-51274464D01*
X139412620Y-51427856D01*
X139412618Y-51427857D01*
X139320970Y-51502417D01*
X140041466Y-52222913D01*
X139910825Y-52317829D01*
X139782829Y-52445825D01*
X139687913Y-52576466D01*
X138965250Y-51853803D01*
X138811851Y-52071122D01*
X138676032Y-52333242D01*
X138577170Y-52611412D01*
X138577165Y-52611429D01*
X138517104Y-52900463D01*
X138517103Y-52900465D01*
X138496957Y-53195000D01*
X133195497Y-53195000D01*
X133195497Y-53188060D01*
X133187917Y-53135343D01*
X133175035Y-53045744D01*
X133175035Y-53045743D01*
X133134498Y-52907691D01*
X133131197Y-52900463D01*
X133074776Y-52776918D01*
X133074773Y-52776914D01*
X133074770Y-52776906D01*
X132996986Y-52655870D01*
X132996985Y-52655869D01*
X132996984Y-52655867D01*
X132996981Y-52655863D01*
X132902847Y-52547226D01*
X132902830Y-52547207D01*
X132902829Y-52547206D01*
X132794091Y-52452985D01*
X132758858Y-52430342D01*
X132673142Y-52375255D01*
X132673130Y-52375249D01*
X132630856Y-52355943D01*
X132578052Y-52310188D01*
X132558368Y-52243148D01*
X132578053Y-52176109D01*
X132630854Y-52130356D01*
X132637902Y-52127137D01*
X132643131Y-52124750D01*
X132643142Y-52124744D01*
X132723164Y-52073317D01*
X132758477Y-52050622D01*
X132759915Y-52049804D01*
X132764098Y-52047011D01*
X132855612Y-51967712D01*
X132872832Y-51952791D01*
X132966986Y-51844130D01*
X133044770Y-51723094D01*
X133101742Y-51598342D01*
X133103986Y-51594053D01*
X133104498Y-51592308D01*
X133104499Y-51592308D01*
X133145035Y-51454256D01*
X133146911Y-51441212D01*
X133149241Y-51425001D01*
X133165497Y-51311941D01*
X133165497Y-51291777D01*
X133185182Y-51224738D01*
X133237986Y-51178983D01*
X133307144Y-51169039D01*
X133370700Y-51198064D01*
X133388759Y-51217460D01*
X133452454Y-51302546D01*
X133498643Y-51337123D01*
X133567664Y-51388793D01*
X133567671Y-51388797D01*
X133702517Y-51439091D01*
X133702516Y-51439091D01*
X133709444Y-51439835D01*
X133762127Y-51445500D01*
X137357872Y-51445499D01*
X137417483Y-51439091D01*
X137552331Y-51388796D01*
X137667546Y-51302546D01*
X137753796Y-51187331D01*
X137804091Y-51052483D01*
X137810500Y-50992873D01*
X137810499Y-49997128D01*
X137804091Y-49937517D01*
X137801028Y-49929306D01*
X137753797Y-49802671D01*
X137753793Y-49802664D01*
X137667547Y-49687455D01*
X137662773Y-49682681D01*
X137629288Y-49621358D01*
X137634272Y-49551666D01*
X137662773Y-49507319D01*
X137667542Y-49502548D01*
X137667546Y-49502546D01*
X137753796Y-49387331D01*
X137804091Y-49252483D01*
X137810500Y-49192873D01*
X137810499Y-48197128D01*
X137804091Y-48137517D01*
X137799707Y-48125764D01*
X137753797Y-48002671D01*
X137753793Y-48002664D01*
X137667547Y-47887455D01*
X137667544Y-47887452D01*
X137552335Y-47801206D01*
X137552328Y-47801202D01*
X137417482Y-47750908D01*
X137417483Y-47750908D01*
X137357883Y-47744501D01*
X137357881Y-47744500D01*
X137357873Y-47744500D01*
X137357865Y-47744500D01*
X135319047Y-47744500D01*
X135286953Y-47740275D01*
X135284057Y-47739499D01*
X135125943Y-47739499D01*
X135118347Y-47739499D01*
X135118331Y-47739500D01*
X133225014Y-47739500D01*
X133157975Y-47719815D01*
X133112220Y-47667011D01*
X133084779Y-47606923D01*
X133084774Y-47606914D01*
X133084770Y-47606906D01*
X133006986Y-47485870D01*
X133006985Y-47485869D01*
X133006984Y-47485867D01*
X133006981Y-47485863D01*
X132912847Y-47377226D01*
X132912838Y-47377216D01*
X132912832Y-47377209D01*
X132912829Y-47377206D01*
X132804091Y-47282985D01*
X132735022Y-47238597D01*
X132683142Y-47205255D01*
X132683136Y-47205252D01*
X132612028Y-47172778D01*
X132552259Y-47145483D01*
X132434650Y-47110950D01*
X132414308Y-47104977D01*
X132414296Y-47104974D01*
X132271889Y-47084500D01*
X131700000Y-47084500D01*
X131699992Y-47084500D01*
X131633344Y-47089266D01*
X131565071Y-47074413D01*
X131515667Y-47025007D01*
X131500500Y-46965582D01*
X131500500Y-46822412D01*
X131520185Y-46755373D01*
X131527555Y-46745097D01*
X131529810Y-46742267D01*
X131529816Y-46742262D01*
X131625789Y-46589522D01*
X131685368Y-46419255D01*
X131685369Y-46419249D01*
X131705565Y-46240003D01*
X131705565Y-46239996D01*
X131685369Y-46060750D01*
X131685368Y-46060745D01*
X131679923Y-46045183D01*
X131625789Y-45890478D01*
X131616327Y-45875420D01*
X131570741Y-45802870D01*
X131529816Y-45737738D01*
X131402262Y-45610184D01*
X131388465Y-45601515D01*
X131249523Y-45514211D01*
X131079254Y-45454631D01*
X131079249Y-45454630D01*
X130900004Y-45434435D01*
X130899996Y-45434435D01*
X130720750Y-45454630D01*
X130720745Y-45454631D01*
X130550476Y-45514211D01*
X130397737Y-45610184D01*
X130270184Y-45737737D01*
X130174211Y-45890476D01*
X130114631Y-46060745D01*
X130114630Y-46060750D01*
X130094435Y-46239996D01*
X130094435Y-46240003D01*
X130114630Y-46419249D01*
X130114631Y-46419254D01*
X130174211Y-46589523D01*
X130196503Y-46625000D01*
X130261960Y-46729174D01*
X130270185Y-46742263D01*
X130272445Y-46745097D01*
X130273334Y-46747275D01*
X130273889Y-46748158D01*
X130273734Y-46748255D01*
X130298855Y-46809783D01*
X130299500Y-46822412D01*
X130299500Y-47223243D01*
X130279815Y-47290282D01*
X130256703Y-47316955D01*
X130187171Y-47377207D01*
X130187165Y-47377212D01*
X130093018Y-47485864D01*
X130093015Y-47485867D01*
X130015231Y-47606905D01*
X130015223Y-47606918D01*
X129958263Y-47731643D01*
X129956015Y-47735939D01*
X129914966Y-47875738D01*
X129914963Y-47875748D01*
X129894503Y-48018059D01*
X129894503Y-48074399D01*
X129894500Y-48074409D01*
X129894500Y-48605573D01*
X129894503Y-48605601D01*
X129894503Y-48661941D01*
X129913703Y-48795478D01*
X129913703Y-48795481D01*
X129914964Y-48804255D01*
X129955503Y-48942313D01*
X130015223Y-49073081D01*
X130015234Y-49073101D01*
X130081061Y-49175532D01*
X130100745Y-49242572D01*
X130081060Y-49309611D01*
X130028255Y-49355365D01*
X129959096Y-49365308D01*
X129910772Y-49347563D01*
X129889522Y-49334211D01*
X129799737Y-49302794D01*
X129719255Y-49274632D01*
X129719254Y-49274631D01*
X129719246Y-49274629D01*
X129712459Y-49273080D01*
X129713083Y-49270342D01*
X129660352Y-49248172D01*
X129620808Y-49190570D01*
X129616965Y-49133837D01*
X129616603Y-49133809D01*
X129616796Y-49131348D01*
X129616688Y-49129745D01*
X129617100Y-49127489D01*
X129617295Y-49125001D01*
X129617295Y-49125000D01*
X126972705Y-49125000D01*
X126972704Y-49125001D01*
X126972899Y-49127486D01*
X127018718Y-49285198D01*
X127102314Y-49426552D01*
X127107100Y-49432722D01*
X127104640Y-49434629D01*
X127131210Y-49483288D01*
X127126226Y-49552980D01*
X127105162Y-49585781D01*
X127106699Y-49586974D01*
X127101915Y-49593140D01*
X127018255Y-49734603D01*
X127018254Y-49734606D01*
X126972402Y-49892426D01*
X126972401Y-49892432D01*
X126969500Y-49929298D01*
X126969500Y-50360701D01*
X126972401Y-50397567D01*
X126972402Y-50397573D01*
X127018254Y-50555393D01*
X127018255Y-50555396D01*
X127101917Y-50696862D01*
X127106702Y-50703031D01*
X127104256Y-50704927D01*
X127130857Y-50753642D01*
X127125873Y-50823334D01*
X127105069Y-50855703D01*
X127106702Y-50856969D01*
X127101917Y-50863137D01*
X127018255Y-51004603D01*
X127018254Y-51004606D01*
X126972402Y-51162426D01*
X126972401Y-51162432D01*
X126969500Y-51199298D01*
X126969500Y-51630701D01*
X126972401Y-51667567D01*
X126972402Y-51667573D01*
X127018254Y-51825393D01*
X127018255Y-51825396D01*
X127018256Y-51825398D01*
X127020421Y-51829059D01*
X127101917Y-51966862D01*
X127101923Y-51966870D01*
X127153806Y-52018753D01*
X127187291Y-52080076D01*
X127182307Y-52149768D01*
X127153807Y-52194114D01*
X127100184Y-52247737D01*
X127004211Y-52400476D01*
X126944631Y-52570745D01*
X126944630Y-52570750D01*
X126924435Y-52749996D01*
X126924435Y-52750003D01*
X126944630Y-52929249D01*
X126944631Y-52929254D01*
X127004211Y-53099523D01*
X127089346Y-53235013D01*
X127100184Y-53252262D01*
X127227738Y-53379816D01*
X127299661Y-53425008D01*
X127378426Y-53474500D01*
X127380478Y-53475789D01*
X127529108Y-53527797D01*
X127550745Y-53535368D01*
X127550750Y-53535369D01*
X127729996Y-53555565D01*
X127730000Y-53555565D01*
X127730004Y-53555565D01*
X127909249Y-53535369D01*
X127909252Y-53535368D01*
X127909255Y-53535368D01*
X128079522Y-53475789D01*
X128232262Y-53379816D01*
X128232267Y-53379810D01*
X128235097Y-53377555D01*
X128237275Y-53376665D01*
X128238158Y-53376111D01*
X128238255Y-53376265D01*
X128299783Y-53351145D01*
X128312412Y-53350500D01*
X129760500Y-53350500D01*
X129827539Y-53370185D01*
X129873294Y-53422989D01*
X129884500Y-53474500D01*
X129884500Y-53614903D01*
X129864815Y-53681942D01*
X129848181Y-53702584D01*
X129097584Y-54453181D01*
X129036261Y-54486666D01*
X129009903Y-54489500D01*
X126051419Y-54489500D01*
X125984380Y-54469815D01*
X125938625Y-54417011D01*
X125928061Y-54352897D01*
X125934999Y-54284986D01*
X125935000Y-54284973D01*
X125935000Y-54010000D01*
X124721500Y-54010000D01*
X124654461Y-53990315D01*
X124608706Y-53937511D01*
X124597500Y-53886000D01*
X124597500Y-53510000D01*
X125097500Y-53510000D01*
X125934999Y-53510000D01*
X125934999Y-53235028D01*
X125934998Y-53235013D01*
X125924505Y-53132302D01*
X125869358Y-52965880D01*
X125869356Y-52965875D01*
X125777315Y-52816654D01*
X125653345Y-52692684D01*
X125504124Y-52600643D01*
X125504119Y-52600641D01*
X125337697Y-52545494D01*
X125337690Y-52545493D01*
X125234986Y-52535000D01*
X125097500Y-52535000D01*
X125097500Y-53510000D01*
X124597500Y-53510000D01*
X124597500Y-52535000D01*
X124460027Y-52535000D01*
X124460012Y-52535001D01*
X124357302Y-52545494D01*
X124190880Y-52600641D01*
X124190875Y-52600643D01*
X124041654Y-52692684D01*
X123917683Y-52816655D01*
X123917679Y-52816660D01*
X123915826Y-52819665D01*
X123914018Y-52821290D01*
X123913202Y-52822323D01*
X123913025Y-52822183D01*
X123863874Y-52866385D01*
X123794911Y-52877601D01*
X123730831Y-52849752D01*
X123704753Y-52819653D01*
X123704737Y-52819628D01*
X123702712Y-52816344D01*
X123681819Y-52795451D01*
X123648334Y-52734128D01*
X123645500Y-52707770D01*
X123645500Y-52339500D01*
X123665185Y-52272461D01*
X123717989Y-52226706D01*
X123769500Y-52215500D01*
X123785686Y-52215500D01*
X123785694Y-52215500D01*
X123822569Y-52212598D01*
X123822571Y-52212597D01*
X123822573Y-52212597D01*
X123864214Y-52200499D01*
X123980398Y-52166744D01*
X124121865Y-52083081D01*
X124238081Y-51966865D01*
X124321744Y-51825398D01*
X124367598Y-51667569D01*
X124370500Y-51630694D01*
X124370500Y-51199306D01*
X124367598Y-51162431D01*
X124353429Y-51113663D01*
X124321745Y-51004606D01*
X124321744Y-51004603D01*
X124321744Y-51004602D01*
X124238081Y-50863135D01*
X124238078Y-50863132D01*
X124233298Y-50856969D01*
X124235750Y-50855066D01*
X124209155Y-50806421D01*
X124214104Y-50736726D01*
X124234940Y-50704304D01*
X124233298Y-50703031D01*
X124238075Y-50696870D01*
X124238081Y-50696865D01*
X124321744Y-50555398D01*
X124357383Y-50432728D01*
X124367597Y-50397573D01*
X124367598Y-50397567D01*
X124370499Y-50360701D01*
X124370500Y-50360694D01*
X124370500Y-49929306D01*
X124367598Y-49892431D01*
X124367009Y-49890405D01*
X124321745Y-49734606D01*
X124321744Y-49734603D01*
X124321744Y-49734602D01*
X124238081Y-49593135D01*
X124238078Y-49593132D01*
X124233298Y-49586969D01*
X124235750Y-49585066D01*
X124209155Y-49536421D01*
X124214104Y-49466726D01*
X124234940Y-49434304D01*
X124233298Y-49433031D01*
X124238075Y-49426870D01*
X124238081Y-49426865D01*
X124321744Y-49285398D01*
X124367598Y-49127569D01*
X124370500Y-49090694D01*
X124370500Y-48659306D01*
X124367598Y-48622431D01*
X124362708Y-48605601D01*
X124321745Y-48464606D01*
X124321744Y-48464602D01*
X124309530Y-48443949D01*
X124279175Y-48392620D01*
X124261992Y-48324896D01*
X124284152Y-48258634D01*
X124338619Y-48214871D01*
X124385907Y-48205500D01*
X124442060Y-48205500D01*
X124509099Y-48225185D01*
X124529741Y-48241819D01*
X124577738Y-48289816D01*
X124730478Y-48385789D01*
X124786809Y-48405500D01*
X124900745Y-48445368D01*
X124900750Y-48445369D01*
X125079996Y-48465565D01*
X125080000Y-48465565D01*
X125080004Y-48465565D01*
X125259249Y-48445369D01*
X125259252Y-48445368D01*
X125259255Y-48445368D01*
X125429522Y-48385789D01*
X125582262Y-48289816D01*
X125709816Y-48162262D01*
X125805789Y-48009522D01*
X125865368Y-47839255D01*
X125867459Y-47820701D01*
X125885565Y-47660003D01*
X125885565Y-47659996D01*
X125865369Y-47480750D01*
X125865368Y-47480745D01*
X125848371Y-47432170D01*
X125833369Y-47389298D01*
X126969500Y-47389298D01*
X126969500Y-47820701D01*
X126972401Y-47857567D01*
X126972402Y-47857573D01*
X127018254Y-48015393D01*
X127018255Y-48015396D01*
X127101917Y-48156862D01*
X127106702Y-48163031D01*
X127104369Y-48164840D01*
X127131210Y-48213995D01*
X127126226Y-48283687D01*
X127105470Y-48316021D01*
X127107097Y-48317283D01*
X127102313Y-48323449D01*
X127018718Y-48464801D01*
X126972899Y-48622513D01*
X126972704Y-48624998D01*
X126972705Y-48625000D01*
X129617295Y-48625000D01*
X129617295Y-48624998D01*
X129617100Y-48622513D01*
X129571281Y-48464801D01*
X129487685Y-48323447D01*
X129482900Y-48317278D01*
X129485366Y-48315364D01*
X129458802Y-48266776D01*
X129463749Y-48197082D01*
X129484856Y-48164232D01*
X129483301Y-48163026D01*
X129488077Y-48156868D01*
X129488081Y-48156865D01*
X129571744Y-48015398D01*
X129608916Y-47887452D01*
X129617597Y-47857573D01*
X129617598Y-47857567D01*
X129619039Y-47839254D01*
X129620500Y-47820694D01*
X129620500Y-47389306D01*
X129617598Y-47352431D01*
X129611781Y-47332410D01*
X129571745Y-47194606D01*
X129571744Y-47194603D01*
X129571744Y-47194602D01*
X129488081Y-47053135D01*
X129488079Y-47053133D01*
X129488076Y-47053129D01*
X129371870Y-46936923D01*
X129371862Y-46936917D01*
X129243198Y-46860826D01*
X129230398Y-46853256D01*
X129230397Y-46853255D01*
X129230396Y-46853255D01*
X129230393Y-46853254D01*
X129072573Y-46807402D01*
X129072567Y-46807401D01*
X129035701Y-46804500D01*
X129035694Y-46804500D01*
X129019500Y-46804500D01*
X128952461Y-46784815D01*
X128906706Y-46732011D01*
X128895500Y-46680500D01*
X128895500Y-46169073D01*
X128910141Y-46110621D01*
X128998814Y-45944727D01*
X129056024Y-45756132D01*
X129075341Y-45560000D01*
X129056024Y-45363868D01*
X128998814Y-45175273D01*
X128998811Y-45175269D01*
X128998811Y-45175266D01*
X128905913Y-45001467D01*
X128905909Y-45001460D01*
X128780883Y-44849116D01*
X128628539Y-44724090D01*
X128628532Y-44724086D01*
X128454733Y-44631188D01*
X128454727Y-44631186D01*
X128266132Y-44573976D01*
X128266129Y-44573975D01*
X128070000Y-44554659D01*
X127873870Y-44573975D01*
X127685266Y-44631188D01*
X127511467Y-44724086D01*
X127511460Y-44724090D01*
X127359116Y-44849116D01*
X127234090Y-45001460D01*
X127234086Y-45001467D01*
X127141188Y-45175266D01*
X127083975Y-45363870D01*
X127064659Y-45560000D01*
X127083975Y-45756129D01*
X127083976Y-45756132D01*
X127122448Y-45882958D01*
X127141188Y-45944733D01*
X127234086Y-46118532D01*
X127234090Y-46118539D01*
X127359116Y-46270883D01*
X127511460Y-46395909D01*
X127511463Y-46395911D01*
X127537143Y-46409637D01*
X127628953Y-46458710D01*
X127678797Y-46507671D01*
X127694500Y-46568068D01*
X127694500Y-46680500D01*
X127674815Y-46747539D01*
X127622011Y-46793294D01*
X127570500Y-46804500D01*
X127554298Y-46804500D01*
X127517432Y-46807401D01*
X127517426Y-46807402D01*
X127359606Y-46853254D01*
X127359603Y-46853255D01*
X127218137Y-46936917D01*
X127218129Y-46936923D01*
X127101923Y-47053129D01*
X127101917Y-47053137D01*
X127018255Y-47194603D01*
X127018254Y-47194606D01*
X126972402Y-47352426D01*
X126972401Y-47352432D01*
X126969500Y-47389298D01*
X125833369Y-47389298D01*
X125805789Y-47310478D01*
X125788511Y-47282981D01*
X125760623Y-47238597D01*
X125709816Y-47157738D01*
X125582262Y-47030184D01*
X125582260Y-47030182D01*
X125494004Y-46974727D01*
X125447714Y-46922393D01*
X125437066Y-46853339D01*
X125465441Y-46789491D01*
X125520974Y-46752028D01*
X125544117Y-46744359D01*
X125544124Y-46744356D01*
X125693345Y-46652315D01*
X125817315Y-46528345D01*
X125909356Y-46379124D01*
X125909358Y-46379119D01*
X125964505Y-46212697D01*
X125964506Y-46212690D01*
X125974999Y-46109986D01*
X125975000Y-46109973D01*
X125975000Y-45835000D01*
X124761500Y-45835000D01*
X124694461Y-45815315D01*
X124648706Y-45762511D01*
X124637500Y-45711000D01*
X124637500Y-45459000D01*
X124657185Y-45391961D01*
X124709989Y-45346206D01*
X124761500Y-45335000D01*
X125974999Y-45335000D01*
X125974999Y-45060028D01*
X125974998Y-45060013D01*
X125964505Y-44957302D01*
X125909358Y-44790880D01*
X125909356Y-44790875D01*
X125817315Y-44641654D01*
X125693345Y-44517684D01*
X125543144Y-44425039D01*
X125496420Y-44373091D01*
X125485198Y-44304128D01*
X125513041Y-44240046D01*
X125571110Y-44201190D01*
X125608241Y-44195500D01*
X143408000Y-44195500D01*
X143475039Y-44215185D01*
G37*
%TD.AperFunction*%
%TA.AperFunction,Conductor*%
G36*
X107786534Y-50435610D02*
G01*
X107850475Y-50475788D01*
X108020745Y-50535368D01*
X108020750Y-50535369D01*
X108199996Y-50555565D01*
X108200000Y-50555565D01*
X108200004Y-50555565D01*
X108379249Y-50535369D01*
X108379252Y-50535368D01*
X108379255Y-50535368D01*
X108549522Y-50475789D01*
X108574509Y-50460088D01*
X108641743Y-50441086D01*
X108708579Y-50461451D01*
X108728164Y-50477399D01*
X108888181Y-50637416D01*
X108921666Y-50698739D01*
X108924500Y-50725097D01*
X108924500Y-51425001D01*
X108924501Y-51425019D01*
X108935000Y-51527796D01*
X108935001Y-51527799D01*
X108990185Y-51694331D01*
X108990187Y-51694336D01*
X109020695Y-51743797D01*
X109071725Y-51826531D01*
X109082289Y-51843657D01*
X109175951Y-51937319D01*
X109209436Y-51998642D01*
X109204452Y-52068334D01*
X109175951Y-52112681D01*
X109082289Y-52206342D01*
X108990187Y-52355663D01*
X108990186Y-52355666D01*
X108935001Y-52522203D01*
X108935001Y-52522204D01*
X108935000Y-52522204D01*
X108924500Y-52624983D01*
X108924500Y-53425001D01*
X108924501Y-53425019D01*
X108935000Y-53527796D01*
X108935001Y-53527799D01*
X108990185Y-53694331D01*
X108990187Y-53694336D01*
X109023597Y-53748502D01*
X109082288Y-53843656D01*
X109206344Y-53967712D01*
X109355666Y-54059814D01*
X109439505Y-54087595D01*
X109496948Y-54127366D01*
X109523772Y-54191882D01*
X109524500Y-54205300D01*
X109524500Y-54587679D01*
X109504815Y-54654718D01*
X109474813Y-54686944D01*
X109467459Y-54692449D01*
X109467451Y-54692457D01*
X109381206Y-54807664D01*
X109381202Y-54807671D01*
X109330908Y-54942517D01*
X109324501Y-55002116D01*
X109324500Y-55002135D01*
X109324500Y-55847870D01*
X109324501Y-55847876D01*
X109330908Y-55907483D01*
X109381202Y-56042328D01*
X109381206Y-56042335D01*
X109467452Y-56157544D01*
X109467455Y-56157547D01*
X109582664Y-56243793D01*
X109582671Y-56243797D01*
X109717517Y-56294091D01*
X109717516Y-56294091D01*
X109724444Y-56294835D01*
X109777127Y-56300500D01*
X110872872Y-56300499D01*
X110932483Y-56294091D01*
X111067331Y-56243796D01*
X111134311Y-56193655D01*
X111158920Y-56175233D01*
X111224385Y-56150816D01*
X111233231Y-56150500D01*
X115416769Y-56150500D01*
X115483808Y-56170185D01*
X115491080Y-56175233D01*
X115582668Y-56243795D01*
X115582671Y-56243797D01*
X115717517Y-56294091D01*
X115717516Y-56294091D01*
X115724444Y-56294835D01*
X115777127Y-56300500D01*
X116825500Y-56300499D01*
X116892539Y-56320183D01*
X116938294Y-56372987D01*
X116949500Y-56424499D01*
X116949500Y-57649902D01*
X116929815Y-57716941D01*
X116913181Y-57737583D01*
X116387582Y-58263181D01*
X116326259Y-58296666D01*
X116299901Y-58299500D01*
X115777129Y-58299500D01*
X115777123Y-58299501D01*
X115717516Y-58305908D01*
X115582671Y-58356202D01*
X115582664Y-58356206D01*
X115467455Y-58442452D01*
X115467452Y-58442455D01*
X115381206Y-58557664D01*
X115381202Y-58557671D01*
X115358391Y-58618833D01*
X115316520Y-58674767D01*
X115251056Y-58699184D01*
X115242209Y-58699500D01*
X111407791Y-58699500D01*
X111340752Y-58679815D01*
X111294997Y-58627011D01*
X111291609Y-58618833D01*
X111268797Y-58557671D01*
X111268793Y-58557664D01*
X111182547Y-58442455D01*
X111182544Y-58442452D01*
X111067335Y-58356206D01*
X111067328Y-58356202D01*
X110932482Y-58305908D01*
X110932483Y-58305908D01*
X110872883Y-58299501D01*
X110872881Y-58299500D01*
X110872873Y-58299500D01*
X110872864Y-58299500D01*
X109777129Y-58299500D01*
X109777123Y-58299501D01*
X109717516Y-58305908D01*
X109582671Y-58356202D01*
X109582664Y-58356206D01*
X109467455Y-58442452D01*
X109467452Y-58442455D01*
X109381206Y-58557664D01*
X109381202Y-58557671D01*
X109358391Y-58618833D01*
X109316520Y-58674767D01*
X109251056Y-58699184D01*
X109242209Y-58699500D01*
X107724500Y-58699500D01*
X107657461Y-58679815D01*
X107611706Y-58627011D01*
X107600500Y-58575500D01*
X107600499Y-57372129D01*
X107600498Y-57372123D01*
X107594091Y-57312516D01*
X107543797Y-57177671D01*
X107543793Y-57177664D01*
X107457547Y-57062455D01*
X107457544Y-57062452D01*
X107342335Y-56976206D01*
X107342328Y-56976202D01*
X107210917Y-56927189D01*
X107154983Y-56885318D01*
X107130566Y-56819853D01*
X107145418Y-56751580D01*
X107166563Y-56723332D01*
X107288495Y-56601401D01*
X107424035Y-56407830D01*
X107523903Y-56193663D01*
X107585063Y-55965408D01*
X107605659Y-55730000D01*
X107585063Y-55494592D01*
X107523903Y-55266337D01*
X107424035Y-55052171D01*
X107411411Y-55034141D01*
X107288494Y-54858597D01*
X107121402Y-54691506D01*
X107121401Y-54691505D01*
X106935405Y-54561269D01*
X106891781Y-54506692D01*
X106884588Y-54437193D01*
X106916110Y-54374839D01*
X106935405Y-54358119D01*
X107121082Y-54228105D01*
X107288105Y-54061082D01*
X107423600Y-53867578D01*
X107523429Y-53653492D01*
X107523432Y-53653486D01*
X107580636Y-53440000D01*
X106683012Y-53440000D01*
X106715925Y-53382993D01*
X106750000Y-53255826D01*
X106750000Y-53124174D01*
X106715925Y-52997007D01*
X106683012Y-52940000D01*
X107580636Y-52940000D01*
X107580635Y-52939999D01*
X107523432Y-52726513D01*
X107523429Y-52726507D01*
X107423600Y-52512422D01*
X107423599Y-52512420D01*
X107288113Y-52318926D01*
X107288108Y-52318920D01*
X107121078Y-52151890D01*
X106935405Y-52021879D01*
X106891780Y-51967302D01*
X106884588Y-51897804D01*
X106916110Y-51835449D01*
X106935406Y-51818730D01*
X106951654Y-51807353D01*
X107121401Y-51688495D01*
X107288495Y-51521401D01*
X107424035Y-51327830D01*
X107523903Y-51113663D01*
X107585063Y-50885408D01*
X107605659Y-50650000D01*
X107597033Y-50551409D01*
X107610799Y-50482911D01*
X107659414Y-50432728D01*
X107727443Y-50416794D01*
X107786534Y-50435610D01*
G37*
%TD.AperFunction*%
%TA.AperFunction,Conductor*%
G36*
X113019372Y-52657185D02*
G01*
X113065127Y-52709989D01*
X113076333Y-52761500D01*
X113076333Y-52812500D01*
X116351000Y-52812500D01*
X116418039Y-52832185D01*
X116463794Y-52884989D01*
X116475000Y-52936500D01*
X116475000Y-54149999D01*
X116749972Y-54149999D01*
X116749984Y-54149998D01*
X116812897Y-54143571D01*
X116881590Y-54156340D01*
X116932475Y-54204221D01*
X116949500Y-54266929D01*
X116949500Y-54425500D01*
X116929815Y-54492539D01*
X116877011Y-54538294D01*
X116825500Y-54549500D01*
X115777129Y-54549500D01*
X115777123Y-54549501D01*
X115717516Y-54555908D01*
X115582671Y-54606202D01*
X115582664Y-54606206D01*
X115467455Y-54692452D01*
X115467452Y-54692455D01*
X115381206Y-54807664D01*
X115381202Y-54807671D01*
X115358391Y-54868833D01*
X115316520Y-54924767D01*
X115251056Y-54949184D01*
X115242209Y-54949500D01*
X111407791Y-54949500D01*
X111340752Y-54929815D01*
X111294997Y-54877011D01*
X111291609Y-54868833D01*
X111268797Y-54807671D01*
X111268793Y-54807664D01*
X111182547Y-54692455D01*
X111182544Y-54692452D01*
X111067335Y-54606206D01*
X111067328Y-54606202D01*
X110932482Y-54555908D01*
X110932483Y-54555908D01*
X110872883Y-54549501D01*
X110872881Y-54549500D01*
X110872873Y-54549500D01*
X110872865Y-54549500D01*
X110849500Y-54549500D01*
X110782461Y-54529815D01*
X110736706Y-54477011D01*
X110725500Y-54425500D01*
X110725500Y-54205300D01*
X110745185Y-54138261D01*
X110797989Y-54092506D01*
X110810482Y-54087599D01*
X110894334Y-54059814D01*
X111043656Y-53967712D01*
X111167712Y-53843656D01*
X111188626Y-53809747D01*
X111240571Y-53763025D01*
X111309533Y-53751801D01*
X111359262Y-53769307D01*
X111507025Y-53860450D01*
X111507032Y-53860453D01*
X111670680Y-53914680D01*
X111771685Y-53924999D01*
X111808333Y-53924999D01*
X112308333Y-53924999D01*
X112344973Y-53924999D01*
X112344987Y-53924998D01*
X112445985Y-53914680D01*
X112609633Y-53860453D01*
X112609640Y-53860450D01*
X112746658Y-53775935D01*
X112814050Y-53757494D01*
X112880714Y-53778416D01*
X112917294Y-53816376D01*
X112949346Y-53868340D01*
X112949349Y-53868344D01*
X113073320Y-53992315D01*
X113222541Y-54084356D01*
X113222546Y-54084358D01*
X113388968Y-54139505D01*
X113388975Y-54139506D01*
X113491685Y-54149999D01*
X113766665Y-54149999D01*
X114266666Y-54149999D01*
X114541638Y-54149999D01*
X114541652Y-54149998D01*
X114644363Y-54139505D01*
X114810785Y-54084358D01*
X114810790Y-54084356D01*
X114960011Y-53992315D01*
X115033152Y-53919175D01*
X115094475Y-53885690D01*
X115164167Y-53890674D01*
X115208514Y-53919175D01*
X115281654Y-53992315D01*
X115430875Y-54084356D01*
X115430880Y-54084358D01*
X115597302Y-54139505D01*
X115597309Y-54139506D01*
X115700019Y-54149999D01*
X115974999Y-54149999D01*
X115975000Y-54149998D01*
X115975000Y-53312500D01*
X114266666Y-53312500D01*
X114266666Y-54149999D01*
X113766665Y-54149999D01*
X113766666Y-54149998D01*
X113766666Y-53312500D01*
X112872666Y-53312500D01*
X112805627Y-53292815D01*
X112759872Y-53240011D01*
X112748666Y-53188500D01*
X112748666Y-53137500D01*
X112308333Y-53137500D01*
X112308333Y-53924999D01*
X111808333Y-53924999D01*
X111808333Y-52761500D01*
X111828018Y-52694461D01*
X111880822Y-52648706D01*
X111932333Y-52637500D01*
X112952333Y-52637500D01*
X113019372Y-52657185D01*
G37*
%TD.AperFunction*%
%TA.AperFunction,Conductor*%
G36*
X109704935Y-48190185D02*
G01*
X109750690Y-48242989D01*
X109760835Y-48278317D01*
X109763940Y-48301905D01*
X109763940Y-48334273D01*
X109749501Y-48443949D01*
X109749500Y-48443966D01*
X109749500Y-48696047D01*
X109763689Y-48803814D01*
X109763689Y-48836186D01*
X109749500Y-48943952D01*
X109749500Y-49196047D01*
X109751432Y-49210717D01*
X109764452Y-49309611D01*
X109764635Y-49310997D01*
X109764636Y-49311002D01*
X109823882Y-49454036D01*
X109839772Y-49474744D01*
X109918133Y-49576867D01*
X110040963Y-49671117D01*
X110040962Y-49671117D01*
X110076746Y-49685939D01*
X110131150Y-49729780D01*
X110153215Y-49796074D01*
X110135936Y-49863773D01*
X110084799Y-49911384D01*
X110029294Y-49924500D01*
X109925097Y-49924500D01*
X109858058Y-49904815D01*
X109837416Y-49888181D01*
X109337590Y-49388355D01*
X109337588Y-49388352D01*
X109218717Y-49269481D01*
X109218709Y-49269475D01*
X109116936Y-49210717D01*
X109116934Y-49210716D01*
X109081790Y-49190425D01*
X109081789Y-49190424D01*
X109069263Y-49187067D01*
X108929057Y-49149499D01*
X108899097Y-49149499D01*
X108832058Y-49129814D01*
X108786303Y-49077010D01*
X108776359Y-49007852D01*
X108805384Y-48944296D01*
X108811416Y-48937818D01*
X108902100Y-48847135D01*
X109542417Y-48206819D01*
X109603740Y-48173334D01*
X109630098Y-48170500D01*
X109637896Y-48170500D01*
X109704935Y-48190185D01*
G37*
%TD.AperFunction*%
%TA.AperFunction,Conductor*%
G36*
X133266703Y-49051996D02*
G01*
X133304478Y-49110774D01*
X133309501Y-49145710D01*
X133309501Y-49192876D01*
X133315908Y-49252483D01*
X133366202Y-49387328D01*
X133366206Y-49387335D01*
X133452452Y-49502544D01*
X133457227Y-49507319D01*
X133490712Y-49568642D01*
X133485728Y-49638334D01*
X133457227Y-49682681D01*
X133452452Y-49687455D01*
X133366206Y-49802664D01*
X133366204Y-49802668D01*
X133366204Y-49802669D01*
X133362039Y-49813834D01*
X133320171Y-49869766D01*
X133254707Y-49894184D01*
X133245859Y-49894500D01*
X132741670Y-49894500D01*
X132741654Y-49894499D01*
X132740614Y-49894499D01*
X132740334Y-49894416D01*
X132726290Y-49893542D01*
X132726282Y-49893541D01*
X132726673Y-49890405D01*
X132673575Y-49874814D01*
X132673573Y-49874813D01*
X132643144Y-49855257D01*
X132643136Y-49855252D01*
X132512255Y-49795481D01*
X132493070Y-49789848D01*
X132434292Y-49752073D01*
X132405269Y-49688516D01*
X132415214Y-49619358D01*
X132460970Y-49566555D01*
X132493070Y-49551896D01*
X132552259Y-49534517D01*
X132683137Y-49474747D01*
X132698530Y-49464855D01*
X132798475Y-49400624D01*
X132799915Y-49399804D01*
X132804098Y-49397011D01*
X132864698Y-49344500D01*
X132912832Y-49302791D01*
X133006986Y-49194130D01*
X133081185Y-49078671D01*
X133133988Y-49032916D01*
X133203147Y-49022972D01*
X133266703Y-49051996D01*
G37*
%TD.AperFunction*%
%TA.AperFunction,Conductor*%
G36*
X112986366Y-46409919D02*
G01*
X113017559Y-46472439D01*
X113019500Y-46494295D01*
X113019500Y-48515470D01*
X112999815Y-48582509D01*
X112947011Y-48628264D01*
X112877853Y-48638208D01*
X112814297Y-48609183D01*
X112807819Y-48603151D01*
X112413022Y-48208355D01*
X112413020Y-48208352D01*
X112316179Y-48111511D01*
X112282694Y-48050188D01*
X112287678Y-47980496D01*
X112298106Y-47961692D01*
X112297050Y-47961082D01*
X112299403Y-47957006D01*
X112302167Y-47954369D01*
X112305575Y-47948226D01*
X112306155Y-47947472D01*
X112307951Y-47948853D01*
X112349967Y-47908787D01*
X112358212Y-47906786D01*
X112368549Y-47894999D01*
X112361059Y-47838096D01*
X112361059Y-47805726D01*
X112361655Y-47801204D01*
X112375500Y-47696040D01*
X112375500Y-47443960D01*
X112361310Y-47336178D01*
X112361310Y-47303821D01*
X112375500Y-47196040D01*
X112375500Y-46943960D01*
X112360365Y-46829001D01*
X112319541Y-46730443D01*
X112301118Y-46685965D01*
X112301117Y-46685964D01*
X112301117Y-46685963D01*
X112257778Y-46629483D01*
X112232586Y-46564316D01*
X112246624Y-46495872D01*
X112295438Y-46445882D01*
X112356156Y-46429999D01*
X112624258Y-46429999D01*
X112624272Y-46429998D01*
X112726983Y-46419505D01*
X112856496Y-46376589D01*
X112926324Y-46374187D01*
X112986366Y-46409919D01*
G37*
%TD.AperFunction*%
%TA.AperFunction,Conductor*%
G36*
X122157847Y-44215185D02*
G01*
X122203602Y-44267989D01*
X122213546Y-44337147D01*
X122184521Y-44400703D01*
X122155905Y-44425039D01*
X122155667Y-44425185D01*
X122155666Y-44425186D01*
X122060167Y-44484089D01*
X122006342Y-44517289D01*
X121882289Y-44641342D01*
X121790187Y-44790663D01*
X121790185Y-44790668D01*
X121770817Y-44849117D01*
X121735001Y-44957203D01*
X121735001Y-44957204D01*
X121735000Y-44957204D01*
X121724500Y-45059983D01*
X121724500Y-46110001D01*
X121724501Y-46110019D01*
X121735000Y-46212796D01*
X121735001Y-46212799D01*
X121790185Y-46379331D01*
X121790187Y-46379336D01*
X121814964Y-46419506D01*
X121882287Y-46528655D01*
X121882289Y-46528657D01*
X122006344Y-46652712D01*
X122048147Y-46678496D01*
X122094872Y-46730443D01*
X122106095Y-46799406D01*
X122078252Y-46863488D01*
X122046173Y-46890767D01*
X121968135Y-46936919D01*
X121968129Y-46936923D01*
X121851923Y-47053129D01*
X121851917Y-47053137D01*
X121768255Y-47194603D01*
X121768254Y-47194606D01*
X121722402Y-47352426D01*
X121722401Y-47352432D01*
X121719500Y-47389298D01*
X121719500Y-47820701D01*
X121722401Y-47857567D01*
X121722402Y-47857573D01*
X121768254Y-48015393D01*
X121768255Y-48015396D01*
X121821156Y-48104847D01*
X121838339Y-48172571D01*
X121816179Y-48238834D01*
X121761713Y-48282597D01*
X121746518Y-48287743D01*
X121643214Y-48315423D01*
X121633035Y-48321300D01*
X121565134Y-48337768D01*
X121499108Y-48314912D01*
X121455921Y-48259988D01*
X121447513Y-48203103D01*
X121455659Y-48110000D01*
X121435063Y-47874592D01*
X121387004Y-47695233D01*
X121373905Y-47646344D01*
X121373904Y-47646343D01*
X121373903Y-47646337D01*
X121274035Y-47432171D01*
X121274034Y-47432169D01*
X121138494Y-47238597D01*
X120971402Y-47071506D01*
X120971395Y-47071501D01*
X120777834Y-46935967D01*
X120777830Y-46935965D01*
X120688462Y-46894292D01*
X120563663Y-46836097D01*
X120563659Y-46836096D01*
X120563655Y-46836094D01*
X120335413Y-46774938D01*
X120335403Y-46774936D01*
X120100001Y-46754341D01*
X120099999Y-46754341D01*
X119864596Y-46774936D01*
X119864583Y-46774939D01*
X119736241Y-46809327D01*
X119666392Y-46807664D01*
X119616468Y-46777233D01*
X119547590Y-46708355D01*
X119547588Y-46708352D01*
X119428717Y-46589481D01*
X119428709Y-46589475D01*
X119323366Y-46528656D01*
X119323365Y-46528655D01*
X119323365Y-46528656D01*
X119291785Y-46510423D01*
X119194934Y-46484471D01*
X119135277Y-46448108D01*
X119104748Y-46385261D01*
X119113043Y-46315885D01*
X119139350Y-46277017D01*
X119143653Y-46272713D01*
X119143656Y-46272712D01*
X119237674Y-46178693D01*
X119298995Y-46145210D01*
X119368687Y-46150194D01*
X119413034Y-46178695D01*
X119506654Y-46272315D01*
X119655875Y-46364356D01*
X119655880Y-46364358D01*
X119822302Y-46419505D01*
X119822309Y-46419506D01*
X119925019Y-46429999D01*
X120074999Y-46429999D01*
X120575000Y-46429999D01*
X120724972Y-46429999D01*
X120724986Y-46429998D01*
X120827697Y-46419505D01*
X120994119Y-46364358D01*
X120994124Y-46364356D01*
X121143345Y-46272315D01*
X121267315Y-46148345D01*
X121359356Y-45999124D01*
X121359358Y-45999119D01*
X121414505Y-45832697D01*
X121414506Y-45832690D01*
X121424999Y-45729986D01*
X121425000Y-45729973D01*
X121425000Y-45480000D01*
X120575000Y-45480000D01*
X120575000Y-46429999D01*
X120074999Y-46429999D01*
X120075000Y-46429998D01*
X120075000Y-45104000D01*
X120094685Y-45036961D01*
X120147489Y-44991206D01*
X120199000Y-44980000D01*
X121424999Y-44980000D01*
X121424999Y-44730028D01*
X121424998Y-44730013D01*
X121414505Y-44627302D01*
X121359358Y-44460880D01*
X121359356Y-44460875D01*
X121312307Y-44384597D01*
X121293867Y-44317204D01*
X121314790Y-44250541D01*
X121368432Y-44205771D01*
X121417846Y-44195500D01*
X122090808Y-44195500D01*
X122157847Y-44215185D01*
G37*
%TD.AperFunction*%
%TA.AperFunction,Conductor*%
G36*
X117155969Y-45737376D02*
G01*
X117211903Y-45779247D01*
X117233890Y-45827606D01*
X117235001Y-45832799D01*
X117290185Y-45999331D01*
X117290187Y-45999336D01*
X117306325Y-46025500D01*
X117382096Y-46148345D01*
X117382289Y-46148657D01*
X117491451Y-46257819D01*
X117524936Y-46319142D01*
X117519952Y-46388834D01*
X117478080Y-46444767D01*
X117412616Y-46469184D01*
X117403770Y-46469500D01*
X116335191Y-46469500D01*
X116287739Y-46460061D01*
X116165999Y-46409635D01*
X116151629Y-46407743D01*
X116051047Y-46394500D01*
X116051040Y-46394500D01*
X114523960Y-46394500D01*
X114523952Y-46394500D01*
X114421774Y-46407953D01*
X114409001Y-46409635D01*
X114408999Y-46409635D01*
X114408994Y-46409637D01*
X114391949Y-46416697D01*
X114322480Y-46424164D01*
X114260002Y-46392887D01*
X114224351Y-46332797D01*
X114220500Y-46302135D01*
X114220500Y-46240097D01*
X114240185Y-46173058D01*
X114256819Y-46152416D01*
X114347417Y-46061818D01*
X114408740Y-46028333D01*
X114435098Y-46025499D01*
X114758813Y-46025499D01*
X114758819Y-46025499D01*
X114859896Y-46015174D01*
X115023659Y-45960908D01*
X115170493Y-45870340D01*
X115209462Y-45831371D01*
X115270785Y-45797886D01*
X115340477Y-45802870D01*
X115384824Y-45831371D01*
X115423793Y-45870340D01*
X115570627Y-45960908D01*
X115734390Y-46015174D01*
X115835466Y-46025500D01*
X116508819Y-46025499D01*
X116508827Y-46025498D01*
X116508830Y-46025498D01*
X116571883Y-46019057D01*
X116609896Y-46015174D01*
X116773659Y-45960908D01*
X116920493Y-45870340D01*
X117024958Y-45765874D01*
X117086277Y-45732392D01*
X117155969Y-45737376D01*
G37*
%TD.AperFunction*%
%TA.AperFunction,Conductor*%
G36*
X124233798Y-44215185D02*
G01*
X124279553Y-44267989D01*
X124289497Y-44337147D01*
X124260472Y-44400703D01*
X124231856Y-44425039D01*
X124081654Y-44517684D01*
X123957683Y-44641655D01*
X123957679Y-44641660D01*
X123955826Y-44644665D01*
X123954018Y-44646290D01*
X123953202Y-44647323D01*
X123953025Y-44647183D01*
X123903874Y-44691385D01*
X123834911Y-44702601D01*
X123770831Y-44674752D01*
X123744753Y-44644653D01*
X123744737Y-44644628D01*
X123742712Y-44641344D01*
X123618656Y-44517288D01*
X123469334Y-44425186D01*
X123469332Y-44425185D01*
X123469095Y-44425039D01*
X123422371Y-44373091D01*
X123411148Y-44304129D01*
X123438992Y-44240046D01*
X123497060Y-44201190D01*
X123534192Y-44195500D01*
X124166759Y-44195500D01*
X124233798Y-44215185D01*
G37*
%TD.AperFunction*%
%TD*%
M02*
