%TF.GenerationSoftware,KiCad,Pcbnew,8.0.2*%
%TF.CreationDate,2024-05-05T20:52:19-05:00*%
%TF.ProjectId,ch554_USB_Host_Test,63683535-345f-4555-9342-5f486f73745f,rev?*%
%TF.SameCoordinates,Original*%
%TF.FileFunction,Soldermask,Top*%
%TF.FilePolarity,Negative*%
%FSLAX46Y46*%
G04 Gerber Fmt 4.6, Leading zero omitted, Abs format (unit mm)*
G04 Created by KiCad (PCBNEW 8.0.2) date 2024-05-05 20:52:19*
%MOMM*%
%LPD*%
G01*
G04 APERTURE LIST*
G04 Aperture macros list*
%AMRoundRect*
0 Rectangle with rounded corners*
0 $1 Rounding radius*
0 $2 $3 $4 $5 $6 $7 $8 $9 X,Y pos of 4 corners*
0 Add a 4 corners polygon primitive as box body*
4,1,4,$2,$3,$4,$5,$6,$7,$8,$9,$2,$3,0*
0 Add four circle primitives for the rounded corners*
1,1,$1+$1,$2,$3*
1,1,$1+$1,$4,$5*
1,1,$1+$1,$6,$7*
1,1,$1+$1,$8,$9*
0 Add four rect primitives between the rounded corners*
20,1,$1+$1,$2,$3,$4,$5,0*
20,1,$1+$1,$4,$5,$6,$7,0*
20,1,$1+$1,$6,$7,$8,$9,0*
20,1,$1+$1,$8,$9,$2,$3,0*%
%AMFreePoly0*
4,1,19,0.500000,-0.750000,0.000000,-0.750000,0.000000,-0.744911,-0.071157,-0.744911,-0.207708,-0.704816,-0.327430,-0.627875,-0.420627,-0.520320,-0.479746,-0.390866,-0.500000,-0.250000,-0.500000,0.250000,-0.479746,0.390866,-0.420627,0.520320,-0.327430,0.627875,-0.207708,0.704816,-0.071157,0.744911,0.000000,0.744911,0.000000,0.750000,0.500000,0.750000,0.500000,-0.750000,0.500000,-0.750000,
$1*%
%AMFreePoly1*
4,1,19,0.000000,0.744911,0.071157,0.744911,0.207708,0.704816,0.327430,0.627875,0.420627,0.520320,0.479746,0.390866,0.500000,0.250000,0.500000,-0.250000,0.479746,-0.390866,0.420627,-0.520320,0.327430,-0.627875,0.207708,-0.704816,0.071157,-0.744911,0.000000,-0.744911,0.000000,-0.750000,-0.500000,-0.750000,-0.500000,0.750000,0.000000,0.750000,0.000000,0.744911,0.000000,0.744911,
$1*%
G04 Aperture macros list end*
%ADD10C,0.001000*%
%ADD11R,0.400000X1.400000*%
%ADD12C,2.000000*%
%ADD13RoundRect,0.250000X0.450000X-0.350000X0.450000X0.350000X-0.450000X0.350000X-0.450000X-0.350000X0*%
%ADD14RoundRect,0.250000X-0.350000X-0.450000X0.350000X-0.450000X0.350000X0.450000X-0.350000X0.450000X0*%
%ADD15FreePoly0,0.000000*%
%ADD16FreePoly1,0.000000*%
%ADD17RoundRect,0.237500X0.287500X0.237500X-0.287500X0.237500X-0.287500X-0.237500X0.287500X-0.237500X0*%
%ADD18R,1.700000X1.700000*%
%ADD19O,1.700000X1.700000*%
%ADD20R,1.500000X1.600000*%
%ADD21C,1.600000*%
%ADD22C,3.000000*%
%ADD23RoundRect,0.250000X-0.337500X-0.475000X0.337500X-0.475000X0.337500X0.475000X-0.337500X0.475000X0*%
%ADD24R,3.500000X0.900000*%
%ADD25C,3.316000*%
%ADD26O,3.600000X1.800000*%
%ADD27FreePoly0,180.000000*%
%ADD28FreePoly1,180.000000*%
%ADD29RoundRect,0.250000X0.337500X0.475000X-0.337500X0.475000X-0.337500X-0.475000X0.337500X-0.475000X0*%
%ADD30C,1.000000*%
%ADD31RoundRect,0.150000X0.675000X0.150000X-0.675000X0.150000X-0.675000X-0.150000X0.675000X-0.150000X0*%
%ADD32RoundRect,0.087500X0.725000X0.087500X-0.725000X0.087500X-0.725000X-0.087500X0.725000X-0.087500X0*%
%ADD33RoundRect,0.250000X-0.475000X0.337500X-0.475000X-0.337500X0.475000X-0.337500X0.475000X0.337500X0*%
%ADD34RoundRect,0.237500X-0.237500X0.300000X-0.237500X-0.300000X0.237500X-0.300000X0.237500X0.300000X0*%
%ADD35R,1.000000X0.750000*%
G04 APERTURE END LIST*
D10*
%TO.C,J4*%
X125640000Y-58565000D03*
X129640000Y-58565000D03*
D11*
X126340000Y-57745000D03*
X126990000Y-57745000D03*
X127640000Y-57745000D03*
X128290000Y-57745000D03*
X128940000Y-57745000D03*
D12*
X124065000Y-60695000D03*
X131215000Y-60695000D03*
X131215000Y-57245000D03*
X124065000Y-57245000D03*
%TD*%
D13*
%TO.C,R4*%
X110125000Y-53025000D03*
X110125000Y-51025000D03*
%TD*%
D14*
%TO.C,R2*%
X110224286Y-45230000D03*
X112224286Y-45230000D03*
%TD*%
%TO.C,R5*%
X109952857Y-61175000D03*
X111952857Y-61175000D03*
%TD*%
D15*
%TO.C,JP3*%
X130890000Y-53510000D03*
D16*
X132190000Y-53510000D03*
%TD*%
D14*
%TO.C,R3*%
X118325000Y-45230000D03*
X120325000Y-45230000D03*
%TD*%
D17*
%TO.C,D5*%
X115900714Y-61400000D03*
X114150714Y-61400000D03*
%TD*%
D18*
%TO.C,J3*%
X106250000Y-58270000D03*
D19*
X106250000Y-55730000D03*
X106250000Y-53190000D03*
X106250000Y-50650000D03*
X106250000Y-48110000D03*
%TD*%
D20*
%TO.C,J5*%
X98385000Y-49695000D03*
D21*
X98385000Y-52195000D03*
X98385000Y-54195000D03*
X98385000Y-56695000D03*
D22*
X95675000Y-46625000D03*
X95675000Y-59765000D03*
%TD*%
D18*
%TO.C,J2*%
X120100000Y-58270000D03*
D19*
X120100000Y-55730000D03*
X120100000Y-53190000D03*
X120100000Y-50650000D03*
X120100000Y-48110000D03*
%TD*%
D23*
%TO.C,C4*%
X122772500Y-53760000D03*
X124847500Y-53760000D03*
%TD*%
D17*
%TO.C,D4*%
X107800000Y-61400000D03*
X106050000Y-61400000D03*
%TD*%
D24*
%TO.C,J6*%
X135560000Y-50495000D03*
X135560000Y-55895000D03*
X135560000Y-48695000D03*
X135560000Y-57695000D03*
D25*
X140660000Y-53195000D03*
D26*
X141360000Y-46795000D03*
X141360000Y-59595000D03*
%TD*%
D27*
%TO.C,JP4*%
X132200000Y-48340000D03*
D28*
X130900000Y-48340000D03*
%TD*%
D29*
%TO.C,C2*%
X124887500Y-45585000D03*
X122812500Y-45585000D03*
%TD*%
D17*
%TO.C,D2*%
X108026429Y-45050000D03*
X106276429Y-45050000D03*
%TD*%
D27*
%TO.C,JP5*%
X132160000Y-50990000D03*
D28*
X130860000Y-50990000D03*
%TD*%
D30*
%TO.C,TP2*%
X128070000Y-45560000D03*
%TD*%
D17*
%TO.C,D3*%
X116172143Y-45050000D03*
X114422143Y-45050000D03*
%TD*%
D31*
%TO.C,U3*%
X128295000Y-51415000D03*
X128295000Y-50145000D03*
X128295000Y-48875000D03*
X128295000Y-47605000D03*
X123045000Y-47605000D03*
X123045000Y-48875000D03*
X123045000Y-50145000D03*
X123045000Y-51415000D03*
%TD*%
D32*
%TO.C,U2*%
X115287500Y-49070000D03*
X115287500Y-48570000D03*
X115287500Y-48070000D03*
X115287500Y-47570000D03*
X115287500Y-47070000D03*
X111062500Y-47070000D03*
X111062500Y-47570000D03*
X111062500Y-48070000D03*
X111062500Y-48570000D03*
X111062500Y-49070000D03*
%TD*%
D33*
%TO.C,C5*%
X114016666Y-50987500D03*
X114016666Y-53062500D03*
%TD*%
D14*
%TO.C,R6*%
X118053572Y-61175000D03*
X120053572Y-61175000D03*
%TD*%
D33*
%TO.C,C3*%
X116225000Y-50987500D03*
X116225000Y-53062500D03*
%TD*%
D34*
%TO.C,C6*%
X112058333Y-51162500D03*
X112058333Y-52887500D03*
%TD*%
D35*
%TO.C,SW2*%
X116325000Y-59175000D03*
X110325000Y-59175000D03*
X116325000Y-55425000D03*
X110325000Y-55425000D03*
%TD*%
M02*
