%TF.GenerationSoftware,KiCad,Pcbnew,8.0.2*%
%TF.CreationDate,2025-05-11T19:16:00-07:00*%
%TF.ProjectId,Power_Relay_Pico,506f7765-725f-4526-956c-61795f506963,rev?*%
%TF.SameCoordinates,Original*%
%TF.FileFunction,Paste,Top*%
%TF.FilePolarity,Positive*%
%FSLAX46Y46*%
G04 Gerber Fmt 4.6, Leading zero omitted, Abs format (unit mm)*
G04 Created by KiCad (PCBNEW 8.0.2) date 2025-05-11 19:16:00*
%MOMM*%
%LPD*%
G01*
G04 APERTURE LIST*
G04 Aperture macros list*
%AMRoundRect*
0 Rectangle with rounded corners*
0 $1 Rounding radius*
0 $2 $3 $4 $5 $6 $7 $8 $9 X,Y pos of 4 corners*
0 Add a 4 corners polygon primitive as box body*
4,1,4,$2,$3,$4,$5,$6,$7,$8,$9,$2,$3,0*
0 Add four circle primitives for the rounded corners*
1,1,$1+$1,$2,$3*
1,1,$1+$1,$4,$5*
1,1,$1+$1,$6,$7*
1,1,$1+$1,$8,$9*
0 Add four rect primitives between the rounded corners*
20,1,$1+$1,$2,$3,$4,$5,0*
20,1,$1+$1,$4,$5,$6,$7,0*
20,1,$1+$1,$6,$7,$8,$9,0*
20,1,$1+$1,$8,$9,$2,$3,0*%
G04 Aperture macros list end*
%ADD10RoundRect,0.150000X0.150000X-0.825000X0.150000X0.825000X-0.150000X0.825000X-0.150000X-0.825000X0*%
%ADD11RoundRect,0.225000X-0.250000X0.225000X-0.250000X-0.225000X0.250000X-0.225000X0.250000X0.225000X0*%
%ADD12RoundRect,0.225000X0.250000X-0.225000X0.250000X0.225000X-0.250000X0.225000X-0.250000X-0.225000X0*%
%ADD13RoundRect,0.200000X0.275000X-0.200000X0.275000X0.200000X-0.275000X0.200000X-0.275000X-0.200000X0*%
%ADD14RoundRect,0.225000X0.225000X0.250000X-0.225000X0.250000X-0.225000X-0.250000X0.225000X-0.250000X0*%
%ADD15RoundRect,0.225000X-0.225000X-0.250000X0.225000X-0.250000X0.225000X0.250000X-0.225000X0.250000X0*%
%ADD16RoundRect,0.243750X-0.243750X-0.456250X0.243750X-0.456250X0.243750X0.456250X-0.243750X0.456250X0*%
%ADD17RoundRect,0.200000X-0.275000X0.200000X-0.275000X-0.200000X0.275000X-0.200000X0.275000X0.200000X0*%
%ADD18RoundRect,0.250000X0.625000X-0.312500X0.625000X0.312500X-0.625000X0.312500X-0.625000X-0.312500X0*%
%ADD19RoundRect,0.200000X0.200000X0.275000X-0.200000X0.275000X-0.200000X-0.275000X0.200000X-0.275000X0*%
%ADD20RoundRect,0.200000X-0.200000X-0.275000X0.200000X-0.275000X0.200000X0.275000X-0.200000X0.275000X0*%
%ADD21RoundRect,0.150000X0.825000X0.150000X-0.825000X0.150000X-0.825000X-0.150000X0.825000X-0.150000X0*%
%ADD22RoundRect,0.100000X0.637500X0.100000X-0.637500X0.100000X-0.637500X-0.100000X0.637500X-0.100000X0*%
%ADD23R,0.600000X1.050000*%
%ADD24R,0.580000X0.250000*%
%ADD25R,0.250000X0.580000*%
%ADD26R,2.900000X2.900000*%
%ADD27RoundRect,0.250000X-0.625000X0.312500X-0.625000X-0.312500X0.625000X-0.312500X0.625000X0.312500X0*%
%ADD28R,1.400000X1.200000*%
%ADD29RoundRect,0.150000X-0.825000X-0.150000X0.825000X-0.150000X0.825000X0.150000X-0.825000X0.150000X0*%
%ADD30RoundRect,0.212500X0.212500X0.212500X-0.212500X0.212500X-0.212500X-0.212500X0.212500X-0.212500X0*%
%ADD31RoundRect,0.087500X0.425000X0.087500X-0.425000X0.087500X-0.425000X-0.087500X0.425000X-0.087500X0*%
%ADD32RoundRect,0.087500X0.087500X0.425000X-0.087500X0.425000X-0.087500X-0.425000X0.087500X-0.425000X0*%
%ADD33RoundRect,0.150000X-0.150000X0.825000X-0.150000X-0.825000X0.150000X-0.825000X0.150000X0.825000X0*%
%ADD34RoundRect,0.218750X-0.218750X-0.381250X0.218750X-0.381250X0.218750X0.381250X-0.218750X0.381250X0*%
%ADD35R,1.846667X3.480000*%
G04 APERTURE END LIST*
D10*
%TO.C,U303*%
X75655000Y-83475000D03*
X76925000Y-83475000D03*
X78195000Y-83475000D03*
X79465000Y-83475000D03*
X80735000Y-83475000D03*
X82005000Y-83475000D03*
X83275000Y-83475000D03*
X84545000Y-83475000D03*
X84545000Y-78525000D03*
X83275000Y-78525000D03*
X82005000Y-78525000D03*
X80735000Y-78525000D03*
X79465000Y-78525000D03*
X78195000Y-78525000D03*
X76925000Y-78525000D03*
X75655000Y-78525000D03*
%TD*%
D11*
%TO.C,C104*%
X64250000Y-121475000D03*
X64250000Y-123025000D03*
%TD*%
D12*
%TO.C,C308*%
X89400000Y-65775000D03*
X89400000Y-64225000D03*
%TD*%
D13*
%TO.C,R521*%
X130000000Y-110295000D03*
X130000000Y-108645000D03*
%TD*%
%TO.C,R311*%
X63300000Y-65825000D03*
X63300000Y-64175000D03*
%TD*%
D14*
%TO.C,C105*%
X62525000Y-127750000D03*
X60975000Y-127750000D03*
%TD*%
D15*
%TO.C,C405*%
X81750000Y-133000000D03*
X83300000Y-133000000D03*
%TD*%
D16*
%TO.C,D102*%
X51062500Y-139250000D03*
X52937500Y-139250000D03*
%TD*%
D13*
%TO.C,R302*%
X69950000Y-55825000D03*
X69950000Y-54175000D03*
%TD*%
D12*
%TO.C,C301*%
X59100000Y-55775000D03*
X59100000Y-54225000D03*
%TD*%
D13*
%TO.C,R314*%
X87150000Y-65825000D03*
X87150000Y-64175000D03*
%TD*%
D17*
%TO.C,R107*%
X60750000Y-121425000D03*
X60750000Y-123075000D03*
%TD*%
D18*
%TO.C,R503*%
X111882500Y-125962500D03*
X111882500Y-123037500D03*
%TD*%
D13*
%TO.C,R520*%
X128250000Y-110295000D03*
X128250000Y-108645000D03*
%TD*%
D19*
%TO.C,R518*%
X135825000Y-130500000D03*
X134175000Y-130500000D03*
%TD*%
D17*
%TO.C,R522*%
X130000000Y-118000000D03*
X130000000Y-119650000D03*
%TD*%
%TO.C,R105*%
X69250000Y-132425000D03*
X69250000Y-134075000D03*
%TD*%
D19*
%TO.C,R512*%
X129825000Y-130500000D03*
X128175000Y-130500000D03*
%TD*%
D20*
%TO.C,R508*%
X94175000Y-128537500D03*
X95825000Y-128537500D03*
%TD*%
D15*
%TO.C,C113*%
X70975000Y-131750000D03*
X72525000Y-131750000D03*
%TD*%
D17*
%TO.C,R317*%
X63250000Y-73925000D03*
X63250000Y-75575000D03*
%TD*%
D13*
%TO.C,R308*%
X84800000Y-55825000D03*
X84800000Y-54175000D03*
%TD*%
D12*
%TO.C,C305*%
X72200000Y-55775000D03*
X72200000Y-54225000D03*
%TD*%
D21*
%TO.C,U302*%
X88975000Y-97695000D03*
X88975000Y-96425000D03*
X88975000Y-95155000D03*
X88975000Y-93885000D03*
X88975000Y-92615000D03*
X88975000Y-91345000D03*
X88975000Y-90075000D03*
X88975000Y-88805000D03*
X84025000Y-88805000D03*
X84025000Y-90075000D03*
X84025000Y-91345000D03*
X84025000Y-92615000D03*
X84025000Y-93885000D03*
X84025000Y-95155000D03*
X84025000Y-96425000D03*
X84025000Y-97695000D03*
%TD*%
D22*
%TO.C,U401*%
X79112500Y-137775000D03*
X79112500Y-137125000D03*
X79112500Y-136475000D03*
X79112500Y-135825000D03*
X79112500Y-135175000D03*
X79112500Y-134525000D03*
X79112500Y-133875000D03*
X79112500Y-133225000D03*
X73387500Y-133225000D03*
X73387500Y-133875000D03*
X73387500Y-134525000D03*
X73387500Y-135175000D03*
X73387500Y-135825000D03*
X73387500Y-136475000D03*
X73387500Y-137125000D03*
X73387500Y-137775000D03*
%TD*%
D20*
%TO.C,R515*%
X111175000Y-128500000D03*
X112825000Y-128500000D03*
%TD*%
D13*
%TO.C,R104*%
X66000000Y-136825000D03*
X66000000Y-135175000D03*
%TD*%
D21*
%TO.C,U301*%
X88975000Y-107925000D03*
X88975000Y-106655000D03*
X88975000Y-105385000D03*
X88975000Y-104115000D03*
X88975000Y-102845000D03*
X88975000Y-101575000D03*
X88975000Y-100305000D03*
X84025000Y-100305000D03*
X84025000Y-101575000D03*
X84025000Y-102845000D03*
X84025000Y-104115000D03*
X84025000Y-105385000D03*
X84025000Y-106655000D03*
X84025000Y-107925000D03*
%TD*%
D13*
%TO.C,R316*%
X84900000Y-65825000D03*
X84900000Y-64175000D03*
%TD*%
D14*
%TO.C,C403*%
X83300000Y-138500000D03*
X81750000Y-138500000D03*
%TD*%
D15*
%TO.C,C112*%
X70975000Y-130000000D03*
X72525000Y-130000000D03*
%TD*%
D13*
%TO.C,R304*%
X67700000Y-55825000D03*
X67700000Y-54175000D03*
%TD*%
D20*
%TO.C,R527*%
X132850000Y-109000000D03*
X134500000Y-109000000D03*
%TD*%
D12*
%TO.C,C106*%
X64000000Y-138775000D03*
X64000000Y-137225000D03*
%TD*%
D20*
%TO.C,R106*%
X52750000Y-133250000D03*
X54400000Y-133250000D03*
%TD*%
D13*
%TO.C,R303*%
X63700000Y-55825000D03*
X63700000Y-54175000D03*
%TD*%
D19*
%TO.C,R510*%
X112825000Y-130500000D03*
X111175000Y-130500000D03*
%TD*%
D18*
%TO.C,R504*%
X117882500Y-125962500D03*
X117882500Y-123037500D03*
%TD*%
D12*
%TO.C,C302*%
X76200000Y-55775000D03*
X76200000Y-54225000D03*
%TD*%
D14*
%TO.C,C404*%
X83300000Y-134833333D03*
X81750000Y-134833333D03*
%TD*%
D19*
%TO.C,R114*%
X110000000Y-58500000D03*
X108350000Y-58500000D03*
%TD*%
D23*
%TO.C,L101*%
X63500000Y-135525000D03*
X63500000Y-132475000D03*
X62500000Y-132475000D03*
X62500000Y-135525000D03*
%TD*%
D24*
%TO.C,IC1*%
X64990000Y-125990000D03*
X64990000Y-126390000D03*
X64990000Y-126790000D03*
X64990000Y-127190000D03*
X64990000Y-127590000D03*
X64990000Y-127990000D03*
X64990000Y-128390000D03*
X64990000Y-128790000D03*
D25*
X65450000Y-129250000D03*
X65850000Y-129250000D03*
X66250000Y-129250000D03*
X66650000Y-129250000D03*
X67050000Y-129250000D03*
X67450000Y-129250000D03*
X67850000Y-129250000D03*
X68250000Y-129250000D03*
D24*
X68710000Y-128790000D03*
X68710000Y-128390000D03*
X68710000Y-127990000D03*
X68710000Y-127590000D03*
X68710000Y-127190000D03*
X68710000Y-126790000D03*
X68710000Y-126390000D03*
X68710000Y-125990000D03*
D25*
X68250000Y-125530000D03*
X67850000Y-125530000D03*
X67450000Y-125530000D03*
X67050000Y-125530000D03*
X66650000Y-125530000D03*
X66250000Y-125530000D03*
X65850000Y-125530000D03*
X65450000Y-125530000D03*
D26*
X66850000Y-127390000D03*
%TD*%
D27*
%TO.C,R123*%
X115000000Y-128537500D03*
X115000000Y-131462500D03*
%TD*%
D20*
%TO.C,R517*%
X128175000Y-128537500D03*
X129825000Y-128537500D03*
%TD*%
D19*
%TO.C,R115*%
X143575000Y-130500000D03*
X141925000Y-130500000D03*
%TD*%
D13*
%TO.C,R519*%
X126500000Y-110295000D03*
X126500000Y-108645000D03*
%TD*%
%TO.C,R312*%
X67800000Y-65825000D03*
X67800000Y-64175000D03*
%TD*%
D12*
%TO.C,C401*%
X70750000Y-138050000D03*
X70750000Y-136500000D03*
%TD*%
D13*
%TO.C,R301*%
X61400000Y-55825000D03*
X61400000Y-54175000D03*
%TD*%
D28*
%TO.C,Y2*%
X62250000Y-109450000D03*
X64450000Y-109450000D03*
X64450000Y-107750000D03*
X62250000Y-107750000D03*
%TD*%
D20*
%TO.C,R318*%
X79750000Y-121220000D03*
X81400000Y-121220000D03*
%TD*%
D29*
%TO.C,U305*%
X74000000Y-100460000D03*
X74000000Y-101730000D03*
X74000000Y-103000000D03*
X74000000Y-104270000D03*
X74000000Y-105540000D03*
X74000000Y-106810000D03*
X74000000Y-108080000D03*
X78950000Y-108080000D03*
X78950000Y-106810000D03*
X78950000Y-105540000D03*
X78950000Y-104270000D03*
X78950000Y-103000000D03*
X78950000Y-101730000D03*
X78950000Y-100460000D03*
%TD*%
D19*
%TO.C,R112*%
X56325000Y-141500000D03*
X54675000Y-141500000D03*
%TD*%
D11*
%TO.C,C101*%
X66500000Y-121750000D03*
X66500000Y-123300000D03*
%TD*%
D30*
%TO.C,U501*%
X132500000Y-115000000D03*
X132500000Y-113950000D03*
X131450000Y-115000000D03*
X131450000Y-113950000D03*
D31*
X133837500Y-115450000D03*
X133837500Y-114800000D03*
X133837500Y-114150000D03*
X133837500Y-113500000D03*
D32*
X132950000Y-112612500D03*
X132300000Y-112612500D03*
X131650000Y-112612500D03*
X131000000Y-112612500D03*
D31*
X130112500Y-113500000D03*
X130112500Y-114150000D03*
X130112500Y-114800000D03*
X130112500Y-115450000D03*
D32*
X131000000Y-116337500D03*
X131650000Y-116337500D03*
X132300000Y-116337500D03*
X132950000Y-116337500D03*
%TD*%
D27*
%TO.C,R122*%
X98000000Y-128537500D03*
X98000000Y-131462500D03*
%TD*%
D20*
%TO.C,R526*%
X131675000Y-110500000D03*
X133325000Y-110500000D03*
%TD*%
%TO.C,R321*%
X79750000Y-128750000D03*
X81400000Y-128750000D03*
%TD*%
%TO.C,R319*%
X79750000Y-123730000D03*
X81400000Y-123730000D03*
%TD*%
D14*
%TO.C,C501*%
X137950000Y-112500000D03*
X136400000Y-112500000D03*
%TD*%
D33*
%TO.C,U102*%
X116695000Y-112275000D03*
X115425000Y-112275000D03*
X114155000Y-112275000D03*
X112885000Y-112275000D03*
X111615000Y-112275000D03*
X110345000Y-112275000D03*
X109075000Y-112275000D03*
X107805000Y-112275000D03*
X107805000Y-117225000D03*
X109075000Y-117225000D03*
X110345000Y-117225000D03*
X111615000Y-117225000D03*
X112885000Y-117225000D03*
X114155000Y-117225000D03*
X115425000Y-117225000D03*
X116695000Y-117225000D03*
%TD*%
D19*
%TO.C,R514*%
X101825000Y-130500000D03*
X100175000Y-130500000D03*
%TD*%
D21*
%TO.C,U306*%
X78950000Y-97695000D03*
X78950000Y-96425000D03*
X78950000Y-95155000D03*
X78950000Y-93885000D03*
X78950000Y-92615000D03*
X78950000Y-91345000D03*
X78950000Y-90075000D03*
X78950000Y-88805000D03*
X74000000Y-88805000D03*
X74000000Y-90075000D03*
X74000000Y-91345000D03*
X74000000Y-92615000D03*
X74000000Y-93885000D03*
X74000000Y-95155000D03*
X74000000Y-96425000D03*
X74000000Y-97695000D03*
%TD*%
D18*
%TO.C,R124*%
X132000000Y-131462500D03*
X132000000Y-128537500D03*
%TD*%
D19*
%TO.C,R113*%
X110000000Y-61010000D03*
X108350000Y-61010000D03*
%TD*%
D12*
%TO.C,C306*%
X89400000Y-55775000D03*
X89400000Y-54225000D03*
%TD*%
D15*
%TO.C,C402*%
X81750000Y-136666666D03*
X83300000Y-136666666D03*
%TD*%
D13*
%TO.C,R119*%
X67500000Y-75825000D03*
X67500000Y-74175000D03*
%TD*%
%TO.C,R305*%
X78500000Y-55825000D03*
X78500000Y-54175000D03*
%TD*%
%TO.C,R307*%
X80800000Y-55825000D03*
X80800000Y-54175000D03*
%TD*%
D19*
%TO.C,R507*%
X95825000Y-130500000D03*
X94175000Y-130500000D03*
%TD*%
D12*
%TO.C,C303*%
X58800000Y-65775000D03*
X58800000Y-64225000D03*
%TD*%
D13*
%TO.C,R313*%
X78650000Y-65825000D03*
X78650000Y-64175000D03*
%TD*%
%TO.C,R306*%
X87100000Y-55825000D03*
X87100000Y-54175000D03*
%TD*%
D12*
%TO.C,C103*%
X54750000Y-123275000D03*
X54750000Y-121725000D03*
%TD*%
D19*
%TO.C,R109*%
X56325000Y-139250000D03*
X54675000Y-139250000D03*
%TD*%
D20*
%TO.C,R509*%
X100175000Y-128537500D03*
X101825000Y-128537500D03*
%TD*%
D19*
%TO.C,R110*%
X56325000Y-137000000D03*
X54675000Y-137000000D03*
%TD*%
D13*
%TO.C,R310*%
X70050000Y-65825000D03*
X70050000Y-64175000D03*
%TD*%
D16*
%TO.C,D106*%
X146082500Y-121150000D03*
X147957500Y-121150000D03*
%TD*%
D12*
%TO.C,C107*%
X62000000Y-138775000D03*
X62000000Y-137225000D03*
%TD*%
D18*
%TO.C,R501*%
X95000000Y-125962500D03*
X95000000Y-123037500D03*
%TD*%
D16*
%TO.C,D103*%
X51062500Y-141500000D03*
X52937500Y-141500000D03*
%TD*%
D18*
%TO.C,R505*%
X129000000Y-125962500D03*
X129000000Y-123037500D03*
%TD*%
D19*
%TO.C,R523*%
X138000000Y-108833333D03*
X136350000Y-108833333D03*
%TD*%
D16*
%TO.C,D108*%
X146082500Y-114750000D03*
X147957500Y-114750000D03*
%TD*%
D10*
%TO.C,U304*%
X61655000Y-83375000D03*
X62925000Y-83375000D03*
X64195000Y-83375000D03*
X65465000Y-83375000D03*
X66735000Y-83375000D03*
X68005000Y-83375000D03*
X69275000Y-83375000D03*
X70545000Y-83375000D03*
X70545000Y-78425000D03*
X69275000Y-78425000D03*
X68005000Y-78425000D03*
X66735000Y-78425000D03*
X65465000Y-78425000D03*
X64195000Y-78425000D03*
X62925000Y-78425000D03*
X61655000Y-78425000D03*
%TD*%
D15*
%TO.C,C109*%
X52800000Y-135250000D03*
X54350000Y-135250000D03*
%TD*%
D12*
%TO.C,C304*%
X76400000Y-65775000D03*
X76400000Y-64225000D03*
%TD*%
D17*
%TO.C,R121*%
X85000000Y-74000000D03*
X85000000Y-75650000D03*
%TD*%
D20*
%TO.C,R511*%
X117175000Y-128537500D03*
X118825000Y-128537500D03*
%TD*%
D13*
%TO.C,R118*%
X59000000Y-75650000D03*
X59000000Y-74000000D03*
%TD*%
D19*
%TO.C,R117*%
X143575000Y-118000000D03*
X141925000Y-118000000D03*
%TD*%
D28*
%TO.C,Y1*%
X58850000Y-121650000D03*
X56650000Y-121650000D03*
X56650000Y-123350000D03*
X58850000Y-123350000D03*
%TD*%
D20*
%TO.C,R513*%
X134175000Y-128537500D03*
X135825000Y-128537500D03*
%TD*%
D12*
%TO.C,C307*%
X72300000Y-65775000D03*
X72300000Y-64225000D03*
%TD*%
D16*
%TO.C,D104*%
X146082500Y-127550000D03*
X147957500Y-127550000D03*
%TD*%
D19*
%TO.C,R116*%
X143575000Y-124500000D03*
X141925000Y-124500000D03*
%TD*%
D13*
%TO.C,R108*%
X62500000Y-123075000D03*
X62500000Y-121425000D03*
%TD*%
D20*
%TO.C,R524*%
X136350000Y-110666666D03*
X138000000Y-110666666D03*
%TD*%
D16*
%TO.C,D101*%
X51062500Y-137000000D03*
X52937500Y-137000000D03*
%TD*%
D18*
%TO.C,R506*%
X135000000Y-125962500D03*
X135000000Y-123037500D03*
%TD*%
D12*
%TO.C,C108*%
X65500000Y-133025000D03*
X65500000Y-131475000D03*
%TD*%
D13*
%TO.C,R309*%
X61050000Y-65825000D03*
X61050000Y-64175000D03*
%TD*%
D19*
%TO.C,R525*%
X138000000Y-107000000D03*
X136350000Y-107000000D03*
%TD*%
D13*
%TO.C,R103*%
X60000000Y-136825000D03*
X60000000Y-135175000D03*
%TD*%
D18*
%TO.C,R502*%
X101000000Y-125962500D03*
X101000000Y-123037500D03*
%TD*%
D20*
%TO.C,R320*%
X79750000Y-126240000D03*
X81400000Y-126240000D03*
%TD*%
D19*
%TO.C,R111*%
X65325000Y-116750000D03*
X63675000Y-116750000D03*
%TD*%
D13*
%TO.C,R315*%
X80900000Y-65825000D03*
X80900000Y-64175000D03*
%TD*%
D19*
%TO.C,R516*%
X118825000Y-130500000D03*
X117175000Y-130500000D03*
%TD*%
D17*
%TO.C,R120*%
X76500000Y-73850000D03*
X76500000Y-75500000D03*
%TD*%
D34*
%TO.C,FB1*%
X60687500Y-126000000D03*
X62812500Y-126000000D03*
%TD*%
D35*
%TO.C,J108*%
X61765000Y-146000000D03*
X64535000Y-146000000D03*
X67305000Y-146000000D03*
X70075000Y-146000000D03*
X72845000Y-146000000D03*
X75615000Y-146000000D03*
X78385000Y-146000000D03*
X81155000Y-146000000D03*
X83925000Y-146000000D03*
X86695000Y-146000000D03*
X89465000Y-146000000D03*
X92235000Y-146000000D03*
%TD*%
%TO.C,J105*%
X129845000Y-146000000D03*
X132615000Y-146000000D03*
X135385000Y-146000000D03*
X138155000Y-146000000D03*
%TD*%
%TO.C,J401*%
X129845000Y-54000000D03*
X132615000Y-54000000D03*
X135385000Y-54000000D03*
X138155000Y-54000000D03*
%TD*%
M02*
