%TF.GenerationSoftware,KiCad,Pcbnew,8.0.2*%
%TF.CreationDate,2025-05-11T19:16:00-07:00*%
%TF.ProjectId,Power_Relay_Pico,506f7765-725f-4526-956c-61795f506963,rev?*%
%TF.SameCoordinates,Original*%
%TF.FileFunction,Soldermask,Bot*%
%TF.FilePolarity,Negative*%
%FSLAX46Y46*%
G04 Gerber Fmt 4.6, Leading zero omitted, Abs format (unit mm)*
G04 Created by KiCad (PCBNEW 8.0.2) date 2025-05-11 19:16:00*
%MOMM*%
%LPD*%
G01*
G04 APERTURE LIST*
G04 Aperture macros list*
%AMRoundRect*
0 Rectangle with rounded corners*
0 $1 Rounding radius*
0 $2 $3 $4 $5 $6 $7 $8 $9 X,Y pos of 4 corners*
0 Add a 4 corners polygon primitive as box body*
4,1,4,$2,$3,$4,$5,$6,$7,$8,$9,$2,$3,0*
0 Add four circle primitives for the rounded corners*
1,1,$1+$1,$2,$3*
1,1,$1+$1,$4,$5*
1,1,$1+$1,$6,$7*
1,1,$1+$1,$8,$9*
0 Add four rect primitives between the rounded corners*
20,1,$1+$1,$2,$3,$4,$5,0*
20,1,$1+$1,$4,$5,$6,$7,0*
20,1,$1+$1,$6,$7,$8,$9,0*
20,1,$1+$1,$8,$9,$2,$3,0*%
%AMFreePoly0*
4,1,19,0.500000,-0.750000,0.000000,-0.750000,0.000000,-0.744911,-0.071157,-0.744911,-0.207708,-0.704816,-0.327430,-0.627875,-0.420627,-0.520320,-0.479746,-0.390866,-0.500000,-0.250000,-0.500000,0.250000,-0.479746,0.390866,-0.420627,0.520320,-0.327430,0.627875,-0.207708,0.704816,-0.071157,0.744911,0.000000,0.744911,0.000000,0.750000,0.500000,0.750000,0.500000,-0.750000,0.500000,-0.750000,
$1*%
%AMFreePoly1*
4,1,19,0.000000,0.744911,0.071157,0.744911,0.207708,0.704816,0.327430,0.627875,0.420627,0.520320,0.479746,0.390866,0.500000,0.250000,0.500000,-0.250000,0.479746,-0.390866,0.420627,-0.520320,0.327430,-0.627875,0.207708,-0.704816,0.071157,-0.744911,0.000000,-0.744911,0.000000,-0.750000,-0.500000,-0.750000,-0.500000,0.750000,0.000000,0.750000,0.000000,0.744911,0.000000,0.744911,
$1*%
G04 Aperture macros list end*
%ADD10C,2.000000*%
%ADD11C,3.200000*%
%ADD12C,2.500000*%
%ADD13RoundRect,0.250000X-1.000000X1.000000X-1.000000X-1.000000X1.000000X-1.000000X1.000000X1.000000X0*%
%ADD14R,1.700000X1.700000*%
%ADD15O,1.700000X1.700000*%
%ADD16FreePoly0,270.000000*%
%ADD17FreePoly1,270.000000*%
%ADD18FreePoly0,90.000000*%
%ADD19FreePoly1,90.000000*%
%ADD20R,1.846667X3.480000*%
%ADD21R,1.800000X1.800000*%
%ADD22C,1.800000*%
%ADD23RoundRect,0.200000X0.275000X-0.200000X0.275000X0.200000X-0.275000X0.200000X-0.275000X-0.200000X0*%
%ADD24C,1.000000*%
%ADD25R,2.000000X2.000000*%
%ADD26O,1.800000X1.800000*%
%ADD27O,1.500000X1.500000*%
%ADD28R,3.500000X1.700000*%
%ADD29R,1.700000X3.500000*%
G04 APERTURE END LIST*
D10*
%TO.C,TL102*%
X59000000Y-140000000D03*
%TD*%
D11*
%TO.C,H104*%
X54000000Y-146000000D03*
%TD*%
%TO.C,H101*%
X54000000Y-54000000D03*
%TD*%
D10*
%TO.C,TL101*%
X67000000Y-140000000D03*
%TD*%
D11*
%TO.C,H103*%
X146000000Y-146000000D03*
%TD*%
%TO.C,H102*%
X146000000Y-54000000D03*
%TD*%
D12*
%TO.C,K103*%
X131882500Y-123117500D03*
X125882500Y-137317500D03*
X137882500Y-137317500D03*
D13*
X125882500Y-125117500D03*
D12*
X137882500Y-125117500D03*
%TD*%
D14*
%TO.C,J301*%
X52500000Y-63010000D03*
D15*
X55040000Y-63010000D03*
X52500000Y-65550000D03*
X55040000Y-65550000D03*
X52500000Y-68090000D03*
X55040000Y-68090000D03*
X52500000Y-70630000D03*
X55040000Y-70630000D03*
X52500000Y-73170000D03*
X55040000Y-73170000D03*
X52500000Y-75710000D03*
X55040000Y-75710000D03*
X52500000Y-78250000D03*
X55040000Y-78250000D03*
X52500000Y-80790000D03*
X55040000Y-80790000D03*
X52500000Y-83330000D03*
X55040000Y-83330000D03*
X52500000Y-85870000D03*
X55040000Y-85870000D03*
X52500000Y-88410000D03*
X55040000Y-88410000D03*
X52500000Y-90950000D03*
X55040000Y-90950000D03*
%TD*%
D16*
%TO.C,JP401*%
X70250000Y-140200000D03*
D17*
X70250000Y-141500000D03*
%TD*%
D10*
%TO.C,SW302*%
X72200000Y-58250000D03*
X72200000Y-51750000D03*
X67700000Y-58250000D03*
X67700000Y-51750000D03*
%TD*%
D18*
%TO.C,JP405*%
X73000000Y-141500000D03*
D19*
X73000000Y-140200000D03*
%TD*%
D10*
%TO.C,SW306*%
X67700000Y-61750000D03*
X67700000Y-68250000D03*
X72200000Y-61750000D03*
X72200000Y-68250000D03*
%TD*%
D20*
%TO.C,J108*%
X60380000Y-146000000D03*
X63150000Y-146000000D03*
X65920000Y-146000000D03*
X68690000Y-146000000D03*
X71460000Y-146000000D03*
X74230000Y-146000000D03*
X77000000Y-146000000D03*
X79770000Y-146000000D03*
X82540000Y-146000000D03*
X85310000Y-146000000D03*
X88080000Y-146000000D03*
X90850000Y-146000000D03*
X93620000Y-146000000D03*
%TD*%
D21*
%TO.C,D113*%
X87000000Y-75275000D03*
D22*
X87000000Y-72735000D03*
%TD*%
D21*
%TO.C,D111*%
X69666666Y-75275000D03*
D22*
X69666666Y-72735000D03*
%TD*%
D14*
%TO.C,J9*%
X53000000Y-95800000D03*
D15*
X53000000Y-98340000D03*
X53000000Y-100880000D03*
X53000000Y-103420000D03*
X53000000Y-105960000D03*
X53000000Y-108500000D03*
X53000000Y-111040000D03*
X53000000Y-113580000D03*
X53000000Y-116120000D03*
X53000000Y-118660000D03*
%TD*%
D12*
%TO.C,K102*%
X114882500Y-123117500D03*
X108882500Y-137317500D03*
X120882500Y-137317500D03*
D13*
X108882500Y-125117500D03*
D12*
X120882500Y-125117500D03*
%TD*%
D21*
%TO.C,D110*%
X61000000Y-75275000D03*
D22*
X61000000Y-72735000D03*
%TD*%
D10*
%TO.C,SW308*%
X84800000Y-61750000D03*
X84800000Y-68250000D03*
X89300000Y-61750000D03*
X89300000Y-68250000D03*
%TD*%
D23*
%TO.C,R101*%
X64000000Y-134825000D03*
X64000000Y-133175000D03*
%TD*%
D24*
%TO.C,TP107*%
X72000000Y-127500000D03*
%TD*%
D10*
%TO.C,SW304*%
X84750000Y-51750000D03*
X84750000Y-58250000D03*
X89250000Y-51750000D03*
X89250000Y-58250000D03*
%TD*%
D23*
%TO.C,R102*%
X62000000Y-134825000D03*
X62000000Y-133175000D03*
%TD*%
D14*
%TO.C,J501*%
X146000000Y-94125000D03*
D15*
X146000000Y-96665000D03*
X146000000Y-99205000D03*
X146000000Y-101745000D03*
X146000000Y-104285000D03*
X146000000Y-106825000D03*
X146000000Y-109365000D03*
X146000000Y-111905000D03*
%TD*%
D10*
%TO.C,SW307*%
X80750000Y-68250000D03*
X80750000Y-61750000D03*
X76250000Y-68250000D03*
X76250000Y-61750000D03*
%TD*%
D21*
%TO.C,D109*%
X145725000Y-117950000D03*
D22*
X148265000Y-117950000D03*
%TD*%
D14*
%TO.C,J104*%
X54000000Y-129000000D03*
D15*
X54000000Y-126460000D03*
%TD*%
D10*
%TO.C,SW305*%
X63650000Y-68250000D03*
X63650000Y-61750000D03*
X59150000Y-68250000D03*
X59150000Y-61750000D03*
%TD*%
D20*
%TO.C,J105*%
X128460000Y-146000000D03*
X131230000Y-146000000D03*
X134000000Y-146000000D03*
X136770000Y-146000000D03*
X139540000Y-146000000D03*
%TD*%
D24*
%TO.C,TP401*%
X128460000Y-57750000D03*
%TD*%
D21*
%TO.C,D107*%
X145725000Y-124350000D03*
D22*
X148265000Y-124350000D03*
%TD*%
D10*
%TO.C,SW9*%
X61000000Y-119000000D03*
X61000000Y-112500000D03*
X56500000Y-119000000D03*
X56500000Y-112500000D03*
%TD*%
D21*
%TO.C,D105*%
X145725000Y-130750000D03*
D22*
X148265000Y-130750000D03*
%TD*%
D25*
%TO.C,J103*%
X111940000Y-146000000D03*
D10*
X109400000Y-146000000D03*
%TD*%
D25*
%TO.C,J102*%
X104300000Y-146000000D03*
D10*
X101760000Y-146000000D03*
%TD*%
D25*
%TO.C,J106*%
X119580000Y-146000000D03*
D10*
X117040000Y-146000000D03*
%TD*%
D21*
%TO.C,D112*%
X78333332Y-75275000D03*
D22*
X78333332Y-72735000D03*
%TD*%
D26*
%TO.C,U101*%
X107725000Y-52000000D03*
D27*
X107425000Y-55030000D03*
X102575000Y-55030000D03*
D26*
X102275000Y-52000000D03*
D15*
X113890000Y-51870000D03*
D28*
X114790000Y-51870000D03*
D15*
X113890000Y-54410000D03*
D28*
X114790000Y-54410000D03*
D14*
X113890000Y-56950000D03*
D28*
X114790000Y-56950000D03*
D15*
X113890000Y-59490000D03*
D28*
X114790000Y-59490000D03*
D15*
X113890000Y-62030000D03*
D28*
X114790000Y-62030000D03*
D15*
X113890000Y-64570000D03*
D28*
X114790000Y-64570000D03*
D15*
X113890000Y-67110000D03*
D28*
X114790000Y-67110000D03*
D14*
X113890000Y-69650000D03*
D28*
X114790000Y-69650000D03*
D15*
X113890000Y-72190000D03*
D28*
X114790000Y-72190000D03*
D15*
X113890000Y-74730000D03*
D28*
X114790000Y-74730000D03*
D15*
X113890000Y-77270000D03*
D28*
X114790000Y-77270000D03*
D15*
X113890000Y-79810000D03*
D28*
X114790000Y-79810000D03*
D14*
X113890000Y-82350000D03*
D28*
X114790000Y-82350000D03*
D15*
X113890000Y-84890000D03*
D28*
X114790000Y-84890000D03*
D15*
X113890000Y-87430000D03*
D28*
X114790000Y-87430000D03*
D15*
X113890000Y-89970000D03*
D28*
X114790000Y-89970000D03*
D15*
X113890000Y-92510000D03*
D28*
X114790000Y-92510000D03*
D14*
X113890000Y-95050000D03*
D28*
X114790000Y-95050000D03*
D15*
X113890000Y-97590000D03*
D28*
X114790000Y-97590000D03*
D15*
X113890000Y-100130000D03*
D28*
X114790000Y-100130000D03*
D15*
X96110000Y-100130000D03*
D28*
X95210000Y-100130000D03*
D15*
X96110000Y-97590000D03*
D28*
X95210000Y-97590000D03*
D14*
X96110000Y-95050000D03*
D28*
X95210000Y-95050000D03*
D15*
X96110000Y-92510000D03*
D28*
X95210000Y-92510000D03*
D15*
X96110000Y-89970000D03*
D28*
X95210000Y-89970000D03*
D15*
X96110000Y-87430000D03*
D28*
X95210000Y-87430000D03*
D15*
X96110000Y-84890000D03*
D28*
X95210000Y-84890000D03*
D14*
X96110000Y-82350000D03*
D28*
X95210000Y-82350000D03*
D15*
X96110000Y-79810000D03*
D28*
X95210000Y-79810000D03*
D15*
X96110000Y-77270000D03*
D28*
X95210000Y-77270000D03*
D15*
X96110000Y-74730000D03*
D28*
X95210000Y-74730000D03*
D15*
X96110000Y-72190000D03*
D28*
X95210000Y-72190000D03*
D14*
X96110000Y-69650000D03*
D28*
X95210000Y-69650000D03*
D15*
X96110000Y-67110000D03*
D28*
X95210000Y-67110000D03*
D15*
X96110000Y-64570000D03*
D28*
X95210000Y-64570000D03*
D15*
X96110000Y-62030000D03*
D28*
X95210000Y-62030000D03*
D15*
X96110000Y-59490000D03*
D28*
X95210000Y-59490000D03*
D14*
X96110000Y-56950000D03*
D28*
X95210000Y-56950000D03*
D15*
X96110000Y-54410000D03*
D28*
X95210000Y-54410000D03*
D15*
X96110000Y-51870000D03*
D28*
X95210000Y-51870000D03*
D15*
X107540000Y-99900000D03*
D29*
X107540000Y-100800000D03*
D14*
X105000000Y-99900000D03*
D29*
X105000000Y-100800000D03*
D15*
X102460000Y-99900000D03*
D29*
X102460000Y-100800000D03*
%TD*%
D20*
%TO.C,J401*%
X128460000Y-54000000D03*
X131230000Y-54000000D03*
X134000000Y-54000000D03*
X136770000Y-54000000D03*
X139540000Y-54000000D03*
%TD*%
D10*
%TO.C,SW303*%
X80750000Y-58250000D03*
X80750000Y-51750000D03*
X76250000Y-58250000D03*
X76250000Y-51750000D03*
%TD*%
D25*
%TO.C,J107*%
X145500000Y-135225000D03*
D10*
X145500000Y-137765000D03*
%TD*%
D14*
%TO.C,J12*%
X58000000Y-126450000D03*
D15*
X58000000Y-128990000D03*
%TD*%
D14*
%TO.C,J101*%
X147000000Y-60460000D03*
D15*
X144460000Y-60460000D03*
X147000000Y-63000000D03*
X144460000Y-63000000D03*
X147000000Y-65540000D03*
X144460000Y-65540000D03*
X147000000Y-68080000D03*
X144460000Y-68080000D03*
%TD*%
D24*
%TO.C,TP405*%
X136750000Y-57750000D03*
%TD*%
%TO.C,TP103*%
X60250000Y-133250000D03*
%TD*%
D12*
%TO.C,K101*%
X97882500Y-123117500D03*
X91882500Y-137317500D03*
X103882500Y-137317500D03*
D13*
X91882500Y-125117500D03*
D12*
X103882500Y-125117500D03*
%TD*%
D10*
%TO.C,SW301*%
X63650000Y-58250000D03*
X63650000Y-51750000D03*
X59150000Y-58250000D03*
X59150000Y-51750000D03*
%TD*%
D24*
%TO.C,TP102*%
X65750000Y-133250000D03*
%TD*%
M02*
