%TF.GenerationSoftware,KiCad,Pcbnew,8.0.2*%
%TF.CreationDate,2025-05-11T19:16:00-07:00*%
%TF.ProjectId,Power_Relay_Pico,506f7765-725f-4526-956c-61795f506963,rev?*%
%TF.SameCoordinates,Original*%
%TF.FileFunction,Other,Comment*%
%FSLAX46Y46*%
G04 Gerber Fmt 4.6, Leading zero omitted, Abs format (unit mm)*
G04 Created by KiCad (PCBNEW 8.0.2) date 2025-05-11 19:16:00*
%MOMM*%
%LPD*%
G01*
G04 APERTURE LIST*
%ADD10C,0.150000*%
G04 APERTURE END LIST*
D10*
X90899997Y-46159580D02*
X90852378Y-46207200D01*
X90852378Y-46207200D02*
X90709521Y-46254819D01*
X90709521Y-46254819D02*
X90614283Y-46254819D01*
X90614283Y-46254819D02*
X90471426Y-46207200D01*
X90471426Y-46207200D02*
X90376188Y-46111961D01*
X90376188Y-46111961D02*
X90328569Y-46016723D01*
X90328569Y-46016723D02*
X90280950Y-45826247D01*
X90280950Y-45826247D02*
X90280950Y-45683390D01*
X90280950Y-45683390D02*
X90328569Y-45492914D01*
X90328569Y-45492914D02*
X90376188Y-45397676D01*
X90376188Y-45397676D02*
X90471426Y-45302438D01*
X90471426Y-45302438D02*
X90614283Y-45254819D01*
X90614283Y-45254819D02*
X90709521Y-45254819D01*
X90709521Y-45254819D02*
X90852378Y-45302438D01*
X90852378Y-45302438D02*
X90899997Y-45350057D01*
X91471426Y-46254819D02*
X91376188Y-46207200D01*
X91376188Y-46207200D02*
X91328569Y-46159580D01*
X91328569Y-46159580D02*
X91280950Y-46064342D01*
X91280950Y-46064342D02*
X91280950Y-45778628D01*
X91280950Y-45778628D02*
X91328569Y-45683390D01*
X91328569Y-45683390D02*
X91376188Y-45635771D01*
X91376188Y-45635771D02*
X91471426Y-45588152D01*
X91471426Y-45588152D02*
X91614283Y-45588152D01*
X91614283Y-45588152D02*
X91709521Y-45635771D01*
X91709521Y-45635771D02*
X91757140Y-45683390D01*
X91757140Y-45683390D02*
X91804759Y-45778628D01*
X91804759Y-45778628D02*
X91804759Y-46064342D01*
X91804759Y-46064342D02*
X91757140Y-46159580D01*
X91757140Y-46159580D02*
X91709521Y-46207200D01*
X91709521Y-46207200D02*
X91614283Y-46254819D01*
X91614283Y-46254819D02*
X91471426Y-46254819D01*
X92233331Y-45588152D02*
X92233331Y-46588152D01*
X92233331Y-45635771D02*
X92328569Y-45588152D01*
X92328569Y-45588152D02*
X92519045Y-45588152D01*
X92519045Y-45588152D02*
X92614283Y-45635771D01*
X92614283Y-45635771D02*
X92661902Y-45683390D01*
X92661902Y-45683390D02*
X92709521Y-45778628D01*
X92709521Y-45778628D02*
X92709521Y-46064342D01*
X92709521Y-46064342D02*
X92661902Y-46159580D01*
X92661902Y-46159580D02*
X92614283Y-46207200D01*
X92614283Y-46207200D02*
X92519045Y-46254819D01*
X92519045Y-46254819D02*
X92328569Y-46254819D01*
X92328569Y-46254819D02*
X92233331Y-46207200D01*
X93138093Y-45588152D02*
X93138093Y-46588152D01*
X93138093Y-45635771D02*
X93233331Y-45588152D01*
X93233331Y-45588152D02*
X93423807Y-45588152D01*
X93423807Y-45588152D02*
X93519045Y-45635771D01*
X93519045Y-45635771D02*
X93566664Y-45683390D01*
X93566664Y-45683390D02*
X93614283Y-45778628D01*
X93614283Y-45778628D02*
X93614283Y-46064342D01*
X93614283Y-46064342D02*
X93566664Y-46159580D01*
X93566664Y-46159580D02*
X93519045Y-46207200D01*
X93519045Y-46207200D02*
X93423807Y-46254819D01*
X93423807Y-46254819D02*
X93233331Y-46254819D01*
X93233331Y-46254819D02*
X93138093Y-46207200D01*
X94423807Y-46207200D02*
X94328569Y-46254819D01*
X94328569Y-46254819D02*
X94138093Y-46254819D01*
X94138093Y-46254819D02*
X94042855Y-46207200D01*
X94042855Y-46207200D02*
X93995236Y-46111961D01*
X93995236Y-46111961D02*
X93995236Y-45731009D01*
X93995236Y-45731009D02*
X94042855Y-45635771D01*
X94042855Y-45635771D02*
X94138093Y-45588152D01*
X94138093Y-45588152D02*
X94328569Y-45588152D01*
X94328569Y-45588152D02*
X94423807Y-45635771D01*
X94423807Y-45635771D02*
X94471426Y-45731009D01*
X94471426Y-45731009D02*
X94471426Y-45826247D01*
X94471426Y-45826247D02*
X93995236Y-45921485D01*
X94899998Y-46254819D02*
X94899998Y-45588152D01*
X94899998Y-45778628D02*
X94947617Y-45683390D01*
X94947617Y-45683390D02*
X94995236Y-45635771D01*
X94995236Y-45635771D02*
X95090474Y-45588152D01*
X95090474Y-45588152D02*
X95185712Y-45588152D01*
X96280951Y-46254819D02*
X96280951Y-45254819D01*
X96852379Y-46254819D02*
X96423808Y-45683390D01*
X96852379Y-45254819D02*
X96280951Y-45826247D01*
X97661903Y-46207200D02*
X97566665Y-46254819D01*
X97566665Y-46254819D02*
X97376189Y-46254819D01*
X97376189Y-46254819D02*
X97280951Y-46207200D01*
X97280951Y-46207200D02*
X97233332Y-46111961D01*
X97233332Y-46111961D02*
X97233332Y-45731009D01*
X97233332Y-45731009D02*
X97280951Y-45635771D01*
X97280951Y-45635771D02*
X97376189Y-45588152D01*
X97376189Y-45588152D02*
X97566665Y-45588152D01*
X97566665Y-45588152D02*
X97661903Y-45635771D01*
X97661903Y-45635771D02*
X97709522Y-45731009D01*
X97709522Y-45731009D02*
X97709522Y-45826247D01*
X97709522Y-45826247D02*
X97233332Y-45921485D01*
X98519046Y-46207200D02*
X98423808Y-46254819D01*
X98423808Y-46254819D02*
X98233332Y-46254819D01*
X98233332Y-46254819D02*
X98138094Y-46207200D01*
X98138094Y-46207200D02*
X98090475Y-46111961D01*
X98090475Y-46111961D02*
X98090475Y-45731009D01*
X98090475Y-45731009D02*
X98138094Y-45635771D01*
X98138094Y-45635771D02*
X98233332Y-45588152D01*
X98233332Y-45588152D02*
X98423808Y-45588152D01*
X98423808Y-45588152D02*
X98519046Y-45635771D01*
X98519046Y-45635771D02*
X98566665Y-45731009D01*
X98566665Y-45731009D02*
X98566665Y-45826247D01*
X98566665Y-45826247D02*
X98090475Y-45921485D01*
X98995237Y-45588152D02*
X98995237Y-46588152D01*
X98995237Y-45635771D02*
X99090475Y-45588152D01*
X99090475Y-45588152D02*
X99280951Y-45588152D01*
X99280951Y-45588152D02*
X99376189Y-45635771D01*
X99376189Y-45635771D02*
X99423808Y-45683390D01*
X99423808Y-45683390D02*
X99471427Y-45778628D01*
X99471427Y-45778628D02*
X99471427Y-46064342D01*
X99471427Y-46064342D02*
X99423808Y-46159580D01*
X99423808Y-46159580D02*
X99376189Y-46207200D01*
X99376189Y-46207200D02*
X99280951Y-46254819D01*
X99280951Y-46254819D02*
X99090475Y-46254819D01*
X99090475Y-46254819D02*
X98995237Y-46207200D01*
X100042856Y-46254819D02*
X99947618Y-46207200D01*
X99947618Y-46207200D02*
X99899999Y-46159580D01*
X99899999Y-46159580D02*
X99852380Y-46064342D01*
X99852380Y-46064342D02*
X99852380Y-45778628D01*
X99852380Y-45778628D02*
X99899999Y-45683390D01*
X99899999Y-45683390D02*
X99947618Y-45635771D01*
X99947618Y-45635771D02*
X100042856Y-45588152D01*
X100042856Y-45588152D02*
X100185713Y-45588152D01*
X100185713Y-45588152D02*
X100280951Y-45635771D01*
X100280951Y-45635771D02*
X100328570Y-45683390D01*
X100328570Y-45683390D02*
X100376189Y-45778628D01*
X100376189Y-45778628D02*
X100376189Y-46064342D01*
X100376189Y-46064342D02*
X100328570Y-46159580D01*
X100328570Y-46159580D02*
X100280951Y-46207200D01*
X100280951Y-46207200D02*
X100185713Y-46254819D01*
X100185713Y-46254819D02*
X100042856Y-46254819D01*
X101233332Y-45588152D02*
X101233332Y-46254819D01*
X100804761Y-45588152D02*
X100804761Y-46111961D01*
X100804761Y-46111961D02*
X100852380Y-46207200D01*
X100852380Y-46207200D02*
X100947618Y-46254819D01*
X100947618Y-46254819D02*
X101090475Y-46254819D01*
X101090475Y-46254819D02*
X101185713Y-46207200D01*
X101185713Y-46207200D02*
X101233332Y-46159580D01*
X101566666Y-45588152D02*
X101947618Y-45588152D01*
X101709523Y-45254819D02*
X101709523Y-46111961D01*
X101709523Y-46111961D02*
X101757142Y-46207200D01*
X101757142Y-46207200D02*
X101852380Y-46254819D01*
X101852380Y-46254819D02*
X101947618Y-46254819D01*
X102233333Y-46207200D02*
X102328571Y-46254819D01*
X102328571Y-46254819D02*
X102519047Y-46254819D01*
X102519047Y-46254819D02*
X102614285Y-46207200D01*
X102614285Y-46207200D02*
X102661904Y-46111961D01*
X102661904Y-46111961D02*
X102661904Y-46064342D01*
X102661904Y-46064342D02*
X102614285Y-45969104D01*
X102614285Y-45969104D02*
X102519047Y-45921485D01*
X102519047Y-45921485D02*
X102376190Y-45921485D01*
X102376190Y-45921485D02*
X102280952Y-45873866D01*
X102280952Y-45873866D02*
X102233333Y-45778628D01*
X102233333Y-45778628D02*
X102233333Y-45731009D01*
X102233333Y-45731009D02*
X102280952Y-45635771D01*
X102280952Y-45635771D02*
X102376190Y-45588152D01*
X102376190Y-45588152D02*
X102519047Y-45588152D01*
X102519047Y-45588152D02*
X102614285Y-45635771D01*
X103804762Y-46207200D02*
X103900000Y-46254819D01*
X103900000Y-46254819D02*
X104090476Y-46254819D01*
X104090476Y-46254819D02*
X104185714Y-46207200D01*
X104185714Y-46207200D02*
X104233333Y-46111961D01*
X104233333Y-46111961D02*
X104233333Y-46064342D01*
X104233333Y-46064342D02*
X104185714Y-45969104D01*
X104185714Y-45969104D02*
X104090476Y-45921485D01*
X104090476Y-45921485D02*
X103947619Y-45921485D01*
X103947619Y-45921485D02*
X103852381Y-45873866D01*
X103852381Y-45873866D02*
X103804762Y-45778628D01*
X103804762Y-45778628D02*
X103804762Y-45731009D01*
X103804762Y-45731009D02*
X103852381Y-45635771D01*
X103852381Y-45635771D02*
X103947619Y-45588152D01*
X103947619Y-45588152D02*
X104090476Y-45588152D01*
X104090476Y-45588152D02*
X104185714Y-45635771D01*
X104661905Y-46254819D02*
X104661905Y-45254819D01*
X105090476Y-46254819D02*
X105090476Y-45731009D01*
X105090476Y-45731009D02*
X105042857Y-45635771D01*
X105042857Y-45635771D02*
X104947619Y-45588152D01*
X104947619Y-45588152D02*
X104804762Y-45588152D01*
X104804762Y-45588152D02*
X104709524Y-45635771D01*
X104709524Y-45635771D02*
X104661905Y-45683390D01*
X105709524Y-46254819D02*
X105614286Y-46207200D01*
X105614286Y-46207200D02*
X105566667Y-46159580D01*
X105566667Y-46159580D02*
X105519048Y-46064342D01*
X105519048Y-46064342D02*
X105519048Y-45778628D01*
X105519048Y-45778628D02*
X105566667Y-45683390D01*
X105566667Y-45683390D02*
X105614286Y-45635771D01*
X105614286Y-45635771D02*
X105709524Y-45588152D01*
X105709524Y-45588152D02*
X105852381Y-45588152D01*
X105852381Y-45588152D02*
X105947619Y-45635771D01*
X105947619Y-45635771D02*
X105995238Y-45683390D01*
X105995238Y-45683390D02*
X106042857Y-45778628D01*
X106042857Y-45778628D02*
X106042857Y-46064342D01*
X106042857Y-46064342D02*
X105995238Y-46159580D01*
X105995238Y-46159580D02*
X105947619Y-46207200D01*
X105947619Y-46207200D02*
X105852381Y-46254819D01*
X105852381Y-46254819D02*
X105709524Y-46254819D01*
X106376191Y-45588152D02*
X106566667Y-46254819D01*
X106566667Y-46254819D02*
X106757143Y-45778628D01*
X106757143Y-45778628D02*
X106947619Y-46254819D01*
X106947619Y-46254819D02*
X107138095Y-45588152D01*
X107519048Y-45588152D02*
X107519048Y-46254819D01*
X107519048Y-45683390D02*
X107566667Y-45635771D01*
X107566667Y-45635771D02*
X107661905Y-45588152D01*
X107661905Y-45588152D02*
X107804762Y-45588152D01*
X107804762Y-45588152D02*
X107900000Y-45635771D01*
X107900000Y-45635771D02*
X107947619Y-45731009D01*
X107947619Y-45731009D02*
X107947619Y-46254819D01*
X109328572Y-46254819D02*
X109233334Y-46207200D01*
X109233334Y-46207200D02*
X109185715Y-46159580D01*
X109185715Y-46159580D02*
X109138096Y-46064342D01*
X109138096Y-46064342D02*
X109138096Y-45778628D01*
X109138096Y-45778628D02*
X109185715Y-45683390D01*
X109185715Y-45683390D02*
X109233334Y-45635771D01*
X109233334Y-45635771D02*
X109328572Y-45588152D01*
X109328572Y-45588152D02*
X109471429Y-45588152D01*
X109471429Y-45588152D02*
X109566667Y-45635771D01*
X109566667Y-45635771D02*
X109614286Y-45683390D01*
X109614286Y-45683390D02*
X109661905Y-45778628D01*
X109661905Y-45778628D02*
X109661905Y-46064342D01*
X109661905Y-46064342D02*
X109614286Y-46159580D01*
X109614286Y-46159580D02*
X109566667Y-46207200D01*
X109566667Y-46207200D02*
X109471429Y-46254819D01*
X109471429Y-46254819D02*
X109328572Y-46254819D01*
X110090477Y-45588152D02*
X110090477Y-46254819D01*
X110090477Y-45683390D02*
X110138096Y-45635771D01*
X110138096Y-45635771D02*
X110233334Y-45588152D01*
X110233334Y-45588152D02*
X110376191Y-45588152D01*
X110376191Y-45588152D02*
X110471429Y-45635771D01*
X110471429Y-45635771D02*
X110519048Y-45731009D01*
X110519048Y-45731009D02*
X110519048Y-46254819D01*
X111757144Y-46254819D02*
X111757144Y-45254819D01*
X111757144Y-45254819D02*
X111995239Y-45254819D01*
X111995239Y-45254819D02*
X112138096Y-45302438D01*
X112138096Y-45302438D02*
X112233334Y-45397676D01*
X112233334Y-45397676D02*
X112280953Y-45492914D01*
X112280953Y-45492914D02*
X112328572Y-45683390D01*
X112328572Y-45683390D02*
X112328572Y-45826247D01*
X112328572Y-45826247D02*
X112280953Y-46016723D01*
X112280953Y-46016723D02*
X112233334Y-46111961D01*
X112233334Y-46111961D02*
X112138096Y-46207200D01*
X112138096Y-46207200D02*
X111995239Y-46254819D01*
X111995239Y-46254819D02*
X111757144Y-46254819D01*
X112661906Y-45588152D02*
X112852382Y-46254819D01*
X112852382Y-46254819D02*
X113042858Y-45778628D01*
X113042858Y-45778628D02*
X113233334Y-46254819D01*
X113233334Y-46254819D02*
X113423810Y-45588152D01*
X114233334Y-45588152D02*
X114233334Y-46397676D01*
X114233334Y-46397676D02*
X114185715Y-46492914D01*
X114185715Y-46492914D02*
X114138096Y-46540533D01*
X114138096Y-46540533D02*
X114042858Y-46588152D01*
X114042858Y-46588152D02*
X113900001Y-46588152D01*
X113900001Y-46588152D02*
X113804763Y-46540533D01*
X114233334Y-46207200D02*
X114138096Y-46254819D01*
X114138096Y-46254819D02*
X113947620Y-46254819D01*
X113947620Y-46254819D02*
X113852382Y-46207200D01*
X113852382Y-46207200D02*
X113804763Y-46159580D01*
X113804763Y-46159580D02*
X113757144Y-46064342D01*
X113757144Y-46064342D02*
X113757144Y-45778628D01*
X113757144Y-45778628D02*
X113804763Y-45683390D01*
X113804763Y-45683390D02*
X113852382Y-45635771D01*
X113852382Y-45635771D02*
X113947620Y-45588152D01*
X113947620Y-45588152D02*
X114138096Y-45588152D01*
X114138096Y-45588152D02*
X114233334Y-45635771D01*
X114661906Y-46207200D02*
X114757144Y-46254819D01*
X114757144Y-46254819D02*
X114947620Y-46254819D01*
X114947620Y-46254819D02*
X115042858Y-46207200D01*
X115042858Y-46207200D02*
X115090477Y-46111961D01*
X115090477Y-46111961D02*
X115090477Y-46064342D01*
X115090477Y-46064342D02*
X115042858Y-45969104D01*
X115042858Y-45969104D02*
X114947620Y-45921485D01*
X114947620Y-45921485D02*
X114804763Y-45921485D01*
X114804763Y-45921485D02*
X114709525Y-45873866D01*
X114709525Y-45873866D02*
X114661906Y-45778628D01*
X114661906Y-45778628D02*
X114661906Y-45731009D01*
X114661906Y-45731009D02*
X114709525Y-45635771D01*
X114709525Y-45635771D02*
X114804763Y-45588152D01*
X114804763Y-45588152D02*
X114947620Y-45588152D01*
X114947620Y-45588152D02*
X115042858Y-45635771D01*
X116423811Y-46254819D02*
X116328573Y-46207200D01*
X116328573Y-46207200D02*
X116280954Y-46111961D01*
X116280954Y-46111961D02*
X116280954Y-45254819D01*
X117233335Y-46254819D02*
X117233335Y-45731009D01*
X117233335Y-45731009D02*
X117185716Y-45635771D01*
X117185716Y-45635771D02*
X117090478Y-45588152D01*
X117090478Y-45588152D02*
X116900002Y-45588152D01*
X116900002Y-45588152D02*
X116804764Y-45635771D01*
X117233335Y-46207200D02*
X117138097Y-46254819D01*
X117138097Y-46254819D02*
X116900002Y-46254819D01*
X116900002Y-46254819D02*
X116804764Y-46207200D01*
X116804764Y-46207200D02*
X116757145Y-46111961D01*
X116757145Y-46111961D02*
X116757145Y-46016723D01*
X116757145Y-46016723D02*
X116804764Y-45921485D01*
X116804764Y-45921485D02*
X116900002Y-45873866D01*
X116900002Y-45873866D02*
X117138097Y-45873866D01*
X117138097Y-45873866D02*
X117233335Y-45826247D01*
X117614288Y-45588152D02*
X117852383Y-46254819D01*
X118090478Y-45588152D02*
X117852383Y-46254819D01*
X117852383Y-46254819D02*
X117757145Y-46492914D01*
X117757145Y-46492914D02*
X117709526Y-46540533D01*
X117709526Y-46540533D02*
X117614288Y-46588152D01*
X118852383Y-46207200D02*
X118757145Y-46254819D01*
X118757145Y-46254819D02*
X118566669Y-46254819D01*
X118566669Y-46254819D02*
X118471431Y-46207200D01*
X118471431Y-46207200D02*
X118423812Y-46111961D01*
X118423812Y-46111961D02*
X118423812Y-45731009D01*
X118423812Y-45731009D02*
X118471431Y-45635771D01*
X118471431Y-45635771D02*
X118566669Y-45588152D01*
X118566669Y-45588152D02*
X118757145Y-45588152D01*
X118757145Y-45588152D02*
X118852383Y-45635771D01*
X118852383Y-45635771D02*
X118900002Y-45731009D01*
X118900002Y-45731009D02*
X118900002Y-45826247D01*
X118900002Y-45826247D02*
X118423812Y-45921485D01*
X119328574Y-46254819D02*
X119328574Y-45588152D01*
X119328574Y-45778628D02*
X119376193Y-45683390D01*
X119376193Y-45683390D02*
X119423812Y-45635771D01*
X119423812Y-45635771D02*
X119519050Y-45588152D01*
X119519050Y-45588152D02*
X119614288Y-45588152D01*
%TO.C,H104*%
X57200000Y-146000000D02*
G75*
G02*
X50800000Y-146000000I-3200000J0D01*
G01*
X50800000Y-146000000D02*
G75*
G02*
X57200000Y-146000000I3200000J0D01*
G01*
%TO.C,H101*%
X57200000Y-54000000D02*
G75*
G02*
X50800000Y-54000000I-3200000J0D01*
G01*
X50800000Y-54000000D02*
G75*
G02*
X57200000Y-54000000I3200000J0D01*
G01*
%TO.C,H103*%
X149200000Y-146000000D02*
G75*
G02*
X142800000Y-146000000I-3200000J0D01*
G01*
X142800000Y-146000000D02*
G75*
G02*
X149200000Y-146000000I3200000J0D01*
G01*
%TO.C,H102*%
X149200000Y-54000000D02*
G75*
G02*
X142800000Y-54000000I-3200000J0D01*
G01*
X142800000Y-54000000D02*
G75*
G02*
X149200000Y-54000000I3200000J0D01*
G01*
%TD*%
M02*
