%TF.GenerationSoftware,KiCad,Pcbnew,8.0.2*%
%TF.CreationDate,2025-05-11T19:16:00-07:00*%
%TF.ProjectId,Power_Relay_Pico,506f7765-725f-4526-956c-61795f506963,rev?*%
%TF.SameCoordinates,Original*%
%TF.FileFunction,Profile,NP*%
%FSLAX46Y46*%
G04 Gerber Fmt 4.6, Leading zero omitted, Abs format (unit mm)*
G04 Created by KiCad (PCBNEW 8.0.2) date 2025-05-11 19:16:00*
%MOMM*%
%LPD*%
G01*
G04 APERTURE LIST*
%TA.AperFunction,Profile*%
%ADD10C,0.200000*%
%TD*%
G04 APERTURE END LIST*
D10*
X142000000Y-148250000D02*
X142000000Y-150000000D01*
X50000000Y-53000000D02*
G75*
G02*
X53000000Y-50000000I3000000J0D01*
G01*
X142250000Y-51750000D02*
X142250000Y-50000000D01*
X96000000Y-150000000D02*
X126000000Y-150000000D01*
X150000000Y-147000000D02*
G75*
G02*
X147000000Y-150000000I-3000000J0D01*
G01*
X96000000Y-148250000D02*
X96000000Y-150000000D01*
X58000000Y-150000000D02*
X58000000Y-148250000D01*
X110500000Y-51500000D02*
G75*
G02*
X112000000Y-50000000I1500000J0D01*
G01*
X126000000Y-148250000D02*
X142000000Y-148250000D01*
X142000000Y-150000000D02*
X147000000Y-150000000D01*
X98000000Y-50000000D02*
G75*
G02*
X99500000Y-51500000I0J-1500000D01*
G01*
X110500000Y-56500000D02*
X110500000Y-51500000D01*
X99500000Y-51500000D02*
X99500000Y-56500000D01*
X50000000Y-147000000D02*
X50000000Y-53000000D01*
X58000000Y-148250000D02*
X96000000Y-148250000D01*
X53000000Y-150000000D02*
G75*
G02*
X50000000Y-147000000I34900J3034900D01*
G01*
X99500000Y-56500000D02*
X110500000Y-56500000D01*
X53000000Y-50000000D02*
X98000000Y-50000000D01*
X126000000Y-150000000D02*
X126000000Y-148250000D01*
X142250000Y-50000000D02*
X147000000Y-50000000D01*
X112000000Y-50000000D02*
X125750000Y-50000000D01*
X125750000Y-50000000D02*
X125750000Y-51750000D01*
X150000000Y-53000000D02*
X150000000Y-147000000D01*
X147000000Y-50000000D02*
G75*
G02*
X150000000Y-53000000I0J-3000000D01*
G01*
X125750000Y-51750000D02*
X142250000Y-51750000D01*
X58000000Y-150000000D02*
X53000000Y-150000000D01*
M02*
