M48
; DRILL file {KiCad 8.0.2} date 2025-05-11T19:16:00-0700
; FORMAT={-:-/ absolute / inch / decimal}
; #@! TF.CreationDate,2025-05-11T19:16:00-07:00
; #@! TF.GenerationSoftware,Kicad,Pcbnew,8.0.2
; #@! TF.FileFunction,Plated,1,2,PTH
FMAT,2
INCH
; #@! TA.AperFunction,Plated,PTH,ViaDrill
T1C0.0079
; #@! TA.AperFunction,Plated,PTH,ViaDrill
T2C0.0118
; #@! TA.AperFunction,Plated,PTH,ViaDrill
T3C0.0157
; #@! TA.AperFunction,Plated,PTH,ViaDrill
T4C0.0315
; #@! TA.AperFunction,Plated,PTH,ComponentDrill
T5C0.0354
; #@! TA.AperFunction,Plated,PTH,ComponentDrill
T6C0.0394
; #@! TA.AperFunction,Plated,PTH,ComponentDrill
T7C0.0402
; #@! TA.AperFunction,Plated,PTH,ComponentDrill
T8C0.0433
; #@! TA.AperFunction,Plated,PTH,ComponentDrill
T9C0.0472
; #@! TA.AperFunction,Plated,PTH,ComponentDrill
T10C0.0512
%
G90
G05
T1
X2.0177Y-2.2047
X2.0177Y-5.315
X2.0276Y-5.3445
X2.0295Y-5.0098
X2.0295Y-5.1772
X2.0295Y-5.2264
X2.0374Y-2.2244
X2.0374Y-2.2539
X2.0472Y-5.6201
X2.0571Y-4.9311
X2.0787Y-4.7682
X2.1063Y-5.2165
X2.1161Y-2.8248
X2.126Y-2.2638
X2.1358Y-2.5295
X2.185Y-5.6201
X2.2047Y-5.3248
X2.2539Y-2.7657
X2.2539Y-5.3937
X2.2539Y-5.6004
X2.2835Y-5.3642
X2.3228Y-3.2185
X2.3228Y-4.5079
X2.3524Y-4.498
X2.3819Y-4.8917
X2.4016Y-2.5
X2.4213Y-3.4055
X2.4213Y-3.4744
X2.4311Y-3.5827
X2.4409Y-5.2067
X2.4409Y-5.3346
X2.4508Y-5.5413
X2.4606Y-2.1752
X2.4606Y-4.5965
X2.4606Y-4.7441
X2.4606Y-5.1358
X2.4803Y-2.9429
X2.4803Y-3.4547
X2.5Y-5.0197
X2.5059Y-2.5
X2.5098Y-3.189
X2.5098Y-4.8917
X2.51Y-4.9764
X2.5197Y-5.0886
X2.5197Y-5.2067
X2.5197Y-5.3346
X2.5295Y-3.3366
X2.5295Y-4.7441
X2.5591Y-3.7402
X2.5591Y-5.561
X2.5768Y-5.1289
X2.5886Y-3.6516
X2.5984Y-5.6398
X2.6083Y-3.6122
X2.6181Y-3.7402
X2.628Y-3.2185
X2.6541Y-5.397
X2.6673Y-2.815
X2.6693Y-2.5
X2.6752Y-5.1297
X2.6788Y-5.4216
X2.687Y-3.5335
X2.687Y-5.5807
X2.7047Y-5.1575
X2.7067Y-2.1555
X2.7067Y-3.6909
X2.7067Y-4.9409
X2.7109Y-5.1041
X2.7165Y-5.6398
X2.7264Y-3.2087
X2.7264Y-5.315
X2.7356Y-5.0867
X2.7362Y-2.2441
X2.7362Y-5.0394
X2.7447Y-4.9976
X2.7461Y-3.435
X2.7461Y-3.4843
X2.7461Y-3.622
X2.7559Y-2.5
X2.7559Y-2.628
X2.7756Y-3.2283
X2.7854Y-5.6594
X2.7953Y-3.3661
X2.7953Y-4.9114
X2.7968Y-5.0124
X2.8051Y-4.4685
X2.8109Y-5.4853
X2.8332Y-4.5196
X2.8346Y-3.5039
X2.8346Y-4.252
X2.8445Y-2.628
X2.8445Y-3.5531
X2.8543Y-3.7795
X2.8543Y-5.6398
X2.8592Y-4.4966
X2.8642Y-3.0709
X2.8642Y-3.1201
X2.8642Y-3.2874
X2.8642Y-3.8484
X2.8661Y-4.2082
X2.874Y-3.8976
X2.8839Y-4.3996
X2.8922Y-2.2456
X2.8937Y-3.376
X2.9035Y-4.6161
X2.9134Y-4.3012
X2.9232Y-3.3563
X2.9232Y-5.128
X2.9302Y-5.5306
X2.9331Y-5.2657
X2.9331Y-5.2953
X2.9331Y-5.3248
X2.935Y-5.4504
X2.9528Y-5.2461
X2.9528Y-5.5082
X2.9663Y-5.6418
X2.9665Y-4.7736
X2.9699Y-4.0443
X2.9724Y-3.4941
X2.9724Y-4.1437
X2.9749Y-5.6016
X2.9882Y-5.0689
X2.9921Y-3.5827
X2.9921Y-4.6161
X2.9921Y-4.9409
X2.9932Y-4.1907
X2.9973Y-5.6414
X3.002Y-3.2087
X3.002Y-4.3602
X3.0112Y-2.562
X3.0118Y-3.7205
X3.0217Y-3.0118
X3.0269Y-5.633
X3.0272Y-3.8111
X3.0315Y-3.3366
X3.0315Y-3.3976
X3.0335Y-3.657
X3.0433Y-4.9705
X3.0512Y-3.8484
X3.0591Y-4.872
X3.061Y-5.5276
X3.0645Y-3.5925
X3.0807Y-3.3563
X3.0906Y-4.3209
X3.1004Y-2.4902
X3.1004Y-2.5591
X3.102Y-5.4661
X3.1102Y-4.4291
X3.1102Y-4.7736
X3.1102Y-4.872
X3.1102Y-4.9705
X3.1102Y-5.0689
X3.1299Y-3.1693
X3.1299Y-3.2087
X3.1398Y-4.6161
X3.1398Y-5.5118
X3.1516Y-4.0702
X3.1516Y-4.1535
X3.1516Y-4.2485
X3.1594Y-3.7795
X3.1594Y-3.8228
X3.1594Y-4.3406
X3.1673Y-4.3701
X3.1791Y-2.1654
X3.1791Y-3.3661
X3.185Y-2.4902
X3.189Y-3.5925
X3.1892Y-4.4134
X3.2283Y-3.189
X3.2283Y-3.2283
X3.2283Y-4.7736
X3.248Y-3.3366
X3.248Y-3.6417
X3.248Y-3.6909
X3.248Y-3.7402
X3.248Y-5.1969
X3.2776Y-3.1693
X3.2776Y-3.9766
X3.2972Y-3.4547
X3.3071Y-2.1358
X3.3071Y-4.5571
X3.3071Y-5.1083
X3.3169Y-3.4154
X3.3268Y-4.5374
X3.3268Y-5.1575
X3.3268Y-5.4331
X3.3366Y-5.1969
X3.3366Y-5.6201
X3.3465Y-2.5
X3.3642Y-3.1988
X3.3661Y-3.7795
X3.376Y-3.5531
X3.3787Y-5.6025
X3.3858Y-4.252
X3.4055Y-3.2972
X3.4055Y-4.1535
X3.4055Y-3.232
X3.4067Y-3.9803
X3.4075Y-4.0398
X3.4099Y-5.6059
X3.4154Y-4.6752
X3.4252Y-2.5
X3.4252Y-3.2579
X3.4252Y-4.7146
X3.435Y-4.6457
X3.435Y-4.8819
X3.435Y-5.4035
X3.4449Y-5.6102
X3.4547Y-4.626
X3.4636Y-5.2891
X3.4646Y-5.2067
X3.4744Y-4.6063
X3.4744Y-5.5453
X3.475Y-5.2466
X3.4941Y-5.315
X3.4941Y-4.5866
X3.5039Y-3.4252
X3.5138Y-3.8976
X3.5157Y-5.4869
X3.5279Y-4.5899
X3.563Y-4.0551
X3.563Y-4.1535
X3.5728Y-3.9469
X3.5728Y-4.252
X3.6122Y-4.8031
X3.6713Y-5.5709
X3.7992Y-4.9508
X3.8189Y-4.3209
X3.8287Y-4.2815
X3.8524Y-3.3563
X3.8599Y-4.3241
X3.8764Y-3.7827
X3.8976Y-4.7625
X3.9035Y-4.6752
X3.9272Y-3.1496
X3.934Y-4.6753
X3.9469Y-3.0413
X3.9567Y-4.8917
X3.9665Y-4.626
X3.9685Y-3.563
X3.9764Y-5.0197
X3.9843Y-3.6516
X4.0035Y-4.6074
X4.0748Y-3.0413
X4.0748Y-3.1496
X4.0748Y-3.5433
X4.0748Y-3.6417
X4.1929Y-3.0413
X4.1929Y-3.1496
X4.1929Y-3.5433
X4.1929Y-3.6417
X4.2421Y-2.4874
X4.2443Y-4.6949
X4.2771Y-4.5256
X4.3096Y-4.4966
X4.3701Y-4.5177
X4.3898Y-3.5827
X4.3898Y-3.6909
X4.4106Y-4.4718
X4.4291Y-3.4941
X4.4882Y-4.3209
X4.498Y-4.7468
X4.5276Y-4.5374
X4.5472Y-4.3012
X4.5472Y-4.7625
X4.5866Y-4.2815
X4.6063Y-4.7933
X4.8327Y-4.2224
X4.8327Y-4.5571
X4.8524Y-4.2421
X4.8524Y-4.5768
X4.9188Y-4.3504
X4.9508Y-4.3012
X4.9606Y-4.5079
X4.9606Y-4.813
X5.0886Y-4.2421
X5.0984Y-4.2028
X5.128Y-4.439
X5.1673Y-2.3134
X5.1673Y-4.4783
X5.1673Y-4.5276
X5.2264Y-4.4783
X5.2264Y-4.5276
X5.2756Y-2.3134
X5.3051Y-2.335
X5.3051Y-2.3803
X5.315Y-4.439
X5.3543Y-4.0157
X5.3543Y-4.1535
X5.4528Y-4.8031
X5.4921Y-4.0157
X5.4921Y-4.1535
X5.502Y-5.0492
X5.5315Y-4.7047
X5.5413Y-4.8031
X5.6201Y-3.8583
X5.6201Y-4.0157
X5.6201Y-4.1634
X5.6201Y-4.2913
X5.6299Y-4.9606
X5.6594Y-4.8031
X5.6693Y-4.685
X5.8268Y-2.5394
X5.8465Y-2.628
T2
X2.0753Y-5.0085
X2.4803Y-5.5807
X2.6398Y-5.128
X2.6808Y-5.1925
X3.7598Y-4.7146
X3.9764Y-4.6654
X4.3987Y-4.6791
X4.6406Y-4.6614
X4.9188Y-4.6476
X5.0138Y-4.4114
X5.0394Y-4.0945
X5.0591Y-4.5276
X5.063Y-4.3683
X5.0787Y-4.9016
X5.0827Y-4.5512
X5.0983Y-4.3114
X5.1181Y-4.5866
X5.1585Y-4.2618
X5.1772Y-4.626
X5.1969Y-4.6654
X5.2559Y-4.6457
X5.3346Y-4.252
X5.3346Y-4.5079
X5.3937Y-4.8228
X5.4528Y-3.9173
X5.4528Y-4.6457
X5.5512Y-4.2618
T3
X2.3917Y-3.0413
X2.4213Y-5.1181
X2.4606Y-3.1693
X2.5689Y-2.7854
X2.6476Y-5.3543
X2.7953Y-3.8484
X2.8338Y-5.4276
X2.8346Y-3.0118
X2.8445Y-2.7953
X2.9626Y-3.0217
X3.248Y-3.8463
X3.2614Y-2.7952
X3.3223Y-5.3859
X3.6319Y-2.7854
X3.9Y-2.8937
X5.5512Y-2.4929
X5.5512Y-3.8091
T4
X3.8681Y-5.4232
X4.1831Y-5.187
X4.1831Y-5.3445
X4.5472Y-5.4134
X4.7539Y-4.813
X4.8031Y-5.5906
X4.8819Y-5.7579
X4.9213Y-5.5807
X4.9508Y-5.0197
X4.9508Y-5.187
X5.0984Y-5.3937
X5.2559Y-5.5906
X5.3839Y-5.5807
X5.4724Y-5.1772
X5.5413Y-4.9902
X5.6102Y-5.5807
T5
X2.4016Y-2.8636
X2.4016Y-2.9636
X2.7428Y-2.8636
X2.7428Y-2.9636
X3.084Y-2.8636
X3.084Y-2.9636
X3.4252Y-2.8636
X3.4252Y-2.9636
X5.7372Y-4.6437
X5.7372Y-4.8957
X5.7372Y-5.1476
X5.8372Y-4.6437
X5.8372Y-4.8957
X5.8372Y-5.1476
T6
X2.0669Y-2.4807
X2.0669Y-2.5807
X2.0669Y-2.6807
X2.0669Y-2.7807
X2.0669Y-2.8807
X2.0669Y-2.9807
X2.0669Y-3.0807
X2.0669Y-3.1807
X2.0669Y-3.2807
X2.0669Y-3.3807
X2.0669Y-3.4807
X2.0669Y-3.5807
X2.0866Y-3.7717
X2.0866Y-3.8717
X2.0866Y-3.9717
X2.0866Y-4.0717
X2.0866Y-4.1717
X2.0866Y-4.2717
X2.0866Y-4.3717
X2.0866Y-4.4717
X2.0866Y-4.5717
X2.0866Y-4.6717
X2.126Y-4.9787
X2.126Y-5.0787
X2.1669Y-2.4807
X2.1669Y-2.5807
X2.1669Y-2.6807
X2.1669Y-2.7807
X2.1669Y-2.8807
X2.1669Y-2.9807
X2.1669Y-3.0807
X2.1669Y-3.1807
X2.1669Y-3.2807
X2.1669Y-3.3807
X2.1669Y-3.4807
X2.1669Y-3.5807
X2.2835Y-4.9783
X2.2835Y-5.0783
X2.3228Y-5.5118
X2.6378Y-5.5118
X5.6874Y-2.3803
X5.6874Y-2.4803
X5.6874Y-2.5803
X5.6874Y-2.6803
X5.748Y-3.7057
X5.748Y-3.8057
X5.748Y-3.9057
X5.748Y-4.0057
X5.748Y-4.1057
X5.748Y-4.2057
X5.748Y-4.3057
X5.748Y-4.4057
X5.7874Y-2.3803
X5.7874Y-2.4803
X5.7874Y-2.5803
X5.7874Y-2.6803
T7
X3.7839Y-2.0421
X3.7839Y-2.1421
X3.7839Y-2.2421
X3.7839Y-2.3421
X3.7839Y-2.4421
X3.7839Y-2.5421
X3.7839Y-2.6421
X3.7839Y-2.7421
X3.7839Y-2.8421
X3.7839Y-2.9421
X3.7839Y-3.0421
X3.7839Y-3.1421
X3.7839Y-3.2421
X3.7839Y-3.3421
X3.7839Y-3.4421
X3.7839Y-3.5421
X3.7839Y-3.6421
X3.7839Y-3.7421
X3.7839Y-3.8421
X3.7839Y-3.9421
X4.0339Y-3.9331
X4.1339Y-3.9331
X4.2339Y-3.9331
X4.4839Y-2.0421
X4.4839Y-2.1421
X4.4839Y-2.2421
X4.4839Y-2.3421
X4.4839Y-2.4421
X4.4839Y-2.5421
X4.4839Y-2.6421
X4.4839Y-2.7421
X4.4839Y-2.8421
X4.4839Y-2.9421
X4.4839Y-3.0421
X4.4839Y-3.1421
X4.4839Y-3.2421
X4.4839Y-3.3421
X4.4839Y-3.4421
X4.4839Y-3.5421
X4.4839Y-3.6421
X4.4839Y-3.7421
X4.4839Y-3.8421
X4.4839Y-3.9421
T8
X2.2244Y-4.4291
X2.2244Y-4.685
X2.3287Y-2.0374
X2.3287Y-2.2933
X2.3287Y-2.4311
X2.3287Y-2.687
X2.4016Y-4.4291
X2.4016Y-4.685
X2.5059Y-2.0374
X2.5059Y-2.2933
X2.5059Y-2.4311
X2.5059Y-2.687
X2.6654Y-2.0374
X2.6654Y-2.2933
X2.6654Y-2.4311
X2.6654Y-2.687
X2.8425Y-2.0374
X2.8425Y-2.2933
X2.8425Y-2.4311
X2.8425Y-2.687
X3.002Y-2.0374
X3.002Y-2.2933
X3.002Y-2.4311
X3.002Y-2.687
X3.1791Y-2.0374
X3.1791Y-2.2933
X3.1791Y-2.4311
X3.1791Y-2.687
X3.3366Y-2.0374
X3.3366Y-2.2933
X3.3386Y-2.4311
X3.3386Y-2.687
X3.5138Y-2.0374
X3.5138Y-2.2933
X3.5157Y-2.4311
X3.5157Y-2.687
T9
X4.0063Y-5.748
X4.1063Y-5.748
X4.3071Y-5.748
X4.4071Y-5.748
X4.6079Y-5.748
X4.7079Y-5.748
X5.7283Y-5.3238
X5.7283Y-5.4238
T10
X3.6174Y-4.9259
X3.6174Y-5.4062
X3.8536Y-4.8471
X4.0899Y-4.9259
X4.0899Y-5.4062
X4.2867Y-4.9259
X4.2867Y-5.4062
X4.5229Y-4.8471
X4.7592Y-4.9259
X4.7592Y-5.4062
X4.956Y-4.9259
X4.956Y-5.4062
X5.1922Y-4.8471
X5.4284Y-4.9259
X5.4284Y-5.4062
M30
