M48
; DRILL file {KiCad (5.1.9-16-g1737927814)-1} date 05/16/21 11:48:59
; FORMAT={-:-/ absolute / inch / decimal}
; #@! TF.CreationDate,2021-05-16T11:48:59-05:00
; #@! TF.GenerationSoftware,Kicad,Pcbnew,(5.1.9-16-g1737927814)-1
; #@! TF.FileFunction,Plated,1,2,PTH
FMAT,2
INCH
T1C0.0394
%
G90
G05
T1
X2.3622Y-1.7717
X2.3622Y-1.8717
X2.3622Y-1.9717
X2.3622Y-2.0717
X2.3622Y-2.1717
X2.3622Y-2.2717
X2.3622Y-2.3717
X2.3622Y-2.4717
X2.3622Y-2.5717
X2.3622Y-2.6717
X2.3622Y-2.7717
X2.3622Y-2.8717
X2.3622Y-2.9717
X2.3622Y-3.0717
X2.3622Y-3.1717
X2.3622Y-3.2717
X2.3622Y-3.3717
X2.3622Y-3.4717
X2.3622Y-3.5717
X2.3622Y-3.6717
X2.4622Y-1.7717
X2.4622Y-1.8717
X2.4622Y-1.9717
X2.4622Y-2.0717
X2.4622Y-2.1717
X2.4622Y-2.2717
X2.4622Y-2.3717
X2.4622Y-2.4717
X2.4622Y-2.5717
X2.4622Y-2.6717
X2.4622Y-2.7717
X2.4622Y-2.8717
X2.4622Y-2.9717
X2.4622Y-3.0717
X2.4622Y-3.1717
X2.4622Y-3.2717
X2.4622Y-3.3717
X2.4622Y-3.4717
X2.4622Y-3.5717
X2.4622Y-3.6717
X2.9528Y-1.7717
X2.9528Y-1.8717
X2.9528Y-1.9717
X2.9528Y-2.0717
X2.9528Y-2.1717
X2.9528Y-2.2717
X2.9528Y-2.3717
X2.9528Y-2.4717
X2.9528Y-2.5717
X2.9528Y-2.6717
X2.9528Y-2.7717
X2.9528Y-2.8717
X2.9528Y-2.9717
X2.9528Y-3.0717
X2.9528Y-3.1717
X2.9528Y-3.2717
X2.9528Y-3.3717
X2.9528Y-3.4717
X2.9528Y-3.5717
X2.9528Y-3.6717
X3.0528Y-1.7717
X3.0528Y-1.8717
X3.0528Y-1.9717
X3.0528Y-2.0717
X3.0528Y-2.1717
X3.0528Y-2.2717
X3.0528Y-2.3717
X3.0528Y-2.4717
X3.0528Y-2.5717
X3.0528Y-2.6717
X3.0528Y-2.7717
X3.0528Y-2.8717
X3.0528Y-2.9717
X3.0528Y-3.0717
X3.0528Y-3.1717
X3.0528Y-3.2717
X3.0528Y-3.3717
X3.0528Y-3.4717
X3.0528Y-3.5717
X3.0528Y-3.6717
X3.937Y-1.7717
X3.937Y-1.8717
X3.937Y-1.9717
X3.937Y-2.0717
X3.937Y-2.1717
X3.937Y-2.2717
X3.937Y-2.3717
X3.937Y-2.4717
X3.937Y-2.5717
X3.937Y-2.6717
X3.937Y-2.7717
X3.937Y-2.8717
X3.937Y-2.9717
X3.937Y-3.0717
X3.937Y-3.1717
X3.937Y-3.2717
X3.937Y-3.3717
X3.937Y-3.4717
X3.937Y-3.5717
X3.937Y-3.6717
X4.037Y-1.7717
X4.037Y-1.8717
X4.037Y-1.9717
X4.037Y-2.0717
X4.037Y-2.1717
X4.037Y-2.2717
X4.037Y-2.3717
X4.037Y-2.4717
X4.037Y-2.5717
X4.037Y-2.6717
X4.037Y-2.7717
X4.037Y-2.8717
X4.037Y-2.9717
X4.037Y-3.0717
X4.037Y-3.1717
X4.037Y-3.2717
X4.037Y-3.3717
X4.037Y-3.4717
X4.037Y-3.5717
X4.037Y-3.6717
T0
M30
