%TF.GenerationSoftware,KiCad,Pcbnew,8.0.2*%
%TF.CreationDate,2024-12-18T21:51:39-06:00*%
%TF.ProjectId,daisy_chain_board,64616973-795f-4636-9861-696e5f626f61,rev?*%
%TF.SameCoordinates,Original*%
%TF.FileFunction,Soldermask,Bot*%
%TF.FilePolarity,Negative*%
%FSLAX46Y46*%
G04 Gerber Fmt 4.6, Leading zero omitted, Abs format (unit mm)*
G04 Created by KiCad (PCBNEW 8.0.2) date 2024-12-18 21:51:39*
%MOMM*%
%LPD*%
G01*
G04 APERTURE LIST*
G04 Aperture macros list*
%AMRoundRect*
0 Rectangle with rounded corners*
0 $1 Rounding radius*
0 $2 $3 $4 $5 $6 $7 $8 $9 X,Y pos of 4 corners*
0 Add a 4 corners polygon primitive as box body*
4,1,4,$2,$3,$4,$5,$6,$7,$8,$9,$2,$3,0*
0 Add four circle primitives for the rounded corners*
1,1,$1+$1,$2,$3*
1,1,$1+$1,$4,$5*
1,1,$1+$1,$6,$7*
1,1,$1+$1,$8,$9*
0 Add four rect primitives between the rounded corners*
20,1,$1+$1,$2,$3,$4,$5,0*
20,1,$1+$1,$4,$5,$6,$7,0*
20,1,$1+$1,$6,$7,$8,$9,0*
20,1,$1+$1,$8,$9,$2,$3,0*%
G04 Aperture macros list end*
%ADD10RoundRect,0.050000X0.850000X-0.850000X0.850000X0.850000X-0.850000X0.850000X-0.850000X-0.850000X0*%
%ADD11O,1.800000X1.800000*%
%ADD12C,2.800000*%
%ADD13C,1.645000*%
%ADD14C,4.945000*%
G04 APERTURE END LIST*
D10*
%TO.C,J7*%
X82266500Y-30194500D03*
D11*
X82266500Y-27654500D03*
X84806500Y-30194500D03*
X84806500Y-27654500D03*
X87346500Y-30194500D03*
X87346500Y-27654500D03*
X89886500Y-30194500D03*
X89886500Y-27654500D03*
X92426500Y-30194500D03*
X92426500Y-27654500D03*
X94966500Y-30194500D03*
X94966500Y-27654500D03*
X97506500Y-30194500D03*
X97506500Y-27654500D03*
X100046500Y-30194500D03*
X100046500Y-27654500D03*
X102586500Y-30194500D03*
X102586500Y-27654500D03*
X105126500Y-30194500D03*
X105126500Y-27654500D03*
X107666500Y-30194500D03*
X107666500Y-27654500D03*
X110206500Y-30194500D03*
X110206500Y-27654500D03*
X112746500Y-30194500D03*
X112746500Y-27654500D03*
X115286500Y-30194500D03*
X115286500Y-27654500D03*
X117826500Y-30194500D03*
X117826500Y-27654500D03*
X120366500Y-30194500D03*
X120366500Y-27654500D03*
X122906500Y-30194500D03*
X122906500Y-27654500D03*
X125446500Y-30194500D03*
X125446500Y-27654500D03*
X127986500Y-30194500D03*
X127986500Y-27654500D03*
X130526500Y-30194500D03*
X130526500Y-27654500D03*
X133066500Y-30194500D03*
X133066500Y-27654500D03*
X135606500Y-30194500D03*
X135606500Y-27654500D03*
X138146500Y-30194500D03*
X138146500Y-27654500D03*
X140686500Y-30194500D03*
X140686500Y-27654500D03*
X143226500Y-30194500D03*
X143226500Y-27654500D03*
%TD*%
D12*
%TO.C,H5*%
X83800000Y-42200000D03*
%TD*%
%TO.C,H6*%
X141800000Y-42200000D03*
%TD*%
D10*
%TO.C,J1*%
X82266500Y-18630000D03*
D11*
X82266500Y-16090000D03*
X84806500Y-18630000D03*
X84806500Y-16090000D03*
X87346500Y-18630000D03*
X87346500Y-16090000D03*
X89886500Y-18630000D03*
X89886500Y-16090000D03*
X92426500Y-18630000D03*
X92426500Y-16090000D03*
X94966500Y-18630000D03*
X94966500Y-16090000D03*
X97506500Y-18630000D03*
X97506500Y-16090000D03*
X100046500Y-18630000D03*
X100046500Y-16090000D03*
X102586500Y-18630000D03*
X102586500Y-16090000D03*
X105126500Y-18630000D03*
X105126500Y-16090000D03*
X107666500Y-18630000D03*
X107666500Y-16090000D03*
X110206500Y-18630000D03*
X110206500Y-16090000D03*
X112746500Y-18630000D03*
X112746500Y-16090000D03*
X115286500Y-18630000D03*
X115286500Y-16090000D03*
X117826500Y-18630000D03*
X117826500Y-16090000D03*
X120366500Y-18630000D03*
X120366500Y-16090000D03*
X122906500Y-18630000D03*
X122906500Y-16090000D03*
X125446500Y-18630000D03*
X125446500Y-16090000D03*
X127986500Y-18630000D03*
X127986500Y-16090000D03*
X130526500Y-18630000D03*
X130526500Y-16090000D03*
X133066500Y-18630000D03*
X133066500Y-16090000D03*
X135606500Y-18630000D03*
X135606500Y-16090000D03*
X138146500Y-18630000D03*
X138146500Y-16090000D03*
X140686500Y-18630000D03*
X140686500Y-16090000D03*
X143226500Y-18630000D03*
X143226500Y-16090000D03*
%TD*%
D13*
%TO.C,J8*%
X129420000Y-34830000D03*
X126650000Y-34830000D03*
X123880000Y-34830000D03*
X121110000Y-34830000D03*
X118340000Y-34830000D03*
X115570000Y-34830000D03*
X112800000Y-34830000D03*
X110030000Y-34830000D03*
X107260000Y-34830000D03*
X104490000Y-34830000D03*
X101720000Y-34830000D03*
X98950000Y-34830000D03*
X96180000Y-34830000D03*
X128035000Y-37670000D03*
X125265000Y-37670000D03*
X122495000Y-37670000D03*
X119725000Y-37670000D03*
X116955000Y-37670000D03*
X114185000Y-37670000D03*
X111415000Y-37670000D03*
X108645000Y-37670000D03*
X105875000Y-37670000D03*
X103105000Y-37670000D03*
X100335000Y-37670000D03*
X97565000Y-37670000D03*
D14*
X136320000Y-36250000D03*
X89280000Y-36250000D03*
%TD*%
M02*
