%TF.GenerationSoftware,KiCad,Pcbnew,8.0.2*%
%TF.CreationDate,2024-12-18T21:51:39-06:00*%
%TF.ProjectId,daisy_chain_board,64616973-795f-4636-9861-696e5f626f61,rev?*%
%TF.SameCoordinates,Original*%
%TF.FileFunction,Copper,L1,Top*%
%TF.FilePolarity,Positive*%
%FSLAX46Y46*%
G04 Gerber Fmt 4.6, Leading zero omitted, Abs format (unit mm)*
G04 Created by KiCad (PCBNEW 8.0.2) date 2024-12-18 21:51:39*
%MOMM*%
%LPD*%
G01*
G04 APERTURE LIST*
G04 Aperture macros list*
%AMRoundRect*
0 Rectangle with rounded corners*
0 $1 Rounding radius*
0 $2 $3 $4 $5 $6 $7 $8 $9 X,Y pos of 4 corners*
0 Add a 4 corners polygon primitive as box body*
4,1,4,$2,$3,$4,$5,$6,$7,$8,$9,$2,$3,0*
0 Add four circle primitives for the rounded corners*
1,1,$1+$1,$2,$3*
1,1,$1+$1,$4,$5*
1,1,$1+$1,$6,$7*
1,1,$1+$1,$8,$9*
0 Add four rect primitives between the rounded corners*
20,1,$1+$1,$2,$3,$4,$5,0*
20,1,$1+$1,$4,$5,$6,$7,0*
20,1,$1+$1,$6,$7,$8,$9,0*
20,1,$1+$1,$8,$9,$2,$3,0*%
G04 Aperture macros list end*
%TA.AperFunction,ComponentPad*%
%ADD10R,1.700000X1.700000*%
%TD*%
%TA.AperFunction,ComponentPad*%
%ADD11O,1.700000X1.700000*%
%TD*%
%TA.AperFunction,SMDPad,CuDef*%
%ADD12RoundRect,0.250000X0.450000X-0.350000X0.450000X0.350000X-0.450000X0.350000X-0.450000X-0.350000X0*%
%TD*%
%TA.AperFunction,SMDPad,CuDef*%
%ADD13RoundRect,0.243750X-0.456250X0.243750X-0.456250X-0.243750X0.456250X-0.243750X0.456250X0.243750X0*%
%TD*%
%TA.AperFunction,ComponentPad*%
%ADD14C,1.545000*%
%TD*%
%TA.AperFunction,ComponentPad*%
%ADD15C,4.845000*%
%TD*%
%TA.AperFunction,ViaPad*%
%ADD16C,0.800000*%
%TD*%
%TA.AperFunction,ViaPad*%
%ADD17C,0.500000*%
%TD*%
%TA.AperFunction,Conductor*%
%ADD18C,0.250000*%
%TD*%
%TA.AperFunction,Conductor*%
%ADD19C,0.400000*%
%TD*%
%TA.AperFunction,Conductor*%
%ADD20C,0.200000*%
%TD*%
%TA.AperFunction,Conductor*%
%ADD21C,0.150000*%
%TD*%
G04 APERTURE END LIST*
D10*
%TO.P,J7,1,Pin_1*%
%TO.N,GND*%
X82266500Y-30194500D03*
D11*
%TO.P,J7,2,Pin_2*%
%TO.N,C-D0*%
X82266500Y-27654500D03*
%TO.P,J7,3,Pin_3*%
%TO.N,GND*%
X84806500Y-30194500D03*
%TO.P,J7,4,Pin_4*%
%TO.N,C-D1*%
X84806500Y-27654500D03*
%TO.P,J7,5,Pin_5*%
%TO.N,GND*%
X87346500Y-30194500D03*
%TO.P,J7,6,Pin_6*%
%TO.N,C-D2*%
X87346500Y-27654500D03*
%TO.P,J7,7,Pin_7*%
%TO.N,GND*%
X89886500Y-30194500D03*
%TO.P,J7,8,Pin_8*%
%TO.N,C-D3*%
X89886500Y-27654500D03*
%TO.P,J7,9,Pin_9*%
%TO.N,GND*%
X92426500Y-30194500D03*
%TO.P,J7,10,Pin_10*%
%TO.N,C-D4*%
X92426500Y-27654500D03*
%TO.P,J7,11,Pin_11*%
%TO.N,GND*%
X94966500Y-30194500D03*
%TO.P,J7,12,Pin_12*%
%TO.N,C-D5*%
X94966500Y-27654500D03*
%TO.P,J7,13,Pin_13*%
%TO.N,GND*%
X97506500Y-30194500D03*
%TO.P,J7,14,Pin_14*%
%TO.N,C-D6*%
X97506500Y-27654500D03*
%TO.P,J7,15,Pin_15*%
%TO.N,GND*%
X100046500Y-30194500D03*
%TO.P,J7,16,Pin_16*%
%TO.N,C-D7*%
X100046500Y-27654500D03*
%TO.P,J7,17,Pin_17*%
%TO.N,GND*%
X102586500Y-30194500D03*
%TO.P,J7,18,Pin_18*%
%TO.N,C-DP*%
X102586500Y-27654500D03*
%TO.P,J7,19,Pin_19*%
%TO.N,GND*%
X105126500Y-30194500D03*
%TO.P,J7,20,Pin_20*%
X105126500Y-27654500D03*
%TO.P,J7,21,Pin_21*%
X107666500Y-30194500D03*
%TO.P,J7,22,Pin_22*%
X107666500Y-27654500D03*
%TO.P,J7,23,Pin_23*%
X110206500Y-30194500D03*
%TO.P,J7,24,Pin_24*%
X110206500Y-27654500D03*
%TO.P,J7,25,Pin_25*%
%TO.N,unconnected-(J7-Pin_25-Pad25)*%
X112746500Y-30194500D03*
%TO.P,J7,26,Pin_26*%
%TO.N,TERMPOW*%
X112746500Y-27654500D03*
%TO.P,J7,27,Pin_27*%
%TO.N,GND*%
X115286500Y-30194500D03*
%TO.P,J7,28,Pin_28*%
X115286500Y-27654500D03*
%TO.P,J7,29,Pin_29*%
X117826500Y-30194500D03*
%TO.P,J7,30,Pin_30*%
X117826500Y-27654500D03*
%TO.P,J7,31,Pin_31*%
X120366500Y-30194500D03*
%TO.P,J7,32,Pin_32*%
%TO.N,C-ATN*%
X120366500Y-27654500D03*
%TO.P,J7,33,Pin_33*%
%TO.N,GND*%
X122906500Y-30194500D03*
%TO.P,J7,34,Pin_34*%
%TO.N,unconnected-(J7-Pin_34-Pad34)*%
X122906500Y-27654500D03*
%TO.P,J7,35,Pin_35*%
%TO.N,GND*%
X125446500Y-30194500D03*
%TO.P,J7,36,Pin_36*%
%TO.N,C-BSY*%
X125446500Y-27654500D03*
%TO.P,J7,37,Pin_37*%
%TO.N,GND*%
X127986500Y-30194500D03*
%TO.P,J7,38,Pin_38*%
%TO.N,C-ACK*%
X127986500Y-27654500D03*
%TO.P,J7,39,Pin_39*%
%TO.N,GND*%
X130526500Y-30194500D03*
%TO.P,J7,40,Pin_40*%
%TO.N,C-RST*%
X130526500Y-27654500D03*
%TO.P,J7,41,Pin_41*%
%TO.N,GND*%
X133066500Y-30194500D03*
%TO.P,J7,42,Pin_42*%
%TO.N,C-MSG*%
X133066500Y-27654500D03*
%TO.P,J7,43,Pin_43*%
%TO.N,GND*%
X135606500Y-30194500D03*
%TO.P,J7,44,Pin_44*%
%TO.N,C-SEL*%
X135606500Y-27654500D03*
%TO.P,J7,45,Pin_45*%
%TO.N,GND*%
X138146500Y-30194500D03*
%TO.P,J7,46,Pin_46*%
%TO.N,C-C_D*%
X138146500Y-27654500D03*
%TO.P,J7,47,Pin_47*%
%TO.N,GND*%
X140686500Y-30194500D03*
%TO.P,J7,48,Pin_48*%
%TO.N,C-REQ*%
X140686500Y-27654500D03*
%TO.P,J7,49,Pin_49*%
%TO.N,GND*%
X143226500Y-30194500D03*
%TO.P,J7,50,Pin_50*%
%TO.N,C-I_O*%
X143226500Y-27654500D03*
%TD*%
D12*
%TO.P,R14,1*%
%TO.N,C-BSY*%
X125446500Y-8600000D03*
%TO.P,R14,2*%
%TO.N,Net-(D14-A)*%
X125446500Y-6600000D03*
%TD*%
%TO.P,R8,1*%
%TO.N,C-D7*%
X100046500Y-8600000D03*
%TO.P,R8,2*%
%TO.N,Net-(D8-A)*%
X100046500Y-6600000D03*
%TD*%
%TO.P,R12,1*%
%TO.N,TERMPOW*%
X112746500Y-8600000D03*
%TO.P,R12,2*%
%TO.N,Net-(D12-A)*%
X112746500Y-6600000D03*
%TD*%
D13*
%TO.P,D15,1,K*%
%TO.N,GND*%
X127986500Y-2502500D03*
%TO.P,D15,2,A*%
%TO.N,Net-(D15-A)*%
X127986500Y-4377500D03*
%TD*%
%TO.P,D9,1,K*%
%TO.N,GND*%
X102586500Y-2502500D03*
%TO.P,D9,2,A*%
%TO.N,Net-(D9-A)*%
X102586500Y-4377500D03*
%TD*%
%TO.P,D3,1,K*%
%TO.N,GND*%
X87346500Y-2502500D03*
%TO.P,D3,2,A*%
%TO.N,Net-(D3-A)*%
X87346500Y-4377500D03*
%TD*%
%TO.P,D12,1,K*%
%TO.N,GND*%
X112746500Y-2502500D03*
%TO.P,D12,2,A*%
%TO.N,Net-(D12-A)*%
X112746500Y-4377500D03*
%TD*%
D12*
%TO.P,R17,1*%
%TO.N,C-MSG*%
X133066500Y-8600000D03*
%TO.P,R17,2*%
%TO.N,Net-(D17-A)*%
X133066500Y-6600000D03*
%TD*%
D13*
%TO.P,D8,1,K*%
%TO.N,GND*%
X100046500Y-2502500D03*
%TO.P,D8,2,A*%
%TO.N,Net-(D8-A)*%
X100046500Y-4377500D03*
%TD*%
D12*
%TO.P,R15,1*%
%TO.N,C-ACK*%
X127986500Y-8600000D03*
%TO.P,R15,2*%
%TO.N,Net-(D15-A)*%
X127986500Y-6600000D03*
%TD*%
D13*
%TO.P,D21,1,K*%
%TO.N,GND*%
X143226500Y-2502500D03*
%TO.P,D21,2,A*%
%TO.N,Net-(D21-A)*%
X143226500Y-4377500D03*
%TD*%
D12*
%TO.P,R1,1*%
%TO.N,C-D0*%
X82266500Y-8600000D03*
%TO.P,R1,2*%
%TO.N,Net-(D1-A)*%
X82266500Y-6600000D03*
%TD*%
%TO.P,R5,1*%
%TO.N,C-D4*%
X92426500Y-8600000D03*
%TO.P,R5,2*%
%TO.N,Net-(D5-A)*%
X92426500Y-6600000D03*
%TD*%
D13*
%TO.P,D17,1,K*%
%TO.N,GND*%
X133066500Y-2502500D03*
%TO.P,D17,2,A*%
%TO.N,Net-(D17-A)*%
X133066500Y-4377500D03*
%TD*%
D12*
%TO.P,R19,1*%
%TO.N,C-C_D*%
X138146500Y-8600000D03*
%TO.P,R19,2*%
%TO.N,Net-(D19-A)*%
X138146500Y-6600000D03*
%TD*%
D13*
%TO.P,D6,1,K*%
%TO.N,GND*%
X94966500Y-2502500D03*
%TO.P,D6,2,A*%
%TO.N,Net-(D6-A)*%
X94966500Y-4377500D03*
%TD*%
%TO.P,D16,1,K*%
%TO.N,GND*%
X130526500Y-2502500D03*
%TO.P,D16,2,A*%
%TO.N,Net-(D16-A)*%
X130526500Y-4377500D03*
%TD*%
D12*
%TO.P,R7,1*%
%TO.N,C-D6*%
X97506500Y-8600000D03*
%TO.P,R7,2*%
%TO.N,Net-(D7-A)*%
X97506500Y-6600000D03*
%TD*%
D13*
%TO.P,D5,1,K*%
%TO.N,GND*%
X92426500Y-2502500D03*
%TO.P,D5,2,A*%
%TO.N,Net-(D5-A)*%
X92426500Y-4377500D03*
%TD*%
%TO.P,D1,1,K*%
%TO.N,GND*%
X82266500Y-2502500D03*
%TO.P,D1,2,A*%
%TO.N,Net-(D1-A)*%
X82266500Y-4377500D03*
%TD*%
%TO.P,D14,1,K*%
%TO.N,GND*%
X125446500Y-2502500D03*
%TO.P,D14,2,A*%
%TO.N,Net-(D14-A)*%
X125446500Y-4377500D03*
%TD*%
%TO.P,D2,1,K*%
%TO.N,GND*%
X84806500Y-2502500D03*
%TO.P,D2,2,A*%
%TO.N,Net-(D2-A)*%
X84806500Y-4377500D03*
%TD*%
%TO.P,D4,1,K*%
%TO.N,GND*%
X89886500Y-2502500D03*
%TO.P,D4,2,A*%
%TO.N,Net-(D4-A)*%
X89886500Y-4377500D03*
%TD*%
D12*
%TO.P,R4,1*%
%TO.N,C-D3*%
X89886500Y-8600000D03*
%TO.P,R4,2*%
%TO.N,Net-(D4-A)*%
X89886500Y-6600000D03*
%TD*%
D13*
%TO.P,D19,1,K*%
%TO.N,GND*%
X138146500Y-2502500D03*
%TO.P,D19,2,A*%
%TO.N,Net-(D19-A)*%
X138146500Y-4377500D03*
%TD*%
%TO.P,D13,1,K*%
%TO.N,GND*%
X120366500Y-2502500D03*
%TO.P,D13,2,A*%
%TO.N,Net-(D13-A)*%
X120366500Y-4377500D03*
%TD*%
D12*
%TO.P,R2,1*%
%TO.N,C-D1*%
X84806500Y-8600000D03*
%TO.P,R2,2*%
%TO.N,Net-(D2-A)*%
X84806500Y-6600000D03*
%TD*%
%TO.P,R20,1*%
%TO.N,C-REQ*%
X140686500Y-8600000D03*
%TO.P,R20,2*%
%TO.N,Net-(D20-A)*%
X140686500Y-6600000D03*
%TD*%
%TO.P,R18,1*%
%TO.N,C-SEL*%
X135606500Y-8600000D03*
%TO.P,R18,2*%
%TO.N,Net-(D18-A)*%
X135606500Y-6600000D03*
%TD*%
D13*
%TO.P,D7,1,K*%
%TO.N,GND*%
X97506500Y-2502500D03*
%TO.P,D7,2,A*%
%TO.N,Net-(D7-A)*%
X97506500Y-4377500D03*
%TD*%
D10*
%TO.P,J1,1,Pin_1*%
%TO.N,GND*%
X82266500Y-18630000D03*
D11*
%TO.P,J1,2,Pin_2*%
%TO.N,C-D0*%
X82266500Y-16090000D03*
%TO.P,J1,3,Pin_3*%
%TO.N,GND*%
X84806500Y-18630000D03*
%TO.P,J1,4,Pin_4*%
%TO.N,C-D1*%
X84806500Y-16090000D03*
%TO.P,J1,5,Pin_5*%
%TO.N,GND*%
X87346500Y-18630000D03*
%TO.P,J1,6,Pin_6*%
%TO.N,C-D2*%
X87346500Y-16090000D03*
%TO.P,J1,7,Pin_7*%
%TO.N,GND*%
X89886500Y-18630000D03*
%TO.P,J1,8,Pin_8*%
%TO.N,C-D3*%
X89886500Y-16090000D03*
%TO.P,J1,9,Pin_9*%
%TO.N,GND*%
X92426500Y-18630000D03*
%TO.P,J1,10,Pin_10*%
%TO.N,C-D4*%
X92426500Y-16090000D03*
%TO.P,J1,11,Pin_11*%
%TO.N,GND*%
X94966500Y-18630000D03*
%TO.P,J1,12,Pin_12*%
%TO.N,C-D5*%
X94966500Y-16090000D03*
%TO.P,J1,13,Pin_13*%
%TO.N,GND*%
X97506500Y-18630000D03*
%TO.P,J1,14,Pin_14*%
%TO.N,C-D6*%
X97506500Y-16090000D03*
%TO.P,J1,15,Pin_15*%
%TO.N,GND*%
X100046500Y-18630000D03*
%TO.P,J1,16,Pin_16*%
%TO.N,C-D7*%
X100046500Y-16090000D03*
%TO.P,J1,17,Pin_17*%
%TO.N,GND*%
X102586500Y-18630000D03*
%TO.P,J1,18,Pin_18*%
%TO.N,C-DP*%
X102586500Y-16090000D03*
%TO.P,J1,19,Pin_19*%
%TO.N,GND*%
X105126500Y-18630000D03*
%TO.P,J1,20,Pin_20*%
X105126500Y-16090000D03*
%TO.P,J1,21,Pin_21*%
X107666500Y-18630000D03*
%TO.P,J1,22,Pin_22*%
X107666500Y-16090000D03*
%TO.P,J1,23,Pin_23*%
X110206500Y-18630000D03*
%TO.P,J1,24,Pin_24*%
X110206500Y-16090000D03*
%TO.P,J1,25,Pin_25*%
%TO.N,unconnected-(J1-Pin_25-Pad25)*%
X112746500Y-18630000D03*
%TO.P,J1,26,Pin_26*%
%TO.N,TERMPOW*%
X112746500Y-16090000D03*
%TO.P,J1,27,Pin_27*%
%TO.N,GND*%
X115286500Y-18630000D03*
%TO.P,J1,28,Pin_28*%
X115286500Y-16090000D03*
%TO.P,J1,29,Pin_29*%
X117826500Y-18630000D03*
%TO.P,J1,30,Pin_30*%
X117826500Y-16090000D03*
%TO.P,J1,31,Pin_31*%
X120366500Y-18630000D03*
%TO.P,J1,32,Pin_32*%
%TO.N,C-ATN*%
X120366500Y-16090000D03*
%TO.P,J1,33,Pin_33*%
%TO.N,GND*%
X122906500Y-18630000D03*
%TO.P,J1,34,Pin_34*%
%TO.N,unconnected-(J1-Pin_34-Pad34)*%
X122906500Y-16090000D03*
%TO.P,J1,35,Pin_35*%
%TO.N,GND*%
X125446500Y-18630000D03*
%TO.P,J1,36,Pin_36*%
%TO.N,C-BSY*%
X125446500Y-16090000D03*
%TO.P,J1,37,Pin_37*%
%TO.N,GND*%
X127986500Y-18630000D03*
%TO.P,J1,38,Pin_38*%
%TO.N,C-ACK*%
X127986500Y-16090000D03*
%TO.P,J1,39,Pin_39*%
%TO.N,GND*%
X130526500Y-18630000D03*
%TO.P,J1,40,Pin_40*%
%TO.N,C-RST*%
X130526500Y-16090000D03*
%TO.P,J1,41,Pin_41*%
%TO.N,GND*%
X133066500Y-18630000D03*
%TO.P,J1,42,Pin_42*%
%TO.N,C-MSG*%
X133066500Y-16090000D03*
%TO.P,J1,43,Pin_43*%
%TO.N,GND*%
X135606500Y-18630000D03*
%TO.P,J1,44,Pin_44*%
%TO.N,C-SEL*%
X135606500Y-16090000D03*
%TO.P,J1,45,Pin_45*%
%TO.N,GND*%
X138146500Y-18630000D03*
%TO.P,J1,46,Pin_46*%
%TO.N,C-C_D*%
X138146500Y-16090000D03*
%TO.P,J1,47,Pin_47*%
%TO.N,GND*%
X140686500Y-18630000D03*
%TO.P,J1,48,Pin_48*%
%TO.N,C-REQ*%
X140686500Y-16090000D03*
%TO.P,J1,49,Pin_49*%
%TO.N,GND*%
X143226500Y-18630000D03*
%TO.P,J1,50,Pin_50*%
%TO.N,C-I_O*%
X143226500Y-16090000D03*
%TD*%
D13*
%TO.P,D20,1,K*%
%TO.N,GND*%
X140686500Y-2502500D03*
%TO.P,D20,2,A*%
%TO.N,Net-(D20-A)*%
X140686500Y-4377500D03*
%TD*%
D12*
%TO.P,R9,1*%
%TO.N,C-DP*%
X102586500Y-8600000D03*
%TO.P,R9,2*%
%TO.N,Net-(D9-A)*%
X102586500Y-6600000D03*
%TD*%
%TO.P,R3,1*%
%TO.N,C-D2*%
X87346500Y-8600000D03*
%TO.P,R3,2*%
%TO.N,Net-(D3-A)*%
X87346500Y-6600000D03*
%TD*%
%TO.P,R16,1*%
%TO.N,C-RST*%
X130526500Y-8600000D03*
%TO.P,R16,2*%
%TO.N,Net-(D16-A)*%
X130526500Y-6600000D03*
%TD*%
%TO.P,R13,1*%
%TO.N,C-ATN*%
X120366500Y-8600000D03*
%TO.P,R13,2*%
%TO.N,Net-(D13-A)*%
X120366500Y-6600000D03*
%TD*%
D13*
%TO.P,D18,1,K*%
%TO.N,GND*%
X135606500Y-2502500D03*
%TO.P,D18,2,A*%
%TO.N,Net-(D18-A)*%
X135606500Y-4377500D03*
%TD*%
D12*
%TO.P,R6,1*%
%TO.N,C-D5*%
X94966500Y-8600000D03*
%TO.P,R6,2*%
%TO.N,Net-(D6-A)*%
X94966500Y-6600000D03*
%TD*%
%TO.P,R21,1*%
%TO.N,C-I_O*%
X143226500Y-8600000D03*
%TO.P,R21,2*%
%TO.N,Net-(D21-A)*%
X143226500Y-6600000D03*
%TD*%
D14*
%TO.P,J8,1,1*%
%TO.N,C-REQ*%
X129420000Y-34830000D03*
%TO.P,J8,2,2*%
%TO.N,C-MSG*%
X126650000Y-34830000D03*
%TO.P,J8,3,3*%
%TO.N,C-I_O*%
X123880000Y-34830000D03*
%TO.P,J8,4,4*%
%TO.N,C-RST*%
X121110000Y-34830000D03*
%TO.P,J8,5,5*%
%TO.N,C-ACK*%
X118340000Y-34830000D03*
%TO.P,J8,6,6*%
%TO.N,C-BSY*%
X115570000Y-34830000D03*
%TO.P,J8,7,7*%
%TO.N,GND*%
X112800000Y-34830000D03*
%TO.P,J8,8,8*%
%TO.N,C-D0*%
X110030000Y-34830000D03*
%TO.P,J8,9,9*%
%TO.N,GND*%
X107260000Y-34830000D03*
%TO.P,J8,10,10*%
%TO.N,C-D3*%
X104490000Y-34830000D03*
%TO.P,J8,11,11*%
%TO.N,C-D5*%
X101720000Y-34830000D03*
%TO.P,J8,12,12*%
%TO.N,C-D6*%
X98950000Y-34830000D03*
%TO.P,J8,13,13*%
%TO.N,C-D7*%
X96180000Y-34830000D03*
%TO.P,J8,14,14*%
%TO.N,GND*%
X128035000Y-37670000D03*
%TO.P,J8,15,15*%
%TO.N,C-C_D*%
X125265000Y-37670000D03*
%TO.P,J8,16,16*%
%TO.N,GND*%
X122495000Y-37670000D03*
%TO.P,J8,17,17*%
%TO.N,C-ATN*%
X119725000Y-37670000D03*
%TO.P,J8,18,18*%
%TO.N,GND*%
X116955000Y-37670000D03*
%TO.P,J8,19,19*%
%TO.N,C-SEL*%
X114185000Y-37670000D03*
%TO.P,J8,20,20*%
%TO.N,C-DP*%
X111415000Y-37670000D03*
%TO.P,J8,21,21*%
%TO.N,C-D1*%
X108645000Y-37670000D03*
%TO.P,J8,22,22*%
%TO.N,C-D2*%
X105875000Y-37670000D03*
%TO.P,J8,23,23*%
%TO.N,C-D4*%
X103105000Y-37670000D03*
%TO.P,J8,24,24*%
%TO.N,GND*%
X100335000Y-37670000D03*
%TO.P,J8,25,25*%
%TO.N,TERMPOW*%
X97565000Y-37670000D03*
D15*
%TO.P,J8,MH1,MH1*%
%TO.N,GND*%
X136320000Y-36250000D03*
%TO.P,J8,MH2,MH2*%
X89280000Y-36250000D03*
%TD*%
D16*
%TO.N,GND*%
X126629563Y-11970000D03*
X116542607Y-11970000D03*
X123680000Y-2610000D03*
X129151302Y-11970000D03*
X104350000Y-2510000D03*
X131673041Y-11970000D03*
X111499129Y-11970000D03*
X136716519Y-11970000D03*
X108977390Y-11970000D03*
X101412173Y-11970000D03*
X118660000Y-2610000D03*
X103933912Y-11970000D03*
X91325217Y-11970000D03*
X134194780Y-11970000D03*
X111340000Y-2610000D03*
X86281739Y-11970000D03*
X124107824Y-11970000D03*
X83760000Y-11970000D03*
X93846956Y-11970000D03*
X106455651Y-11970000D03*
X121586085Y-11970000D03*
X100364000Y-35719000D03*
X96368695Y-11970000D03*
X114020868Y-11970000D03*
X98890434Y-11970000D03*
X139238258Y-11970000D03*
X141760000Y-11970000D03*
X119064346Y-11970000D03*
X88803478Y-11970000D03*
D17*
%TO.N,C-REQ*%
X130419308Y-32414713D03*
X139350000Y-31150000D03*
%TO.N,C-MSG*%
X128817950Y-31630159D03*
X133993502Y-31150000D03*
%TO.N,C-BSY*%
X124270000Y-30872990D03*
X117187010Y-31684832D03*
%TO.N,C-SEL*%
X135828947Y-32665648D03*
X114530000Y-32870000D03*
%TO.N,C-RST*%
X121540000Y-31560000D03*
X131560000Y-28920000D03*
%TO.N,C-ACK*%
X118812489Y-32689064D03*
X126730000Y-32950000D03*
%TO.N,C-DP*%
X100860000Y-33850000D03*
X110992489Y-31685265D03*
%TO.N,C-D0*%
X110120000Y-31630000D03*
X83780000Y-31480000D03*
%TO.N,C-D1*%
X108350000Y-31680000D03*
X86370000Y-31530000D03*
%TO.N,C-D2*%
X105950000Y-31630000D03*
X89002424Y-31302989D03*
%TO.N,C-D3*%
X104280000Y-31580000D03*
X91693529Y-31178968D03*
%TO.N,C-D4*%
X103220000Y-31750000D03*
X93930504Y-30851957D03*
%TO.N,C-D5*%
X96380000Y-31150000D03*
X102510000Y-31434946D03*
%TO.N,C-D6*%
X100973502Y-29027449D03*
%TO.N,C-I_O*%
X125036247Y-31748511D03*
X142000000Y-31220000D03*
%TO.N,C-C_D*%
X126371042Y-31585360D03*
X137054940Y-31121502D03*
%TD*%
D18*
%TO.N,GND*%
X127986500Y-30194500D02*
X129088011Y-29092989D01*
D19*
X139323011Y-29017989D02*
X138146500Y-30194500D01*
D18*
X143226500Y-30194500D02*
X141788011Y-28756011D01*
D19*
X122906500Y-30194500D02*
X124083011Y-29017989D01*
X124083011Y-29017989D02*
X124083011Y-27354150D01*
X133066500Y-30194500D02*
X134243011Y-29017989D01*
D18*
X141788011Y-28756011D02*
X141788011Y-27198238D01*
D20*
%TO.N,C-REQ*%
X134935004Y-32252534D02*
X130935040Y-32252534D01*
D18*
X141788500Y-26552500D02*
X140686500Y-27654500D01*
D20*
X138901488Y-31598512D02*
X135589026Y-31598512D01*
D18*
X141788500Y-17192000D02*
X141788500Y-26552500D01*
X140686500Y-16090000D02*
X140686500Y-8600000D01*
D20*
X135589026Y-31598512D02*
X134935004Y-32252534D01*
X139350000Y-31150000D02*
X138901488Y-31598512D01*
X130772861Y-32414713D02*
X130419308Y-32414713D01*
X130935040Y-32252534D02*
X130772861Y-32414713D01*
D18*
X140686500Y-16090000D02*
X141788500Y-17192000D01*
D20*
%TO.N,C-MSG*%
X131178913Y-31598512D02*
X129203150Y-31598512D01*
X131368458Y-31408967D02*
X131178913Y-31598512D01*
X133993502Y-31150000D02*
X133734535Y-31408967D01*
X129171503Y-31630159D02*
X128817950Y-31630159D01*
D18*
X133066500Y-16090000D02*
X133066500Y-8600000D01*
X134168500Y-26552500D02*
X133066500Y-27654500D01*
X134168500Y-17192000D02*
X134168500Y-26552500D01*
D20*
X129203150Y-31598512D02*
X129171503Y-31630159D01*
D18*
X133066500Y-16090000D02*
X134168500Y-17192000D01*
D20*
X133734535Y-31408967D02*
X131368458Y-31408967D01*
D18*
%TO.N,C-BSY*%
X125446500Y-16090000D02*
X125446500Y-8600000D01*
D20*
X123871489Y-31271501D02*
X122389539Y-31271501D01*
D18*
X125446500Y-16090000D02*
X126548500Y-17192000D01*
D20*
X122389539Y-31271501D02*
X122141027Y-31022989D01*
X121371049Y-31022989D02*
X120709206Y-31684832D01*
X120709206Y-31684832D02*
X117187010Y-31684832D01*
D18*
X126548500Y-26552500D02*
X125446500Y-27654500D01*
D20*
X124270000Y-30872990D02*
X123871489Y-31271501D01*
D18*
X126548500Y-17192000D02*
X126548500Y-26552500D01*
D20*
X122141027Y-31022989D02*
X121371049Y-31022989D01*
%TO.N,C-SEL*%
X125780245Y-32162989D02*
X125815069Y-32197814D01*
X115237011Y-32162989D02*
X124744761Y-32162989D01*
X124744761Y-32162989D02*
X124807285Y-32225513D01*
D18*
X135606500Y-16090000D02*
X135606500Y-8600000D01*
D20*
X124807285Y-32225513D02*
X125265209Y-32225513D01*
X128076984Y-33221022D02*
X135273573Y-33221022D01*
X125265209Y-32225513D02*
X125327733Y-32162989D01*
X125327733Y-32162989D02*
X125780245Y-32162989D01*
X126006628Y-32389373D02*
X127245335Y-32389373D01*
D18*
X136708500Y-17192000D02*
X136708500Y-26552500D01*
X135606500Y-16090000D02*
X136708500Y-17192000D01*
D20*
X114530000Y-32870000D02*
X115237011Y-32162989D01*
X135273573Y-33221022D02*
X135828947Y-32665648D01*
D18*
X136708500Y-26552500D02*
X135606500Y-27654500D01*
D20*
X127245335Y-32389373D02*
X128076984Y-33221022D01*
X125815069Y-32197814D02*
X126006628Y-32389373D01*
D18*
%TO.N,C-RST*%
X131628500Y-26552500D02*
X130526500Y-27654500D01*
D20*
X126298628Y-30936334D02*
X126382489Y-30936334D01*
X128503461Y-31271501D02*
X128697065Y-31077897D01*
X124778514Y-31271501D02*
X125963461Y-31271501D01*
X127469539Y-31271501D02*
X128503461Y-31271501D01*
X131006903Y-31271501D02*
X131346447Y-30931957D01*
D21*
X131346447Y-30931957D02*
X131578501Y-30699903D01*
D20*
X127384509Y-31186471D02*
X127469539Y-31271501D01*
D18*
X130526500Y-16090000D02*
X131628500Y-17192000D01*
D21*
X131578501Y-29292054D02*
X131560000Y-29273553D01*
D20*
X129713650Y-31077897D02*
X129907254Y-31271501D01*
D21*
X131578501Y-30699903D02*
X131578501Y-29292054D01*
D18*
X131628500Y-17192000D02*
X131628500Y-26552500D01*
D20*
X125963461Y-31271501D02*
X126298628Y-30936334D01*
X126632626Y-31186471D02*
X127384509Y-31186471D01*
X126382489Y-30936334D02*
X126632626Y-31186471D01*
X124240016Y-31809999D02*
X124778514Y-31271501D01*
D21*
X131560000Y-29273553D02*
X131560000Y-28920000D01*
D20*
X121540000Y-31560000D02*
X121789999Y-31809999D01*
X128697065Y-31077897D02*
X129713650Y-31077897D01*
X129907254Y-31271501D02*
X131006903Y-31271501D01*
D18*
X130526500Y-16090000D02*
X130526500Y-8600000D01*
D20*
X121789999Y-31809999D02*
X124240016Y-31809999D01*
D18*
%TO.N,C-ACK*%
X129088500Y-17192000D02*
X129088500Y-26552500D01*
D20*
X119073425Y-32950000D02*
X118812489Y-32689064D01*
X126730000Y-32950000D02*
X119073425Y-32950000D01*
D18*
X127986500Y-16090000D02*
X129088500Y-17192000D01*
X129088500Y-26552500D02*
X127986500Y-27654500D01*
X127986500Y-16090000D02*
X127986500Y-8600000D01*
%TO.N,C-ATN*%
X120366500Y-8600000D02*
X120366500Y-16090000D01*
X121468500Y-26552500D02*
X120366500Y-27654500D01*
X120366500Y-16090000D02*
X121468500Y-17192000D01*
X121468500Y-17192000D02*
X121468500Y-26552500D01*
D20*
%TO.N,C-DP*%
X109130745Y-33547009D02*
X110992489Y-31685265D01*
D18*
X103688500Y-17192000D02*
X103688500Y-26552500D01*
X103688500Y-26552500D02*
X102586500Y-27654500D01*
X102586500Y-16090000D02*
X102586500Y-8600000D01*
X102586500Y-16090000D02*
X103688500Y-17192000D01*
D20*
X101162991Y-33547009D02*
X109130745Y-33547009D01*
X100860000Y-33850000D02*
X101162991Y-33547009D01*
D18*
%TO.N,C-D0*%
X82266500Y-16090000D02*
X82266500Y-8600000D01*
D20*
X94548188Y-33219999D02*
X107515963Y-33219999D01*
X109105962Y-31630000D02*
X110120000Y-31630000D01*
D18*
X83368500Y-26552500D02*
X82266500Y-27654500D01*
D20*
X93638188Y-32310000D02*
X94548188Y-33219999D01*
D18*
X82266500Y-16090000D02*
X83368500Y-17192000D01*
X83368500Y-17192000D02*
X83368500Y-26552500D01*
D20*
X84610000Y-32310000D02*
X93638188Y-32310000D01*
X107515963Y-33219999D02*
X109105962Y-31630000D01*
X83780000Y-31480000D02*
X84610000Y-32310000D01*
D18*
%TO.N,C-D1*%
X85908500Y-17192000D02*
X85908500Y-26552500D01*
X84806500Y-16090000D02*
X85908500Y-17192000D01*
X84806500Y-16090000D02*
X84806500Y-8600000D01*
X85908500Y-26552500D02*
X84806500Y-27654500D01*
D20*
X86822989Y-31982989D02*
X93773640Y-31982989D01*
X86370000Y-31530000D02*
X86822989Y-31982989D01*
X107137011Y-32892989D02*
X108350000Y-31680000D01*
X94683639Y-32892989D02*
X107137011Y-32892989D01*
X93773640Y-31982989D02*
X94683639Y-32892989D01*
%TO.N,C-D2*%
X94819089Y-32565978D02*
X93909092Y-31655978D01*
X105950000Y-31630000D02*
X105014022Y-32565978D01*
X89355413Y-31655978D02*
X89002424Y-31302989D01*
D18*
X87346500Y-16090000D02*
X88448500Y-17192000D01*
X87346500Y-8600000D02*
X87346500Y-16090000D01*
X88448500Y-26552500D02*
X87346500Y-27654500D01*
D20*
X105014022Y-32565978D02*
X94819089Y-32565978D01*
X93909092Y-31655978D02*
X89355413Y-31655978D01*
D18*
X88448500Y-17192000D02*
X88448500Y-26552500D01*
%TO.N,C-D3*%
X90988500Y-26552500D02*
X89886500Y-27654500D01*
D20*
X103621033Y-32238967D02*
X94954540Y-32238967D01*
X94044544Y-31328967D02*
X91843528Y-31328967D01*
D18*
X89886500Y-16090000D02*
X90988500Y-17192000D01*
D20*
X104280000Y-31580000D02*
X103621033Y-32238967D01*
D18*
X90988500Y-17192000D02*
X90988500Y-26552500D01*
D20*
X94954540Y-32238967D02*
X94044544Y-31328967D01*
X91843528Y-31328967D02*
X91693529Y-31178968D01*
D18*
X89886500Y-16090000D02*
X89886500Y-8600000D01*
%TO.N,C-D4*%
X92426500Y-8600000D02*
X92426500Y-16090000D01*
X93528500Y-26552500D02*
X92426500Y-27654500D01*
X92426500Y-16090000D02*
X93528500Y-17192000D01*
D20*
X103058044Y-31911956D02*
X95089992Y-31911956D01*
X103220000Y-31750000D02*
X103058044Y-31911956D01*
D18*
X93528500Y-17192000D02*
X93528500Y-26552500D01*
D20*
X95089992Y-31911956D02*
X94029993Y-30851957D01*
X94029993Y-30851957D02*
X93930504Y-30851957D01*
D18*
%TO.N,C-D5*%
X96068500Y-17192000D02*
X96068500Y-26552500D01*
X94966500Y-16090000D02*
X94966500Y-8600000D01*
D20*
X96380000Y-31150000D02*
X96664946Y-31434946D01*
D18*
X96068500Y-26552500D02*
X94966500Y-27654500D01*
D20*
X96664946Y-31434946D02*
X102510000Y-31434946D01*
D18*
X94966500Y-16090000D02*
X96068500Y-17192000D01*
D20*
%TO.N,C-D6*%
X97506500Y-27654500D02*
X98879449Y-29027449D01*
D18*
X97506500Y-16090000D02*
X98608500Y-17192000D01*
X97506500Y-8600000D02*
X97506500Y-16090000D01*
X98608500Y-26552500D02*
X97506500Y-27654500D01*
X98608500Y-17192000D02*
X98608500Y-26552500D01*
D20*
X98879449Y-29027449D02*
X100973502Y-29027449D01*
D18*
%TO.N,C-D7*%
X100046500Y-16090000D02*
X101148500Y-17192000D01*
X101148500Y-17192000D02*
X101148500Y-26552500D01*
X101148500Y-26552500D02*
X100046500Y-27654500D01*
X100046500Y-8600000D02*
X100046500Y-16090000D01*
D20*
%TO.N,C-I_O*%
X131463901Y-32579545D02*
X131151732Y-32891714D01*
X125828229Y-31748511D02*
X125036247Y-31748511D01*
X141294477Y-31925523D02*
X135734477Y-31925523D01*
D18*
X143226500Y-8600000D02*
X143226500Y-16090000D01*
D20*
X128280139Y-32891714D02*
X127450787Y-32062362D01*
D18*
X144328500Y-17192000D02*
X144328500Y-26552500D01*
X144328500Y-26552500D02*
X143226500Y-27654500D01*
D20*
X131151732Y-32891714D02*
X128280139Y-32891714D01*
X142000000Y-31220000D02*
X141294477Y-31925523D01*
X127450787Y-32062362D02*
X126142080Y-32062362D01*
X135080455Y-32579545D02*
X131463901Y-32579545D01*
D18*
X143226500Y-16090000D02*
X144328500Y-17192000D01*
D20*
X126142080Y-32062362D02*
X125828229Y-31748511D01*
X135734477Y-31925523D02*
X135080455Y-32579545D01*
%TO.N,C-C_D*%
X134046051Y-31925523D02*
X129537449Y-31925523D01*
D18*
X139248500Y-17192000D02*
X139248500Y-26552500D01*
D20*
X136551388Y-31271501D02*
X134700073Y-31271501D01*
X126753795Y-31614560D02*
X126724595Y-31585360D01*
X127465448Y-31614560D02*
X126753795Y-31614560D01*
D18*
X138146500Y-16090000D02*
X138146500Y-8600000D01*
D20*
X129355812Y-32107160D02*
X127958048Y-32107160D01*
X134700073Y-31271501D02*
X134046051Y-31925523D01*
X126724595Y-31585360D02*
X126371042Y-31585360D01*
X129537449Y-31925523D02*
X129355812Y-32107160D01*
X137054940Y-31121502D02*
X136701387Y-31121502D01*
D18*
X138146500Y-16090000D02*
X139248500Y-17192000D01*
D20*
X136701387Y-31121502D02*
X136551388Y-31271501D01*
X127958048Y-32107160D02*
X127465448Y-31614560D01*
D18*
X139248500Y-26552500D02*
X138146500Y-27654500D01*
D19*
%TO.N,TERMPOW*%
X97566600Y-37670000D02*
X98666101Y-36570499D01*
X111569499Y-35530501D02*
X111569499Y-28831501D01*
D18*
X112746500Y-16090000D02*
X113848500Y-17192000D01*
X113848500Y-17192000D02*
X113848500Y-26552500D01*
X112746500Y-8600000D02*
X112746500Y-16090000D01*
X113848500Y-26552500D02*
X112746500Y-27654500D01*
D19*
X111569499Y-28831501D02*
X112746500Y-27654500D01*
X110529501Y-36570499D02*
X111569499Y-35530501D01*
X98666101Y-36570499D02*
X110529501Y-36570499D01*
D18*
%TO.N,Net-(D1-A)*%
X82266500Y-6600000D02*
X82266500Y-4377500D01*
%TO.N,Net-(D2-A)*%
X84806500Y-6600000D02*
X84806500Y-4377500D01*
%TO.N,Net-(D3-A)*%
X87346500Y-6600000D02*
X87346500Y-4377500D01*
%TO.N,Net-(D4-A)*%
X89886500Y-6600000D02*
X89886500Y-4377500D01*
%TO.N,Net-(D5-A)*%
X92426500Y-6600000D02*
X92426500Y-4377500D01*
%TO.N,Net-(D6-A)*%
X94966500Y-6600000D02*
X94966500Y-4377500D01*
%TO.N,Net-(D7-A)*%
X97506500Y-6600000D02*
X97506500Y-4377500D01*
%TO.N,Net-(D8-A)*%
X100046500Y-4377500D02*
X100046500Y-6600000D01*
%TO.N,Net-(D9-A)*%
X102586500Y-6600000D02*
X102586500Y-4377500D01*
%TO.N,Net-(D12-A)*%
X112746500Y-4377500D02*
X112746500Y-6600000D01*
%TO.N,Net-(D13-A)*%
X120366500Y-6600000D02*
X120366500Y-4377500D01*
%TO.N,Net-(D14-A)*%
X125446500Y-4377500D02*
X125446500Y-6600000D01*
%TO.N,Net-(D15-A)*%
X127986500Y-4377500D02*
X127986500Y-6600000D01*
%TO.N,Net-(D16-A)*%
X130526500Y-4377500D02*
X130526500Y-6600000D01*
%TO.N,Net-(D17-A)*%
X133066500Y-4377500D02*
X133066500Y-6600000D01*
%TO.N,Net-(D18-A)*%
X135606500Y-4377500D02*
X135606500Y-6600000D01*
%TO.N,Net-(D19-A)*%
X138146500Y-4377500D02*
X138146500Y-6600000D01*
%TO.N,Net-(D20-A)*%
X140686500Y-4377500D02*
X140686500Y-6600000D01*
%TO.N,Net-(D21-A)*%
X143226500Y-4377500D02*
X143226500Y-6600000D01*
%TD*%
%TA.AperFunction,Conductor*%
%TO.N,GND*%
G36*
X100384599Y-34981508D02*
G01*
X100439346Y-35026711D01*
X100456704Y-35064718D01*
X100478542Y-35146217D01*
X100511655Y-35269799D01*
X100511657Y-35269804D01*
X100606383Y-35472945D01*
X100606384Y-35472947D01*
X100738104Y-35661063D01*
X100736722Y-35662030D01*
X100762114Y-35720049D01*
X100750896Y-35790154D01*
X100703557Y-35843065D01*
X100637128Y-35861999D01*
X100032872Y-35861999D01*
X99964751Y-35841997D01*
X99918258Y-35788341D01*
X99908154Y-35718067D01*
X99933226Y-35661994D01*
X99931896Y-35661063D01*
X99993533Y-35573035D01*
X100063616Y-35472947D01*
X100158344Y-35269801D01*
X100213294Y-35064720D01*
X100250244Y-35004102D01*
X100314105Y-34973080D01*
X100384599Y-34981508D01*
G37*
%TD.AperFunction*%
%TA.AperFunction,Conductor*%
G36*
X114100024Y-30869712D02*
G01*
X114122282Y-30895398D01*
X114211174Y-31031458D01*
X114363597Y-31197034D01*
X114541198Y-31335267D01*
X114541199Y-31335268D01*
X114739128Y-31442382D01*
X114739131Y-31442383D01*
X114814679Y-31468319D01*
X114872614Y-31509356D01*
X114899166Y-31575201D01*
X114885904Y-31644948D01*
X114862862Y-31676588D01*
X114451575Y-32087874D01*
X114389263Y-32121899D01*
X114376591Y-32123985D01*
X114360157Y-32125836D01*
X114360144Y-32125839D01*
X114198817Y-32182290D01*
X114054087Y-32273231D01*
X113933231Y-32394087D01*
X113842290Y-32538817D01*
X113785837Y-32700151D01*
X113766701Y-32870000D01*
X113785837Y-33039848D01*
X113842290Y-33201182D01*
X113933231Y-33345912D01*
X114054087Y-33466768D01*
X114054089Y-33466769D01*
X114054091Y-33466771D01*
X114198817Y-33557709D01*
X114360150Y-33614162D01*
X114360149Y-33614162D01*
X114379286Y-33616318D01*
X114530000Y-33633299D01*
X114652888Y-33619453D01*
X114722819Y-33631703D01*
X114775027Y-33679815D01*
X114792935Y-33748516D01*
X114770858Y-33815993D01*
X114746775Y-33840346D01*
X114747665Y-33841407D01*
X114743441Y-33844951D01*
X114584951Y-34003441D01*
X114584946Y-34003447D01*
X114456384Y-34187053D01*
X114361657Y-34390195D01*
X114361655Y-34390201D01*
X114306448Y-34596239D01*
X114269496Y-34656862D01*
X114205636Y-34687883D01*
X114135141Y-34679455D01*
X114080394Y-34634252D01*
X114063034Y-34596239D01*
X114007872Y-34390372D01*
X114007870Y-34390367D01*
X113913183Y-34187309D01*
X113867352Y-34121856D01*
X113296405Y-34692803D01*
X113279904Y-34631217D01*
X113212103Y-34513783D01*
X113116217Y-34417897D01*
X112998783Y-34350096D01*
X112937195Y-34333593D01*
X113508142Y-33762647D01*
X113508142Y-33762645D01*
X113442694Y-33716818D01*
X113442695Y-33716818D01*
X113239633Y-33622129D01*
X113239627Y-33622127D01*
X113023205Y-33564137D01*
X112800000Y-33544609D01*
X112576794Y-33564137D01*
X112436610Y-33601699D01*
X112365633Y-33600009D01*
X112306838Y-33560214D01*
X112278890Y-33494950D01*
X112277999Y-33479992D01*
X112277999Y-31642373D01*
X112298001Y-31574252D01*
X112351657Y-31527759D01*
X112421931Y-31517655D01*
X112424641Y-31518076D01*
X112633931Y-31553000D01*
X112633936Y-31553000D01*
X112859065Y-31553000D01*
X112859069Y-31553000D01*
X113081135Y-31515944D01*
X113294074Y-31442842D01*
X113492076Y-31335689D01*
X113669740Y-31197406D01*
X113822222Y-31031768D01*
X113822427Y-31031455D01*
X113848014Y-30992291D01*
X113911316Y-30895398D01*
X113965319Y-30849310D01*
X114035667Y-30839735D01*
X114100024Y-30869712D01*
G37*
%TD.AperFunction*%
%TA.AperFunction,Conductor*%
G36*
X84340575Y-30001507D02*
G01*
X84306500Y-30128674D01*
X84306500Y-30260326D01*
X84340575Y-30387493D01*
X84375797Y-30448500D01*
X82697203Y-30448500D01*
X82732425Y-30387493D01*
X82766500Y-30260326D01*
X82766500Y-30128674D01*
X82732425Y-30001507D01*
X82697203Y-29940500D01*
X84375797Y-29940500D01*
X84340575Y-30001507D01*
G37*
%TD.AperFunction*%
%TA.AperFunction,Conductor*%
G36*
X86880575Y-30001507D02*
G01*
X86846500Y-30128674D01*
X86846500Y-30260326D01*
X86880575Y-30387493D01*
X86915797Y-30448500D01*
X85237203Y-30448500D01*
X85272425Y-30387493D01*
X85306500Y-30260326D01*
X85306500Y-30128674D01*
X85272425Y-30001507D01*
X85237203Y-29940500D01*
X86915797Y-29940500D01*
X86880575Y-30001507D01*
G37*
%TD.AperFunction*%
%TA.AperFunction,Conductor*%
G36*
X89420575Y-30001507D02*
G01*
X89386500Y-30128674D01*
X89386500Y-30260326D01*
X89420575Y-30387493D01*
X89455797Y-30448500D01*
X87777203Y-30448500D01*
X87812425Y-30387493D01*
X87846500Y-30260326D01*
X87846500Y-30128674D01*
X87812425Y-30001507D01*
X87777203Y-29940500D01*
X89455797Y-29940500D01*
X89420575Y-30001507D01*
G37*
%TD.AperFunction*%
%TA.AperFunction,Conductor*%
G36*
X91960575Y-30001507D02*
G01*
X91926500Y-30128674D01*
X91926500Y-30260326D01*
X91960575Y-30387493D01*
X91995797Y-30448500D01*
X91923921Y-30448500D01*
X91882306Y-30441429D01*
X91863377Y-30434805D01*
X91693529Y-30415669D01*
X91523680Y-30434805D01*
X91504752Y-30441429D01*
X91463137Y-30448500D01*
X90317203Y-30448500D01*
X90352425Y-30387493D01*
X90386500Y-30260326D01*
X90386500Y-30128674D01*
X90352425Y-30001507D01*
X90317203Y-29940500D01*
X91995797Y-29940500D01*
X91960575Y-30001507D01*
G37*
%TD.AperFunction*%
%TA.AperFunction,Conductor*%
G36*
X93586179Y-29960502D02*
G01*
X93632672Y-30014158D01*
X93642776Y-30084432D01*
X93613282Y-30149012D01*
X93585095Y-30173187D01*
X93454591Y-30255188D01*
X93333736Y-30376043D01*
X93333733Y-30376047D01*
X93325258Y-30389536D01*
X93272080Y-30436574D01*
X93218571Y-30448500D01*
X92857203Y-30448500D01*
X92892425Y-30387493D01*
X92926500Y-30260326D01*
X92926500Y-30128674D01*
X92892425Y-30001507D01*
X92857203Y-29940500D01*
X93518058Y-29940500D01*
X93586179Y-29960502D01*
G37*
%TD.AperFunction*%
%TA.AperFunction,Conductor*%
G36*
X97040575Y-30001507D02*
G01*
X97006500Y-30128674D01*
X97006500Y-30260326D01*
X97040575Y-30387493D01*
X97075797Y-30448500D01*
X96693178Y-30448500D01*
X96651563Y-30441429D01*
X96637688Y-30436574D01*
X96549850Y-30405838D01*
X96549848Y-30405837D01*
X96549850Y-30405837D01*
X96380000Y-30386701D01*
X96210151Y-30405837D01*
X96108437Y-30441429D01*
X96066822Y-30448500D01*
X95397203Y-30448500D01*
X95432425Y-30387493D01*
X95466500Y-30260326D01*
X95466500Y-30128674D01*
X95432425Y-30001507D01*
X95397203Y-29940500D01*
X97075797Y-29940500D01*
X97040575Y-30001507D01*
G37*
%TD.AperFunction*%
%TA.AperFunction,Conductor*%
G36*
X99580575Y-30001507D02*
G01*
X99546500Y-30128674D01*
X99546500Y-30260326D01*
X99580575Y-30387493D01*
X99615797Y-30448500D01*
X97937203Y-30448500D01*
X97972425Y-30387493D01*
X98006500Y-30260326D01*
X98006500Y-30128674D01*
X97972425Y-30001507D01*
X97937203Y-29940500D01*
X99615797Y-29940500D01*
X99580575Y-30001507D01*
G37*
%TD.AperFunction*%
%TA.AperFunction,Conductor*%
G36*
X102120575Y-30001507D02*
G01*
X102086500Y-30128674D01*
X102086500Y-30260326D01*
X102120575Y-30387493D01*
X102155797Y-30448500D01*
X100477203Y-30448500D01*
X100512425Y-30387493D01*
X100546500Y-30260326D01*
X100546500Y-30128674D01*
X100512425Y-30001507D01*
X100477203Y-29940500D01*
X102155797Y-29940500D01*
X102120575Y-30001507D01*
G37*
%TD.AperFunction*%
%TA.AperFunction,Conductor*%
G36*
X104660575Y-30001507D02*
G01*
X104626500Y-30128674D01*
X104626500Y-30260326D01*
X104660575Y-30387493D01*
X104695797Y-30448500D01*
X103017203Y-30448500D01*
X103052425Y-30387493D01*
X103086500Y-30260326D01*
X103086500Y-30128674D01*
X103052425Y-30001507D01*
X103017203Y-29940500D01*
X104695797Y-29940500D01*
X104660575Y-30001507D01*
G37*
%TD.AperFunction*%
%TA.AperFunction,Conductor*%
G36*
X107200575Y-30001507D02*
G01*
X107166500Y-30128674D01*
X107166500Y-30260326D01*
X107200575Y-30387493D01*
X107235797Y-30448500D01*
X105557203Y-30448500D01*
X105592425Y-30387493D01*
X105626500Y-30260326D01*
X105626500Y-30128674D01*
X105592425Y-30001507D01*
X105557203Y-29940500D01*
X107235797Y-29940500D01*
X107200575Y-30001507D01*
G37*
%TD.AperFunction*%
%TA.AperFunction,Conductor*%
G36*
X109740575Y-30001507D02*
G01*
X109706500Y-30128674D01*
X109706500Y-30260326D01*
X109740575Y-30387493D01*
X109775797Y-30448500D01*
X108097203Y-30448500D01*
X108132425Y-30387493D01*
X108166500Y-30260326D01*
X108166500Y-30128674D01*
X108132425Y-30001507D01*
X108097203Y-29940500D01*
X109775797Y-29940500D01*
X109740575Y-30001507D01*
G37*
%TD.AperFunction*%
%TA.AperFunction,Conductor*%
G36*
X117360575Y-30001507D02*
G01*
X117326500Y-30128674D01*
X117326500Y-30260326D01*
X117360575Y-30387493D01*
X117395797Y-30448500D01*
X115717203Y-30448500D01*
X115752425Y-30387493D01*
X115786500Y-30260326D01*
X115786500Y-30128674D01*
X115752425Y-30001507D01*
X115717203Y-29940500D01*
X117395797Y-29940500D01*
X117360575Y-30001507D01*
G37*
%TD.AperFunction*%
%TA.AperFunction,Conductor*%
G36*
X119900575Y-30001507D02*
G01*
X119866500Y-30128674D01*
X119866500Y-30260326D01*
X119900575Y-30387493D01*
X119935797Y-30448500D01*
X118257203Y-30448500D01*
X118292425Y-30387493D01*
X118326500Y-30260326D01*
X118326500Y-30128674D01*
X118292425Y-30001507D01*
X118257203Y-29940500D01*
X119935797Y-29940500D01*
X119900575Y-30001507D01*
G37*
%TD.AperFunction*%
%TA.AperFunction,Conductor*%
G36*
X122440575Y-30001507D02*
G01*
X122406500Y-30128674D01*
X122406500Y-30260326D01*
X122440575Y-30387493D01*
X122475797Y-30448500D01*
X122364659Y-30448500D01*
X122332048Y-30444207D01*
X122274484Y-30428783D01*
X122274484Y-30428782D01*
X122221138Y-30414489D01*
X121290938Y-30414489D01*
X121290937Y-30414489D01*
X121237591Y-30428782D01*
X121237592Y-30428783D01*
X121180028Y-30444207D01*
X121147417Y-30448500D01*
X120797203Y-30448500D01*
X120832425Y-30387493D01*
X120866500Y-30260326D01*
X120866500Y-30128674D01*
X120832425Y-30001507D01*
X120797203Y-29940500D01*
X122475797Y-29940500D01*
X122440575Y-30001507D01*
G37*
%TD.AperFunction*%
%TA.AperFunction,Conductor*%
G36*
X123964900Y-29960502D02*
G01*
X124011393Y-30014158D01*
X124021497Y-30084432D01*
X123992003Y-30149012D01*
X123944680Y-30181158D01*
X123945188Y-30182213D01*
X123938818Y-30185280D01*
X123794087Y-30276221D01*
X123673233Y-30397075D01*
X123670055Y-30401061D01*
X123611943Y-30441848D01*
X123571545Y-30448500D01*
X123337203Y-30448500D01*
X123372425Y-30387493D01*
X123406500Y-30260326D01*
X123406500Y-30128674D01*
X123372425Y-30001507D01*
X123337203Y-29940500D01*
X123896779Y-29940500D01*
X123964900Y-29960502D01*
G37*
%TD.AperFunction*%
%TA.AperFunction,Conductor*%
G36*
X124980575Y-30001507D02*
G01*
X124946500Y-30128674D01*
X124946500Y-30260326D01*
X124980575Y-30387493D01*
X125015797Y-30448500D01*
X124968455Y-30448500D01*
X124900334Y-30428498D01*
X124869945Y-30401061D01*
X124866766Y-30397075D01*
X124745912Y-30276221D01*
X124745909Y-30276219D01*
X124601183Y-30185281D01*
X124601182Y-30185280D01*
X124601181Y-30185280D01*
X124594812Y-30182213D01*
X124595404Y-30180981D01*
X124543915Y-30144052D01*
X124517752Y-30078052D01*
X124531424Y-30008384D01*
X124580591Y-29957168D01*
X124643221Y-29940500D01*
X125015797Y-29940500D01*
X124980575Y-30001507D01*
G37*
%TD.AperFunction*%
%TA.AperFunction,Conductor*%
G36*
X127520575Y-30001507D02*
G01*
X127486500Y-30128674D01*
X127486500Y-30260326D01*
X127520575Y-30387493D01*
X127555797Y-30448500D01*
X126788297Y-30448500D01*
X126725298Y-30431619D01*
X126662309Y-30395252D01*
X126617366Y-30369304D01*
X126617363Y-30369303D01*
X126617362Y-30369302D01*
X126617360Y-30369301D01*
X126617359Y-30369301D01*
X126537114Y-30347800D01*
X126537110Y-30347799D01*
X126462600Y-30327834D01*
X126218517Y-30327834D01*
X126144003Y-30347800D01*
X126144002Y-30347799D01*
X126063763Y-30369299D01*
X126063751Y-30369304D01*
X125985490Y-30414489D01*
X125955819Y-30431619D01*
X125892820Y-30448500D01*
X125877203Y-30448500D01*
X125912425Y-30387493D01*
X125946500Y-30260326D01*
X125946500Y-30128674D01*
X125912425Y-30001507D01*
X125877203Y-29940500D01*
X127555797Y-29940500D01*
X127520575Y-30001507D01*
G37*
%TD.AperFunction*%
%TA.AperFunction,Conductor*%
G36*
X130060575Y-30001507D02*
G01*
X130026500Y-30128674D01*
X130026500Y-30260326D01*
X130060575Y-30387493D01*
X130095797Y-30448500D01*
X128417203Y-30448500D01*
X128452425Y-30387493D01*
X128486500Y-30260326D01*
X128486500Y-30128674D01*
X128452425Y-30001507D01*
X128417203Y-29940500D01*
X130095797Y-29940500D01*
X130060575Y-30001507D01*
G37*
%TD.AperFunction*%
%TA.AperFunction,Conductor*%
G36*
X132600575Y-30001507D02*
G01*
X132566500Y-30128674D01*
X132566500Y-30260326D01*
X132600575Y-30387493D01*
X132635797Y-30448500D01*
X132288001Y-30448500D01*
X132219880Y-30428498D01*
X132173387Y-30374842D01*
X132162001Y-30322500D01*
X132162001Y-30066500D01*
X132182003Y-29998379D01*
X132235659Y-29951886D01*
X132288001Y-29940500D01*
X132635797Y-29940500D01*
X132600575Y-30001507D01*
G37*
%TD.AperFunction*%
%TA.AperFunction,Conductor*%
G36*
X135140575Y-30001507D02*
G01*
X135106500Y-30128674D01*
X135106500Y-30260326D01*
X135140575Y-30387493D01*
X135175797Y-30448500D01*
X134306680Y-30448500D01*
X134265065Y-30441429D01*
X134251190Y-30436574D01*
X134163352Y-30405838D01*
X134163350Y-30405837D01*
X134163352Y-30405837D01*
X133993502Y-30386701D01*
X133823653Y-30405837D01*
X133721939Y-30441429D01*
X133680324Y-30448500D01*
X133497203Y-30448500D01*
X133532425Y-30387493D01*
X133566500Y-30260326D01*
X133566500Y-30128674D01*
X133532425Y-30001507D01*
X133497203Y-29940500D01*
X135175797Y-29940500D01*
X135140575Y-30001507D01*
G37*
%TD.AperFunction*%
%TA.AperFunction,Conductor*%
G36*
X137680575Y-30001507D02*
G01*
X137646500Y-30128674D01*
X137646500Y-30260326D01*
X137680575Y-30387493D01*
X137715797Y-30448500D01*
X137445421Y-30448500D01*
X137390754Y-30436023D01*
X137386122Y-30433792D01*
X137281189Y-30397075D01*
X137224790Y-30377340D01*
X137224788Y-30377339D01*
X137224790Y-30377339D01*
X137054940Y-30358203D01*
X136885091Y-30377339D01*
X136723757Y-30433792D01*
X136719126Y-30436023D01*
X136664459Y-30448500D01*
X136037203Y-30448500D01*
X136072425Y-30387493D01*
X136106500Y-30260326D01*
X136106500Y-30128674D01*
X136072425Y-30001507D01*
X136037203Y-29940500D01*
X137715797Y-29940500D01*
X137680575Y-30001507D01*
G37*
%TD.AperFunction*%
%TA.AperFunction,Conductor*%
G36*
X140220575Y-30001507D02*
G01*
X140186500Y-30128674D01*
X140186500Y-30260326D01*
X140220575Y-30387493D01*
X140255797Y-30448500D01*
X139663178Y-30448500D01*
X139621563Y-30441429D01*
X139607688Y-30436574D01*
X139519850Y-30405838D01*
X139519848Y-30405837D01*
X139519850Y-30405837D01*
X139350000Y-30386701D01*
X139180151Y-30405837D01*
X139078437Y-30441429D01*
X139036822Y-30448500D01*
X138577203Y-30448500D01*
X138612425Y-30387493D01*
X138646500Y-30260326D01*
X138646500Y-30128674D01*
X138612425Y-30001507D01*
X138577203Y-29940500D01*
X140255797Y-29940500D01*
X140220575Y-30001507D01*
G37*
%TD.AperFunction*%
%TA.AperFunction,Conductor*%
G36*
X142760575Y-30001507D02*
G01*
X142726500Y-30128674D01*
X142726500Y-30260326D01*
X142760575Y-30387493D01*
X142795797Y-30448500D01*
X141117203Y-30448500D01*
X141152425Y-30387493D01*
X141186500Y-30260326D01*
X141186500Y-30128674D01*
X141152425Y-30001507D01*
X141117203Y-29940500D01*
X142795797Y-29940500D01*
X142760575Y-30001507D01*
G37*
%TD.AperFunction*%
%TA.AperFunction,Conductor*%
G36*
X94500575Y-30001507D02*
G01*
X94466500Y-30128674D01*
X94466500Y-30260326D01*
X94486612Y-30335384D01*
X94406416Y-30255188D01*
X94309832Y-30194500D01*
X94275912Y-30173186D01*
X94228876Y-30120008D01*
X94218056Y-30049841D01*
X94246889Y-29984963D01*
X94306221Y-29945972D01*
X94342950Y-29940500D01*
X94535797Y-29940500D01*
X94500575Y-30001507D01*
G37*
%TD.AperFunction*%
%TA.AperFunction,Conductor*%
G36*
X105380500Y-29763797D02*
G01*
X105319493Y-29728575D01*
X105192326Y-29694500D01*
X105060674Y-29694500D01*
X104933507Y-29728575D01*
X104872500Y-29763797D01*
X104872500Y-28085202D01*
X104933507Y-28120425D01*
X105060674Y-28154500D01*
X105192326Y-28154500D01*
X105319493Y-28120425D01*
X105380500Y-28085202D01*
X105380500Y-29763797D01*
G37*
%TD.AperFunction*%
%TA.AperFunction,Conductor*%
G36*
X107920500Y-29763797D02*
G01*
X107859493Y-29728575D01*
X107732326Y-29694500D01*
X107600674Y-29694500D01*
X107473507Y-29728575D01*
X107412500Y-29763797D01*
X107412500Y-28085202D01*
X107473507Y-28120425D01*
X107600674Y-28154500D01*
X107732326Y-28154500D01*
X107859493Y-28120425D01*
X107920500Y-28085202D01*
X107920500Y-29763797D01*
G37*
%TD.AperFunction*%
%TA.AperFunction,Conductor*%
G36*
X110460500Y-29763797D02*
G01*
X110399493Y-29728575D01*
X110272326Y-29694500D01*
X110140674Y-29694500D01*
X110013507Y-29728575D01*
X109952500Y-29763797D01*
X109952500Y-28085202D01*
X110013507Y-28120425D01*
X110140674Y-28154500D01*
X110272326Y-28154500D01*
X110399493Y-28120425D01*
X110460500Y-28085202D01*
X110460500Y-29763797D01*
G37*
%TD.AperFunction*%
%TA.AperFunction,Conductor*%
G36*
X115540500Y-29763797D02*
G01*
X115479493Y-29728575D01*
X115352326Y-29694500D01*
X115220674Y-29694500D01*
X115093507Y-29728575D01*
X115032500Y-29763797D01*
X115032500Y-28085202D01*
X115093507Y-28120425D01*
X115220674Y-28154500D01*
X115352326Y-28154500D01*
X115479493Y-28120425D01*
X115540500Y-28085202D01*
X115540500Y-29763797D01*
G37*
%TD.AperFunction*%
%TA.AperFunction,Conductor*%
G36*
X118080500Y-29763797D02*
G01*
X118019493Y-29728575D01*
X117892326Y-29694500D01*
X117760674Y-29694500D01*
X117633507Y-29728575D01*
X117572500Y-29763797D01*
X117572500Y-28085202D01*
X117633507Y-28120425D01*
X117760674Y-28154500D01*
X117892326Y-28154500D01*
X118019493Y-28120425D01*
X118080500Y-28085202D01*
X118080500Y-29763797D01*
G37*
%TD.AperFunction*%
%TA.AperFunction,Conductor*%
G36*
X124259725Y-28330169D02*
G01*
X124281980Y-28355853D01*
X124297664Y-28379858D01*
X124370775Y-28491765D01*
X124370779Y-28491770D01*
X124523262Y-28657408D01*
X124573187Y-28696266D01*
X124700924Y-28795689D01*
X124734705Y-28813970D01*
X124785096Y-28863982D01*
X124800449Y-28933299D01*
X124775889Y-28999912D01*
X124734709Y-29035596D01*
X124701204Y-29053728D01*
X124701198Y-29053732D01*
X124523597Y-29191965D01*
X124371174Y-29357542D01*
X124281983Y-29494059D01*
X124227979Y-29540147D01*
X124157631Y-29549722D01*
X124093274Y-29519744D01*
X124071017Y-29494059D01*
X123981825Y-29357542D01*
X123829402Y-29191965D01*
X123651801Y-29053732D01*
X123651800Y-29053731D01*
X123618291Y-29035597D01*
X123567901Y-28985583D01*
X123552550Y-28916266D01*
X123577112Y-28849653D01*
X123618290Y-28813972D01*
X123652076Y-28795689D01*
X123829740Y-28657406D01*
X123982222Y-28491768D01*
X123982427Y-28491455D01*
X124055336Y-28379858D01*
X124071018Y-28355854D01*
X124125020Y-28309768D01*
X124195368Y-28300192D01*
X124259725Y-28330169D01*
G37*
%TD.AperFunction*%
%TA.AperFunction,Conductor*%
G36*
X129339725Y-28330169D02*
G01*
X129361980Y-28355853D01*
X129377664Y-28379858D01*
X129450775Y-28491765D01*
X129450779Y-28491770D01*
X129603262Y-28657408D01*
X129653187Y-28696266D01*
X129780924Y-28795689D01*
X129814705Y-28813970D01*
X129865096Y-28863982D01*
X129880449Y-28933299D01*
X129855889Y-28999912D01*
X129814709Y-29035596D01*
X129781204Y-29053728D01*
X129781198Y-29053732D01*
X129603597Y-29191965D01*
X129451174Y-29357542D01*
X129361983Y-29494059D01*
X129307979Y-29540147D01*
X129237631Y-29549722D01*
X129173274Y-29519744D01*
X129151017Y-29494059D01*
X129061825Y-29357542D01*
X128909402Y-29191965D01*
X128731801Y-29053732D01*
X128731800Y-29053731D01*
X128698291Y-29035597D01*
X128647901Y-28985583D01*
X128632550Y-28916266D01*
X128657112Y-28849653D01*
X128698290Y-28813972D01*
X128732076Y-28795689D01*
X128909740Y-28657406D01*
X129062222Y-28491768D01*
X129062427Y-28491455D01*
X129135336Y-28379858D01*
X129151018Y-28355854D01*
X129205020Y-28309768D01*
X129275368Y-28300192D01*
X129339725Y-28330169D01*
G37*
%TD.AperFunction*%
%TA.AperFunction,Conductor*%
G36*
X134419725Y-28330169D02*
G01*
X134441980Y-28355853D01*
X134457664Y-28379858D01*
X134530775Y-28491765D01*
X134530779Y-28491770D01*
X134683262Y-28657408D01*
X134733187Y-28696266D01*
X134860924Y-28795689D01*
X134894705Y-28813970D01*
X134945096Y-28863982D01*
X134960449Y-28933299D01*
X134935889Y-28999912D01*
X134894709Y-29035596D01*
X134861204Y-29053728D01*
X134861198Y-29053732D01*
X134683597Y-29191965D01*
X134531174Y-29357542D01*
X134441983Y-29494059D01*
X134387979Y-29540147D01*
X134317631Y-29549722D01*
X134253274Y-29519744D01*
X134231017Y-29494059D01*
X134141825Y-29357542D01*
X133989402Y-29191965D01*
X133811801Y-29053732D01*
X133811800Y-29053731D01*
X133778291Y-29035597D01*
X133727901Y-28985583D01*
X133712550Y-28916266D01*
X133737112Y-28849653D01*
X133778290Y-28813972D01*
X133812076Y-28795689D01*
X133989740Y-28657406D01*
X134142222Y-28491768D01*
X134142427Y-28491455D01*
X134215336Y-28379858D01*
X134231018Y-28355854D01*
X134285020Y-28309768D01*
X134355368Y-28300192D01*
X134419725Y-28330169D01*
G37*
%TD.AperFunction*%
%TA.AperFunction,Conductor*%
G36*
X139499725Y-28330169D02*
G01*
X139521980Y-28355853D01*
X139537664Y-28379858D01*
X139610775Y-28491765D01*
X139610779Y-28491770D01*
X139763262Y-28657408D01*
X139813187Y-28696266D01*
X139940924Y-28795689D01*
X139974705Y-28813970D01*
X140025096Y-28863982D01*
X140040449Y-28933299D01*
X140015889Y-28999912D01*
X139974709Y-29035596D01*
X139941204Y-29053728D01*
X139941198Y-29053732D01*
X139763597Y-29191965D01*
X139611174Y-29357542D01*
X139521983Y-29494059D01*
X139467979Y-29540147D01*
X139397631Y-29549722D01*
X139333274Y-29519744D01*
X139311017Y-29494059D01*
X139221825Y-29357542D01*
X139069402Y-29191965D01*
X138891801Y-29053732D01*
X138891800Y-29053731D01*
X138858291Y-29035597D01*
X138807901Y-28985583D01*
X138792550Y-28916266D01*
X138817112Y-28849653D01*
X138858290Y-28813972D01*
X138892076Y-28795689D01*
X139069740Y-28657406D01*
X139222222Y-28491768D01*
X139222427Y-28491455D01*
X139295336Y-28379858D01*
X139311018Y-28355854D01*
X139365020Y-28309768D01*
X139435368Y-28300192D01*
X139499725Y-28330169D01*
G37*
%TD.AperFunction*%
%TA.AperFunction,Conductor*%
G36*
X142039725Y-28330169D02*
G01*
X142061980Y-28355853D01*
X142077664Y-28379858D01*
X142150775Y-28491765D01*
X142150779Y-28491770D01*
X142303262Y-28657408D01*
X142353187Y-28696266D01*
X142480924Y-28795689D01*
X142514705Y-28813970D01*
X142565096Y-28863982D01*
X142580449Y-28933299D01*
X142555889Y-28999912D01*
X142514709Y-29035596D01*
X142481204Y-29053728D01*
X142481198Y-29053732D01*
X142303597Y-29191965D01*
X142151174Y-29357542D01*
X142061983Y-29494059D01*
X142007979Y-29540147D01*
X141937631Y-29549722D01*
X141873274Y-29519744D01*
X141851017Y-29494059D01*
X141761825Y-29357542D01*
X141609402Y-29191965D01*
X141431801Y-29053732D01*
X141431800Y-29053731D01*
X141398291Y-29035597D01*
X141347901Y-28985583D01*
X141332550Y-28916266D01*
X141357112Y-28849653D01*
X141398290Y-28813972D01*
X141432076Y-28795689D01*
X141609740Y-28657406D01*
X141762222Y-28491768D01*
X141762427Y-28491455D01*
X141835336Y-28379858D01*
X141851018Y-28355854D01*
X141905020Y-28309768D01*
X141975368Y-28300192D01*
X142039725Y-28330169D01*
G37*
%TD.AperFunction*%
%TA.AperFunction,Conductor*%
G36*
X107200575Y-27461507D02*
G01*
X107166500Y-27588674D01*
X107166500Y-27720326D01*
X107200575Y-27847493D01*
X107235797Y-27908500D01*
X105557203Y-27908500D01*
X105592425Y-27847493D01*
X105626500Y-27720326D01*
X105626500Y-27588674D01*
X105592425Y-27461507D01*
X105557203Y-27400500D01*
X107235797Y-27400500D01*
X107200575Y-27461507D01*
G37*
%TD.AperFunction*%
%TA.AperFunction,Conductor*%
G36*
X109740575Y-27461507D02*
G01*
X109706500Y-27588674D01*
X109706500Y-27720326D01*
X109740575Y-27847493D01*
X109775797Y-27908500D01*
X108097203Y-27908500D01*
X108132425Y-27847493D01*
X108166500Y-27720326D01*
X108166500Y-27588674D01*
X108132425Y-27461507D01*
X108097203Y-27400500D01*
X109775797Y-27400500D01*
X109740575Y-27461507D01*
G37*
%TD.AperFunction*%
%TA.AperFunction,Conductor*%
G36*
X117360575Y-27461507D02*
G01*
X117326500Y-27588674D01*
X117326500Y-27720326D01*
X117360575Y-27847493D01*
X117395797Y-27908500D01*
X115717203Y-27908500D01*
X115752425Y-27847493D01*
X115786500Y-27720326D01*
X115786500Y-27588674D01*
X115752425Y-27461507D01*
X115717203Y-27400500D01*
X117395797Y-27400500D01*
X117360575Y-27461507D01*
G37*
%TD.AperFunction*%
%TA.AperFunction,Conductor*%
G36*
X110460500Y-19964391D02*
G01*
X110541007Y-19950957D01*
X110541016Y-19950955D01*
X110753869Y-19877883D01*
X110753871Y-19877882D01*
X110951800Y-19770768D01*
X110951801Y-19770767D01*
X111129402Y-19632534D01*
X111281827Y-19466955D01*
X111370717Y-19330899D01*
X111424720Y-19284810D01*
X111495068Y-19275235D01*
X111559425Y-19305212D01*
X111581683Y-19330898D01*
X111670779Y-19467270D01*
X111823262Y-19632908D01*
X111877831Y-19675381D01*
X112000924Y-19771189D01*
X112198926Y-19878342D01*
X112198927Y-19878342D01*
X112198928Y-19878343D01*
X112310727Y-19916723D01*
X112411865Y-19951444D01*
X112633931Y-19988500D01*
X112633935Y-19988500D01*
X112859064Y-19988500D01*
X112859069Y-19988500D01*
X113068265Y-19953591D01*
X113138745Y-19962108D01*
X113193435Y-20007380D01*
X113214968Y-20075032D01*
X113215000Y-20077873D01*
X113215000Y-26206626D01*
X113194998Y-26274747D01*
X113141342Y-26321240D01*
X113071068Y-26331344D01*
X113068271Y-26330909D01*
X112859069Y-26296000D01*
X112633931Y-26296000D01*
X112489471Y-26320106D01*
X112411869Y-26333055D01*
X112411860Y-26333057D01*
X112198928Y-26406156D01*
X112198926Y-26406158D01*
X112000926Y-26513310D01*
X112000924Y-26513311D01*
X111823262Y-26651591D01*
X111670779Y-26817229D01*
X111581683Y-26953601D01*
X111527679Y-26999689D01*
X111457331Y-27009264D01*
X111392974Y-26979286D01*
X111370717Y-26953600D01*
X111281827Y-26817544D01*
X111129402Y-26651965D01*
X110951801Y-26513732D01*
X110951800Y-26513731D01*
X110753871Y-26406617D01*
X110753869Y-26406616D01*
X110541012Y-26333543D01*
X110541001Y-26333540D01*
X110460500Y-26320106D01*
X110460500Y-27223797D01*
X110399493Y-27188575D01*
X110272326Y-27154500D01*
X110140674Y-27154500D01*
X110013507Y-27188575D01*
X109952500Y-27223797D01*
X109952500Y-26320107D01*
X109952499Y-26320106D01*
X109871998Y-26333540D01*
X109871987Y-26333543D01*
X109659130Y-26406616D01*
X109659128Y-26406617D01*
X109461199Y-26513731D01*
X109461198Y-26513732D01*
X109283597Y-26651965D01*
X109131174Y-26817542D01*
X109041983Y-26954059D01*
X108987979Y-27000147D01*
X108917631Y-27009722D01*
X108853274Y-26979744D01*
X108831017Y-26954059D01*
X108741825Y-26817542D01*
X108589402Y-26651965D01*
X108411801Y-26513732D01*
X108411800Y-26513731D01*
X108213871Y-26406617D01*
X108213869Y-26406616D01*
X108001012Y-26333543D01*
X108001001Y-26333540D01*
X107920500Y-26320106D01*
X107920500Y-27223797D01*
X107859493Y-27188575D01*
X107732326Y-27154500D01*
X107600674Y-27154500D01*
X107473507Y-27188575D01*
X107412500Y-27223797D01*
X107412500Y-26320107D01*
X107412499Y-26320106D01*
X107331998Y-26333540D01*
X107331987Y-26333543D01*
X107119130Y-26406616D01*
X107119128Y-26406617D01*
X106921199Y-26513731D01*
X106921198Y-26513732D01*
X106743597Y-26651965D01*
X106591174Y-26817542D01*
X106501983Y-26954059D01*
X106447979Y-27000147D01*
X106377631Y-27009722D01*
X106313274Y-26979744D01*
X106291017Y-26954059D01*
X106201825Y-26817542D01*
X106049402Y-26651965D01*
X105871801Y-26513732D01*
X105871800Y-26513731D01*
X105673871Y-26406617D01*
X105673869Y-26406616D01*
X105461012Y-26333543D01*
X105461001Y-26333540D01*
X105380500Y-26320106D01*
X105380500Y-27223797D01*
X105319493Y-27188575D01*
X105192326Y-27154500D01*
X105060674Y-27154500D01*
X104933507Y-27188575D01*
X104872500Y-27223797D01*
X104872500Y-26320107D01*
X104872499Y-26320106D01*
X104791998Y-26333540D01*
X104791987Y-26333543D01*
X104579130Y-26406616D01*
X104579128Y-26406618D01*
X104507969Y-26445127D01*
X104438538Y-26459957D01*
X104372112Y-26434896D01*
X104329779Y-26377901D01*
X104322000Y-26334313D01*
X104322000Y-19950186D01*
X104342002Y-19882065D01*
X104395658Y-19835572D01*
X104465932Y-19825468D01*
X104507970Y-19839373D01*
X104579124Y-19877880D01*
X104579130Y-19877883D01*
X104791983Y-19950955D01*
X104791992Y-19950957D01*
X104872500Y-19964391D01*
X104872500Y-19060702D01*
X104933507Y-19095925D01*
X105060674Y-19130000D01*
X105192326Y-19130000D01*
X105319493Y-19095925D01*
X105380500Y-19060702D01*
X105380500Y-19964390D01*
X105461007Y-19950957D01*
X105461016Y-19950955D01*
X105673869Y-19877883D01*
X105673871Y-19877882D01*
X105871800Y-19770768D01*
X105871801Y-19770767D01*
X106049402Y-19632534D01*
X106201827Y-19466955D01*
X106291017Y-19330441D01*
X106345021Y-19284352D01*
X106415368Y-19274777D01*
X106479726Y-19304754D01*
X106501983Y-19330441D01*
X106591172Y-19466955D01*
X106743597Y-19632534D01*
X106921198Y-19770767D01*
X106921199Y-19770768D01*
X107119128Y-19877882D01*
X107119130Y-19877883D01*
X107331983Y-19950955D01*
X107331992Y-19950957D01*
X107412500Y-19964391D01*
X107412500Y-19060702D01*
X107473507Y-19095925D01*
X107600674Y-19130000D01*
X107732326Y-19130000D01*
X107859493Y-19095925D01*
X107920500Y-19060702D01*
X107920500Y-19964391D01*
X108001007Y-19950957D01*
X108001016Y-19950955D01*
X108213869Y-19877883D01*
X108213871Y-19877882D01*
X108411800Y-19770768D01*
X108411801Y-19770767D01*
X108589402Y-19632534D01*
X108741827Y-19466955D01*
X108831017Y-19330441D01*
X108885021Y-19284352D01*
X108955368Y-19274777D01*
X109019726Y-19304754D01*
X109041983Y-19330441D01*
X109131172Y-19466955D01*
X109283597Y-19632534D01*
X109461198Y-19770767D01*
X109461199Y-19770768D01*
X109659128Y-19877882D01*
X109659130Y-19877883D01*
X109871983Y-19950955D01*
X109871992Y-19950957D01*
X109952500Y-19964391D01*
X109952500Y-19060702D01*
X110013507Y-19095925D01*
X110140674Y-19130000D01*
X110272326Y-19130000D01*
X110399493Y-19095925D01*
X110460500Y-19060702D01*
X110460500Y-19964391D01*
G37*
%TD.AperFunction*%
%TA.AperFunction,Conductor*%
G36*
X120620500Y-19964391D02*
G01*
X120688261Y-19953084D01*
X120758745Y-19961601D01*
X120813435Y-20006873D01*
X120834968Y-20074525D01*
X120835000Y-20077366D01*
X120835000Y-26206626D01*
X120814998Y-26274747D01*
X120761342Y-26321240D01*
X120691068Y-26331344D01*
X120688271Y-26330909D01*
X120479069Y-26296000D01*
X120253931Y-26296000D01*
X120109471Y-26320106D01*
X120031869Y-26333055D01*
X120031860Y-26333057D01*
X119818928Y-26406156D01*
X119818926Y-26406158D01*
X119620926Y-26513310D01*
X119620924Y-26513311D01*
X119443262Y-26651591D01*
X119290779Y-26817229D01*
X119201683Y-26953601D01*
X119147679Y-26999689D01*
X119077331Y-27009264D01*
X119012974Y-26979286D01*
X118990717Y-26953600D01*
X118901827Y-26817544D01*
X118749402Y-26651965D01*
X118571801Y-26513732D01*
X118571800Y-26513731D01*
X118373871Y-26406617D01*
X118373869Y-26406616D01*
X118161012Y-26333543D01*
X118161001Y-26333540D01*
X118080500Y-26320106D01*
X118080500Y-27223797D01*
X118019493Y-27188575D01*
X117892326Y-27154500D01*
X117760674Y-27154500D01*
X117633507Y-27188575D01*
X117572500Y-27223797D01*
X117572500Y-26320107D01*
X117572499Y-26320106D01*
X117491998Y-26333540D01*
X117491987Y-26333543D01*
X117279130Y-26406616D01*
X117279128Y-26406617D01*
X117081199Y-26513731D01*
X117081198Y-26513732D01*
X116903597Y-26651965D01*
X116751174Y-26817542D01*
X116661983Y-26954059D01*
X116607979Y-27000147D01*
X116537631Y-27009722D01*
X116473274Y-26979744D01*
X116451017Y-26954059D01*
X116361825Y-26817542D01*
X116209402Y-26651965D01*
X116031801Y-26513732D01*
X116031800Y-26513731D01*
X115833871Y-26406617D01*
X115833869Y-26406616D01*
X115621012Y-26333543D01*
X115621001Y-26333540D01*
X115540500Y-26320106D01*
X115540500Y-27223797D01*
X115479493Y-27188575D01*
X115352326Y-27154500D01*
X115220674Y-27154500D01*
X115093507Y-27188575D01*
X115032500Y-27223797D01*
X115032500Y-26320107D01*
X115032499Y-26320106D01*
X114951998Y-26333540D01*
X114951987Y-26333543D01*
X114739130Y-26406616D01*
X114739128Y-26406618D01*
X114667969Y-26445127D01*
X114598538Y-26459957D01*
X114532112Y-26434896D01*
X114489779Y-26377901D01*
X114482000Y-26334313D01*
X114482000Y-19950186D01*
X114502002Y-19882065D01*
X114555658Y-19835572D01*
X114625932Y-19825468D01*
X114667970Y-19839373D01*
X114739124Y-19877880D01*
X114739130Y-19877883D01*
X114951983Y-19950955D01*
X114951992Y-19950957D01*
X115032500Y-19964391D01*
X115032500Y-19060702D01*
X115093507Y-19095925D01*
X115220674Y-19130000D01*
X115352326Y-19130000D01*
X115479493Y-19095925D01*
X115540500Y-19060702D01*
X115540500Y-19964391D01*
X115621007Y-19950957D01*
X115621016Y-19950955D01*
X115833869Y-19877883D01*
X115833871Y-19877882D01*
X116031800Y-19770768D01*
X116031801Y-19770767D01*
X116209402Y-19632534D01*
X116361827Y-19466955D01*
X116451017Y-19330441D01*
X116505021Y-19284352D01*
X116575368Y-19274777D01*
X116639726Y-19304754D01*
X116661983Y-19330441D01*
X116751172Y-19466955D01*
X116903597Y-19632534D01*
X117081198Y-19770767D01*
X117081199Y-19770768D01*
X117279128Y-19877882D01*
X117279130Y-19877883D01*
X117491983Y-19950955D01*
X117491992Y-19950957D01*
X117572500Y-19964391D01*
X117572500Y-19060702D01*
X117633507Y-19095925D01*
X117760674Y-19130000D01*
X117892326Y-19130000D01*
X118019493Y-19095925D01*
X118080500Y-19060702D01*
X118080500Y-19964391D01*
X118161007Y-19950957D01*
X118161016Y-19950955D01*
X118373869Y-19877883D01*
X118373871Y-19877882D01*
X118571800Y-19770768D01*
X118571801Y-19770767D01*
X118749402Y-19632534D01*
X118901827Y-19466955D01*
X118991017Y-19330441D01*
X119045021Y-19284352D01*
X119115368Y-19274777D01*
X119179726Y-19304754D01*
X119201983Y-19330441D01*
X119291172Y-19466955D01*
X119443597Y-19632534D01*
X119621198Y-19770767D01*
X119621199Y-19770768D01*
X119819128Y-19877882D01*
X119819130Y-19877883D01*
X120031983Y-19950955D01*
X120031992Y-19950957D01*
X120112500Y-19964391D01*
X120112500Y-19060702D01*
X120173507Y-19095925D01*
X120300674Y-19130000D01*
X120432326Y-19130000D01*
X120559493Y-19095925D01*
X120620500Y-19060702D01*
X120620500Y-19964391D01*
G37*
%TD.AperFunction*%
%TA.AperFunction,Conductor*%
G36*
X125700500Y-19964391D02*
G01*
X125768261Y-19953084D01*
X125838745Y-19961601D01*
X125893435Y-20006873D01*
X125914968Y-20074525D01*
X125915000Y-20077366D01*
X125915000Y-26206626D01*
X125894998Y-26274747D01*
X125841342Y-26321240D01*
X125771068Y-26331344D01*
X125768271Y-26330909D01*
X125559069Y-26296000D01*
X125333931Y-26296000D01*
X125189471Y-26320106D01*
X125111869Y-26333055D01*
X125111860Y-26333057D01*
X124898928Y-26406156D01*
X124898926Y-26406158D01*
X124700926Y-26513310D01*
X124700924Y-26513311D01*
X124523262Y-26651591D01*
X124370779Y-26817229D01*
X124281983Y-26953143D01*
X124227979Y-26999231D01*
X124157631Y-27008806D01*
X124093274Y-26978829D01*
X124071017Y-26953143D01*
X123982426Y-26817544D01*
X123982222Y-26817232D01*
X123982221Y-26817231D01*
X123982220Y-26817229D01*
X123866070Y-26691059D01*
X123829740Y-26651594D01*
X123829739Y-26651593D01*
X123829737Y-26651591D01*
X123747882Y-26587881D01*
X123652076Y-26513311D01*
X123454074Y-26406158D01*
X123454072Y-26406157D01*
X123454071Y-26406156D01*
X123241139Y-26333057D01*
X123241130Y-26333055D01*
X123196976Y-26325687D01*
X123019069Y-26296000D01*
X122793931Y-26296000D01*
X122649471Y-26320106D01*
X122571869Y-26333055D01*
X122571860Y-26333057D01*
X122358928Y-26406156D01*
X122358926Y-26406158D01*
X122287969Y-26444558D01*
X122218539Y-26459388D01*
X122152112Y-26434328D01*
X122109780Y-26377332D01*
X122102000Y-26333744D01*
X122102000Y-19950186D01*
X122122002Y-19882065D01*
X122175658Y-19835572D01*
X122245932Y-19825468D01*
X122287970Y-19839373D01*
X122359124Y-19877880D01*
X122359130Y-19877883D01*
X122571983Y-19950955D01*
X122571992Y-19950957D01*
X122652500Y-19964391D01*
X122652500Y-19060702D01*
X122713507Y-19095925D01*
X122840674Y-19130000D01*
X122972326Y-19130000D01*
X123099493Y-19095925D01*
X123160500Y-19060702D01*
X123160500Y-19964391D01*
X123241007Y-19950957D01*
X123241016Y-19950955D01*
X123453869Y-19877883D01*
X123453871Y-19877882D01*
X123651800Y-19770768D01*
X123651801Y-19770767D01*
X123829402Y-19632534D01*
X123981827Y-19466955D01*
X124071017Y-19330441D01*
X124125021Y-19284352D01*
X124195368Y-19274777D01*
X124259726Y-19304754D01*
X124281983Y-19330441D01*
X124371172Y-19466955D01*
X124523597Y-19632534D01*
X124701198Y-19770767D01*
X124701199Y-19770768D01*
X124899128Y-19877882D01*
X124899130Y-19877883D01*
X125111983Y-19950955D01*
X125111992Y-19950957D01*
X125192500Y-19964391D01*
X125192500Y-19060702D01*
X125253507Y-19095925D01*
X125380674Y-19130000D01*
X125512326Y-19130000D01*
X125639493Y-19095925D01*
X125700500Y-19060702D01*
X125700500Y-19964391D01*
G37*
%TD.AperFunction*%
%TA.AperFunction,Conductor*%
G36*
X85060500Y-19964390D02*
G01*
X85128261Y-19953084D01*
X85198745Y-19961601D01*
X85253435Y-20006873D01*
X85274968Y-20074525D01*
X85275000Y-20077366D01*
X85275000Y-26206626D01*
X85254998Y-26274747D01*
X85201342Y-26321240D01*
X85131068Y-26331344D01*
X85128271Y-26330909D01*
X84919069Y-26296000D01*
X84693931Y-26296000D01*
X84549471Y-26320106D01*
X84471869Y-26333055D01*
X84471860Y-26333057D01*
X84258928Y-26406156D01*
X84258926Y-26406158D01*
X84187969Y-26444558D01*
X84118539Y-26459388D01*
X84052112Y-26434328D01*
X84009780Y-26377332D01*
X84002000Y-26333744D01*
X84002000Y-19950186D01*
X84022002Y-19882065D01*
X84075658Y-19835572D01*
X84145932Y-19825468D01*
X84187970Y-19839373D01*
X84259124Y-19877880D01*
X84259130Y-19877883D01*
X84471983Y-19950955D01*
X84471992Y-19950957D01*
X84552500Y-19964391D01*
X84552500Y-19060702D01*
X84613507Y-19095925D01*
X84740674Y-19130000D01*
X84872326Y-19130000D01*
X84999493Y-19095925D01*
X85060500Y-19060702D01*
X85060500Y-19964390D01*
G37*
%TD.AperFunction*%
%TA.AperFunction,Conductor*%
G36*
X87600500Y-19964390D02*
G01*
X87668261Y-19953084D01*
X87738745Y-19961601D01*
X87793435Y-20006873D01*
X87814968Y-20074525D01*
X87815000Y-20077366D01*
X87815000Y-26206626D01*
X87794998Y-26274747D01*
X87741342Y-26321240D01*
X87671068Y-26331344D01*
X87668271Y-26330909D01*
X87459069Y-26296000D01*
X87233931Y-26296000D01*
X87089471Y-26320106D01*
X87011869Y-26333055D01*
X87011860Y-26333057D01*
X86798928Y-26406156D01*
X86798926Y-26406158D01*
X86727969Y-26444558D01*
X86658539Y-26459388D01*
X86592112Y-26434328D01*
X86549780Y-26377332D01*
X86542000Y-26333744D01*
X86542000Y-19950186D01*
X86562002Y-19882065D01*
X86615658Y-19835572D01*
X86685932Y-19825468D01*
X86727970Y-19839373D01*
X86799124Y-19877880D01*
X86799130Y-19877883D01*
X87011983Y-19950955D01*
X87011992Y-19950957D01*
X87092500Y-19964391D01*
X87092500Y-19060702D01*
X87153507Y-19095925D01*
X87280674Y-19130000D01*
X87412326Y-19130000D01*
X87539493Y-19095925D01*
X87600500Y-19060702D01*
X87600500Y-19964390D01*
G37*
%TD.AperFunction*%
%TA.AperFunction,Conductor*%
G36*
X90140500Y-19964390D02*
G01*
X90208261Y-19953084D01*
X90278745Y-19961601D01*
X90333435Y-20006873D01*
X90354968Y-20074525D01*
X90355000Y-20077366D01*
X90355000Y-26206626D01*
X90334998Y-26274747D01*
X90281342Y-26321240D01*
X90211068Y-26331344D01*
X90208271Y-26330909D01*
X89999069Y-26296000D01*
X89773931Y-26296000D01*
X89629471Y-26320106D01*
X89551869Y-26333055D01*
X89551860Y-26333057D01*
X89338928Y-26406156D01*
X89338926Y-26406158D01*
X89267969Y-26444558D01*
X89198539Y-26459388D01*
X89132112Y-26434328D01*
X89089780Y-26377332D01*
X89082000Y-26333744D01*
X89082000Y-19950186D01*
X89102002Y-19882065D01*
X89155658Y-19835572D01*
X89225932Y-19825468D01*
X89267970Y-19839373D01*
X89339124Y-19877880D01*
X89339130Y-19877883D01*
X89551983Y-19950955D01*
X89551992Y-19950957D01*
X89632500Y-19964391D01*
X89632500Y-19060702D01*
X89693507Y-19095925D01*
X89820674Y-19130000D01*
X89952326Y-19130000D01*
X90079493Y-19095925D01*
X90140500Y-19060702D01*
X90140500Y-19964390D01*
G37*
%TD.AperFunction*%
%TA.AperFunction,Conductor*%
G36*
X92680500Y-19964391D02*
G01*
X92748261Y-19953084D01*
X92818745Y-19961601D01*
X92873435Y-20006873D01*
X92894968Y-20074525D01*
X92895000Y-20077366D01*
X92895000Y-26206626D01*
X92874998Y-26274747D01*
X92821342Y-26321240D01*
X92751068Y-26331344D01*
X92748271Y-26330909D01*
X92539069Y-26296000D01*
X92313931Y-26296000D01*
X92169471Y-26320106D01*
X92091869Y-26333055D01*
X92091860Y-26333057D01*
X91878928Y-26406156D01*
X91878926Y-26406158D01*
X91807969Y-26444558D01*
X91738539Y-26459388D01*
X91672112Y-26434328D01*
X91629780Y-26377332D01*
X91622000Y-26333744D01*
X91622000Y-19950186D01*
X91642002Y-19882065D01*
X91695658Y-19835572D01*
X91765932Y-19825468D01*
X91807970Y-19839373D01*
X91879124Y-19877880D01*
X91879130Y-19877883D01*
X92091983Y-19950955D01*
X92091992Y-19950957D01*
X92172500Y-19964391D01*
X92172500Y-19060702D01*
X92233507Y-19095925D01*
X92360674Y-19130000D01*
X92492326Y-19130000D01*
X92619493Y-19095925D01*
X92680500Y-19060702D01*
X92680500Y-19964391D01*
G37*
%TD.AperFunction*%
%TA.AperFunction,Conductor*%
G36*
X95220500Y-19964391D02*
G01*
X95288261Y-19953084D01*
X95358745Y-19961601D01*
X95413435Y-20006873D01*
X95434968Y-20074525D01*
X95435000Y-20077366D01*
X95435000Y-26206626D01*
X95414998Y-26274747D01*
X95361342Y-26321240D01*
X95291068Y-26331344D01*
X95288271Y-26330909D01*
X95079069Y-26296000D01*
X94853931Y-26296000D01*
X94709471Y-26320106D01*
X94631869Y-26333055D01*
X94631860Y-26333057D01*
X94418928Y-26406156D01*
X94418926Y-26406158D01*
X94347969Y-26444558D01*
X94278539Y-26459388D01*
X94212112Y-26434328D01*
X94169780Y-26377332D01*
X94162000Y-26333744D01*
X94162000Y-19950186D01*
X94182002Y-19882065D01*
X94235658Y-19835572D01*
X94305932Y-19825468D01*
X94347970Y-19839373D01*
X94419124Y-19877880D01*
X94419130Y-19877883D01*
X94631983Y-19950955D01*
X94631992Y-19950957D01*
X94712500Y-19964391D01*
X94712500Y-19060702D01*
X94773507Y-19095925D01*
X94900674Y-19130000D01*
X95032326Y-19130000D01*
X95159493Y-19095925D01*
X95220500Y-19060702D01*
X95220500Y-19964391D01*
G37*
%TD.AperFunction*%
%TA.AperFunction,Conductor*%
G36*
X97760500Y-19964391D02*
G01*
X97828261Y-19953084D01*
X97898745Y-19961601D01*
X97953435Y-20006873D01*
X97974968Y-20074525D01*
X97975000Y-20077366D01*
X97975000Y-26206626D01*
X97954998Y-26274747D01*
X97901342Y-26321240D01*
X97831068Y-26331344D01*
X97828271Y-26330909D01*
X97619069Y-26296000D01*
X97393931Y-26296000D01*
X97249471Y-26320106D01*
X97171869Y-26333055D01*
X97171860Y-26333057D01*
X96958928Y-26406156D01*
X96958926Y-26406158D01*
X96887969Y-26444558D01*
X96818539Y-26459388D01*
X96752112Y-26434328D01*
X96709780Y-26377332D01*
X96702000Y-26333744D01*
X96702000Y-19950186D01*
X96722002Y-19882065D01*
X96775658Y-19835572D01*
X96845932Y-19825468D01*
X96887970Y-19839373D01*
X96959124Y-19877880D01*
X96959130Y-19877883D01*
X97171983Y-19950955D01*
X97171992Y-19950957D01*
X97252500Y-19964391D01*
X97252500Y-19060702D01*
X97313507Y-19095925D01*
X97440674Y-19130000D01*
X97572326Y-19130000D01*
X97699493Y-19095925D01*
X97760500Y-19060702D01*
X97760500Y-19964391D01*
G37*
%TD.AperFunction*%
%TA.AperFunction,Conductor*%
G36*
X100300500Y-19964390D02*
G01*
X100368261Y-19953084D01*
X100438745Y-19961601D01*
X100493435Y-20006873D01*
X100514968Y-20074525D01*
X100515000Y-20077366D01*
X100515000Y-26206626D01*
X100494998Y-26274747D01*
X100441342Y-26321240D01*
X100371068Y-26331344D01*
X100368271Y-26330909D01*
X100159069Y-26296000D01*
X99933931Y-26296000D01*
X99789471Y-26320106D01*
X99711869Y-26333055D01*
X99711860Y-26333057D01*
X99498928Y-26406156D01*
X99498926Y-26406158D01*
X99427969Y-26444558D01*
X99358539Y-26459388D01*
X99292112Y-26434328D01*
X99249780Y-26377332D01*
X99242000Y-26333744D01*
X99242000Y-19950186D01*
X99262002Y-19882065D01*
X99315658Y-19835572D01*
X99385932Y-19825468D01*
X99427970Y-19839373D01*
X99499124Y-19877880D01*
X99499130Y-19877883D01*
X99711983Y-19950955D01*
X99711992Y-19950957D01*
X99792500Y-19964391D01*
X99792500Y-19060702D01*
X99853507Y-19095925D01*
X99980674Y-19130000D01*
X100112326Y-19130000D01*
X100239493Y-19095925D01*
X100300500Y-19060702D01*
X100300500Y-19964390D01*
G37*
%TD.AperFunction*%
%TA.AperFunction,Conductor*%
G36*
X102840500Y-19964390D02*
G01*
X102908261Y-19953084D01*
X102978745Y-19961601D01*
X103033435Y-20006873D01*
X103054968Y-20074525D01*
X103055000Y-20077366D01*
X103055000Y-26206626D01*
X103034998Y-26274747D01*
X102981342Y-26321240D01*
X102911068Y-26331344D01*
X102908271Y-26330909D01*
X102699069Y-26296000D01*
X102473931Y-26296000D01*
X102329471Y-26320106D01*
X102251869Y-26333055D01*
X102251860Y-26333057D01*
X102038928Y-26406156D01*
X102038926Y-26406158D01*
X101967969Y-26444558D01*
X101898539Y-26459388D01*
X101832112Y-26434328D01*
X101789780Y-26377332D01*
X101782000Y-26333744D01*
X101782000Y-19950186D01*
X101802002Y-19882065D01*
X101855658Y-19835572D01*
X101925932Y-19825468D01*
X101967970Y-19839373D01*
X102039124Y-19877880D01*
X102039130Y-19877883D01*
X102251983Y-19950955D01*
X102251992Y-19950957D01*
X102332500Y-19964391D01*
X102332500Y-19060702D01*
X102393507Y-19095925D01*
X102520674Y-19130000D01*
X102652326Y-19130000D01*
X102779493Y-19095925D01*
X102840500Y-19060702D01*
X102840500Y-19964390D01*
G37*
%TD.AperFunction*%
%TA.AperFunction,Conductor*%
G36*
X128240500Y-19964390D02*
G01*
X128308261Y-19953084D01*
X128378745Y-19961601D01*
X128433435Y-20006873D01*
X128454968Y-20074525D01*
X128455000Y-20077366D01*
X128455000Y-26206626D01*
X128434998Y-26274747D01*
X128381342Y-26321240D01*
X128311068Y-26331344D01*
X128308271Y-26330909D01*
X128099069Y-26296000D01*
X127873931Y-26296000D01*
X127729471Y-26320106D01*
X127651869Y-26333055D01*
X127651860Y-26333057D01*
X127438928Y-26406156D01*
X127438926Y-26406158D01*
X127367969Y-26444558D01*
X127298539Y-26459388D01*
X127232112Y-26434328D01*
X127189780Y-26377332D01*
X127182000Y-26333744D01*
X127182000Y-19950186D01*
X127202002Y-19882065D01*
X127255658Y-19835572D01*
X127325932Y-19825468D01*
X127367970Y-19839373D01*
X127439124Y-19877880D01*
X127439130Y-19877883D01*
X127651983Y-19950955D01*
X127651992Y-19950957D01*
X127732500Y-19964391D01*
X127732500Y-19060702D01*
X127793507Y-19095925D01*
X127920674Y-19130000D01*
X128052326Y-19130000D01*
X128179493Y-19095925D01*
X128240500Y-19060702D01*
X128240500Y-19964390D01*
G37*
%TD.AperFunction*%
%TA.AperFunction,Conductor*%
G36*
X130780500Y-19964390D02*
G01*
X130848261Y-19953084D01*
X130918745Y-19961601D01*
X130973435Y-20006873D01*
X130994968Y-20074525D01*
X130995000Y-20077366D01*
X130995000Y-26206626D01*
X130974998Y-26274747D01*
X130921342Y-26321240D01*
X130851068Y-26331344D01*
X130848271Y-26330909D01*
X130639069Y-26296000D01*
X130413931Y-26296000D01*
X130269471Y-26320106D01*
X130191869Y-26333055D01*
X130191860Y-26333057D01*
X129978928Y-26406156D01*
X129978926Y-26406158D01*
X129907969Y-26444558D01*
X129838539Y-26459388D01*
X129772112Y-26434328D01*
X129729780Y-26377332D01*
X129722000Y-26333744D01*
X129722000Y-19950186D01*
X129742002Y-19882065D01*
X129795658Y-19835572D01*
X129865932Y-19825468D01*
X129907970Y-19839373D01*
X129979124Y-19877880D01*
X129979130Y-19877883D01*
X130191983Y-19950955D01*
X130191992Y-19950957D01*
X130272500Y-19964391D01*
X130272500Y-19060702D01*
X130333507Y-19095925D01*
X130460674Y-19130000D01*
X130592326Y-19130000D01*
X130719493Y-19095925D01*
X130780500Y-19060702D01*
X130780500Y-19964390D01*
G37*
%TD.AperFunction*%
%TA.AperFunction,Conductor*%
G36*
X133320500Y-19964390D02*
G01*
X133388261Y-19953084D01*
X133458745Y-19961601D01*
X133513435Y-20006873D01*
X133534968Y-20074525D01*
X133535000Y-20077366D01*
X133535000Y-26206626D01*
X133514998Y-26274747D01*
X133461342Y-26321240D01*
X133391068Y-26331344D01*
X133388271Y-26330909D01*
X133179069Y-26296000D01*
X132953931Y-26296000D01*
X132809471Y-26320106D01*
X132731869Y-26333055D01*
X132731860Y-26333057D01*
X132518928Y-26406156D01*
X132518926Y-26406158D01*
X132447969Y-26444558D01*
X132378539Y-26459388D01*
X132312112Y-26434328D01*
X132269780Y-26377332D01*
X132262000Y-26333744D01*
X132262000Y-19950186D01*
X132282002Y-19882065D01*
X132335658Y-19835572D01*
X132405932Y-19825468D01*
X132447970Y-19839373D01*
X132519124Y-19877880D01*
X132519130Y-19877883D01*
X132731983Y-19950955D01*
X132731992Y-19950957D01*
X132812500Y-19964391D01*
X132812500Y-19060702D01*
X132873507Y-19095925D01*
X133000674Y-19130000D01*
X133132326Y-19130000D01*
X133259493Y-19095925D01*
X133320500Y-19060702D01*
X133320500Y-19964390D01*
G37*
%TD.AperFunction*%
%TA.AperFunction,Conductor*%
G36*
X135860500Y-19964390D02*
G01*
X135928261Y-19953084D01*
X135998745Y-19961601D01*
X136053435Y-20006873D01*
X136074968Y-20074525D01*
X136075000Y-20077366D01*
X136075000Y-26206626D01*
X136054998Y-26274747D01*
X136001342Y-26321240D01*
X135931068Y-26331344D01*
X135928271Y-26330909D01*
X135719069Y-26296000D01*
X135493931Y-26296000D01*
X135349471Y-26320106D01*
X135271869Y-26333055D01*
X135271860Y-26333057D01*
X135058928Y-26406156D01*
X135058926Y-26406158D01*
X134987969Y-26444558D01*
X134918539Y-26459388D01*
X134852112Y-26434328D01*
X134809780Y-26377332D01*
X134802000Y-26333744D01*
X134802000Y-19950186D01*
X134822002Y-19882065D01*
X134875658Y-19835572D01*
X134945932Y-19825468D01*
X134987970Y-19839373D01*
X135059124Y-19877880D01*
X135059130Y-19877883D01*
X135271983Y-19950955D01*
X135271992Y-19950957D01*
X135352500Y-19964391D01*
X135352500Y-19060702D01*
X135413507Y-19095925D01*
X135540674Y-19130000D01*
X135672326Y-19130000D01*
X135799493Y-19095925D01*
X135860500Y-19060702D01*
X135860500Y-19964390D01*
G37*
%TD.AperFunction*%
%TA.AperFunction,Conductor*%
G36*
X138400500Y-19964390D02*
G01*
X138468261Y-19953084D01*
X138538745Y-19961601D01*
X138593435Y-20006873D01*
X138614968Y-20074525D01*
X138615000Y-20077366D01*
X138615000Y-26206626D01*
X138594998Y-26274747D01*
X138541342Y-26321240D01*
X138471068Y-26331344D01*
X138468271Y-26330909D01*
X138259069Y-26296000D01*
X138033931Y-26296000D01*
X137889471Y-26320106D01*
X137811869Y-26333055D01*
X137811860Y-26333057D01*
X137598928Y-26406156D01*
X137598926Y-26406158D01*
X137527969Y-26444558D01*
X137458539Y-26459388D01*
X137392112Y-26434328D01*
X137349780Y-26377332D01*
X137342000Y-26333744D01*
X137342000Y-19950186D01*
X137362002Y-19882065D01*
X137415658Y-19835572D01*
X137485932Y-19825468D01*
X137527970Y-19839373D01*
X137599124Y-19877880D01*
X137599130Y-19877883D01*
X137811983Y-19950955D01*
X137811992Y-19950957D01*
X137892500Y-19964391D01*
X137892500Y-19060702D01*
X137953507Y-19095925D01*
X138080674Y-19130000D01*
X138212326Y-19130000D01*
X138339493Y-19095925D01*
X138400500Y-19060702D01*
X138400500Y-19964390D01*
G37*
%TD.AperFunction*%
%TA.AperFunction,Conductor*%
G36*
X140940500Y-19964391D02*
G01*
X141008261Y-19953084D01*
X141078745Y-19961601D01*
X141133435Y-20006873D01*
X141154968Y-20074525D01*
X141155000Y-20077366D01*
X141155000Y-26206626D01*
X141134998Y-26274747D01*
X141081342Y-26321240D01*
X141011068Y-26331344D01*
X141008271Y-26330909D01*
X140799069Y-26296000D01*
X140573931Y-26296000D01*
X140429471Y-26320106D01*
X140351869Y-26333055D01*
X140351860Y-26333057D01*
X140138928Y-26406156D01*
X140138926Y-26406158D01*
X140067969Y-26444558D01*
X139998539Y-26459388D01*
X139932112Y-26434328D01*
X139889780Y-26377332D01*
X139882000Y-26333744D01*
X139882000Y-19950186D01*
X139902002Y-19882065D01*
X139955658Y-19835572D01*
X140025932Y-19825468D01*
X140067970Y-19839373D01*
X140139124Y-19877880D01*
X140139130Y-19877883D01*
X140351983Y-19950955D01*
X140351992Y-19950957D01*
X140432500Y-19964391D01*
X140432500Y-19060702D01*
X140493507Y-19095925D01*
X140620674Y-19130000D01*
X140752326Y-19130000D01*
X140879493Y-19095925D01*
X140940500Y-19060702D01*
X140940500Y-19964391D01*
G37*
%TD.AperFunction*%
%TA.AperFunction,Conductor*%
G36*
X143480500Y-19964391D02*
G01*
X143548261Y-19953084D01*
X143618745Y-19961601D01*
X143673435Y-20006873D01*
X143694968Y-20074525D01*
X143695000Y-20077366D01*
X143695000Y-26206626D01*
X143674998Y-26274747D01*
X143621342Y-26321240D01*
X143551068Y-26331344D01*
X143548271Y-26330909D01*
X143339069Y-26296000D01*
X143113931Y-26296000D01*
X142969471Y-26320106D01*
X142891869Y-26333055D01*
X142891860Y-26333057D01*
X142678928Y-26406156D01*
X142678926Y-26406158D01*
X142607969Y-26444558D01*
X142538539Y-26459388D01*
X142472112Y-26434328D01*
X142429780Y-26377332D01*
X142422000Y-26333744D01*
X142422000Y-19950186D01*
X142442002Y-19882065D01*
X142495658Y-19835572D01*
X142565932Y-19825468D01*
X142607970Y-19839373D01*
X142679124Y-19877880D01*
X142679130Y-19877883D01*
X142891983Y-19950955D01*
X142891992Y-19950957D01*
X142972500Y-19964391D01*
X142972500Y-19060702D01*
X143033507Y-19095925D01*
X143160674Y-19130000D01*
X143292326Y-19130000D01*
X143419493Y-19095925D01*
X143480500Y-19060702D01*
X143480500Y-19964391D01*
G37*
%TD.AperFunction*%
%TA.AperFunction,Conductor*%
G36*
X84340575Y-18437007D02*
G01*
X84306500Y-18564174D01*
X84306500Y-18695826D01*
X84340575Y-18822993D01*
X84375797Y-18884000D01*
X84128000Y-18884000D01*
X84059879Y-18863998D01*
X84013386Y-18810342D01*
X84002000Y-18758000D01*
X84002000Y-18502000D01*
X84022002Y-18433879D01*
X84075658Y-18387386D01*
X84128000Y-18376000D01*
X84375797Y-18376000D01*
X84340575Y-18437007D01*
G37*
%TD.AperFunction*%
%TA.AperFunction,Conductor*%
G36*
X86880575Y-18437007D02*
G01*
X86846500Y-18564174D01*
X86846500Y-18695826D01*
X86880575Y-18822993D01*
X86915797Y-18884000D01*
X86668000Y-18884000D01*
X86599879Y-18863998D01*
X86553386Y-18810342D01*
X86542000Y-18758000D01*
X86542000Y-18502000D01*
X86562002Y-18433879D01*
X86615658Y-18387386D01*
X86668000Y-18376000D01*
X86915797Y-18376000D01*
X86880575Y-18437007D01*
G37*
%TD.AperFunction*%
%TA.AperFunction,Conductor*%
G36*
X89420575Y-18437007D02*
G01*
X89386500Y-18564174D01*
X89386500Y-18695826D01*
X89420575Y-18822993D01*
X89455797Y-18884000D01*
X89208000Y-18884000D01*
X89139879Y-18863998D01*
X89093386Y-18810342D01*
X89082000Y-18758000D01*
X89082000Y-18502000D01*
X89102002Y-18433879D01*
X89155658Y-18387386D01*
X89208000Y-18376000D01*
X89455797Y-18376000D01*
X89420575Y-18437007D01*
G37*
%TD.AperFunction*%
%TA.AperFunction,Conductor*%
G36*
X91960575Y-18437007D02*
G01*
X91926500Y-18564174D01*
X91926500Y-18695826D01*
X91960575Y-18822993D01*
X91995797Y-18884000D01*
X91748000Y-18884000D01*
X91679879Y-18863998D01*
X91633386Y-18810342D01*
X91622000Y-18758000D01*
X91622000Y-18502000D01*
X91642002Y-18433879D01*
X91695658Y-18387386D01*
X91748000Y-18376000D01*
X91995797Y-18376000D01*
X91960575Y-18437007D01*
G37*
%TD.AperFunction*%
%TA.AperFunction,Conductor*%
G36*
X94500575Y-18437007D02*
G01*
X94466500Y-18564174D01*
X94466500Y-18695826D01*
X94500575Y-18822993D01*
X94535797Y-18884000D01*
X94288000Y-18884000D01*
X94219879Y-18863998D01*
X94173386Y-18810342D01*
X94162000Y-18758000D01*
X94162000Y-18502000D01*
X94182002Y-18433879D01*
X94235658Y-18387386D01*
X94288000Y-18376000D01*
X94535797Y-18376000D01*
X94500575Y-18437007D01*
G37*
%TD.AperFunction*%
%TA.AperFunction,Conductor*%
G36*
X97040575Y-18437007D02*
G01*
X97006500Y-18564174D01*
X97006500Y-18695826D01*
X97040575Y-18822993D01*
X97075797Y-18884000D01*
X96828000Y-18884000D01*
X96759879Y-18863998D01*
X96713386Y-18810342D01*
X96702000Y-18758000D01*
X96702000Y-18502000D01*
X96722002Y-18433879D01*
X96775658Y-18387386D01*
X96828000Y-18376000D01*
X97075797Y-18376000D01*
X97040575Y-18437007D01*
G37*
%TD.AperFunction*%
%TA.AperFunction,Conductor*%
G36*
X99580575Y-18437007D02*
G01*
X99546500Y-18564174D01*
X99546500Y-18695826D01*
X99580575Y-18822993D01*
X99615797Y-18884000D01*
X99368000Y-18884000D01*
X99299879Y-18863998D01*
X99253386Y-18810342D01*
X99242000Y-18758000D01*
X99242000Y-18502000D01*
X99262002Y-18433879D01*
X99315658Y-18387386D01*
X99368000Y-18376000D01*
X99615797Y-18376000D01*
X99580575Y-18437007D01*
G37*
%TD.AperFunction*%
%TA.AperFunction,Conductor*%
G36*
X102120575Y-18437007D02*
G01*
X102086500Y-18564174D01*
X102086500Y-18695826D01*
X102120575Y-18822993D01*
X102155797Y-18884000D01*
X101908000Y-18884000D01*
X101839879Y-18863998D01*
X101793386Y-18810342D01*
X101782000Y-18758000D01*
X101782000Y-18502000D01*
X101802002Y-18433879D01*
X101855658Y-18387386D01*
X101908000Y-18376000D01*
X102155797Y-18376000D01*
X102120575Y-18437007D01*
G37*
%TD.AperFunction*%
%TA.AperFunction,Conductor*%
G36*
X104660575Y-18437007D02*
G01*
X104626500Y-18564174D01*
X104626500Y-18695826D01*
X104660575Y-18822993D01*
X104695797Y-18884000D01*
X104448000Y-18884000D01*
X104379879Y-18863998D01*
X104333386Y-18810342D01*
X104322000Y-18758000D01*
X104322000Y-18502000D01*
X104342002Y-18433879D01*
X104395658Y-18387386D01*
X104448000Y-18376000D01*
X104695797Y-18376000D01*
X104660575Y-18437007D01*
G37*
%TD.AperFunction*%
%TA.AperFunction,Conductor*%
G36*
X107200575Y-18437007D02*
G01*
X107166500Y-18564174D01*
X107166500Y-18695826D01*
X107200575Y-18822993D01*
X107235797Y-18884000D01*
X105557203Y-18884000D01*
X105592425Y-18822993D01*
X105626500Y-18695826D01*
X105626500Y-18564174D01*
X105592425Y-18437007D01*
X105557203Y-18376000D01*
X107235797Y-18376000D01*
X107200575Y-18437007D01*
G37*
%TD.AperFunction*%
%TA.AperFunction,Conductor*%
G36*
X109740575Y-18437007D02*
G01*
X109706500Y-18564174D01*
X109706500Y-18695826D01*
X109740575Y-18822993D01*
X109775797Y-18884000D01*
X108097203Y-18884000D01*
X108132425Y-18822993D01*
X108166500Y-18695826D01*
X108166500Y-18564174D01*
X108132425Y-18437007D01*
X108097203Y-18376000D01*
X109775797Y-18376000D01*
X109740575Y-18437007D01*
G37*
%TD.AperFunction*%
%TA.AperFunction,Conductor*%
G36*
X117360575Y-18437007D02*
G01*
X117326500Y-18564174D01*
X117326500Y-18695826D01*
X117360575Y-18822993D01*
X117395797Y-18884000D01*
X115717203Y-18884000D01*
X115752425Y-18822993D01*
X115786500Y-18695826D01*
X115786500Y-18564174D01*
X115752425Y-18437007D01*
X115717203Y-18376000D01*
X117395797Y-18376000D01*
X117360575Y-18437007D01*
G37*
%TD.AperFunction*%
%TA.AperFunction,Conductor*%
G36*
X119900575Y-18437007D02*
G01*
X119866500Y-18564174D01*
X119866500Y-18695826D01*
X119900575Y-18822993D01*
X119935797Y-18884000D01*
X118257203Y-18884000D01*
X118292425Y-18822993D01*
X118326500Y-18695826D01*
X118326500Y-18564174D01*
X118292425Y-18437007D01*
X118257203Y-18376000D01*
X119935797Y-18376000D01*
X119900575Y-18437007D01*
G37*
%TD.AperFunction*%
%TA.AperFunction,Conductor*%
G36*
X122440575Y-18437007D02*
G01*
X122406500Y-18564174D01*
X122406500Y-18695826D01*
X122440575Y-18822993D01*
X122475797Y-18884000D01*
X122228000Y-18884000D01*
X122159879Y-18863998D01*
X122113386Y-18810342D01*
X122102000Y-18758000D01*
X122102000Y-18502000D01*
X122122002Y-18433879D01*
X122175658Y-18387386D01*
X122228000Y-18376000D01*
X122475797Y-18376000D01*
X122440575Y-18437007D01*
G37*
%TD.AperFunction*%
%TA.AperFunction,Conductor*%
G36*
X124980575Y-18437007D02*
G01*
X124946500Y-18564174D01*
X124946500Y-18695826D01*
X124980575Y-18822993D01*
X125015797Y-18884000D01*
X123337203Y-18884000D01*
X123372425Y-18822993D01*
X123406500Y-18695826D01*
X123406500Y-18564174D01*
X123372425Y-18437007D01*
X123337203Y-18376000D01*
X125015797Y-18376000D01*
X124980575Y-18437007D01*
G37*
%TD.AperFunction*%
%TA.AperFunction,Conductor*%
G36*
X127520575Y-18437007D02*
G01*
X127486500Y-18564174D01*
X127486500Y-18695826D01*
X127520575Y-18822993D01*
X127555797Y-18884000D01*
X127308000Y-18884000D01*
X127239879Y-18863998D01*
X127193386Y-18810342D01*
X127182000Y-18758000D01*
X127182000Y-18502000D01*
X127202002Y-18433879D01*
X127255658Y-18387386D01*
X127308000Y-18376000D01*
X127555797Y-18376000D01*
X127520575Y-18437007D01*
G37*
%TD.AperFunction*%
%TA.AperFunction,Conductor*%
G36*
X130060575Y-18437007D02*
G01*
X130026500Y-18564174D01*
X130026500Y-18695826D01*
X130060575Y-18822993D01*
X130095797Y-18884000D01*
X129848000Y-18884000D01*
X129779879Y-18863998D01*
X129733386Y-18810342D01*
X129722000Y-18758000D01*
X129722000Y-18502000D01*
X129742002Y-18433879D01*
X129795658Y-18387386D01*
X129848000Y-18376000D01*
X130095797Y-18376000D01*
X130060575Y-18437007D01*
G37*
%TD.AperFunction*%
%TA.AperFunction,Conductor*%
G36*
X132600575Y-18437007D02*
G01*
X132566500Y-18564174D01*
X132566500Y-18695826D01*
X132600575Y-18822993D01*
X132635797Y-18884000D01*
X132388000Y-18884000D01*
X132319879Y-18863998D01*
X132273386Y-18810342D01*
X132262000Y-18758000D01*
X132262000Y-18502000D01*
X132282002Y-18433879D01*
X132335658Y-18387386D01*
X132388000Y-18376000D01*
X132635797Y-18376000D01*
X132600575Y-18437007D01*
G37*
%TD.AperFunction*%
%TA.AperFunction,Conductor*%
G36*
X135140575Y-18437007D02*
G01*
X135106500Y-18564174D01*
X135106500Y-18695826D01*
X135140575Y-18822993D01*
X135175797Y-18884000D01*
X134928000Y-18884000D01*
X134859879Y-18863998D01*
X134813386Y-18810342D01*
X134802000Y-18758000D01*
X134802000Y-18502000D01*
X134822002Y-18433879D01*
X134875658Y-18387386D01*
X134928000Y-18376000D01*
X135175797Y-18376000D01*
X135140575Y-18437007D01*
G37*
%TD.AperFunction*%
%TA.AperFunction,Conductor*%
G36*
X137680575Y-18437007D02*
G01*
X137646500Y-18564174D01*
X137646500Y-18695826D01*
X137680575Y-18822993D01*
X137715797Y-18884000D01*
X137468000Y-18884000D01*
X137399879Y-18863998D01*
X137353386Y-18810342D01*
X137342000Y-18758000D01*
X137342000Y-18502000D01*
X137362002Y-18433879D01*
X137415658Y-18387386D01*
X137468000Y-18376000D01*
X137715797Y-18376000D01*
X137680575Y-18437007D01*
G37*
%TD.AperFunction*%
%TA.AperFunction,Conductor*%
G36*
X140220575Y-18437007D02*
G01*
X140186500Y-18564174D01*
X140186500Y-18695826D01*
X140220575Y-18822993D01*
X140255797Y-18884000D01*
X140008000Y-18884000D01*
X139939879Y-18863998D01*
X139893386Y-18810342D01*
X139882000Y-18758000D01*
X139882000Y-18502000D01*
X139902002Y-18433879D01*
X139955658Y-18387386D01*
X140008000Y-18376000D01*
X140255797Y-18376000D01*
X140220575Y-18437007D01*
G37*
%TD.AperFunction*%
%TA.AperFunction,Conductor*%
G36*
X142760575Y-18437007D02*
G01*
X142726500Y-18564174D01*
X142726500Y-18695826D01*
X142760575Y-18822993D01*
X142795797Y-18884000D01*
X142548000Y-18884000D01*
X142479879Y-18863998D01*
X142433386Y-18810342D01*
X142422000Y-18758000D01*
X142422000Y-18502000D01*
X142442002Y-18433879D01*
X142495658Y-18387386D01*
X142548000Y-18376000D01*
X142795797Y-18376000D01*
X142760575Y-18437007D01*
G37*
%TD.AperFunction*%
%TA.AperFunction,Conductor*%
G36*
X105380500Y-18199297D02*
G01*
X105319493Y-18164075D01*
X105192326Y-18130000D01*
X105060674Y-18130000D01*
X104933507Y-18164075D01*
X104872500Y-18199297D01*
X104872500Y-16520702D01*
X104933507Y-16555925D01*
X105060674Y-16590000D01*
X105192326Y-16590000D01*
X105319493Y-16555925D01*
X105380500Y-16520702D01*
X105380500Y-18199297D01*
G37*
%TD.AperFunction*%
%TA.AperFunction,Conductor*%
G36*
X107920500Y-18199297D02*
G01*
X107859493Y-18164075D01*
X107732326Y-18130000D01*
X107600674Y-18130000D01*
X107473507Y-18164075D01*
X107412500Y-18199297D01*
X107412500Y-16520702D01*
X107473507Y-16555925D01*
X107600674Y-16590000D01*
X107732326Y-16590000D01*
X107859493Y-16555925D01*
X107920500Y-16520702D01*
X107920500Y-18199297D01*
G37*
%TD.AperFunction*%
%TA.AperFunction,Conductor*%
G36*
X110460500Y-18199297D02*
G01*
X110399493Y-18164075D01*
X110272326Y-18130000D01*
X110140674Y-18130000D01*
X110013507Y-18164075D01*
X109952500Y-18199297D01*
X109952500Y-16520702D01*
X110013507Y-16555925D01*
X110140674Y-16590000D01*
X110272326Y-16590000D01*
X110399493Y-16555925D01*
X110460500Y-16520702D01*
X110460500Y-18199297D01*
G37*
%TD.AperFunction*%
%TA.AperFunction,Conductor*%
G36*
X115540500Y-18199297D02*
G01*
X115479493Y-18164075D01*
X115352326Y-18130000D01*
X115220674Y-18130000D01*
X115093507Y-18164075D01*
X115032500Y-18199297D01*
X115032500Y-16520702D01*
X115093507Y-16555925D01*
X115220674Y-16590000D01*
X115352326Y-16590000D01*
X115479493Y-16555925D01*
X115540500Y-16520702D01*
X115540500Y-18199297D01*
G37*
%TD.AperFunction*%
%TA.AperFunction,Conductor*%
G36*
X118080500Y-18199297D02*
G01*
X118019493Y-18164075D01*
X117892326Y-18130000D01*
X117760674Y-18130000D01*
X117633507Y-18164075D01*
X117572500Y-18199297D01*
X117572500Y-16520702D01*
X117633507Y-16555925D01*
X117760674Y-16590000D01*
X117892326Y-16590000D01*
X118019493Y-16555925D01*
X118080500Y-16520702D01*
X118080500Y-18199297D01*
G37*
%TD.AperFunction*%
%TA.AperFunction,Conductor*%
G36*
X107200575Y-15897007D02*
G01*
X107166500Y-16024174D01*
X107166500Y-16155826D01*
X107200575Y-16282993D01*
X107235797Y-16344000D01*
X105557203Y-16344000D01*
X105592425Y-16282993D01*
X105626500Y-16155826D01*
X105626500Y-16024174D01*
X105592425Y-15897007D01*
X105557203Y-15836000D01*
X107235797Y-15836000D01*
X107200575Y-15897007D01*
G37*
%TD.AperFunction*%
%TA.AperFunction,Conductor*%
G36*
X109740575Y-15897007D02*
G01*
X109706500Y-16024174D01*
X109706500Y-16155826D01*
X109740575Y-16282993D01*
X109775797Y-16344000D01*
X108097203Y-16344000D01*
X108132425Y-16282993D01*
X108166500Y-16155826D01*
X108166500Y-16024174D01*
X108132425Y-15897007D01*
X108097203Y-15836000D01*
X109775797Y-15836000D01*
X109740575Y-15897007D01*
G37*
%TD.AperFunction*%
%TA.AperFunction,Conductor*%
G36*
X117360575Y-15897007D02*
G01*
X117326500Y-16024174D01*
X117326500Y-16155826D01*
X117360575Y-16282993D01*
X117395797Y-16344000D01*
X115717203Y-16344000D01*
X115752425Y-16282993D01*
X115786500Y-16155826D01*
X115786500Y-16024174D01*
X115752425Y-15897007D01*
X115717203Y-15836000D01*
X117395797Y-15836000D01*
X117360575Y-15897007D01*
G37*
%TD.AperFunction*%
%TA.AperFunction,Conductor*%
G36*
X83592746Y-9174632D02*
G01*
X83644774Y-9222941D01*
X83656103Y-9247745D01*
X83660033Y-9259607D01*
X83664385Y-9272738D01*
X83757470Y-9423652D01*
X83757475Y-9423658D01*
X83882841Y-9549024D01*
X83882847Y-9549029D01*
X83882848Y-9549030D01*
X84033762Y-9642115D01*
X84086632Y-9659634D01*
X84145003Y-9700046D01*
X84172260Y-9765602D01*
X84173000Y-9779238D01*
X84173000Y-14813078D01*
X84152998Y-14881199D01*
X84106971Y-14923891D01*
X84060926Y-14948810D01*
X84060924Y-14948811D01*
X83883262Y-15087091D01*
X83730779Y-15252729D01*
X83641983Y-15388643D01*
X83587979Y-15434731D01*
X83517631Y-15444306D01*
X83453274Y-15414329D01*
X83431017Y-15388643D01*
X83342426Y-15253044D01*
X83342222Y-15252732D01*
X83342221Y-15252731D01*
X83342220Y-15252729D01*
X83226070Y-15126559D01*
X83189740Y-15087094D01*
X83189739Y-15087093D01*
X83189737Y-15087091D01*
X83107882Y-15023381D01*
X83012076Y-14948811D01*
X82984120Y-14933681D01*
X82966029Y-14923891D01*
X82915639Y-14873877D01*
X82900000Y-14813078D01*
X82900000Y-9779238D01*
X82920002Y-9711117D01*
X82973658Y-9664624D01*
X82986357Y-9659637D01*
X83039238Y-9642115D01*
X83190152Y-9549030D01*
X83315530Y-9423652D01*
X83408615Y-9272738D01*
X83416895Y-9247748D01*
X83457305Y-9189379D01*
X83522861Y-9162121D01*
X83592746Y-9174632D01*
G37*
%TD.AperFunction*%
%TA.AperFunction,Conductor*%
G36*
X86132746Y-9174632D02*
G01*
X86184774Y-9222941D01*
X86196103Y-9247745D01*
X86200033Y-9259607D01*
X86204385Y-9272738D01*
X86297470Y-9423652D01*
X86297475Y-9423658D01*
X86422841Y-9549024D01*
X86422847Y-9549029D01*
X86422848Y-9549030D01*
X86573762Y-9642115D01*
X86626632Y-9659634D01*
X86685003Y-9700046D01*
X86712260Y-9765602D01*
X86713000Y-9779238D01*
X86713000Y-14813078D01*
X86692998Y-14881199D01*
X86646971Y-14923891D01*
X86600926Y-14948810D01*
X86600924Y-14948811D01*
X86423262Y-15087091D01*
X86270779Y-15252729D01*
X86181983Y-15388643D01*
X86127979Y-15434731D01*
X86057631Y-15444306D01*
X85993274Y-15414329D01*
X85971017Y-15388643D01*
X85882426Y-15253044D01*
X85882222Y-15252732D01*
X85882221Y-15252731D01*
X85882220Y-15252729D01*
X85766070Y-15126559D01*
X85729740Y-15087094D01*
X85729739Y-15087093D01*
X85729737Y-15087091D01*
X85647882Y-15023381D01*
X85552076Y-14948811D01*
X85524120Y-14933681D01*
X85506029Y-14923891D01*
X85455639Y-14873877D01*
X85440000Y-14813078D01*
X85440000Y-9779238D01*
X85460002Y-9711117D01*
X85513658Y-9664624D01*
X85526357Y-9659637D01*
X85579238Y-9642115D01*
X85730152Y-9549030D01*
X85855530Y-9423652D01*
X85948615Y-9272738D01*
X85956895Y-9247748D01*
X85997305Y-9189379D01*
X86062861Y-9162121D01*
X86132746Y-9174632D01*
G37*
%TD.AperFunction*%
%TA.AperFunction,Conductor*%
G36*
X88672746Y-9174632D02*
G01*
X88724774Y-9222941D01*
X88736103Y-9247745D01*
X88740033Y-9259607D01*
X88744385Y-9272738D01*
X88837470Y-9423652D01*
X88837475Y-9423658D01*
X88962841Y-9549024D01*
X88962847Y-9549029D01*
X88962848Y-9549030D01*
X89113762Y-9642115D01*
X89166632Y-9659634D01*
X89225003Y-9700046D01*
X89252260Y-9765602D01*
X89253000Y-9779238D01*
X89253000Y-14813078D01*
X89232998Y-14881199D01*
X89186971Y-14923891D01*
X89140926Y-14948810D01*
X89140924Y-14948811D01*
X88963262Y-15087091D01*
X88810779Y-15252729D01*
X88721983Y-15388643D01*
X88667979Y-15434731D01*
X88597631Y-15444306D01*
X88533274Y-15414329D01*
X88511017Y-15388643D01*
X88422426Y-15253044D01*
X88422222Y-15252732D01*
X88422221Y-15252731D01*
X88422220Y-15252729D01*
X88306070Y-15126559D01*
X88269740Y-15087094D01*
X88269739Y-15087093D01*
X88269737Y-15087091D01*
X88187882Y-15023381D01*
X88092076Y-14948811D01*
X88064120Y-14933681D01*
X88046029Y-14923891D01*
X87995639Y-14873877D01*
X87980000Y-14813078D01*
X87980000Y-9779238D01*
X88000002Y-9711117D01*
X88053658Y-9664624D01*
X88066357Y-9659637D01*
X88119238Y-9642115D01*
X88270152Y-9549030D01*
X88395530Y-9423652D01*
X88488615Y-9272738D01*
X88496895Y-9247748D01*
X88537305Y-9189379D01*
X88602861Y-9162121D01*
X88672746Y-9174632D01*
G37*
%TD.AperFunction*%
%TA.AperFunction,Conductor*%
G36*
X91212746Y-9174632D02*
G01*
X91264774Y-9222941D01*
X91276103Y-9247745D01*
X91280033Y-9259607D01*
X91284385Y-9272738D01*
X91377470Y-9423652D01*
X91377475Y-9423658D01*
X91502841Y-9549024D01*
X91502847Y-9549029D01*
X91502848Y-9549030D01*
X91653762Y-9642115D01*
X91706632Y-9659634D01*
X91765003Y-9700046D01*
X91792260Y-9765602D01*
X91793000Y-9779238D01*
X91793000Y-14813078D01*
X91772998Y-14881199D01*
X91726971Y-14923891D01*
X91680926Y-14948810D01*
X91680924Y-14948811D01*
X91503262Y-15087091D01*
X91350779Y-15252729D01*
X91261983Y-15388643D01*
X91207979Y-15434731D01*
X91137631Y-15444306D01*
X91073274Y-15414329D01*
X91051017Y-15388643D01*
X90962426Y-15253044D01*
X90962222Y-15252732D01*
X90962221Y-15252731D01*
X90962220Y-15252729D01*
X90846070Y-15126559D01*
X90809740Y-15087094D01*
X90809739Y-15087093D01*
X90809737Y-15087091D01*
X90727882Y-15023381D01*
X90632076Y-14948811D01*
X90604120Y-14933681D01*
X90586029Y-14923891D01*
X90535639Y-14873877D01*
X90520000Y-14813078D01*
X90520000Y-9779238D01*
X90540002Y-9711117D01*
X90593658Y-9664624D01*
X90606357Y-9659637D01*
X90659238Y-9642115D01*
X90810152Y-9549030D01*
X90935530Y-9423652D01*
X91028615Y-9272738D01*
X91036895Y-9247748D01*
X91077305Y-9189379D01*
X91142861Y-9162121D01*
X91212746Y-9174632D01*
G37*
%TD.AperFunction*%
%TA.AperFunction,Conductor*%
G36*
X93752746Y-9174632D02*
G01*
X93804774Y-9222941D01*
X93816103Y-9247745D01*
X93820033Y-9259607D01*
X93824385Y-9272738D01*
X93917470Y-9423652D01*
X93917475Y-9423658D01*
X94042841Y-9549024D01*
X94042847Y-9549029D01*
X94042848Y-9549030D01*
X94193762Y-9642115D01*
X94246632Y-9659634D01*
X94305003Y-9700046D01*
X94332260Y-9765602D01*
X94333000Y-9779238D01*
X94333000Y-14813078D01*
X94312998Y-14881199D01*
X94266971Y-14923891D01*
X94220926Y-14948810D01*
X94220924Y-14948811D01*
X94043262Y-15087091D01*
X93890779Y-15252729D01*
X93801983Y-15388643D01*
X93747979Y-15434731D01*
X93677631Y-15444306D01*
X93613274Y-15414329D01*
X93591017Y-15388643D01*
X93502426Y-15253044D01*
X93502222Y-15252732D01*
X93502221Y-15252731D01*
X93502220Y-15252729D01*
X93386070Y-15126559D01*
X93349740Y-15087094D01*
X93349739Y-15087093D01*
X93349737Y-15087091D01*
X93267882Y-15023381D01*
X93172076Y-14948811D01*
X93144120Y-14933681D01*
X93126029Y-14923891D01*
X93075639Y-14873877D01*
X93060000Y-14813078D01*
X93060000Y-9779238D01*
X93080002Y-9711117D01*
X93133658Y-9664624D01*
X93146357Y-9659637D01*
X93199238Y-9642115D01*
X93350152Y-9549030D01*
X93475530Y-9423652D01*
X93568615Y-9272738D01*
X93576895Y-9247748D01*
X93617305Y-9189379D01*
X93682861Y-9162121D01*
X93752746Y-9174632D01*
G37*
%TD.AperFunction*%
%TA.AperFunction,Conductor*%
G36*
X96292746Y-9174632D02*
G01*
X96344774Y-9222941D01*
X96356103Y-9247745D01*
X96360033Y-9259607D01*
X96364385Y-9272738D01*
X96457470Y-9423652D01*
X96457475Y-9423658D01*
X96582841Y-9549024D01*
X96582847Y-9549029D01*
X96582848Y-9549030D01*
X96733762Y-9642115D01*
X96786632Y-9659634D01*
X96845003Y-9700046D01*
X96872260Y-9765602D01*
X96873000Y-9779238D01*
X96873000Y-14813078D01*
X96852998Y-14881199D01*
X96806971Y-14923891D01*
X96760926Y-14948810D01*
X96760924Y-14948811D01*
X96583262Y-15087091D01*
X96430779Y-15252729D01*
X96341983Y-15388643D01*
X96287979Y-15434731D01*
X96217631Y-15444306D01*
X96153274Y-15414329D01*
X96131017Y-15388643D01*
X96042426Y-15253044D01*
X96042222Y-15252732D01*
X96042221Y-15252731D01*
X96042220Y-15252729D01*
X95926070Y-15126559D01*
X95889740Y-15087094D01*
X95889739Y-15087093D01*
X95889737Y-15087091D01*
X95807882Y-15023381D01*
X95712076Y-14948811D01*
X95684120Y-14933681D01*
X95666029Y-14923891D01*
X95615639Y-14873877D01*
X95600000Y-14813078D01*
X95600000Y-9779238D01*
X95620002Y-9711117D01*
X95673658Y-9664624D01*
X95686357Y-9659637D01*
X95739238Y-9642115D01*
X95890152Y-9549030D01*
X96015530Y-9423652D01*
X96108615Y-9272738D01*
X96116895Y-9247748D01*
X96157305Y-9189379D01*
X96222861Y-9162121D01*
X96292746Y-9174632D01*
G37*
%TD.AperFunction*%
%TA.AperFunction,Conductor*%
G36*
X98832746Y-9174632D02*
G01*
X98884774Y-9222941D01*
X98896103Y-9247745D01*
X98900033Y-9259607D01*
X98904385Y-9272738D01*
X98997470Y-9423652D01*
X98997475Y-9423658D01*
X99122841Y-9549024D01*
X99122847Y-9549029D01*
X99122848Y-9549030D01*
X99273762Y-9642115D01*
X99326632Y-9659634D01*
X99385003Y-9700046D01*
X99412260Y-9765602D01*
X99413000Y-9779238D01*
X99413000Y-14813078D01*
X99392998Y-14881199D01*
X99346971Y-14923891D01*
X99300926Y-14948810D01*
X99300924Y-14948811D01*
X99123262Y-15087091D01*
X98970779Y-15252729D01*
X98881983Y-15388643D01*
X98827979Y-15434731D01*
X98757631Y-15444306D01*
X98693274Y-15414329D01*
X98671017Y-15388643D01*
X98582426Y-15253044D01*
X98582222Y-15252732D01*
X98582221Y-15252731D01*
X98582220Y-15252729D01*
X98466070Y-15126559D01*
X98429740Y-15087094D01*
X98429739Y-15087093D01*
X98429737Y-15087091D01*
X98347882Y-15023381D01*
X98252076Y-14948811D01*
X98224120Y-14933681D01*
X98206029Y-14923891D01*
X98155639Y-14873877D01*
X98140000Y-14813078D01*
X98140000Y-9779238D01*
X98160002Y-9711117D01*
X98213658Y-9664624D01*
X98226357Y-9659637D01*
X98279238Y-9642115D01*
X98430152Y-9549030D01*
X98555530Y-9423652D01*
X98648615Y-9272738D01*
X98656895Y-9247748D01*
X98697305Y-9189379D01*
X98762861Y-9162121D01*
X98832746Y-9174632D01*
G37*
%TD.AperFunction*%
%TA.AperFunction,Conductor*%
G36*
X101372746Y-9174632D02*
G01*
X101424774Y-9222941D01*
X101436103Y-9247745D01*
X101440033Y-9259607D01*
X101444385Y-9272738D01*
X101537470Y-9423652D01*
X101537475Y-9423658D01*
X101662841Y-9549024D01*
X101662847Y-9549029D01*
X101662848Y-9549030D01*
X101813762Y-9642115D01*
X101866632Y-9659634D01*
X101925003Y-9700046D01*
X101952260Y-9765602D01*
X101953000Y-9779238D01*
X101953000Y-14813078D01*
X101932998Y-14881199D01*
X101886971Y-14923891D01*
X101840926Y-14948810D01*
X101840924Y-14948811D01*
X101663262Y-15087091D01*
X101510779Y-15252729D01*
X101421983Y-15388643D01*
X101367979Y-15434731D01*
X101297631Y-15444306D01*
X101233274Y-15414329D01*
X101211017Y-15388643D01*
X101122426Y-15253044D01*
X101122222Y-15252732D01*
X101122221Y-15252731D01*
X101122220Y-15252729D01*
X101006070Y-15126559D01*
X100969740Y-15087094D01*
X100969739Y-15087093D01*
X100969737Y-15087091D01*
X100887882Y-15023381D01*
X100792076Y-14948811D01*
X100764120Y-14933681D01*
X100746029Y-14923891D01*
X100695639Y-14873877D01*
X100680000Y-14813078D01*
X100680000Y-9779238D01*
X100700002Y-9711117D01*
X100753658Y-9664624D01*
X100766357Y-9659637D01*
X100819238Y-9642115D01*
X100970152Y-9549030D01*
X101095530Y-9423652D01*
X101188615Y-9272738D01*
X101196895Y-9247748D01*
X101237305Y-9189379D01*
X101302861Y-9162121D01*
X101372746Y-9174632D01*
G37*
%TD.AperFunction*%
%TA.AperFunction,Conductor*%
G36*
X126772746Y-9174632D02*
G01*
X126824774Y-9222941D01*
X126836103Y-9247745D01*
X126840033Y-9259607D01*
X126844385Y-9272738D01*
X126937470Y-9423652D01*
X126937475Y-9423658D01*
X127062841Y-9549024D01*
X127062847Y-9549029D01*
X127062848Y-9549030D01*
X127213762Y-9642115D01*
X127266632Y-9659634D01*
X127325003Y-9700046D01*
X127352260Y-9765602D01*
X127353000Y-9779238D01*
X127353000Y-14813078D01*
X127332998Y-14881199D01*
X127286971Y-14923891D01*
X127240926Y-14948810D01*
X127240924Y-14948811D01*
X127063262Y-15087091D01*
X126910779Y-15252729D01*
X126821983Y-15388643D01*
X126767979Y-15434731D01*
X126697631Y-15444306D01*
X126633274Y-15414329D01*
X126611017Y-15388643D01*
X126522426Y-15253044D01*
X126522222Y-15252732D01*
X126522221Y-15252731D01*
X126522220Y-15252729D01*
X126406070Y-15126559D01*
X126369740Y-15087094D01*
X126369739Y-15087093D01*
X126369737Y-15087091D01*
X126287882Y-15023381D01*
X126192076Y-14948811D01*
X126164120Y-14933681D01*
X126146029Y-14923891D01*
X126095639Y-14873877D01*
X126080000Y-14813078D01*
X126080000Y-9779238D01*
X126100002Y-9711117D01*
X126153658Y-9664624D01*
X126166357Y-9659637D01*
X126219238Y-9642115D01*
X126370152Y-9549030D01*
X126495530Y-9423652D01*
X126588615Y-9272738D01*
X126596895Y-9247748D01*
X126637305Y-9189379D01*
X126702861Y-9162121D01*
X126772746Y-9174632D01*
G37*
%TD.AperFunction*%
%TA.AperFunction,Conductor*%
G36*
X129312746Y-9174632D02*
G01*
X129364774Y-9222941D01*
X129376103Y-9247745D01*
X129380033Y-9259607D01*
X129384385Y-9272738D01*
X129477470Y-9423652D01*
X129477475Y-9423658D01*
X129602841Y-9549024D01*
X129602847Y-9549029D01*
X129602848Y-9549030D01*
X129753762Y-9642115D01*
X129806632Y-9659634D01*
X129865003Y-9700046D01*
X129892260Y-9765602D01*
X129893000Y-9779238D01*
X129893000Y-14813078D01*
X129872998Y-14881199D01*
X129826971Y-14923891D01*
X129780926Y-14948810D01*
X129780924Y-14948811D01*
X129603262Y-15087091D01*
X129450779Y-15252729D01*
X129361983Y-15388643D01*
X129307979Y-15434731D01*
X129237631Y-15444306D01*
X129173274Y-15414329D01*
X129151017Y-15388643D01*
X129062426Y-15253044D01*
X129062222Y-15252732D01*
X129062221Y-15252731D01*
X129062220Y-15252729D01*
X128946070Y-15126559D01*
X128909740Y-15087094D01*
X128909739Y-15087093D01*
X128909737Y-15087091D01*
X128827882Y-15023381D01*
X128732076Y-14948811D01*
X128704120Y-14933681D01*
X128686029Y-14923891D01*
X128635639Y-14873877D01*
X128620000Y-14813078D01*
X128620000Y-9779238D01*
X128640002Y-9711117D01*
X128693658Y-9664624D01*
X128706357Y-9659637D01*
X128759238Y-9642115D01*
X128910152Y-9549030D01*
X129035530Y-9423652D01*
X129128615Y-9272738D01*
X129136895Y-9247748D01*
X129177305Y-9189379D01*
X129242861Y-9162121D01*
X129312746Y-9174632D01*
G37*
%TD.AperFunction*%
%TA.AperFunction,Conductor*%
G36*
X131852746Y-9174632D02*
G01*
X131904774Y-9222941D01*
X131916103Y-9247745D01*
X131920033Y-9259607D01*
X131924385Y-9272738D01*
X132017470Y-9423652D01*
X132017475Y-9423658D01*
X132142841Y-9549024D01*
X132142847Y-9549029D01*
X132142848Y-9549030D01*
X132293762Y-9642115D01*
X132346632Y-9659634D01*
X132405003Y-9700046D01*
X132432260Y-9765602D01*
X132433000Y-9779238D01*
X132433000Y-14813078D01*
X132412998Y-14881199D01*
X132366971Y-14923891D01*
X132320926Y-14948810D01*
X132320924Y-14948811D01*
X132143262Y-15087091D01*
X131990779Y-15252729D01*
X131901983Y-15388643D01*
X131847979Y-15434731D01*
X131777631Y-15444306D01*
X131713274Y-15414329D01*
X131691017Y-15388643D01*
X131602426Y-15253044D01*
X131602222Y-15252732D01*
X131602221Y-15252731D01*
X131602220Y-15252729D01*
X131486070Y-15126559D01*
X131449740Y-15087094D01*
X131449739Y-15087093D01*
X131449737Y-15087091D01*
X131367882Y-15023381D01*
X131272076Y-14948811D01*
X131244120Y-14933681D01*
X131226029Y-14923891D01*
X131175639Y-14873877D01*
X131160000Y-14813078D01*
X131160000Y-9779238D01*
X131180002Y-9711117D01*
X131233658Y-9664624D01*
X131246357Y-9659637D01*
X131299238Y-9642115D01*
X131450152Y-9549030D01*
X131575530Y-9423652D01*
X131668615Y-9272738D01*
X131676895Y-9247748D01*
X131717305Y-9189379D01*
X131782861Y-9162121D01*
X131852746Y-9174632D01*
G37*
%TD.AperFunction*%
%TA.AperFunction,Conductor*%
G36*
X134392746Y-9174632D02*
G01*
X134444774Y-9222941D01*
X134456103Y-9247745D01*
X134460033Y-9259607D01*
X134464385Y-9272738D01*
X134557470Y-9423652D01*
X134557475Y-9423658D01*
X134682841Y-9549024D01*
X134682847Y-9549029D01*
X134682848Y-9549030D01*
X134833762Y-9642115D01*
X134886632Y-9659634D01*
X134945003Y-9700046D01*
X134972260Y-9765602D01*
X134973000Y-9779238D01*
X134973000Y-14813078D01*
X134952998Y-14881199D01*
X134906971Y-14923891D01*
X134860926Y-14948810D01*
X134860924Y-14948811D01*
X134683262Y-15087091D01*
X134530779Y-15252729D01*
X134441983Y-15388643D01*
X134387979Y-15434731D01*
X134317631Y-15444306D01*
X134253274Y-15414329D01*
X134231017Y-15388643D01*
X134142426Y-15253044D01*
X134142222Y-15252732D01*
X134142221Y-15252731D01*
X134142220Y-15252729D01*
X134026070Y-15126559D01*
X133989740Y-15087094D01*
X133989739Y-15087093D01*
X133989737Y-15087091D01*
X133907882Y-15023381D01*
X133812076Y-14948811D01*
X133784120Y-14933681D01*
X133766029Y-14923891D01*
X133715639Y-14873877D01*
X133700000Y-14813078D01*
X133700000Y-9779238D01*
X133720002Y-9711117D01*
X133773658Y-9664624D01*
X133786357Y-9659637D01*
X133839238Y-9642115D01*
X133990152Y-9549030D01*
X134115530Y-9423652D01*
X134208615Y-9272738D01*
X134216895Y-9247748D01*
X134257305Y-9189379D01*
X134322861Y-9162121D01*
X134392746Y-9174632D01*
G37*
%TD.AperFunction*%
%TA.AperFunction,Conductor*%
G36*
X136932746Y-9174632D02*
G01*
X136984774Y-9222941D01*
X136996103Y-9247745D01*
X137000033Y-9259607D01*
X137004385Y-9272738D01*
X137097470Y-9423652D01*
X137097475Y-9423658D01*
X137222841Y-9549024D01*
X137222847Y-9549029D01*
X137222848Y-9549030D01*
X137373762Y-9642115D01*
X137426632Y-9659634D01*
X137485003Y-9700046D01*
X137512260Y-9765602D01*
X137513000Y-9779238D01*
X137513000Y-14813078D01*
X137492998Y-14881199D01*
X137446971Y-14923891D01*
X137400926Y-14948810D01*
X137400924Y-14948811D01*
X137223262Y-15087091D01*
X137070779Y-15252729D01*
X136981983Y-15388643D01*
X136927979Y-15434731D01*
X136857631Y-15444306D01*
X136793274Y-15414329D01*
X136771017Y-15388643D01*
X136682426Y-15253044D01*
X136682222Y-15252732D01*
X136682221Y-15252731D01*
X136682220Y-15252729D01*
X136566070Y-15126559D01*
X136529740Y-15087094D01*
X136529739Y-15087093D01*
X136529737Y-15087091D01*
X136447882Y-15023381D01*
X136352076Y-14948811D01*
X136324120Y-14933681D01*
X136306029Y-14923891D01*
X136255639Y-14873877D01*
X136240000Y-14813078D01*
X136240000Y-9779238D01*
X136260002Y-9711117D01*
X136313658Y-9664624D01*
X136326357Y-9659637D01*
X136379238Y-9642115D01*
X136530152Y-9549030D01*
X136655530Y-9423652D01*
X136748615Y-9272738D01*
X136756895Y-9247748D01*
X136797305Y-9189379D01*
X136862861Y-9162121D01*
X136932746Y-9174632D01*
G37*
%TD.AperFunction*%
%TA.AperFunction,Conductor*%
G36*
X139472746Y-9174632D02*
G01*
X139524774Y-9222941D01*
X139536103Y-9247745D01*
X139540033Y-9259607D01*
X139544385Y-9272738D01*
X139637470Y-9423652D01*
X139637475Y-9423658D01*
X139762841Y-9549024D01*
X139762847Y-9549029D01*
X139762848Y-9549030D01*
X139913762Y-9642115D01*
X139966632Y-9659634D01*
X140025003Y-9700046D01*
X140052260Y-9765602D01*
X140053000Y-9779238D01*
X140053000Y-14813078D01*
X140032998Y-14881199D01*
X139986971Y-14923891D01*
X139940926Y-14948810D01*
X139940924Y-14948811D01*
X139763262Y-15087091D01*
X139610779Y-15252729D01*
X139521983Y-15388643D01*
X139467979Y-15434731D01*
X139397631Y-15444306D01*
X139333274Y-15414329D01*
X139311017Y-15388643D01*
X139222426Y-15253044D01*
X139222222Y-15252732D01*
X139222221Y-15252731D01*
X139222220Y-15252729D01*
X139106070Y-15126559D01*
X139069740Y-15087094D01*
X139069739Y-15087093D01*
X139069737Y-15087091D01*
X138987882Y-15023381D01*
X138892076Y-14948811D01*
X138864120Y-14933681D01*
X138846029Y-14923891D01*
X138795639Y-14873877D01*
X138780000Y-14813078D01*
X138780000Y-9779238D01*
X138800002Y-9711117D01*
X138853658Y-9664624D01*
X138866357Y-9659637D01*
X138919238Y-9642115D01*
X139070152Y-9549030D01*
X139195530Y-9423652D01*
X139288615Y-9272738D01*
X139296895Y-9247748D01*
X139337305Y-9189379D01*
X139402861Y-9162121D01*
X139472746Y-9174632D01*
G37*
%TD.AperFunction*%
%TA.AperFunction,Conductor*%
G36*
X142012746Y-9174632D02*
G01*
X142064774Y-9222941D01*
X142076103Y-9247745D01*
X142080033Y-9259607D01*
X142084385Y-9272738D01*
X142177470Y-9423652D01*
X142177475Y-9423658D01*
X142302841Y-9549024D01*
X142302847Y-9549029D01*
X142302848Y-9549030D01*
X142453762Y-9642115D01*
X142506632Y-9659634D01*
X142565003Y-9700046D01*
X142592260Y-9765602D01*
X142593000Y-9779238D01*
X142593000Y-14813078D01*
X142572998Y-14881199D01*
X142526971Y-14923891D01*
X142480926Y-14948810D01*
X142480924Y-14948811D01*
X142303262Y-15087091D01*
X142150779Y-15252729D01*
X142061983Y-15388643D01*
X142007979Y-15434731D01*
X141937631Y-15444306D01*
X141873274Y-15414329D01*
X141851017Y-15388643D01*
X141762426Y-15253044D01*
X141762222Y-15252732D01*
X141762221Y-15252731D01*
X141762220Y-15252729D01*
X141646070Y-15126559D01*
X141609740Y-15087094D01*
X141609739Y-15087093D01*
X141609737Y-15087091D01*
X141527882Y-15023381D01*
X141432076Y-14948811D01*
X141404120Y-14933681D01*
X141386029Y-14923891D01*
X141335639Y-14873877D01*
X141320000Y-14813078D01*
X141320000Y-9779238D01*
X141340002Y-9711117D01*
X141393658Y-9664624D01*
X141406357Y-9659637D01*
X141459238Y-9642115D01*
X141610152Y-9549030D01*
X141735530Y-9423652D01*
X141828615Y-9272738D01*
X141836895Y-9247748D01*
X141877305Y-9189379D01*
X141942861Y-9162121D01*
X142012746Y-9174632D01*
G37*
%TD.AperFunction*%
%TA.AperFunction,Conductor*%
G36*
X141803093Y384349D02*
G01*
X142134384Y368073D01*
X142146678Y366862D01*
X142471724Y318646D01*
X142483834Y316237D01*
X142802594Y236392D01*
X142814407Y232809D01*
X143123811Y122103D01*
X143135224Y117375D01*
X143283751Y47127D01*
X143432273Y-23119D01*
X143443178Y-28948D01*
X143725022Y-197878D01*
X143735303Y-204748D01*
X143999233Y-400492D01*
X144008779Y-408326D01*
X144252262Y-629005D01*
X144260994Y-637737D01*
X144481668Y-881214D01*
X144489512Y-890772D01*
X144685251Y-1154696D01*
X144692121Y-1164977D01*
X144861051Y-1446821D01*
X144866880Y-1457726D01*
X145007372Y-1754770D01*
X145012104Y-1766194D01*
X145122805Y-2075582D01*
X145126394Y-2087415D01*
X145206234Y-2406156D01*
X145208646Y-2418283D01*
X145256860Y-2743315D01*
X145258072Y-2755620D01*
X145274348Y-3086906D01*
X145274500Y-3093089D01*
X145274500Y-42192910D01*
X145274348Y-42199093D01*
X145258072Y-42530379D01*
X145256860Y-42542684D01*
X145208646Y-42867716D01*
X145206234Y-42879843D01*
X145126394Y-43198584D01*
X145122805Y-43210417D01*
X145012104Y-43519805D01*
X145007372Y-43531229D01*
X144866880Y-43828273D01*
X144861051Y-43839178D01*
X144692121Y-44121022D01*
X144685251Y-44131303D01*
X144489512Y-44395227D01*
X144481668Y-44404785D01*
X144261000Y-44648256D01*
X144252256Y-44657000D01*
X144008785Y-44877668D01*
X143999227Y-44885512D01*
X143735303Y-45081251D01*
X143725022Y-45088121D01*
X143443178Y-45257051D01*
X143432273Y-45262880D01*
X143135229Y-45403372D01*
X143123805Y-45408104D01*
X142814417Y-45518805D01*
X142802584Y-45522394D01*
X142483843Y-45602234D01*
X142471716Y-45604646D01*
X142146684Y-45652860D01*
X142134379Y-45654072D01*
X141803094Y-45670348D01*
X141796911Y-45670500D01*
X83803089Y-45670500D01*
X83796906Y-45670348D01*
X83465620Y-45654072D01*
X83453315Y-45652860D01*
X83128283Y-45604646D01*
X83116156Y-45602234D01*
X82797415Y-45522394D01*
X82785582Y-45518805D01*
X82476194Y-45408104D01*
X82464770Y-45403372D01*
X82167726Y-45262880D01*
X82156821Y-45257051D01*
X81874977Y-45088121D01*
X81864696Y-45081251D01*
X81600772Y-44885512D01*
X81591214Y-44877668D01*
X81347737Y-44656994D01*
X81339005Y-44648262D01*
X81118326Y-44404779D01*
X81110492Y-44395233D01*
X80914748Y-44131303D01*
X80907878Y-44121022D01*
X80738948Y-43839178D01*
X80733119Y-43828273D01*
X80592627Y-43531229D01*
X80587895Y-43519805D01*
X80552466Y-43420788D01*
X80477191Y-43210407D01*
X80473608Y-43198594D01*
X80393763Y-42879834D01*
X80391353Y-42867716D01*
X80383441Y-42814380D01*
X80343138Y-42542678D01*
X80341927Y-42530379D01*
X80331884Y-42325958D01*
X80325652Y-42199093D01*
X80325500Y-42192910D01*
X80325500Y-42074038D01*
X82199500Y-42074038D01*
X82199500Y-42325962D01*
X82206348Y-42369197D01*
X82238911Y-42574790D01*
X82284118Y-42713922D01*
X82316759Y-42814379D01*
X82431130Y-43038845D01*
X82579207Y-43242656D01*
X82579209Y-43242658D01*
X82579211Y-43242661D01*
X82757338Y-43420788D01*
X82757341Y-43420790D01*
X82757344Y-43420793D01*
X82961155Y-43568870D01*
X83185621Y-43683241D01*
X83425215Y-43761090D01*
X83674038Y-43800500D01*
X83674041Y-43800500D01*
X83925959Y-43800500D01*
X83925962Y-43800500D01*
X84174785Y-43761090D01*
X84414379Y-43683241D01*
X84638845Y-43568870D01*
X84842656Y-43420793D01*
X85020793Y-43242656D01*
X85168870Y-43038845D01*
X85283241Y-42814379D01*
X85361090Y-42574785D01*
X85400500Y-42325962D01*
X85400500Y-42074038D01*
X140199500Y-42074038D01*
X140199500Y-42325962D01*
X140206348Y-42369197D01*
X140238911Y-42574790D01*
X140284118Y-42713922D01*
X140316759Y-42814379D01*
X140431130Y-43038845D01*
X140579207Y-43242656D01*
X140579209Y-43242658D01*
X140579211Y-43242661D01*
X140757338Y-43420788D01*
X140757341Y-43420790D01*
X140757344Y-43420793D01*
X140961155Y-43568870D01*
X141185621Y-43683241D01*
X141425215Y-43761090D01*
X141674038Y-43800500D01*
X141674041Y-43800500D01*
X141925959Y-43800500D01*
X141925962Y-43800500D01*
X142174785Y-43761090D01*
X142414379Y-43683241D01*
X142638845Y-43568870D01*
X142842656Y-43420793D01*
X143020793Y-43242656D01*
X143168870Y-43038845D01*
X143283241Y-42814379D01*
X143361090Y-42574785D01*
X143400500Y-42325962D01*
X143400500Y-42074038D01*
X143361090Y-41825215D01*
X143283241Y-41585621D01*
X143168870Y-41361155D01*
X143020793Y-41157344D01*
X143020790Y-41157341D01*
X143020788Y-41157338D01*
X142842661Y-40979211D01*
X142842658Y-40979209D01*
X142842656Y-40979207D01*
X142638845Y-40831130D01*
X142414379Y-40716759D01*
X142414376Y-40716758D01*
X142414374Y-40716757D01*
X142174790Y-40638911D01*
X142174786Y-40638910D01*
X142174785Y-40638910D01*
X141925962Y-40599500D01*
X141674038Y-40599500D01*
X141425215Y-40638910D01*
X141425209Y-40638911D01*
X141185625Y-40716757D01*
X141185619Y-40716760D01*
X140961151Y-40831132D01*
X140757341Y-40979209D01*
X140757338Y-40979211D01*
X140579211Y-41157338D01*
X140579209Y-41157341D01*
X140431132Y-41361151D01*
X140316760Y-41585619D01*
X140316757Y-41585625D01*
X140238911Y-41825209D01*
X140238910Y-41825214D01*
X140238910Y-41825215D01*
X140199500Y-42074038D01*
X85400500Y-42074038D01*
X85361090Y-41825215D01*
X85283241Y-41585621D01*
X85168870Y-41361155D01*
X85020793Y-41157344D01*
X85020790Y-41157341D01*
X85020788Y-41157338D01*
X84842661Y-40979211D01*
X84842658Y-40979209D01*
X84842656Y-40979207D01*
X84638845Y-40831130D01*
X84414379Y-40716759D01*
X84414376Y-40716758D01*
X84414374Y-40716757D01*
X84174790Y-40638911D01*
X84174786Y-40638910D01*
X84174785Y-40638910D01*
X83925962Y-40599500D01*
X83674038Y-40599500D01*
X83425215Y-40638910D01*
X83425209Y-40638911D01*
X83185625Y-40716757D01*
X83185619Y-40716760D01*
X82961151Y-40831132D01*
X82757341Y-40979209D01*
X82757338Y-40979211D01*
X82579211Y-41157338D01*
X82579209Y-41157341D01*
X82431132Y-41361151D01*
X82316760Y-41585619D01*
X82316757Y-41585625D01*
X82238911Y-41825209D01*
X82238910Y-41825214D01*
X82238910Y-41825215D01*
X82199500Y-42074038D01*
X80325500Y-42074038D01*
X80325500Y-36250000D01*
X86344534Y-36250000D01*
X86364382Y-36590776D01*
X86364383Y-36590785D01*
X86423660Y-36926963D01*
X86423660Y-36926964D01*
X86521565Y-37253990D01*
X86521567Y-37253996D01*
X86656766Y-37567422D01*
X86656775Y-37567440D01*
X86827447Y-37863053D01*
X86827465Y-37863080D01*
X87031297Y-38136873D01*
X87031301Y-38136879D01*
X87032568Y-38138221D01*
X87972628Y-37198160D01*
X88048147Y-37302102D01*
X88227898Y-37481853D01*
X88331838Y-37557370D01*
X87395225Y-38493983D01*
X87527065Y-38604608D01*
X87812259Y-38792183D01*
X88117325Y-38945393D01*
X88438096Y-39062144D01*
X88438095Y-39062144D01*
X88770260Y-39140869D01*
X88770266Y-39140870D01*
X89109315Y-39180500D01*
X89450685Y-39180500D01*
X89789733Y-39140870D01*
X89789739Y-39140869D01*
X90121903Y-39062144D01*
X90442674Y-38945393D01*
X90747740Y-38792183D01*
X91032934Y-38604608D01*
X91164773Y-38493983D01*
X91164773Y-38493982D01*
X90228161Y-37557370D01*
X90332102Y-37481853D01*
X90511853Y-37302102D01*
X90587370Y-37198161D01*
X91527430Y-38138221D01*
X91528691Y-38136887D01*
X91528709Y-38136865D01*
X91732534Y-37863080D01*
X91732552Y-37863053D01*
X91903224Y-37567440D01*
X91903233Y-37567422D01*
X92038432Y-37253996D01*
X92038434Y-37253990D01*
X92136339Y-36926964D01*
X92136339Y-36926963D01*
X92195616Y-36590785D01*
X92195617Y-36590776D01*
X92215465Y-36250000D01*
X92195617Y-35909223D01*
X92195616Y-35909214D01*
X92136339Y-35573036D01*
X92136339Y-35573035D01*
X92038434Y-35246009D01*
X92038432Y-35246003D01*
X91903233Y-34932577D01*
X91903224Y-34932559D01*
X91732552Y-34636946D01*
X91732534Y-34636919D01*
X91528702Y-34363125D01*
X91528691Y-34363112D01*
X91527431Y-34361778D01*
X91527430Y-34361777D01*
X90587369Y-35301837D01*
X90511853Y-35197898D01*
X90332102Y-35018147D01*
X90228160Y-34942629D01*
X91164773Y-34006016D01*
X91032930Y-33895388D01*
X90747740Y-33707816D01*
X90442674Y-33554606D01*
X90121903Y-33437855D01*
X90121904Y-33437855D01*
X89789739Y-33359130D01*
X89789733Y-33359129D01*
X89450685Y-33319500D01*
X89109315Y-33319500D01*
X88770266Y-33359129D01*
X88770260Y-33359130D01*
X88438096Y-33437855D01*
X88117325Y-33554606D01*
X87812259Y-33707816D01*
X87527069Y-33895389D01*
X87527059Y-33895396D01*
X87395225Y-34006016D01*
X88331838Y-34942629D01*
X88227898Y-35018147D01*
X88048147Y-35197898D01*
X87972629Y-35301838D01*
X87032569Y-34361778D01*
X87032568Y-34361778D01*
X87031301Y-34363121D01*
X87031297Y-34363125D01*
X86827464Y-34636919D01*
X86827447Y-34636946D01*
X86656775Y-34932559D01*
X86656766Y-34932577D01*
X86521567Y-35246003D01*
X86521565Y-35246009D01*
X86423660Y-35573035D01*
X86423660Y-35573036D01*
X86364383Y-35909214D01*
X86364382Y-35909223D01*
X86344534Y-36250000D01*
X80325500Y-36250000D01*
X80325500Y-16090000D01*
X80903344Y-16090000D01*
X80919336Y-16282993D01*
X80921937Y-16314375D01*
X80977202Y-16532612D01*
X80977203Y-16532613D01*
X81067641Y-16738793D01*
X81190775Y-16927265D01*
X81190779Y-16927270D01*
X81334341Y-17083217D01*
X81365762Y-17146882D01*
X81357776Y-17217428D01*
X81312917Y-17272457D01*
X81285673Y-17286610D01*
X81170539Y-17329553D01*
X81170534Y-17329555D01*
X81053595Y-17417095D01*
X80966055Y-17534034D01*
X80966055Y-17534035D01*
X80915005Y-17670906D01*
X80908500Y-17731402D01*
X80908500Y-18376000D01*
X81835797Y-18376000D01*
X81800575Y-18437007D01*
X81766500Y-18564174D01*
X81766500Y-18695826D01*
X81800575Y-18822993D01*
X81835797Y-18884000D01*
X80908500Y-18884000D01*
X80908500Y-19528597D01*
X80915005Y-19589093D01*
X80966055Y-19725964D01*
X80966055Y-19725965D01*
X81053595Y-19842904D01*
X81170534Y-19930444D01*
X81307406Y-19981494D01*
X81367902Y-19987999D01*
X81367915Y-19988000D01*
X82012500Y-19988000D01*
X82012500Y-19060702D01*
X82073507Y-19095925D01*
X82200674Y-19130000D01*
X82332326Y-19130000D01*
X82459493Y-19095925D01*
X82520500Y-19060702D01*
X82520500Y-19988000D01*
X82609000Y-19988000D01*
X82677121Y-20008002D01*
X82723614Y-20061658D01*
X82735000Y-20114000D01*
X82735000Y-26206626D01*
X82714998Y-26274747D01*
X82661342Y-26321240D01*
X82591068Y-26331344D01*
X82588271Y-26330909D01*
X82379069Y-26296000D01*
X82153931Y-26296000D01*
X82009471Y-26320106D01*
X81931869Y-26333055D01*
X81931860Y-26333057D01*
X81718928Y-26406156D01*
X81718926Y-26406158D01*
X81520926Y-26513310D01*
X81520924Y-26513311D01*
X81343262Y-26651591D01*
X81190779Y-26817229D01*
X81190775Y-26817234D01*
X81067641Y-27005706D01*
X80977203Y-27211886D01*
X80977202Y-27211887D01*
X80921937Y-27430124D01*
X80921936Y-27430130D01*
X80921936Y-27430132D01*
X80903344Y-27654500D01*
X80919336Y-27847493D01*
X80921937Y-27878875D01*
X80977202Y-28097112D01*
X80977203Y-28097113D01*
X81067641Y-28303293D01*
X81190775Y-28491765D01*
X81190779Y-28491770D01*
X81334341Y-28647717D01*
X81365762Y-28711382D01*
X81357776Y-28781928D01*
X81312917Y-28836957D01*
X81285673Y-28851110D01*
X81170539Y-28894053D01*
X81170534Y-28894055D01*
X81053595Y-28981595D01*
X80966055Y-29098534D01*
X80966055Y-29098535D01*
X80915005Y-29235406D01*
X80908500Y-29295902D01*
X80908500Y-29940500D01*
X81835797Y-29940500D01*
X81800575Y-30001507D01*
X81766500Y-30128674D01*
X81766500Y-30260326D01*
X81800575Y-30387493D01*
X81835797Y-30448500D01*
X80908500Y-30448500D01*
X80908500Y-31093097D01*
X80915005Y-31153593D01*
X80966055Y-31290464D01*
X80966055Y-31290465D01*
X81053595Y-31407404D01*
X81170534Y-31494944D01*
X81307406Y-31545994D01*
X81367902Y-31552499D01*
X81367915Y-31552500D01*
X82012500Y-31552500D01*
X82012500Y-30625202D01*
X82073507Y-30660425D01*
X82200674Y-30694500D01*
X82332326Y-30694500D01*
X82459493Y-30660425D01*
X82520500Y-30625202D01*
X82520500Y-31552500D01*
X82913137Y-31552500D01*
X82981258Y-31572502D01*
X83027751Y-31626158D01*
X83033783Y-31643979D01*
X83092290Y-31811182D01*
X83183231Y-31955912D01*
X83304087Y-32076768D01*
X83304089Y-32076769D01*
X83304091Y-32076771D01*
X83448817Y-32167709D01*
X83610150Y-32224162D01*
X83610155Y-32224162D01*
X83610157Y-32224163D01*
X83626588Y-32226014D01*
X83692041Y-32253516D01*
X83701568Y-32262117D01*
X84236372Y-32796921D01*
X84375127Y-32877032D01*
X84452508Y-32897766D01*
X84529889Y-32918500D01*
X84529890Y-32918500D01*
X84690110Y-32918500D01*
X93333948Y-32918500D01*
X93402069Y-32938502D01*
X93423043Y-32955404D01*
X93813549Y-33345909D01*
X94174561Y-33706921D01*
X94174562Y-33706922D01*
X94174564Y-33706923D01*
X94246606Y-33748516D01*
X94283627Y-33769890D01*
X94313316Y-33787031D01*
X94468077Y-33828499D01*
X94468078Y-33828499D01*
X94628299Y-33828499D01*
X95075403Y-33828499D01*
X95143524Y-33848501D01*
X95190017Y-33902157D01*
X95200121Y-33972431D01*
X95178616Y-34026770D01*
X95066384Y-34187053D01*
X94971657Y-34390195D01*
X94971655Y-34390200D01*
X94938542Y-34513783D01*
X94913643Y-34606707D01*
X94894107Y-34830000D01*
X94913643Y-35053293D01*
X94916448Y-35063760D01*
X94971655Y-35269799D01*
X94971657Y-35269804D01*
X95066383Y-35472945D01*
X95066384Y-35472947D01*
X95194945Y-35656551D01*
X95194952Y-35656560D01*
X95353439Y-35815047D01*
X95353443Y-35815050D01*
X95353444Y-35815051D01*
X95537053Y-35943616D01*
X95740199Y-36038344D01*
X95956707Y-36096357D01*
X96180000Y-36115893D01*
X96403293Y-36096357D01*
X96619801Y-36038344D01*
X96822947Y-35943616D01*
X97006556Y-35815051D01*
X97165051Y-35656556D01*
X97293616Y-35472947D01*
X97388344Y-35269801D01*
X97443294Y-35064720D01*
X97480244Y-35004102D01*
X97544105Y-34973080D01*
X97614599Y-34981508D01*
X97669346Y-35026711D01*
X97686704Y-35064718D01*
X97708542Y-35146217D01*
X97741655Y-35269799D01*
X97741657Y-35269804D01*
X97836383Y-35472945D01*
X97836384Y-35472947D01*
X97964945Y-35656551D01*
X97964952Y-35656560D01*
X98123439Y-35815047D01*
X98123443Y-35815050D01*
X98123444Y-35815051D01*
X98153260Y-35835928D01*
X98174614Y-35850881D01*
X98218942Y-35906338D01*
X98226251Y-35976958D01*
X98194220Y-36040318D01*
X98191438Y-36043190D01*
X97869095Y-36365532D01*
X97806783Y-36399557D01*
X97769020Y-36401956D01*
X97565000Y-36384107D01*
X97341707Y-36403643D01*
X97294362Y-36416329D01*
X97125200Y-36461655D01*
X97125195Y-36461657D01*
X96922053Y-36556384D01*
X96738447Y-36684946D01*
X96738441Y-36684951D01*
X96579951Y-36843441D01*
X96579946Y-36843447D01*
X96451384Y-37027053D01*
X96356657Y-37230195D01*
X96356655Y-37230200D01*
X96323542Y-37353783D01*
X96298643Y-37446707D01*
X96279107Y-37670000D01*
X96298643Y-37893293D01*
X96301448Y-37903760D01*
X96356655Y-38109799D01*
X96356657Y-38109804D01*
X96451383Y-38312945D01*
X96451384Y-38312947D01*
X96579945Y-38496551D01*
X96579952Y-38496560D01*
X96738439Y-38655047D01*
X96738443Y-38655050D01*
X96738444Y-38655051D01*
X96922053Y-38783616D01*
X97125199Y-38878344D01*
X97341707Y-38936357D01*
X97565000Y-38955893D01*
X97788293Y-38936357D01*
X98004801Y-38878344D01*
X98207947Y-38783616D01*
X98391556Y-38655051D01*
X98550051Y-38496556D01*
X98678616Y-38312947D01*
X98773344Y-38109801D01*
X98828552Y-37903757D01*
X98865502Y-37843138D01*
X98929363Y-37812116D01*
X98999857Y-37820544D01*
X99054604Y-37865746D01*
X99071965Y-37903760D01*
X99127127Y-38109627D01*
X99127129Y-38109633D01*
X99221818Y-38312695D01*
X99267645Y-38378142D01*
X99267647Y-38378142D01*
X99838593Y-37807195D01*
X99855096Y-37868783D01*
X99922897Y-37986217D01*
X100018783Y-38082103D01*
X100136217Y-38149904D01*
X100197803Y-38166405D01*
X99626856Y-38737352D01*
X99626856Y-38737353D01*
X99692305Y-38783181D01*
X99692304Y-38783181D01*
X99895366Y-38877870D01*
X99895372Y-38877872D01*
X100111794Y-38935862D01*
X100335000Y-38955390D01*
X100558205Y-38935862D01*
X100774627Y-38877872D01*
X100774633Y-38877870D01*
X100977695Y-38783181D01*
X100977696Y-38783180D01*
X101043142Y-38737353D01*
X101043142Y-38737351D01*
X100472196Y-38166405D01*
X100533783Y-38149904D01*
X100651217Y-38082103D01*
X100747103Y-37986217D01*
X100814904Y-37868783D01*
X100831405Y-37807196D01*
X101402351Y-38378142D01*
X101402353Y-38378142D01*
X101448180Y-38312696D01*
X101448181Y-38312695D01*
X101542870Y-38109633D01*
X101542872Y-38109628D01*
X101598034Y-37903760D01*
X101634986Y-37843137D01*
X101698846Y-37812116D01*
X101769341Y-37820544D01*
X101824088Y-37865747D01*
X101841448Y-37903760D01*
X101896655Y-38109799D01*
X101896657Y-38109804D01*
X101991383Y-38312945D01*
X101991384Y-38312947D01*
X102119945Y-38496551D01*
X102119952Y-38496560D01*
X102278439Y-38655047D01*
X102278443Y-38655050D01*
X102278444Y-38655051D01*
X102462053Y-38783616D01*
X102665199Y-38878344D01*
X102881707Y-38936357D01*
X103105000Y-38955893D01*
X103328293Y-38936357D01*
X103544801Y-38878344D01*
X103747947Y-38783616D01*
X103931556Y-38655051D01*
X104090051Y-38496556D01*
X104218616Y-38312947D01*
X104313344Y-38109801D01*
X104368294Y-37904720D01*
X104405244Y-37844102D01*
X104469105Y-37813080D01*
X104539599Y-37821508D01*
X104594346Y-37866711D01*
X104611704Y-37904718D01*
X104633542Y-37986217D01*
X104666655Y-38109799D01*
X104666657Y-38109804D01*
X104761383Y-38312945D01*
X104761384Y-38312947D01*
X104889945Y-38496551D01*
X104889952Y-38496560D01*
X105048439Y-38655047D01*
X105048443Y-38655050D01*
X105048444Y-38655051D01*
X105232053Y-38783616D01*
X105435199Y-38878344D01*
X105651707Y-38936357D01*
X105875000Y-38955893D01*
X106098293Y-38936357D01*
X106314801Y-38878344D01*
X106517947Y-38783616D01*
X106701556Y-38655051D01*
X106860051Y-38496556D01*
X106988616Y-38312947D01*
X107083344Y-38109801D01*
X107138294Y-37904720D01*
X107175244Y-37844102D01*
X107239105Y-37813080D01*
X107309599Y-37821508D01*
X107364346Y-37866711D01*
X107381704Y-37904718D01*
X107403542Y-37986217D01*
X107436655Y-38109799D01*
X107436657Y-38109804D01*
X107531383Y-38312945D01*
X107531384Y-38312947D01*
X107659945Y-38496551D01*
X107659952Y-38496560D01*
X107818439Y-38655047D01*
X107818443Y-38655050D01*
X107818444Y-38655051D01*
X108002053Y-38783616D01*
X108205199Y-38878344D01*
X108421707Y-38936357D01*
X108645000Y-38955893D01*
X108868293Y-38936357D01*
X109084801Y-38878344D01*
X109287947Y-38783616D01*
X109471556Y-38655051D01*
X109630051Y-38496556D01*
X109758616Y-38312947D01*
X109853344Y-38109801D01*
X109908294Y-37904720D01*
X109945244Y-37844102D01*
X110009105Y-37813080D01*
X110079599Y-37821508D01*
X110134346Y-37866711D01*
X110151704Y-37904718D01*
X110173542Y-37986217D01*
X110206655Y-38109799D01*
X110206657Y-38109804D01*
X110301383Y-38312945D01*
X110301384Y-38312947D01*
X110429945Y-38496551D01*
X110429952Y-38496560D01*
X110588439Y-38655047D01*
X110588443Y-38655050D01*
X110588444Y-38655051D01*
X110772053Y-38783616D01*
X110975199Y-38878344D01*
X111191707Y-38936357D01*
X111415000Y-38955893D01*
X111638293Y-38936357D01*
X111854801Y-38878344D01*
X112057947Y-38783616D01*
X112241556Y-38655051D01*
X112400051Y-38496556D01*
X112528616Y-38312947D01*
X112623344Y-38109801D01*
X112678294Y-37904720D01*
X112715244Y-37844102D01*
X112779105Y-37813080D01*
X112849599Y-37821508D01*
X112904346Y-37866711D01*
X112921704Y-37904718D01*
X112943542Y-37986217D01*
X112976655Y-38109799D01*
X112976657Y-38109804D01*
X113071383Y-38312945D01*
X113071384Y-38312947D01*
X113199945Y-38496551D01*
X113199952Y-38496560D01*
X113358439Y-38655047D01*
X113358443Y-38655050D01*
X113358444Y-38655051D01*
X113542053Y-38783616D01*
X113745199Y-38878344D01*
X113961707Y-38936357D01*
X114185000Y-38955893D01*
X114408293Y-38936357D01*
X114624801Y-38878344D01*
X114827947Y-38783616D01*
X115011556Y-38655051D01*
X115170051Y-38496556D01*
X115298616Y-38312947D01*
X115393344Y-38109801D01*
X115448552Y-37903757D01*
X115485502Y-37843138D01*
X115549363Y-37812116D01*
X115619857Y-37820544D01*
X115674604Y-37865746D01*
X115691965Y-37903760D01*
X115747127Y-38109627D01*
X115747129Y-38109633D01*
X115841818Y-38312695D01*
X115887646Y-38378142D01*
X116458593Y-37807195D01*
X116475096Y-37868783D01*
X116542897Y-37986217D01*
X116638783Y-38082103D01*
X116756217Y-38149904D01*
X116817803Y-38166405D01*
X116246856Y-38737352D01*
X116246856Y-38737353D01*
X116312305Y-38783181D01*
X116312304Y-38783181D01*
X116515366Y-38877870D01*
X116515372Y-38877872D01*
X116731794Y-38935862D01*
X116955000Y-38955390D01*
X117178205Y-38935862D01*
X117394627Y-38877872D01*
X117394633Y-38877870D01*
X117597695Y-38783181D01*
X117597696Y-38783180D01*
X117663142Y-38737353D01*
X117663142Y-38737351D01*
X117092196Y-38166405D01*
X117153783Y-38149904D01*
X117271217Y-38082103D01*
X117367103Y-37986217D01*
X117434904Y-37868783D01*
X117451405Y-37807196D01*
X118022351Y-38378142D01*
X118022353Y-38378142D01*
X118068180Y-38312696D01*
X118068181Y-38312695D01*
X118162870Y-38109633D01*
X118162872Y-38109628D01*
X118218034Y-37903760D01*
X118254986Y-37843137D01*
X118318846Y-37812116D01*
X118389341Y-37820544D01*
X118444088Y-37865747D01*
X118461448Y-37903760D01*
X118516655Y-38109799D01*
X118516657Y-38109804D01*
X118611383Y-38312945D01*
X118611384Y-38312947D01*
X118739945Y-38496551D01*
X118739952Y-38496560D01*
X118898439Y-38655047D01*
X118898443Y-38655050D01*
X118898444Y-38655051D01*
X119082053Y-38783616D01*
X119285199Y-38878344D01*
X119501707Y-38936357D01*
X119725000Y-38955893D01*
X119948293Y-38936357D01*
X120164801Y-38878344D01*
X120367947Y-38783616D01*
X120551556Y-38655051D01*
X120710051Y-38496556D01*
X120838616Y-38312947D01*
X120933344Y-38109801D01*
X120988552Y-37903757D01*
X121025502Y-37843138D01*
X121089363Y-37812116D01*
X121159857Y-37820544D01*
X121214604Y-37865746D01*
X121231965Y-37903760D01*
X121287127Y-38109627D01*
X121287129Y-38109633D01*
X121381818Y-38312695D01*
X121427646Y-38378142D01*
X121998593Y-37807195D01*
X122015096Y-37868783D01*
X122082897Y-37986217D01*
X122178783Y-38082103D01*
X122296217Y-38149904D01*
X122357803Y-38166405D01*
X121786856Y-38737352D01*
X121786856Y-38737353D01*
X121852305Y-38783181D01*
X121852304Y-38783181D01*
X122055366Y-38877870D01*
X122055372Y-38877872D01*
X122271794Y-38935862D01*
X122495000Y-38955390D01*
X122718205Y-38935862D01*
X122934627Y-38877872D01*
X122934633Y-38877870D01*
X123137695Y-38783181D01*
X123137696Y-38783180D01*
X123203142Y-38737353D01*
X123203142Y-38737351D01*
X122632196Y-38166405D01*
X122693783Y-38149904D01*
X122811217Y-38082103D01*
X122907103Y-37986217D01*
X122974904Y-37868783D01*
X122991405Y-37807196D01*
X123562351Y-38378142D01*
X123562353Y-38378142D01*
X123608180Y-38312696D01*
X123608181Y-38312695D01*
X123702870Y-38109633D01*
X123702872Y-38109628D01*
X123758034Y-37903760D01*
X123794986Y-37843137D01*
X123858846Y-37812116D01*
X123929341Y-37820544D01*
X123984088Y-37865747D01*
X124001448Y-37903760D01*
X124056655Y-38109799D01*
X124056657Y-38109804D01*
X124151383Y-38312945D01*
X124151384Y-38312947D01*
X124279945Y-38496551D01*
X124279952Y-38496560D01*
X124438439Y-38655047D01*
X124438443Y-38655050D01*
X124438444Y-38655051D01*
X124622053Y-38783616D01*
X124825199Y-38878344D01*
X125041707Y-38936357D01*
X125265000Y-38955893D01*
X125488293Y-38936357D01*
X125704801Y-38878344D01*
X125907947Y-38783616D01*
X126091556Y-38655051D01*
X126250051Y-38496556D01*
X126378616Y-38312947D01*
X126473344Y-38109801D01*
X126528552Y-37903757D01*
X126565502Y-37843138D01*
X126629363Y-37812116D01*
X126699857Y-37820544D01*
X126754604Y-37865746D01*
X126771965Y-37903760D01*
X126827127Y-38109627D01*
X126827129Y-38109633D01*
X126921818Y-38312695D01*
X126967646Y-38378142D01*
X127538593Y-37807195D01*
X127555096Y-37868783D01*
X127622897Y-37986217D01*
X127718783Y-38082103D01*
X127836217Y-38149904D01*
X127897803Y-38166405D01*
X127326856Y-38737352D01*
X127326856Y-38737353D01*
X127392305Y-38783181D01*
X127392304Y-38783181D01*
X127595366Y-38877870D01*
X127595372Y-38877872D01*
X127811794Y-38935862D01*
X128035000Y-38955390D01*
X128258205Y-38935862D01*
X128474627Y-38877872D01*
X128474633Y-38877870D01*
X128677695Y-38783181D01*
X128677696Y-38783180D01*
X128743142Y-38737353D01*
X128743142Y-38737351D01*
X128172196Y-38166405D01*
X128233783Y-38149904D01*
X128351217Y-38082103D01*
X128447103Y-37986217D01*
X128514904Y-37868783D01*
X128531405Y-37807196D01*
X129102351Y-38378142D01*
X129102353Y-38378142D01*
X129148180Y-38312696D01*
X129148181Y-38312695D01*
X129242870Y-38109633D01*
X129242872Y-38109627D01*
X129300862Y-37893205D01*
X129320390Y-37670000D01*
X129300862Y-37446794D01*
X129242872Y-37230372D01*
X129242870Y-37230367D01*
X129148183Y-37027309D01*
X129102352Y-36961856D01*
X128531405Y-37532803D01*
X128514904Y-37471217D01*
X128447103Y-37353783D01*
X128351217Y-37257897D01*
X128233783Y-37190096D01*
X128172195Y-37173593D01*
X128743142Y-36602646D01*
X128743142Y-36602645D01*
X128677694Y-36556818D01*
X128677695Y-36556818D01*
X128474633Y-36462129D01*
X128474627Y-36462127D01*
X128258205Y-36404137D01*
X128035000Y-36384609D01*
X127811794Y-36404137D01*
X127595372Y-36462127D01*
X127595367Y-36462129D01*
X127392305Y-36556818D01*
X127326855Y-36602646D01*
X127897803Y-37173594D01*
X127836217Y-37190096D01*
X127718783Y-37257897D01*
X127622897Y-37353783D01*
X127555096Y-37471217D01*
X127538594Y-37532803D01*
X126967646Y-36961855D01*
X126921818Y-37027305D01*
X126827129Y-37230367D01*
X126827128Y-37230369D01*
X126771965Y-37436240D01*
X126735013Y-37496862D01*
X126671152Y-37527884D01*
X126600658Y-37519455D01*
X126545911Y-37474252D01*
X126528553Y-37436244D01*
X126473344Y-37230199D01*
X126378616Y-37027054D01*
X126250051Y-36843444D01*
X126091556Y-36684949D01*
X126091555Y-36684948D01*
X126091554Y-36684947D01*
X126091551Y-36684945D01*
X125907947Y-36556384D01*
X125907945Y-36556383D01*
X125704804Y-36461657D01*
X125704799Y-36461655D01*
X125604317Y-36434731D01*
X125488293Y-36403643D01*
X125265000Y-36384107D01*
X125041707Y-36403643D01*
X124994362Y-36416329D01*
X124825200Y-36461655D01*
X124825195Y-36461657D01*
X124622053Y-36556384D01*
X124438447Y-36684946D01*
X124438441Y-36684951D01*
X124279951Y-36843441D01*
X124279946Y-36843447D01*
X124151384Y-37027053D01*
X124056657Y-37230195D01*
X124056655Y-37230201D01*
X124001448Y-37436239D01*
X123964496Y-37496862D01*
X123900636Y-37527883D01*
X123830141Y-37519455D01*
X123775394Y-37474252D01*
X123758034Y-37436239D01*
X123702872Y-37230372D01*
X123702870Y-37230367D01*
X123608183Y-37027309D01*
X123562352Y-36961856D01*
X122991405Y-37532803D01*
X122974904Y-37471217D01*
X122907103Y-37353783D01*
X122811217Y-37257897D01*
X122693783Y-37190096D01*
X122632195Y-37173593D01*
X123203142Y-36602646D01*
X123203142Y-36602645D01*
X123137694Y-36556818D01*
X123137695Y-36556818D01*
X122934633Y-36462129D01*
X122934627Y-36462127D01*
X122718205Y-36404137D01*
X122495000Y-36384609D01*
X122271794Y-36404137D01*
X122055372Y-36462127D01*
X122055367Y-36462129D01*
X121852305Y-36556818D01*
X121786855Y-36602646D01*
X122357803Y-37173594D01*
X122296217Y-37190096D01*
X122178783Y-37257897D01*
X122082897Y-37353783D01*
X122015096Y-37471217D01*
X121998594Y-37532803D01*
X121427646Y-36961855D01*
X121381818Y-37027305D01*
X121287129Y-37230367D01*
X121287128Y-37230369D01*
X121231965Y-37436240D01*
X121195013Y-37496862D01*
X121131152Y-37527884D01*
X121060658Y-37519455D01*
X121005911Y-37474252D01*
X120988553Y-37436244D01*
X120933344Y-37230199D01*
X120838616Y-37027054D01*
X120710051Y-36843444D01*
X120551556Y-36684949D01*
X120551555Y-36684948D01*
X120551554Y-36684947D01*
X120551551Y-36684945D01*
X120367947Y-36556384D01*
X120367945Y-36556383D01*
X120164804Y-36461657D01*
X120164799Y-36461655D01*
X120064317Y-36434731D01*
X119948293Y-36403643D01*
X119725000Y-36384107D01*
X119501707Y-36403643D01*
X119454362Y-36416329D01*
X119285200Y-36461655D01*
X119285195Y-36461657D01*
X119082053Y-36556384D01*
X118898447Y-36684946D01*
X118898441Y-36684951D01*
X118739951Y-36843441D01*
X118739946Y-36843447D01*
X118611384Y-37027053D01*
X118516657Y-37230195D01*
X118516655Y-37230201D01*
X118461448Y-37436239D01*
X118424496Y-37496862D01*
X118360636Y-37527883D01*
X118290141Y-37519455D01*
X118235394Y-37474252D01*
X118218034Y-37436239D01*
X118162872Y-37230372D01*
X118162870Y-37230367D01*
X118068183Y-37027309D01*
X118022352Y-36961856D01*
X117451405Y-37532803D01*
X117434904Y-37471217D01*
X117367103Y-37353783D01*
X117271217Y-37257897D01*
X117153783Y-37190096D01*
X117092195Y-37173593D01*
X117663142Y-36602646D01*
X117663142Y-36602645D01*
X117597694Y-36556818D01*
X117597695Y-36556818D01*
X117394633Y-36462129D01*
X117394627Y-36462127D01*
X117178205Y-36404137D01*
X116955000Y-36384609D01*
X116731794Y-36404137D01*
X116515372Y-36462127D01*
X116515367Y-36462129D01*
X116312305Y-36556818D01*
X116246855Y-36602646D01*
X116817803Y-37173594D01*
X116756217Y-37190096D01*
X116638783Y-37257897D01*
X116542897Y-37353783D01*
X116475096Y-37471217D01*
X116458594Y-37532803D01*
X115887646Y-36961855D01*
X115841818Y-37027305D01*
X115747129Y-37230367D01*
X115747128Y-37230369D01*
X115691965Y-37436240D01*
X115655013Y-37496862D01*
X115591152Y-37527884D01*
X115520658Y-37519455D01*
X115465911Y-37474252D01*
X115448553Y-37436244D01*
X115393344Y-37230199D01*
X115298616Y-37027054D01*
X115170051Y-36843444D01*
X115011556Y-36684949D01*
X115011555Y-36684948D01*
X115011554Y-36684947D01*
X115011551Y-36684945D01*
X114827947Y-36556384D01*
X114827945Y-36556383D01*
X114624804Y-36461657D01*
X114624799Y-36461655D01*
X114524317Y-36434731D01*
X114408293Y-36403643D01*
X114185000Y-36384107D01*
X113961707Y-36403643D01*
X113914362Y-36416329D01*
X113745200Y-36461655D01*
X113745195Y-36461657D01*
X113542053Y-36556384D01*
X113358447Y-36684946D01*
X113358441Y-36684951D01*
X113199951Y-36843441D01*
X113199946Y-36843447D01*
X113071384Y-37027053D01*
X112976657Y-37230195D01*
X112976655Y-37230200D01*
X112969234Y-37257897D01*
X112921705Y-37435277D01*
X112884756Y-37495898D01*
X112820895Y-37526919D01*
X112750400Y-37518491D01*
X112695653Y-37473288D01*
X112678294Y-37435279D01*
X112623344Y-37230199D01*
X112528616Y-37027054D01*
X112400051Y-36843444D01*
X112241556Y-36684949D01*
X112241555Y-36684948D01*
X112241554Y-36684947D01*
X112241551Y-36684945D01*
X112057947Y-36556384D01*
X112057945Y-36556383D01*
X111871611Y-36469494D01*
X111818326Y-36422577D01*
X111798865Y-36354299D01*
X111819407Y-36286339D01*
X111835760Y-36266210D01*
X112095934Y-36006036D01*
X112158244Y-35972013D01*
X112229060Y-35977078D01*
X112238277Y-35980939D01*
X112360367Y-36037870D01*
X112360372Y-36037872D01*
X112576794Y-36095862D01*
X112800000Y-36115390D01*
X113023205Y-36095862D01*
X113239627Y-36037872D01*
X113239633Y-36037870D01*
X113442695Y-35943181D01*
X113442696Y-35943180D01*
X113508142Y-35897353D01*
X113508142Y-35897351D01*
X112937196Y-35326405D01*
X112998783Y-35309904D01*
X113116217Y-35242103D01*
X113212103Y-35146217D01*
X113279904Y-35028783D01*
X113296405Y-34967196D01*
X113867351Y-35538142D01*
X113867353Y-35538142D01*
X113913180Y-35472696D01*
X113913181Y-35472695D01*
X114007870Y-35269633D01*
X114007872Y-35269628D01*
X114063034Y-35063760D01*
X114099986Y-35003137D01*
X114163846Y-34972116D01*
X114234341Y-34980544D01*
X114289088Y-35025747D01*
X114306448Y-35063760D01*
X114361655Y-35269799D01*
X114361657Y-35269804D01*
X114456383Y-35472945D01*
X114456384Y-35472947D01*
X114584945Y-35656551D01*
X114584952Y-35656560D01*
X114743439Y-35815047D01*
X114743443Y-35815050D01*
X114743444Y-35815051D01*
X114927053Y-35943616D01*
X115130199Y-36038344D01*
X115346707Y-36096357D01*
X115570000Y-36115893D01*
X115793293Y-36096357D01*
X116009801Y-36038344D01*
X116212947Y-35943616D01*
X116396556Y-35815051D01*
X116555051Y-35656556D01*
X116683616Y-35472947D01*
X116778344Y-35269801D01*
X116833294Y-35064720D01*
X116870244Y-35004102D01*
X116934105Y-34973080D01*
X117004599Y-34981508D01*
X117059346Y-35026711D01*
X117076704Y-35064718D01*
X117098542Y-35146217D01*
X117131655Y-35269799D01*
X117131657Y-35269804D01*
X117226383Y-35472945D01*
X117226384Y-35472947D01*
X117354945Y-35656551D01*
X117354952Y-35656560D01*
X117513439Y-35815047D01*
X117513443Y-35815050D01*
X117513444Y-35815051D01*
X117697053Y-35943616D01*
X117900199Y-36038344D01*
X118116707Y-36096357D01*
X118340000Y-36115893D01*
X118563293Y-36096357D01*
X118779801Y-36038344D01*
X118982947Y-35943616D01*
X119166556Y-35815051D01*
X119325051Y-35656556D01*
X119453616Y-35472947D01*
X119548344Y-35269801D01*
X119603294Y-35064720D01*
X119640244Y-35004102D01*
X119704105Y-34973080D01*
X119774599Y-34981508D01*
X119829346Y-35026711D01*
X119846704Y-35064718D01*
X119868542Y-35146217D01*
X119901655Y-35269799D01*
X119901657Y-35269804D01*
X119996383Y-35472945D01*
X119996384Y-35472947D01*
X120124945Y-35656551D01*
X120124952Y-35656560D01*
X120283439Y-35815047D01*
X120283443Y-35815050D01*
X120283444Y-35815051D01*
X120467053Y-35943616D01*
X120670199Y-36038344D01*
X120886707Y-36096357D01*
X121110000Y-36115893D01*
X121333293Y-36096357D01*
X121549801Y-36038344D01*
X121752947Y-35943616D01*
X121936556Y-35815051D01*
X122095051Y-35656556D01*
X122223616Y-35472947D01*
X122318344Y-35269801D01*
X122373294Y-35064720D01*
X122410244Y-35004102D01*
X122474105Y-34973080D01*
X122544599Y-34981508D01*
X122599346Y-35026711D01*
X122616704Y-35064718D01*
X122638542Y-35146217D01*
X122671655Y-35269799D01*
X122671657Y-35269804D01*
X122766383Y-35472945D01*
X122766384Y-35472947D01*
X122894945Y-35656551D01*
X122894952Y-35656560D01*
X123053439Y-35815047D01*
X123053443Y-35815050D01*
X123053444Y-35815051D01*
X123237053Y-35943616D01*
X123440199Y-36038344D01*
X123656707Y-36096357D01*
X123880000Y-36115893D01*
X124103293Y-36096357D01*
X124319801Y-36038344D01*
X124522947Y-35943616D01*
X124706556Y-35815051D01*
X124865051Y-35656556D01*
X124993616Y-35472947D01*
X125088344Y-35269801D01*
X125143294Y-35064720D01*
X125180244Y-35004102D01*
X125244105Y-34973080D01*
X125314599Y-34981508D01*
X125369346Y-35026711D01*
X125386704Y-35064718D01*
X125408542Y-35146217D01*
X125441655Y-35269799D01*
X125441657Y-35269804D01*
X125536383Y-35472945D01*
X125536384Y-35472947D01*
X125664945Y-35656551D01*
X125664952Y-35656560D01*
X125823439Y-35815047D01*
X125823443Y-35815050D01*
X125823444Y-35815051D01*
X126007053Y-35943616D01*
X126210199Y-36038344D01*
X126426707Y-36096357D01*
X126650000Y-36115893D01*
X126873293Y-36096357D01*
X127089801Y-36038344D01*
X127292947Y-35943616D01*
X127476556Y-35815051D01*
X127635051Y-35656556D01*
X127763616Y-35472947D01*
X127858344Y-35269801D01*
X127913294Y-35064720D01*
X127950244Y-35004102D01*
X128014105Y-34973080D01*
X128084599Y-34981508D01*
X128139346Y-35026711D01*
X128156704Y-35064718D01*
X128178542Y-35146217D01*
X128211655Y-35269799D01*
X128211657Y-35269804D01*
X128306383Y-35472945D01*
X128306384Y-35472947D01*
X128434945Y-35656551D01*
X128434952Y-35656560D01*
X128593439Y-35815047D01*
X128593443Y-35815050D01*
X128593444Y-35815051D01*
X128777053Y-35943616D01*
X128980199Y-36038344D01*
X129196707Y-36096357D01*
X129420000Y-36115893D01*
X129643293Y-36096357D01*
X129859801Y-36038344D01*
X130062947Y-35943616D01*
X130246556Y-35815051D01*
X130405051Y-35656556D01*
X130533616Y-35472947D01*
X130628344Y-35269801D01*
X130686357Y-35053293D01*
X130705893Y-34830000D01*
X130686357Y-34606707D01*
X130628344Y-34390199D01*
X130533616Y-34187054D01*
X130422099Y-34027792D01*
X130399412Y-33960519D01*
X130416697Y-33891658D01*
X130468467Y-33843074D01*
X130525313Y-33829522D01*
X134311310Y-33829522D01*
X134379431Y-33849524D01*
X134425924Y-33903180D01*
X134437190Y-33961018D01*
X134435225Y-34006016D01*
X135371838Y-34942629D01*
X135267898Y-35018147D01*
X135088147Y-35197898D01*
X135012629Y-35301838D01*
X134072569Y-34361778D01*
X134072568Y-34361778D01*
X134071301Y-34363121D01*
X134071297Y-34363125D01*
X133867464Y-34636919D01*
X133867447Y-34636946D01*
X133696775Y-34932559D01*
X133696766Y-34932577D01*
X133561567Y-35246003D01*
X133561565Y-35246009D01*
X133463660Y-35573035D01*
X133463660Y-35573036D01*
X133404383Y-35909214D01*
X133404382Y-35909223D01*
X133384534Y-36250000D01*
X133404382Y-36590776D01*
X133404383Y-36590785D01*
X133463660Y-36926963D01*
X133463660Y-36926964D01*
X133561565Y-37253990D01*
X133561567Y-37253996D01*
X133696766Y-37567422D01*
X133696775Y-37567440D01*
X133867447Y-37863053D01*
X133867465Y-37863080D01*
X134071297Y-38136873D01*
X134071301Y-38136879D01*
X134072568Y-38138221D01*
X135012628Y-37198160D01*
X135088147Y-37302102D01*
X135267898Y-37481853D01*
X135371838Y-37557370D01*
X134435225Y-38493983D01*
X134567065Y-38604608D01*
X134852259Y-38792183D01*
X135157325Y-38945393D01*
X135478096Y-39062144D01*
X135478095Y-39062144D01*
X135810260Y-39140869D01*
X135810266Y-39140870D01*
X136149315Y-39180500D01*
X136490685Y-39180500D01*
X136829733Y-39140870D01*
X136829739Y-39140869D01*
X137161903Y-39062144D01*
X137482674Y-38945393D01*
X137787740Y-38792183D01*
X138072934Y-38604608D01*
X138204773Y-38493983D01*
X138204773Y-38493982D01*
X137268161Y-37557370D01*
X137372102Y-37481853D01*
X137551853Y-37302102D01*
X137627370Y-37198161D01*
X138567430Y-38138221D01*
X138568691Y-38136887D01*
X138568709Y-38136865D01*
X138772534Y-37863080D01*
X138772552Y-37863053D01*
X138943224Y-37567440D01*
X138943233Y-37567422D01*
X139078432Y-37253996D01*
X139078434Y-37253990D01*
X139176339Y-36926964D01*
X139176339Y-36926963D01*
X139235616Y-36590785D01*
X139235617Y-36590776D01*
X139255465Y-36250000D01*
X139235617Y-35909223D01*
X139235616Y-35909214D01*
X139176339Y-35573036D01*
X139176339Y-35573035D01*
X139078434Y-35246009D01*
X139078432Y-35246003D01*
X138943233Y-34932577D01*
X138943224Y-34932559D01*
X138772552Y-34636946D01*
X138772534Y-34636919D01*
X138568702Y-34363125D01*
X138568691Y-34363112D01*
X138567431Y-34361778D01*
X138567430Y-34361777D01*
X137627369Y-35301837D01*
X137551853Y-35197898D01*
X137372102Y-35018147D01*
X137268160Y-34942629D01*
X138204773Y-34006016D01*
X138072930Y-33895388D01*
X137787740Y-33707816D01*
X137482674Y-33554606D01*
X137161903Y-33437855D01*
X137161904Y-33437855D01*
X136829739Y-33359130D01*
X136829733Y-33359129D01*
X136524259Y-33323424D01*
X136458921Y-33295649D01*
X136418972Y-33236958D01*
X136417095Y-33165986D01*
X136432197Y-33131245D01*
X136516656Y-32996831D01*
X136573109Y-32835498D01*
X136592246Y-32665648D01*
X136592246Y-32665646D01*
X136592246Y-32660023D01*
X136612248Y-32591902D01*
X136665904Y-32545409D01*
X136718246Y-32534023D01*
X141374586Y-32534023D01*
X141374587Y-32534023D01*
X141374588Y-32534023D01*
X141457488Y-32511810D01*
X141529350Y-32492555D01*
X141668104Y-32412445D01*
X142078422Y-32002125D01*
X142140732Y-31968102D01*
X142153412Y-31966014D01*
X142169841Y-31964163D01*
X142169840Y-31964163D01*
X142169850Y-31964162D01*
X142331183Y-31907709D01*
X142475909Y-31816771D01*
X142596771Y-31695909D01*
X142687709Y-31551183D01*
X142687709Y-31551182D01*
X142689284Y-31548676D01*
X142742463Y-31501638D01*
X142812630Y-31490818D01*
X142836884Y-31496539D01*
X142891987Y-31515456D01*
X142891992Y-31515457D01*
X142972500Y-31528891D01*
X142972500Y-30625202D01*
X143033507Y-30660425D01*
X143160674Y-30694500D01*
X143292326Y-30694500D01*
X143419493Y-30660425D01*
X143480500Y-30625202D01*
X143480500Y-31528890D01*
X143561007Y-31515457D01*
X143561016Y-31515455D01*
X143773869Y-31442383D01*
X143773871Y-31442382D01*
X143971800Y-31335268D01*
X143971801Y-31335267D01*
X144149402Y-31197034D01*
X144301825Y-31031458D01*
X144424919Y-30843048D01*
X144515320Y-30636956D01*
X144515323Y-30636949D01*
X144563044Y-30448500D01*
X143657203Y-30448500D01*
X143692425Y-30387493D01*
X143726500Y-30260326D01*
X143726500Y-30128674D01*
X143692425Y-30001507D01*
X143657203Y-29940500D01*
X144563044Y-29940500D01*
X144563044Y-29940499D01*
X144515323Y-29752050D01*
X144515320Y-29752043D01*
X144424919Y-29545951D01*
X144301825Y-29357541D01*
X144149402Y-29191965D01*
X143971801Y-29053732D01*
X143971800Y-29053731D01*
X143938291Y-29035597D01*
X143887901Y-28985583D01*
X143872550Y-28916266D01*
X143897112Y-28849653D01*
X143938290Y-28813972D01*
X143972076Y-28795689D01*
X144149740Y-28657406D01*
X144302222Y-28491768D01*
X144302427Y-28491455D01*
X144375336Y-28379858D01*
X144425360Y-28303291D01*
X144515796Y-28097116D01*
X144571064Y-27878868D01*
X144589656Y-27654500D01*
X144571064Y-27430132D01*
X144543317Y-27320562D01*
X144545984Y-27249618D01*
X144576364Y-27200539D01*
X144820571Y-26956333D01*
X144889900Y-26852575D01*
X144937655Y-26737285D01*
X144962000Y-26614894D01*
X144962000Y-26490107D01*
X144962000Y-17129606D01*
X144937655Y-17007215D01*
X144889900Y-16891925D01*
X144820571Y-16788167D01*
X144732333Y-16699929D01*
X144576366Y-16543962D01*
X144542340Y-16481650D01*
X144543316Y-16423937D01*
X144571064Y-16314368D01*
X144589656Y-16090000D01*
X144571064Y-15865632D01*
X144515796Y-15647384D01*
X144425360Y-15441209D01*
X144408097Y-15414786D01*
X144302224Y-15252734D01*
X144302220Y-15252729D01*
X144186070Y-15126559D01*
X144149740Y-15087094D01*
X144149739Y-15087093D01*
X144149737Y-15087091D01*
X144067882Y-15023381D01*
X143972076Y-14948811D01*
X143944120Y-14933681D01*
X143926029Y-14923891D01*
X143875639Y-14873877D01*
X143860000Y-14813078D01*
X143860000Y-9779238D01*
X143880002Y-9711117D01*
X143933658Y-9664624D01*
X143946357Y-9659637D01*
X143999238Y-9642115D01*
X144150152Y-9549030D01*
X144275530Y-9423652D01*
X144368615Y-9272738D01*
X144424387Y-9104426D01*
X144435000Y-9000545D01*
X144434999Y-8199456D01*
X144424387Y-8095574D01*
X144368615Y-7927262D01*
X144275530Y-7776348D01*
X144275529Y-7776347D01*
X144275524Y-7776341D01*
X144188278Y-7689095D01*
X144154252Y-7626783D01*
X144159317Y-7555968D01*
X144188278Y-7510905D01*
X144275524Y-7423658D01*
X144275530Y-7423652D01*
X144368615Y-7272738D01*
X144424387Y-7104426D01*
X144435000Y-7000545D01*
X144434999Y-6199456D01*
X144424387Y-6095574D01*
X144368615Y-5927262D01*
X144275530Y-5776348D01*
X144275529Y-5776347D01*
X144275524Y-5776341D01*
X144150158Y-5650975D01*
X144150152Y-5650970D01*
X143999235Y-5557883D01*
X143984408Y-5552970D01*
X143926038Y-5512554D01*
X143898784Y-5446997D01*
X143911300Y-5377112D01*
X143959612Y-5325088D01*
X143984408Y-5313764D01*
X144002829Y-5307661D01*
X144152498Y-5215344D01*
X144276844Y-5090998D01*
X144369161Y-4941329D01*
X144424474Y-4774404D01*
X144435000Y-4671375D01*
X144434999Y-4083626D01*
X144424474Y-3980596D01*
X144369161Y-3813671D01*
X144276844Y-3664002D01*
X144276843Y-3664001D01*
X144276838Y-3663995D01*
X144152504Y-3539661D01*
X144151057Y-3538517D01*
X144150321Y-3537478D01*
X144147309Y-3534466D01*
X144147823Y-3533951D01*
X144110027Y-3480577D01*
X144106835Y-3409652D01*
X144142495Y-3348261D01*
X144151060Y-3340839D01*
X144152191Y-3339944D01*
X144276443Y-3215692D01*
X144276448Y-3215686D01*
X144368706Y-3066112D01*
X144423980Y-2899308D01*
X144423982Y-2899296D01*
X144434499Y-2796355D01*
X144434500Y-2796355D01*
X144434500Y-2756500D01*
X143098500Y-2756500D01*
X143030379Y-2736498D01*
X142983886Y-2682842D01*
X142972500Y-2630500D01*
X142972500Y-2248500D01*
X143480500Y-2248500D01*
X144434499Y-2248500D01*
X144434499Y-2208652D01*
X144423982Y-2105697D01*
X144368706Y-1938887D01*
X144276448Y-1789313D01*
X144276443Y-1789307D01*
X144152192Y-1665056D01*
X144152186Y-1665051D01*
X144002612Y-1572793D01*
X143835808Y-1517519D01*
X143835796Y-1517517D01*
X143732855Y-1507000D01*
X143480500Y-1507000D01*
X143480500Y-2248500D01*
X142972500Y-2248500D01*
X142972500Y-1507000D01*
X142720152Y-1507000D01*
X142617197Y-1517517D01*
X142450387Y-1572793D01*
X142300813Y-1665051D01*
X142300807Y-1665056D01*
X142176556Y-1789307D01*
X142176551Y-1789313D01*
X142084294Y-1938886D01*
X142076104Y-1963602D01*
X142035690Y-2021973D01*
X141970133Y-2049228D01*
X141900248Y-2036714D01*
X141848223Y-1988404D01*
X141836896Y-1963602D01*
X141828705Y-1938886D01*
X141736448Y-1789313D01*
X141736443Y-1789307D01*
X141612192Y-1665056D01*
X141612186Y-1665051D01*
X141462612Y-1572793D01*
X141295808Y-1517519D01*
X141295796Y-1517517D01*
X141192855Y-1507000D01*
X140940500Y-1507000D01*
X140940500Y-2630500D01*
X140920498Y-2698621D01*
X140866842Y-2745114D01*
X140814500Y-2756500D01*
X140558500Y-2756500D01*
X140490379Y-2736498D01*
X140443886Y-2682842D01*
X140432500Y-2630500D01*
X140432500Y-1507000D01*
X140180152Y-1507000D01*
X140077197Y-1517517D01*
X139910387Y-1572793D01*
X139760813Y-1665051D01*
X139760807Y-1665056D01*
X139636556Y-1789307D01*
X139636551Y-1789313D01*
X139544294Y-1938886D01*
X139536104Y-1963602D01*
X139495690Y-2021973D01*
X139430133Y-2049228D01*
X139360248Y-2036714D01*
X139308223Y-1988404D01*
X139296896Y-1963602D01*
X139288705Y-1938886D01*
X139196448Y-1789313D01*
X139196443Y-1789307D01*
X139072192Y-1665056D01*
X139072186Y-1665051D01*
X138922612Y-1572793D01*
X138755808Y-1517519D01*
X138755796Y-1517517D01*
X138652855Y-1507000D01*
X138400500Y-1507000D01*
X138400500Y-2630500D01*
X138380498Y-2698621D01*
X138326842Y-2745114D01*
X138274500Y-2756500D01*
X138018500Y-2756500D01*
X137950379Y-2736498D01*
X137903886Y-2682842D01*
X137892500Y-2630500D01*
X137892500Y-1507000D01*
X137640152Y-1507000D01*
X137537197Y-1517517D01*
X137370387Y-1572793D01*
X137220813Y-1665051D01*
X137220807Y-1665056D01*
X137096556Y-1789307D01*
X137096551Y-1789313D01*
X137004294Y-1938886D01*
X136996104Y-1963602D01*
X136955690Y-2021973D01*
X136890133Y-2049228D01*
X136820248Y-2036714D01*
X136768223Y-1988404D01*
X136756896Y-1963602D01*
X136748705Y-1938886D01*
X136656448Y-1789313D01*
X136656443Y-1789307D01*
X136532192Y-1665056D01*
X136532186Y-1665051D01*
X136382612Y-1572793D01*
X136215808Y-1517519D01*
X136215796Y-1517517D01*
X136112855Y-1507000D01*
X135860500Y-1507000D01*
X135860500Y-2630500D01*
X135840498Y-2698621D01*
X135786842Y-2745114D01*
X135734500Y-2756500D01*
X135478500Y-2756500D01*
X135410379Y-2736498D01*
X135363886Y-2682842D01*
X135352500Y-2630500D01*
X135352500Y-1507000D01*
X135100152Y-1507000D01*
X134997197Y-1517517D01*
X134830387Y-1572793D01*
X134680813Y-1665051D01*
X134680807Y-1665056D01*
X134556556Y-1789307D01*
X134556551Y-1789313D01*
X134464294Y-1938886D01*
X134456104Y-1963602D01*
X134415690Y-2021973D01*
X134350133Y-2049228D01*
X134280248Y-2036714D01*
X134228223Y-1988404D01*
X134216896Y-1963602D01*
X134208705Y-1938886D01*
X134116448Y-1789313D01*
X134116443Y-1789307D01*
X133992192Y-1665056D01*
X133992186Y-1665051D01*
X133842612Y-1572793D01*
X133675808Y-1517519D01*
X133675796Y-1517517D01*
X133572855Y-1507000D01*
X133320500Y-1507000D01*
X133320500Y-2630500D01*
X133300498Y-2698621D01*
X133246842Y-2745114D01*
X133194500Y-2756500D01*
X132938500Y-2756500D01*
X132870379Y-2736498D01*
X132823886Y-2682842D01*
X132812500Y-2630500D01*
X132812500Y-1507000D01*
X132560152Y-1507000D01*
X132457197Y-1517517D01*
X132290387Y-1572793D01*
X132140813Y-1665051D01*
X132140807Y-1665056D01*
X132016556Y-1789307D01*
X132016551Y-1789313D01*
X131924294Y-1938886D01*
X131916104Y-1963602D01*
X131875690Y-2021973D01*
X131810133Y-2049228D01*
X131740248Y-2036714D01*
X131688223Y-1988404D01*
X131676896Y-1963602D01*
X131668705Y-1938886D01*
X131576448Y-1789313D01*
X131576443Y-1789307D01*
X131452192Y-1665056D01*
X131452186Y-1665051D01*
X131302612Y-1572793D01*
X131135808Y-1517519D01*
X131135796Y-1517517D01*
X131032855Y-1507000D01*
X130780500Y-1507000D01*
X130780500Y-2630500D01*
X130760498Y-2698621D01*
X130706842Y-2745114D01*
X130654500Y-2756500D01*
X130398500Y-2756500D01*
X130330379Y-2736498D01*
X130283886Y-2682842D01*
X130272500Y-2630500D01*
X130272500Y-1507000D01*
X130020152Y-1507000D01*
X129917197Y-1517517D01*
X129750387Y-1572793D01*
X129600813Y-1665051D01*
X129600807Y-1665056D01*
X129476556Y-1789307D01*
X129476551Y-1789313D01*
X129384294Y-1938886D01*
X129376104Y-1963602D01*
X129335690Y-2021973D01*
X129270133Y-2049228D01*
X129200248Y-2036714D01*
X129148223Y-1988404D01*
X129136896Y-1963602D01*
X129128705Y-1938886D01*
X129036448Y-1789313D01*
X129036443Y-1789307D01*
X128912192Y-1665056D01*
X128912186Y-1665051D01*
X128762612Y-1572793D01*
X128595808Y-1517519D01*
X128595796Y-1517517D01*
X128492855Y-1507000D01*
X128240500Y-1507000D01*
X128240500Y-2630500D01*
X128220498Y-2698621D01*
X128166842Y-2745114D01*
X128114500Y-2756500D01*
X127858500Y-2756500D01*
X127790379Y-2736498D01*
X127743886Y-2682842D01*
X127732500Y-2630500D01*
X127732500Y-1507000D01*
X127480152Y-1507000D01*
X127377197Y-1517517D01*
X127210387Y-1572793D01*
X127060813Y-1665051D01*
X127060807Y-1665056D01*
X126936556Y-1789307D01*
X126936551Y-1789313D01*
X126844294Y-1938886D01*
X126836104Y-1963602D01*
X126795690Y-2021973D01*
X126730133Y-2049228D01*
X126660248Y-2036714D01*
X126608223Y-1988404D01*
X126596896Y-1963602D01*
X126588705Y-1938886D01*
X126496448Y-1789313D01*
X126496443Y-1789307D01*
X126372192Y-1665056D01*
X126372186Y-1665051D01*
X126222612Y-1572793D01*
X126055808Y-1517519D01*
X126055796Y-1517517D01*
X125952855Y-1507000D01*
X125700500Y-1507000D01*
X125700500Y-2630500D01*
X125680498Y-2698621D01*
X125626842Y-2745114D01*
X125574500Y-2756500D01*
X124238501Y-2756500D01*
X124238501Y-2796347D01*
X124249017Y-2899302D01*
X124304293Y-3066112D01*
X124396551Y-3215686D01*
X124396556Y-3215692D01*
X124520808Y-3339944D01*
X124521946Y-3340844D01*
X124522523Y-3341659D01*
X124526003Y-3345139D01*
X124525408Y-3345733D01*
X124562974Y-3398786D01*
X124566163Y-3469711D01*
X124530500Y-3531101D01*
X124521948Y-3538512D01*
X124520499Y-3539657D01*
X124396161Y-3663995D01*
X124396156Y-3664001D01*
X124303839Y-3813670D01*
X124248525Y-3980600D01*
X124238000Y-4083616D01*
X124238000Y-4671374D01*
X124248525Y-4774399D01*
X124248526Y-4774404D01*
X124296104Y-4917987D01*
X124303839Y-4941329D01*
X124396156Y-5090998D01*
X124396161Y-5091004D01*
X124520495Y-5215338D01*
X124520501Y-5215343D01*
X124520502Y-5215344D01*
X124670171Y-5307661D01*
X124688587Y-5313763D01*
X124746956Y-5354174D01*
X124774214Y-5419730D01*
X124761702Y-5489615D01*
X124713394Y-5541642D01*
X124688593Y-5552970D01*
X124673762Y-5557884D01*
X124522847Y-5650970D01*
X124522841Y-5650975D01*
X124397475Y-5776341D01*
X124397470Y-5776347D01*
X124304385Y-5927262D01*
X124248613Y-6095572D01*
X124248612Y-6095579D01*
X124238000Y-6199446D01*
X124238000Y-7000544D01*
X124248612Y-7104425D01*
X124304385Y-7272738D01*
X124397470Y-7423652D01*
X124397475Y-7423658D01*
X124484722Y-7510905D01*
X124518748Y-7573217D01*
X124513683Y-7644032D01*
X124484722Y-7689095D01*
X124397475Y-7776341D01*
X124397470Y-7776347D01*
X124304385Y-7927262D01*
X124248613Y-8095572D01*
X124248612Y-8095579D01*
X124238000Y-8199446D01*
X124238000Y-9000544D01*
X124248612Y-9104425D01*
X124304385Y-9272738D01*
X124397470Y-9423652D01*
X124397475Y-9423658D01*
X124522841Y-9549024D01*
X124522847Y-9549029D01*
X124522848Y-9549030D01*
X124673762Y-9642115D01*
X124726632Y-9659634D01*
X124785003Y-9700046D01*
X124812260Y-9765602D01*
X124813000Y-9779238D01*
X124813000Y-14813078D01*
X124792998Y-14881199D01*
X124746971Y-14923891D01*
X124700926Y-14948810D01*
X124700924Y-14948811D01*
X124523262Y-15087091D01*
X124370779Y-15252729D01*
X124281983Y-15388643D01*
X124227979Y-15434731D01*
X124157631Y-15444306D01*
X124093274Y-15414329D01*
X124071017Y-15388643D01*
X123982426Y-15253044D01*
X123982222Y-15252732D01*
X123982221Y-15252731D01*
X123982220Y-15252729D01*
X123866070Y-15126559D01*
X123829740Y-15087094D01*
X123829739Y-15087093D01*
X123829737Y-15087091D01*
X123747882Y-15023381D01*
X123652076Y-14948811D01*
X123454074Y-14841658D01*
X123454072Y-14841657D01*
X123454071Y-14841656D01*
X123241139Y-14768557D01*
X123241130Y-14768555D01*
X123163529Y-14755606D01*
X123019069Y-14731500D01*
X122793931Y-14731500D01*
X122649471Y-14755606D01*
X122571869Y-14768555D01*
X122571860Y-14768557D01*
X122358928Y-14841656D01*
X122358926Y-14841658D01*
X122160926Y-14948810D01*
X122160924Y-14948811D01*
X121983262Y-15087091D01*
X121830779Y-15252729D01*
X121741983Y-15388643D01*
X121687979Y-15434731D01*
X121617631Y-15444306D01*
X121553274Y-15414329D01*
X121531017Y-15388643D01*
X121442426Y-15253044D01*
X121442222Y-15252732D01*
X121442221Y-15252731D01*
X121442220Y-15252729D01*
X121326070Y-15126559D01*
X121289740Y-15087094D01*
X121289739Y-15087093D01*
X121289737Y-15087091D01*
X121207882Y-15023381D01*
X121112076Y-14948811D01*
X121084120Y-14933681D01*
X121066029Y-14923891D01*
X121015639Y-14873877D01*
X121000000Y-14813078D01*
X121000000Y-9779238D01*
X121020002Y-9711117D01*
X121073658Y-9664624D01*
X121086357Y-9659637D01*
X121139238Y-9642115D01*
X121290152Y-9549030D01*
X121415530Y-9423652D01*
X121508615Y-9272738D01*
X121564387Y-9104426D01*
X121575000Y-9000545D01*
X121574999Y-8199456D01*
X121564387Y-8095574D01*
X121508615Y-7927262D01*
X121415530Y-7776348D01*
X121415529Y-7776347D01*
X121415524Y-7776341D01*
X121328278Y-7689095D01*
X121294252Y-7626783D01*
X121299317Y-7555968D01*
X121328278Y-7510905D01*
X121415524Y-7423658D01*
X121415530Y-7423652D01*
X121508615Y-7272738D01*
X121564387Y-7104426D01*
X121575000Y-7000545D01*
X121574999Y-6199456D01*
X121564387Y-6095574D01*
X121508615Y-5927262D01*
X121415530Y-5776348D01*
X121415529Y-5776347D01*
X121415524Y-5776341D01*
X121290158Y-5650975D01*
X121290152Y-5650970D01*
X121139235Y-5557883D01*
X121124408Y-5552970D01*
X121066038Y-5512554D01*
X121038784Y-5446997D01*
X121051300Y-5377112D01*
X121099612Y-5325088D01*
X121124408Y-5313764D01*
X121142829Y-5307661D01*
X121292498Y-5215344D01*
X121416844Y-5090998D01*
X121509161Y-4941329D01*
X121564474Y-4774404D01*
X121575000Y-4671375D01*
X121574999Y-4083626D01*
X121564474Y-3980596D01*
X121509161Y-3813671D01*
X121416844Y-3664002D01*
X121416843Y-3664001D01*
X121416838Y-3663995D01*
X121292504Y-3539661D01*
X121291057Y-3538517D01*
X121290321Y-3537478D01*
X121287309Y-3534466D01*
X121287823Y-3533951D01*
X121250027Y-3480577D01*
X121246835Y-3409652D01*
X121282495Y-3348261D01*
X121291060Y-3340839D01*
X121292191Y-3339944D01*
X121416443Y-3215692D01*
X121416448Y-3215686D01*
X121508706Y-3066112D01*
X121563980Y-2899308D01*
X121563982Y-2899296D01*
X121574499Y-2796355D01*
X121574500Y-2796355D01*
X121574500Y-2756500D01*
X119158501Y-2756500D01*
X119158501Y-2796347D01*
X119169017Y-2899302D01*
X119224293Y-3066112D01*
X119316551Y-3215686D01*
X119316556Y-3215692D01*
X119440808Y-3339944D01*
X119441946Y-3340844D01*
X119442523Y-3341659D01*
X119446003Y-3345139D01*
X119445408Y-3345733D01*
X119482974Y-3398786D01*
X119486163Y-3469711D01*
X119450500Y-3531101D01*
X119441948Y-3538512D01*
X119440499Y-3539657D01*
X119316161Y-3663995D01*
X119316156Y-3664001D01*
X119223839Y-3813670D01*
X119168525Y-3980600D01*
X119158000Y-4083616D01*
X119158000Y-4671374D01*
X119168525Y-4774399D01*
X119168526Y-4774404D01*
X119216104Y-4917987D01*
X119223839Y-4941329D01*
X119316156Y-5090998D01*
X119316161Y-5091004D01*
X119440495Y-5215338D01*
X119440501Y-5215343D01*
X119440502Y-5215344D01*
X119590171Y-5307661D01*
X119608587Y-5313763D01*
X119666956Y-5354174D01*
X119694214Y-5419730D01*
X119681702Y-5489615D01*
X119633394Y-5541642D01*
X119608593Y-5552970D01*
X119593762Y-5557884D01*
X119442847Y-5650970D01*
X119442841Y-5650975D01*
X119317475Y-5776341D01*
X119317470Y-5776347D01*
X119224385Y-5927262D01*
X119168613Y-6095572D01*
X119168612Y-6095579D01*
X119158000Y-6199446D01*
X119158000Y-7000544D01*
X119168612Y-7104425D01*
X119224385Y-7272738D01*
X119317470Y-7423652D01*
X119317475Y-7423658D01*
X119404722Y-7510905D01*
X119438748Y-7573217D01*
X119433683Y-7644032D01*
X119404722Y-7689095D01*
X119317475Y-7776341D01*
X119317470Y-7776347D01*
X119224385Y-7927262D01*
X119168613Y-8095572D01*
X119168612Y-8095579D01*
X119158000Y-8199446D01*
X119158000Y-9000544D01*
X119168612Y-9104425D01*
X119224385Y-9272738D01*
X119317470Y-9423652D01*
X119317475Y-9423658D01*
X119442841Y-9549024D01*
X119442847Y-9549029D01*
X119442848Y-9549030D01*
X119593762Y-9642115D01*
X119646632Y-9659634D01*
X119705003Y-9700046D01*
X119732260Y-9765602D01*
X119733000Y-9779238D01*
X119733000Y-14813078D01*
X119712998Y-14881199D01*
X119666971Y-14923891D01*
X119620926Y-14948810D01*
X119620924Y-14948811D01*
X119443262Y-15087091D01*
X119290779Y-15252729D01*
X119201683Y-15389101D01*
X119147679Y-15435189D01*
X119077331Y-15444764D01*
X119012974Y-15414786D01*
X118990717Y-15389100D01*
X118901827Y-15253044D01*
X118749402Y-15087465D01*
X118571801Y-14949232D01*
X118571800Y-14949231D01*
X118373871Y-14842117D01*
X118373869Y-14842116D01*
X118161012Y-14769043D01*
X118161001Y-14769040D01*
X118080500Y-14755606D01*
X118080500Y-15659297D01*
X118019493Y-15624075D01*
X117892326Y-15590000D01*
X117760674Y-15590000D01*
X117633507Y-15624075D01*
X117572500Y-15659297D01*
X117572500Y-14755607D01*
X117572499Y-14755606D01*
X117491998Y-14769040D01*
X117491987Y-14769043D01*
X117279130Y-14842116D01*
X117279128Y-14842117D01*
X117081199Y-14949231D01*
X117081198Y-14949232D01*
X116903597Y-15087465D01*
X116751174Y-15253042D01*
X116661983Y-15389559D01*
X116607979Y-15435647D01*
X116537631Y-15445222D01*
X116473274Y-15415244D01*
X116451017Y-15389559D01*
X116361825Y-15253042D01*
X116209402Y-15087465D01*
X116031801Y-14949232D01*
X116031800Y-14949231D01*
X115833871Y-14842117D01*
X115833869Y-14842116D01*
X115621012Y-14769043D01*
X115621001Y-14769040D01*
X115540500Y-14755606D01*
X115540500Y-15659297D01*
X115479493Y-15624075D01*
X115352326Y-15590000D01*
X115220674Y-15590000D01*
X115093507Y-15624075D01*
X115032500Y-15659297D01*
X115032500Y-14755607D01*
X115032499Y-14755606D01*
X114951998Y-14769040D01*
X114951987Y-14769043D01*
X114739130Y-14842116D01*
X114739128Y-14842117D01*
X114541199Y-14949231D01*
X114541198Y-14949232D01*
X114363597Y-15087465D01*
X114211170Y-15253045D01*
X114122280Y-15389101D01*
X114068276Y-15435189D01*
X113997928Y-15444764D01*
X113933571Y-15414786D01*
X113911316Y-15389101D01*
X113872384Y-15329511D01*
X113822224Y-15252734D01*
X113822220Y-15252729D01*
X113706070Y-15126559D01*
X113669740Y-15087094D01*
X113669739Y-15087093D01*
X113669737Y-15087091D01*
X113587882Y-15023381D01*
X113492076Y-14948811D01*
X113464120Y-14933681D01*
X113446029Y-14923891D01*
X113395639Y-14873877D01*
X113380000Y-14813078D01*
X113380000Y-9779238D01*
X113400002Y-9711117D01*
X113453658Y-9664624D01*
X113466357Y-9659637D01*
X113519238Y-9642115D01*
X113670152Y-9549030D01*
X113795530Y-9423652D01*
X113888615Y-9272738D01*
X113944387Y-9104426D01*
X113955000Y-9000545D01*
X113954999Y-8199456D01*
X113944387Y-8095574D01*
X113888615Y-7927262D01*
X113795530Y-7776348D01*
X113795529Y-7776347D01*
X113795524Y-7776341D01*
X113708278Y-7689095D01*
X113674252Y-7626783D01*
X113679317Y-7555968D01*
X113708278Y-7510905D01*
X113795524Y-7423658D01*
X113795530Y-7423652D01*
X113888615Y-7272738D01*
X113944387Y-7104426D01*
X113955000Y-7000545D01*
X113954999Y-6199456D01*
X113944387Y-6095574D01*
X113888615Y-5927262D01*
X113795530Y-5776348D01*
X113795529Y-5776347D01*
X113795524Y-5776341D01*
X113670158Y-5650975D01*
X113670152Y-5650970D01*
X113519235Y-5557883D01*
X113504408Y-5552970D01*
X113446038Y-5512554D01*
X113418784Y-5446997D01*
X113431300Y-5377112D01*
X113479612Y-5325088D01*
X113504408Y-5313764D01*
X113522829Y-5307661D01*
X113672498Y-5215344D01*
X113796844Y-5090998D01*
X113889161Y-4941329D01*
X113944474Y-4774404D01*
X113955000Y-4671375D01*
X113954999Y-4083626D01*
X113944474Y-3980596D01*
X113889161Y-3813671D01*
X113796844Y-3664002D01*
X113796843Y-3664001D01*
X113796838Y-3663995D01*
X113672504Y-3539661D01*
X113671057Y-3538517D01*
X113670321Y-3537478D01*
X113667309Y-3534466D01*
X113667823Y-3533951D01*
X113630027Y-3480577D01*
X113626835Y-3409652D01*
X113662495Y-3348261D01*
X113671060Y-3340839D01*
X113672191Y-3339944D01*
X113796443Y-3215692D01*
X113796448Y-3215686D01*
X113888706Y-3066112D01*
X113943980Y-2899308D01*
X113943982Y-2899296D01*
X113954499Y-2796355D01*
X113954500Y-2796355D01*
X113954500Y-2756500D01*
X111538501Y-2756500D01*
X111538501Y-2796347D01*
X111549017Y-2899302D01*
X111604293Y-3066112D01*
X111696551Y-3215686D01*
X111696556Y-3215692D01*
X111820808Y-3339944D01*
X111821946Y-3340844D01*
X111822523Y-3341659D01*
X111826003Y-3345139D01*
X111825408Y-3345733D01*
X111862974Y-3398786D01*
X111866163Y-3469711D01*
X111830500Y-3531101D01*
X111821948Y-3538512D01*
X111820499Y-3539657D01*
X111696161Y-3663995D01*
X111696156Y-3664001D01*
X111603839Y-3813670D01*
X111548525Y-3980600D01*
X111538000Y-4083616D01*
X111538000Y-4671374D01*
X111548525Y-4774399D01*
X111548526Y-4774404D01*
X111596104Y-4917987D01*
X111603839Y-4941329D01*
X111696156Y-5090998D01*
X111696161Y-5091004D01*
X111820495Y-5215338D01*
X111820501Y-5215343D01*
X111820502Y-5215344D01*
X111970171Y-5307661D01*
X111988587Y-5313763D01*
X112046956Y-5354174D01*
X112074214Y-5419730D01*
X112061702Y-5489615D01*
X112013394Y-5541642D01*
X111988593Y-5552970D01*
X111973762Y-5557884D01*
X111822847Y-5650970D01*
X111822841Y-5650975D01*
X111697475Y-5776341D01*
X111697470Y-5776347D01*
X111604385Y-5927262D01*
X111548613Y-6095572D01*
X111548612Y-6095579D01*
X111538000Y-6199446D01*
X111538000Y-7000544D01*
X111548612Y-7104425D01*
X111604385Y-7272738D01*
X111697470Y-7423652D01*
X111697475Y-7423658D01*
X111784722Y-7510905D01*
X111818748Y-7573217D01*
X111813683Y-7644032D01*
X111784722Y-7689095D01*
X111697475Y-7776341D01*
X111697470Y-7776347D01*
X111604385Y-7927262D01*
X111548613Y-8095572D01*
X111548612Y-8095579D01*
X111538000Y-8199446D01*
X111538000Y-9000544D01*
X111548612Y-9104425D01*
X111604385Y-9272738D01*
X111697470Y-9423652D01*
X111697475Y-9423658D01*
X111822841Y-9549024D01*
X111822847Y-9549029D01*
X111822848Y-9549030D01*
X111973762Y-9642115D01*
X112026632Y-9659634D01*
X112085003Y-9700046D01*
X112112260Y-9765602D01*
X112113000Y-9779238D01*
X112113000Y-14813078D01*
X112092998Y-14881199D01*
X112046971Y-14923891D01*
X112000926Y-14948810D01*
X112000924Y-14948811D01*
X111823262Y-15087091D01*
X111670779Y-15252729D01*
X111581683Y-15389101D01*
X111527679Y-15435189D01*
X111457331Y-15444764D01*
X111392974Y-15414786D01*
X111370717Y-15389100D01*
X111281827Y-15253044D01*
X111129402Y-15087465D01*
X110951801Y-14949232D01*
X110951800Y-14949231D01*
X110753871Y-14842117D01*
X110753869Y-14842116D01*
X110541012Y-14769043D01*
X110541001Y-14769040D01*
X110460500Y-14755606D01*
X110460500Y-15659297D01*
X110399493Y-15624075D01*
X110272326Y-15590000D01*
X110140674Y-15590000D01*
X110013507Y-15624075D01*
X109952500Y-15659297D01*
X109952500Y-14755607D01*
X109952499Y-14755606D01*
X109871998Y-14769040D01*
X109871987Y-14769043D01*
X109659130Y-14842116D01*
X109659128Y-14842117D01*
X109461199Y-14949231D01*
X109461198Y-14949232D01*
X109283597Y-15087465D01*
X109131174Y-15253042D01*
X109041983Y-15389559D01*
X108987979Y-15435647D01*
X108917631Y-15445222D01*
X108853274Y-15415244D01*
X108831017Y-15389559D01*
X108741825Y-15253042D01*
X108589402Y-15087465D01*
X108411801Y-14949232D01*
X108411800Y-14949231D01*
X108213871Y-14842117D01*
X108213869Y-14842116D01*
X108001012Y-14769043D01*
X108001001Y-14769040D01*
X107920500Y-14755606D01*
X107920500Y-15659297D01*
X107859493Y-15624075D01*
X107732326Y-15590000D01*
X107600674Y-15590000D01*
X107473507Y-15624075D01*
X107412500Y-15659297D01*
X107412500Y-14755607D01*
X107412499Y-14755606D01*
X107331998Y-14769040D01*
X107331987Y-14769043D01*
X107119130Y-14842116D01*
X107119128Y-14842117D01*
X106921199Y-14949231D01*
X106921198Y-14949232D01*
X106743597Y-15087465D01*
X106591174Y-15253042D01*
X106501983Y-15389559D01*
X106447979Y-15435647D01*
X106377631Y-15445222D01*
X106313274Y-15415244D01*
X106291017Y-15389559D01*
X106201825Y-15253042D01*
X106049402Y-15087465D01*
X105871801Y-14949232D01*
X105871800Y-14949231D01*
X105673871Y-14842117D01*
X105673869Y-14842116D01*
X105461012Y-14769043D01*
X105461001Y-14769040D01*
X105380500Y-14755606D01*
X105380500Y-15659297D01*
X105319493Y-15624075D01*
X105192326Y-15590000D01*
X105060674Y-15590000D01*
X104933507Y-15624075D01*
X104872500Y-15659297D01*
X104872500Y-14755607D01*
X104872499Y-14755606D01*
X104791998Y-14769040D01*
X104791987Y-14769043D01*
X104579130Y-14842116D01*
X104579128Y-14842117D01*
X104381199Y-14949231D01*
X104381198Y-14949232D01*
X104203597Y-15087465D01*
X104051170Y-15253045D01*
X103962280Y-15389101D01*
X103908276Y-15435189D01*
X103837928Y-15444764D01*
X103773571Y-15414786D01*
X103751316Y-15389101D01*
X103712384Y-15329511D01*
X103662224Y-15252734D01*
X103662220Y-15252729D01*
X103546070Y-15126559D01*
X103509740Y-15087094D01*
X103509739Y-15087093D01*
X103509737Y-15087091D01*
X103427882Y-15023381D01*
X103332076Y-14948811D01*
X103304120Y-14933681D01*
X103286029Y-14923891D01*
X103235639Y-14873877D01*
X103220000Y-14813078D01*
X103220000Y-9779238D01*
X103240002Y-9711117D01*
X103293658Y-9664624D01*
X103306357Y-9659637D01*
X103359238Y-9642115D01*
X103510152Y-9549030D01*
X103635530Y-9423652D01*
X103728615Y-9272738D01*
X103784387Y-9104426D01*
X103795000Y-9000545D01*
X103794999Y-8199456D01*
X103784387Y-8095574D01*
X103728615Y-7927262D01*
X103635530Y-7776348D01*
X103635529Y-7776347D01*
X103635524Y-7776341D01*
X103548278Y-7689095D01*
X103514252Y-7626783D01*
X103519317Y-7555968D01*
X103548278Y-7510905D01*
X103635524Y-7423658D01*
X103635530Y-7423652D01*
X103728615Y-7272738D01*
X103784387Y-7104426D01*
X103795000Y-7000545D01*
X103794999Y-6199456D01*
X103784387Y-6095574D01*
X103728615Y-5927262D01*
X103635530Y-5776348D01*
X103635529Y-5776347D01*
X103635524Y-5776341D01*
X103510158Y-5650975D01*
X103510152Y-5650970D01*
X103359235Y-5557883D01*
X103344408Y-5552970D01*
X103286038Y-5512554D01*
X103258784Y-5446997D01*
X103271300Y-5377112D01*
X103319612Y-5325088D01*
X103344408Y-5313764D01*
X103362829Y-5307661D01*
X103512498Y-5215344D01*
X103636844Y-5090998D01*
X103729161Y-4941329D01*
X103784474Y-4774404D01*
X103795000Y-4671375D01*
X103794999Y-4083626D01*
X103784474Y-3980596D01*
X103729161Y-3813671D01*
X103636844Y-3664002D01*
X103636843Y-3664001D01*
X103636838Y-3663995D01*
X103512504Y-3539661D01*
X103511057Y-3538517D01*
X103510321Y-3537478D01*
X103507309Y-3534466D01*
X103507823Y-3533951D01*
X103470027Y-3480577D01*
X103466835Y-3409652D01*
X103502495Y-3348261D01*
X103511060Y-3340839D01*
X103512191Y-3339944D01*
X103636443Y-3215692D01*
X103636448Y-3215686D01*
X103728706Y-3066112D01*
X103783980Y-2899308D01*
X103783982Y-2899296D01*
X103794499Y-2796355D01*
X103794500Y-2796355D01*
X103794500Y-2756500D01*
X102458500Y-2756500D01*
X102390379Y-2736498D01*
X102343886Y-2682842D01*
X102332500Y-2630500D01*
X102332500Y-2248500D01*
X102840500Y-2248500D01*
X103794499Y-2248500D01*
X103794499Y-2208652D01*
X103794498Y-2208644D01*
X111538500Y-2208644D01*
X111538500Y-2248500D01*
X112492500Y-2248500D01*
X113000500Y-2248500D01*
X113954499Y-2248500D01*
X113954499Y-2208652D01*
X113954498Y-2208644D01*
X119158500Y-2208644D01*
X119158500Y-2248500D01*
X120112500Y-2248500D01*
X120620500Y-2248500D01*
X121574499Y-2248500D01*
X121574499Y-2208652D01*
X121574498Y-2208644D01*
X124238500Y-2208644D01*
X124238500Y-2248500D01*
X125192500Y-2248500D01*
X125192500Y-1507000D01*
X124940152Y-1507000D01*
X124837197Y-1517517D01*
X124670387Y-1572793D01*
X124520813Y-1665051D01*
X124520807Y-1665056D01*
X124396556Y-1789307D01*
X124396551Y-1789313D01*
X124304293Y-1938887D01*
X124249019Y-2105691D01*
X124249017Y-2105703D01*
X124238500Y-2208644D01*
X121574498Y-2208644D01*
X121563982Y-2105697D01*
X121508706Y-1938887D01*
X121416448Y-1789313D01*
X121416443Y-1789307D01*
X121292192Y-1665056D01*
X121292186Y-1665051D01*
X121142612Y-1572793D01*
X120975808Y-1517519D01*
X120975796Y-1517517D01*
X120872855Y-1507000D01*
X120620500Y-1507000D01*
X120620500Y-2248500D01*
X120112500Y-2248500D01*
X120112500Y-1507000D01*
X119860152Y-1507000D01*
X119757197Y-1517517D01*
X119590387Y-1572793D01*
X119440813Y-1665051D01*
X119440807Y-1665056D01*
X119316556Y-1789307D01*
X119316551Y-1789313D01*
X119224293Y-1938887D01*
X119169019Y-2105691D01*
X119169017Y-2105703D01*
X119158500Y-2208644D01*
X113954498Y-2208644D01*
X113943982Y-2105697D01*
X113888706Y-1938887D01*
X113796448Y-1789313D01*
X113796443Y-1789307D01*
X113672192Y-1665056D01*
X113672186Y-1665051D01*
X113522612Y-1572793D01*
X113355808Y-1517519D01*
X113355796Y-1517517D01*
X113252855Y-1507000D01*
X113000500Y-1507000D01*
X113000500Y-2248500D01*
X112492500Y-2248500D01*
X112492500Y-1507000D01*
X112240152Y-1507000D01*
X112137197Y-1517517D01*
X111970387Y-1572793D01*
X111820813Y-1665051D01*
X111820807Y-1665056D01*
X111696556Y-1789307D01*
X111696551Y-1789313D01*
X111604293Y-1938887D01*
X111549019Y-2105691D01*
X111549017Y-2105703D01*
X111538500Y-2208644D01*
X103794498Y-2208644D01*
X103783982Y-2105697D01*
X103728706Y-1938887D01*
X103636448Y-1789313D01*
X103636443Y-1789307D01*
X103512192Y-1665056D01*
X103512186Y-1665051D01*
X103362612Y-1572793D01*
X103195808Y-1517519D01*
X103195796Y-1517517D01*
X103092855Y-1507000D01*
X102840500Y-1507000D01*
X102840500Y-2248500D01*
X102332500Y-2248500D01*
X102332500Y-1507000D01*
X102080152Y-1507000D01*
X101977197Y-1517517D01*
X101810387Y-1572793D01*
X101660813Y-1665051D01*
X101660807Y-1665056D01*
X101536556Y-1789307D01*
X101536551Y-1789313D01*
X101444294Y-1938886D01*
X101436104Y-1963602D01*
X101395690Y-2021973D01*
X101330133Y-2049228D01*
X101260248Y-2036714D01*
X101208223Y-1988404D01*
X101196896Y-1963602D01*
X101188705Y-1938886D01*
X101096448Y-1789313D01*
X101096443Y-1789307D01*
X100972192Y-1665056D01*
X100972186Y-1665051D01*
X100822612Y-1572793D01*
X100655808Y-1517519D01*
X100655796Y-1517517D01*
X100552855Y-1507000D01*
X100300500Y-1507000D01*
X100300500Y-2630500D01*
X100280498Y-2698621D01*
X100226842Y-2745114D01*
X100174500Y-2756500D01*
X99918500Y-2756500D01*
X99850379Y-2736498D01*
X99803886Y-2682842D01*
X99792500Y-2630500D01*
X99792500Y-1507000D01*
X99540152Y-1507000D01*
X99437197Y-1517517D01*
X99270387Y-1572793D01*
X99120813Y-1665051D01*
X99120807Y-1665056D01*
X98996556Y-1789307D01*
X98996551Y-1789313D01*
X98904294Y-1938886D01*
X98896104Y-1963602D01*
X98855690Y-2021973D01*
X98790133Y-2049228D01*
X98720248Y-2036714D01*
X98668223Y-1988404D01*
X98656896Y-1963602D01*
X98648705Y-1938886D01*
X98556448Y-1789313D01*
X98556443Y-1789307D01*
X98432192Y-1665056D01*
X98432186Y-1665051D01*
X98282612Y-1572793D01*
X98115808Y-1517519D01*
X98115796Y-1517517D01*
X98012855Y-1507000D01*
X97760500Y-1507000D01*
X97760500Y-2630500D01*
X97740498Y-2698621D01*
X97686842Y-2745114D01*
X97634500Y-2756500D01*
X97378500Y-2756500D01*
X97310379Y-2736498D01*
X97263886Y-2682842D01*
X97252500Y-2630500D01*
X97252500Y-1507000D01*
X97000152Y-1507000D01*
X96897197Y-1517517D01*
X96730387Y-1572793D01*
X96580813Y-1665051D01*
X96580807Y-1665056D01*
X96456556Y-1789307D01*
X96456551Y-1789313D01*
X96364294Y-1938886D01*
X96356104Y-1963602D01*
X96315690Y-2021973D01*
X96250133Y-2049228D01*
X96180248Y-2036714D01*
X96128223Y-1988404D01*
X96116896Y-1963602D01*
X96108705Y-1938886D01*
X96016448Y-1789313D01*
X96016443Y-1789307D01*
X95892192Y-1665056D01*
X95892186Y-1665051D01*
X95742612Y-1572793D01*
X95575808Y-1517519D01*
X95575796Y-1517517D01*
X95472855Y-1507000D01*
X95220500Y-1507000D01*
X95220500Y-2630500D01*
X95200498Y-2698621D01*
X95146842Y-2745114D01*
X95094500Y-2756500D01*
X94838500Y-2756500D01*
X94770379Y-2736498D01*
X94723886Y-2682842D01*
X94712500Y-2630500D01*
X94712500Y-1507000D01*
X94460152Y-1507000D01*
X94357197Y-1517517D01*
X94190387Y-1572793D01*
X94040813Y-1665051D01*
X94040807Y-1665056D01*
X93916556Y-1789307D01*
X93916551Y-1789313D01*
X93824294Y-1938886D01*
X93816104Y-1963602D01*
X93775690Y-2021973D01*
X93710133Y-2049228D01*
X93640248Y-2036714D01*
X93588223Y-1988404D01*
X93576896Y-1963602D01*
X93568705Y-1938886D01*
X93476448Y-1789313D01*
X93476443Y-1789307D01*
X93352192Y-1665056D01*
X93352186Y-1665051D01*
X93202612Y-1572793D01*
X93035808Y-1517519D01*
X93035796Y-1517517D01*
X92932855Y-1507000D01*
X92680500Y-1507000D01*
X92680500Y-2630500D01*
X92660498Y-2698621D01*
X92606842Y-2745114D01*
X92554500Y-2756500D01*
X92298500Y-2756500D01*
X92230379Y-2736498D01*
X92183886Y-2682842D01*
X92172500Y-2630500D01*
X92172500Y-1507000D01*
X91920152Y-1507000D01*
X91817197Y-1517517D01*
X91650387Y-1572793D01*
X91500813Y-1665051D01*
X91500807Y-1665056D01*
X91376556Y-1789307D01*
X91376551Y-1789313D01*
X91284294Y-1938886D01*
X91276104Y-1963602D01*
X91235690Y-2021973D01*
X91170133Y-2049228D01*
X91100248Y-2036714D01*
X91048223Y-1988404D01*
X91036896Y-1963602D01*
X91028705Y-1938886D01*
X90936448Y-1789313D01*
X90936443Y-1789307D01*
X90812192Y-1665056D01*
X90812186Y-1665051D01*
X90662612Y-1572793D01*
X90495808Y-1517519D01*
X90495796Y-1517517D01*
X90392855Y-1507000D01*
X90140500Y-1507000D01*
X90140500Y-2630500D01*
X90120498Y-2698621D01*
X90066842Y-2745114D01*
X90014500Y-2756500D01*
X89758500Y-2756500D01*
X89690379Y-2736498D01*
X89643886Y-2682842D01*
X89632500Y-2630500D01*
X89632500Y-1507000D01*
X89380152Y-1507000D01*
X89277197Y-1517517D01*
X89110387Y-1572793D01*
X88960813Y-1665051D01*
X88960807Y-1665056D01*
X88836556Y-1789307D01*
X88836551Y-1789313D01*
X88744294Y-1938886D01*
X88736104Y-1963602D01*
X88695690Y-2021973D01*
X88630133Y-2049228D01*
X88560248Y-2036714D01*
X88508223Y-1988404D01*
X88496896Y-1963602D01*
X88488705Y-1938886D01*
X88396448Y-1789313D01*
X88396443Y-1789307D01*
X88272192Y-1665056D01*
X88272186Y-1665051D01*
X88122612Y-1572793D01*
X87955808Y-1517519D01*
X87955796Y-1517517D01*
X87852855Y-1507000D01*
X87600500Y-1507000D01*
X87600500Y-2630500D01*
X87580498Y-2698621D01*
X87526842Y-2745114D01*
X87474500Y-2756500D01*
X87218500Y-2756500D01*
X87150379Y-2736498D01*
X87103886Y-2682842D01*
X87092500Y-2630500D01*
X87092500Y-1507000D01*
X86840152Y-1507000D01*
X86737197Y-1517517D01*
X86570387Y-1572793D01*
X86420813Y-1665051D01*
X86420807Y-1665056D01*
X86296556Y-1789307D01*
X86296551Y-1789313D01*
X86204294Y-1938886D01*
X86196104Y-1963602D01*
X86155690Y-2021973D01*
X86090133Y-2049228D01*
X86020248Y-2036714D01*
X85968223Y-1988404D01*
X85956896Y-1963602D01*
X85948705Y-1938886D01*
X85856448Y-1789313D01*
X85856443Y-1789307D01*
X85732192Y-1665056D01*
X85732186Y-1665051D01*
X85582612Y-1572793D01*
X85415808Y-1517519D01*
X85415796Y-1517517D01*
X85312855Y-1507000D01*
X85060500Y-1507000D01*
X85060500Y-2630500D01*
X85040498Y-2698621D01*
X84986842Y-2745114D01*
X84934500Y-2756500D01*
X84678500Y-2756500D01*
X84610379Y-2736498D01*
X84563886Y-2682842D01*
X84552500Y-2630500D01*
X84552500Y-1507000D01*
X84300152Y-1507000D01*
X84197197Y-1517517D01*
X84030387Y-1572793D01*
X83880813Y-1665051D01*
X83880807Y-1665056D01*
X83756556Y-1789307D01*
X83756551Y-1789313D01*
X83664294Y-1938886D01*
X83656104Y-1963602D01*
X83615690Y-2021973D01*
X83550133Y-2049228D01*
X83480248Y-2036714D01*
X83428223Y-1988404D01*
X83416896Y-1963602D01*
X83408705Y-1938886D01*
X83316448Y-1789313D01*
X83316443Y-1789307D01*
X83192192Y-1665056D01*
X83192186Y-1665051D01*
X83042612Y-1572793D01*
X82875808Y-1517519D01*
X82875796Y-1517517D01*
X82772855Y-1507000D01*
X82520500Y-1507000D01*
X82520500Y-2630500D01*
X82500498Y-2698621D01*
X82446842Y-2745114D01*
X82394500Y-2756500D01*
X81058501Y-2756500D01*
X81058501Y-2796347D01*
X81069017Y-2899302D01*
X81124293Y-3066112D01*
X81216551Y-3215686D01*
X81216556Y-3215692D01*
X81340808Y-3339944D01*
X81341946Y-3340844D01*
X81342523Y-3341659D01*
X81346003Y-3345139D01*
X81345408Y-3345733D01*
X81382974Y-3398786D01*
X81386163Y-3469711D01*
X81350500Y-3531101D01*
X81341948Y-3538512D01*
X81340499Y-3539657D01*
X81216161Y-3663995D01*
X81216156Y-3664001D01*
X81123839Y-3813670D01*
X81068525Y-3980600D01*
X81058000Y-4083616D01*
X81058000Y-4671374D01*
X81068525Y-4774399D01*
X81068526Y-4774404D01*
X81116104Y-4917987D01*
X81123839Y-4941329D01*
X81216156Y-5090998D01*
X81216161Y-5091004D01*
X81340495Y-5215338D01*
X81340501Y-5215343D01*
X81340502Y-5215344D01*
X81490171Y-5307661D01*
X81508587Y-5313763D01*
X81566956Y-5354174D01*
X81594214Y-5419730D01*
X81581702Y-5489615D01*
X81533394Y-5541642D01*
X81508593Y-5552970D01*
X81493762Y-5557884D01*
X81342847Y-5650970D01*
X81342841Y-5650975D01*
X81217475Y-5776341D01*
X81217470Y-5776347D01*
X81124385Y-5927262D01*
X81068613Y-6095572D01*
X81068612Y-6095579D01*
X81058000Y-6199446D01*
X81058000Y-7000544D01*
X81068612Y-7104425D01*
X81124385Y-7272738D01*
X81217470Y-7423652D01*
X81217475Y-7423658D01*
X81304722Y-7510905D01*
X81338748Y-7573217D01*
X81333683Y-7644032D01*
X81304722Y-7689095D01*
X81217475Y-7776341D01*
X81217470Y-7776347D01*
X81124385Y-7927262D01*
X81068613Y-8095572D01*
X81068612Y-8095579D01*
X81058000Y-8199446D01*
X81058000Y-9000544D01*
X81068612Y-9104425D01*
X81124385Y-9272738D01*
X81217470Y-9423652D01*
X81217475Y-9423658D01*
X81342841Y-9549024D01*
X81342847Y-9549029D01*
X81342848Y-9549030D01*
X81493762Y-9642115D01*
X81546632Y-9659634D01*
X81605003Y-9700046D01*
X81632260Y-9765602D01*
X81633000Y-9779238D01*
X81633000Y-14813078D01*
X81612998Y-14881199D01*
X81566971Y-14923891D01*
X81520926Y-14948810D01*
X81520924Y-14948811D01*
X81343262Y-15087091D01*
X81190779Y-15252729D01*
X81190775Y-15252734D01*
X81067641Y-15441206D01*
X80977203Y-15647386D01*
X80977202Y-15647387D01*
X80921937Y-15865624D01*
X80921936Y-15865630D01*
X80921936Y-15865632D01*
X80903344Y-16090000D01*
X80325500Y-16090000D01*
X80325500Y-3093089D01*
X80325652Y-3086906D01*
X80334868Y-2899308D01*
X80341927Y-2755613D01*
X80343139Y-2743315D01*
X80391355Y-2418271D01*
X80393762Y-2406168D01*
X80443239Y-2208644D01*
X81058500Y-2208644D01*
X81058500Y-2248500D01*
X82012500Y-2248500D01*
X82012500Y-1507000D01*
X81760152Y-1507000D01*
X81657197Y-1517517D01*
X81490387Y-1572793D01*
X81340813Y-1665051D01*
X81340807Y-1665056D01*
X81216556Y-1789307D01*
X81216551Y-1789313D01*
X81124293Y-1938887D01*
X81069019Y-2105691D01*
X81069017Y-2105703D01*
X81058500Y-2208644D01*
X80443239Y-2208644D01*
X80473609Y-2087399D01*
X80477189Y-2075597D01*
X80587900Y-1766181D01*
X80592621Y-1754782D01*
X80733121Y-1457722D01*
X80738948Y-1446821D01*
X80907884Y-1164966D01*
X80914741Y-1154705D01*
X81110500Y-890756D01*
X81118317Y-881230D01*
X81339015Y-637726D01*
X81347726Y-629015D01*
X81591230Y-408317D01*
X81600756Y-400500D01*
X81864705Y-204741D01*
X81874966Y-197884D01*
X82156825Y-28945D01*
X82167726Y-23119D01*
X82464782Y117379D01*
X82476181Y122100D01*
X82785597Y232811D01*
X82797399Y236391D01*
X83116168Y316238D01*
X83128271Y318645D01*
X83453323Y366862D01*
X83465613Y368073D01*
X83796906Y384349D01*
X83803089Y384500D01*
X83808285Y384500D01*
X141791715Y384500D01*
X141796911Y384500D01*
X141803093Y384349D01*
G37*
%TD.AperFunction*%
%TD*%
M02*
