M48
; DRILL file {KiCad 8.0.2} date 2024-12-18T21:51:39-0600
; FORMAT={-:-/ absolute / inch / decimal}
; #@! TF.CreationDate,2024-12-18T21:51:39-06:00
; #@! TF.GenerationSoftware,Kicad,Pcbnew,8.0.2
; #@! TF.FileFunction,Plated,1,2,PTH
FMAT,2
INCH
; #@! TA.AperFunction,Plated,PTH,ViaDrill
T1C0.0098
; #@! TA.AperFunction,Plated,PTH,ViaDrill
T2C0.0157
; #@! TA.AperFunction,Plated,PTH,ComponentDrill
T3C0.0394
; #@! TA.AperFunction,Plated,PTH,ComponentDrill
T4C0.0406
; #@! TA.AperFunction,Plated,PTH,ComponentDrill
T5C0.1272
%
G90
G05
T1
X3.2984Y-1.2394
X3.4004Y-1.2413
X3.504Y-1.2324
X3.61Y-1.2275
X3.6981Y-1.2146
X3.7945Y-1.2264
X3.9709Y-1.3327
X3.9753Y-1.1428
X4.0358Y-1.2376
X4.0638Y-1.25
X4.1055Y-1.2433
X4.1713Y-1.2453
X4.2657Y-1.2472
X4.3354Y-1.2453
X4.3698Y-1.2475
X4.5091Y-1.2941
X4.6137Y-1.2474
X4.6777Y-1.287
X4.785Y-1.2425
X4.8925Y-1.2155
X4.9227Y-1.2499
X4.9752Y-1.2435
X4.9894Y-1.2972
X5.0716Y-1.2453
X5.1346Y-1.2762
X5.1795Y-1.1386
X5.2753Y-1.2264
X5.3476Y-1.286
X5.3959Y-1.2253
X5.4862Y-1.2264
X5.5906Y-1.2291
T2
X3.2976Y-0.4713
X3.3969Y-0.4713
X3.4962Y-0.4713
X3.5955Y-0.4713
X3.6948Y-0.4713
X3.794Y-0.4713
X3.8933Y-0.4713
X3.9513Y-1.4063
X3.9926Y-0.4713
X4.0919Y-0.4713
X4.1083Y-0.0988
X4.1912Y-0.4713
X4.2904Y-0.4713
X4.3835Y-0.1028
X4.3897Y-0.4713
X4.489Y-0.4713
X4.5883Y-0.4713
X4.6717Y-0.1028
X4.6876Y-0.4713
X4.7869Y-0.4713
X4.8693Y-0.1028
X4.8861Y-0.4713
X4.9854Y-0.4713
X5.0847Y-0.4713
X5.184Y-0.4713
X5.2833Y-0.4713
X5.3825Y-0.4713
X5.4818Y-0.4713
X5.5811Y-0.4713
T3
X3.2388Y-0.6335
X3.2388Y-0.7335
X3.2388Y-1.0888
X3.2388Y-1.1888
X3.3388Y-0.6335
X3.3388Y-0.7335
X3.3388Y-1.0888
X3.3388Y-1.1888
X3.4388Y-0.6335
X3.4388Y-0.7335
X3.4388Y-1.0888
X3.4388Y-1.1888
X3.5388Y-0.6335
X3.5388Y-0.7335
X3.5388Y-1.0888
X3.5388Y-1.1888
X3.6388Y-0.6335
X3.6388Y-0.7335
X3.6388Y-1.0888
X3.6388Y-1.1888
X3.7388Y-0.6335
X3.7388Y-0.7335
X3.7388Y-1.0888
X3.7388Y-1.1888
X3.8388Y-0.6335
X3.8388Y-0.7335
X3.8388Y-1.0888
X3.8388Y-1.1888
X3.9388Y-0.6335
X3.9388Y-0.7335
X3.9388Y-1.0888
X3.9388Y-1.1888
X4.0388Y-0.6335
X4.0388Y-0.7335
X4.0388Y-1.0888
X4.0388Y-1.1888
X4.1388Y-0.6335
X4.1388Y-0.7335
X4.1388Y-1.0888
X4.1388Y-1.1888
X4.2388Y-0.6335
X4.2388Y-0.7335
X4.2388Y-1.0888
X4.2388Y-1.1888
X4.3388Y-0.6335
X4.3388Y-0.7335
X4.3388Y-1.0888
X4.3388Y-1.1888
X4.4388Y-0.6335
X4.4388Y-0.7335
X4.4388Y-1.0888
X4.4388Y-1.1888
X4.5388Y-0.6335
X4.5388Y-0.7335
X4.5388Y-1.0888
X4.5388Y-1.1888
X4.6388Y-0.6335
X4.6388Y-0.7335
X4.6388Y-1.0888
X4.6388Y-1.1888
X4.7388Y-0.6335
X4.7388Y-0.7335
X4.7388Y-1.0888
X4.7388Y-1.1888
X4.8388Y-0.6335
X4.8388Y-0.7335
X4.8388Y-1.0888
X4.8388Y-1.1888
X4.9388Y-0.6335
X4.9388Y-0.7335
X4.9388Y-1.0888
X4.9388Y-1.1888
X5.0388Y-0.6335
X5.0388Y-0.7335
X5.0388Y-1.0888
X5.0388Y-1.1888
X5.1388Y-0.6335
X5.1388Y-0.7335
X5.1388Y-1.0888
X5.1388Y-1.1888
X5.2388Y-0.6335
X5.2388Y-0.7335
X5.2388Y-1.0888
X5.2388Y-1.1888
X5.3388Y-0.6335
X5.3388Y-0.7335
X5.3388Y-1.0888
X5.3388Y-1.1888
X5.4388Y-0.6335
X5.4388Y-0.7335
X5.4388Y-1.0888
X5.4388Y-1.1888
X5.5388Y-0.6335
X5.5388Y-0.7335
X5.5388Y-1.0888
X5.5388Y-1.1888
X5.6388Y-0.6335
X5.6388Y-0.7335
X5.6388Y-1.0888
X5.6388Y-1.1888
T4
X3.7866Y-1.3713
X3.8411Y-1.4831
X3.8957Y-1.3713
X3.9502Y-1.4831
X4.0047Y-1.3713
X4.0593Y-1.4831
X4.1138Y-1.3713
X4.1683Y-1.4831
X4.2228Y-1.3713
X4.2774Y-1.4831
X4.3319Y-1.3713
X4.3864Y-1.4831
X4.4409Y-1.3713
X4.4955Y-1.4831
X4.55Y-1.3713
X4.6045Y-1.4831
X4.6591Y-1.3713
X4.7136Y-1.4831
X4.7681Y-1.3713
X4.8226Y-1.4831
X4.8772Y-1.3713
X4.9317Y-1.4831
X4.9862Y-1.3713
X5.0407Y-1.4831
X5.0953Y-1.3713
T5
X3.515Y-1.4272
X5.3669Y-1.4272
M30
