%TF.GenerationSoftware,KiCad,Pcbnew,8.0.2*%
%TF.CreationDate,2024-12-18T21:51:39-06:00*%
%TF.ProjectId,daisy_chain_board,64616973-795f-4636-9861-696e5f626f61,rev?*%
%TF.SameCoordinates,Original*%
%TF.FileFunction,Copper,L2,Bot*%
%TF.FilePolarity,Positive*%
%FSLAX46Y46*%
G04 Gerber Fmt 4.6, Leading zero omitted, Abs format (unit mm)*
G04 Created by KiCad (PCBNEW 8.0.2) date 2024-12-18 21:51:39*
%MOMM*%
%LPD*%
G01*
G04 APERTURE LIST*
%ADD10C,0.150000*%
%TA.AperFunction,NonConductor*%
%ADD11C,0.150000*%
%TD*%
%TA.AperFunction,ComponentPad*%
%ADD12R,1.700000X1.700000*%
%TD*%
%TA.AperFunction,ComponentPad*%
%ADD13O,1.700000X1.700000*%
%TD*%
%TA.AperFunction,ComponentPad*%
%ADD14C,1.545000*%
%TD*%
%TA.AperFunction,ComponentPad*%
%ADD15C,4.845000*%
%TD*%
%TA.AperFunction,ViaPad*%
%ADD16C,0.800000*%
%TD*%
%TA.AperFunction,ViaPad*%
%ADD17C,0.500000*%
%TD*%
%TA.AperFunction,Conductor*%
%ADD18C,0.400000*%
%TD*%
%TA.AperFunction,Conductor*%
%ADD19C,0.200000*%
%TD*%
%TA.AperFunction,Conductor*%
%ADD20C,0.150000*%
%TD*%
G04 APERTURE END LIST*
D10*
D11*
X81351009Y-35723333D02*
X81398628Y-35866190D01*
X81398628Y-35866190D02*
X81446247Y-35913809D01*
X81446247Y-35913809D02*
X81541485Y-35961428D01*
X81541485Y-35961428D02*
X81684342Y-35961428D01*
X81684342Y-35961428D02*
X81779580Y-35913809D01*
X81779580Y-35913809D02*
X81827200Y-35866190D01*
X81827200Y-35866190D02*
X81874819Y-35770952D01*
X81874819Y-35770952D02*
X81874819Y-35390000D01*
X81874819Y-35390000D02*
X80874819Y-35390000D01*
X80874819Y-35390000D02*
X80874819Y-35723333D01*
X80874819Y-35723333D02*
X80922438Y-35818571D01*
X80922438Y-35818571D02*
X80970057Y-35866190D01*
X80970057Y-35866190D02*
X81065295Y-35913809D01*
X81065295Y-35913809D02*
X81160533Y-35913809D01*
X81160533Y-35913809D02*
X81255771Y-35866190D01*
X81255771Y-35866190D02*
X81303390Y-35818571D01*
X81303390Y-35818571D02*
X81351009Y-35723333D01*
X81351009Y-35723333D02*
X81351009Y-35390000D01*
X81589104Y-36342381D02*
X81589104Y-36818571D01*
X81874819Y-36247143D02*
X80874819Y-36580476D01*
X80874819Y-36580476D02*
X81874819Y-36913809D01*
X81874819Y-37247143D02*
X80874819Y-37247143D01*
X80874819Y-37247143D02*
X80874819Y-37485238D01*
X80874819Y-37485238D02*
X80922438Y-37628095D01*
X80922438Y-37628095D02*
X81017676Y-37723333D01*
X81017676Y-37723333D02*
X81112914Y-37770952D01*
X81112914Y-37770952D02*
X81303390Y-37818571D01*
X81303390Y-37818571D02*
X81446247Y-37818571D01*
X81446247Y-37818571D02*
X81636723Y-37770952D01*
X81636723Y-37770952D02*
X81731961Y-37723333D01*
X81731961Y-37723333D02*
X81827200Y-37628095D01*
X81827200Y-37628095D02*
X81874819Y-37485238D01*
X81874819Y-37485238D02*
X81874819Y-37247143D01*
X80874819Y-38913810D02*
X81874819Y-39151905D01*
X81874819Y-39151905D02*
X81160533Y-39342381D01*
X81160533Y-39342381D02*
X81874819Y-39532857D01*
X81874819Y-39532857D02*
X80874819Y-39770953D01*
X80874819Y-40342381D02*
X80874819Y-40532857D01*
X80874819Y-40532857D02*
X80922438Y-40628095D01*
X80922438Y-40628095D02*
X81017676Y-40723333D01*
X81017676Y-40723333D02*
X81208152Y-40770952D01*
X81208152Y-40770952D02*
X81541485Y-40770952D01*
X81541485Y-40770952D02*
X81731961Y-40723333D01*
X81731961Y-40723333D02*
X81827200Y-40628095D01*
X81827200Y-40628095D02*
X81874819Y-40532857D01*
X81874819Y-40532857D02*
X81874819Y-40342381D01*
X81874819Y-40342381D02*
X81827200Y-40247143D01*
X81827200Y-40247143D02*
X81731961Y-40151905D01*
X81731961Y-40151905D02*
X81541485Y-40104286D01*
X81541485Y-40104286D02*
X81208152Y-40104286D01*
X81208152Y-40104286D02*
X81017676Y-40151905D01*
X81017676Y-40151905D02*
X80922438Y-40247143D01*
X80922438Y-40247143D02*
X80874819Y-40342381D01*
X81874819Y-41675714D02*
X81874819Y-41199524D01*
X81874819Y-41199524D02*
X80874819Y-41199524D01*
X81351009Y-42342381D02*
X81351009Y-42009048D01*
X81874819Y-42009048D02*
X80874819Y-42009048D01*
X80874819Y-42009048D02*
X80874819Y-42485238D01*
D12*
%TO.P,J7,1,Pin_1*%
%TO.N,GND*%
X82266500Y-30194500D03*
D13*
%TO.P,J7,2,Pin_2*%
%TO.N,C-D0*%
X82266500Y-27654500D03*
%TO.P,J7,3,Pin_3*%
%TO.N,GND*%
X84806500Y-30194500D03*
%TO.P,J7,4,Pin_4*%
%TO.N,C-D1*%
X84806500Y-27654500D03*
%TO.P,J7,5,Pin_5*%
%TO.N,GND*%
X87346500Y-30194500D03*
%TO.P,J7,6,Pin_6*%
%TO.N,C-D2*%
X87346500Y-27654500D03*
%TO.P,J7,7,Pin_7*%
%TO.N,GND*%
X89886500Y-30194500D03*
%TO.P,J7,8,Pin_8*%
%TO.N,C-D3*%
X89886500Y-27654500D03*
%TO.P,J7,9,Pin_9*%
%TO.N,GND*%
X92426500Y-30194500D03*
%TO.P,J7,10,Pin_10*%
%TO.N,C-D4*%
X92426500Y-27654500D03*
%TO.P,J7,11,Pin_11*%
%TO.N,GND*%
X94966500Y-30194500D03*
%TO.P,J7,12,Pin_12*%
%TO.N,C-D5*%
X94966500Y-27654500D03*
%TO.P,J7,13,Pin_13*%
%TO.N,GND*%
X97506500Y-30194500D03*
%TO.P,J7,14,Pin_14*%
%TO.N,C-D6*%
X97506500Y-27654500D03*
%TO.P,J7,15,Pin_15*%
%TO.N,GND*%
X100046500Y-30194500D03*
%TO.P,J7,16,Pin_16*%
%TO.N,C-D7*%
X100046500Y-27654500D03*
%TO.P,J7,17,Pin_17*%
%TO.N,GND*%
X102586500Y-30194500D03*
%TO.P,J7,18,Pin_18*%
%TO.N,C-DP*%
X102586500Y-27654500D03*
%TO.P,J7,19,Pin_19*%
%TO.N,GND*%
X105126500Y-30194500D03*
%TO.P,J7,20,Pin_20*%
X105126500Y-27654500D03*
%TO.P,J7,21,Pin_21*%
X107666500Y-30194500D03*
%TO.P,J7,22,Pin_22*%
X107666500Y-27654500D03*
%TO.P,J7,23,Pin_23*%
X110206500Y-30194500D03*
%TO.P,J7,24,Pin_24*%
X110206500Y-27654500D03*
%TO.P,J7,25,Pin_25*%
%TO.N,unconnected-(J7-Pin_25-Pad25)*%
X112746500Y-30194500D03*
%TO.P,J7,26,Pin_26*%
%TO.N,TERMPOW*%
X112746500Y-27654500D03*
%TO.P,J7,27,Pin_27*%
%TO.N,GND*%
X115286500Y-30194500D03*
%TO.P,J7,28,Pin_28*%
X115286500Y-27654500D03*
%TO.P,J7,29,Pin_29*%
X117826500Y-30194500D03*
%TO.P,J7,30,Pin_30*%
X117826500Y-27654500D03*
%TO.P,J7,31,Pin_31*%
X120366500Y-30194500D03*
%TO.P,J7,32,Pin_32*%
%TO.N,C-ATN*%
X120366500Y-27654500D03*
%TO.P,J7,33,Pin_33*%
%TO.N,GND*%
X122906500Y-30194500D03*
%TO.P,J7,34,Pin_34*%
%TO.N,unconnected-(J7-Pin_34-Pad34)*%
X122906500Y-27654500D03*
%TO.P,J7,35,Pin_35*%
%TO.N,GND*%
X125446500Y-30194500D03*
%TO.P,J7,36,Pin_36*%
%TO.N,C-BSY*%
X125446500Y-27654500D03*
%TO.P,J7,37,Pin_37*%
%TO.N,GND*%
X127986500Y-30194500D03*
%TO.P,J7,38,Pin_38*%
%TO.N,C-ACK*%
X127986500Y-27654500D03*
%TO.P,J7,39,Pin_39*%
%TO.N,GND*%
X130526500Y-30194500D03*
%TO.P,J7,40,Pin_40*%
%TO.N,C-RST*%
X130526500Y-27654500D03*
%TO.P,J7,41,Pin_41*%
%TO.N,GND*%
X133066500Y-30194500D03*
%TO.P,J7,42,Pin_42*%
%TO.N,C-MSG*%
X133066500Y-27654500D03*
%TO.P,J7,43,Pin_43*%
%TO.N,GND*%
X135606500Y-30194500D03*
%TO.P,J7,44,Pin_44*%
%TO.N,C-SEL*%
X135606500Y-27654500D03*
%TO.P,J7,45,Pin_45*%
%TO.N,GND*%
X138146500Y-30194500D03*
%TO.P,J7,46,Pin_46*%
%TO.N,C-C_D*%
X138146500Y-27654500D03*
%TO.P,J7,47,Pin_47*%
%TO.N,GND*%
X140686500Y-30194500D03*
%TO.P,J7,48,Pin_48*%
%TO.N,C-REQ*%
X140686500Y-27654500D03*
%TO.P,J7,49,Pin_49*%
%TO.N,GND*%
X143226500Y-30194500D03*
%TO.P,J7,50,Pin_50*%
%TO.N,C-I_O*%
X143226500Y-27654500D03*
%TD*%
D12*
%TO.P,J1,1,Pin_1*%
%TO.N,GND*%
X82266500Y-18630000D03*
D13*
%TO.P,J1,2,Pin_2*%
%TO.N,C-D0*%
X82266500Y-16090000D03*
%TO.P,J1,3,Pin_3*%
%TO.N,GND*%
X84806500Y-18630000D03*
%TO.P,J1,4,Pin_4*%
%TO.N,C-D1*%
X84806500Y-16090000D03*
%TO.P,J1,5,Pin_5*%
%TO.N,GND*%
X87346500Y-18630000D03*
%TO.P,J1,6,Pin_6*%
%TO.N,C-D2*%
X87346500Y-16090000D03*
%TO.P,J1,7,Pin_7*%
%TO.N,GND*%
X89886500Y-18630000D03*
%TO.P,J1,8,Pin_8*%
%TO.N,C-D3*%
X89886500Y-16090000D03*
%TO.P,J1,9,Pin_9*%
%TO.N,GND*%
X92426500Y-18630000D03*
%TO.P,J1,10,Pin_10*%
%TO.N,C-D4*%
X92426500Y-16090000D03*
%TO.P,J1,11,Pin_11*%
%TO.N,GND*%
X94966500Y-18630000D03*
%TO.P,J1,12,Pin_12*%
%TO.N,C-D5*%
X94966500Y-16090000D03*
%TO.P,J1,13,Pin_13*%
%TO.N,GND*%
X97506500Y-18630000D03*
%TO.P,J1,14,Pin_14*%
%TO.N,C-D6*%
X97506500Y-16090000D03*
%TO.P,J1,15,Pin_15*%
%TO.N,GND*%
X100046500Y-18630000D03*
%TO.P,J1,16,Pin_16*%
%TO.N,C-D7*%
X100046500Y-16090000D03*
%TO.P,J1,17,Pin_17*%
%TO.N,GND*%
X102586500Y-18630000D03*
%TO.P,J1,18,Pin_18*%
%TO.N,C-DP*%
X102586500Y-16090000D03*
%TO.P,J1,19,Pin_19*%
%TO.N,GND*%
X105126500Y-18630000D03*
%TO.P,J1,20,Pin_20*%
X105126500Y-16090000D03*
%TO.P,J1,21,Pin_21*%
X107666500Y-18630000D03*
%TO.P,J1,22,Pin_22*%
X107666500Y-16090000D03*
%TO.P,J1,23,Pin_23*%
X110206500Y-18630000D03*
%TO.P,J1,24,Pin_24*%
X110206500Y-16090000D03*
%TO.P,J1,25,Pin_25*%
%TO.N,unconnected-(J1-Pin_25-Pad25)*%
X112746500Y-18630000D03*
%TO.P,J1,26,Pin_26*%
%TO.N,TERMPOW*%
X112746500Y-16090000D03*
%TO.P,J1,27,Pin_27*%
%TO.N,GND*%
X115286500Y-18630000D03*
%TO.P,J1,28,Pin_28*%
X115286500Y-16090000D03*
%TO.P,J1,29,Pin_29*%
X117826500Y-18630000D03*
%TO.P,J1,30,Pin_30*%
X117826500Y-16090000D03*
%TO.P,J1,31,Pin_31*%
X120366500Y-18630000D03*
%TO.P,J1,32,Pin_32*%
%TO.N,C-ATN*%
X120366500Y-16090000D03*
%TO.P,J1,33,Pin_33*%
%TO.N,GND*%
X122906500Y-18630000D03*
%TO.P,J1,34,Pin_34*%
%TO.N,unconnected-(J1-Pin_34-Pad34)*%
X122906500Y-16090000D03*
%TO.P,J1,35,Pin_35*%
%TO.N,GND*%
X125446500Y-18630000D03*
%TO.P,J1,36,Pin_36*%
%TO.N,C-BSY*%
X125446500Y-16090000D03*
%TO.P,J1,37,Pin_37*%
%TO.N,GND*%
X127986500Y-18630000D03*
%TO.P,J1,38,Pin_38*%
%TO.N,C-ACK*%
X127986500Y-16090000D03*
%TO.P,J1,39,Pin_39*%
%TO.N,GND*%
X130526500Y-18630000D03*
%TO.P,J1,40,Pin_40*%
%TO.N,C-RST*%
X130526500Y-16090000D03*
%TO.P,J1,41,Pin_41*%
%TO.N,GND*%
X133066500Y-18630000D03*
%TO.P,J1,42,Pin_42*%
%TO.N,C-MSG*%
X133066500Y-16090000D03*
%TO.P,J1,43,Pin_43*%
%TO.N,GND*%
X135606500Y-18630000D03*
%TO.P,J1,44,Pin_44*%
%TO.N,C-SEL*%
X135606500Y-16090000D03*
%TO.P,J1,45,Pin_45*%
%TO.N,GND*%
X138146500Y-18630000D03*
%TO.P,J1,46,Pin_46*%
%TO.N,C-C_D*%
X138146500Y-16090000D03*
%TO.P,J1,47,Pin_47*%
%TO.N,GND*%
X140686500Y-18630000D03*
%TO.P,J1,48,Pin_48*%
%TO.N,C-REQ*%
X140686500Y-16090000D03*
%TO.P,J1,49,Pin_49*%
%TO.N,GND*%
X143226500Y-18630000D03*
%TO.P,J1,50,Pin_50*%
%TO.N,C-I_O*%
X143226500Y-16090000D03*
%TD*%
D14*
%TO.P,J8,1,1*%
%TO.N,C-REQ*%
X129420000Y-34830000D03*
%TO.P,J8,2,2*%
%TO.N,C-MSG*%
X126650000Y-34830000D03*
%TO.P,J8,3,3*%
%TO.N,C-I_O*%
X123880000Y-34830000D03*
%TO.P,J8,4,4*%
%TO.N,C-RST*%
X121110000Y-34830000D03*
%TO.P,J8,5,5*%
%TO.N,C-ACK*%
X118340000Y-34830000D03*
%TO.P,J8,6,6*%
%TO.N,C-BSY*%
X115570000Y-34830000D03*
%TO.P,J8,7,7*%
%TO.N,GND*%
X112800000Y-34830000D03*
%TO.P,J8,8,8*%
%TO.N,C-D0*%
X110030000Y-34830000D03*
%TO.P,J8,9,9*%
%TO.N,GND*%
X107260000Y-34830000D03*
%TO.P,J8,10,10*%
%TO.N,C-D3*%
X104490000Y-34830000D03*
%TO.P,J8,11,11*%
%TO.N,C-D5*%
X101720000Y-34830000D03*
%TO.P,J8,12,12*%
%TO.N,C-D6*%
X98950000Y-34830000D03*
%TO.P,J8,13,13*%
%TO.N,C-D7*%
X96180000Y-34830000D03*
%TO.P,J8,14,14*%
%TO.N,GND*%
X128035000Y-37670000D03*
%TO.P,J8,15,15*%
%TO.N,C-C_D*%
X125265000Y-37670000D03*
%TO.P,J8,16,16*%
%TO.N,GND*%
X122495000Y-37670000D03*
%TO.P,J8,17,17*%
%TO.N,C-ATN*%
X119725000Y-37670000D03*
%TO.P,J8,18,18*%
%TO.N,GND*%
X116955000Y-37670000D03*
%TO.P,J8,19,19*%
%TO.N,C-SEL*%
X114185000Y-37670000D03*
%TO.P,J8,20,20*%
%TO.N,C-DP*%
X111415000Y-37670000D03*
%TO.P,J8,21,21*%
%TO.N,C-D1*%
X108645000Y-37670000D03*
%TO.P,J8,22,22*%
%TO.N,C-D2*%
X105875000Y-37670000D03*
%TO.P,J8,23,23*%
%TO.N,C-D4*%
X103105000Y-37670000D03*
%TO.P,J8,24,24*%
%TO.N,GND*%
X100335000Y-37670000D03*
%TO.P,J8,25,25*%
%TO.N,TERMPOW*%
X97565000Y-37670000D03*
D15*
%TO.P,J8,MH1,MH1*%
%TO.N,GND*%
X136320000Y-36250000D03*
%TO.P,J8,MH2,MH2*%
X89280000Y-36250000D03*
%TD*%
D16*
%TO.N,GND*%
X126629563Y-11970000D03*
X116542607Y-11970000D03*
X123680000Y-2610000D03*
X129151302Y-11970000D03*
X104350000Y-2510000D03*
X131673041Y-11970000D03*
X111499129Y-11970000D03*
X136716519Y-11970000D03*
X108977390Y-11970000D03*
X101412173Y-11970000D03*
X118660000Y-2610000D03*
X103933912Y-11970000D03*
X91325217Y-11970000D03*
X134194780Y-11970000D03*
X111340000Y-2610000D03*
X86281739Y-11970000D03*
X124107824Y-11970000D03*
X83760000Y-11970000D03*
X93846956Y-11970000D03*
X106455651Y-11970000D03*
X121586085Y-11970000D03*
X100364000Y-35719000D03*
X96368695Y-11970000D03*
X114020868Y-11970000D03*
X98890434Y-11970000D03*
X139238258Y-11970000D03*
X141760000Y-11970000D03*
X119064346Y-11970000D03*
X88803478Y-11970000D03*
D17*
%TO.N,C-REQ*%
X130419308Y-32414713D03*
X139350000Y-31150000D03*
%TO.N,C-MSG*%
X128817950Y-31630159D03*
X133993502Y-31150000D03*
%TO.N,C-BSY*%
X124270000Y-30872990D03*
X117187010Y-31684832D03*
%TO.N,C-SEL*%
X135828947Y-32665648D03*
X114530000Y-32870000D03*
%TO.N,C-RST*%
X121540000Y-31560000D03*
X131560000Y-28920000D03*
%TO.N,C-ACK*%
X118812489Y-32689064D03*
X126730000Y-32950000D03*
%TO.N,C-DP*%
X100860000Y-33850000D03*
X110992489Y-31685265D03*
%TO.N,C-D0*%
X110120000Y-31630000D03*
X83780000Y-31480000D03*
%TO.N,C-D1*%
X108350000Y-31680000D03*
X86370000Y-31530000D03*
%TO.N,C-D2*%
X105950000Y-31630000D03*
X89002424Y-31302989D03*
%TO.N,C-D3*%
X104280000Y-31580000D03*
X91693529Y-31178968D03*
%TO.N,C-D4*%
X103220000Y-31750000D03*
X93930504Y-30851957D03*
%TO.N,C-D5*%
X96380000Y-31150000D03*
X102510000Y-31434946D03*
%TO.N,C-D6*%
X100973502Y-29027449D03*
%TO.N,C-I_O*%
X125036247Y-31748511D03*
X142000000Y-31220000D03*
%TO.N,C-C_D*%
X126371042Y-31585360D03*
X137054940Y-31121502D03*
%TD*%
D18*
%TO.N,GND*%
X112801600Y-37912262D02*
X112801600Y-34830000D01*
X107666500Y-34425100D02*
X107261600Y-34830000D01*
X130253962Y-25640000D02*
X129340000Y-25640000D01*
X133066500Y-30194500D02*
X132216501Y-29344501D01*
X112801600Y-32679400D02*
X112801600Y-34830000D01*
X132216501Y-29344501D02*
X132216501Y-28546463D01*
X131703501Y-28033463D02*
X131703501Y-27089539D01*
X129349499Y-25649499D02*
X129340000Y-25640000D01*
X108118839Y-38769501D02*
X111944361Y-38769501D01*
X129349499Y-29017499D02*
X129349499Y-25649499D01*
X122906500Y-31396581D02*
X122496600Y-31806481D01*
X131703501Y-27089539D02*
X130253962Y-25640000D01*
X122496600Y-31806481D02*
X122496600Y-37670000D01*
X111944361Y-38769501D02*
X112801600Y-37912262D01*
X107261600Y-37912262D02*
X108118839Y-38769501D01*
X107666500Y-30194500D02*
X107666500Y-34425100D01*
X107261600Y-34830000D02*
X107261600Y-37912262D01*
X132216501Y-28546463D02*
X131703501Y-28033463D01*
X115286500Y-30194500D02*
X112801600Y-32679400D01*
X130526500Y-30194500D02*
X129349499Y-29017499D01*
X122906500Y-30194500D02*
X122906500Y-31396581D01*
D19*
%TO.N,C-REQ*%
X139350000Y-28991000D02*
X140686500Y-27654500D01*
X129421600Y-33412421D02*
X130419308Y-32414713D01*
X139350000Y-31150000D02*
X139350000Y-28991000D01*
X129421600Y-34830000D02*
X129421600Y-33412421D01*
%TO.N,C-MSG*%
X126651600Y-34830000D02*
X128817950Y-32663650D01*
X128817950Y-32663650D02*
X128817950Y-31630159D01*
X133993502Y-30796447D02*
X133993502Y-31150000D01*
X134143501Y-28731501D02*
X134143501Y-30646448D01*
X133066500Y-27654500D02*
X134143501Y-28731501D01*
X134143501Y-30646448D02*
X133993502Y-30796447D01*
%TO.N,C-BSY*%
X117187010Y-32191212D02*
X117187010Y-31684832D01*
X124270000Y-28831000D02*
X124270000Y-30872990D01*
X115571600Y-34830000D02*
X116344099Y-34057501D01*
X116344099Y-34057501D02*
X116344099Y-33034123D01*
X116344099Y-33034123D02*
X117187010Y-32191212D01*
X125446500Y-27654500D02*
X124270000Y-28831000D01*
%TO.N,C-SEL*%
X134470512Y-31307213D02*
X135828947Y-32665648D01*
X114530000Y-32870000D02*
X114186600Y-33213400D01*
X114186600Y-33213400D02*
X114186600Y-37670000D01*
X135606500Y-27654500D02*
X134470512Y-28790488D01*
X134470512Y-28790488D02*
X134470512Y-31307213D01*
D20*
%TO.N,C-RST*%
X131560000Y-28688000D02*
X131560000Y-28920000D01*
D19*
X121111600Y-31988400D02*
X121540000Y-31560000D01*
X121111600Y-34830000D02*
X121111600Y-31988400D01*
D20*
X130526500Y-27654500D02*
X131560000Y-28688000D01*
D19*
%TO.N,C-ACK*%
X126909499Y-32770501D02*
X126730000Y-32950000D01*
X118341600Y-33159953D02*
X118812489Y-32689064D01*
X127986500Y-27654500D02*
X126909499Y-28731501D01*
X118341600Y-34830000D02*
X118341600Y-33159953D01*
X126909499Y-28731501D02*
X126909499Y-32770501D01*
%TO.N,C-ATN*%
X120366500Y-27654500D02*
X119289499Y-28731501D01*
X119726600Y-34924262D02*
X119726600Y-37670000D01*
X119289499Y-34487161D02*
X119726600Y-34924262D01*
X119289499Y-28731501D02*
X119289499Y-34487161D01*
%TO.N,C-DP*%
X101450512Y-33259488D02*
X101450512Y-28790488D01*
X110992489Y-31685265D02*
X111416600Y-32109376D01*
X100860000Y-33850000D02*
X101450512Y-33259488D01*
X101450512Y-28790488D02*
X102586500Y-27654500D01*
X111416600Y-37670000D02*
X111416600Y-32109376D01*
%TO.N,C-D0*%
X110120000Y-31630000D02*
X110120000Y-34741600D01*
X82266500Y-27654500D02*
X83343501Y-28731501D01*
X83343501Y-28731501D02*
X83343501Y-31043501D01*
X83343501Y-31043501D02*
X83780000Y-31480000D01*
%TO.N,C-D1*%
X85883501Y-31043501D02*
X86370000Y-31530000D01*
X108350000Y-31680000D02*
X108350000Y-37373400D01*
X84806500Y-27654500D02*
X85883501Y-28731501D01*
X85883501Y-28731501D02*
X85883501Y-31043501D01*
%TO.N,C-D2*%
X88423501Y-30724066D02*
X89002424Y-31302989D01*
X87346500Y-27654500D02*
X88423501Y-28731501D01*
X105950000Y-31630000D02*
X105950000Y-37596600D01*
X88423501Y-28731501D02*
X88423501Y-30724066D01*
%TO.N,C-D3*%
X104280000Y-31580000D02*
X104280000Y-34618400D01*
X90963501Y-28731501D02*
X90963501Y-30448940D01*
X90963501Y-30448940D02*
X91693529Y-31178968D01*
X89886500Y-27654500D02*
X90963501Y-28731501D01*
%TO.N,C-D4*%
X92426500Y-27654500D02*
X93503501Y-28731501D01*
X93503501Y-30424954D02*
X93930504Y-30851957D01*
X103220000Y-31750000D02*
X103220000Y-37556600D01*
X93503501Y-28731501D02*
X93503501Y-30424954D01*
%TO.N,C-D5*%
X102510000Y-34041600D02*
X102510000Y-31434946D01*
X94966500Y-27654500D02*
X96380000Y-29068000D01*
X101721600Y-34830000D02*
X102510000Y-34041600D01*
X96380000Y-29068000D02*
X96380000Y-31150000D01*
%TO.N,C-D6*%
X101123501Y-32658099D02*
X101123501Y-29531001D01*
X100973502Y-29381002D02*
X100973502Y-29027449D01*
X101123501Y-29531001D02*
X100973502Y-29381002D01*
X98951600Y-34830000D02*
X101123501Y-32658099D01*
%TO.N,C-D7*%
X98969499Y-28731501D02*
X98969499Y-32042101D01*
X100046500Y-27654500D02*
X98969499Y-28731501D01*
X98969499Y-32042101D02*
X96181600Y-34830000D01*
%TO.N,C-I_O*%
X123881600Y-32903158D02*
X125036247Y-31748511D01*
X142000000Y-28881000D02*
X143226500Y-27654500D01*
X123881600Y-34830000D02*
X123881600Y-32903158D01*
X142000000Y-31220000D02*
X142000000Y-28881000D01*
%TO.N,C-C_D*%
X126301830Y-31568978D02*
X126354660Y-31568978D01*
X138146500Y-27654500D02*
X137054940Y-28746060D01*
X125266600Y-37670000D02*
X125266600Y-32604208D01*
X125266600Y-32604208D02*
X126301830Y-31568978D01*
X126354660Y-31568978D02*
X126371042Y-31585360D01*
X137054940Y-28746060D02*
X137054940Y-31121502D01*
%TD*%
%TA.AperFunction,Conductor*%
%TO.N,GND*%
G36*
X117004599Y-34981508D02*
G01*
X117059346Y-35026711D01*
X117076704Y-35064718D01*
X117098542Y-35146217D01*
X117131655Y-35269799D01*
X117131657Y-35269804D01*
X117226383Y-35472945D01*
X117226384Y-35472947D01*
X117354945Y-35656551D01*
X117354952Y-35656560D01*
X117513439Y-35815047D01*
X117513443Y-35815050D01*
X117513444Y-35815051D01*
X117697053Y-35943616D01*
X117900199Y-36038344D01*
X118116707Y-36096357D01*
X118340000Y-36115893D01*
X118563293Y-36096357D01*
X118779801Y-36038344D01*
X118938852Y-35964177D01*
X119009042Y-35953517D01*
X119073854Y-35982497D01*
X119112711Y-36041917D01*
X119118100Y-36078373D01*
X119118100Y-36465553D01*
X119098098Y-36533674D01*
X119064370Y-36568766D01*
X118898452Y-36684942D01*
X118898441Y-36684951D01*
X118739951Y-36843441D01*
X118739946Y-36843447D01*
X118611384Y-37027053D01*
X118516657Y-37230195D01*
X118516655Y-37230201D01*
X118461448Y-37436239D01*
X118424496Y-37496862D01*
X118360636Y-37527883D01*
X118290141Y-37519455D01*
X118235394Y-37474252D01*
X118218034Y-37436239D01*
X118162872Y-37230372D01*
X118162870Y-37230367D01*
X118068183Y-37027309D01*
X118022352Y-36961856D01*
X117451405Y-37532803D01*
X117434904Y-37471217D01*
X117367103Y-37353783D01*
X117271217Y-37257897D01*
X117153783Y-37190096D01*
X117092195Y-37173593D01*
X117663142Y-36602646D01*
X117663142Y-36602645D01*
X117597694Y-36556818D01*
X117597695Y-36556818D01*
X117394633Y-36462129D01*
X117394627Y-36462127D01*
X117178205Y-36404137D01*
X116955000Y-36384609D01*
X116731794Y-36404137D01*
X116515372Y-36462127D01*
X116515367Y-36462129D01*
X116312305Y-36556818D01*
X116246855Y-36602646D01*
X116817803Y-37173594D01*
X116756217Y-37190096D01*
X116638783Y-37257897D01*
X116542897Y-37353783D01*
X116475096Y-37471217D01*
X116458594Y-37532803D01*
X115887646Y-36961855D01*
X115841818Y-37027305D01*
X115747129Y-37230367D01*
X115747128Y-37230369D01*
X115691965Y-37436240D01*
X115655013Y-37496862D01*
X115591152Y-37527884D01*
X115520658Y-37519455D01*
X115465911Y-37474252D01*
X115448553Y-37436244D01*
X115393344Y-37230199D01*
X115298616Y-37027054D01*
X115170051Y-36843444D01*
X115011556Y-36684949D01*
X115011555Y-36684948D01*
X114848829Y-36571005D01*
X114804501Y-36515547D01*
X114795100Y-36467792D01*
X114795100Y-36079865D01*
X114815102Y-36011744D01*
X114868758Y-35965251D01*
X114939032Y-35955147D01*
X114974345Y-35965668D01*
X115130199Y-36038344D01*
X115346707Y-36096357D01*
X115570000Y-36115893D01*
X115793293Y-36096357D01*
X116009801Y-36038344D01*
X116212947Y-35943616D01*
X116396556Y-35815051D01*
X116555051Y-35656556D01*
X116683616Y-35472947D01*
X116778344Y-35269801D01*
X116833294Y-35064720D01*
X116870244Y-35004102D01*
X116934105Y-34973080D01*
X117004599Y-34981508D01*
G37*
%TD.AperFunction*%
%TA.AperFunction,Conductor*%
G36*
X122544599Y-34981508D02*
G01*
X122599346Y-35026711D01*
X122616704Y-35064718D01*
X122638542Y-35146217D01*
X122671655Y-35269799D01*
X122671657Y-35269804D01*
X122766383Y-35472945D01*
X122766384Y-35472947D01*
X122894945Y-35656551D01*
X122894952Y-35656560D01*
X123053439Y-35815047D01*
X123053443Y-35815050D01*
X123053444Y-35815051D01*
X123237053Y-35943616D01*
X123440199Y-36038344D01*
X123656707Y-36096357D01*
X123880000Y-36115893D01*
X124103293Y-36096357D01*
X124319801Y-36038344D01*
X124478852Y-35964177D01*
X124549042Y-35953517D01*
X124613854Y-35982497D01*
X124652711Y-36041917D01*
X124658100Y-36078373D01*
X124658100Y-36465553D01*
X124638098Y-36533674D01*
X124604370Y-36568766D01*
X124438452Y-36684942D01*
X124438441Y-36684951D01*
X124279951Y-36843441D01*
X124279946Y-36843447D01*
X124151384Y-37027053D01*
X124056657Y-37230195D01*
X124056655Y-37230201D01*
X124001448Y-37436239D01*
X123964496Y-37496862D01*
X123900636Y-37527883D01*
X123830141Y-37519455D01*
X123775394Y-37474252D01*
X123758034Y-37436239D01*
X123702872Y-37230372D01*
X123702870Y-37230367D01*
X123608183Y-37027309D01*
X123562352Y-36961856D01*
X122991405Y-37532803D01*
X122974904Y-37471217D01*
X122907103Y-37353783D01*
X122811217Y-37257897D01*
X122693783Y-37190096D01*
X122632195Y-37173593D01*
X123203142Y-36602646D01*
X123203142Y-36602645D01*
X123137694Y-36556818D01*
X123137695Y-36556818D01*
X122934633Y-36462129D01*
X122934627Y-36462127D01*
X122718205Y-36404137D01*
X122495000Y-36384609D01*
X122271794Y-36404137D01*
X122055372Y-36462127D01*
X122055367Y-36462129D01*
X121852305Y-36556818D01*
X121786855Y-36602646D01*
X122357803Y-37173594D01*
X122296217Y-37190096D01*
X122178783Y-37257897D01*
X122082897Y-37353783D01*
X122015096Y-37471217D01*
X121998594Y-37532803D01*
X121427646Y-36961855D01*
X121381818Y-37027305D01*
X121287129Y-37230367D01*
X121287128Y-37230369D01*
X121231965Y-37436240D01*
X121195013Y-37496862D01*
X121131152Y-37527884D01*
X121060658Y-37519455D01*
X121005911Y-37474252D01*
X120988553Y-37436244D01*
X120933344Y-37230199D01*
X120838616Y-37027054D01*
X120710051Y-36843444D01*
X120551556Y-36684949D01*
X120551555Y-36684948D01*
X120388829Y-36571005D01*
X120344501Y-36515547D01*
X120335100Y-36467792D01*
X120335100Y-36079865D01*
X120355102Y-36011744D01*
X120408758Y-35965251D01*
X120479032Y-35955147D01*
X120514345Y-35965668D01*
X120670199Y-36038344D01*
X120886707Y-36096357D01*
X121110000Y-36115893D01*
X121333293Y-36096357D01*
X121549801Y-36038344D01*
X121752947Y-35943616D01*
X121936556Y-35815051D01*
X122095051Y-35656556D01*
X122223616Y-35472947D01*
X122318344Y-35269801D01*
X122373294Y-35064720D01*
X122410244Y-35004102D01*
X122474105Y-34973080D01*
X122544599Y-34981508D01*
G37*
%TD.AperFunction*%
%TA.AperFunction,Conductor*%
G36*
X106737751Y-35999346D02*
G01*
X106820362Y-36037868D01*
X106820372Y-36037872D01*
X107036794Y-36095862D01*
X107260000Y-36115390D01*
X107483204Y-36095862D01*
X107582888Y-36069152D01*
X107653865Y-36070842D01*
X107712661Y-36110636D01*
X107740609Y-36175900D01*
X107741500Y-36190859D01*
X107741500Y-36709703D01*
X107721498Y-36777824D01*
X107704595Y-36798798D01*
X107659951Y-36843441D01*
X107659946Y-36843447D01*
X107531384Y-37027053D01*
X107436657Y-37230195D01*
X107436655Y-37230200D01*
X107429234Y-37257897D01*
X107381705Y-37435277D01*
X107344756Y-37495898D01*
X107280895Y-37526919D01*
X107210400Y-37518491D01*
X107155653Y-37473288D01*
X107138294Y-37435279D01*
X107083344Y-37230199D01*
X106988616Y-37027054D01*
X106860051Y-36843444D01*
X106701556Y-36684949D01*
X106612228Y-36622400D01*
X106567900Y-36566943D01*
X106558500Y-36519188D01*
X106558500Y-36113540D01*
X106578502Y-36045419D01*
X106632158Y-35998926D01*
X106702432Y-35988822D01*
X106737751Y-35999346D01*
G37*
%TD.AperFunction*%
%TA.AperFunction,Conductor*%
G36*
X113533854Y-35981945D02*
G01*
X113572711Y-36041364D01*
X113578100Y-36077821D01*
X113578100Y-36465553D01*
X113558098Y-36533674D01*
X113524370Y-36568766D01*
X113358452Y-36684942D01*
X113358441Y-36684951D01*
X113199951Y-36843441D01*
X113199946Y-36843447D01*
X113071384Y-37027053D01*
X112976657Y-37230195D01*
X112976655Y-37230200D01*
X112969234Y-37257897D01*
X112921705Y-37435277D01*
X112884756Y-37495898D01*
X112820895Y-37526919D01*
X112750400Y-37518491D01*
X112695653Y-37473288D01*
X112678294Y-37435279D01*
X112623344Y-37230199D01*
X112528616Y-37027054D01*
X112400051Y-36843444D01*
X112241556Y-36684949D01*
X112241555Y-36684948D01*
X112078829Y-36571005D01*
X112034501Y-36515547D01*
X112025100Y-36467792D01*
X112025100Y-36079313D01*
X112045102Y-36011192D01*
X112098758Y-35964699D01*
X112169032Y-35954595D01*
X112204350Y-35965118D01*
X112360367Y-36037870D01*
X112360372Y-36037872D01*
X112576794Y-36095862D01*
X112800000Y-36115390D01*
X113023205Y-36095862D01*
X113239627Y-36037872D01*
X113239632Y-36037870D01*
X113398850Y-35963626D01*
X113469041Y-35952965D01*
X113533854Y-35981945D01*
G37*
%TD.AperFunction*%
%TA.AperFunction,Conductor*%
G36*
X123160500Y-31528891D02*
G01*
X123241007Y-31515457D01*
X123241016Y-31515455D01*
X123453869Y-31442383D01*
X123453875Y-31442380D01*
X123574229Y-31377247D01*
X123643659Y-31362416D01*
X123710086Y-31387476D01*
X123723294Y-31398965D01*
X123794087Y-31469758D01*
X123794089Y-31469759D01*
X123794091Y-31469761D01*
X123938817Y-31560699D01*
X124064148Y-31604554D01*
X124121840Y-31645932D01*
X124148002Y-31711932D01*
X124134329Y-31781600D01*
X124111629Y-31812578D01*
X123394680Y-32529528D01*
X123394675Y-32529534D01*
X123314570Y-32668280D01*
X123314565Y-32668292D01*
X123306029Y-32700149D01*
X123306030Y-32700150D01*
X123277173Y-32807849D01*
X123273100Y-32823048D01*
X123273100Y-33625553D01*
X123253098Y-33693674D01*
X123219370Y-33728766D01*
X123053452Y-33844942D01*
X123053441Y-33844951D01*
X122894951Y-34003441D01*
X122894946Y-34003447D01*
X122766384Y-34187053D01*
X122671657Y-34390195D01*
X122671655Y-34390200D01*
X122651875Y-34464023D01*
X122616705Y-34595277D01*
X122579756Y-34655898D01*
X122515895Y-34686919D01*
X122445400Y-34678491D01*
X122390653Y-34633288D01*
X122373294Y-34595279D01*
X122318344Y-34390199D01*
X122223616Y-34187054D01*
X122095051Y-34003444D01*
X121936556Y-33844949D01*
X121936555Y-33844948D01*
X121773829Y-33731005D01*
X121729501Y-33675547D01*
X121720100Y-33627792D01*
X121720100Y-32389976D01*
X121740102Y-32321855D01*
X121793758Y-32275362D01*
X121804463Y-32271055D01*
X121871183Y-32247709D01*
X122015909Y-32156771D01*
X122136771Y-32035909D01*
X122227709Y-31891183D01*
X122284162Y-31729850D01*
X122300553Y-31584366D01*
X122328056Y-31518915D01*
X122386580Y-31478722D01*
X122457543Y-31476549D01*
X122466673Y-31479302D01*
X122571983Y-31515455D01*
X122571992Y-31515457D01*
X122652500Y-31528891D01*
X122652500Y-30625202D01*
X122713507Y-30660425D01*
X122840674Y-30694500D01*
X122972326Y-30694500D01*
X123099493Y-30660425D01*
X123160500Y-30625202D01*
X123160500Y-31528891D01*
G37*
%TD.AperFunction*%
%TA.AperFunction,Conductor*%
G36*
X120620500Y-31587295D02*
G01*
X120615770Y-31587295D01*
X120616186Y-31621639D01*
X120603988Y-31650607D01*
X120544569Y-31753522D01*
X120544567Y-31753528D01*
X120537770Y-31778898D01*
X120535474Y-31787468D01*
X120503256Y-31907709D01*
X120503100Y-31908290D01*
X120503100Y-33625553D01*
X120483098Y-33693674D01*
X120449370Y-33728766D01*
X120283452Y-33844942D01*
X120283441Y-33844951D01*
X120124951Y-34003441D01*
X120121407Y-34007665D01*
X120119696Y-34006229D01*
X120071716Y-34044555D01*
X120001094Y-34051841D01*
X119937744Y-34019789D01*
X119901780Y-33958575D01*
X119897999Y-33927940D01*
X119897999Y-31641866D01*
X119918001Y-31573745D01*
X119971657Y-31527252D01*
X120041931Y-31517148D01*
X120044738Y-31517584D01*
X120112500Y-31528891D01*
X120112500Y-30625202D01*
X120173507Y-30660425D01*
X120300674Y-30694500D01*
X120432326Y-30694500D01*
X120559493Y-30660425D01*
X120620500Y-30625202D01*
X120620500Y-31587295D01*
G37*
%TD.AperFunction*%
%TA.AperFunction,Conductor*%
G36*
X115540500Y-31528891D02*
G01*
X115621007Y-31515457D01*
X115621016Y-31515455D01*
X115833869Y-31442383D01*
X115833871Y-31442382D01*
X116031800Y-31335268D01*
X116031801Y-31335267D01*
X116209402Y-31197034D01*
X116361827Y-31031455D01*
X116451017Y-30894941D01*
X116505021Y-30848852D01*
X116575368Y-30839277D01*
X116639726Y-30869254D01*
X116661983Y-30894940D01*
X116701742Y-30955795D01*
X116722255Y-31023763D01*
X116702766Y-31092033D01*
X116685355Y-31113806D01*
X116590240Y-31208921D01*
X116499300Y-31353649D01*
X116442847Y-31514983D01*
X116423711Y-31684832D01*
X116442847Y-31854680D01*
X116442848Y-31854682D01*
X116473495Y-31942267D01*
X116473763Y-31943031D01*
X116477383Y-32013935D01*
X116443930Y-32073741D01*
X115857179Y-32660493D01*
X115857174Y-32660499D01*
X115777065Y-32799252D01*
X115766208Y-32839770D01*
X115766209Y-32839771D01*
X115735599Y-32954011D01*
X115735599Y-33421090D01*
X115715597Y-33489211D01*
X115661941Y-33535704D01*
X115598618Y-33546610D01*
X115570000Y-33544107D01*
X115346707Y-33563643D01*
X115203053Y-33602134D01*
X115132077Y-33600444D01*
X115073281Y-33560649D01*
X115045334Y-33495384D01*
X115057108Y-33425371D01*
X115081345Y-33391334D01*
X115126771Y-33345909D01*
X115217709Y-33201183D01*
X115274162Y-33039850D01*
X115293299Y-32870000D01*
X115274162Y-32700150D01*
X115217709Y-32538817D01*
X115126771Y-32394091D01*
X115126769Y-32394089D01*
X115126768Y-32394087D01*
X115005912Y-32273231D01*
X115002875Y-32271323D01*
X114915134Y-32216191D01*
X114861182Y-32182290D01*
X114761270Y-32147330D01*
X114699850Y-32125838D01*
X114699848Y-32125837D01*
X114699850Y-32125837D01*
X114530000Y-32106701D01*
X114360151Y-32125837D01*
X114198817Y-32182290D01*
X114054087Y-32273231D01*
X113933231Y-32394087D01*
X113842290Y-32538817D01*
X113785839Y-32700144D01*
X113785838Y-32700151D01*
X113783985Y-32716591D01*
X113756481Y-32782043D01*
X113747875Y-32791575D01*
X113699676Y-32839775D01*
X113619570Y-32978522D01*
X113619565Y-32978534D01*
X113610760Y-33011395D01*
X113610761Y-33011396D01*
X113578650Y-33131239D01*
X113578100Y-33133290D01*
X113578100Y-33582178D01*
X113558098Y-33650299D01*
X113504442Y-33696792D01*
X113434168Y-33706896D01*
X113398850Y-33696373D01*
X113239633Y-33622129D01*
X113239627Y-33622127D01*
X113023205Y-33564137D01*
X112800000Y-33544609D01*
X112576794Y-33564137D01*
X112360372Y-33622127D01*
X112360366Y-33622129D01*
X112204350Y-33694881D01*
X112134158Y-33705542D01*
X112069345Y-33676562D01*
X112030489Y-33617142D01*
X112025100Y-33580686D01*
X112025100Y-32029266D01*
X112021937Y-32017462D01*
X111983632Y-31874504D01*
X111950249Y-31816683D01*
X111926610Y-31775739D01*
X111903524Y-31735752D01*
X111903523Y-31735751D01*
X111903522Y-31735749D01*
X111774614Y-31606841D01*
X111740591Y-31544532D01*
X111738503Y-31531853D01*
X111736652Y-31515422D01*
X111736651Y-31515420D01*
X111736651Y-31515415D01*
X111692615Y-31389570D01*
X111688996Y-31318667D01*
X111724285Y-31257062D01*
X111787279Y-31224315D01*
X111857976Y-31230823D01*
X111888936Y-31248525D01*
X112000382Y-31335267D01*
X112000924Y-31335689D01*
X112198926Y-31442842D01*
X112198927Y-31442842D01*
X112198928Y-31442843D01*
X112286304Y-31472839D01*
X112411865Y-31515944D01*
X112633931Y-31553000D01*
X112633935Y-31553000D01*
X112859065Y-31553000D01*
X112859069Y-31553000D01*
X113081135Y-31515944D01*
X113294074Y-31442842D01*
X113492076Y-31335689D01*
X113669740Y-31197406D01*
X113822222Y-31031768D01*
X113822427Y-31031455D01*
X113851666Y-30986701D01*
X113911316Y-30895398D01*
X113965319Y-30849310D01*
X114035667Y-30839735D01*
X114100024Y-30869712D01*
X114122282Y-30895398D01*
X114211174Y-31031458D01*
X114363597Y-31197034D01*
X114541198Y-31335267D01*
X114541199Y-31335268D01*
X114739128Y-31442382D01*
X114739130Y-31442383D01*
X114951983Y-31515455D01*
X114951992Y-31515457D01*
X115032500Y-31528891D01*
X115032500Y-30625202D01*
X115093507Y-30660425D01*
X115220674Y-30694500D01*
X115352326Y-30694500D01*
X115479493Y-30660425D01*
X115540500Y-30625202D01*
X115540500Y-31528891D01*
G37*
%TD.AperFunction*%
%TA.AperFunction,Conductor*%
G36*
X106855798Y-31290760D02*
G01*
X106886758Y-31308462D01*
X106921190Y-31335262D01*
X106921199Y-31335268D01*
X107119128Y-31442382D01*
X107119130Y-31442383D01*
X107331983Y-31515455D01*
X107331992Y-31515457D01*
X107482350Y-31540547D01*
X107546250Y-31571489D01*
X107583278Y-31632065D01*
X107586368Y-31672924D01*
X107586701Y-31672924D01*
X107586701Y-31677320D01*
X107586822Y-31678920D01*
X107586701Y-31679995D01*
X107586701Y-31679998D01*
X107586701Y-31680000D01*
X107591013Y-31718270D01*
X107605837Y-31849848D01*
X107662290Y-32011182D01*
X107677829Y-32035912D01*
X107722187Y-32106506D01*
X107741500Y-32173542D01*
X107741500Y-33469140D01*
X107721498Y-33537261D01*
X107667842Y-33583754D01*
X107597568Y-33593858D01*
X107582889Y-33590847D01*
X107483205Y-33564137D01*
X107260000Y-33544609D01*
X107036794Y-33564137D01*
X106820372Y-33622127D01*
X106820366Y-33622129D01*
X106737750Y-33660654D01*
X106667558Y-33671315D01*
X106602745Y-33642335D01*
X106563889Y-33582915D01*
X106558500Y-33546459D01*
X106558500Y-32123542D01*
X106577812Y-32056506D01*
X106637709Y-31961183D01*
X106694162Y-31799850D01*
X106713299Y-31630000D01*
X106694162Y-31460150D01*
X106690437Y-31449507D01*
X106686818Y-31378605D01*
X106722107Y-31316999D01*
X106785100Y-31284252D01*
X106855798Y-31290760D01*
G37*
%TD.AperFunction*%
%TA.AperFunction,Conductor*%
G36*
X100300500Y-31528890D02*
G01*
X100368262Y-31517584D01*
X100438746Y-31526102D01*
X100493436Y-31571373D01*
X100514969Y-31639025D01*
X100515001Y-31641866D01*
X100515001Y-32353859D01*
X100494999Y-32421980D01*
X100478096Y-32442954D01*
X99369938Y-33551111D01*
X99307626Y-33585137D01*
X99248232Y-33583723D01*
X99173293Y-33563643D01*
X98950000Y-33544107D01*
X98726707Y-33563643D01*
X98609646Y-33595009D01*
X98538670Y-33593319D01*
X98479874Y-33553524D01*
X98451927Y-33488260D01*
X98463701Y-33418246D01*
X98487937Y-33384211D01*
X99456421Y-32415728D01*
X99536531Y-32276973D01*
X99549940Y-32226930D01*
X99577999Y-32122212D01*
X99577999Y-31641866D01*
X99598001Y-31573745D01*
X99651657Y-31527252D01*
X99721931Y-31517148D01*
X99724738Y-31517584D01*
X99792500Y-31528891D01*
X99792500Y-30625202D01*
X99853507Y-30660425D01*
X99980674Y-30694500D01*
X100112326Y-30694500D01*
X100239493Y-30660425D01*
X100300500Y-30625202D01*
X100300500Y-31528890D01*
G37*
%TD.AperFunction*%
%TA.AperFunction,Conductor*%
G36*
X128240500Y-31087201D02*
G01*
X128221187Y-31154238D01*
X128130240Y-31298976D01*
X128073787Y-31460310D01*
X128054651Y-31630159D01*
X128073787Y-31800007D01*
X128130240Y-31961341D01*
X128148687Y-31990698D01*
X128190137Y-32056665D01*
X128209450Y-32123701D01*
X128209450Y-32359409D01*
X128189448Y-32427530D01*
X128172545Y-32448504D01*
X127733094Y-32887955D01*
X127670782Y-32921981D01*
X127599967Y-32916916D01*
X127543131Y-32874369D01*
X127518320Y-32807849D01*
X127517999Y-32798860D01*
X127517999Y-31641866D01*
X127538001Y-31573745D01*
X127591657Y-31527252D01*
X127661931Y-31517148D01*
X127664738Y-31517584D01*
X127732500Y-31528891D01*
X127732500Y-30625202D01*
X127793507Y-30660425D01*
X127920674Y-30694500D01*
X128052326Y-30694500D01*
X128179493Y-30660425D01*
X128240500Y-30625202D01*
X128240500Y-31087201D01*
G37*
%TD.AperFunction*%
%TA.AperFunction,Conductor*%
G36*
X92680500Y-30961444D02*
G01*
X92660498Y-31029565D01*
X92606842Y-31076058D01*
X92536568Y-31086162D01*
X92471988Y-31056668D01*
X92435571Y-31003059D01*
X92381238Y-30847785D01*
X92350321Y-30798581D01*
X92290300Y-30703059D01*
X92290298Y-30703057D01*
X92290297Y-30703055D01*
X92252850Y-30665608D01*
X92360674Y-30694500D01*
X92492326Y-30694500D01*
X92619493Y-30660425D01*
X92680500Y-30625202D01*
X92680500Y-30961444D01*
G37*
%TD.AperFunction*%
%TA.AperFunction,Conductor*%
G36*
X84340575Y-30001507D02*
G01*
X84306500Y-30128674D01*
X84306500Y-30260326D01*
X84340575Y-30387493D01*
X84375797Y-30448500D01*
X84078001Y-30448500D01*
X84009880Y-30428498D01*
X83963387Y-30374842D01*
X83952001Y-30322500D01*
X83952001Y-30066500D01*
X83972003Y-29998379D01*
X84025659Y-29951886D01*
X84078001Y-29940500D01*
X84375797Y-29940500D01*
X84340575Y-30001507D01*
G37*
%TD.AperFunction*%
%TA.AperFunction,Conductor*%
G36*
X86880575Y-30001507D02*
G01*
X86846500Y-30128674D01*
X86846500Y-30260326D01*
X86880575Y-30387493D01*
X86915797Y-30448500D01*
X86618001Y-30448500D01*
X86549880Y-30428498D01*
X86503387Y-30374842D01*
X86492001Y-30322500D01*
X86492001Y-30066500D01*
X86512003Y-29998379D01*
X86565659Y-29951886D01*
X86618001Y-29940500D01*
X86915797Y-29940500D01*
X86880575Y-30001507D01*
G37*
%TD.AperFunction*%
%TA.AperFunction,Conductor*%
G36*
X89420575Y-30001507D02*
G01*
X89386500Y-30128674D01*
X89386500Y-30260326D01*
X89420575Y-30387493D01*
X89455797Y-30448500D01*
X89158001Y-30448500D01*
X89089880Y-30428498D01*
X89043387Y-30374842D01*
X89032001Y-30322500D01*
X89032001Y-30066500D01*
X89052003Y-29998379D01*
X89105659Y-29951886D01*
X89158001Y-29940500D01*
X89455797Y-29940500D01*
X89420575Y-30001507D01*
G37*
%TD.AperFunction*%
%TA.AperFunction,Conductor*%
G36*
X91960575Y-30001507D02*
G01*
X91926500Y-30128674D01*
X91926500Y-30260326D01*
X91960575Y-30387493D01*
X91995797Y-30448500D01*
X91923921Y-30448500D01*
X91882306Y-30441429D01*
X91863381Y-30434806D01*
X91863376Y-30434805D01*
X91846931Y-30432952D01*
X91781480Y-30405445D01*
X91771950Y-30396840D01*
X91608906Y-30233796D01*
X91574880Y-30171484D01*
X91572001Y-30144701D01*
X91572001Y-30066500D01*
X91592003Y-29998379D01*
X91645659Y-29951886D01*
X91698001Y-29940500D01*
X91995797Y-29940500D01*
X91960575Y-30001507D01*
G37*
%TD.AperFunction*%
%TA.AperFunction,Conductor*%
G36*
X95713621Y-29960502D02*
G01*
X95760114Y-30014158D01*
X95771500Y-30066500D01*
X95771500Y-30322500D01*
X95751498Y-30390621D01*
X95697842Y-30437114D01*
X95645500Y-30448500D01*
X95397203Y-30448500D01*
X95432425Y-30387493D01*
X95466500Y-30260326D01*
X95466500Y-30128674D01*
X95432425Y-30001507D01*
X95397203Y-29940500D01*
X95645500Y-29940500D01*
X95713621Y-29960502D01*
G37*
%TD.AperFunction*%
%TA.AperFunction,Conductor*%
G36*
X98303120Y-29960502D02*
G01*
X98349613Y-30014158D01*
X98360999Y-30066500D01*
X98360999Y-30322500D01*
X98340997Y-30390621D01*
X98287341Y-30437114D01*
X98234999Y-30448500D01*
X97937203Y-30448500D01*
X97972425Y-30387493D01*
X98006500Y-30260326D01*
X98006500Y-30128674D01*
X97972425Y-30001507D01*
X97937203Y-29940500D01*
X98234999Y-29940500D01*
X98303120Y-29960502D01*
G37*
%TD.AperFunction*%
%TA.AperFunction,Conductor*%
G36*
X104660575Y-30001507D02*
G01*
X104626500Y-30128674D01*
X104626500Y-30260326D01*
X104660575Y-30387493D01*
X104695797Y-30448500D01*
X103017203Y-30448500D01*
X103052425Y-30387493D01*
X103086500Y-30260326D01*
X103086500Y-30128674D01*
X103052425Y-30001507D01*
X103017203Y-29940500D01*
X104695797Y-29940500D01*
X104660575Y-30001507D01*
G37*
%TD.AperFunction*%
%TA.AperFunction,Conductor*%
G36*
X107200575Y-30001507D02*
G01*
X107166500Y-30128674D01*
X107166500Y-30260326D01*
X107200575Y-30387493D01*
X107235797Y-30448500D01*
X105557203Y-30448500D01*
X105592425Y-30387493D01*
X105626500Y-30260326D01*
X105626500Y-30128674D01*
X105592425Y-30001507D01*
X105557203Y-29940500D01*
X107235797Y-29940500D01*
X107200575Y-30001507D01*
G37*
%TD.AperFunction*%
%TA.AperFunction,Conductor*%
G36*
X109740575Y-30001507D02*
G01*
X109706500Y-30128674D01*
X109706500Y-30260326D01*
X109740575Y-30387493D01*
X109775797Y-30448500D01*
X108097203Y-30448500D01*
X108132425Y-30387493D01*
X108166500Y-30260326D01*
X108166500Y-30128674D01*
X108132425Y-30001507D01*
X108097203Y-29940500D01*
X109775797Y-29940500D01*
X109740575Y-30001507D01*
G37*
%TD.AperFunction*%
%TA.AperFunction,Conductor*%
G36*
X117360575Y-30001507D02*
G01*
X117326500Y-30128674D01*
X117326500Y-30260326D01*
X117360575Y-30387493D01*
X117395797Y-30448500D01*
X115717203Y-30448500D01*
X115752425Y-30387493D01*
X115786500Y-30260326D01*
X115786500Y-30128674D01*
X115752425Y-30001507D01*
X115717203Y-29940500D01*
X117395797Y-29940500D01*
X117360575Y-30001507D01*
G37*
%TD.AperFunction*%
%TA.AperFunction,Conductor*%
G36*
X118623120Y-29960502D02*
G01*
X118669613Y-30014158D01*
X118680999Y-30066500D01*
X118680999Y-30322500D01*
X118660997Y-30390621D01*
X118607341Y-30437114D01*
X118554999Y-30448500D01*
X118257203Y-30448500D01*
X118292425Y-30387493D01*
X118326500Y-30260326D01*
X118326500Y-30128674D01*
X118292425Y-30001507D01*
X118257203Y-29940500D01*
X118554999Y-29940500D01*
X118623120Y-29960502D01*
G37*
%TD.AperFunction*%
%TA.AperFunction,Conductor*%
G36*
X122440575Y-30001507D02*
G01*
X122406500Y-30128674D01*
X122406500Y-30260326D01*
X122440575Y-30387493D01*
X122475797Y-30448500D01*
X120797203Y-30448500D01*
X120832425Y-30387493D01*
X120866500Y-30260326D01*
X120866500Y-30128674D01*
X120832425Y-30001507D01*
X120797203Y-29940500D01*
X122475797Y-29940500D01*
X122440575Y-30001507D01*
G37*
%TD.AperFunction*%
%TA.AperFunction,Conductor*%
G36*
X123603621Y-29960502D02*
G01*
X123650114Y-30014158D01*
X123661500Y-30066500D01*
X123661500Y-30322500D01*
X123641498Y-30390621D01*
X123587842Y-30437114D01*
X123535500Y-30448500D01*
X123337203Y-30448500D01*
X123372425Y-30387493D01*
X123406500Y-30260326D01*
X123406500Y-30128674D01*
X123372425Y-30001507D01*
X123337203Y-29940500D01*
X123535500Y-29940500D01*
X123603621Y-29960502D01*
G37*
%TD.AperFunction*%
%TA.AperFunction,Conductor*%
G36*
X124980575Y-30001507D02*
G01*
X124946500Y-30128674D01*
X124946500Y-30260326D01*
X124980575Y-30387493D01*
X125015797Y-30448500D01*
X125004500Y-30448500D01*
X124936379Y-30428498D01*
X124889886Y-30374842D01*
X124878500Y-30322500D01*
X124878500Y-30066500D01*
X124898502Y-29998379D01*
X124952158Y-29951886D01*
X125004500Y-29940500D01*
X125015797Y-29940500D01*
X124980575Y-30001507D01*
G37*
%TD.AperFunction*%
%TA.AperFunction,Conductor*%
G36*
X126243120Y-29960502D02*
G01*
X126289613Y-30014158D01*
X126300999Y-30066500D01*
X126300999Y-30322500D01*
X126280997Y-30390621D01*
X126227341Y-30437114D01*
X126174999Y-30448500D01*
X125877203Y-30448500D01*
X125912425Y-30387493D01*
X125946500Y-30260326D01*
X125946500Y-30128674D01*
X125912425Y-30001507D01*
X125877203Y-29940500D01*
X126174999Y-29940500D01*
X126243120Y-29960502D01*
G37*
%TD.AperFunction*%
%TA.AperFunction,Conductor*%
G36*
X130060575Y-30001507D02*
G01*
X130026500Y-30128674D01*
X130026500Y-30260326D01*
X130060575Y-30387493D01*
X130095797Y-30448500D01*
X128417203Y-30448500D01*
X128452425Y-30387493D01*
X128486500Y-30260326D01*
X128486500Y-30128674D01*
X128452425Y-30001507D01*
X128417203Y-29940500D01*
X130095797Y-29940500D01*
X130060575Y-30001507D01*
G37*
%TD.AperFunction*%
%TA.AperFunction,Conductor*%
G36*
X132600575Y-30001507D02*
G01*
X132566500Y-30128674D01*
X132566500Y-30260326D01*
X132600575Y-30387493D01*
X132635797Y-30448500D01*
X130957203Y-30448500D01*
X130992425Y-30387493D01*
X131026500Y-30260326D01*
X131026500Y-30128674D01*
X130992425Y-30001507D01*
X130957203Y-29940500D01*
X132635797Y-29940500D01*
X132600575Y-30001507D01*
G37*
%TD.AperFunction*%
%TA.AperFunction,Conductor*%
G36*
X136388561Y-29960502D02*
G01*
X136435054Y-30014158D01*
X136446440Y-30066500D01*
X136446440Y-30322500D01*
X136426438Y-30390621D01*
X136372782Y-30437114D01*
X136320440Y-30448500D01*
X136037203Y-30448500D01*
X136072425Y-30387493D01*
X136106500Y-30260326D01*
X136106500Y-30128674D01*
X136072425Y-30001507D01*
X136037203Y-29940500D01*
X136320440Y-29940500D01*
X136388561Y-29960502D01*
G37*
%TD.AperFunction*%
%TA.AperFunction,Conductor*%
G36*
X138683621Y-29960502D02*
G01*
X138730114Y-30014158D01*
X138741500Y-30066500D01*
X138741500Y-30322500D01*
X138721498Y-30390621D01*
X138667842Y-30437114D01*
X138615500Y-30448500D01*
X138577203Y-30448500D01*
X138612425Y-30387493D01*
X138646500Y-30260326D01*
X138646500Y-30128674D01*
X138612425Y-30001507D01*
X138577203Y-29940500D01*
X138615500Y-29940500D01*
X138683621Y-29960502D01*
G37*
%TD.AperFunction*%
%TA.AperFunction,Conductor*%
G36*
X140220575Y-30001507D02*
G01*
X140186500Y-30128674D01*
X140186500Y-30260326D01*
X140220575Y-30387493D01*
X140255797Y-30448500D01*
X140084500Y-30448500D01*
X140016379Y-30428498D01*
X139969886Y-30374842D01*
X139958500Y-30322500D01*
X139958500Y-30066500D01*
X139978502Y-29998379D01*
X140032158Y-29951886D01*
X140084500Y-29940500D01*
X140255797Y-29940500D01*
X140220575Y-30001507D01*
G37*
%TD.AperFunction*%
%TA.AperFunction,Conductor*%
G36*
X141333621Y-29960502D02*
G01*
X141380114Y-30014158D01*
X141391500Y-30066500D01*
X141391500Y-30322500D01*
X141371498Y-30390621D01*
X141317842Y-30437114D01*
X141265500Y-30448500D01*
X141117203Y-30448500D01*
X141152425Y-30387493D01*
X141186500Y-30260326D01*
X141186500Y-30128674D01*
X141152425Y-30001507D01*
X141117203Y-29940500D01*
X141265500Y-29940500D01*
X141333621Y-29960502D01*
G37*
%TD.AperFunction*%
%TA.AperFunction,Conductor*%
G36*
X142760575Y-30001507D02*
G01*
X142726500Y-30128674D01*
X142726500Y-30260326D01*
X142760575Y-30387493D01*
X142795797Y-30448500D01*
X142734500Y-30448500D01*
X142666379Y-30428498D01*
X142619886Y-30374842D01*
X142608500Y-30322500D01*
X142608500Y-30066500D01*
X142628502Y-29998379D01*
X142682158Y-29951886D01*
X142734500Y-29940500D01*
X142795797Y-29940500D01*
X142760575Y-30001507D01*
G37*
%TD.AperFunction*%
%TA.AperFunction,Conductor*%
G36*
X102120575Y-30001507D02*
G01*
X102086500Y-30128674D01*
X102086500Y-30260326D01*
X102120575Y-30387493D01*
X102149833Y-30438170D01*
X102116891Y-30428498D01*
X102070398Y-30374842D01*
X102059012Y-30322500D01*
X102059012Y-30066500D01*
X102079014Y-29998379D01*
X102132670Y-29951886D01*
X102151601Y-29947767D01*
X102120575Y-30001507D01*
G37*
%TD.AperFunction*%
%TA.AperFunction,Conductor*%
G36*
X135140575Y-30001507D02*
G01*
X135106500Y-30128674D01*
X135106500Y-30260326D01*
X135140575Y-30387493D01*
X135169833Y-30438170D01*
X135136891Y-30428498D01*
X135090398Y-30374842D01*
X135079012Y-30322500D01*
X135079012Y-30066500D01*
X135099014Y-29998379D01*
X135152670Y-29951886D01*
X135171601Y-29947767D01*
X135140575Y-30001507D01*
G37*
%TD.AperFunction*%
%TA.AperFunction,Conductor*%
G36*
X97040575Y-30001507D02*
G01*
X97006500Y-30128674D01*
X97006500Y-30260326D01*
X97040575Y-30387493D01*
X97067897Y-30434816D01*
X97046379Y-30428498D01*
X96999886Y-30374842D01*
X96988500Y-30322500D01*
X96988500Y-30066500D01*
X97008502Y-29998379D01*
X97062158Y-29951886D01*
X97070238Y-29950128D01*
X97040575Y-30001507D01*
G37*
%TD.AperFunction*%
%TA.AperFunction,Conductor*%
G36*
X137678241Y-30378783D02*
G01*
X137674826Y-30374842D01*
X137664648Y-30328056D01*
X137678241Y-30378783D01*
G37*
%TD.AperFunction*%
%TA.AperFunction,Conductor*%
G36*
X94500575Y-30001507D02*
G01*
X94466500Y-30128674D01*
X94466500Y-30260326D01*
X94486612Y-30335384D01*
X94406416Y-30255188D01*
X94372371Y-30233796D01*
X94275912Y-30173186D01*
X94228876Y-30120008D01*
X94218056Y-30049841D01*
X94246889Y-29984963D01*
X94306221Y-29945972D01*
X94342950Y-29940500D01*
X94535797Y-29940500D01*
X94500575Y-30001507D01*
G37*
%TD.AperFunction*%
%TA.AperFunction,Conductor*%
G36*
X105380500Y-29763797D02*
G01*
X105319493Y-29728575D01*
X105192326Y-29694500D01*
X105060674Y-29694500D01*
X104933507Y-29728575D01*
X104872500Y-29763797D01*
X104872500Y-28085202D01*
X104933507Y-28120425D01*
X105060674Y-28154500D01*
X105192326Y-28154500D01*
X105319493Y-28120425D01*
X105380500Y-28085202D01*
X105380500Y-29763797D01*
G37*
%TD.AperFunction*%
%TA.AperFunction,Conductor*%
G36*
X107920500Y-29763797D02*
G01*
X107859493Y-29728575D01*
X107732326Y-29694500D01*
X107600674Y-29694500D01*
X107473507Y-29728575D01*
X107412500Y-29763797D01*
X107412500Y-28085202D01*
X107473507Y-28120425D01*
X107600674Y-28154500D01*
X107732326Y-28154500D01*
X107859493Y-28120425D01*
X107920500Y-28085202D01*
X107920500Y-29763797D01*
G37*
%TD.AperFunction*%
%TA.AperFunction,Conductor*%
G36*
X110460500Y-29763797D02*
G01*
X110399493Y-29728575D01*
X110272326Y-29694500D01*
X110140674Y-29694500D01*
X110013507Y-29728575D01*
X109952500Y-29763797D01*
X109952500Y-28085202D01*
X110013507Y-28120425D01*
X110140674Y-28154500D01*
X110272326Y-28154500D01*
X110399493Y-28120425D01*
X110460500Y-28085202D01*
X110460500Y-29763797D01*
G37*
%TD.AperFunction*%
%TA.AperFunction,Conductor*%
G36*
X115540500Y-29763797D02*
G01*
X115479493Y-29728575D01*
X115352326Y-29694500D01*
X115220674Y-29694500D01*
X115093507Y-29728575D01*
X115032500Y-29763797D01*
X115032500Y-28085202D01*
X115093507Y-28120425D01*
X115220674Y-28154500D01*
X115352326Y-28154500D01*
X115479493Y-28120425D01*
X115540500Y-28085202D01*
X115540500Y-29763797D01*
G37*
%TD.AperFunction*%
%TA.AperFunction,Conductor*%
G36*
X118080500Y-29763797D02*
G01*
X118019493Y-29728575D01*
X117892326Y-29694500D01*
X117760674Y-29694500D01*
X117633507Y-29728575D01*
X117572500Y-29763797D01*
X117572500Y-28085202D01*
X117633507Y-28120425D01*
X117760674Y-28154500D01*
X117892326Y-28154500D01*
X118019493Y-28120425D01*
X118080500Y-28085202D01*
X118080500Y-29763797D01*
G37*
%TD.AperFunction*%
%TA.AperFunction,Conductor*%
G36*
X129339725Y-28330169D02*
G01*
X129361980Y-28355853D01*
X129363301Y-28357874D01*
X129450775Y-28491765D01*
X129450779Y-28491770D01*
X129603262Y-28657408D01*
X129657831Y-28699881D01*
X129780924Y-28795689D01*
X129814705Y-28813970D01*
X129865096Y-28863982D01*
X129880449Y-28933299D01*
X129855889Y-28999912D01*
X129814709Y-29035596D01*
X129781204Y-29053728D01*
X129781198Y-29053732D01*
X129603597Y-29191965D01*
X129451174Y-29357542D01*
X129361983Y-29494059D01*
X129307979Y-29540147D01*
X129237631Y-29549722D01*
X129173274Y-29519744D01*
X129151017Y-29494059D01*
X129061825Y-29357542D01*
X128909402Y-29191965D01*
X128731801Y-29053732D01*
X128731800Y-29053731D01*
X128698291Y-29035597D01*
X128647901Y-28985583D01*
X128632550Y-28916266D01*
X128657112Y-28849653D01*
X128698290Y-28813972D01*
X128732076Y-28795689D01*
X128909740Y-28657406D01*
X129062222Y-28491768D01*
X129062427Y-28491455D01*
X129149699Y-28357874D01*
X129151018Y-28355854D01*
X129205020Y-28309768D01*
X129275368Y-28300192D01*
X129339725Y-28330169D01*
G37*
%TD.AperFunction*%
%TA.AperFunction,Conductor*%
G36*
X107200575Y-27461507D02*
G01*
X107166500Y-27588674D01*
X107166500Y-27720326D01*
X107200575Y-27847493D01*
X107235797Y-27908500D01*
X105557203Y-27908500D01*
X105592425Y-27847493D01*
X105626500Y-27720326D01*
X105626500Y-27588674D01*
X105592425Y-27461507D01*
X105557203Y-27400500D01*
X107235797Y-27400500D01*
X107200575Y-27461507D01*
G37*
%TD.AperFunction*%
%TA.AperFunction,Conductor*%
G36*
X109740575Y-27461507D02*
G01*
X109706500Y-27588674D01*
X109706500Y-27720326D01*
X109740575Y-27847493D01*
X109775797Y-27908500D01*
X108097203Y-27908500D01*
X108132425Y-27847493D01*
X108166500Y-27720326D01*
X108166500Y-27588674D01*
X108132425Y-27461507D01*
X108097203Y-27400500D01*
X109775797Y-27400500D01*
X109740575Y-27461507D01*
G37*
%TD.AperFunction*%
%TA.AperFunction,Conductor*%
G36*
X117360575Y-27461507D02*
G01*
X117326500Y-27588674D01*
X117326500Y-27720326D01*
X117360575Y-27847493D01*
X117395797Y-27908500D01*
X115717203Y-27908500D01*
X115752425Y-27847493D01*
X115786500Y-27720326D01*
X115786500Y-27588674D01*
X115752425Y-27461507D01*
X115717203Y-27400500D01*
X117395797Y-27400500D01*
X117360575Y-27461507D01*
G37*
%TD.AperFunction*%
%TA.AperFunction,Conductor*%
G36*
X84340575Y-18437007D02*
G01*
X84306500Y-18564174D01*
X84306500Y-18695826D01*
X84340575Y-18822993D01*
X84375797Y-18884000D01*
X82697203Y-18884000D01*
X82732425Y-18822993D01*
X82766500Y-18695826D01*
X82766500Y-18564174D01*
X82732425Y-18437007D01*
X82697203Y-18376000D01*
X84375797Y-18376000D01*
X84340575Y-18437007D01*
G37*
%TD.AperFunction*%
%TA.AperFunction,Conductor*%
G36*
X86880575Y-18437007D02*
G01*
X86846500Y-18564174D01*
X86846500Y-18695826D01*
X86880575Y-18822993D01*
X86915797Y-18884000D01*
X85237203Y-18884000D01*
X85272425Y-18822993D01*
X85306500Y-18695826D01*
X85306500Y-18564174D01*
X85272425Y-18437007D01*
X85237203Y-18376000D01*
X86915797Y-18376000D01*
X86880575Y-18437007D01*
G37*
%TD.AperFunction*%
%TA.AperFunction,Conductor*%
G36*
X89420575Y-18437007D02*
G01*
X89386500Y-18564174D01*
X89386500Y-18695826D01*
X89420575Y-18822993D01*
X89455797Y-18884000D01*
X87777203Y-18884000D01*
X87812425Y-18822993D01*
X87846500Y-18695826D01*
X87846500Y-18564174D01*
X87812425Y-18437007D01*
X87777203Y-18376000D01*
X89455797Y-18376000D01*
X89420575Y-18437007D01*
G37*
%TD.AperFunction*%
%TA.AperFunction,Conductor*%
G36*
X91960575Y-18437007D02*
G01*
X91926500Y-18564174D01*
X91926500Y-18695826D01*
X91960575Y-18822993D01*
X91995797Y-18884000D01*
X90317203Y-18884000D01*
X90352425Y-18822993D01*
X90386500Y-18695826D01*
X90386500Y-18564174D01*
X90352425Y-18437007D01*
X90317203Y-18376000D01*
X91995797Y-18376000D01*
X91960575Y-18437007D01*
G37*
%TD.AperFunction*%
%TA.AperFunction,Conductor*%
G36*
X94500575Y-18437007D02*
G01*
X94466500Y-18564174D01*
X94466500Y-18695826D01*
X94500575Y-18822993D01*
X94535797Y-18884000D01*
X92857203Y-18884000D01*
X92892425Y-18822993D01*
X92926500Y-18695826D01*
X92926500Y-18564174D01*
X92892425Y-18437007D01*
X92857203Y-18376000D01*
X94535797Y-18376000D01*
X94500575Y-18437007D01*
G37*
%TD.AperFunction*%
%TA.AperFunction,Conductor*%
G36*
X97040575Y-18437007D02*
G01*
X97006500Y-18564174D01*
X97006500Y-18695826D01*
X97040575Y-18822993D01*
X97075797Y-18884000D01*
X95397203Y-18884000D01*
X95432425Y-18822993D01*
X95466500Y-18695826D01*
X95466500Y-18564174D01*
X95432425Y-18437007D01*
X95397203Y-18376000D01*
X97075797Y-18376000D01*
X97040575Y-18437007D01*
G37*
%TD.AperFunction*%
%TA.AperFunction,Conductor*%
G36*
X99580575Y-18437007D02*
G01*
X99546500Y-18564174D01*
X99546500Y-18695826D01*
X99580575Y-18822993D01*
X99615797Y-18884000D01*
X97937203Y-18884000D01*
X97972425Y-18822993D01*
X98006500Y-18695826D01*
X98006500Y-18564174D01*
X97972425Y-18437007D01*
X97937203Y-18376000D01*
X99615797Y-18376000D01*
X99580575Y-18437007D01*
G37*
%TD.AperFunction*%
%TA.AperFunction,Conductor*%
G36*
X102120575Y-18437007D02*
G01*
X102086500Y-18564174D01*
X102086500Y-18695826D01*
X102120575Y-18822993D01*
X102155797Y-18884000D01*
X100477203Y-18884000D01*
X100512425Y-18822993D01*
X100546500Y-18695826D01*
X100546500Y-18564174D01*
X100512425Y-18437007D01*
X100477203Y-18376000D01*
X102155797Y-18376000D01*
X102120575Y-18437007D01*
G37*
%TD.AperFunction*%
%TA.AperFunction,Conductor*%
G36*
X104660575Y-18437007D02*
G01*
X104626500Y-18564174D01*
X104626500Y-18695826D01*
X104660575Y-18822993D01*
X104695797Y-18884000D01*
X103017203Y-18884000D01*
X103052425Y-18822993D01*
X103086500Y-18695826D01*
X103086500Y-18564174D01*
X103052425Y-18437007D01*
X103017203Y-18376000D01*
X104695797Y-18376000D01*
X104660575Y-18437007D01*
G37*
%TD.AperFunction*%
%TA.AperFunction,Conductor*%
G36*
X107200575Y-18437007D02*
G01*
X107166500Y-18564174D01*
X107166500Y-18695826D01*
X107200575Y-18822993D01*
X107235797Y-18884000D01*
X105557203Y-18884000D01*
X105592425Y-18822993D01*
X105626500Y-18695826D01*
X105626500Y-18564174D01*
X105592425Y-18437007D01*
X105557203Y-18376000D01*
X107235797Y-18376000D01*
X107200575Y-18437007D01*
G37*
%TD.AperFunction*%
%TA.AperFunction,Conductor*%
G36*
X109740575Y-18437007D02*
G01*
X109706500Y-18564174D01*
X109706500Y-18695826D01*
X109740575Y-18822993D01*
X109775797Y-18884000D01*
X108097203Y-18884000D01*
X108132425Y-18822993D01*
X108166500Y-18695826D01*
X108166500Y-18564174D01*
X108132425Y-18437007D01*
X108097203Y-18376000D01*
X109775797Y-18376000D01*
X109740575Y-18437007D01*
G37*
%TD.AperFunction*%
%TA.AperFunction,Conductor*%
G36*
X117360575Y-18437007D02*
G01*
X117326500Y-18564174D01*
X117326500Y-18695826D01*
X117360575Y-18822993D01*
X117395797Y-18884000D01*
X115717203Y-18884000D01*
X115752425Y-18822993D01*
X115786500Y-18695826D01*
X115786500Y-18564174D01*
X115752425Y-18437007D01*
X115717203Y-18376000D01*
X117395797Y-18376000D01*
X117360575Y-18437007D01*
G37*
%TD.AperFunction*%
%TA.AperFunction,Conductor*%
G36*
X119900575Y-18437007D02*
G01*
X119866500Y-18564174D01*
X119866500Y-18695826D01*
X119900575Y-18822993D01*
X119935797Y-18884000D01*
X118257203Y-18884000D01*
X118292425Y-18822993D01*
X118326500Y-18695826D01*
X118326500Y-18564174D01*
X118292425Y-18437007D01*
X118257203Y-18376000D01*
X119935797Y-18376000D01*
X119900575Y-18437007D01*
G37*
%TD.AperFunction*%
%TA.AperFunction,Conductor*%
G36*
X122440575Y-18437007D02*
G01*
X122406500Y-18564174D01*
X122406500Y-18695826D01*
X122440575Y-18822993D01*
X122475797Y-18884000D01*
X120797203Y-18884000D01*
X120832425Y-18822993D01*
X120866500Y-18695826D01*
X120866500Y-18564174D01*
X120832425Y-18437007D01*
X120797203Y-18376000D01*
X122475797Y-18376000D01*
X122440575Y-18437007D01*
G37*
%TD.AperFunction*%
%TA.AperFunction,Conductor*%
G36*
X124980575Y-18437007D02*
G01*
X124946500Y-18564174D01*
X124946500Y-18695826D01*
X124980575Y-18822993D01*
X125015797Y-18884000D01*
X123337203Y-18884000D01*
X123372425Y-18822993D01*
X123406500Y-18695826D01*
X123406500Y-18564174D01*
X123372425Y-18437007D01*
X123337203Y-18376000D01*
X125015797Y-18376000D01*
X124980575Y-18437007D01*
G37*
%TD.AperFunction*%
%TA.AperFunction,Conductor*%
G36*
X127520575Y-18437007D02*
G01*
X127486500Y-18564174D01*
X127486500Y-18695826D01*
X127520575Y-18822993D01*
X127555797Y-18884000D01*
X125877203Y-18884000D01*
X125912425Y-18822993D01*
X125946500Y-18695826D01*
X125946500Y-18564174D01*
X125912425Y-18437007D01*
X125877203Y-18376000D01*
X127555797Y-18376000D01*
X127520575Y-18437007D01*
G37*
%TD.AperFunction*%
%TA.AperFunction,Conductor*%
G36*
X130060575Y-18437007D02*
G01*
X130026500Y-18564174D01*
X130026500Y-18695826D01*
X130060575Y-18822993D01*
X130095797Y-18884000D01*
X128417203Y-18884000D01*
X128452425Y-18822993D01*
X128486500Y-18695826D01*
X128486500Y-18564174D01*
X128452425Y-18437007D01*
X128417203Y-18376000D01*
X130095797Y-18376000D01*
X130060575Y-18437007D01*
G37*
%TD.AperFunction*%
%TA.AperFunction,Conductor*%
G36*
X132600575Y-18437007D02*
G01*
X132566500Y-18564174D01*
X132566500Y-18695826D01*
X132600575Y-18822993D01*
X132635797Y-18884000D01*
X130957203Y-18884000D01*
X130992425Y-18822993D01*
X131026500Y-18695826D01*
X131026500Y-18564174D01*
X130992425Y-18437007D01*
X130957203Y-18376000D01*
X132635797Y-18376000D01*
X132600575Y-18437007D01*
G37*
%TD.AperFunction*%
%TA.AperFunction,Conductor*%
G36*
X135140575Y-18437007D02*
G01*
X135106500Y-18564174D01*
X135106500Y-18695826D01*
X135140575Y-18822993D01*
X135175797Y-18884000D01*
X133497203Y-18884000D01*
X133532425Y-18822993D01*
X133566500Y-18695826D01*
X133566500Y-18564174D01*
X133532425Y-18437007D01*
X133497203Y-18376000D01*
X135175797Y-18376000D01*
X135140575Y-18437007D01*
G37*
%TD.AperFunction*%
%TA.AperFunction,Conductor*%
G36*
X137680575Y-18437007D02*
G01*
X137646500Y-18564174D01*
X137646500Y-18695826D01*
X137680575Y-18822993D01*
X137715797Y-18884000D01*
X136037203Y-18884000D01*
X136072425Y-18822993D01*
X136106500Y-18695826D01*
X136106500Y-18564174D01*
X136072425Y-18437007D01*
X136037203Y-18376000D01*
X137715797Y-18376000D01*
X137680575Y-18437007D01*
G37*
%TD.AperFunction*%
%TA.AperFunction,Conductor*%
G36*
X140220575Y-18437007D02*
G01*
X140186500Y-18564174D01*
X140186500Y-18695826D01*
X140220575Y-18822993D01*
X140255797Y-18884000D01*
X138577203Y-18884000D01*
X138612425Y-18822993D01*
X138646500Y-18695826D01*
X138646500Y-18564174D01*
X138612425Y-18437007D01*
X138577203Y-18376000D01*
X140255797Y-18376000D01*
X140220575Y-18437007D01*
G37*
%TD.AperFunction*%
%TA.AperFunction,Conductor*%
G36*
X142760575Y-18437007D02*
G01*
X142726500Y-18564174D01*
X142726500Y-18695826D01*
X142760575Y-18822993D01*
X142795797Y-18884000D01*
X141117203Y-18884000D01*
X141152425Y-18822993D01*
X141186500Y-18695826D01*
X141186500Y-18564174D01*
X141152425Y-18437007D01*
X141117203Y-18376000D01*
X142795797Y-18376000D01*
X142760575Y-18437007D01*
G37*
%TD.AperFunction*%
%TA.AperFunction,Conductor*%
G36*
X105380500Y-18199297D02*
G01*
X105319493Y-18164075D01*
X105192326Y-18130000D01*
X105060674Y-18130000D01*
X104933507Y-18164075D01*
X104872500Y-18199297D01*
X104872500Y-16520702D01*
X104933507Y-16555925D01*
X105060674Y-16590000D01*
X105192326Y-16590000D01*
X105319493Y-16555925D01*
X105380500Y-16520702D01*
X105380500Y-18199297D01*
G37*
%TD.AperFunction*%
%TA.AperFunction,Conductor*%
G36*
X107920500Y-18199297D02*
G01*
X107859493Y-18164075D01*
X107732326Y-18130000D01*
X107600674Y-18130000D01*
X107473507Y-18164075D01*
X107412500Y-18199297D01*
X107412500Y-16520702D01*
X107473507Y-16555925D01*
X107600674Y-16590000D01*
X107732326Y-16590000D01*
X107859493Y-16555925D01*
X107920500Y-16520702D01*
X107920500Y-18199297D01*
G37*
%TD.AperFunction*%
%TA.AperFunction,Conductor*%
G36*
X110460500Y-18199297D02*
G01*
X110399493Y-18164075D01*
X110272326Y-18130000D01*
X110140674Y-18130000D01*
X110013507Y-18164075D01*
X109952500Y-18199297D01*
X109952500Y-16520702D01*
X110013507Y-16555925D01*
X110140674Y-16590000D01*
X110272326Y-16590000D01*
X110399493Y-16555925D01*
X110460500Y-16520702D01*
X110460500Y-18199297D01*
G37*
%TD.AperFunction*%
%TA.AperFunction,Conductor*%
G36*
X115540500Y-18199297D02*
G01*
X115479493Y-18164075D01*
X115352326Y-18130000D01*
X115220674Y-18130000D01*
X115093507Y-18164075D01*
X115032500Y-18199297D01*
X115032500Y-16520702D01*
X115093507Y-16555925D01*
X115220674Y-16590000D01*
X115352326Y-16590000D01*
X115479493Y-16555925D01*
X115540500Y-16520702D01*
X115540500Y-18199297D01*
G37*
%TD.AperFunction*%
%TA.AperFunction,Conductor*%
G36*
X118080500Y-18199297D02*
G01*
X118019493Y-18164075D01*
X117892326Y-18130000D01*
X117760674Y-18130000D01*
X117633507Y-18164075D01*
X117572500Y-18199297D01*
X117572500Y-16520702D01*
X117633507Y-16555925D01*
X117760674Y-16590000D01*
X117892326Y-16590000D01*
X118019493Y-16555925D01*
X118080500Y-16520702D01*
X118080500Y-18199297D01*
G37*
%TD.AperFunction*%
%TA.AperFunction,Conductor*%
G36*
X107200575Y-15897007D02*
G01*
X107166500Y-16024174D01*
X107166500Y-16155826D01*
X107200575Y-16282993D01*
X107235797Y-16344000D01*
X105557203Y-16344000D01*
X105592425Y-16282993D01*
X105626500Y-16155826D01*
X105626500Y-16024174D01*
X105592425Y-15897007D01*
X105557203Y-15836000D01*
X107235797Y-15836000D01*
X107200575Y-15897007D01*
G37*
%TD.AperFunction*%
%TA.AperFunction,Conductor*%
G36*
X109740575Y-15897007D02*
G01*
X109706500Y-16024174D01*
X109706500Y-16155826D01*
X109740575Y-16282993D01*
X109775797Y-16344000D01*
X108097203Y-16344000D01*
X108132425Y-16282993D01*
X108166500Y-16155826D01*
X108166500Y-16024174D01*
X108132425Y-15897007D01*
X108097203Y-15836000D01*
X109775797Y-15836000D01*
X109740575Y-15897007D01*
G37*
%TD.AperFunction*%
%TA.AperFunction,Conductor*%
G36*
X117360575Y-15897007D02*
G01*
X117326500Y-16024174D01*
X117326500Y-16155826D01*
X117360575Y-16282993D01*
X117395797Y-16344000D01*
X115717203Y-16344000D01*
X115752425Y-16282993D01*
X115786500Y-16155826D01*
X115786500Y-16024174D01*
X115752425Y-15897007D01*
X115717203Y-15836000D01*
X117395797Y-15836000D01*
X117360575Y-15897007D01*
G37*
%TD.AperFunction*%
%TA.AperFunction,Conductor*%
G36*
X141803093Y384349D02*
G01*
X142134384Y368073D01*
X142146678Y366862D01*
X142471724Y318646D01*
X142483834Y316237D01*
X142802594Y236392D01*
X142814407Y232809D01*
X143123811Y122103D01*
X143135224Y117375D01*
X143283751Y47127D01*
X143432273Y-23119D01*
X143443178Y-28948D01*
X143725022Y-197878D01*
X143735303Y-204748D01*
X143999233Y-400492D01*
X144008779Y-408326D01*
X144252262Y-629005D01*
X144260994Y-637737D01*
X144481668Y-881214D01*
X144489512Y-890772D01*
X144685251Y-1154696D01*
X144692121Y-1164977D01*
X144861051Y-1446821D01*
X144866880Y-1457726D01*
X145007372Y-1754770D01*
X145012104Y-1766194D01*
X145122805Y-2075582D01*
X145126394Y-2087415D01*
X145206234Y-2406156D01*
X145208646Y-2418283D01*
X145256860Y-2743315D01*
X145258072Y-2755620D01*
X145274348Y-3086906D01*
X145274500Y-3093089D01*
X145274500Y-42192910D01*
X145274348Y-42199093D01*
X145258072Y-42530379D01*
X145256860Y-42542684D01*
X145208646Y-42867716D01*
X145206234Y-42879843D01*
X145126394Y-43198584D01*
X145122805Y-43210417D01*
X145012104Y-43519805D01*
X145007372Y-43531229D01*
X144866880Y-43828273D01*
X144861051Y-43839178D01*
X144692121Y-44121022D01*
X144685251Y-44131303D01*
X144489512Y-44395227D01*
X144481668Y-44404785D01*
X144261000Y-44648256D01*
X144252256Y-44657000D01*
X144008785Y-44877668D01*
X143999227Y-44885512D01*
X143735303Y-45081251D01*
X143725022Y-45088121D01*
X143443178Y-45257051D01*
X143432273Y-45262880D01*
X143135229Y-45403372D01*
X143123805Y-45408104D01*
X142814417Y-45518805D01*
X142802584Y-45522394D01*
X142483843Y-45602234D01*
X142471716Y-45604646D01*
X142146684Y-45652860D01*
X142134379Y-45654072D01*
X141803094Y-45670348D01*
X141796911Y-45670500D01*
X83803089Y-45670500D01*
X83796906Y-45670348D01*
X83465620Y-45654072D01*
X83453315Y-45652860D01*
X83128283Y-45604646D01*
X83116156Y-45602234D01*
X82797415Y-45522394D01*
X82785582Y-45518805D01*
X82476194Y-45408104D01*
X82464770Y-45403372D01*
X82167726Y-45262880D01*
X82156821Y-45257051D01*
X81874977Y-45088121D01*
X81864696Y-45081251D01*
X81600772Y-44885512D01*
X81591214Y-44877668D01*
X81347737Y-44656994D01*
X81339005Y-44648262D01*
X81118326Y-44404779D01*
X81110492Y-44395233D01*
X80914748Y-44131303D01*
X80907878Y-44121022D01*
X80738948Y-43839178D01*
X80733119Y-43828273D01*
X80592627Y-43531229D01*
X80587895Y-43519805D01*
X80488562Y-43242186D01*
X80484446Y-43171309D01*
X80519302Y-43109458D01*
X80582065Y-43076270D01*
X80607197Y-43073738D01*
X82392281Y-43073738D01*
X82460402Y-43093740D01*
X82494216Y-43125676D01*
X82579207Y-43242656D01*
X82579209Y-43242658D01*
X82579211Y-43242661D01*
X82757338Y-43420788D01*
X82757341Y-43420790D01*
X82757344Y-43420793D01*
X82961155Y-43568870D01*
X83185621Y-43683241D01*
X83425215Y-43761090D01*
X83674038Y-43800500D01*
X83674041Y-43800500D01*
X83925959Y-43800500D01*
X83925962Y-43800500D01*
X84174785Y-43761090D01*
X84414379Y-43683241D01*
X84638845Y-43568870D01*
X84842656Y-43420793D01*
X85020793Y-43242656D01*
X85168870Y-43038845D01*
X85283241Y-42814379D01*
X85361090Y-42574785D01*
X85400500Y-42325962D01*
X85400500Y-42074038D01*
X140199500Y-42074038D01*
X140199500Y-42325962D01*
X140206348Y-42369197D01*
X140238911Y-42574790D01*
X140284118Y-42713922D01*
X140316759Y-42814379D01*
X140431130Y-43038845D01*
X140579207Y-43242656D01*
X140579209Y-43242658D01*
X140579211Y-43242661D01*
X140757338Y-43420788D01*
X140757341Y-43420790D01*
X140757344Y-43420793D01*
X140961155Y-43568870D01*
X141185621Y-43683241D01*
X141425215Y-43761090D01*
X141674038Y-43800500D01*
X141674041Y-43800500D01*
X141925959Y-43800500D01*
X141925962Y-43800500D01*
X142174785Y-43761090D01*
X142414379Y-43683241D01*
X142638845Y-43568870D01*
X142842656Y-43420793D01*
X143020793Y-43242656D01*
X143168870Y-43038845D01*
X143283241Y-42814379D01*
X143361090Y-42574785D01*
X143400500Y-42325962D01*
X143400500Y-42074038D01*
X143361090Y-41825215D01*
X143283241Y-41585621D01*
X143168870Y-41361155D01*
X143020793Y-41157344D01*
X143020790Y-41157341D01*
X143020788Y-41157338D01*
X142842661Y-40979211D01*
X142842658Y-40979209D01*
X142842656Y-40979207D01*
X142638845Y-40831130D01*
X142414379Y-40716759D01*
X142414376Y-40716758D01*
X142414374Y-40716757D01*
X142174790Y-40638911D01*
X142174786Y-40638910D01*
X142174785Y-40638910D01*
X141925962Y-40599500D01*
X141674038Y-40599500D01*
X141425215Y-40638910D01*
X141425209Y-40638911D01*
X141185625Y-40716757D01*
X141185619Y-40716760D01*
X140961151Y-40831132D01*
X140757341Y-40979209D01*
X140757338Y-40979211D01*
X140579211Y-41157338D01*
X140579209Y-41157341D01*
X140431132Y-41361151D01*
X140316760Y-41585619D01*
X140316757Y-41585625D01*
X140238911Y-41825209D01*
X140238910Y-41825214D01*
X140238910Y-41825215D01*
X140199500Y-42074038D01*
X85400500Y-42074038D01*
X85361090Y-41825215D01*
X85283241Y-41585621D01*
X85168870Y-41361155D01*
X85020793Y-41157344D01*
X85020790Y-41157341D01*
X85020788Y-41157338D01*
X84842661Y-40979211D01*
X84842658Y-40979209D01*
X84842656Y-40979207D01*
X84638845Y-40831130D01*
X84414379Y-40716759D01*
X84414376Y-40716758D01*
X84414374Y-40716757D01*
X84174790Y-40638911D01*
X84174786Y-40638910D01*
X84174785Y-40638910D01*
X83925962Y-40599500D01*
X83674038Y-40599500D01*
X83425215Y-40638910D01*
X83425209Y-40638911D01*
X83185625Y-40716757D01*
X83185619Y-40716760D01*
X82961151Y-40831132D01*
X82757341Y-40979209D01*
X82757338Y-40979211D01*
X82679767Y-41056783D01*
X82617455Y-41090809D01*
X82546640Y-41085744D01*
X82489804Y-41043197D01*
X82464993Y-40976677D01*
X82464672Y-40967688D01*
X82464672Y-36250000D01*
X86344534Y-36250000D01*
X86364382Y-36590776D01*
X86364383Y-36590785D01*
X86423660Y-36926963D01*
X86423660Y-36926964D01*
X86521565Y-37253990D01*
X86521567Y-37253996D01*
X86656766Y-37567422D01*
X86656775Y-37567440D01*
X86827447Y-37863053D01*
X86827465Y-37863080D01*
X87031297Y-38136873D01*
X87031301Y-38136879D01*
X87032568Y-38138221D01*
X87972628Y-37198160D01*
X88048147Y-37302102D01*
X88227898Y-37481853D01*
X88331838Y-37557370D01*
X87395225Y-38493983D01*
X87527065Y-38604608D01*
X87812259Y-38792183D01*
X88117325Y-38945393D01*
X88438096Y-39062144D01*
X88438095Y-39062144D01*
X88770260Y-39140869D01*
X88770266Y-39140870D01*
X89109315Y-39180500D01*
X89450685Y-39180500D01*
X89789733Y-39140870D01*
X89789739Y-39140869D01*
X90121903Y-39062144D01*
X90442674Y-38945393D01*
X90747740Y-38792183D01*
X91032934Y-38604608D01*
X91164773Y-38493983D01*
X91164773Y-38493982D01*
X90228161Y-37557370D01*
X90332102Y-37481853D01*
X90511853Y-37302102D01*
X90587370Y-37198161D01*
X91527430Y-38138221D01*
X91528691Y-38136887D01*
X91528709Y-38136865D01*
X91732534Y-37863080D01*
X91732552Y-37863053D01*
X91903224Y-37567440D01*
X91903233Y-37567422D01*
X92038432Y-37253996D01*
X92038434Y-37253990D01*
X92136339Y-36926964D01*
X92136339Y-36926963D01*
X92195616Y-36590785D01*
X92195617Y-36590776D01*
X92215465Y-36250000D01*
X92195617Y-35909223D01*
X92195616Y-35909214D01*
X92136339Y-35573036D01*
X92136339Y-35573035D01*
X92038434Y-35246009D01*
X92038432Y-35246003D01*
X91903233Y-34932577D01*
X91903224Y-34932559D01*
X91732552Y-34636946D01*
X91732534Y-34636919D01*
X91528702Y-34363125D01*
X91528691Y-34363112D01*
X91527431Y-34361778D01*
X91527430Y-34361777D01*
X90587369Y-35301837D01*
X90511853Y-35197898D01*
X90332102Y-35018147D01*
X90228160Y-34942629D01*
X91164773Y-34006016D01*
X91032930Y-33895388D01*
X90747740Y-33707816D01*
X90442674Y-33554606D01*
X90121903Y-33437855D01*
X90121904Y-33437855D01*
X89789739Y-33359130D01*
X89789733Y-33359129D01*
X89450685Y-33319500D01*
X89109315Y-33319500D01*
X88770266Y-33359129D01*
X88770260Y-33359130D01*
X88438096Y-33437855D01*
X88117325Y-33554606D01*
X87812259Y-33707816D01*
X87527069Y-33895389D01*
X87527059Y-33895396D01*
X87395225Y-34006016D01*
X88331838Y-34942629D01*
X88227898Y-35018147D01*
X88048147Y-35197898D01*
X87972629Y-35301838D01*
X87032569Y-34361778D01*
X87032568Y-34361778D01*
X87031301Y-34363121D01*
X87031297Y-34363125D01*
X86827464Y-34636919D01*
X86827447Y-34636946D01*
X86656775Y-34932559D01*
X86656766Y-34932577D01*
X86521567Y-35246003D01*
X86521565Y-35246009D01*
X86423660Y-35573035D01*
X86423660Y-35573036D01*
X86364383Y-35909214D01*
X86364382Y-35909223D01*
X86344534Y-36250000D01*
X82464672Y-36250000D01*
X82464672Y-34801500D01*
X80451500Y-34801500D01*
X80383379Y-34781498D01*
X80336886Y-34727842D01*
X80325500Y-34675500D01*
X80325500Y-27654500D01*
X80903344Y-27654500D01*
X80919336Y-27847493D01*
X80921937Y-27878875D01*
X80977202Y-28097112D01*
X80977203Y-28097113D01*
X81067641Y-28303293D01*
X81190775Y-28491765D01*
X81190779Y-28491770D01*
X81334341Y-28647717D01*
X81365762Y-28711382D01*
X81357776Y-28781928D01*
X81312917Y-28836957D01*
X81285673Y-28851110D01*
X81170539Y-28894053D01*
X81170534Y-28894055D01*
X81053595Y-28981595D01*
X80966055Y-29098534D01*
X80966055Y-29098535D01*
X80915005Y-29235406D01*
X80908500Y-29295902D01*
X80908500Y-29940500D01*
X81835797Y-29940500D01*
X81800575Y-30001507D01*
X81766500Y-30128674D01*
X81766500Y-30260326D01*
X81800575Y-30387493D01*
X81835797Y-30448500D01*
X80908500Y-30448500D01*
X80908500Y-31093097D01*
X80915005Y-31153593D01*
X80966055Y-31290464D01*
X80966055Y-31290465D01*
X81053595Y-31407404D01*
X81170534Y-31494944D01*
X81307406Y-31545994D01*
X81367902Y-31552499D01*
X81367915Y-31552500D01*
X82012500Y-31552500D01*
X82012500Y-30625202D01*
X82073507Y-30660425D01*
X82200674Y-30694500D01*
X82332326Y-30694500D01*
X82459493Y-30660425D01*
X82520500Y-30625202D01*
X82520500Y-31552500D01*
X82913137Y-31552500D01*
X82981258Y-31572502D01*
X83027751Y-31626158D01*
X83033783Y-31643979D01*
X83092290Y-31811182D01*
X83146563Y-31897556D01*
X83174656Y-31942266D01*
X83183231Y-31955912D01*
X83304087Y-32076768D01*
X83304089Y-32076769D01*
X83304091Y-32076771D01*
X83448817Y-32167709D01*
X83610150Y-32224162D01*
X83610149Y-32224162D01*
X83627348Y-32226099D01*
X83780000Y-32243299D01*
X83949850Y-32224162D01*
X84111183Y-32167709D01*
X84255909Y-32076771D01*
X84376771Y-31955909D01*
X84467709Y-31811183D01*
X84524162Y-31649850D01*
X84530637Y-31592375D01*
X84552500Y-31540344D01*
X84552500Y-30625202D01*
X84613507Y-30660425D01*
X84740674Y-30694500D01*
X84872326Y-30694500D01*
X84999493Y-30660425D01*
X85060500Y-30625202D01*
X85060500Y-31528890D01*
X85141007Y-31515457D01*
X85141016Y-31515455D01*
X85330074Y-31450552D01*
X85400998Y-31447352D01*
X85460081Y-31480630D01*
X85587872Y-31608421D01*
X85621898Y-31670733D01*
X85623984Y-31683402D01*
X85625837Y-31699847D01*
X85625838Y-31699852D01*
X85682290Y-31861182D01*
X85746997Y-31964162D01*
X85759021Y-31983298D01*
X85773231Y-32005912D01*
X85894087Y-32126768D01*
X85894089Y-32126769D01*
X85894091Y-32126771D01*
X86038817Y-32217709D01*
X86200150Y-32274162D01*
X86200149Y-32274162D01*
X86217348Y-32276099D01*
X86370000Y-32293299D01*
X86539850Y-32274162D01*
X86701183Y-32217709D01*
X86845909Y-32126771D01*
X86966771Y-32005909D01*
X87057709Y-31861183D01*
X87114162Y-31699850D01*
X87133299Y-31530000D01*
X87114162Y-31360150D01*
X87099569Y-31318448D01*
X87092500Y-31276835D01*
X87092500Y-30625202D01*
X87153507Y-30660425D01*
X87280674Y-30694500D01*
X87412326Y-30694500D01*
X87539493Y-30660425D01*
X87600500Y-30625202D01*
X87600500Y-31528890D01*
X87681007Y-31515457D01*
X87681016Y-31515455D01*
X87893869Y-31442383D01*
X87893875Y-31442380D01*
X88062606Y-31351067D01*
X88132036Y-31336236D01*
X88198463Y-31361296D01*
X88211671Y-31372785D01*
X88220296Y-31381410D01*
X88254322Y-31443722D01*
X88256408Y-31456391D01*
X88258261Y-31472836D01*
X88258262Y-31472841D01*
X88314714Y-31634171D01*
X88405655Y-31778901D01*
X88526511Y-31899757D01*
X88526513Y-31899758D01*
X88526515Y-31899760D01*
X88671241Y-31990698D01*
X88832574Y-32047151D01*
X88832573Y-32047151D01*
X88849772Y-32049088D01*
X89002424Y-32066288D01*
X89172274Y-32047151D01*
X89333607Y-31990698D01*
X89478333Y-31899760D01*
X89599195Y-31778898D01*
X89690133Y-31634172D01*
X89746586Y-31472839D01*
X89765723Y-31302989D01*
X89746586Y-31133139D01*
X89690133Y-30971806D01*
X89651812Y-30910820D01*
X89632500Y-30843784D01*
X89632500Y-30625202D01*
X89693507Y-30660425D01*
X89820674Y-30694500D01*
X89952326Y-30694500D01*
X90079493Y-30660425D01*
X90140500Y-30625202D01*
X90140500Y-31528890D01*
X90221007Y-31515457D01*
X90221016Y-31515455D01*
X90433869Y-31442383D01*
X90433871Y-31442382D01*
X90631800Y-31335268D01*
X90631801Y-31335267D01*
X90744934Y-31247213D01*
X90810977Y-31221157D01*
X90880622Y-31234942D01*
X90931759Y-31284193D01*
X90947532Y-31332533D01*
X90949367Y-31348818D01*
X90949367Y-31348820D01*
X90949368Y-31348821D01*
X91005819Y-31510150D01*
X91044361Y-31571489D01*
X91091137Y-31645932D01*
X91096760Y-31654880D01*
X91217616Y-31775736D01*
X91217618Y-31775737D01*
X91217620Y-31775739D01*
X91362346Y-31866677D01*
X91523679Y-31923130D01*
X91523678Y-31923130D01*
X91540877Y-31925067D01*
X91693529Y-31942267D01*
X91863379Y-31923130D01*
X92024712Y-31866677D01*
X92169438Y-31775739D01*
X92290300Y-31654877D01*
X92381238Y-31510151D01*
X92435571Y-31354875D01*
X92476949Y-31297184D01*
X92542949Y-31271022D01*
X92612617Y-31284695D01*
X92663833Y-31333862D01*
X92680500Y-31396491D01*
X92680500Y-31528890D01*
X92761007Y-31515457D01*
X92761016Y-31515455D01*
X92973869Y-31442383D01*
X92973871Y-31442382D01*
X93171799Y-31335268D01*
X93179209Y-31329501D01*
X93245250Y-31303442D01*
X93314896Y-31317223D01*
X93345700Y-31339834D01*
X93454591Y-31448725D01*
X93454593Y-31448726D01*
X93454595Y-31448728D01*
X93599321Y-31539666D01*
X93760654Y-31596119D01*
X93760653Y-31596119D01*
X93777852Y-31598056D01*
X93930504Y-31615256D01*
X94100354Y-31596119D01*
X94261687Y-31539666D01*
X94366447Y-31473839D01*
X94434765Y-31454534D01*
X94474395Y-31461354D01*
X94631987Y-31515456D01*
X94631992Y-31515457D01*
X94712500Y-31528891D01*
X94712500Y-30625202D01*
X94773507Y-30660425D01*
X94900674Y-30694500D01*
X95032326Y-30694500D01*
X95159493Y-30660425D01*
X95220500Y-30625202D01*
X95220500Y-31528890D01*
X95301007Y-31515457D01*
X95301016Y-31515455D01*
X95513869Y-31442383D01*
X95513872Y-31442381D01*
X95524978Y-31436371D01*
X95594408Y-31421537D01*
X95660835Y-31446595D01*
X95691639Y-31480145D01*
X95692290Y-31481182D01*
X95692291Y-31481183D01*
X95783229Y-31625909D01*
X95783231Y-31625911D01*
X95783232Y-31625912D01*
X95783232Y-31625913D01*
X95904087Y-31746768D01*
X95904089Y-31746769D01*
X95904091Y-31746771D01*
X96048817Y-31837709D01*
X96210150Y-31894162D01*
X96210149Y-31894162D01*
X96227348Y-31896099D01*
X96380000Y-31913299D01*
X96549850Y-31894162D01*
X96711183Y-31837709D01*
X96855909Y-31746771D01*
X96976771Y-31625909D01*
X97015361Y-31564492D01*
X97068538Y-31517457D01*
X97138705Y-31506636D01*
X97162961Y-31512358D01*
X97171981Y-31515454D01*
X97171992Y-31515457D01*
X97252500Y-31528891D01*
X97252500Y-30625202D01*
X97313507Y-30660425D01*
X97440674Y-30694500D01*
X97572326Y-30694500D01*
X97699493Y-30660425D01*
X97760500Y-30625202D01*
X97760500Y-31528890D01*
X97841007Y-31515457D01*
X97841016Y-31515455D01*
X98053867Y-31442383D01*
X98175029Y-31376814D01*
X98244460Y-31361984D01*
X98310886Y-31387044D01*
X98353219Y-31444039D01*
X98360999Y-31487628D01*
X98360999Y-31737861D01*
X98340997Y-31805982D01*
X98324094Y-31826956D01*
X96599938Y-33551111D01*
X96537626Y-33585137D01*
X96478232Y-33583723D01*
X96403293Y-33563643D01*
X96180000Y-33544107D01*
X95956707Y-33563643D01*
X95913214Y-33575297D01*
X95740200Y-33621655D01*
X95740195Y-33621657D01*
X95537053Y-33716384D01*
X95353447Y-33844946D01*
X95353441Y-33844951D01*
X95194951Y-34003441D01*
X95194946Y-34003447D01*
X95066384Y-34187053D01*
X94971657Y-34390195D01*
X94971655Y-34390200D01*
X94938542Y-34513783D01*
X94913643Y-34606707D01*
X94894107Y-34830000D01*
X94913643Y-35053293D01*
X94916706Y-35064724D01*
X94971655Y-35269799D01*
X94971657Y-35269804D01*
X95066383Y-35472945D01*
X95066384Y-35472947D01*
X95194945Y-35656551D01*
X95194952Y-35656560D01*
X95353439Y-35815047D01*
X95353443Y-35815050D01*
X95353444Y-35815051D01*
X95537053Y-35943616D01*
X95740199Y-36038344D01*
X95956707Y-36096357D01*
X96180000Y-36115893D01*
X96403293Y-36096357D01*
X96619801Y-36038344D01*
X96822947Y-35943616D01*
X97006556Y-35815051D01*
X97165051Y-35656556D01*
X97293616Y-35472947D01*
X97388344Y-35269801D01*
X97443294Y-35064720D01*
X97480244Y-35004102D01*
X97544105Y-34973080D01*
X97614599Y-34981508D01*
X97669346Y-35026711D01*
X97686704Y-35064718D01*
X97708542Y-35146217D01*
X97741655Y-35269799D01*
X97741657Y-35269804D01*
X97836383Y-35472945D01*
X97836384Y-35472947D01*
X97964945Y-35656551D01*
X97964952Y-35656560D01*
X98123439Y-35815047D01*
X98123443Y-35815050D01*
X98123444Y-35815051D01*
X98307053Y-35943616D01*
X98510199Y-36038344D01*
X98726707Y-36096357D01*
X98950000Y-36115893D01*
X99173293Y-36096357D01*
X99389801Y-36038344D01*
X99592947Y-35943616D01*
X99776556Y-35815051D01*
X99935051Y-35656556D01*
X100063616Y-35472947D01*
X100158344Y-35269801D01*
X100213294Y-35064720D01*
X100250244Y-35004102D01*
X100314105Y-34973080D01*
X100384599Y-34981508D01*
X100439346Y-35026711D01*
X100456704Y-35064718D01*
X100478542Y-35146217D01*
X100511655Y-35269799D01*
X100511657Y-35269804D01*
X100606383Y-35472945D01*
X100606384Y-35472947D01*
X100734945Y-35656551D01*
X100734952Y-35656560D01*
X100893439Y-35815047D01*
X100893443Y-35815050D01*
X100893444Y-35815051D01*
X101077053Y-35943616D01*
X101280199Y-36038344D01*
X101496707Y-36096357D01*
X101720000Y-36115893D01*
X101943293Y-36096357D01*
X102159801Y-36038344D01*
X102362947Y-35943616D01*
X102413231Y-35908406D01*
X102480503Y-35885719D01*
X102549363Y-35903004D01*
X102597948Y-35954773D01*
X102611500Y-36011620D01*
X102611500Y-36406424D01*
X102591498Y-36474545D01*
X102538751Y-36520618D01*
X102462055Y-36556382D01*
X102278447Y-36684946D01*
X102278441Y-36684951D01*
X102119951Y-36843441D01*
X102119946Y-36843447D01*
X101991384Y-37027053D01*
X101896657Y-37230195D01*
X101896655Y-37230201D01*
X101841448Y-37436239D01*
X101804496Y-37496862D01*
X101740636Y-37527883D01*
X101670141Y-37519455D01*
X101615394Y-37474252D01*
X101598034Y-37436239D01*
X101542872Y-37230372D01*
X101542870Y-37230367D01*
X101448183Y-37027309D01*
X101402352Y-36961856D01*
X100831405Y-37532803D01*
X100814904Y-37471217D01*
X100747103Y-37353783D01*
X100651217Y-37257897D01*
X100533783Y-37190096D01*
X100472195Y-37173593D01*
X101043142Y-36602646D01*
X101043142Y-36602645D01*
X100977694Y-36556818D01*
X100977695Y-36556818D01*
X100774633Y-36462129D01*
X100774627Y-36462127D01*
X100558205Y-36404137D01*
X100335000Y-36384609D01*
X100111794Y-36404137D01*
X99895372Y-36462127D01*
X99895367Y-36462129D01*
X99692305Y-36556818D01*
X99626855Y-36602646D01*
X100197803Y-37173594D01*
X100136217Y-37190096D01*
X100018783Y-37257897D01*
X99922897Y-37353783D01*
X99855096Y-37471217D01*
X99838594Y-37532803D01*
X99267646Y-36961855D01*
X99221818Y-37027305D01*
X99127129Y-37230367D01*
X99127128Y-37230369D01*
X99071965Y-37436240D01*
X99035013Y-37496862D01*
X98971152Y-37527884D01*
X98900658Y-37519455D01*
X98845911Y-37474252D01*
X98828553Y-37436244D01*
X98773344Y-37230199D01*
X98678616Y-37027054D01*
X98550051Y-36843444D01*
X98391556Y-36684949D01*
X98391555Y-36684948D01*
X98391554Y-36684947D01*
X98391551Y-36684945D01*
X98207947Y-36556384D01*
X98207945Y-36556383D01*
X98004804Y-36461657D01*
X98004799Y-36461655D01*
X97904317Y-36434731D01*
X97788293Y-36403643D01*
X97565000Y-36384107D01*
X97341707Y-36403643D01*
X97296023Y-36415884D01*
X97125200Y-36461655D01*
X97125195Y-36461657D01*
X96922053Y-36556384D01*
X96738447Y-36684946D01*
X96738441Y-36684951D01*
X96579951Y-36843441D01*
X96579946Y-36843447D01*
X96451384Y-37027053D01*
X96356657Y-37230195D01*
X96356655Y-37230200D01*
X96323542Y-37353783D01*
X96298643Y-37446707D01*
X96279107Y-37670000D01*
X96298643Y-37893293D01*
X96301448Y-37903760D01*
X96356655Y-38109799D01*
X96356657Y-38109804D01*
X96451383Y-38312945D01*
X96451384Y-38312947D01*
X96579945Y-38496551D01*
X96579952Y-38496560D01*
X96738439Y-38655047D01*
X96738443Y-38655050D01*
X96738444Y-38655051D01*
X96922053Y-38783616D01*
X97125199Y-38878344D01*
X97341707Y-38936357D01*
X97565000Y-38955893D01*
X97788293Y-38936357D01*
X98004801Y-38878344D01*
X98207947Y-38783616D01*
X98391556Y-38655051D01*
X98550051Y-38496556D01*
X98678616Y-38312947D01*
X98773344Y-38109801D01*
X98828552Y-37903757D01*
X98865502Y-37843138D01*
X98929363Y-37812116D01*
X98999857Y-37820544D01*
X99054604Y-37865746D01*
X99071965Y-37903760D01*
X99127127Y-38109627D01*
X99127129Y-38109633D01*
X99221818Y-38312695D01*
X99267646Y-38378142D01*
X99838593Y-37807195D01*
X99855096Y-37868783D01*
X99922897Y-37986217D01*
X100018783Y-38082103D01*
X100136217Y-38149904D01*
X100197803Y-38166405D01*
X99626856Y-38737352D01*
X99626856Y-38737353D01*
X99692305Y-38783181D01*
X99692304Y-38783181D01*
X99895366Y-38877870D01*
X99895372Y-38877872D01*
X100111794Y-38935862D01*
X100335000Y-38955390D01*
X100558205Y-38935862D01*
X100774627Y-38877872D01*
X100774633Y-38877870D01*
X100977695Y-38783181D01*
X100977696Y-38783180D01*
X101043142Y-38737353D01*
X101043142Y-38737351D01*
X100472196Y-38166405D01*
X100533783Y-38149904D01*
X100651217Y-38082103D01*
X100747103Y-37986217D01*
X100814904Y-37868783D01*
X100831405Y-37807196D01*
X101402351Y-38378142D01*
X101402353Y-38378142D01*
X101448180Y-38312696D01*
X101448181Y-38312695D01*
X101542870Y-38109633D01*
X101542872Y-38109628D01*
X101598034Y-37903760D01*
X101634986Y-37843137D01*
X101698846Y-37812116D01*
X101769341Y-37820544D01*
X101824088Y-37865747D01*
X101841448Y-37903760D01*
X101896655Y-38109799D01*
X101896657Y-38109804D01*
X101991383Y-38312945D01*
X101991384Y-38312947D01*
X102119945Y-38496551D01*
X102119952Y-38496560D01*
X102278439Y-38655047D01*
X102278443Y-38655050D01*
X102278444Y-38655051D01*
X102462053Y-38783616D01*
X102665199Y-38878344D01*
X102881707Y-38936357D01*
X103105000Y-38955893D01*
X103328293Y-38936357D01*
X103544801Y-38878344D01*
X103747947Y-38783616D01*
X103931556Y-38655051D01*
X104090051Y-38496556D01*
X104218616Y-38312947D01*
X104313344Y-38109801D01*
X104368294Y-37904720D01*
X104405244Y-37844102D01*
X104469105Y-37813080D01*
X104539599Y-37821508D01*
X104594346Y-37866711D01*
X104611704Y-37904718D01*
X104633542Y-37986217D01*
X104666655Y-38109799D01*
X104666657Y-38109804D01*
X104761383Y-38312945D01*
X104761384Y-38312947D01*
X104889945Y-38496551D01*
X104889952Y-38496560D01*
X105048439Y-38655047D01*
X105048443Y-38655050D01*
X105048444Y-38655051D01*
X105232053Y-38783616D01*
X105435199Y-38878344D01*
X105651707Y-38936357D01*
X105875000Y-38955893D01*
X106098293Y-38936357D01*
X106314801Y-38878344D01*
X106517947Y-38783616D01*
X106701556Y-38655051D01*
X106860051Y-38496556D01*
X106988616Y-38312947D01*
X107083344Y-38109801D01*
X107138294Y-37904720D01*
X107175244Y-37844102D01*
X107239105Y-37813080D01*
X107309599Y-37821508D01*
X107364346Y-37866711D01*
X107381704Y-37904718D01*
X107403542Y-37986217D01*
X107436655Y-38109799D01*
X107436657Y-38109804D01*
X107531383Y-38312945D01*
X107531384Y-38312947D01*
X107659945Y-38496551D01*
X107659952Y-38496560D01*
X107818439Y-38655047D01*
X107818443Y-38655050D01*
X107818444Y-38655051D01*
X108002053Y-38783616D01*
X108205199Y-38878344D01*
X108421707Y-38936357D01*
X108645000Y-38955893D01*
X108868293Y-38936357D01*
X109084801Y-38878344D01*
X109287947Y-38783616D01*
X109471556Y-38655051D01*
X109630051Y-38496556D01*
X109758616Y-38312947D01*
X109853344Y-38109801D01*
X109908294Y-37904720D01*
X109945244Y-37844102D01*
X110009105Y-37813080D01*
X110079599Y-37821508D01*
X110134346Y-37866711D01*
X110151704Y-37904718D01*
X110173542Y-37986217D01*
X110206655Y-38109799D01*
X110206657Y-38109804D01*
X110301383Y-38312945D01*
X110301384Y-38312947D01*
X110429945Y-38496551D01*
X110429952Y-38496560D01*
X110588439Y-38655047D01*
X110588443Y-38655050D01*
X110588444Y-38655051D01*
X110772053Y-38783616D01*
X110975199Y-38878344D01*
X111191707Y-38936357D01*
X111415000Y-38955893D01*
X111638293Y-38936357D01*
X111854801Y-38878344D01*
X112057947Y-38783616D01*
X112241556Y-38655051D01*
X112400051Y-38496556D01*
X112528616Y-38312947D01*
X112623344Y-38109801D01*
X112678294Y-37904720D01*
X112715244Y-37844102D01*
X112779105Y-37813080D01*
X112849599Y-37821508D01*
X112904346Y-37866711D01*
X112921704Y-37904718D01*
X112943542Y-37986217D01*
X112976655Y-38109799D01*
X112976657Y-38109804D01*
X113071383Y-38312945D01*
X113071384Y-38312947D01*
X113199945Y-38496551D01*
X113199952Y-38496560D01*
X113358439Y-38655047D01*
X113358443Y-38655050D01*
X113358444Y-38655051D01*
X113542053Y-38783616D01*
X113745199Y-38878344D01*
X113961707Y-38936357D01*
X114185000Y-38955893D01*
X114408293Y-38936357D01*
X114624801Y-38878344D01*
X114827947Y-38783616D01*
X115011556Y-38655051D01*
X115170051Y-38496556D01*
X115298616Y-38312947D01*
X115393344Y-38109801D01*
X115448552Y-37903757D01*
X115485502Y-37843138D01*
X115549363Y-37812116D01*
X115619857Y-37820544D01*
X115674604Y-37865746D01*
X115691965Y-37903760D01*
X115747127Y-38109627D01*
X115747129Y-38109633D01*
X115841818Y-38312695D01*
X115887646Y-38378142D01*
X116458593Y-37807195D01*
X116475096Y-37868783D01*
X116542897Y-37986217D01*
X116638783Y-38082103D01*
X116756217Y-38149904D01*
X116817803Y-38166405D01*
X116246856Y-38737352D01*
X116246856Y-38737353D01*
X116312305Y-38783181D01*
X116312304Y-38783181D01*
X116515366Y-38877870D01*
X116515372Y-38877872D01*
X116731794Y-38935862D01*
X116955000Y-38955390D01*
X117178205Y-38935862D01*
X117394627Y-38877872D01*
X117394633Y-38877870D01*
X117597695Y-38783181D01*
X117597696Y-38783180D01*
X117663142Y-38737353D01*
X117663142Y-38737351D01*
X117092196Y-38166405D01*
X117153783Y-38149904D01*
X117271217Y-38082103D01*
X117367103Y-37986217D01*
X117434904Y-37868783D01*
X117451405Y-37807196D01*
X118022351Y-38378142D01*
X118022353Y-38378142D01*
X118068180Y-38312696D01*
X118068181Y-38312695D01*
X118162870Y-38109633D01*
X118162872Y-38109628D01*
X118218034Y-37903760D01*
X118254986Y-37843137D01*
X118318846Y-37812116D01*
X118389341Y-37820544D01*
X118444088Y-37865747D01*
X118461448Y-37903760D01*
X118516655Y-38109799D01*
X118516657Y-38109804D01*
X118611383Y-38312945D01*
X118611384Y-38312947D01*
X118739945Y-38496551D01*
X118739952Y-38496560D01*
X118898439Y-38655047D01*
X118898443Y-38655050D01*
X118898444Y-38655051D01*
X119082053Y-38783616D01*
X119285199Y-38878344D01*
X119501707Y-38936357D01*
X119725000Y-38955893D01*
X119948293Y-38936357D01*
X120164801Y-38878344D01*
X120367947Y-38783616D01*
X120551556Y-38655051D01*
X120710051Y-38496556D01*
X120838616Y-38312947D01*
X120933344Y-38109801D01*
X120988552Y-37903757D01*
X121025502Y-37843138D01*
X121089363Y-37812116D01*
X121159857Y-37820544D01*
X121214604Y-37865746D01*
X121231965Y-37903760D01*
X121287127Y-38109627D01*
X121287129Y-38109633D01*
X121381818Y-38312695D01*
X121427646Y-38378142D01*
X121998593Y-37807195D01*
X122015096Y-37868783D01*
X122082897Y-37986217D01*
X122178783Y-38082103D01*
X122296217Y-38149904D01*
X122357803Y-38166405D01*
X121786856Y-38737352D01*
X121786856Y-38737353D01*
X121852305Y-38783181D01*
X121852304Y-38783181D01*
X122055366Y-38877870D01*
X122055372Y-38877872D01*
X122271794Y-38935862D01*
X122495000Y-38955390D01*
X122718205Y-38935862D01*
X122934627Y-38877872D01*
X122934633Y-38877870D01*
X123137695Y-38783181D01*
X123137696Y-38783180D01*
X123203142Y-38737353D01*
X123203142Y-38737351D01*
X122632196Y-38166405D01*
X122693783Y-38149904D01*
X122811217Y-38082103D01*
X122907103Y-37986217D01*
X122974904Y-37868783D01*
X122991405Y-37807196D01*
X123562351Y-38378142D01*
X123562353Y-38378142D01*
X123608180Y-38312696D01*
X123608181Y-38312695D01*
X123702870Y-38109633D01*
X123702872Y-38109628D01*
X123758034Y-37903760D01*
X123794986Y-37843137D01*
X123858846Y-37812116D01*
X123929341Y-37820544D01*
X123984088Y-37865747D01*
X124001448Y-37903760D01*
X124056655Y-38109799D01*
X124056657Y-38109804D01*
X124151383Y-38312945D01*
X124151384Y-38312947D01*
X124279945Y-38496551D01*
X124279952Y-38496560D01*
X124438439Y-38655047D01*
X124438443Y-38655050D01*
X124438444Y-38655051D01*
X124622053Y-38783616D01*
X124825199Y-38878344D01*
X125041707Y-38936357D01*
X125265000Y-38955893D01*
X125488293Y-38936357D01*
X125704801Y-38878344D01*
X125907947Y-38783616D01*
X126091556Y-38655051D01*
X126250051Y-38496556D01*
X126378616Y-38312947D01*
X126473344Y-38109801D01*
X126528552Y-37903757D01*
X126565502Y-37843138D01*
X126629363Y-37812116D01*
X126699857Y-37820544D01*
X126754604Y-37865746D01*
X126771965Y-37903760D01*
X126827127Y-38109627D01*
X126827129Y-38109633D01*
X126921818Y-38312695D01*
X126967646Y-38378142D01*
X127538593Y-37807195D01*
X127555096Y-37868783D01*
X127622897Y-37986217D01*
X127718783Y-38082103D01*
X127836217Y-38149904D01*
X127897803Y-38166405D01*
X127326856Y-38737352D01*
X127326856Y-38737353D01*
X127392305Y-38783181D01*
X127392304Y-38783181D01*
X127595366Y-38877870D01*
X127595372Y-38877872D01*
X127811794Y-38935862D01*
X128035000Y-38955390D01*
X128258205Y-38935862D01*
X128474627Y-38877872D01*
X128474633Y-38877870D01*
X128677695Y-38783181D01*
X128677696Y-38783180D01*
X128743142Y-38737353D01*
X128743142Y-38737351D01*
X128172196Y-38166405D01*
X128233783Y-38149904D01*
X128351217Y-38082103D01*
X128447103Y-37986217D01*
X128514904Y-37868783D01*
X128531405Y-37807196D01*
X129102351Y-38378142D01*
X129102353Y-38378142D01*
X129148180Y-38312696D01*
X129148181Y-38312695D01*
X129242870Y-38109633D01*
X129242872Y-38109627D01*
X129300862Y-37893205D01*
X129320390Y-37670000D01*
X129300862Y-37446794D01*
X129242872Y-37230372D01*
X129242870Y-37230367D01*
X129148183Y-37027309D01*
X129102352Y-36961856D01*
X128531405Y-37532803D01*
X128514904Y-37471217D01*
X128447103Y-37353783D01*
X128351217Y-37257897D01*
X128233783Y-37190096D01*
X128172195Y-37173593D01*
X128743142Y-36602646D01*
X128743142Y-36602645D01*
X128677694Y-36556818D01*
X128677695Y-36556818D01*
X128474633Y-36462129D01*
X128474627Y-36462127D01*
X128258205Y-36404137D01*
X128035000Y-36384609D01*
X127811794Y-36404137D01*
X127595372Y-36462127D01*
X127595367Y-36462129D01*
X127392305Y-36556818D01*
X127326855Y-36602646D01*
X127897803Y-37173594D01*
X127836217Y-37190096D01*
X127718783Y-37257897D01*
X127622897Y-37353783D01*
X127555096Y-37471217D01*
X127538594Y-37532803D01*
X126967646Y-36961855D01*
X126921818Y-37027305D01*
X126827129Y-37230367D01*
X126827128Y-37230369D01*
X126771965Y-37436240D01*
X126735013Y-37496862D01*
X126671152Y-37527884D01*
X126600658Y-37519455D01*
X126545911Y-37474252D01*
X126528553Y-37436244D01*
X126473344Y-37230199D01*
X126378616Y-37027054D01*
X126250051Y-36843444D01*
X126091556Y-36684949D01*
X126091555Y-36684948D01*
X125928829Y-36571005D01*
X125884501Y-36515547D01*
X125875100Y-36467792D01*
X125875100Y-36079865D01*
X125895102Y-36011744D01*
X125948758Y-35965251D01*
X126019032Y-35955147D01*
X126054345Y-35965668D01*
X126210199Y-36038344D01*
X126426707Y-36096357D01*
X126650000Y-36115893D01*
X126873293Y-36096357D01*
X127089801Y-36038344D01*
X127292947Y-35943616D01*
X127476556Y-35815051D01*
X127635051Y-35656556D01*
X127763616Y-35472947D01*
X127858344Y-35269801D01*
X127913294Y-35064720D01*
X127950244Y-35004102D01*
X128014105Y-34973080D01*
X128084599Y-34981508D01*
X128139346Y-35026711D01*
X128156704Y-35064718D01*
X128178542Y-35146217D01*
X128211655Y-35269799D01*
X128211657Y-35269804D01*
X128306383Y-35472945D01*
X128306384Y-35472947D01*
X128434945Y-35656551D01*
X128434952Y-35656560D01*
X128593439Y-35815047D01*
X128593443Y-35815050D01*
X128593444Y-35815051D01*
X128777053Y-35943616D01*
X128980199Y-36038344D01*
X129196707Y-36096357D01*
X129420000Y-36115893D01*
X129643293Y-36096357D01*
X129859801Y-36038344D01*
X130062947Y-35943616D01*
X130246556Y-35815051D01*
X130405051Y-35656556D01*
X130533616Y-35472947D01*
X130628344Y-35269801D01*
X130686357Y-35053293D01*
X130705893Y-34830000D01*
X130686357Y-34606707D01*
X130628344Y-34390199D01*
X130533616Y-34187054D01*
X130405051Y-34003444D01*
X130246556Y-33844949D01*
X130246555Y-33844948D01*
X130246554Y-33844947D01*
X130246551Y-33844945D01*
X130136098Y-33767605D01*
X130091769Y-33712148D01*
X130084460Y-33641529D01*
X130116490Y-33578168D01*
X130119246Y-33575323D01*
X130497730Y-33196838D01*
X130560041Y-33162815D01*
X130572720Y-33160727D01*
X130589149Y-33158876D01*
X130589148Y-33158876D01*
X130589158Y-33158875D01*
X130750491Y-33102422D01*
X130895217Y-33011484D01*
X131016079Y-32890622D01*
X131107017Y-32745896D01*
X131163470Y-32584563D01*
X131182607Y-32414713D01*
X131163470Y-32244863D01*
X131107017Y-32083530D01*
X131016079Y-31938804D01*
X131016077Y-31938802D01*
X131016076Y-31938800D01*
X130895221Y-31817945D01*
X130895218Y-31817943D01*
X130895217Y-31817942D01*
X130788389Y-31750817D01*
X130741353Y-31697639D01*
X130730533Y-31627472D01*
X130759366Y-31562594D01*
X130818698Y-31523603D01*
X130834690Y-31519849D01*
X130861006Y-31515457D01*
X130861016Y-31515455D01*
X131073869Y-31442383D01*
X131073871Y-31442382D01*
X131271800Y-31335268D01*
X131271801Y-31335267D01*
X131449402Y-31197034D01*
X131601827Y-31031455D01*
X131691017Y-30894941D01*
X131745021Y-30848852D01*
X131815368Y-30839277D01*
X131879726Y-30869254D01*
X131901983Y-30894941D01*
X131991172Y-31031455D01*
X132143597Y-31197034D01*
X132321198Y-31335267D01*
X132321199Y-31335268D01*
X132519128Y-31442382D01*
X132519130Y-31442383D01*
X132731983Y-31515455D01*
X132731992Y-31515457D01*
X132812500Y-31528891D01*
X132812500Y-30625202D01*
X132873507Y-30660425D01*
X133000674Y-30694500D01*
X133132326Y-30694500D01*
X133259493Y-30660425D01*
X133320500Y-30625202D01*
X133320500Y-30759518D01*
X133308025Y-30814181D01*
X133305793Y-30818815D01*
X133249339Y-30980151D01*
X133230203Y-31150000D01*
X133249339Y-31319848D01*
X133305791Y-31481180D01*
X133308019Y-31485805D01*
X133317220Y-31526114D01*
X133338259Y-31543932D01*
X133363514Y-31573044D01*
X133388534Y-31612863D01*
X133396733Y-31625912D01*
X133517589Y-31746768D01*
X133517591Y-31746769D01*
X133517593Y-31746771D01*
X133662319Y-31837709D01*
X133823652Y-31894162D01*
X133823651Y-31894162D01*
X133842788Y-31896318D01*
X133993502Y-31913299D01*
X134133220Y-31897556D01*
X134203148Y-31909805D01*
X134236419Y-31933669D01*
X135046819Y-32744069D01*
X135080845Y-32806381D01*
X135082931Y-32819050D01*
X135084784Y-32835495D01*
X135084785Y-32835500D01*
X135141237Y-32996830D01*
X135168269Y-33039850D01*
X135226981Y-33133290D01*
X135232178Y-33141560D01*
X135353034Y-33262416D01*
X135353036Y-33262417D01*
X135353038Y-33262419D01*
X135357652Y-33265318D01*
X135404689Y-33318495D01*
X135415510Y-33388662D01*
X135386678Y-33453541D01*
X135333711Y-33490406D01*
X135157325Y-33554606D01*
X134852259Y-33707816D01*
X134567069Y-33895389D01*
X134567059Y-33895396D01*
X134435225Y-34006016D01*
X135371838Y-34942629D01*
X135267898Y-35018147D01*
X135088147Y-35197898D01*
X135012629Y-35301838D01*
X134072569Y-34361778D01*
X134072568Y-34361778D01*
X134071301Y-34363121D01*
X134071297Y-34363125D01*
X133867464Y-34636919D01*
X133867447Y-34636946D01*
X133696775Y-34932559D01*
X133696766Y-34932577D01*
X133561567Y-35246003D01*
X133561565Y-35246009D01*
X133463660Y-35573035D01*
X133463660Y-35573036D01*
X133404383Y-35909214D01*
X133404382Y-35909223D01*
X133384534Y-36250000D01*
X133404382Y-36590776D01*
X133404383Y-36590785D01*
X133463660Y-36926963D01*
X133463660Y-36926964D01*
X133561565Y-37253990D01*
X133561567Y-37253996D01*
X133696766Y-37567422D01*
X133696775Y-37567440D01*
X133867447Y-37863053D01*
X133867465Y-37863080D01*
X134071297Y-38136873D01*
X134071301Y-38136879D01*
X134072568Y-38138221D01*
X135012628Y-37198160D01*
X135088147Y-37302102D01*
X135267898Y-37481853D01*
X135371838Y-37557370D01*
X134435225Y-38493983D01*
X134567065Y-38604608D01*
X134852259Y-38792183D01*
X135157325Y-38945393D01*
X135478096Y-39062144D01*
X135478095Y-39062144D01*
X135810260Y-39140869D01*
X135810266Y-39140870D01*
X136149315Y-39180500D01*
X136490685Y-39180500D01*
X136829733Y-39140870D01*
X136829739Y-39140869D01*
X137161903Y-39062144D01*
X137482674Y-38945393D01*
X137787740Y-38792183D01*
X138072934Y-38604608D01*
X138204773Y-38493983D01*
X138204773Y-38493982D01*
X137268161Y-37557370D01*
X137372102Y-37481853D01*
X137551853Y-37302102D01*
X137627370Y-37198161D01*
X138567430Y-38138221D01*
X138568691Y-38136887D01*
X138568709Y-38136865D01*
X138772534Y-37863080D01*
X138772552Y-37863053D01*
X138943224Y-37567440D01*
X138943233Y-37567422D01*
X139078432Y-37253996D01*
X139078434Y-37253990D01*
X139176339Y-36926964D01*
X139176339Y-36926963D01*
X139235616Y-36590785D01*
X139235617Y-36590776D01*
X139255465Y-36250000D01*
X139235617Y-35909223D01*
X139235616Y-35909214D01*
X139176339Y-35573036D01*
X139176339Y-35573035D01*
X139078434Y-35246009D01*
X139078432Y-35246003D01*
X138943233Y-34932577D01*
X138943224Y-34932559D01*
X138772552Y-34636946D01*
X138772534Y-34636919D01*
X138568702Y-34363125D01*
X138568691Y-34363112D01*
X138567431Y-34361778D01*
X138567430Y-34361777D01*
X137627369Y-35301837D01*
X137551853Y-35197898D01*
X137372102Y-35018147D01*
X137268160Y-34942629D01*
X138204773Y-34006016D01*
X138072930Y-33895388D01*
X137787740Y-33707816D01*
X137482674Y-33554606D01*
X137161903Y-33437855D01*
X137161904Y-33437855D01*
X136829739Y-33359130D01*
X136829733Y-33359129D01*
X136524259Y-33323424D01*
X136458921Y-33295649D01*
X136418972Y-33236958D01*
X136417095Y-33165986D01*
X136432197Y-33131245D01*
X136516656Y-32996831D01*
X136573109Y-32835498D01*
X136592246Y-32665648D01*
X136573109Y-32495798D01*
X136516656Y-32334465D01*
X136425718Y-32189739D01*
X136425716Y-32189737D01*
X136425715Y-32189735D01*
X136304859Y-32068879D01*
X136300735Y-32066288D01*
X136213036Y-32011182D01*
X136160129Y-31977938D01*
X135998799Y-31921486D01*
X135998794Y-31921485D01*
X135982349Y-31919632D01*
X135916898Y-31892125D01*
X135907368Y-31883520D01*
X135769838Y-31745990D01*
X135735812Y-31683678D01*
X135740877Y-31612863D01*
X135783424Y-31556027D01*
X135838195Y-31532613D01*
X135941007Y-31515457D01*
X135941016Y-31515455D01*
X136153868Y-31442383D01*
X136153879Y-31442378D01*
X136204416Y-31415028D01*
X136273846Y-31400195D01*
X136340273Y-31425254D01*
X136371075Y-31458803D01*
X136421885Y-31539665D01*
X136454183Y-31591068D01*
X136458171Y-31597414D01*
X136579027Y-31718270D01*
X136579029Y-31718271D01*
X136579031Y-31718273D01*
X136723757Y-31809211D01*
X136885090Y-31865664D01*
X136885089Y-31865664D01*
X136902288Y-31867601D01*
X137054940Y-31884801D01*
X137224790Y-31865664D01*
X137386123Y-31809211D01*
X137530849Y-31718273D01*
X137651711Y-31597411D01*
X137658068Y-31587295D01*
X137669373Y-31569302D01*
X137722551Y-31522263D01*
X137792718Y-31511442D01*
X137806998Y-31514193D01*
X137811987Y-31515456D01*
X137892500Y-31528891D01*
X137892500Y-30625202D01*
X137953507Y-30660425D01*
X138080674Y-30694500D01*
X138212326Y-30694500D01*
X138339493Y-30660425D01*
X138400500Y-30625202D01*
X138400500Y-31528891D01*
X138481007Y-31515457D01*
X138481011Y-31515456D01*
X138553376Y-31490613D01*
X138624300Y-31487412D01*
X138685696Y-31523064D01*
X138700974Y-31542747D01*
X138745032Y-31612863D01*
X138753231Y-31625912D01*
X138874087Y-31746768D01*
X138874089Y-31746769D01*
X138874091Y-31746771D01*
X139018817Y-31837709D01*
X139180150Y-31894162D01*
X139180149Y-31894162D01*
X139197348Y-31896099D01*
X139350000Y-31913299D01*
X139519850Y-31894162D01*
X139681183Y-31837709D01*
X139825909Y-31746771D01*
X139946771Y-31625909D01*
X140022622Y-31505192D01*
X140075800Y-31458155D01*
X140145968Y-31447335D01*
X140170221Y-31453056D01*
X140351983Y-31515455D01*
X140351992Y-31515457D01*
X140432500Y-31528891D01*
X140432500Y-30625202D01*
X140493507Y-30660425D01*
X140620674Y-30694500D01*
X140752326Y-30694500D01*
X140879493Y-30660425D01*
X140940500Y-30625202D01*
X140940500Y-31528891D01*
X141021007Y-31515457D01*
X141021016Y-31515455D01*
X141151421Y-31470687D01*
X141222345Y-31467486D01*
X141283741Y-31503139D01*
X141309179Y-31544829D01*
X141309221Y-31544809D01*
X141309422Y-31545228D01*
X141311260Y-31548239D01*
X141312289Y-31551180D01*
X141326468Y-31573745D01*
X141388786Y-31672924D01*
X141403231Y-31695912D01*
X141524087Y-31816768D01*
X141524089Y-31816769D01*
X141524091Y-31816771D01*
X141668817Y-31907709D01*
X141830150Y-31964162D01*
X141830149Y-31964162D01*
X141847348Y-31966099D01*
X142000000Y-31983299D01*
X142169850Y-31964162D01*
X142331183Y-31907709D01*
X142475909Y-31816771D01*
X142596771Y-31695909D01*
X142687709Y-31551183D01*
X142687709Y-31551182D01*
X142689284Y-31548676D01*
X142742463Y-31501638D01*
X142812630Y-31490818D01*
X142836884Y-31496539D01*
X142891987Y-31515456D01*
X142891992Y-31515457D01*
X142972500Y-31528891D01*
X142972500Y-30625202D01*
X143033507Y-30660425D01*
X143160674Y-30694500D01*
X143292326Y-30694500D01*
X143419493Y-30660425D01*
X143480500Y-30625202D01*
X143480500Y-31528891D01*
X143561007Y-31515457D01*
X143561016Y-31515455D01*
X143773869Y-31442383D01*
X143773871Y-31442382D01*
X143971800Y-31335268D01*
X143971801Y-31335267D01*
X144149402Y-31197034D01*
X144301825Y-31031458D01*
X144424919Y-30843048D01*
X144515320Y-30636956D01*
X144515323Y-30636949D01*
X144563044Y-30448500D01*
X143657203Y-30448500D01*
X143692425Y-30387493D01*
X143726500Y-30260326D01*
X143726500Y-30128674D01*
X143692425Y-30001507D01*
X143657203Y-29940500D01*
X144563044Y-29940500D01*
X144563044Y-29940499D01*
X144515323Y-29752050D01*
X144515320Y-29752043D01*
X144424919Y-29545951D01*
X144301825Y-29357541D01*
X144149402Y-29191965D01*
X143971801Y-29053732D01*
X143971800Y-29053731D01*
X143938291Y-29035597D01*
X143887901Y-28985583D01*
X143872550Y-28916266D01*
X143897112Y-28849653D01*
X143938290Y-28813972D01*
X143972076Y-28795689D01*
X144149740Y-28657406D01*
X144302222Y-28491768D01*
X144302427Y-28491455D01*
X144389699Y-28357874D01*
X144425360Y-28303291D01*
X144515796Y-28097116D01*
X144571064Y-27878868D01*
X144589656Y-27654500D01*
X144571064Y-27430132D01*
X144515796Y-27211884D01*
X144425360Y-27005709D01*
X144408097Y-26979286D01*
X144302224Y-26817234D01*
X144302220Y-26817229D01*
X144186070Y-26691059D01*
X144149740Y-26651594D01*
X144149739Y-26651593D01*
X144149737Y-26651591D01*
X144067882Y-26587881D01*
X143972076Y-26513311D01*
X143774074Y-26406158D01*
X143774072Y-26406157D01*
X143774071Y-26406156D01*
X143561139Y-26333057D01*
X143561130Y-26333055D01*
X143483529Y-26320106D01*
X143339069Y-26296000D01*
X143113931Y-26296000D01*
X142969471Y-26320106D01*
X142891869Y-26333055D01*
X142891860Y-26333057D01*
X142678928Y-26406156D01*
X142678926Y-26406158D01*
X142480926Y-26513310D01*
X142480924Y-26513311D01*
X142303262Y-26651591D01*
X142150779Y-26817229D01*
X142061983Y-26953143D01*
X142007979Y-26999231D01*
X141937631Y-27008806D01*
X141873274Y-26978829D01*
X141851017Y-26953143D01*
X141762426Y-26817544D01*
X141762222Y-26817232D01*
X141762221Y-26817231D01*
X141762220Y-26817229D01*
X141646070Y-26691059D01*
X141609740Y-26651594D01*
X141609739Y-26651593D01*
X141609737Y-26651591D01*
X141527882Y-26587881D01*
X141432076Y-26513311D01*
X141234074Y-26406158D01*
X141234072Y-26406157D01*
X141234071Y-26406156D01*
X141021139Y-26333057D01*
X141021130Y-26333055D01*
X140943529Y-26320106D01*
X140799069Y-26296000D01*
X140573931Y-26296000D01*
X140429471Y-26320106D01*
X140351869Y-26333055D01*
X140351860Y-26333057D01*
X140138928Y-26406156D01*
X140138926Y-26406158D01*
X139940926Y-26513310D01*
X139940924Y-26513311D01*
X139763262Y-26651591D01*
X139610779Y-26817229D01*
X139521983Y-26953143D01*
X139467979Y-26999231D01*
X139397631Y-27008806D01*
X139333274Y-26978829D01*
X139311017Y-26953143D01*
X139222426Y-26817544D01*
X139222222Y-26817232D01*
X139222221Y-26817231D01*
X139222220Y-26817229D01*
X139106070Y-26691059D01*
X139069740Y-26651594D01*
X139069739Y-26651593D01*
X139069737Y-26651591D01*
X138987882Y-26587881D01*
X138892076Y-26513311D01*
X138694074Y-26406158D01*
X138694072Y-26406157D01*
X138694071Y-26406156D01*
X138481139Y-26333057D01*
X138481130Y-26333055D01*
X138403529Y-26320106D01*
X138259069Y-26296000D01*
X138033931Y-26296000D01*
X137889471Y-26320106D01*
X137811869Y-26333055D01*
X137811860Y-26333057D01*
X137598928Y-26406156D01*
X137598926Y-26406158D01*
X137400926Y-26513310D01*
X137400924Y-26513311D01*
X137223262Y-26651591D01*
X137070779Y-26817229D01*
X136981983Y-26953143D01*
X136927979Y-26999231D01*
X136857631Y-27008806D01*
X136793274Y-26978829D01*
X136771017Y-26953143D01*
X136682426Y-26817544D01*
X136682222Y-26817232D01*
X136682221Y-26817231D01*
X136682220Y-26817229D01*
X136566070Y-26691059D01*
X136529740Y-26651594D01*
X136529739Y-26651593D01*
X136529737Y-26651591D01*
X136447882Y-26587881D01*
X136352076Y-26513311D01*
X136154074Y-26406158D01*
X136154072Y-26406157D01*
X136154071Y-26406156D01*
X135941139Y-26333057D01*
X135941130Y-26333055D01*
X135863529Y-26320106D01*
X135719069Y-26296000D01*
X135493931Y-26296000D01*
X135349471Y-26320106D01*
X135271869Y-26333055D01*
X135271860Y-26333057D01*
X135058928Y-26406156D01*
X135058926Y-26406158D01*
X134860926Y-26513310D01*
X134860924Y-26513311D01*
X134683262Y-26651591D01*
X134530779Y-26817229D01*
X134441983Y-26953143D01*
X134387979Y-26999231D01*
X134317631Y-27008806D01*
X134253274Y-26978829D01*
X134231017Y-26953143D01*
X134142426Y-26817544D01*
X134142222Y-26817232D01*
X134142221Y-26817231D01*
X134142220Y-26817229D01*
X134026070Y-26691059D01*
X133989740Y-26651594D01*
X133989739Y-26651593D01*
X133989737Y-26651591D01*
X133907882Y-26587881D01*
X133812076Y-26513311D01*
X133614074Y-26406158D01*
X133614072Y-26406157D01*
X133614071Y-26406156D01*
X133401139Y-26333057D01*
X133401130Y-26333055D01*
X133323529Y-26320106D01*
X133179069Y-26296000D01*
X132953931Y-26296000D01*
X132809471Y-26320106D01*
X132731869Y-26333055D01*
X132731860Y-26333057D01*
X132518928Y-26406156D01*
X132518926Y-26406158D01*
X132320926Y-26513310D01*
X132320924Y-26513311D01*
X132143262Y-26651591D01*
X131990779Y-26817229D01*
X131901983Y-26953143D01*
X131847979Y-26999231D01*
X131777631Y-27008806D01*
X131713274Y-26978829D01*
X131691017Y-26953143D01*
X131602426Y-26817544D01*
X131602222Y-26817232D01*
X131602221Y-26817231D01*
X131602220Y-26817229D01*
X131486070Y-26691059D01*
X131449740Y-26651594D01*
X131449739Y-26651593D01*
X131449737Y-26651591D01*
X131367882Y-26587881D01*
X131272076Y-26513311D01*
X131074074Y-26406158D01*
X131074072Y-26406157D01*
X131074071Y-26406156D01*
X130861139Y-26333057D01*
X130861130Y-26333055D01*
X130783529Y-26320106D01*
X130639069Y-26296000D01*
X130413931Y-26296000D01*
X130269471Y-26320106D01*
X130191869Y-26333055D01*
X130191860Y-26333057D01*
X129978928Y-26406156D01*
X129978926Y-26406158D01*
X129780926Y-26513310D01*
X129780924Y-26513311D01*
X129603262Y-26651591D01*
X129450779Y-26817229D01*
X129361983Y-26953143D01*
X129307979Y-26999231D01*
X129237631Y-27008806D01*
X129173274Y-26978829D01*
X129151017Y-26953143D01*
X129062426Y-26817544D01*
X129062222Y-26817232D01*
X129062221Y-26817231D01*
X129062220Y-26817229D01*
X128946070Y-26691059D01*
X128909740Y-26651594D01*
X128909739Y-26651593D01*
X128909737Y-26651591D01*
X128827882Y-26587881D01*
X128732076Y-26513311D01*
X128534074Y-26406158D01*
X128534072Y-26406157D01*
X128534071Y-26406156D01*
X128321139Y-26333057D01*
X128321130Y-26333055D01*
X128243529Y-26320106D01*
X128099069Y-26296000D01*
X127873931Y-26296000D01*
X127729471Y-26320106D01*
X127651869Y-26333055D01*
X127651860Y-26333057D01*
X127438928Y-26406156D01*
X127438926Y-26406158D01*
X127240926Y-26513310D01*
X127240924Y-26513311D01*
X127063262Y-26651591D01*
X126910779Y-26817229D01*
X126821983Y-26953143D01*
X126767979Y-26999231D01*
X126697631Y-27008806D01*
X126633274Y-26978829D01*
X126611017Y-26953143D01*
X126522426Y-26817544D01*
X126522222Y-26817232D01*
X126522221Y-26817231D01*
X126522220Y-26817229D01*
X126406070Y-26691059D01*
X126369740Y-26651594D01*
X126369739Y-26651593D01*
X126369737Y-26651591D01*
X126287882Y-26587881D01*
X126192076Y-26513311D01*
X125994074Y-26406158D01*
X125994072Y-26406157D01*
X125994071Y-26406156D01*
X125781139Y-26333057D01*
X125781130Y-26333055D01*
X125703529Y-26320106D01*
X125559069Y-26296000D01*
X125333931Y-26296000D01*
X125189471Y-26320106D01*
X125111869Y-26333055D01*
X125111860Y-26333057D01*
X124898928Y-26406156D01*
X124898926Y-26406158D01*
X124700926Y-26513310D01*
X124700924Y-26513311D01*
X124523262Y-26651591D01*
X124370779Y-26817229D01*
X124281983Y-26953143D01*
X124227979Y-26999231D01*
X124157631Y-27008806D01*
X124093274Y-26978829D01*
X124071017Y-26953143D01*
X123982426Y-26817544D01*
X123982222Y-26817232D01*
X123982221Y-26817231D01*
X123982220Y-26817229D01*
X123866070Y-26691059D01*
X123829740Y-26651594D01*
X123829739Y-26651593D01*
X123829737Y-26651591D01*
X123747882Y-26587881D01*
X123652076Y-26513311D01*
X123454074Y-26406158D01*
X123454072Y-26406157D01*
X123454071Y-26406156D01*
X123241139Y-26333057D01*
X123241130Y-26333055D01*
X123163529Y-26320106D01*
X123019069Y-26296000D01*
X122793931Y-26296000D01*
X122649471Y-26320106D01*
X122571869Y-26333055D01*
X122571860Y-26333057D01*
X122358928Y-26406156D01*
X122358926Y-26406158D01*
X122160926Y-26513310D01*
X122160924Y-26513311D01*
X121983262Y-26651591D01*
X121830779Y-26817229D01*
X121741983Y-26953143D01*
X121687979Y-26999231D01*
X121617631Y-27008806D01*
X121553274Y-26978829D01*
X121531017Y-26953143D01*
X121442426Y-26817544D01*
X121442222Y-26817232D01*
X121442221Y-26817231D01*
X121442220Y-26817229D01*
X121326070Y-26691059D01*
X121289740Y-26651594D01*
X121289739Y-26651593D01*
X121289737Y-26651591D01*
X121207882Y-26587881D01*
X121112076Y-26513311D01*
X120914074Y-26406158D01*
X120914072Y-26406157D01*
X120914071Y-26406156D01*
X120701139Y-26333057D01*
X120701130Y-26333055D01*
X120623529Y-26320106D01*
X120479069Y-26296000D01*
X120253931Y-26296000D01*
X120109471Y-26320106D01*
X120031869Y-26333055D01*
X120031860Y-26333057D01*
X119818928Y-26406156D01*
X119818926Y-26406158D01*
X119620926Y-26513310D01*
X119620924Y-26513311D01*
X119443262Y-26651591D01*
X119290779Y-26817229D01*
X119201683Y-26953601D01*
X119147679Y-26999689D01*
X119077331Y-27009264D01*
X119012974Y-26979286D01*
X118990717Y-26953600D01*
X118901827Y-26817544D01*
X118749402Y-26651965D01*
X118571801Y-26513732D01*
X118571800Y-26513731D01*
X118373871Y-26406617D01*
X118373869Y-26406616D01*
X118161012Y-26333543D01*
X118161001Y-26333540D01*
X118080500Y-26320106D01*
X118080500Y-27223797D01*
X118019493Y-27188575D01*
X117892326Y-27154500D01*
X117760674Y-27154500D01*
X117633507Y-27188575D01*
X117572500Y-27223797D01*
X117572500Y-26320107D01*
X117572499Y-26320106D01*
X117491998Y-26333540D01*
X117491987Y-26333543D01*
X117279130Y-26406616D01*
X117279128Y-26406617D01*
X117081199Y-26513731D01*
X117081198Y-26513732D01*
X116903597Y-26651965D01*
X116751174Y-26817542D01*
X116661983Y-26954059D01*
X116607979Y-27000147D01*
X116537631Y-27009722D01*
X116473274Y-26979744D01*
X116451017Y-26954059D01*
X116361825Y-26817542D01*
X116209402Y-26651965D01*
X116031801Y-26513732D01*
X116031800Y-26513731D01*
X115833871Y-26406617D01*
X115833869Y-26406616D01*
X115621012Y-26333543D01*
X115621001Y-26333540D01*
X115540500Y-26320106D01*
X115540500Y-27223797D01*
X115479493Y-27188575D01*
X115352326Y-27154500D01*
X115220674Y-27154500D01*
X115093507Y-27188575D01*
X115032500Y-27223797D01*
X115032500Y-26320107D01*
X115032499Y-26320106D01*
X114951998Y-26333540D01*
X114951987Y-26333543D01*
X114739130Y-26406616D01*
X114739128Y-26406617D01*
X114541199Y-26513731D01*
X114541198Y-26513732D01*
X114363597Y-26651965D01*
X114211170Y-26817545D01*
X114122280Y-26953601D01*
X114068276Y-26999689D01*
X113997928Y-27009264D01*
X113933571Y-26979286D01*
X113911316Y-26953601D01*
X113872384Y-26894011D01*
X113822224Y-26817234D01*
X113822220Y-26817229D01*
X113706070Y-26691059D01*
X113669740Y-26651594D01*
X113669739Y-26651593D01*
X113669737Y-26651591D01*
X113587882Y-26587881D01*
X113492076Y-26513311D01*
X113294074Y-26406158D01*
X113294072Y-26406157D01*
X113294071Y-26406156D01*
X113081139Y-26333057D01*
X113081130Y-26333055D01*
X113003529Y-26320106D01*
X112859069Y-26296000D01*
X112633931Y-26296000D01*
X112489471Y-26320106D01*
X112411869Y-26333055D01*
X112411860Y-26333057D01*
X112198928Y-26406156D01*
X112198926Y-26406158D01*
X112000926Y-26513310D01*
X112000924Y-26513311D01*
X111823262Y-26651591D01*
X111670779Y-26817229D01*
X111581683Y-26953601D01*
X111527679Y-26999689D01*
X111457331Y-27009264D01*
X111392974Y-26979286D01*
X111370717Y-26953600D01*
X111281827Y-26817544D01*
X111129402Y-26651965D01*
X110951801Y-26513732D01*
X110951800Y-26513731D01*
X110753871Y-26406617D01*
X110753869Y-26406616D01*
X110541012Y-26333543D01*
X110541001Y-26333540D01*
X110460500Y-26320106D01*
X110460500Y-27223797D01*
X110399493Y-27188575D01*
X110272326Y-27154500D01*
X110140674Y-27154500D01*
X110013507Y-27188575D01*
X109952500Y-27223797D01*
X109952500Y-26320107D01*
X109952499Y-26320106D01*
X109871998Y-26333540D01*
X109871987Y-26333543D01*
X109659130Y-26406616D01*
X109659128Y-26406617D01*
X109461199Y-26513731D01*
X109461198Y-26513732D01*
X109283597Y-26651965D01*
X109131174Y-26817542D01*
X109041983Y-26954059D01*
X108987979Y-27000147D01*
X108917631Y-27009722D01*
X108853274Y-26979744D01*
X108831017Y-26954059D01*
X108741825Y-26817542D01*
X108589402Y-26651965D01*
X108411801Y-26513732D01*
X108411800Y-26513731D01*
X108213871Y-26406617D01*
X108213869Y-26406616D01*
X108001012Y-26333543D01*
X108001001Y-26333540D01*
X107920500Y-26320106D01*
X107920500Y-27223797D01*
X107859493Y-27188575D01*
X107732326Y-27154500D01*
X107600674Y-27154500D01*
X107473507Y-27188575D01*
X107412500Y-27223797D01*
X107412500Y-26320107D01*
X107412499Y-26320106D01*
X107331998Y-26333540D01*
X107331987Y-26333543D01*
X107119130Y-26406616D01*
X107119128Y-26406617D01*
X106921199Y-26513731D01*
X106921198Y-26513732D01*
X106743597Y-26651965D01*
X106591174Y-26817542D01*
X106501983Y-26954059D01*
X106447979Y-27000147D01*
X106377631Y-27009722D01*
X106313274Y-26979744D01*
X106291017Y-26954059D01*
X106201825Y-26817542D01*
X106049402Y-26651965D01*
X105871801Y-26513732D01*
X105871800Y-26513731D01*
X105673871Y-26406617D01*
X105673869Y-26406616D01*
X105461012Y-26333543D01*
X105461001Y-26333540D01*
X105380500Y-26320106D01*
X105380500Y-27223797D01*
X105319493Y-27188575D01*
X105192326Y-27154500D01*
X105060674Y-27154500D01*
X104933507Y-27188575D01*
X104872500Y-27223797D01*
X104872500Y-26320107D01*
X104872499Y-26320106D01*
X104791998Y-26333540D01*
X104791987Y-26333543D01*
X104579130Y-26406616D01*
X104579128Y-26406617D01*
X104381199Y-26513731D01*
X104381198Y-26513732D01*
X104203597Y-26651965D01*
X104051170Y-26817545D01*
X103962280Y-26953601D01*
X103908276Y-26999689D01*
X103837928Y-27009264D01*
X103773571Y-26979286D01*
X103751316Y-26953601D01*
X103712384Y-26894011D01*
X103662224Y-26817234D01*
X103662220Y-26817229D01*
X103546070Y-26691059D01*
X103509740Y-26651594D01*
X103509739Y-26651593D01*
X103509737Y-26651591D01*
X103427882Y-26587881D01*
X103332076Y-26513311D01*
X103134074Y-26406158D01*
X103134072Y-26406157D01*
X103134071Y-26406156D01*
X102921139Y-26333057D01*
X102921130Y-26333055D01*
X102843529Y-26320106D01*
X102699069Y-26296000D01*
X102473931Y-26296000D01*
X102329471Y-26320106D01*
X102251869Y-26333055D01*
X102251860Y-26333057D01*
X102038928Y-26406156D01*
X102038926Y-26406158D01*
X101840926Y-26513310D01*
X101840924Y-26513311D01*
X101663262Y-26651591D01*
X101510779Y-26817229D01*
X101421983Y-26953143D01*
X101367979Y-26999231D01*
X101297631Y-27008806D01*
X101233274Y-26978829D01*
X101211017Y-26953143D01*
X101122426Y-26817544D01*
X101122222Y-26817232D01*
X101122221Y-26817231D01*
X101122220Y-26817229D01*
X101006070Y-26691059D01*
X100969740Y-26651594D01*
X100969739Y-26651593D01*
X100969737Y-26651591D01*
X100887882Y-26587881D01*
X100792076Y-26513311D01*
X100594074Y-26406158D01*
X100594072Y-26406157D01*
X100594071Y-26406156D01*
X100381139Y-26333057D01*
X100381130Y-26333055D01*
X100303529Y-26320106D01*
X100159069Y-26296000D01*
X99933931Y-26296000D01*
X99789471Y-26320106D01*
X99711869Y-26333055D01*
X99711860Y-26333057D01*
X99498928Y-26406156D01*
X99498926Y-26406158D01*
X99300926Y-26513310D01*
X99300924Y-26513311D01*
X99123262Y-26651591D01*
X98970779Y-26817229D01*
X98881983Y-26953143D01*
X98827979Y-26999231D01*
X98757631Y-27008806D01*
X98693274Y-26978829D01*
X98671017Y-26953143D01*
X98582426Y-26817544D01*
X98582222Y-26817232D01*
X98582221Y-26817231D01*
X98582220Y-26817229D01*
X98466070Y-26691059D01*
X98429740Y-26651594D01*
X98429739Y-26651593D01*
X98429737Y-26651591D01*
X98347882Y-26587881D01*
X98252076Y-26513311D01*
X98054074Y-26406158D01*
X98054072Y-26406157D01*
X98054071Y-26406156D01*
X97841139Y-26333057D01*
X97841130Y-26333055D01*
X97763529Y-26320106D01*
X97619069Y-26296000D01*
X97393931Y-26296000D01*
X97249471Y-26320106D01*
X97171869Y-26333055D01*
X97171860Y-26333057D01*
X96958928Y-26406156D01*
X96958926Y-26406158D01*
X96760926Y-26513310D01*
X96760924Y-26513311D01*
X96583262Y-26651591D01*
X96430779Y-26817229D01*
X96341983Y-26953143D01*
X96287979Y-26999231D01*
X96217631Y-27008806D01*
X96153274Y-26978829D01*
X96131017Y-26953143D01*
X96042426Y-26817544D01*
X96042222Y-26817232D01*
X96042221Y-26817231D01*
X96042220Y-26817229D01*
X95926070Y-26691059D01*
X95889740Y-26651594D01*
X95889739Y-26651593D01*
X95889737Y-26651591D01*
X95807882Y-26587881D01*
X95712076Y-26513311D01*
X95514074Y-26406158D01*
X95514072Y-26406157D01*
X95514071Y-26406156D01*
X95301139Y-26333057D01*
X95301130Y-26333055D01*
X95223529Y-26320106D01*
X95079069Y-26296000D01*
X94853931Y-26296000D01*
X94709471Y-26320106D01*
X94631869Y-26333055D01*
X94631860Y-26333057D01*
X94418928Y-26406156D01*
X94418926Y-26406158D01*
X94220926Y-26513310D01*
X94220924Y-26513311D01*
X94043262Y-26651591D01*
X93890779Y-26817229D01*
X93801983Y-26953143D01*
X93747979Y-26999231D01*
X93677631Y-27008806D01*
X93613274Y-26978829D01*
X93591017Y-26953143D01*
X93502426Y-26817544D01*
X93502222Y-26817232D01*
X93502221Y-26817231D01*
X93502220Y-26817229D01*
X93386070Y-26691059D01*
X93349740Y-26651594D01*
X93349739Y-26651593D01*
X93349737Y-26651591D01*
X93267882Y-26587881D01*
X93172076Y-26513311D01*
X92974074Y-26406158D01*
X92974072Y-26406157D01*
X92974071Y-26406156D01*
X92761139Y-26333057D01*
X92761130Y-26333055D01*
X92683529Y-26320106D01*
X92539069Y-26296000D01*
X92313931Y-26296000D01*
X92169471Y-26320106D01*
X92091869Y-26333055D01*
X92091860Y-26333057D01*
X91878928Y-26406156D01*
X91878926Y-26406158D01*
X91680926Y-26513310D01*
X91680924Y-26513311D01*
X91503262Y-26651591D01*
X91350779Y-26817229D01*
X91261983Y-26953143D01*
X91207979Y-26999231D01*
X91137631Y-27008806D01*
X91073274Y-26978829D01*
X91051017Y-26953143D01*
X90962426Y-26817544D01*
X90962222Y-26817232D01*
X90962221Y-26817231D01*
X90962220Y-26817229D01*
X90846070Y-26691059D01*
X90809740Y-26651594D01*
X90809739Y-26651593D01*
X90809737Y-26651591D01*
X90727882Y-26587881D01*
X90632076Y-26513311D01*
X90434074Y-26406158D01*
X90434072Y-26406157D01*
X90434071Y-26406156D01*
X90221139Y-26333057D01*
X90221130Y-26333055D01*
X90143529Y-26320106D01*
X89999069Y-26296000D01*
X89773931Y-26296000D01*
X89629471Y-26320106D01*
X89551869Y-26333055D01*
X89551860Y-26333057D01*
X89338928Y-26406156D01*
X89338926Y-26406158D01*
X89140926Y-26513310D01*
X89140924Y-26513311D01*
X88963262Y-26651591D01*
X88810779Y-26817229D01*
X88721983Y-26953143D01*
X88667979Y-26999231D01*
X88597631Y-27008806D01*
X88533274Y-26978829D01*
X88511017Y-26953143D01*
X88422426Y-26817544D01*
X88422222Y-26817232D01*
X88422221Y-26817231D01*
X88422220Y-26817229D01*
X88306070Y-26691059D01*
X88269740Y-26651594D01*
X88269739Y-26651593D01*
X88269737Y-26651591D01*
X88187882Y-26587881D01*
X88092076Y-26513311D01*
X87894074Y-26406158D01*
X87894072Y-26406157D01*
X87894071Y-26406156D01*
X87681139Y-26333057D01*
X87681130Y-26333055D01*
X87603529Y-26320106D01*
X87459069Y-26296000D01*
X87233931Y-26296000D01*
X87089471Y-26320106D01*
X87011869Y-26333055D01*
X87011860Y-26333057D01*
X86798928Y-26406156D01*
X86798926Y-26406158D01*
X86600926Y-26513310D01*
X86600924Y-26513311D01*
X86423262Y-26651591D01*
X86270779Y-26817229D01*
X86181983Y-26953143D01*
X86127979Y-26999231D01*
X86057631Y-27008806D01*
X85993274Y-26978829D01*
X85971017Y-26953143D01*
X85882426Y-26817544D01*
X85882222Y-26817232D01*
X85882221Y-26817231D01*
X85882220Y-26817229D01*
X85766070Y-26691059D01*
X85729740Y-26651594D01*
X85729739Y-26651593D01*
X85729737Y-26651591D01*
X85647882Y-26587881D01*
X85552076Y-26513311D01*
X85354074Y-26406158D01*
X85354072Y-26406157D01*
X85354071Y-26406156D01*
X85141139Y-26333057D01*
X85141130Y-26333055D01*
X85063529Y-26320106D01*
X84919069Y-26296000D01*
X84693931Y-26296000D01*
X84549471Y-26320106D01*
X84471869Y-26333055D01*
X84471860Y-26333057D01*
X84258928Y-26406156D01*
X84258926Y-26406158D01*
X84060926Y-26513310D01*
X84060924Y-26513311D01*
X83883262Y-26651591D01*
X83730779Y-26817229D01*
X83641983Y-26953143D01*
X83587979Y-26999231D01*
X83517631Y-27008806D01*
X83453274Y-26978829D01*
X83431017Y-26953143D01*
X83342426Y-26817544D01*
X83342222Y-26817232D01*
X83342221Y-26817231D01*
X83342220Y-26817229D01*
X83226070Y-26691059D01*
X83189740Y-26651594D01*
X83189739Y-26651593D01*
X83189737Y-26651591D01*
X83107882Y-26587881D01*
X83012076Y-26513311D01*
X82814074Y-26406158D01*
X82814072Y-26406157D01*
X82814071Y-26406156D01*
X82601139Y-26333057D01*
X82601130Y-26333055D01*
X82523529Y-26320106D01*
X82379069Y-26296000D01*
X82153931Y-26296000D01*
X82009471Y-26320106D01*
X81931869Y-26333055D01*
X81931860Y-26333057D01*
X81718928Y-26406156D01*
X81718926Y-26406158D01*
X81520926Y-26513310D01*
X81520924Y-26513311D01*
X81343262Y-26651591D01*
X81190779Y-26817229D01*
X81190775Y-26817234D01*
X81067641Y-27005706D01*
X80977203Y-27211886D01*
X80977202Y-27211887D01*
X80921937Y-27430124D01*
X80921936Y-27430130D01*
X80921936Y-27430132D01*
X80903344Y-27654500D01*
X80325500Y-27654500D01*
X80325500Y-16090000D01*
X80903344Y-16090000D01*
X80919336Y-16282993D01*
X80921937Y-16314375D01*
X80977202Y-16532612D01*
X80977203Y-16532613D01*
X81067641Y-16738793D01*
X81190775Y-16927265D01*
X81190779Y-16927270D01*
X81334341Y-17083217D01*
X81365762Y-17146882D01*
X81357776Y-17217428D01*
X81312917Y-17272457D01*
X81285673Y-17286610D01*
X81170539Y-17329553D01*
X81170534Y-17329555D01*
X81053595Y-17417095D01*
X80966055Y-17534034D01*
X80966055Y-17534035D01*
X80915005Y-17670906D01*
X80908500Y-17731402D01*
X80908500Y-18376000D01*
X81835797Y-18376000D01*
X81800575Y-18437007D01*
X81766500Y-18564174D01*
X81766500Y-18695826D01*
X81800575Y-18822993D01*
X81835797Y-18884000D01*
X80908500Y-18884000D01*
X80908500Y-19528597D01*
X80915005Y-19589093D01*
X80966055Y-19725964D01*
X80966055Y-19725965D01*
X81053595Y-19842904D01*
X81170534Y-19930444D01*
X81307406Y-19981494D01*
X81367902Y-19987999D01*
X81367915Y-19988000D01*
X82012500Y-19988000D01*
X82012500Y-19060702D01*
X82073507Y-19095925D01*
X82200674Y-19130000D01*
X82332326Y-19130000D01*
X82459493Y-19095925D01*
X82520500Y-19060702D01*
X82520500Y-19988000D01*
X83165085Y-19988000D01*
X83165097Y-19987999D01*
X83225593Y-19981494D01*
X83362464Y-19930444D01*
X83362465Y-19930444D01*
X83479404Y-19842904D01*
X83566944Y-19725965D01*
X83611314Y-19607004D01*
X83653861Y-19550168D01*
X83720381Y-19525357D01*
X83789755Y-19540448D01*
X83822072Y-19565699D01*
X83883597Y-19632534D01*
X84061198Y-19770767D01*
X84061199Y-19770768D01*
X84259128Y-19877882D01*
X84259130Y-19877883D01*
X84471983Y-19950955D01*
X84471992Y-19950957D01*
X84552500Y-19964391D01*
X84552500Y-19060702D01*
X84613507Y-19095925D01*
X84740674Y-19130000D01*
X84872326Y-19130000D01*
X84999493Y-19095925D01*
X85060500Y-19060702D01*
X85060500Y-19964390D01*
X85141007Y-19950957D01*
X85141016Y-19950955D01*
X85353869Y-19877883D01*
X85353871Y-19877882D01*
X85551800Y-19770768D01*
X85551801Y-19770767D01*
X85729402Y-19632534D01*
X85881827Y-19466955D01*
X85971017Y-19330441D01*
X86025021Y-19284352D01*
X86095368Y-19274777D01*
X86159726Y-19304754D01*
X86181983Y-19330441D01*
X86271172Y-19466955D01*
X86423597Y-19632534D01*
X86601198Y-19770767D01*
X86601199Y-19770768D01*
X86799128Y-19877882D01*
X86799130Y-19877883D01*
X87011983Y-19950955D01*
X87011992Y-19950957D01*
X87092500Y-19964391D01*
X87092500Y-19060702D01*
X87153507Y-19095925D01*
X87280674Y-19130000D01*
X87412326Y-19130000D01*
X87539493Y-19095925D01*
X87600500Y-19060702D01*
X87600500Y-19964390D01*
X87681007Y-19950957D01*
X87681016Y-19950955D01*
X87893869Y-19877883D01*
X87893871Y-19877882D01*
X88091800Y-19770768D01*
X88091801Y-19770767D01*
X88269402Y-19632534D01*
X88421827Y-19466955D01*
X88511017Y-19330441D01*
X88565021Y-19284352D01*
X88635368Y-19274777D01*
X88699726Y-19304754D01*
X88721983Y-19330441D01*
X88811172Y-19466955D01*
X88963597Y-19632534D01*
X89141198Y-19770767D01*
X89141199Y-19770768D01*
X89339128Y-19877882D01*
X89339130Y-19877883D01*
X89551983Y-19950955D01*
X89551992Y-19950957D01*
X89632500Y-19964391D01*
X89632500Y-19060702D01*
X89693507Y-19095925D01*
X89820674Y-19130000D01*
X89952326Y-19130000D01*
X90079493Y-19095925D01*
X90140500Y-19060702D01*
X90140500Y-19964390D01*
X90221007Y-19950957D01*
X90221016Y-19950955D01*
X90433869Y-19877883D01*
X90433871Y-19877882D01*
X90631800Y-19770768D01*
X90631801Y-19770767D01*
X90809402Y-19632534D01*
X90961827Y-19466955D01*
X91051017Y-19330441D01*
X91105021Y-19284352D01*
X91175368Y-19274777D01*
X91239726Y-19304754D01*
X91261983Y-19330441D01*
X91351172Y-19466955D01*
X91503597Y-19632534D01*
X91681198Y-19770767D01*
X91681199Y-19770768D01*
X91879128Y-19877882D01*
X91879130Y-19877883D01*
X92091983Y-19950955D01*
X92091992Y-19950957D01*
X92172500Y-19964391D01*
X92172500Y-19060702D01*
X92233507Y-19095925D01*
X92360674Y-19130000D01*
X92492326Y-19130000D01*
X92619493Y-19095925D01*
X92680500Y-19060702D01*
X92680500Y-19964390D01*
X92761007Y-19950957D01*
X92761016Y-19950955D01*
X92973869Y-19877883D01*
X92973871Y-19877882D01*
X93171800Y-19770768D01*
X93171801Y-19770767D01*
X93349402Y-19632534D01*
X93501827Y-19466955D01*
X93591017Y-19330441D01*
X93645021Y-19284352D01*
X93715368Y-19274777D01*
X93779726Y-19304754D01*
X93801983Y-19330441D01*
X93891172Y-19466955D01*
X94043597Y-19632534D01*
X94221198Y-19770767D01*
X94221199Y-19770768D01*
X94419128Y-19877882D01*
X94419130Y-19877883D01*
X94631983Y-19950955D01*
X94631992Y-19950957D01*
X94712500Y-19964391D01*
X94712500Y-19060702D01*
X94773507Y-19095925D01*
X94900674Y-19130000D01*
X95032326Y-19130000D01*
X95159493Y-19095925D01*
X95220500Y-19060702D01*
X95220500Y-19964391D01*
X95301007Y-19950957D01*
X95301016Y-19950955D01*
X95513869Y-19877883D01*
X95513871Y-19877882D01*
X95711800Y-19770768D01*
X95711801Y-19770767D01*
X95889402Y-19632534D01*
X96041827Y-19466955D01*
X96131017Y-19330441D01*
X96185021Y-19284352D01*
X96255368Y-19274777D01*
X96319726Y-19304754D01*
X96341983Y-19330441D01*
X96431172Y-19466955D01*
X96583597Y-19632534D01*
X96761198Y-19770767D01*
X96761199Y-19770768D01*
X96959128Y-19877882D01*
X96959130Y-19877883D01*
X97171983Y-19950955D01*
X97171992Y-19950957D01*
X97252500Y-19964391D01*
X97252500Y-19060702D01*
X97313507Y-19095925D01*
X97440674Y-19130000D01*
X97572326Y-19130000D01*
X97699493Y-19095925D01*
X97760500Y-19060702D01*
X97760500Y-19964390D01*
X97841007Y-19950957D01*
X97841016Y-19950955D01*
X98053869Y-19877883D01*
X98053871Y-19877882D01*
X98251800Y-19770768D01*
X98251801Y-19770767D01*
X98429402Y-19632534D01*
X98581827Y-19466955D01*
X98671017Y-19330441D01*
X98725021Y-19284352D01*
X98795368Y-19274777D01*
X98859726Y-19304754D01*
X98881983Y-19330441D01*
X98971172Y-19466955D01*
X99123597Y-19632534D01*
X99301198Y-19770767D01*
X99301199Y-19770768D01*
X99499128Y-19877882D01*
X99499130Y-19877883D01*
X99711983Y-19950955D01*
X99711992Y-19950957D01*
X99792500Y-19964391D01*
X99792500Y-19060702D01*
X99853507Y-19095925D01*
X99980674Y-19130000D01*
X100112326Y-19130000D01*
X100239493Y-19095925D01*
X100300500Y-19060702D01*
X100300500Y-19964391D01*
X100381007Y-19950957D01*
X100381016Y-19950955D01*
X100593869Y-19877883D01*
X100593871Y-19877882D01*
X100791800Y-19770768D01*
X100791801Y-19770767D01*
X100969402Y-19632534D01*
X101121827Y-19466955D01*
X101211017Y-19330441D01*
X101265021Y-19284352D01*
X101335368Y-19274777D01*
X101399726Y-19304754D01*
X101421983Y-19330441D01*
X101511172Y-19466955D01*
X101663597Y-19632534D01*
X101841198Y-19770767D01*
X101841199Y-19770768D01*
X102039128Y-19877882D01*
X102039130Y-19877883D01*
X102251983Y-19950955D01*
X102251992Y-19950957D01*
X102332500Y-19964391D01*
X102332500Y-19060702D01*
X102393507Y-19095925D01*
X102520674Y-19130000D01*
X102652326Y-19130000D01*
X102779493Y-19095925D01*
X102840500Y-19060702D01*
X102840500Y-19964391D01*
X102921007Y-19950957D01*
X102921016Y-19950955D01*
X103133869Y-19877883D01*
X103133871Y-19877882D01*
X103331800Y-19770768D01*
X103331801Y-19770767D01*
X103509402Y-19632534D01*
X103661827Y-19466955D01*
X103751017Y-19330441D01*
X103805021Y-19284352D01*
X103875368Y-19274777D01*
X103939726Y-19304754D01*
X103961983Y-19330441D01*
X104051172Y-19466955D01*
X104203597Y-19632534D01*
X104381198Y-19770767D01*
X104381199Y-19770768D01*
X104579128Y-19877882D01*
X104579130Y-19877883D01*
X104791983Y-19950955D01*
X104791992Y-19950957D01*
X104872500Y-19964391D01*
X104872500Y-19060702D01*
X104933507Y-19095925D01*
X105060674Y-19130000D01*
X105192326Y-19130000D01*
X105319493Y-19095925D01*
X105380500Y-19060702D01*
X105380500Y-19964390D01*
X105461007Y-19950957D01*
X105461016Y-19950955D01*
X105673869Y-19877883D01*
X105673871Y-19877882D01*
X105871800Y-19770768D01*
X105871801Y-19770767D01*
X106049402Y-19632534D01*
X106201827Y-19466955D01*
X106291017Y-19330441D01*
X106345021Y-19284352D01*
X106415368Y-19274777D01*
X106479726Y-19304754D01*
X106501983Y-19330441D01*
X106591172Y-19466955D01*
X106743597Y-19632534D01*
X106921198Y-19770767D01*
X106921199Y-19770768D01*
X107119128Y-19877882D01*
X107119130Y-19877883D01*
X107331983Y-19950955D01*
X107331992Y-19950957D01*
X107412500Y-19964391D01*
X107412500Y-19060702D01*
X107473507Y-19095925D01*
X107600674Y-19130000D01*
X107732326Y-19130000D01*
X107859493Y-19095925D01*
X107920500Y-19060702D01*
X107920500Y-19964390D01*
X108001007Y-19950957D01*
X108001016Y-19950955D01*
X108213869Y-19877883D01*
X108213871Y-19877882D01*
X108411800Y-19770768D01*
X108411801Y-19770767D01*
X108589402Y-19632534D01*
X108741827Y-19466955D01*
X108831017Y-19330441D01*
X108885021Y-19284352D01*
X108955368Y-19274777D01*
X109019726Y-19304754D01*
X109041983Y-19330441D01*
X109131172Y-19466955D01*
X109283597Y-19632534D01*
X109461198Y-19770767D01*
X109461199Y-19770768D01*
X109659128Y-19877882D01*
X109659130Y-19877883D01*
X109871983Y-19950955D01*
X109871992Y-19950957D01*
X109952500Y-19964391D01*
X109952500Y-19060702D01*
X110013507Y-19095925D01*
X110140674Y-19130000D01*
X110272326Y-19130000D01*
X110399493Y-19095925D01*
X110460500Y-19060702D01*
X110460500Y-19964390D01*
X110541007Y-19950957D01*
X110541016Y-19950955D01*
X110753869Y-19877883D01*
X110753871Y-19877882D01*
X110951800Y-19770768D01*
X110951801Y-19770767D01*
X111129402Y-19632534D01*
X111281827Y-19466955D01*
X111370717Y-19330899D01*
X111424720Y-19284810D01*
X111495068Y-19275235D01*
X111559425Y-19305212D01*
X111581683Y-19330898D01*
X111670779Y-19467270D01*
X111823262Y-19632908D01*
X111877831Y-19675381D01*
X112000924Y-19771189D01*
X112198926Y-19878342D01*
X112198927Y-19878342D01*
X112198928Y-19878343D01*
X112310727Y-19916723D01*
X112411865Y-19951444D01*
X112633931Y-19988500D01*
X112633935Y-19988500D01*
X112859065Y-19988500D01*
X112859069Y-19988500D01*
X113081135Y-19951444D01*
X113294074Y-19878342D01*
X113492076Y-19771189D01*
X113669740Y-19632906D01*
X113822222Y-19467268D01*
X113822427Y-19466955D01*
X113911316Y-19330899D01*
X113965319Y-19284810D01*
X114035667Y-19275235D01*
X114100024Y-19305212D01*
X114122282Y-19330898D01*
X114211174Y-19466958D01*
X114363597Y-19632534D01*
X114541198Y-19770767D01*
X114541199Y-19770768D01*
X114739128Y-19877882D01*
X114739130Y-19877883D01*
X114951983Y-19950955D01*
X114951992Y-19950957D01*
X115032500Y-19964391D01*
X115032500Y-19060702D01*
X115093507Y-19095925D01*
X115220674Y-19130000D01*
X115352326Y-19130000D01*
X115479493Y-19095925D01*
X115540500Y-19060702D01*
X115540500Y-19964390D01*
X115621007Y-19950957D01*
X115621016Y-19950955D01*
X115833869Y-19877883D01*
X115833871Y-19877882D01*
X116031800Y-19770768D01*
X116031801Y-19770767D01*
X116209402Y-19632534D01*
X116361827Y-19466955D01*
X116451017Y-19330441D01*
X116505021Y-19284352D01*
X116575368Y-19274777D01*
X116639726Y-19304754D01*
X116661983Y-19330441D01*
X116751172Y-19466955D01*
X116903597Y-19632534D01*
X117081198Y-19770767D01*
X117081199Y-19770768D01*
X117279128Y-19877882D01*
X117279130Y-19877883D01*
X117491983Y-19950955D01*
X117491992Y-19950957D01*
X117572500Y-19964391D01*
X117572500Y-19060702D01*
X117633507Y-19095925D01*
X117760674Y-19130000D01*
X117892326Y-19130000D01*
X118019493Y-19095925D01*
X118080500Y-19060702D01*
X118080500Y-19964391D01*
X118161007Y-19950957D01*
X118161016Y-19950955D01*
X118373869Y-19877883D01*
X118373871Y-19877882D01*
X118571800Y-19770768D01*
X118571801Y-19770767D01*
X118749402Y-19632534D01*
X118901827Y-19466955D01*
X118991017Y-19330441D01*
X119045021Y-19284352D01*
X119115368Y-19274777D01*
X119179726Y-19304754D01*
X119201983Y-19330441D01*
X119291172Y-19466955D01*
X119443597Y-19632534D01*
X119621198Y-19770767D01*
X119621199Y-19770768D01*
X119819128Y-19877882D01*
X119819130Y-19877883D01*
X120031983Y-19950955D01*
X120031992Y-19950957D01*
X120112500Y-19964391D01*
X120112500Y-19060702D01*
X120173507Y-19095925D01*
X120300674Y-19130000D01*
X120432326Y-19130000D01*
X120559493Y-19095925D01*
X120620500Y-19060702D01*
X120620500Y-19964391D01*
X120701007Y-19950957D01*
X120701016Y-19950955D01*
X120913869Y-19877883D01*
X120913871Y-19877882D01*
X121111800Y-19770768D01*
X121111801Y-19770767D01*
X121289402Y-19632534D01*
X121441827Y-19466955D01*
X121531017Y-19330441D01*
X121585021Y-19284352D01*
X121655368Y-19274777D01*
X121719726Y-19304754D01*
X121741983Y-19330441D01*
X121831172Y-19466955D01*
X121983597Y-19632534D01*
X122161198Y-19770767D01*
X122161199Y-19770768D01*
X122359128Y-19877882D01*
X122359130Y-19877883D01*
X122571983Y-19950955D01*
X122571992Y-19950957D01*
X122652500Y-19964391D01*
X122652500Y-19060702D01*
X122713507Y-19095925D01*
X122840674Y-19130000D01*
X122972326Y-19130000D01*
X123099493Y-19095925D01*
X123160500Y-19060702D01*
X123160500Y-19964390D01*
X123241007Y-19950957D01*
X123241016Y-19950955D01*
X123453869Y-19877883D01*
X123453871Y-19877882D01*
X123651800Y-19770768D01*
X123651801Y-19770767D01*
X123829402Y-19632534D01*
X123981827Y-19466955D01*
X124071017Y-19330441D01*
X124125021Y-19284352D01*
X124195368Y-19274777D01*
X124259726Y-19304754D01*
X124281983Y-19330441D01*
X124371172Y-19466955D01*
X124523597Y-19632534D01*
X124701198Y-19770767D01*
X124701199Y-19770768D01*
X124899128Y-19877882D01*
X124899130Y-19877883D01*
X125111983Y-19950955D01*
X125111992Y-19950957D01*
X125192500Y-19964391D01*
X125192500Y-19060702D01*
X125253507Y-19095925D01*
X125380674Y-19130000D01*
X125512326Y-19130000D01*
X125639493Y-19095925D01*
X125700500Y-19060702D01*
X125700500Y-19964390D01*
X125781007Y-19950957D01*
X125781016Y-19950955D01*
X125993869Y-19877883D01*
X125993871Y-19877882D01*
X126191800Y-19770768D01*
X126191801Y-19770767D01*
X126369402Y-19632534D01*
X126521827Y-19466955D01*
X126611017Y-19330441D01*
X126665021Y-19284352D01*
X126735368Y-19274777D01*
X126799726Y-19304754D01*
X126821983Y-19330441D01*
X126911172Y-19466955D01*
X127063597Y-19632534D01*
X127241198Y-19770767D01*
X127241199Y-19770768D01*
X127439128Y-19877882D01*
X127439130Y-19877883D01*
X127651983Y-19950955D01*
X127651992Y-19950957D01*
X127732500Y-19964391D01*
X127732500Y-19060702D01*
X127793507Y-19095925D01*
X127920674Y-19130000D01*
X128052326Y-19130000D01*
X128179493Y-19095925D01*
X128240500Y-19060702D01*
X128240500Y-19964391D01*
X128321007Y-19950957D01*
X128321016Y-19950955D01*
X128533869Y-19877883D01*
X128533871Y-19877882D01*
X128731800Y-19770768D01*
X128731801Y-19770767D01*
X128909402Y-19632534D01*
X129061827Y-19466955D01*
X129151017Y-19330441D01*
X129205021Y-19284352D01*
X129275368Y-19274777D01*
X129339726Y-19304754D01*
X129361983Y-19330441D01*
X129451172Y-19466955D01*
X129603597Y-19632534D01*
X129781198Y-19770767D01*
X129781199Y-19770768D01*
X129979128Y-19877882D01*
X129979130Y-19877883D01*
X130191983Y-19950955D01*
X130191992Y-19950957D01*
X130272500Y-19964391D01*
X130272500Y-19060702D01*
X130333507Y-19095925D01*
X130460674Y-19130000D01*
X130592326Y-19130000D01*
X130719493Y-19095925D01*
X130780500Y-19060702D01*
X130780500Y-19964391D01*
X130861007Y-19950957D01*
X130861016Y-19950955D01*
X131073869Y-19877883D01*
X131073871Y-19877882D01*
X131271800Y-19770768D01*
X131271801Y-19770767D01*
X131449402Y-19632534D01*
X131601827Y-19466955D01*
X131691017Y-19330441D01*
X131745021Y-19284352D01*
X131815368Y-19274777D01*
X131879726Y-19304754D01*
X131901983Y-19330441D01*
X131991172Y-19466955D01*
X132143597Y-19632534D01*
X132321198Y-19770767D01*
X132321199Y-19770768D01*
X132519128Y-19877882D01*
X132519130Y-19877883D01*
X132731983Y-19950955D01*
X132731992Y-19950957D01*
X132812500Y-19964391D01*
X132812500Y-19060702D01*
X132873507Y-19095925D01*
X133000674Y-19130000D01*
X133132326Y-19130000D01*
X133259493Y-19095925D01*
X133320500Y-19060702D01*
X133320500Y-19964391D01*
X133401007Y-19950957D01*
X133401016Y-19950955D01*
X133613869Y-19877883D01*
X133613871Y-19877882D01*
X133811800Y-19770768D01*
X133811801Y-19770767D01*
X133989402Y-19632534D01*
X134141827Y-19466955D01*
X134231017Y-19330441D01*
X134285021Y-19284352D01*
X134355368Y-19274777D01*
X134419726Y-19304754D01*
X134441983Y-19330441D01*
X134531172Y-19466955D01*
X134683597Y-19632534D01*
X134861198Y-19770767D01*
X134861199Y-19770768D01*
X135059128Y-19877882D01*
X135059130Y-19877883D01*
X135271983Y-19950955D01*
X135271992Y-19950957D01*
X135352500Y-19964391D01*
X135352500Y-19060702D01*
X135413507Y-19095925D01*
X135540674Y-19130000D01*
X135672326Y-19130000D01*
X135799493Y-19095925D01*
X135860500Y-19060702D01*
X135860500Y-19964391D01*
X135941007Y-19950957D01*
X135941016Y-19950955D01*
X136153869Y-19877883D01*
X136153871Y-19877882D01*
X136351800Y-19770768D01*
X136351801Y-19770767D01*
X136529402Y-19632534D01*
X136681827Y-19466955D01*
X136771017Y-19330441D01*
X136825021Y-19284352D01*
X136895368Y-19274777D01*
X136959726Y-19304754D01*
X136981983Y-19330441D01*
X137071172Y-19466955D01*
X137223597Y-19632534D01*
X137401198Y-19770767D01*
X137401199Y-19770768D01*
X137599128Y-19877882D01*
X137599130Y-19877883D01*
X137811983Y-19950955D01*
X137811992Y-19950957D01*
X137892500Y-19964391D01*
X137892500Y-19060702D01*
X137953507Y-19095925D01*
X138080674Y-19130000D01*
X138212326Y-19130000D01*
X138339493Y-19095925D01*
X138400500Y-19060702D01*
X138400500Y-19964391D01*
X138481007Y-19950957D01*
X138481016Y-19950955D01*
X138693869Y-19877883D01*
X138693871Y-19877882D01*
X138891800Y-19770768D01*
X138891801Y-19770767D01*
X139069402Y-19632534D01*
X139221827Y-19466955D01*
X139311017Y-19330441D01*
X139365021Y-19284352D01*
X139435368Y-19274777D01*
X139499726Y-19304754D01*
X139521983Y-19330441D01*
X139611172Y-19466955D01*
X139763597Y-19632534D01*
X139941198Y-19770767D01*
X139941199Y-19770768D01*
X140139128Y-19877882D01*
X140139130Y-19877883D01*
X140351983Y-19950955D01*
X140351992Y-19950957D01*
X140432500Y-19964391D01*
X140432500Y-19060702D01*
X140493507Y-19095925D01*
X140620674Y-19130000D01*
X140752326Y-19130000D01*
X140879493Y-19095925D01*
X140940500Y-19060702D01*
X140940500Y-19964390D01*
X141021007Y-19950957D01*
X141021016Y-19950955D01*
X141233869Y-19877883D01*
X141233871Y-19877882D01*
X141431800Y-19770768D01*
X141431801Y-19770767D01*
X141609402Y-19632534D01*
X141761827Y-19466955D01*
X141851017Y-19330441D01*
X141905021Y-19284352D01*
X141975368Y-19274777D01*
X142039726Y-19304754D01*
X142061983Y-19330441D01*
X142151172Y-19466955D01*
X142303597Y-19632534D01*
X142481198Y-19770767D01*
X142481199Y-19770768D01*
X142679128Y-19877882D01*
X142679130Y-19877883D01*
X142891983Y-19950955D01*
X142891992Y-19950957D01*
X142972500Y-19964391D01*
X142972500Y-19060702D01*
X143033507Y-19095925D01*
X143160674Y-19130000D01*
X143292326Y-19130000D01*
X143419493Y-19095925D01*
X143480500Y-19060702D01*
X143480500Y-19964390D01*
X143561007Y-19950957D01*
X143561016Y-19950955D01*
X143773869Y-19877883D01*
X143773871Y-19877882D01*
X143971800Y-19770768D01*
X143971801Y-19770767D01*
X144149402Y-19632534D01*
X144301825Y-19466958D01*
X144424919Y-19278548D01*
X144515320Y-19072456D01*
X144515323Y-19072449D01*
X144563044Y-18884000D01*
X143657203Y-18884000D01*
X143692425Y-18822993D01*
X143726500Y-18695826D01*
X143726500Y-18564174D01*
X143692425Y-18437007D01*
X143657203Y-18376000D01*
X144563044Y-18376000D01*
X144563044Y-18375999D01*
X144515323Y-18187550D01*
X144515320Y-18187543D01*
X144424919Y-17981451D01*
X144301825Y-17793041D01*
X144149402Y-17627465D01*
X143971801Y-17489232D01*
X143971800Y-17489231D01*
X143938291Y-17471097D01*
X143887901Y-17421083D01*
X143872550Y-17351766D01*
X143897112Y-17285153D01*
X143938290Y-17249472D01*
X143972076Y-17231189D01*
X144149740Y-17092906D01*
X144302222Y-16927268D01*
X144302427Y-16926955D01*
X144308941Y-16916983D01*
X144425360Y-16738791D01*
X144515796Y-16532616D01*
X144571064Y-16314368D01*
X144589656Y-16090000D01*
X144571064Y-15865632D01*
X144515796Y-15647384D01*
X144425360Y-15441209D01*
X144408097Y-15414786D01*
X144302224Y-15252734D01*
X144302220Y-15252729D01*
X144186070Y-15126559D01*
X144149740Y-15087094D01*
X144149739Y-15087093D01*
X144149737Y-15087091D01*
X144067882Y-15023381D01*
X143972076Y-14948811D01*
X143774074Y-14841658D01*
X143774072Y-14841657D01*
X143774071Y-14841656D01*
X143561139Y-14768557D01*
X143561130Y-14768555D01*
X143483529Y-14755606D01*
X143339069Y-14731500D01*
X143113931Y-14731500D01*
X142969471Y-14755606D01*
X142891869Y-14768555D01*
X142891860Y-14768557D01*
X142678928Y-14841656D01*
X142678926Y-14841658D01*
X142480926Y-14948810D01*
X142480924Y-14948811D01*
X142303262Y-15087091D01*
X142150779Y-15252729D01*
X142061983Y-15388643D01*
X142007979Y-15434731D01*
X141937631Y-15444306D01*
X141873274Y-15414329D01*
X141851017Y-15388643D01*
X141762426Y-15253044D01*
X141762222Y-15252732D01*
X141762221Y-15252731D01*
X141762220Y-15252729D01*
X141646070Y-15126559D01*
X141609740Y-15087094D01*
X141609739Y-15087093D01*
X141609737Y-15087091D01*
X141527882Y-15023381D01*
X141432076Y-14948811D01*
X141234074Y-14841658D01*
X141234072Y-14841657D01*
X141234071Y-14841656D01*
X141021139Y-14768557D01*
X141021130Y-14768555D01*
X140943529Y-14755606D01*
X140799069Y-14731500D01*
X140573931Y-14731500D01*
X140429471Y-14755606D01*
X140351869Y-14768555D01*
X140351860Y-14768557D01*
X140138928Y-14841656D01*
X140138926Y-14841658D01*
X139940926Y-14948810D01*
X139940924Y-14948811D01*
X139763262Y-15087091D01*
X139610779Y-15252729D01*
X139521983Y-15388643D01*
X139467979Y-15434731D01*
X139397631Y-15444306D01*
X139333274Y-15414329D01*
X139311017Y-15388643D01*
X139222426Y-15253044D01*
X139222222Y-15252732D01*
X139222221Y-15252731D01*
X139222220Y-15252729D01*
X139106070Y-15126559D01*
X139069740Y-15087094D01*
X139069739Y-15087093D01*
X139069737Y-15087091D01*
X138987882Y-15023381D01*
X138892076Y-14948811D01*
X138694074Y-14841658D01*
X138694072Y-14841657D01*
X138694071Y-14841656D01*
X138481139Y-14768557D01*
X138481130Y-14768555D01*
X138403529Y-14755606D01*
X138259069Y-14731500D01*
X138033931Y-14731500D01*
X137889471Y-14755606D01*
X137811869Y-14768555D01*
X137811860Y-14768557D01*
X137598928Y-14841656D01*
X137598926Y-14841658D01*
X137400926Y-14948810D01*
X137400924Y-14948811D01*
X137223262Y-15087091D01*
X137070779Y-15252729D01*
X136981983Y-15388643D01*
X136927979Y-15434731D01*
X136857631Y-15444306D01*
X136793274Y-15414329D01*
X136771017Y-15388643D01*
X136682426Y-15253044D01*
X136682222Y-15252732D01*
X136682221Y-15252731D01*
X136682220Y-15252729D01*
X136566070Y-15126559D01*
X136529740Y-15087094D01*
X136529739Y-15087093D01*
X136529737Y-15087091D01*
X136447882Y-15023381D01*
X136352076Y-14948811D01*
X136154074Y-14841658D01*
X136154072Y-14841657D01*
X136154071Y-14841656D01*
X135941139Y-14768557D01*
X135941130Y-14768555D01*
X135863529Y-14755606D01*
X135719069Y-14731500D01*
X135493931Y-14731500D01*
X135349471Y-14755606D01*
X135271869Y-14768555D01*
X135271860Y-14768557D01*
X135058928Y-14841656D01*
X135058926Y-14841658D01*
X134860926Y-14948810D01*
X134860924Y-14948811D01*
X134683262Y-15087091D01*
X134530779Y-15252729D01*
X134441983Y-15388643D01*
X134387979Y-15434731D01*
X134317631Y-15444306D01*
X134253274Y-15414329D01*
X134231017Y-15388643D01*
X134142426Y-15253044D01*
X134142222Y-15252732D01*
X134142221Y-15252731D01*
X134142220Y-15252729D01*
X134026070Y-15126559D01*
X133989740Y-15087094D01*
X133989739Y-15087093D01*
X133989737Y-15087091D01*
X133907882Y-15023381D01*
X133812076Y-14948811D01*
X133614074Y-14841658D01*
X133614072Y-14841657D01*
X133614071Y-14841656D01*
X133401139Y-14768557D01*
X133401130Y-14768555D01*
X133323529Y-14755606D01*
X133179069Y-14731500D01*
X132953931Y-14731500D01*
X132809471Y-14755606D01*
X132731869Y-14768555D01*
X132731860Y-14768557D01*
X132518928Y-14841656D01*
X132518926Y-14841658D01*
X132320926Y-14948810D01*
X132320924Y-14948811D01*
X132143262Y-15087091D01*
X131990779Y-15252729D01*
X131901983Y-15388643D01*
X131847979Y-15434731D01*
X131777631Y-15444306D01*
X131713274Y-15414329D01*
X131691017Y-15388643D01*
X131602426Y-15253044D01*
X131602222Y-15252732D01*
X131602221Y-15252731D01*
X131602220Y-15252729D01*
X131486070Y-15126559D01*
X131449740Y-15087094D01*
X131449739Y-15087093D01*
X131449737Y-15087091D01*
X131367882Y-15023381D01*
X131272076Y-14948811D01*
X131074074Y-14841658D01*
X131074072Y-14841657D01*
X131074071Y-14841656D01*
X130861139Y-14768557D01*
X130861130Y-14768555D01*
X130783529Y-14755606D01*
X130639069Y-14731500D01*
X130413931Y-14731500D01*
X130269471Y-14755606D01*
X130191869Y-14768555D01*
X130191860Y-14768557D01*
X129978928Y-14841656D01*
X129978926Y-14841658D01*
X129780926Y-14948810D01*
X129780924Y-14948811D01*
X129603262Y-15087091D01*
X129450779Y-15252729D01*
X129361983Y-15388643D01*
X129307979Y-15434731D01*
X129237631Y-15444306D01*
X129173274Y-15414329D01*
X129151017Y-15388643D01*
X129062426Y-15253044D01*
X129062222Y-15252732D01*
X129062221Y-15252731D01*
X129062220Y-15252729D01*
X128946070Y-15126559D01*
X128909740Y-15087094D01*
X128909739Y-15087093D01*
X128909737Y-15087091D01*
X128827882Y-15023381D01*
X128732076Y-14948811D01*
X128534074Y-14841658D01*
X128534072Y-14841657D01*
X128534071Y-14841656D01*
X128321139Y-14768557D01*
X128321130Y-14768555D01*
X128243529Y-14755606D01*
X128099069Y-14731500D01*
X127873931Y-14731500D01*
X127729471Y-14755606D01*
X127651869Y-14768555D01*
X127651860Y-14768557D01*
X127438928Y-14841656D01*
X127438926Y-14841658D01*
X127240926Y-14948810D01*
X127240924Y-14948811D01*
X127063262Y-15087091D01*
X126910779Y-15252729D01*
X126821983Y-15388643D01*
X126767979Y-15434731D01*
X126697631Y-15444306D01*
X126633274Y-15414329D01*
X126611017Y-15388643D01*
X126522426Y-15253044D01*
X126522222Y-15252732D01*
X126522221Y-15252731D01*
X126522220Y-15252729D01*
X126406070Y-15126559D01*
X126369740Y-15087094D01*
X126369739Y-15087093D01*
X126369737Y-15087091D01*
X126287882Y-15023381D01*
X126192076Y-14948811D01*
X125994074Y-14841658D01*
X125994072Y-14841657D01*
X125994071Y-14841656D01*
X125781139Y-14768557D01*
X125781130Y-14768555D01*
X125703529Y-14755606D01*
X125559069Y-14731500D01*
X125333931Y-14731500D01*
X125189471Y-14755606D01*
X125111869Y-14768555D01*
X125111860Y-14768557D01*
X124898928Y-14841656D01*
X124898926Y-14841658D01*
X124700926Y-14948810D01*
X124700924Y-14948811D01*
X124523262Y-15087091D01*
X124370779Y-15252729D01*
X124281983Y-15388643D01*
X124227979Y-15434731D01*
X124157631Y-15444306D01*
X124093274Y-15414329D01*
X124071017Y-15388643D01*
X123982426Y-15253044D01*
X123982222Y-15252732D01*
X123982221Y-15252731D01*
X123982220Y-15252729D01*
X123866070Y-15126559D01*
X123829740Y-15087094D01*
X123829739Y-15087093D01*
X123829737Y-15087091D01*
X123747882Y-15023381D01*
X123652076Y-14948811D01*
X123454074Y-14841658D01*
X123454072Y-14841657D01*
X123454071Y-14841656D01*
X123241139Y-14768557D01*
X123241130Y-14768555D01*
X123163529Y-14755606D01*
X123019069Y-14731500D01*
X122793931Y-14731500D01*
X122649471Y-14755606D01*
X122571869Y-14768555D01*
X122571860Y-14768557D01*
X122358928Y-14841656D01*
X122358926Y-14841658D01*
X122160926Y-14948810D01*
X122160924Y-14948811D01*
X121983262Y-15087091D01*
X121830779Y-15252729D01*
X121741983Y-15388643D01*
X121687979Y-15434731D01*
X121617631Y-15444306D01*
X121553274Y-15414329D01*
X121531017Y-15388643D01*
X121442426Y-15253044D01*
X121442222Y-15252732D01*
X121442221Y-15252731D01*
X121442220Y-15252729D01*
X121326070Y-15126559D01*
X121289740Y-15087094D01*
X121289739Y-15087093D01*
X121289737Y-15087091D01*
X121207882Y-15023381D01*
X121112076Y-14948811D01*
X120914074Y-14841658D01*
X120914072Y-14841657D01*
X120914071Y-14841656D01*
X120701139Y-14768557D01*
X120701130Y-14768555D01*
X120623529Y-14755606D01*
X120479069Y-14731500D01*
X120253931Y-14731500D01*
X120109471Y-14755606D01*
X120031869Y-14768555D01*
X120031860Y-14768557D01*
X119818928Y-14841656D01*
X119818926Y-14841658D01*
X119620926Y-14948810D01*
X119620924Y-14948811D01*
X119443262Y-15087091D01*
X119290779Y-15252729D01*
X119201683Y-15389101D01*
X119147679Y-15435189D01*
X119077331Y-15444764D01*
X119012974Y-15414786D01*
X118990717Y-15389100D01*
X118901827Y-15253044D01*
X118749402Y-15087465D01*
X118571801Y-14949232D01*
X118571800Y-14949231D01*
X118373871Y-14842117D01*
X118373869Y-14842116D01*
X118161012Y-14769043D01*
X118161001Y-14769040D01*
X118080500Y-14755606D01*
X118080500Y-15659297D01*
X118019493Y-15624075D01*
X117892326Y-15590000D01*
X117760674Y-15590000D01*
X117633507Y-15624075D01*
X117572500Y-15659297D01*
X117572500Y-14755607D01*
X117572499Y-14755606D01*
X117491998Y-14769040D01*
X117491987Y-14769043D01*
X117279130Y-14842116D01*
X117279128Y-14842117D01*
X117081199Y-14949231D01*
X117081198Y-14949232D01*
X116903597Y-15087465D01*
X116751174Y-15253042D01*
X116661983Y-15389559D01*
X116607979Y-15435647D01*
X116537631Y-15445222D01*
X116473274Y-15415244D01*
X116451017Y-15389559D01*
X116361825Y-15253042D01*
X116209402Y-15087465D01*
X116031801Y-14949232D01*
X116031800Y-14949231D01*
X115833871Y-14842117D01*
X115833869Y-14842116D01*
X115621012Y-14769043D01*
X115621001Y-14769040D01*
X115540500Y-14755606D01*
X115540500Y-15659297D01*
X115479493Y-15624075D01*
X115352326Y-15590000D01*
X115220674Y-15590000D01*
X115093507Y-15624075D01*
X115032500Y-15659297D01*
X115032500Y-14755607D01*
X115032499Y-14755606D01*
X114951998Y-14769040D01*
X114951987Y-14769043D01*
X114739130Y-14842116D01*
X114739128Y-14842117D01*
X114541199Y-14949231D01*
X114541198Y-14949232D01*
X114363597Y-15087465D01*
X114211170Y-15253045D01*
X114122280Y-15389101D01*
X114068276Y-15435189D01*
X113997928Y-15444764D01*
X113933571Y-15414786D01*
X113911316Y-15389101D01*
X113872384Y-15329511D01*
X113822224Y-15252734D01*
X113822220Y-15252729D01*
X113706070Y-15126559D01*
X113669740Y-15087094D01*
X113669739Y-15087093D01*
X113669737Y-15087091D01*
X113587882Y-15023381D01*
X113492076Y-14948811D01*
X113294074Y-14841658D01*
X113294072Y-14841657D01*
X113294071Y-14841656D01*
X113081139Y-14768557D01*
X113081130Y-14768555D01*
X113003529Y-14755606D01*
X112859069Y-14731500D01*
X112633931Y-14731500D01*
X112489471Y-14755606D01*
X112411869Y-14768555D01*
X112411860Y-14768557D01*
X112198928Y-14841656D01*
X112198926Y-14841658D01*
X112000926Y-14948810D01*
X112000924Y-14948811D01*
X111823262Y-15087091D01*
X111670779Y-15252729D01*
X111581683Y-15389101D01*
X111527679Y-15435189D01*
X111457331Y-15444764D01*
X111392974Y-15414786D01*
X111370717Y-15389100D01*
X111281827Y-15253044D01*
X111129402Y-15087465D01*
X110951801Y-14949232D01*
X110951800Y-14949231D01*
X110753871Y-14842117D01*
X110753869Y-14842116D01*
X110541012Y-14769043D01*
X110541001Y-14769040D01*
X110460500Y-14755606D01*
X110460500Y-15659297D01*
X110399493Y-15624075D01*
X110272326Y-15590000D01*
X110140674Y-15590000D01*
X110013507Y-15624075D01*
X109952500Y-15659297D01*
X109952500Y-14755607D01*
X109952499Y-14755606D01*
X109871998Y-14769040D01*
X109871987Y-14769043D01*
X109659130Y-14842116D01*
X109659128Y-14842117D01*
X109461199Y-14949231D01*
X109461198Y-14949232D01*
X109283597Y-15087465D01*
X109131174Y-15253042D01*
X109041983Y-15389559D01*
X108987979Y-15435647D01*
X108917631Y-15445222D01*
X108853274Y-15415244D01*
X108831017Y-15389559D01*
X108741825Y-15253042D01*
X108589402Y-15087465D01*
X108411801Y-14949232D01*
X108411800Y-14949231D01*
X108213871Y-14842117D01*
X108213869Y-14842116D01*
X108001012Y-14769043D01*
X108001001Y-14769040D01*
X107920500Y-14755606D01*
X107920500Y-15659297D01*
X107859493Y-15624075D01*
X107732326Y-15590000D01*
X107600674Y-15590000D01*
X107473507Y-15624075D01*
X107412500Y-15659297D01*
X107412500Y-14755607D01*
X107412499Y-14755606D01*
X107331998Y-14769040D01*
X107331987Y-14769043D01*
X107119130Y-14842116D01*
X107119128Y-14842117D01*
X106921199Y-14949231D01*
X106921198Y-14949232D01*
X106743597Y-15087465D01*
X106591174Y-15253042D01*
X106501983Y-15389559D01*
X106447979Y-15435647D01*
X106377631Y-15445222D01*
X106313274Y-15415244D01*
X106291017Y-15389559D01*
X106201825Y-15253042D01*
X106049402Y-15087465D01*
X105871801Y-14949232D01*
X105871800Y-14949231D01*
X105673871Y-14842117D01*
X105673869Y-14842116D01*
X105461012Y-14769043D01*
X105461001Y-14769040D01*
X105380500Y-14755606D01*
X105380500Y-15659297D01*
X105319493Y-15624075D01*
X105192326Y-15590000D01*
X105060674Y-15590000D01*
X104933507Y-15624075D01*
X104872500Y-15659297D01*
X104872500Y-14755607D01*
X104872499Y-14755606D01*
X104791998Y-14769040D01*
X104791987Y-14769043D01*
X104579130Y-14842116D01*
X104579128Y-14842117D01*
X104381199Y-14949231D01*
X104381198Y-14949232D01*
X104203597Y-15087465D01*
X104051170Y-15253045D01*
X103962280Y-15389101D01*
X103908276Y-15435189D01*
X103837928Y-15444764D01*
X103773571Y-15414786D01*
X103751316Y-15389101D01*
X103712384Y-15329511D01*
X103662224Y-15252734D01*
X103662220Y-15252729D01*
X103546070Y-15126559D01*
X103509740Y-15087094D01*
X103509739Y-15087093D01*
X103509737Y-15087091D01*
X103427882Y-15023381D01*
X103332076Y-14948811D01*
X103134074Y-14841658D01*
X103134072Y-14841657D01*
X103134071Y-14841656D01*
X102921139Y-14768557D01*
X102921130Y-14768555D01*
X102843529Y-14755606D01*
X102699069Y-14731500D01*
X102473931Y-14731500D01*
X102329471Y-14755606D01*
X102251869Y-14768555D01*
X102251860Y-14768557D01*
X102038928Y-14841656D01*
X102038926Y-14841658D01*
X101840926Y-14948810D01*
X101840924Y-14948811D01*
X101663262Y-15087091D01*
X101510779Y-15252729D01*
X101421983Y-15388643D01*
X101367979Y-15434731D01*
X101297631Y-15444306D01*
X101233274Y-15414329D01*
X101211017Y-15388643D01*
X101122426Y-15253044D01*
X101122222Y-15252732D01*
X101122221Y-15252731D01*
X101122220Y-15252729D01*
X101006070Y-15126559D01*
X100969740Y-15087094D01*
X100969739Y-15087093D01*
X100969737Y-15087091D01*
X100887882Y-15023381D01*
X100792076Y-14948811D01*
X100594074Y-14841658D01*
X100594072Y-14841657D01*
X100594071Y-14841656D01*
X100381139Y-14768557D01*
X100381130Y-14768555D01*
X100303529Y-14755606D01*
X100159069Y-14731500D01*
X99933931Y-14731500D01*
X99789471Y-14755606D01*
X99711869Y-14768555D01*
X99711860Y-14768557D01*
X99498928Y-14841656D01*
X99498926Y-14841658D01*
X99300926Y-14948810D01*
X99300924Y-14948811D01*
X99123262Y-15087091D01*
X98970779Y-15252729D01*
X98881983Y-15388643D01*
X98827979Y-15434731D01*
X98757631Y-15444306D01*
X98693274Y-15414329D01*
X98671017Y-15388643D01*
X98582426Y-15253044D01*
X98582222Y-15252732D01*
X98582221Y-15252731D01*
X98582220Y-15252729D01*
X98466070Y-15126559D01*
X98429740Y-15087094D01*
X98429739Y-15087093D01*
X98429737Y-15087091D01*
X98347882Y-15023381D01*
X98252076Y-14948811D01*
X98054074Y-14841658D01*
X98054072Y-14841657D01*
X98054071Y-14841656D01*
X97841139Y-14768557D01*
X97841130Y-14768555D01*
X97763529Y-14755606D01*
X97619069Y-14731500D01*
X97393931Y-14731500D01*
X97249471Y-14755606D01*
X97171869Y-14768555D01*
X97171860Y-14768557D01*
X96958928Y-14841656D01*
X96958926Y-14841658D01*
X96760926Y-14948810D01*
X96760924Y-14948811D01*
X96583262Y-15087091D01*
X96430779Y-15252729D01*
X96341983Y-15388643D01*
X96287979Y-15434731D01*
X96217631Y-15444306D01*
X96153274Y-15414329D01*
X96131017Y-15388643D01*
X96042426Y-15253044D01*
X96042222Y-15252732D01*
X96042221Y-15252731D01*
X96042220Y-15252729D01*
X95926070Y-15126559D01*
X95889740Y-15087094D01*
X95889739Y-15087093D01*
X95889737Y-15087091D01*
X95807882Y-15023381D01*
X95712076Y-14948811D01*
X95514074Y-14841658D01*
X95514072Y-14841657D01*
X95514071Y-14841656D01*
X95301139Y-14768557D01*
X95301130Y-14768555D01*
X95223529Y-14755606D01*
X95079069Y-14731500D01*
X94853931Y-14731500D01*
X94709471Y-14755606D01*
X94631869Y-14768555D01*
X94631860Y-14768557D01*
X94418928Y-14841656D01*
X94418926Y-14841658D01*
X94220926Y-14948810D01*
X94220924Y-14948811D01*
X94043262Y-15087091D01*
X93890779Y-15252729D01*
X93801983Y-15388643D01*
X93747979Y-15434731D01*
X93677631Y-15444306D01*
X93613274Y-15414329D01*
X93591017Y-15388643D01*
X93502426Y-15253044D01*
X93502222Y-15252732D01*
X93502221Y-15252731D01*
X93502220Y-15252729D01*
X93386070Y-15126559D01*
X93349740Y-15087094D01*
X93349739Y-15087093D01*
X93349737Y-15087091D01*
X93267882Y-15023381D01*
X93172076Y-14948811D01*
X92974074Y-14841658D01*
X92974072Y-14841657D01*
X92974071Y-14841656D01*
X92761139Y-14768557D01*
X92761130Y-14768555D01*
X92683529Y-14755606D01*
X92539069Y-14731500D01*
X92313931Y-14731500D01*
X92169471Y-14755606D01*
X92091869Y-14768555D01*
X92091860Y-14768557D01*
X91878928Y-14841656D01*
X91878926Y-14841658D01*
X91680926Y-14948810D01*
X91680924Y-14948811D01*
X91503262Y-15087091D01*
X91350779Y-15252729D01*
X91261983Y-15388643D01*
X91207979Y-15434731D01*
X91137631Y-15444306D01*
X91073274Y-15414329D01*
X91051017Y-15388643D01*
X90962426Y-15253044D01*
X90962222Y-15252732D01*
X90962221Y-15252731D01*
X90962220Y-15252729D01*
X90846070Y-15126559D01*
X90809740Y-15087094D01*
X90809739Y-15087093D01*
X90809737Y-15087091D01*
X90727882Y-15023381D01*
X90632076Y-14948811D01*
X90434074Y-14841658D01*
X90434072Y-14841657D01*
X90434071Y-14841656D01*
X90221139Y-14768557D01*
X90221130Y-14768555D01*
X90143529Y-14755606D01*
X89999069Y-14731500D01*
X89773931Y-14731500D01*
X89629471Y-14755606D01*
X89551869Y-14768555D01*
X89551860Y-14768557D01*
X89338928Y-14841656D01*
X89338926Y-14841658D01*
X89140926Y-14948810D01*
X89140924Y-14948811D01*
X88963262Y-15087091D01*
X88810779Y-15252729D01*
X88721983Y-15388643D01*
X88667979Y-15434731D01*
X88597631Y-15444306D01*
X88533274Y-15414329D01*
X88511017Y-15388643D01*
X88422426Y-15253044D01*
X88422222Y-15252732D01*
X88422221Y-15252731D01*
X88422220Y-15252729D01*
X88306070Y-15126559D01*
X88269740Y-15087094D01*
X88269739Y-15087093D01*
X88269737Y-15087091D01*
X88187882Y-15023381D01*
X88092076Y-14948811D01*
X87894074Y-14841658D01*
X87894072Y-14841657D01*
X87894071Y-14841656D01*
X87681139Y-14768557D01*
X87681130Y-14768555D01*
X87603529Y-14755606D01*
X87459069Y-14731500D01*
X87233931Y-14731500D01*
X87089471Y-14755606D01*
X87011869Y-14768555D01*
X87011860Y-14768557D01*
X86798928Y-14841656D01*
X86798926Y-14841658D01*
X86600926Y-14948810D01*
X86600924Y-14948811D01*
X86423262Y-15087091D01*
X86270779Y-15252729D01*
X86181983Y-15388643D01*
X86127979Y-15434731D01*
X86057631Y-15444306D01*
X85993274Y-15414329D01*
X85971017Y-15388643D01*
X85882426Y-15253044D01*
X85882222Y-15252732D01*
X85882221Y-15252731D01*
X85882220Y-15252729D01*
X85766070Y-15126559D01*
X85729740Y-15087094D01*
X85729739Y-15087093D01*
X85729737Y-15087091D01*
X85647882Y-15023381D01*
X85552076Y-14948811D01*
X85354074Y-14841658D01*
X85354072Y-14841657D01*
X85354071Y-14841656D01*
X85141139Y-14768557D01*
X85141130Y-14768555D01*
X85063529Y-14755606D01*
X84919069Y-14731500D01*
X84693931Y-14731500D01*
X84549471Y-14755606D01*
X84471869Y-14768555D01*
X84471860Y-14768557D01*
X84258928Y-14841656D01*
X84258926Y-14841658D01*
X84060926Y-14948810D01*
X84060924Y-14948811D01*
X83883262Y-15087091D01*
X83730779Y-15252729D01*
X83641983Y-15388643D01*
X83587979Y-15434731D01*
X83517631Y-15444306D01*
X83453274Y-15414329D01*
X83431017Y-15388643D01*
X83342426Y-15253044D01*
X83342222Y-15252732D01*
X83342221Y-15252731D01*
X83342220Y-15252729D01*
X83226070Y-15126559D01*
X83189740Y-15087094D01*
X83189739Y-15087093D01*
X83189737Y-15087091D01*
X83107882Y-15023381D01*
X83012076Y-14948811D01*
X82814074Y-14841658D01*
X82814072Y-14841657D01*
X82814071Y-14841656D01*
X82601139Y-14768557D01*
X82601130Y-14768555D01*
X82523529Y-14755606D01*
X82379069Y-14731500D01*
X82153931Y-14731500D01*
X82009471Y-14755606D01*
X81931869Y-14768555D01*
X81931860Y-14768557D01*
X81718928Y-14841656D01*
X81718926Y-14841658D01*
X81520926Y-14948810D01*
X81520924Y-14948811D01*
X81343262Y-15087091D01*
X81190779Y-15252729D01*
X81190775Y-15252734D01*
X81067641Y-15441206D01*
X80977203Y-15647386D01*
X80977202Y-15647387D01*
X80921937Y-15865624D01*
X80921936Y-15865630D01*
X80921936Y-15865632D01*
X80903344Y-16090000D01*
X80325500Y-16090000D01*
X80325500Y-3093089D01*
X80325652Y-3086906D01*
X80341927Y-2755620D01*
X80343139Y-2743315D01*
X80368540Y-2572078D01*
X80391355Y-2418271D01*
X80393762Y-2406168D01*
X80473609Y-2087399D01*
X80477189Y-2075597D01*
X80587900Y-1766181D01*
X80592621Y-1754782D01*
X80733121Y-1457722D01*
X80738948Y-1446821D01*
X80907884Y-1164966D01*
X80914741Y-1154705D01*
X81110500Y-890756D01*
X81118317Y-881230D01*
X81339015Y-637726D01*
X81347726Y-629015D01*
X81591230Y-408317D01*
X81600756Y-400500D01*
X81864705Y-204741D01*
X81874966Y-197884D01*
X82156825Y-28945D01*
X82167726Y-23119D01*
X82464782Y117379D01*
X82476181Y122100D01*
X82785597Y232811D01*
X82797399Y236391D01*
X83116168Y316238D01*
X83128271Y318645D01*
X83453323Y366862D01*
X83465613Y368073D01*
X83796906Y384349D01*
X83803089Y384500D01*
X83808285Y384500D01*
X141791715Y384500D01*
X141796911Y384500D01*
X141803093Y384349D01*
G37*
%TD.AperFunction*%
%TD*%
M02*
