M48
; DRILL file {KiCad 8.0.2} date 2024-07-01T22:54:51-0500
; FORMAT={-:-/ absolute / inch / decimal}
; #@! TF.CreationDate,2024-07-01T22:54:51-05:00
; #@! TF.GenerationSoftware,Kicad,Pcbnew,8.0.2
; #@! TF.FileFunction,Plated,1,4,PTH
FMAT,2
INCH
; #@! TA.AperFunction,Plated,PTH,ViaDrill
T1C0.0118
; #@! TA.AperFunction,Plated,PTH,ComponentDrill
T2C0.0118
; #@! TA.AperFunction,Plated,PTH,ComponentDrill
T3C0.0295
%
G90
G05
T1
X0.7244Y-1.0551
X0.7244Y-1.1496
X0.7244Y-1.6378
X0.7244Y-1.7323
X0.7244Y-2.2362
X0.7244Y-2.3268
X0.7283Y-1.0197
X0.7323Y-1.7992
X0.7323Y-2.3898
X0.7362Y-1.6043
X0.7362Y-0.8228
X0.7362Y-1.9961
X0.7362Y-2.1969
X0.7402Y-1.2087
X0.7402Y-2.5866
X0.7441Y-1.4213
X0.7677Y-0.7283
X0.7677Y-0.9252
X0.7677Y-1.3189
X0.7677Y-1.5157
X0.7677Y-1.9094
X0.7677Y-2.1063
X0.7677Y-2.5
X0.8583Y-1.685
X0.8973Y-2.2659
X0.8976Y-1.0551
X0.9Y-1.6795
X0.9488Y-2.2717
X0.9646Y-1.1024
X0.965Y-0.7283
X0.965Y-1.3189
X0.965Y-1.5157
X0.965Y-1.9094
X0.965Y-2.1063
X0.965Y-2.3031
X0.965Y-2.5
X1.0197Y-1.6732
X1.1004Y-0.7283
X1.1378Y-0.689
X1.1378Y-2.6575
X1.1623Y-1.1161
X1.1623Y-1.3189
X1.1623Y-1.5157
X1.1623Y-1.7126
X1.1623Y-1.9094
X1.1623Y-2.1063
X1.1623Y-2.3031
X1.1623Y-2.4862
X1.2283Y-0.689
X1.2283Y-2.6575
X1.3596Y-0.7283
X1.3596Y-1.1161
X1.3596Y-1.3189
X1.3596Y-1.5157
X1.3596Y-1.7126
X1.3596Y-1.9094
X1.3596Y-2.1063
X1.3596Y-2.3031
X1.3596Y-2.5
X1.5569Y-0.7283
X1.5569Y-1.1161
X1.5569Y-1.3189
X1.5569Y-1.5157
X1.5569Y-1.7126
X1.5569Y-1.9094
X1.5569Y-2.1063
X1.5569Y-2.3031
X1.5569Y-2.5
X1.7542Y-0.7283
X1.7542Y-1.1161
X1.7542Y-1.3189
X1.7542Y-1.5157
X1.7542Y-1.9094
X1.7542Y-2.1063
X1.7542Y-2.3031
X1.7542Y-2.5
X1.9514Y-0.7283
X1.9514Y-1.1161
X1.9514Y-1.3189
X1.9514Y-1.5157
X1.9514Y-1.7126
X1.9514Y-1.9094
X1.9514Y-2.1063
X1.9514Y-2.3031
X1.9514Y-2.5
X2.1487Y-0.7283
X2.1487Y-1.1161
X2.1487Y-1.3189
X2.1487Y-1.5157
X2.1487Y-1.7126
X2.1487Y-1.9094
X2.1487Y-2.1063
X2.1487Y-2.3031
X2.1487Y-2.5
X2.2638Y-0.7087
X2.315Y-2.6575
X2.3189Y-0.689
X2.346Y-1.1161
X2.346Y-1.3189
X2.346Y-1.5157
X2.346Y-1.7126
X2.346Y-1.9094
X2.346Y-2.1063
X2.346Y-2.3031
X2.346Y-2.5
X2.4094Y-0.689
X2.4094Y-2.6575
X2.4921Y-2.2992
X2.5Y-1.0866
X2.5153Y-1.6614
X2.5186Y-1.7073
X2.5225Y-2.2714
X2.5228Y-1.1111
X2.5433Y-0.7283
X2.5433Y-0.9252
X2.5433Y-1.3189
X2.5433Y-1.5157
X2.5433Y-1.9094
X2.5433Y-2.1063
X2.5669Y-1.685
X2.626Y-0.7402
X2.626Y-0.9409
X2.626Y-1.3425
X2.626Y-1.5394
X2.626Y-1.9291
X2.626Y-2.126
X2.6535Y-2.4921
X2.6811Y-1.0551
X2.6811Y-1.1496
X2.6811Y-1.6378
X2.6811Y-1.7323
T2
X0.8976Y-0.7854
X0.8976Y-0.8209
X0.8976Y-0.9823
X0.8976Y-1.0177
X0.8976Y-1.1791
X0.8976Y-1.2146
X0.8976Y-1.376
X0.8976Y-1.4114
X0.8976Y-1.5728
X0.8976Y-1.6083
X0.8976Y-1.7697
X0.8976Y-1.8051
X0.8976Y-1.9665
X0.8976Y-2.002
X0.8976Y-2.1634
X0.8976Y-2.1988
X0.8976Y-2.3602
X0.8976Y-2.3957
X0.8976Y-2.5571
X0.8976Y-2.5925
X1.0945Y-0.7854
X1.0945Y-0.8209
X1.0945Y-0.9823
X1.0945Y-1.0177
X1.0945Y-1.1791
X1.0945Y-1.2146
X1.0945Y-1.376
X1.0945Y-1.4114
X1.0945Y-1.5728
X1.0945Y-1.6083
X1.0945Y-1.7697
X1.0945Y-1.8051
X1.0945Y-1.9665
X1.0945Y-2.002
X1.0945Y-2.1634
X1.0945Y-2.1988
X1.0945Y-2.3602
X1.0945Y-2.3957
X1.0945Y-2.5571
X1.0945Y-2.5925
X1.2913Y-0.7854
X1.2913Y-0.8209
X1.2913Y-0.9823
X1.2913Y-1.0177
X1.2913Y-1.1791
X1.2913Y-1.2146
X1.2913Y-1.376
X1.2913Y-1.4114
X1.2913Y-1.5728
X1.2913Y-1.6083
X1.2913Y-1.7697
X1.2913Y-1.8051
X1.2913Y-1.9665
X1.2913Y-2.002
X1.2913Y-2.1634
X1.2913Y-2.1988
X1.2913Y-2.3602
X1.2913Y-2.3957
X1.2913Y-2.5571
X1.2913Y-2.5925
X1.4882Y-0.7854
X1.4882Y-0.8209
X1.4882Y-0.9823
X1.4882Y-1.0177
X1.4882Y-1.1791
X1.4882Y-1.2146
X1.4882Y-1.376
X1.4882Y-1.4114
X1.4882Y-1.5728
X1.4882Y-1.6083
X1.4882Y-1.7697
X1.4882Y-1.8051
X1.4882Y-1.9665
X1.4882Y-2.002
X1.4882Y-2.1634
X1.4882Y-2.1988
X1.4882Y-2.3602
X1.4882Y-2.3957
X1.4882Y-2.5571
X1.4882Y-2.5925
X1.685Y-0.7854
X1.685Y-0.8209
X1.685Y-0.9823
X1.685Y-1.0177
X1.685Y-1.1791
X1.685Y-1.2146
X1.685Y-1.376
X1.685Y-1.4114
X1.685Y-1.5728
X1.685Y-1.6083
X1.685Y-1.7697
X1.685Y-1.8051
X1.685Y-1.9665
X1.685Y-2.002
X1.685Y-2.1634
X1.685Y-2.1988
X1.685Y-2.3602
X1.685Y-2.3957
X1.685Y-2.5571
X1.685Y-2.5925
X1.8819Y-0.7854
X1.8819Y-0.8209
X1.8819Y-0.9823
X1.8819Y-1.0177
X1.8819Y-1.1791
X1.8819Y-1.2146
X1.8819Y-1.376
X1.8819Y-1.4114
X1.8819Y-1.5728
X1.8819Y-1.6083
X1.8819Y-1.7697
X1.8819Y-1.8051
X1.8819Y-1.9665
X1.8819Y-2.002
X1.8819Y-2.1634
X1.8819Y-2.1988
X1.8819Y-2.3602
X1.8819Y-2.3957
X1.8819Y-2.5571
X1.8819Y-2.5925
X2.0787Y-0.7854
X2.0787Y-0.8209
X2.0787Y-0.9823
X2.0787Y-1.0177
X2.0787Y-1.1791
X2.0787Y-1.2146
X2.0787Y-1.376
X2.0787Y-1.4114
X2.0787Y-1.5728
X2.0787Y-1.6083
X2.0787Y-1.7697
X2.0787Y-1.8051
X2.0787Y-1.9665
X2.0787Y-2.002
X2.0787Y-2.1634
X2.0787Y-2.1988
X2.0787Y-2.3602
X2.0787Y-2.3957
X2.0787Y-2.5571
X2.0787Y-2.5925
X2.2756Y-0.7854
X2.2756Y-0.8209
X2.2756Y-0.9823
X2.2756Y-1.0177
X2.2756Y-1.1791
X2.2756Y-1.2146
X2.2756Y-1.376
X2.2756Y-1.4114
X2.2756Y-1.5728
X2.2756Y-1.6083
X2.2756Y-1.7697
X2.2756Y-1.8051
X2.2756Y-1.9665
X2.2756Y-2.002
X2.2756Y-2.1634
X2.2756Y-2.1988
X2.2756Y-2.3602
X2.2756Y-2.3957
X2.2756Y-2.5571
X2.2756Y-2.5925
X2.4724Y-0.7854
X2.4724Y-0.8209
X2.4724Y-0.9823
X2.4724Y-1.0177
X2.4724Y-1.1791
X2.4724Y-1.2146
X2.4724Y-1.376
X2.4724Y-1.4114
X2.4724Y-1.5728
X2.4724Y-1.6083
X2.4724Y-1.7697
X2.4724Y-1.8051
X2.4724Y-1.9665
X2.4724Y-2.002
X2.4724Y-2.1634
X2.4724Y-2.1988
X2.4724Y-2.3602
X2.4724Y-2.3957
X2.4724Y-2.5571
X2.4724Y-2.5925
X2.6693Y-0.7854
X2.6693Y-0.8209
X2.6693Y-0.9823
X2.6693Y-1.0177
X2.6693Y-1.187
X2.6693Y-1.2224
X2.6693Y-1.376
X2.6693Y-1.4114
X2.6693Y-1.7697
X2.6693Y-1.8051
X2.6693Y-1.9665
X2.6693Y-2.002
X2.6693Y-2.1634
X2.6693Y-2.1988
X2.6693Y-2.5571
X2.6693Y-2.5925
X2.6732Y-1.561
X2.6732Y-1.5965
X2.6732Y-2.372
X2.6732Y-2.4075
T3
X0.8041Y-0.8858
X0.8829Y-0.8858
X0.9616Y-0.8858
X1.6063Y-1.6732
X1.685Y-1.6732
X1.7638Y-1.6732
X2.4183Y-2.4606
X2.497Y-2.4606
X2.5758Y-2.4606
M30
