%TF.GenerationSoftware,KiCad,Pcbnew,8.0.2*%
%TF.CreationDate,2024-07-01T22:54:51-05:00*%
%TF.ProjectId,pixel_grid,70697865-6c5f-4677-9269-642e6b696361,rev?*%
%TF.SameCoordinates,Original*%
%TF.FileFunction,Paste,Top*%
%TF.FilePolarity,Positive*%
%FSLAX46Y46*%
G04 Gerber Fmt 4.6, Leading zero omitted, Abs format (unit mm)*
G04 Created by KiCad (PCBNEW 8.0.2) date 2024-07-01 22:54:51*
%MOMM*%
%LPD*%
G01*
G04 APERTURE LIST*
G04 Aperture macros list*
%AMRoundRect*
0 Rectangle with rounded corners*
0 $1 Rounding radius*
0 $2 $3 $4 $5 $6 $7 $8 $9 X,Y pos of 4 corners*
0 Add a 4 corners polygon primitive as box body*
4,1,4,$2,$3,$4,$5,$6,$7,$8,$9,$2,$3,0*
0 Add four circle primitives for the rounded corners*
1,1,$1+$1,$2,$3*
1,1,$1+$1,$4,$5*
1,1,$1+$1,$6,$7*
1,1,$1+$1,$8,$9*
0 Add four rect primitives between the rounded corners*
20,1,$1+$1,$2,$3,$4,$5,0*
20,1,$1+$1,$4,$5,$6,$7,0*
20,1,$1+$1,$6,$7,$8,$9,0*
20,1,$1+$1,$8,$9,$2,$3,0*%
G04 Aperture macros list end*
%ADD10R,0.650000X0.800000*%
%ADD11RoundRect,0.140000X0.170000X-0.140000X0.170000X0.140000X-0.170000X0.140000X-0.170000X-0.140000X0*%
G04 APERTURE END LIST*
D10*
%TO.C,D100*%
X65425000Y-64250000D03*
X65425000Y-65750000D03*
X64575000Y-64250000D03*
X64575000Y-65750000D03*
%TD*%
%TO.C,D99*%
X60425000Y-64250000D03*
X60425000Y-65750000D03*
X59575000Y-64250000D03*
X59575000Y-65750000D03*
%TD*%
%TO.C,D98*%
X55425000Y-64250000D03*
X55425000Y-65750000D03*
X54575000Y-64250000D03*
X54575000Y-65750000D03*
%TD*%
%TO.C,D97*%
X50425000Y-64250000D03*
X50425000Y-65750000D03*
X49575000Y-64250000D03*
X49575000Y-65750000D03*
%TD*%
%TO.C,D96*%
X45425000Y-64250000D03*
X45425000Y-65750000D03*
X44575000Y-64250000D03*
X44575000Y-65750000D03*
%TD*%
%TO.C,D95*%
X40425000Y-64250000D03*
X40425000Y-65750000D03*
X39575000Y-64250000D03*
X39575000Y-65750000D03*
%TD*%
%TO.C,D94*%
X35425000Y-64250000D03*
X35425000Y-65750000D03*
X34575000Y-64250000D03*
X34575000Y-65750000D03*
%TD*%
%TO.C,D93*%
X30425000Y-64250000D03*
X30425000Y-65750000D03*
X29575000Y-64250000D03*
X29575000Y-65750000D03*
%TD*%
%TO.C,D92*%
X25425000Y-64250000D03*
X25425000Y-65750000D03*
X24575000Y-64250000D03*
X24575000Y-65750000D03*
%TD*%
%TO.C,D91*%
X20425000Y-64250000D03*
X20425000Y-65750000D03*
X19575000Y-64250000D03*
X19575000Y-65750000D03*
%TD*%
%TO.C,D90*%
X65425000Y-59250000D03*
X65425000Y-60750000D03*
X64575000Y-59250000D03*
X64575000Y-60750000D03*
%TD*%
%TO.C,D89*%
X60425000Y-59250000D03*
X60425000Y-60750000D03*
X59575000Y-59250000D03*
X59575000Y-60750000D03*
%TD*%
%TO.C,D88*%
X55425000Y-59250000D03*
X55425000Y-60750000D03*
X54575000Y-59250000D03*
X54575000Y-60750000D03*
%TD*%
%TO.C,D87*%
X50425000Y-59250000D03*
X50425000Y-60750000D03*
X49575000Y-59250000D03*
X49575000Y-60750000D03*
%TD*%
%TO.C,D86*%
X45425000Y-59250000D03*
X45425000Y-60750000D03*
X44575000Y-59250000D03*
X44575000Y-60750000D03*
%TD*%
%TO.C,D85*%
X40425000Y-59250000D03*
X40425000Y-60750000D03*
X39575000Y-59250000D03*
X39575000Y-60750000D03*
%TD*%
%TO.C,D84*%
X35425000Y-59250000D03*
X35425000Y-60750000D03*
X34575000Y-59250000D03*
X34575000Y-60750000D03*
%TD*%
%TO.C,D83*%
X30425000Y-59250000D03*
X30425000Y-60750000D03*
X29575000Y-59250000D03*
X29575000Y-60750000D03*
%TD*%
%TO.C,D82*%
X25425000Y-59250000D03*
X25425000Y-60750000D03*
X24575000Y-59250000D03*
X24575000Y-60750000D03*
%TD*%
%TO.C,D81*%
X20425000Y-59250000D03*
X20425000Y-60750000D03*
X19575000Y-59250000D03*
X19575000Y-60750000D03*
%TD*%
%TO.C,D80*%
X65425000Y-54250000D03*
X65425000Y-55750000D03*
X64575000Y-54250000D03*
X64575000Y-55750000D03*
%TD*%
%TO.C,D79*%
X60425000Y-54250000D03*
X60425000Y-55750000D03*
X59575000Y-54250000D03*
X59575000Y-55750000D03*
%TD*%
%TO.C,D78*%
X55425000Y-54250000D03*
X55425000Y-55750000D03*
X54575000Y-54250000D03*
X54575000Y-55750000D03*
%TD*%
%TO.C,D77*%
X50425000Y-54250000D03*
X50425000Y-55750000D03*
X49575000Y-54250000D03*
X49575000Y-55750000D03*
%TD*%
%TO.C,D76*%
X45425000Y-54250000D03*
X45425000Y-55750000D03*
X44575000Y-54250000D03*
X44575000Y-55750000D03*
%TD*%
%TO.C,D75*%
X40425000Y-54250000D03*
X40425000Y-55750000D03*
X39575000Y-54250000D03*
X39575000Y-55750000D03*
%TD*%
%TO.C,D74*%
X35425000Y-54250000D03*
X35425000Y-55750000D03*
X34575000Y-54250000D03*
X34575000Y-55750000D03*
%TD*%
%TO.C,D73*%
X30425000Y-54250000D03*
X30425000Y-55750000D03*
X29575000Y-54250000D03*
X29575000Y-55750000D03*
%TD*%
%TO.C,D72*%
X25425000Y-54250000D03*
X25425000Y-55750000D03*
X24575000Y-54250000D03*
X24575000Y-55750000D03*
%TD*%
%TO.C,D71*%
X20425000Y-54250000D03*
X20425000Y-55750000D03*
X19575000Y-54250000D03*
X19575000Y-55750000D03*
%TD*%
%TO.C,D70*%
X65425000Y-49250000D03*
X65425000Y-50750000D03*
X64575000Y-49250000D03*
X64575000Y-50750000D03*
%TD*%
%TO.C,D69*%
X60425000Y-49250000D03*
X60425000Y-50750000D03*
X59575000Y-49250000D03*
X59575000Y-50750000D03*
%TD*%
%TO.C,D68*%
X55425000Y-49250000D03*
X55425000Y-50750000D03*
X54575000Y-49250000D03*
X54575000Y-50750000D03*
%TD*%
%TO.C,D67*%
X50425000Y-49250000D03*
X50425000Y-50750000D03*
X49575000Y-49250000D03*
X49575000Y-50750000D03*
%TD*%
%TO.C,D66*%
X45425000Y-49250000D03*
X45425000Y-50750000D03*
X44575000Y-49250000D03*
X44575000Y-50750000D03*
%TD*%
%TO.C,D65*%
X40425000Y-49250000D03*
X40425000Y-50750000D03*
X39575000Y-49250000D03*
X39575000Y-50750000D03*
%TD*%
%TO.C,D64*%
X35425000Y-49250000D03*
X35425000Y-50750000D03*
X34575000Y-49250000D03*
X34575000Y-50750000D03*
%TD*%
%TO.C,D63*%
X30425000Y-49250000D03*
X30425000Y-50750000D03*
X29575000Y-49250000D03*
X29575000Y-50750000D03*
%TD*%
%TO.C,D62*%
X25425000Y-49250000D03*
X25425000Y-50750000D03*
X24575000Y-49250000D03*
X24575000Y-50750000D03*
%TD*%
%TO.C,D61*%
X20425000Y-49250000D03*
X20425000Y-50750000D03*
X19575000Y-49250000D03*
X19575000Y-50750000D03*
%TD*%
%TO.C,D60*%
X65425000Y-44250000D03*
X65425000Y-45750000D03*
X64575000Y-44250000D03*
X64575000Y-45750000D03*
%TD*%
%TO.C,D59*%
X60425000Y-44250000D03*
X60425000Y-45750000D03*
X59575000Y-44250000D03*
X59575000Y-45750000D03*
%TD*%
%TO.C,D58*%
X55425000Y-44250000D03*
X55425000Y-45750000D03*
X54575000Y-44250000D03*
X54575000Y-45750000D03*
%TD*%
%TO.C,D57*%
X50425000Y-44250000D03*
X50425000Y-45750000D03*
X49575000Y-44250000D03*
X49575000Y-45750000D03*
%TD*%
%TO.C,D56*%
X45425000Y-44250000D03*
X45425000Y-45750000D03*
X44575000Y-44250000D03*
X44575000Y-45750000D03*
%TD*%
%TO.C,D55*%
X40425000Y-44250000D03*
X40425000Y-45750000D03*
X39575000Y-44250000D03*
X39575000Y-45750000D03*
%TD*%
%TO.C,D54*%
X35425000Y-44250000D03*
X35425000Y-45750000D03*
X34575000Y-44250000D03*
X34575000Y-45750000D03*
%TD*%
%TO.C,D53*%
X30425000Y-44250000D03*
X30425000Y-45750000D03*
X29575000Y-44250000D03*
X29575000Y-45750000D03*
%TD*%
%TO.C,D52*%
X25425000Y-44250000D03*
X25425000Y-45750000D03*
X24575000Y-44250000D03*
X24575000Y-45750000D03*
%TD*%
%TO.C,D51*%
X20425000Y-44250000D03*
X20425000Y-45750000D03*
X19575000Y-44250000D03*
X19575000Y-45750000D03*
%TD*%
%TO.C,D50*%
X65425000Y-39250000D03*
X65425000Y-40750000D03*
X64575000Y-39250000D03*
X64575000Y-40750000D03*
%TD*%
%TO.C,D49*%
X60425000Y-39250000D03*
X60425000Y-40750000D03*
X59575000Y-39250000D03*
X59575000Y-40750000D03*
%TD*%
%TO.C,D48*%
X55425000Y-39250000D03*
X55425000Y-40750000D03*
X54575000Y-39250000D03*
X54575000Y-40750000D03*
%TD*%
%TO.C,D47*%
X50425000Y-39250000D03*
X50425000Y-40750000D03*
X49575000Y-39250000D03*
X49575000Y-40750000D03*
%TD*%
%TO.C,D46*%
X45425000Y-39250000D03*
X45425000Y-40750000D03*
X44575000Y-39250000D03*
X44575000Y-40750000D03*
%TD*%
%TO.C,D45*%
X40425000Y-39250000D03*
X40425000Y-40750000D03*
X39575000Y-39250000D03*
X39575000Y-40750000D03*
%TD*%
%TO.C,D44*%
X35425000Y-39250000D03*
X35425000Y-40750000D03*
X34575000Y-39250000D03*
X34575000Y-40750000D03*
%TD*%
%TO.C,D43*%
X30425000Y-39250000D03*
X30425000Y-40750000D03*
X29575000Y-39250000D03*
X29575000Y-40750000D03*
%TD*%
%TO.C,D42*%
X25425000Y-39250000D03*
X25425000Y-40750000D03*
X24575000Y-39250000D03*
X24575000Y-40750000D03*
%TD*%
%TO.C,D41*%
X20425000Y-39250000D03*
X20425000Y-40750000D03*
X19575000Y-39250000D03*
X19575000Y-40750000D03*
%TD*%
%TO.C,D40*%
X65425000Y-34250000D03*
X65425000Y-35750000D03*
X64575000Y-34250000D03*
X64575000Y-35750000D03*
%TD*%
%TO.C,D39*%
X60425000Y-34250000D03*
X60425000Y-35750000D03*
X59575000Y-34250000D03*
X59575000Y-35750000D03*
%TD*%
%TO.C,D38*%
X55425000Y-34250000D03*
X55425000Y-35750000D03*
X54575000Y-34250000D03*
X54575000Y-35750000D03*
%TD*%
%TO.C,D37*%
X50425000Y-34250000D03*
X50425000Y-35750000D03*
X49575000Y-34250000D03*
X49575000Y-35750000D03*
%TD*%
%TO.C,D36*%
X45425000Y-34250000D03*
X45425000Y-35750000D03*
X44575000Y-34250000D03*
X44575000Y-35750000D03*
%TD*%
%TO.C,D35*%
X40425000Y-34250000D03*
X40425000Y-35750000D03*
X39575000Y-34250000D03*
X39575000Y-35750000D03*
%TD*%
%TO.C,D34*%
X35425000Y-34250000D03*
X35425000Y-35750000D03*
X34575000Y-34250000D03*
X34575000Y-35750000D03*
%TD*%
%TO.C,D33*%
X30425000Y-34250000D03*
X30425000Y-35750000D03*
X29575000Y-34250000D03*
X29575000Y-35750000D03*
%TD*%
%TO.C,D32*%
X25425000Y-34250000D03*
X25425000Y-35750000D03*
X24575000Y-34250000D03*
X24575000Y-35750000D03*
%TD*%
%TO.C,D31*%
X20425000Y-34250000D03*
X20425000Y-35750000D03*
X19575000Y-34250000D03*
X19575000Y-35750000D03*
%TD*%
%TO.C,D30*%
X65425000Y-29250000D03*
X65425000Y-30750000D03*
X64575000Y-29250000D03*
X64575000Y-30750000D03*
%TD*%
%TO.C,D29*%
X60425000Y-29250000D03*
X60425000Y-30750000D03*
X59575000Y-29250000D03*
X59575000Y-30750000D03*
%TD*%
%TO.C,D28*%
X55425000Y-29250000D03*
X55425000Y-30750000D03*
X54575000Y-29250000D03*
X54575000Y-30750000D03*
%TD*%
%TO.C,D27*%
X50425000Y-29250000D03*
X50425000Y-30750000D03*
X49575000Y-29250000D03*
X49575000Y-30750000D03*
%TD*%
%TO.C,D26*%
X45425000Y-29250000D03*
X45425000Y-30750000D03*
X44575000Y-29250000D03*
X44575000Y-30750000D03*
%TD*%
%TO.C,D25*%
X40425000Y-29250000D03*
X40425000Y-30750000D03*
X39575000Y-29250000D03*
X39575000Y-30750000D03*
%TD*%
%TO.C,D24*%
X35425000Y-29250000D03*
X35425000Y-30750000D03*
X34575000Y-29250000D03*
X34575000Y-30750000D03*
%TD*%
%TO.C,D23*%
X30425000Y-29250000D03*
X30425000Y-30750000D03*
X29575000Y-29250000D03*
X29575000Y-30750000D03*
%TD*%
%TO.C,D22*%
X25425000Y-29250000D03*
X25425000Y-30750000D03*
X24575000Y-29250000D03*
X24575000Y-30750000D03*
%TD*%
%TO.C,D21*%
X20425000Y-29250000D03*
X20425000Y-30750000D03*
X19575000Y-29250000D03*
X19575000Y-30750000D03*
%TD*%
%TO.C,D20*%
X65425000Y-24250000D03*
X65425000Y-25750000D03*
X64575000Y-24250000D03*
X64575000Y-25750000D03*
%TD*%
%TO.C,D19*%
X60425000Y-24250000D03*
X60425000Y-25750000D03*
X59575000Y-24250000D03*
X59575000Y-25750000D03*
%TD*%
%TO.C,D18*%
X55425000Y-24250000D03*
X55425000Y-25750000D03*
X54575000Y-24250000D03*
X54575000Y-25750000D03*
%TD*%
%TO.C,D17*%
X50425000Y-24250000D03*
X50425000Y-25750000D03*
X49575000Y-24250000D03*
X49575000Y-25750000D03*
%TD*%
%TO.C,D16*%
X45425000Y-24250000D03*
X45425000Y-25750000D03*
X44575000Y-24250000D03*
X44575000Y-25750000D03*
%TD*%
%TO.C,D15*%
X40425000Y-24250000D03*
X40425000Y-25750000D03*
X39575000Y-24250000D03*
X39575000Y-25750000D03*
%TD*%
%TO.C,D14*%
X35425000Y-24250000D03*
X35425000Y-25750000D03*
X34575000Y-24250000D03*
X34575000Y-25750000D03*
%TD*%
%TO.C,D13*%
X30425000Y-24250000D03*
X30425000Y-25750000D03*
X29575000Y-24250000D03*
X29575000Y-25750000D03*
%TD*%
%TO.C,D12*%
X25425000Y-24250000D03*
X25425000Y-25750000D03*
X24575000Y-24250000D03*
X24575000Y-25750000D03*
%TD*%
%TO.C,D11*%
X20425000Y-24250000D03*
X20425000Y-25750000D03*
X19575000Y-24250000D03*
X19575000Y-25750000D03*
%TD*%
%TO.C,D10*%
X65425000Y-19250000D03*
X65425000Y-20750000D03*
X64575000Y-19250000D03*
X64575000Y-20750000D03*
%TD*%
%TO.C,D9*%
X60425000Y-19250000D03*
X60425000Y-20750000D03*
X59575000Y-19250000D03*
X59575000Y-20750000D03*
%TD*%
%TO.C,D8*%
X55425000Y-19250000D03*
X55425000Y-20750000D03*
X54575000Y-19250000D03*
X54575000Y-20750000D03*
%TD*%
%TO.C,D7*%
X50425000Y-19250000D03*
X50425000Y-20750000D03*
X49575000Y-19250000D03*
X49575000Y-20750000D03*
%TD*%
%TO.C,D6*%
X45425000Y-19250000D03*
X45425000Y-20750000D03*
X44575000Y-19250000D03*
X44575000Y-20750000D03*
%TD*%
%TO.C,D5*%
X40425000Y-19250000D03*
X40425000Y-20750000D03*
X39575000Y-19250000D03*
X39575000Y-20750000D03*
%TD*%
%TO.C,D4*%
X35425000Y-19250000D03*
X35425000Y-20750000D03*
X34575000Y-19250000D03*
X34575000Y-20750000D03*
%TD*%
%TO.C,D3*%
X30425000Y-19250000D03*
X30425000Y-20750000D03*
X29575000Y-19250000D03*
X29575000Y-20750000D03*
%TD*%
%TO.C,D2*%
X25425000Y-19250000D03*
X25425000Y-20750000D03*
X24575000Y-19250000D03*
X24575000Y-20750000D03*
%TD*%
%TO.C,D1*%
X20425000Y-19250000D03*
X20425000Y-20750000D03*
X19575000Y-19250000D03*
X19575000Y-20750000D03*
%TD*%
D11*
%TO.C,C100*%
X66700000Y-65880000D03*
X66700000Y-64920000D03*
%TD*%
%TO.C,C99*%
X61700000Y-65880000D03*
X61700000Y-64920000D03*
%TD*%
%TO.C,C98*%
X56700000Y-65880000D03*
X56700000Y-64920000D03*
%TD*%
%TO.C,C97*%
X51700000Y-65880000D03*
X51700000Y-64920000D03*
%TD*%
%TO.C,C96*%
X46700000Y-65880000D03*
X46700000Y-64920000D03*
%TD*%
%TO.C,C95*%
X41700000Y-65880000D03*
X41700000Y-64920000D03*
%TD*%
%TO.C,C94*%
X36700000Y-65880000D03*
X36700000Y-64920000D03*
%TD*%
%TO.C,C93*%
X31700000Y-65880000D03*
X31700000Y-64920000D03*
%TD*%
%TO.C,C92*%
X26700000Y-65880000D03*
X26700000Y-64920000D03*
%TD*%
%TO.C,C91*%
X21700000Y-65880000D03*
X21700000Y-64920000D03*
%TD*%
%TO.C,C90*%
X66700000Y-60880000D03*
X66700000Y-59920000D03*
%TD*%
%TO.C,C89*%
X61700000Y-60880000D03*
X61700000Y-59920000D03*
%TD*%
%TO.C,C88*%
X56700000Y-60880000D03*
X56700000Y-59920000D03*
%TD*%
%TO.C,C87*%
X51700000Y-60880000D03*
X51700000Y-59920000D03*
%TD*%
%TO.C,C86*%
X46700000Y-60880000D03*
X46700000Y-59920000D03*
%TD*%
%TO.C,C85*%
X41700000Y-60880000D03*
X41700000Y-59920000D03*
%TD*%
%TO.C,C84*%
X36700000Y-60880000D03*
X36700000Y-59920000D03*
%TD*%
%TO.C,C83*%
X31700000Y-60880000D03*
X31700000Y-59920000D03*
%TD*%
%TO.C,C82*%
X26700000Y-60880000D03*
X26700000Y-59920000D03*
%TD*%
%TO.C,C81*%
X21700000Y-60880000D03*
X21700000Y-59920000D03*
%TD*%
%TO.C,C80*%
X66700000Y-55880000D03*
X66700000Y-54920000D03*
%TD*%
%TO.C,C79*%
X61700000Y-55880000D03*
X61700000Y-54920000D03*
%TD*%
%TO.C,C78*%
X56700000Y-55880000D03*
X56700000Y-54920000D03*
%TD*%
%TO.C,C77*%
X51700000Y-55880000D03*
X51700000Y-54920000D03*
%TD*%
%TO.C,C76*%
X46700000Y-55880000D03*
X46700000Y-54920000D03*
%TD*%
%TO.C,C75*%
X41700000Y-55880000D03*
X41700000Y-54920000D03*
%TD*%
%TO.C,C74*%
X36700000Y-55880000D03*
X36700000Y-54920000D03*
%TD*%
%TO.C,C73*%
X31700000Y-55880000D03*
X31700000Y-54920000D03*
%TD*%
%TO.C,C72*%
X26700000Y-55880000D03*
X26700000Y-54920000D03*
%TD*%
%TO.C,C71*%
X21700000Y-55880000D03*
X21700000Y-54920000D03*
%TD*%
%TO.C,C70*%
X66700000Y-50880000D03*
X66700000Y-49920000D03*
%TD*%
%TO.C,C69*%
X61700000Y-50880000D03*
X61700000Y-49920000D03*
%TD*%
%TO.C,C68*%
X56700000Y-50880000D03*
X56700000Y-49920000D03*
%TD*%
%TO.C,C67*%
X51700000Y-50880000D03*
X51700000Y-49920000D03*
%TD*%
%TO.C,C66*%
X46700000Y-50880000D03*
X46700000Y-49920000D03*
%TD*%
%TO.C,C65*%
X41700000Y-50880000D03*
X41700000Y-49920000D03*
%TD*%
%TO.C,C64*%
X36700000Y-50880000D03*
X36700000Y-49920000D03*
%TD*%
%TO.C,C63*%
X31700000Y-50880000D03*
X31700000Y-49920000D03*
%TD*%
%TO.C,C62*%
X26700000Y-50880000D03*
X26700000Y-49920000D03*
%TD*%
%TO.C,C61*%
X21700000Y-50880000D03*
X21700000Y-49920000D03*
%TD*%
%TO.C,C60*%
X66700000Y-45880000D03*
X66700000Y-44920000D03*
%TD*%
%TO.C,C59*%
X61700000Y-45880000D03*
X61700000Y-44920000D03*
%TD*%
%TO.C,C58*%
X56700000Y-45880000D03*
X56700000Y-44920000D03*
%TD*%
%TO.C,C57*%
X51700000Y-45880000D03*
X51700000Y-44920000D03*
%TD*%
%TO.C,C56*%
X46700000Y-45880000D03*
X46700000Y-44920000D03*
%TD*%
%TO.C,C55*%
X41700000Y-45880000D03*
X41700000Y-44920000D03*
%TD*%
%TO.C,C54*%
X36700000Y-45880000D03*
X36700000Y-44920000D03*
%TD*%
%TO.C,C53*%
X31700000Y-45880000D03*
X31700000Y-44920000D03*
%TD*%
%TO.C,C52*%
X26700000Y-45880000D03*
X26700000Y-44920000D03*
%TD*%
%TO.C,C51*%
X21700000Y-45880000D03*
X21700000Y-44920000D03*
%TD*%
%TO.C,C50*%
X66700000Y-40880000D03*
X66700000Y-39920000D03*
%TD*%
%TO.C,C49*%
X61700000Y-40880000D03*
X61700000Y-39920000D03*
%TD*%
%TO.C,C48*%
X56700000Y-40880000D03*
X56700000Y-39920000D03*
%TD*%
%TO.C,C47*%
X51700000Y-40880000D03*
X51700000Y-39920000D03*
%TD*%
%TO.C,C46*%
X46700000Y-40880000D03*
X46700000Y-39920000D03*
%TD*%
%TO.C,C45*%
X41700000Y-40880000D03*
X41700000Y-39920000D03*
%TD*%
%TO.C,C44*%
X36700000Y-40880000D03*
X36700000Y-39920000D03*
%TD*%
%TO.C,C43*%
X31700000Y-40880000D03*
X31700000Y-39920000D03*
%TD*%
%TO.C,C42*%
X26700000Y-40880000D03*
X26700000Y-39920000D03*
%TD*%
%TO.C,C41*%
X21700000Y-40880000D03*
X21700000Y-39920000D03*
%TD*%
%TO.C,C40*%
X66700000Y-35880000D03*
X66700000Y-34920000D03*
%TD*%
%TO.C,C39*%
X61700000Y-35880000D03*
X61700000Y-34920000D03*
%TD*%
%TO.C,C38*%
X56700000Y-35880000D03*
X56700000Y-34920000D03*
%TD*%
%TO.C,C37*%
X51700000Y-35880000D03*
X51700000Y-34920000D03*
%TD*%
%TO.C,C36*%
X46700000Y-35880000D03*
X46700000Y-34920000D03*
%TD*%
%TO.C,C35*%
X41700000Y-35880000D03*
X41700000Y-34920000D03*
%TD*%
%TO.C,C34*%
X36700000Y-35880000D03*
X36700000Y-34920000D03*
%TD*%
%TO.C,C33*%
X31700000Y-35880000D03*
X31700000Y-34920000D03*
%TD*%
%TO.C,C32*%
X26700000Y-35880000D03*
X26700000Y-34920000D03*
%TD*%
%TO.C,C31*%
X21700000Y-35880000D03*
X21700000Y-34920000D03*
%TD*%
%TO.C,C30*%
X66700000Y-30880000D03*
X66700000Y-29920000D03*
%TD*%
%TO.C,C29*%
X61700000Y-30880000D03*
X61700000Y-29920000D03*
%TD*%
%TO.C,C28*%
X56700000Y-30880000D03*
X56700000Y-29920000D03*
%TD*%
%TO.C,C27*%
X51700000Y-30880000D03*
X51700000Y-29920000D03*
%TD*%
%TO.C,C26*%
X46700000Y-30880000D03*
X46700000Y-29920000D03*
%TD*%
%TO.C,C25*%
X41700000Y-30880000D03*
X41700000Y-29920000D03*
%TD*%
%TO.C,C24*%
X36700000Y-30880000D03*
X36700000Y-29920000D03*
%TD*%
%TO.C,C23*%
X31700000Y-30880000D03*
X31700000Y-29920000D03*
%TD*%
%TO.C,C22*%
X26700000Y-30880000D03*
X26700000Y-29920000D03*
%TD*%
%TO.C,C21*%
X21700000Y-30880000D03*
X21700000Y-29920000D03*
%TD*%
%TO.C,C20*%
X66700000Y-25880000D03*
X66700000Y-24920000D03*
%TD*%
%TO.C,C19*%
X61700000Y-25880000D03*
X61700000Y-24920000D03*
%TD*%
%TO.C,C18*%
X56700000Y-25880000D03*
X56700000Y-24920000D03*
%TD*%
%TO.C,C17*%
X51700000Y-25880000D03*
X51700000Y-24920000D03*
%TD*%
%TO.C,C16*%
X46700000Y-25880000D03*
X46700000Y-24920000D03*
%TD*%
%TO.C,C15*%
X41700000Y-25880000D03*
X41700000Y-24920000D03*
%TD*%
%TO.C,C14*%
X36700000Y-25880000D03*
X36700000Y-24920000D03*
%TD*%
%TO.C,C13*%
X31700000Y-25880000D03*
X31700000Y-24920000D03*
%TD*%
%TO.C,C12*%
X26700000Y-25880000D03*
X26700000Y-24920000D03*
%TD*%
%TO.C,C11*%
X21700000Y-25880000D03*
X21700000Y-24920000D03*
%TD*%
%TO.C,C10*%
X66700000Y-20880000D03*
X66700000Y-19920000D03*
%TD*%
%TO.C,C9*%
X61700000Y-20880000D03*
X61700000Y-19920000D03*
%TD*%
%TO.C,C8*%
X56700000Y-20880000D03*
X56700000Y-19920000D03*
%TD*%
%TO.C,C7*%
X51700000Y-20880000D03*
X51700000Y-19920000D03*
%TD*%
%TO.C,C6*%
X46700000Y-20880000D03*
X46700000Y-19920000D03*
%TD*%
%TO.C,C5*%
X41700000Y-20880000D03*
X41700000Y-19920000D03*
%TD*%
%TO.C,C4*%
X36700000Y-20880000D03*
X36700000Y-19920000D03*
%TD*%
%TO.C,C3*%
X31700000Y-20880000D03*
X31700000Y-19920000D03*
%TD*%
%TO.C,C2*%
X26700000Y-20880000D03*
X26700000Y-19920000D03*
%TD*%
%TO.C,C1*%
X21700000Y-20880000D03*
X21700000Y-19920000D03*
%TD*%
M02*
