%TF.GenerationSoftware,KiCad,Pcbnew,8.0.2*%
%TF.CreationDate,2024-07-01T22:54:51-05:00*%
%TF.ProjectId,pixel_grid,70697865-6c5f-4677-9269-642e6b696361,rev?*%
%TF.SameCoordinates,Original*%
%TF.FileFunction,Legend,Bot*%
%TF.FilePolarity,Positive*%
%FSLAX46Y46*%
G04 Gerber Fmt 4.6, Leading zero omitted, Abs format (unit mm)*
G04 Created by KiCad (PCBNEW 8.0.2) date 2024-07-01 22:54:51*
%MOMM*%
%LPD*%
G01*
G04 APERTURE LIST*
G04 Aperture macros list*
%AMRoundRect*
0 Rectangle with rounded corners*
0 $1 Rounding radius*
0 $2 $3 $4 $5 $6 $7 $8 $9 X,Y pos of 4 corners*
0 Add a 4 corners polygon primitive as box body*
4,1,4,$2,$3,$4,$5,$6,$7,$8,$9,$2,$3,0*
0 Add four circle primitives for the rounded corners*
1,1,$1+$1,$2,$3*
1,1,$1+$1,$4,$5*
1,1,$1+$1,$6,$7*
1,1,$1+$1,$8,$9*
0 Add four rect primitives between the rounded corners*
20,1,$1+$1,$2,$3,$4,$5,0*
20,1,$1+$1,$4,$5,$6,$7,0*
20,1,$1+$1,$6,$7,$8,$9,0*
20,1,$1+$1,$8,$9,$2,$3,0*%
G04 Aperture macros list end*
%ADD10C,0.100000*%
%ADD11C,0.250000*%
%ADD12C,0.150000*%
%ADD13C,0.120000*%
%ADD14R,0.800000X4.000000*%
%ADD15R,4.000000X0.800000*%
%ADD16RoundRect,0.250000X0.350000X0.625000X-0.350000X0.625000X-0.350000X-0.625000X0.350000X-0.625000X0*%
%ADD17O,1.200000X1.750000*%
G04 APERTURE END LIST*
D10*
X64050877Y-26542466D02*
X64117544Y-26509133D01*
X64117544Y-26509133D02*
X64217544Y-26509133D01*
X64217544Y-26509133D02*
X64317544Y-26542466D01*
X64317544Y-26542466D02*
X64384211Y-26609133D01*
X64384211Y-26609133D02*
X64417544Y-26675800D01*
X64417544Y-26675800D02*
X64450877Y-26809133D01*
X64450877Y-26809133D02*
X64450877Y-26909133D01*
X64450877Y-26909133D02*
X64417544Y-27042466D01*
X64417544Y-27042466D02*
X64384211Y-27109133D01*
X64384211Y-27109133D02*
X64317544Y-27175800D01*
X64317544Y-27175800D02*
X64217544Y-27209133D01*
X64217544Y-27209133D02*
X64150877Y-27209133D01*
X64150877Y-27209133D02*
X64050877Y-27175800D01*
X64050877Y-27175800D02*
X64017544Y-27142466D01*
X64017544Y-27142466D02*
X64017544Y-26909133D01*
X64017544Y-26909133D02*
X64150877Y-26909133D01*
X63717544Y-27209133D02*
X63717544Y-26509133D01*
X63717544Y-26509133D02*
X63317544Y-27209133D01*
X63317544Y-27209133D02*
X63317544Y-26509133D01*
X62984211Y-27209133D02*
X62984211Y-26509133D01*
X62984211Y-26509133D02*
X62817544Y-26509133D01*
X62817544Y-26509133D02*
X62717544Y-26542466D01*
X62717544Y-26542466D02*
X62650878Y-26609133D01*
X62650878Y-26609133D02*
X62617544Y-26675800D01*
X62617544Y-26675800D02*
X62584211Y-26809133D01*
X62584211Y-26809133D02*
X62584211Y-26909133D01*
X62584211Y-26909133D02*
X62617544Y-27042466D01*
X62617544Y-27042466D02*
X62650878Y-27109133D01*
X62650878Y-27109133D02*
X62717544Y-27175800D01*
X62717544Y-27175800D02*
X62817544Y-27209133D01*
X62817544Y-27209133D02*
X62984211Y-27209133D01*
X63617544Y-28809133D02*
X63950877Y-28809133D01*
X63950877Y-28809133D02*
X63984210Y-29142466D01*
X63984210Y-29142466D02*
X63950877Y-29109133D01*
X63950877Y-29109133D02*
X63884210Y-29075800D01*
X63884210Y-29075800D02*
X63717544Y-29075800D01*
X63717544Y-29075800D02*
X63650877Y-29109133D01*
X63650877Y-29109133D02*
X63617544Y-29142466D01*
X63617544Y-29142466D02*
X63584210Y-29209133D01*
X63584210Y-29209133D02*
X63584210Y-29375800D01*
X63584210Y-29375800D02*
X63617544Y-29442466D01*
X63617544Y-29442466D02*
X63650877Y-29475800D01*
X63650877Y-29475800D02*
X63717544Y-29509133D01*
X63717544Y-29509133D02*
X63884210Y-29509133D01*
X63884210Y-29509133D02*
X63950877Y-29475800D01*
X63950877Y-29475800D02*
X63984210Y-29442466D01*
X63350877Y-29042466D02*
X63184210Y-29509133D01*
X63184210Y-29509133D02*
X63017543Y-29042466D01*
X62907533Y-67550877D02*
X62940866Y-67617544D01*
X62940866Y-67617544D02*
X62940866Y-67717544D01*
X62940866Y-67717544D02*
X62907533Y-67817544D01*
X62907533Y-67817544D02*
X62840866Y-67884211D01*
X62840866Y-67884211D02*
X62774200Y-67917544D01*
X62774200Y-67917544D02*
X62640866Y-67950877D01*
X62640866Y-67950877D02*
X62540866Y-67950877D01*
X62540866Y-67950877D02*
X62407533Y-67917544D01*
X62407533Y-67917544D02*
X62340866Y-67884211D01*
X62340866Y-67884211D02*
X62274200Y-67817544D01*
X62274200Y-67817544D02*
X62240866Y-67717544D01*
X62240866Y-67717544D02*
X62240866Y-67650877D01*
X62240866Y-67650877D02*
X62274200Y-67550877D01*
X62274200Y-67550877D02*
X62307533Y-67517544D01*
X62307533Y-67517544D02*
X62540866Y-67517544D01*
X62540866Y-67517544D02*
X62540866Y-67650877D01*
X62240866Y-67217544D02*
X62940866Y-67217544D01*
X62940866Y-67217544D02*
X62240866Y-66817544D01*
X62240866Y-66817544D02*
X62940866Y-66817544D01*
X62240866Y-66484211D02*
X62940866Y-66484211D01*
X62940866Y-66484211D02*
X62940866Y-66317544D01*
X62940866Y-66317544D02*
X62907533Y-66217544D01*
X62907533Y-66217544D02*
X62840866Y-66150878D01*
X62840866Y-66150878D02*
X62774200Y-66117544D01*
X62774200Y-66117544D02*
X62640866Y-66084211D01*
X62640866Y-66084211D02*
X62540866Y-66084211D01*
X62540866Y-66084211D02*
X62407533Y-66117544D01*
X62407533Y-66117544D02*
X62340866Y-66150878D01*
X62340866Y-66150878D02*
X62274200Y-66217544D01*
X62274200Y-66217544D02*
X62240866Y-66317544D01*
X62240866Y-66317544D02*
X62240866Y-66484211D01*
X58840866Y-63434211D02*
X58840866Y-63767544D01*
X58840866Y-63767544D02*
X58507533Y-63800877D01*
X58507533Y-63800877D02*
X58540866Y-63767544D01*
X58540866Y-63767544D02*
X58574200Y-63700877D01*
X58574200Y-63700877D02*
X58574200Y-63534211D01*
X58574200Y-63534211D02*
X58540866Y-63467544D01*
X58540866Y-63467544D02*
X58507533Y-63434211D01*
X58507533Y-63434211D02*
X58440866Y-63400877D01*
X58440866Y-63400877D02*
X58274200Y-63400877D01*
X58274200Y-63400877D02*
X58207533Y-63434211D01*
X58207533Y-63434211D02*
X58174200Y-63467544D01*
X58174200Y-63467544D02*
X58140866Y-63534211D01*
X58140866Y-63534211D02*
X58140866Y-63700877D01*
X58140866Y-63700877D02*
X58174200Y-63767544D01*
X58174200Y-63767544D02*
X58207533Y-63800877D01*
X58607533Y-63167544D02*
X58140866Y-63000877D01*
X58140866Y-63000877D02*
X58607533Y-62834210D01*
X31457533Y-63100877D02*
X31490866Y-63167544D01*
X31490866Y-63167544D02*
X31490866Y-63267544D01*
X31490866Y-63267544D02*
X31457533Y-63367544D01*
X31457533Y-63367544D02*
X31390866Y-63434211D01*
X31390866Y-63434211D02*
X31324200Y-63467544D01*
X31324200Y-63467544D02*
X31190866Y-63500877D01*
X31190866Y-63500877D02*
X31090866Y-63500877D01*
X31090866Y-63500877D02*
X30957533Y-63467544D01*
X30957533Y-63467544D02*
X30890866Y-63434211D01*
X30890866Y-63434211D02*
X30824200Y-63367544D01*
X30824200Y-63367544D02*
X30790866Y-63267544D01*
X30790866Y-63267544D02*
X30790866Y-63200877D01*
X30790866Y-63200877D02*
X30824200Y-63100877D01*
X30824200Y-63100877D02*
X30857533Y-63067544D01*
X30857533Y-63067544D02*
X31090866Y-63067544D01*
X31090866Y-63067544D02*
X31090866Y-63200877D01*
X30790866Y-62767544D02*
X31490866Y-62767544D01*
X31490866Y-62767544D02*
X30790866Y-62367544D01*
X30790866Y-62367544D02*
X31490866Y-62367544D01*
X30790866Y-62034211D02*
X31490866Y-62034211D01*
X31490866Y-62034211D02*
X31490866Y-61867544D01*
X31490866Y-61867544D02*
X31457533Y-61767544D01*
X31457533Y-61767544D02*
X31390866Y-61700878D01*
X31390866Y-61700878D02*
X31324200Y-61667544D01*
X31324200Y-61667544D02*
X31190866Y-61634211D01*
X31190866Y-61634211D02*
X31090866Y-61634211D01*
X31090866Y-61634211D02*
X30957533Y-61667544D01*
X30957533Y-61667544D02*
X30890866Y-61700878D01*
X30890866Y-61700878D02*
X30824200Y-61767544D01*
X30824200Y-61767544D02*
X30790866Y-61867544D01*
X30790866Y-61867544D02*
X30790866Y-62034211D01*
X29190866Y-62667544D02*
X29190866Y-63000877D01*
X29190866Y-63000877D02*
X28857533Y-63034210D01*
X28857533Y-63034210D02*
X28890866Y-63000877D01*
X28890866Y-63000877D02*
X28924200Y-62934210D01*
X28924200Y-62934210D02*
X28924200Y-62767544D01*
X28924200Y-62767544D02*
X28890866Y-62700877D01*
X28890866Y-62700877D02*
X28857533Y-62667544D01*
X28857533Y-62667544D02*
X28790866Y-62634210D01*
X28790866Y-62634210D02*
X28624200Y-62634210D01*
X28624200Y-62634210D02*
X28557533Y-62667544D01*
X28557533Y-62667544D02*
X28524200Y-62700877D01*
X28524200Y-62700877D02*
X28490866Y-62767544D01*
X28490866Y-62767544D02*
X28490866Y-62934210D01*
X28490866Y-62934210D02*
X28524200Y-63000877D01*
X28524200Y-63000877D02*
X28557533Y-63034210D01*
X28957533Y-62400877D02*
X28490866Y-62234210D01*
X28490866Y-62234210D02*
X28957533Y-62067543D01*
X61457533Y-22800877D02*
X61490866Y-22867544D01*
X61490866Y-22867544D02*
X61490866Y-22967544D01*
X61490866Y-22967544D02*
X61457533Y-23067544D01*
X61457533Y-23067544D02*
X61390866Y-23134211D01*
X61390866Y-23134211D02*
X61324200Y-23167544D01*
X61324200Y-23167544D02*
X61190866Y-23200877D01*
X61190866Y-23200877D02*
X61090866Y-23200877D01*
X61090866Y-23200877D02*
X60957533Y-23167544D01*
X60957533Y-23167544D02*
X60890866Y-23134211D01*
X60890866Y-23134211D02*
X60824200Y-23067544D01*
X60824200Y-23067544D02*
X60790866Y-22967544D01*
X60790866Y-22967544D02*
X60790866Y-22900877D01*
X60790866Y-22900877D02*
X60824200Y-22800877D01*
X60824200Y-22800877D02*
X60857533Y-22767544D01*
X60857533Y-22767544D02*
X61090866Y-22767544D01*
X61090866Y-22767544D02*
X61090866Y-22900877D01*
X60790866Y-22467544D02*
X61490866Y-22467544D01*
X61490866Y-22467544D02*
X60790866Y-22067544D01*
X60790866Y-22067544D02*
X61490866Y-22067544D01*
X60790866Y-21734211D02*
X61490866Y-21734211D01*
X61490866Y-21734211D02*
X61490866Y-21567544D01*
X61490866Y-21567544D02*
X61457533Y-21467544D01*
X61457533Y-21467544D02*
X61390866Y-21400878D01*
X61390866Y-21400878D02*
X61324200Y-21367544D01*
X61324200Y-21367544D02*
X61190866Y-21334211D01*
X61190866Y-21334211D02*
X61090866Y-21334211D01*
X61090866Y-21334211D02*
X60957533Y-21367544D01*
X60957533Y-21367544D02*
X60890866Y-21400878D01*
X60890866Y-21400878D02*
X60824200Y-21467544D01*
X60824200Y-21467544D02*
X60790866Y-21567544D01*
X60790866Y-21567544D02*
X60790866Y-21734211D01*
X59190866Y-22367544D02*
X59190866Y-22700877D01*
X59190866Y-22700877D02*
X58857533Y-22734210D01*
X58857533Y-22734210D02*
X58890866Y-22700877D01*
X58890866Y-22700877D02*
X58924200Y-22634210D01*
X58924200Y-22634210D02*
X58924200Y-22467544D01*
X58924200Y-22467544D02*
X58890866Y-22400877D01*
X58890866Y-22400877D02*
X58857533Y-22367544D01*
X58857533Y-22367544D02*
X58790866Y-22334210D01*
X58790866Y-22334210D02*
X58624200Y-22334210D01*
X58624200Y-22334210D02*
X58557533Y-22367544D01*
X58557533Y-22367544D02*
X58524200Y-22400877D01*
X58524200Y-22400877D02*
X58490866Y-22467544D01*
X58490866Y-22467544D02*
X58490866Y-22634210D01*
X58490866Y-22634210D02*
X58524200Y-22700877D01*
X58524200Y-22700877D02*
X58557533Y-22734210D01*
X58957533Y-22100877D02*
X58490866Y-21934210D01*
X58490866Y-21934210D02*
X58957533Y-21767543D01*
X31507533Y-22700877D02*
X31540866Y-22767544D01*
X31540866Y-22767544D02*
X31540866Y-22867544D01*
X31540866Y-22867544D02*
X31507533Y-22967544D01*
X31507533Y-22967544D02*
X31440866Y-23034211D01*
X31440866Y-23034211D02*
X31374200Y-23067544D01*
X31374200Y-23067544D02*
X31240866Y-23100877D01*
X31240866Y-23100877D02*
X31140866Y-23100877D01*
X31140866Y-23100877D02*
X31007533Y-23067544D01*
X31007533Y-23067544D02*
X30940866Y-23034211D01*
X30940866Y-23034211D02*
X30874200Y-22967544D01*
X30874200Y-22967544D02*
X30840866Y-22867544D01*
X30840866Y-22867544D02*
X30840866Y-22800877D01*
X30840866Y-22800877D02*
X30874200Y-22700877D01*
X30874200Y-22700877D02*
X30907533Y-22667544D01*
X30907533Y-22667544D02*
X31140866Y-22667544D01*
X31140866Y-22667544D02*
X31140866Y-22800877D01*
X30840866Y-22367544D02*
X31540866Y-22367544D01*
X31540866Y-22367544D02*
X30840866Y-21967544D01*
X30840866Y-21967544D02*
X31540866Y-21967544D01*
X30840866Y-21634211D02*
X31540866Y-21634211D01*
X31540866Y-21634211D02*
X31540866Y-21467544D01*
X31540866Y-21467544D02*
X31507533Y-21367544D01*
X31507533Y-21367544D02*
X31440866Y-21300878D01*
X31440866Y-21300878D02*
X31374200Y-21267544D01*
X31374200Y-21267544D02*
X31240866Y-21234211D01*
X31240866Y-21234211D02*
X31140866Y-21234211D01*
X31140866Y-21234211D02*
X31007533Y-21267544D01*
X31007533Y-21267544D02*
X30940866Y-21300878D01*
X30940866Y-21300878D02*
X30874200Y-21367544D01*
X30874200Y-21367544D02*
X30840866Y-21467544D01*
X30840866Y-21467544D02*
X30840866Y-21634211D01*
X29240866Y-22267544D02*
X29240866Y-22600877D01*
X29240866Y-22600877D02*
X28907533Y-22634210D01*
X28907533Y-22634210D02*
X28940866Y-22600877D01*
X28940866Y-22600877D02*
X28974200Y-22534210D01*
X28974200Y-22534210D02*
X28974200Y-22367544D01*
X28974200Y-22367544D02*
X28940866Y-22300877D01*
X28940866Y-22300877D02*
X28907533Y-22267544D01*
X28907533Y-22267544D02*
X28840866Y-22234210D01*
X28840866Y-22234210D02*
X28674200Y-22234210D01*
X28674200Y-22234210D02*
X28607533Y-22267544D01*
X28607533Y-22267544D02*
X28574200Y-22300877D01*
X28574200Y-22300877D02*
X28540866Y-22367544D01*
X28540866Y-22367544D02*
X28540866Y-22534210D01*
X28540866Y-22534210D02*
X28574200Y-22600877D01*
X28574200Y-22600877D02*
X28607533Y-22634210D01*
X29007533Y-22000877D02*
X28540866Y-21834210D01*
X28540866Y-21834210D02*
X29007533Y-21667543D01*
X23350877Y-26542466D02*
X23417544Y-26509133D01*
X23417544Y-26509133D02*
X23517544Y-26509133D01*
X23517544Y-26509133D02*
X23617544Y-26542466D01*
X23617544Y-26542466D02*
X23684211Y-26609133D01*
X23684211Y-26609133D02*
X23717544Y-26675800D01*
X23717544Y-26675800D02*
X23750877Y-26809133D01*
X23750877Y-26809133D02*
X23750877Y-26909133D01*
X23750877Y-26909133D02*
X23717544Y-27042466D01*
X23717544Y-27042466D02*
X23684211Y-27109133D01*
X23684211Y-27109133D02*
X23617544Y-27175800D01*
X23617544Y-27175800D02*
X23517544Y-27209133D01*
X23517544Y-27209133D02*
X23450877Y-27209133D01*
X23450877Y-27209133D02*
X23350877Y-27175800D01*
X23350877Y-27175800D02*
X23317544Y-27142466D01*
X23317544Y-27142466D02*
X23317544Y-26909133D01*
X23317544Y-26909133D02*
X23450877Y-26909133D01*
X23017544Y-27209133D02*
X23017544Y-26509133D01*
X23017544Y-26509133D02*
X22617544Y-27209133D01*
X22617544Y-27209133D02*
X22617544Y-26509133D01*
X22284211Y-27209133D02*
X22284211Y-26509133D01*
X22284211Y-26509133D02*
X22117544Y-26509133D01*
X22117544Y-26509133D02*
X22017544Y-26542466D01*
X22017544Y-26542466D02*
X21950878Y-26609133D01*
X21950878Y-26609133D02*
X21917544Y-26675800D01*
X21917544Y-26675800D02*
X21884211Y-26809133D01*
X21884211Y-26809133D02*
X21884211Y-26909133D01*
X21884211Y-26909133D02*
X21917544Y-27042466D01*
X21917544Y-27042466D02*
X21950878Y-27109133D01*
X21950878Y-27109133D02*
X22017544Y-27175800D01*
X22017544Y-27175800D02*
X22117544Y-27209133D01*
X22117544Y-27209133D02*
X22284211Y-27209133D01*
X22917544Y-28809133D02*
X23250877Y-28809133D01*
X23250877Y-28809133D02*
X23284210Y-29142466D01*
X23284210Y-29142466D02*
X23250877Y-29109133D01*
X23250877Y-29109133D02*
X23184210Y-29075800D01*
X23184210Y-29075800D02*
X23017544Y-29075800D01*
X23017544Y-29075800D02*
X22950877Y-29109133D01*
X22950877Y-29109133D02*
X22917544Y-29142466D01*
X22917544Y-29142466D02*
X22884210Y-29209133D01*
X22884210Y-29209133D02*
X22884210Y-29375800D01*
X22884210Y-29375800D02*
X22917544Y-29442466D01*
X22917544Y-29442466D02*
X22950877Y-29475800D01*
X22950877Y-29475800D02*
X23017544Y-29509133D01*
X23017544Y-29509133D02*
X23184210Y-29509133D01*
X23184210Y-29509133D02*
X23250877Y-29475800D01*
X23250877Y-29475800D02*
X23284210Y-29442466D01*
X22650877Y-29042466D02*
X22484210Y-29509133D01*
X22484210Y-29509133D02*
X22317543Y-29042466D01*
X23700877Y-56592466D02*
X23767544Y-56559133D01*
X23767544Y-56559133D02*
X23867544Y-56559133D01*
X23867544Y-56559133D02*
X23967544Y-56592466D01*
X23967544Y-56592466D02*
X24034211Y-56659133D01*
X24034211Y-56659133D02*
X24067544Y-56725800D01*
X24067544Y-56725800D02*
X24100877Y-56859133D01*
X24100877Y-56859133D02*
X24100877Y-56959133D01*
X24100877Y-56959133D02*
X24067544Y-57092466D01*
X24067544Y-57092466D02*
X24034211Y-57159133D01*
X24034211Y-57159133D02*
X23967544Y-57225800D01*
X23967544Y-57225800D02*
X23867544Y-57259133D01*
X23867544Y-57259133D02*
X23800877Y-57259133D01*
X23800877Y-57259133D02*
X23700877Y-57225800D01*
X23700877Y-57225800D02*
X23667544Y-57192466D01*
X23667544Y-57192466D02*
X23667544Y-56959133D01*
X23667544Y-56959133D02*
X23800877Y-56959133D01*
X23367544Y-57259133D02*
X23367544Y-56559133D01*
X23367544Y-56559133D02*
X22967544Y-57259133D01*
X22967544Y-57259133D02*
X22967544Y-56559133D01*
X22634211Y-57259133D02*
X22634211Y-56559133D01*
X22634211Y-56559133D02*
X22467544Y-56559133D01*
X22467544Y-56559133D02*
X22367544Y-56592466D01*
X22367544Y-56592466D02*
X22300878Y-56659133D01*
X22300878Y-56659133D02*
X22267544Y-56725800D01*
X22267544Y-56725800D02*
X22234211Y-56859133D01*
X22234211Y-56859133D02*
X22234211Y-56959133D01*
X22234211Y-56959133D02*
X22267544Y-57092466D01*
X22267544Y-57092466D02*
X22300878Y-57159133D01*
X22300878Y-57159133D02*
X22367544Y-57225800D01*
X22367544Y-57225800D02*
X22467544Y-57259133D01*
X22467544Y-57259133D02*
X22634211Y-57259133D01*
X23267544Y-58859133D02*
X23600877Y-58859133D01*
X23600877Y-58859133D02*
X23634210Y-59192466D01*
X23634210Y-59192466D02*
X23600877Y-59159133D01*
X23600877Y-59159133D02*
X23534210Y-59125800D01*
X23534210Y-59125800D02*
X23367544Y-59125800D01*
X23367544Y-59125800D02*
X23300877Y-59159133D01*
X23300877Y-59159133D02*
X23267544Y-59192466D01*
X23267544Y-59192466D02*
X23234210Y-59259133D01*
X23234210Y-59259133D02*
X23234210Y-59425800D01*
X23234210Y-59425800D02*
X23267544Y-59492466D01*
X23267544Y-59492466D02*
X23300877Y-59525800D01*
X23300877Y-59525800D02*
X23367544Y-59559133D01*
X23367544Y-59559133D02*
X23534210Y-59559133D01*
X23534210Y-59559133D02*
X23600877Y-59525800D01*
X23600877Y-59525800D02*
X23634210Y-59492466D01*
X23000877Y-59092466D02*
X22834210Y-59559133D01*
X22834210Y-59559133D02*
X22667543Y-59092466D01*
X64050877Y-56642466D02*
X64117544Y-56609133D01*
X64117544Y-56609133D02*
X64217544Y-56609133D01*
X64217544Y-56609133D02*
X64317544Y-56642466D01*
X64317544Y-56642466D02*
X64384211Y-56709133D01*
X64384211Y-56709133D02*
X64417544Y-56775800D01*
X64417544Y-56775800D02*
X64450877Y-56909133D01*
X64450877Y-56909133D02*
X64450877Y-57009133D01*
X64450877Y-57009133D02*
X64417544Y-57142466D01*
X64417544Y-57142466D02*
X64384211Y-57209133D01*
X64384211Y-57209133D02*
X64317544Y-57275800D01*
X64317544Y-57275800D02*
X64217544Y-57309133D01*
X64217544Y-57309133D02*
X64150877Y-57309133D01*
X64150877Y-57309133D02*
X64050877Y-57275800D01*
X64050877Y-57275800D02*
X64017544Y-57242466D01*
X64017544Y-57242466D02*
X64017544Y-57009133D01*
X64017544Y-57009133D02*
X64150877Y-57009133D01*
X63717544Y-57309133D02*
X63717544Y-56609133D01*
X63717544Y-56609133D02*
X63317544Y-57309133D01*
X63317544Y-57309133D02*
X63317544Y-56609133D01*
X62984211Y-57309133D02*
X62984211Y-56609133D01*
X62984211Y-56609133D02*
X62817544Y-56609133D01*
X62817544Y-56609133D02*
X62717544Y-56642466D01*
X62717544Y-56642466D02*
X62650878Y-56709133D01*
X62650878Y-56709133D02*
X62617544Y-56775800D01*
X62617544Y-56775800D02*
X62584211Y-56909133D01*
X62584211Y-56909133D02*
X62584211Y-57009133D01*
X62584211Y-57009133D02*
X62617544Y-57142466D01*
X62617544Y-57142466D02*
X62650878Y-57209133D01*
X62650878Y-57209133D02*
X62717544Y-57275800D01*
X62717544Y-57275800D02*
X62817544Y-57309133D01*
X62817544Y-57309133D02*
X62984211Y-57309133D01*
X63617544Y-58909133D02*
X63950877Y-58909133D01*
X63950877Y-58909133D02*
X63984210Y-59242466D01*
X63984210Y-59242466D02*
X63950877Y-59209133D01*
X63950877Y-59209133D02*
X63884210Y-59175800D01*
X63884210Y-59175800D02*
X63717544Y-59175800D01*
X63717544Y-59175800D02*
X63650877Y-59209133D01*
X63650877Y-59209133D02*
X63617544Y-59242466D01*
X63617544Y-59242466D02*
X63584210Y-59309133D01*
X63584210Y-59309133D02*
X63584210Y-59475800D01*
X63584210Y-59475800D02*
X63617544Y-59542466D01*
X63617544Y-59542466D02*
X63650877Y-59575800D01*
X63650877Y-59575800D02*
X63717544Y-59609133D01*
X63717544Y-59609133D02*
X63884210Y-59609133D01*
X63884210Y-59609133D02*
X63950877Y-59575800D01*
X63950877Y-59575800D02*
X63984210Y-59542466D01*
X63350877Y-59142466D02*
X63184210Y-59609133D01*
X63184210Y-59609133D02*
X63017543Y-59142466D01*
X63784211Y-43659133D02*
X64117544Y-43659133D01*
X64117544Y-43659133D02*
X64150877Y-43992466D01*
X64150877Y-43992466D02*
X64117544Y-43959133D01*
X64117544Y-43959133D02*
X64050877Y-43925800D01*
X64050877Y-43925800D02*
X63884211Y-43925800D01*
X63884211Y-43925800D02*
X63817544Y-43959133D01*
X63817544Y-43959133D02*
X63784211Y-43992466D01*
X63784211Y-43992466D02*
X63750877Y-44059133D01*
X63750877Y-44059133D02*
X63750877Y-44225800D01*
X63750877Y-44225800D02*
X63784211Y-44292466D01*
X63784211Y-44292466D02*
X63817544Y-44325800D01*
X63817544Y-44325800D02*
X63884211Y-44359133D01*
X63884211Y-44359133D02*
X64050877Y-44359133D01*
X64050877Y-44359133D02*
X64117544Y-44325800D01*
X64117544Y-44325800D02*
X64150877Y-44292466D01*
X63517544Y-43892466D02*
X63350877Y-44359133D01*
X63350877Y-44359133D02*
X63184210Y-43892466D01*
X64400877Y-43209133D02*
X64400877Y-42509133D01*
X64400877Y-42509133D02*
X64234210Y-42509133D01*
X64234210Y-42509133D02*
X64134210Y-42542466D01*
X64134210Y-42542466D02*
X64067544Y-42609133D01*
X64067544Y-42609133D02*
X64034210Y-42675800D01*
X64034210Y-42675800D02*
X64000877Y-42809133D01*
X64000877Y-42809133D02*
X64000877Y-42909133D01*
X64000877Y-42909133D02*
X64034210Y-43042466D01*
X64034210Y-43042466D02*
X64067544Y-43109133D01*
X64067544Y-43109133D02*
X64134210Y-43175800D01*
X64134210Y-43175800D02*
X64234210Y-43209133D01*
X64234210Y-43209133D02*
X64400877Y-43209133D01*
X63567544Y-42509133D02*
X63434210Y-42509133D01*
X63434210Y-42509133D02*
X63367544Y-42542466D01*
X63367544Y-42542466D02*
X63300877Y-42609133D01*
X63300877Y-42609133D02*
X63267544Y-42742466D01*
X63267544Y-42742466D02*
X63267544Y-42975800D01*
X63267544Y-42975800D02*
X63300877Y-43109133D01*
X63300877Y-43109133D02*
X63367544Y-43175800D01*
X63367544Y-43175800D02*
X63434210Y-43209133D01*
X63434210Y-43209133D02*
X63567544Y-43209133D01*
X63567544Y-43209133D02*
X63634210Y-43175800D01*
X63634210Y-43175800D02*
X63700877Y-43109133D01*
X63700877Y-43109133D02*
X63734210Y-42975800D01*
X63734210Y-42975800D02*
X63734210Y-42742466D01*
X63734210Y-42742466D02*
X63700877Y-42609133D01*
X63700877Y-42609133D02*
X63634210Y-42542466D01*
X63634210Y-42542466D02*
X63567544Y-42509133D01*
X62967544Y-42509133D02*
X62967544Y-43075800D01*
X62967544Y-43075800D02*
X62934211Y-43142466D01*
X62934211Y-43142466D02*
X62900877Y-43175800D01*
X62900877Y-43175800D02*
X62834211Y-43209133D01*
X62834211Y-43209133D02*
X62700877Y-43209133D01*
X62700877Y-43209133D02*
X62634211Y-43175800D01*
X62634211Y-43175800D02*
X62600877Y-43142466D01*
X62600877Y-43142466D02*
X62567544Y-43075800D01*
X62567544Y-43075800D02*
X62567544Y-42509133D01*
X62334211Y-42509133D02*
X61934211Y-42509133D01*
X62134211Y-43209133D02*
X62134211Y-42509133D01*
X64217544Y-41392466D02*
X64284211Y-41359133D01*
X64284211Y-41359133D02*
X64384211Y-41359133D01*
X64384211Y-41359133D02*
X64484211Y-41392466D01*
X64484211Y-41392466D02*
X64550878Y-41459133D01*
X64550878Y-41459133D02*
X64584211Y-41525800D01*
X64584211Y-41525800D02*
X64617544Y-41659133D01*
X64617544Y-41659133D02*
X64617544Y-41759133D01*
X64617544Y-41759133D02*
X64584211Y-41892466D01*
X64584211Y-41892466D02*
X64550878Y-41959133D01*
X64550878Y-41959133D02*
X64484211Y-42025800D01*
X64484211Y-42025800D02*
X64384211Y-42059133D01*
X64384211Y-42059133D02*
X64317544Y-42059133D01*
X64317544Y-42059133D02*
X64217544Y-42025800D01*
X64217544Y-42025800D02*
X64184211Y-41992466D01*
X64184211Y-41992466D02*
X64184211Y-41759133D01*
X64184211Y-41759133D02*
X64317544Y-41759133D01*
X63884211Y-42059133D02*
X63884211Y-41359133D01*
X63884211Y-41359133D02*
X63484211Y-42059133D01*
X63484211Y-42059133D02*
X63484211Y-41359133D01*
X63150878Y-42059133D02*
X63150878Y-41359133D01*
X63150878Y-41359133D02*
X62984211Y-41359133D01*
X62984211Y-41359133D02*
X62884211Y-41392466D01*
X62884211Y-41392466D02*
X62817545Y-41459133D01*
X62817545Y-41459133D02*
X62784211Y-41525800D01*
X62784211Y-41525800D02*
X62750878Y-41659133D01*
X62750878Y-41659133D02*
X62750878Y-41759133D01*
X62750878Y-41759133D02*
X62784211Y-41892466D01*
X62784211Y-41892466D02*
X62817545Y-41959133D01*
X62817545Y-41959133D02*
X62884211Y-42025800D01*
X62884211Y-42025800D02*
X62984211Y-42059133D01*
X62984211Y-42059133D02*
X63150878Y-42059133D01*
X23650877Y-43124133D02*
X23650877Y-42424133D01*
X23650877Y-42424133D02*
X23484210Y-42424133D01*
X23484210Y-42424133D02*
X23384210Y-42457466D01*
X23384210Y-42457466D02*
X23317544Y-42524133D01*
X23317544Y-42524133D02*
X23284210Y-42590800D01*
X23284210Y-42590800D02*
X23250877Y-42724133D01*
X23250877Y-42724133D02*
X23250877Y-42824133D01*
X23250877Y-42824133D02*
X23284210Y-42957466D01*
X23284210Y-42957466D02*
X23317544Y-43024133D01*
X23317544Y-43024133D02*
X23384210Y-43090800D01*
X23384210Y-43090800D02*
X23484210Y-43124133D01*
X23484210Y-43124133D02*
X23650877Y-43124133D01*
X22950877Y-43124133D02*
X22950877Y-42424133D01*
X22617544Y-43124133D02*
X22617544Y-42424133D01*
X22617544Y-42424133D02*
X22217544Y-43124133D01*
X22217544Y-43124133D02*
X22217544Y-42424133D01*
X23034211Y-43574133D02*
X23367544Y-43574133D01*
X23367544Y-43574133D02*
X23400877Y-43907466D01*
X23400877Y-43907466D02*
X23367544Y-43874133D01*
X23367544Y-43874133D02*
X23300877Y-43840800D01*
X23300877Y-43840800D02*
X23134211Y-43840800D01*
X23134211Y-43840800D02*
X23067544Y-43874133D01*
X23067544Y-43874133D02*
X23034211Y-43907466D01*
X23034211Y-43907466D02*
X23000877Y-43974133D01*
X23000877Y-43974133D02*
X23000877Y-44140800D01*
X23000877Y-44140800D02*
X23034211Y-44207466D01*
X23034211Y-44207466D02*
X23067544Y-44240800D01*
X23067544Y-44240800D02*
X23134211Y-44274133D01*
X23134211Y-44274133D02*
X23300877Y-44274133D01*
X23300877Y-44274133D02*
X23367544Y-44240800D01*
X23367544Y-44240800D02*
X23400877Y-44207466D01*
X22767544Y-43807466D02*
X22600877Y-44274133D01*
X22600877Y-44274133D02*
X22434210Y-43807466D01*
X23467544Y-41307466D02*
X23534211Y-41274133D01*
X23534211Y-41274133D02*
X23634211Y-41274133D01*
X23634211Y-41274133D02*
X23734211Y-41307466D01*
X23734211Y-41307466D02*
X23800878Y-41374133D01*
X23800878Y-41374133D02*
X23834211Y-41440800D01*
X23834211Y-41440800D02*
X23867544Y-41574133D01*
X23867544Y-41574133D02*
X23867544Y-41674133D01*
X23867544Y-41674133D02*
X23834211Y-41807466D01*
X23834211Y-41807466D02*
X23800878Y-41874133D01*
X23800878Y-41874133D02*
X23734211Y-41940800D01*
X23734211Y-41940800D02*
X23634211Y-41974133D01*
X23634211Y-41974133D02*
X23567544Y-41974133D01*
X23567544Y-41974133D02*
X23467544Y-41940800D01*
X23467544Y-41940800D02*
X23434211Y-41907466D01*
X23434211Y-41907466D02*
X23434211Y-41674133D01*
X23434211Y-41674133D02*
X23567544Y-41674133D01*
X23134211Y-41974133D02*
X23134211Y-41274133D01*
X23134211Y-41274133D02*
X22734211Y-41974133D01*
X22734211Y-41974133D02*
X22734211Y-41274133D01*
X22400878Y-41974133D02*
X22400878Y-41274133D01*
X22400878Y-41274133D02*
X22234211Y-41274133D01*
X22234211Y-41274133D02*
X22134211Y-41307466D01*
X22134211Y-41307466D02*
X22067545Y-41374133D01*
X22067545Y-41374133D02*
X22034211Y-41440800D01*
X22034211Y-41440800D02*
X22000878Y-41574133D01*
X22000878Y-41574133D02*
X22000878Y-41674133D01*
X22000878Y-41674133D02*
X22034211Y-41807466D01*
X22034211Y-41807466D02*
X22067545Y-41874133D01*
X22067545Y-41874133D02*
X22134211Y-41940800D01*
X22134211Y-41940800D02*
X22234211Y-41974133D01*
X22234211Y-41974133D02*
X22400878Y-41974133D01*
D11*
X54557142Y-27643764D02*
X54271428Y-28643764D01*
X54271428Y-28643764D02*
X53985713Y-27929478D01*
X53985713Y-27929478D02*
X53699999Y-28643764D01*
X53699999Y-28643764D02*
X53414285Y-27643764D01*
X52914284Y-28572336D02*
X52771427Y-28643764D01*
X52771427Y-28643764D02*
X52485713Y-28643764D01*
X52485713Y-28643764D02*
X52342856Y-28572336D01*
X52342856Y-28572336D02*
X52271427Y-28429478D01*
X52271427Y-28429478D02*
X52271427Y-28358050D01*
X52271427Y-28358050D02*
X52342856Y-28215193D01*
X52342856Y-28215193D02*
X52485713Y-28143764D01*
X52485713Y-28143764D02*
X52699999Y-28143764D01*
X52699999Y-28143764D02*
X52842856Y-28072336D01*
X52842856Y-28072336D02*
X52914284Y-27929478D01*
X52914284Y-27929478D02*
X52914284Y-27858050D01*
X52914284Y-27858050D02*
X52842856Y-27715193D01*
X52842856Y-27715193D02*
X52699999Y-27643764D01*
X52699999Y-27643764D02*
X52485713Y-27643764D01*
X52485713Y-27643764D02*
X52342856Y-27715193D01*
X51699998Y-27286621D02*
X51628570Y-27215193D01*
X51628570Y-27215193D02*
X51485713Y-27143764D01*
X51485713Y-27143764D02*
X51128570Y-27143764D01*
X51128570Y-27143764D02*
X50985713Y-27215193D01*
X50985713Y-27215193D02*
X50914284Y-27286621D01*
X50914284Y-27286621D02*
X50842855Y-27429478D01*
X50842855Y-27429478D02*
X50842855Y-27572336D01*
X50842855Y-27572336D02*
X50914284Y-27786621D01*
X50914284Y-27786621D02*
X51771427Y-28643764D01*
X51771427Y-28643764D02*
X50842855Y-28643764D01*
X49985713Y-27786621D02*
X50128570Y-27715193D01*
X50128570Y-27715193D02*
X50199999Y-27643764D01*
X50199999Y-27643764D02*
X50271427Y-27500907D01*
X50271427Y-27500907D02*
X50271427Y-27429478D01*
X50271427Y-27429478D02*
X50199999Y-27286621D01*
X50199999Y-27286621D02*
X50128570Y-27215193D01*
X50128570Y-27215193D02*
X49985713Y-27143764D01*
X49985713Y-27143764D02*
X49699999Y-27143764D01*
X49699999Y-27143764D02*
X49557142Y-27215193D01*
X49557142Y-27215193D02*
X49485713Y-27286621D01*
X49485713Y-27286621D02*
X49414284Y-27429478D01*
X49414284Y-27429478D02*
X49414284Y-27500907D01*
X49414284Y-27500907D02*
X49485713Y-27643764D01*
X49485713Y-27643764D02*
X49557142Y-27715193D01*
X49557142Y-27715193D02*
X49699999Y-27786621D01*
X49699999Y-27786621D02*
X49985713Y-27786621D01*
X49985713Y-27786621D02*
X50128570Y-27858050D01*
X50128570Y-27858050D02*
X50199999Y-27929478D01*
X50199999Y-27929478D02*
X50271427Y-28072336D01*
X50271427Y-28072336D02*
X50271427Y-28358050D01*
X50271427Y-28358050D02*
X50199999Y-28500907D01*
X50199999Y-28500907D02*
X50128570Y-28572336D01*
X50128570Y-28572336D02*
X49985713Y-28643764D01*
X49985713Y-28643764D02*
X49699999Y-28643764D01*
X49699999Y-28643764D02*
X49557142Y-28572336D01*
X49557142Y-28572336D02*
X49485713Y-28500907D01*
X49485713Y-28500907D02*
X49414284Y-28358050D01*
X49414284Y-28358050D02*
X49414284Y-28072336D01*
X49414284Y-28072336D02*
X49485713Y-27929478D01*
X49485713Y-27929478D02*
X49557142Y-27858050D01*
X49557142Y-27858050D02*
X49699999Y-27786621D01*
X47985713Y-28643764D02*
X48842856Y-28643764D01*
X48414285Y-28643764D02*
X48414285Y-27143764D01*
X48414285Y-27143764D02*
X48557142Y-27358050D01*
X48557142Y-27358050D02*
X48699999Y-27500907D01*
X48699999Y-27500907D02*
X48842856Y-27572336D01*
X47414285Y-27286621D02*
X47342857Y-27215193D01*
X47342857Y-27215193D02*
X47200000Y-27143764D01*
X47200000Y-27143764D02*
X46842857Y-27143764D01*
X46842857Y-27143764D02*
X46700000Y-27215193D01*
X46700000Y-27215193D02*
X46628571Y-27286621D01*
X46628571Y-27286621D02*
X46557142Y-27429478D01*
X46557142Y-27429478D02*
X46557142Y-27572336D01*
X46557142Y-27572336D02*
X46628571Y-27786621D01*
X46628571Y-27786621D02*
X47485714Y-28643764D01*
X47485714Y-28643764D02*
X46557142Y-28643764D01*
X45414286Y-27858050D02*
X45200000Y-27929478D01*
X45200000Y-27929478D02*
X45128571Y-28000907D01*
X45128571Y-28000907D02*
X45057143Y-28143764D01*
X45057143Y-28143764D02*
X45057143Y-28358050D01*
X45057143Y-28358050D02*
X45128571Y-28500907D01*
X45128571Y-28500907D02*
X45200000Y-28572336D01*
X45200000Y-28572336D02*
X45342857Y-28643764D01*
X45342857Y-28643764D02*
X45914286Y-28643764D01*
X45914286Y-28643764D02*
X45914286Y-27143764D01*
X45914286Y-27143764D02*
X45414286Y-27143764D01*
X45414286Y-27143764D02*
X45271429Y-27215193D01*
X45271429Y-27215193D02*
X45200000Y-27286621D01*
X45200000Y-27286621D02*
X45128571Y-27429478D01*
X45128571Y-27429478D02*
X45128571Y-27572336D01*
X45128571Y-27572336D02*
X45200000Y-27715193D01*
X45200000Y-27715193D02*
X45271429Y-27786621D01*
X45271429Y-27786621D02*
X45414286Y-27858050D01*
X45414286Y-27858050D02*
X45914286Y-27858050D01*
X42557143Y-28643764D02*
X43271429Y-28643764D01*
X43271429Y-28643764D02*
X43271429Y-27143764D01*
X42057143Y-27858050D02*
X41557143Y-27858050D01*
X41342857Y-28643764D02*
X42057143Y-28643764D01*
X42057143Y-28643764D02*
X42057143Y-27143764D01*
X42057143Y-27143764D02*
X41342857Y-27143764D01*
X40700000Y-28643764D02*
X40700000Y-27143764D01*
X40700000Y-27143764D02*
X40342857Y-27143764D01*
X40342857Y-27143764D02*
X40128571Y-27215193D01*
X40128571Y-27215193D02*
X39985714Y-27358050D01*
X39985714Y-27358050D02*
X39914285Y-27500907D01*
X39914285Y-27500907D02*
X39842857Y-27786621D01*
X39842857Y-27786621D02*
X39842857Y-28000907D01*
X39842857Y-28000907D02*
X39914285Y-28286621D01*
X39914285Y-28286621D02*
X39985714Y-28429478D01*
X39985714Y-28429478D02*
X40128571Y-28572336D01*
X40128571Y-28572336D02*
X40342857Y-28643764D01*
X40342857Y-28643764D02*
X40700000Y-28643764D01*
X38057143Y-28643764D02*
X38057143Y-27143764D01*
X38057143Y-27143764D02*
X37557143Y-28215193D01*
X37557143Y-28215193D02*
X37057143Y-27143764D01*
X37057143Y-27143764D02*
X37057143Y-28643764D01*
X35700000Y-28643764D02*
X35700000Y-27858050D01*
X35700000Y-27858050D02*
X35771428Y-27715193D01*
X35771428Y-27715193D02*
X35914285Y-27643764D01*
X35914285Y-27643764D02*
X36200000Y-27643764D01*
X36200000Y-27643764D02*
X36342857Y-27715193D01*
X35700000Y-28572336D02*
X35842857Y-28643764D01*
X35842857Y-28643764D02*
X36200000Y-28643764D01*
X36200000Y-28643764D02*
X36342857Y-28572336D01*
X36342857Y-28572336D02*
X36414285Y-28429478D01*
X36414285Y-28429478D02*
X36414285Y-28286621D01*
X36414285Y-28286621D02*
X36342857Y-28143764D01*
X36342857Y-28143764D02*
X36200000Y-28072336D01*
X36200000Y-28072336D02*
X35842857Y-28072336D01*
X35842857Y-28072336D02*
X35700000Y-28000907D01*
X35199999Y-27643764D02*
X34628571Y-27643764D01*
X34985714Y-27143764D02*
X34985714Y-28429478D01*
X34985714Y-28429478D02*
X34914285Y-28572336D01*
X34914285Y-28572336D02*
X34771428Y-28643764D01*
X34771428Y-28643764D02*
X34628571Y-28643764D01*
X34128571Y-28643764D02*
X34128571Y-27643764D01*
X34128571Y-27929478D02*
X34057142Y-27786621D01*
X34057142Y-27786621D02*
X33985714Y-27715193D01*
X33985714Y-27715193D02*
X33842856Y-27643764D01*
X33842856Y-27643764D02*
X33699999Y-27643764D01*
X33200000Y-28643764D02*
X33200000Y-27643764D01*
X33200000Y-27143764D02*
X33271428Y-27215193D01*
X33271428Y-27215193D02*
X33200000Y-27286621D01*
X33200000Y-27286621D02*
X33128571Y-27215193D01*
X33128571Y-27215193D02*
X33200000Y-27143764D01*
X33200000Y-27143764D02*
X33200000Y-27286621D01*
X32628571Y-28643764D02*
X31842857Y-27643764D01*
X32628571Y-27643764D02*
X31842857Y-28643764D01*
X51735712Y-34045025D02*
X51807141Y-33973596D01*
X51807141Y-33973596D02*
X51949998Y-33759310D01*
X51949998Y-33759310D02*
X52021427Y-33616453D01*
X52021427Y-33616453D02*
X52092855Y-33402168D01*
X52092855Y-33402168D02*
X52164284Y-33045025D01*
X52164284Y-33045025D02*
X52164284Y-32759310D01*
X52164284Y-32759310D02*
X52092855Y-32402168D01*
X52092855Y-32402168D02*
X52021427Y-32187882D01*
X52021427Y-32187882D02*
X51949998Y-32045025D01*
X51949998Y-32045025D02*
X51807141Y-31830739D01*
X51807141Y-31830739D02*
X51735712Y-31759310D01*
X50521427Y-33402168D02*
X50664284Y-33473596D01*
X50664284Y-33473596D02*
X50949998Y-33473596D01*
X50949998Y-33473596D02*
X51092855Y-33402168D01*
X51092855Y-33402168D02*
X51164284Y-33330739D01*
X51164284Y-33330739D02*
X51235712Y-33187882D01*
X51235712Y-33187882D02*
X51235712Y-32759310D01*
X51235712Y-32759310D02*
X51164284Y-32616453D01*
X51164284Y-32616453D02*
X51092855Y-32545025D01*
X51092855Y-32545025D02*
X50949998Y-32473596D01*
X50949998Y-32473596D02*
X50664284Y-32473596D01*
X50664284Y-32473596D02*
X50521427Y-32545025D01*
X50021427Y-34045025D02*
X49949998Y-33973596D01*
X49949998Y-33973596D02*
X49807141Y-33759310D01*
X49807141Y-33759310D02*
X49735713Y-33616453D01*
X49735713Y-33616453D02*
X49664284Y-33402168D01*
X49664284Y-33402168D02*
X49592855Y-33045025D01*
X49592855Y-33045025D02*
X49592855Y-32759310D01*
X49592855Y-32759310D02*
X49664284Y-32402168D01*
X49664284Y-32402168D02*
X49735713Y-32187882D01*
X49735713Y-32187882D02*
X49807141Y-32045025D01*
X49807141Y-32045025D02*
X49949998Y-31830739D01*
X49949998Y-31830739D02*
X50021427Y-31759310D01*
X47807141Y-32116453D02*
X47735713Y-32045025D01*
X47735713Y-32045025D02*
X47592856Y-31973596D01*
X47592856Y-31973596D02*
X47235713Y-31973596D01*
X47235713Y-31973596D02*
X47092856Y-32045025D01*
X47092856Y-32045025D02*
X47021427Y-32116453D01*
X47021427Y-32116453D02*
X46949998Y-32259310D01*
X46949998Y-32259310D02*
X46949998Y-32402168D01*
X46949998Y-32402168D02*
X47021427Y-32616453D01*
X47021427Y-32616453D02*
X47878570Y-33473596D01*
X47878570Y-33473596D02*
X46949998Y-33473596D01*
X46021427Y-31973596D02*
X45878570Y-31973596D01*
X45878570Y-31973596D02*
X45735713Y-32045025D01*
X45735713Y-32045025D02*
X45664285Y-32116453D01*
X45664285Y-32116453D02*
X45592856Y-32259310D01*
X45592856Y-32259310D02*
X45521427Y-32545025D01*
X45521427Y-32545025D02*
X45521427Y-32902168D01*
X45521427Y-32902168D02*
X45592856Y-33187882D01*
X45592856Y-33187882D02*
X45664285Y-33330739D01*
X45664285Y-33330739D02*
X45735713Y-33402168D01*
X45735713Y-33402168D02*
X45878570Y-33473596D01*
X45878570Y-33473596D02*
X46021427Y-33473596D01*
X46021427Y-33473596D02*
X46164285Y-33402168D01*
X46164285Y-33402168D02*
X46235713Y-33330739D01*
X46235713Y-33330739D02*
X46307142Y-33187882D01*
X46307142Y-33187882D02*
X46378570Y-32902168D01*
X46378570Y-32902168D02*
X46378570Y-32545025D01*
X46378570Y-32545025D02*
X46307142Y-32259310D01*
X46307142Y-32259310D02*
X46235713Y-32116453D01*
X46235713Y-32116453D02*
X46164285Y-32045025D01*
X46164285Y-32045025D02*
X46021427Y-31973596D01*
X44949999Y-32116453D02*
X44878571Y-32045025D01*
X44878571Y-32045025D02*
X44735714Y-31973596D01*
X44735714Y-31973596D02*
X44378571Y-31973596D01*
X44378571Y-31973596D02*
X44235714Y-32045025D01*
X44235714Y-32045025D02*
X44164285Y-32116453D01*
X44164285Y-32116453D02*
X44092856Y-32259310D01*
X44092856Y-32259310D02*
X44092856Y-32402168D01*
X44092856Y-32402168D02*
X44164285Y-32616453D01*
X44164285Y-32616453D02*
X45021428Y-33473596D01*
X45021428Y-33473596D02*
X44092856Y-33473596D01*
X42807143Y-32473596D02*
X42807143Y-33473596D01*
X43164285Y-31902168D02*
X43521428Y-32973596D01*
X43521428Y-32973596D02*
X42592857Y-32973596D01*
X40235715Y-33473596D02*
X40235715Y-32687882D01*
X40235715Y-32687882D02*
X40307143Y-32545025D01*
X40307143Y-32545025D02*
X40450000Y-32473596D01*
X40450000Y-32473596D02*
X40735715Y-32473596D01*
X40735715Y-32473596D02*
X40878572Y-32545025D01*
X40235715Y-33402168D02*
X40378572Y-33473596D01*
X40378572Y-33473596D02*
X40735715Y-33473596D01*
X40735715Y-33473596D02*
X40878572Y-33402168D01*
X40878572Y-33402168D02*
X40950000Y-33259310D01*
X40950000Y-33259310D02*
X40950000Y-33116453D01*
X40950000Y-33116453D02*
X40878572Y-32973596D01*
X40878572Y-32973596D02*
X40735715Y-32902168D01*
X40735715Y-32902168D02*
X40378572Y-32902168D01*
X40378572Y-32902168D02*
X40235715Y-32830739D01*
X39521429Y-33473596D02*
X39521429Y-31973596D01*
X39378572Y-32902168D02*
X38950000Y-33473596D01*
X38950000Y-32473596D02*
X39521429Y-33045025D01*
X37664286Y-32473596D02*
X37664286Y-33473596D01*
X38307143Y-32473596D02*
X38307143Y-33259310D01*
X38307143Y-33259310D02*
X38235714Y-33402168D01*
X38235714Y-33402168D02*
X38092857Y-33473596D01*
X38092857Y-33473596D02*
X37878571Y-33473596D01*
X37878571Y-33473596D02*
X37735714Y-33402168D01*
X37735714Y-33402168D02*
X37664286Y-33330739D01*
X36950000Y-33473596D02*
X36950000Y-31973596D01*
X36807143Y-32902168D02*
X36378571Y-33473596D01*
X36378571Y-32473596D02*
X36950000Y-33045025D01*
X35164285Y-33402168D02*
X35307142Y-33473596D01*
X35307142Y-33473596D02*
X35592857Y-33473596D01*
X35592857Y-33473596D02*
X35735714Y-33402168D01*
X35735714Y-33402168D02*
X35807142Y-33259310D01*
X35807142Y-33259310D02*
X35807142Y-32687882D01*
X35807142Y-32687882D02*
X35735714Y-32545025D01*
X35735714Y-32545025D02*
X35592857Y-32473596D01*
X35592857Y-32473596D02*
X35307142Y-32473596D01*
X35307142Y-32473596D02*
X35164285Y-32545025D01*
X35164285Y-32545025D02*
X35092857Y-32687882D01*
X35092857Y-32687882D02*
X35092857Y-32830739D01*
X35092857Y-32830739D02*
X35807142Y-32973596D01*
X34450000Y-33473596D02*
X34450000Y-32473596D01*
X34450000Y-32759310D02*
X34378571Y-32616453D01*
X34378571Y-32616453D02*
X34307143Y-32545025D01*
X34307143Y-32545025D02*
X34164285Y-32473596D01*
X34164285Y-32473596D02*
X34021428Y-32473596D01*
X60164287Y-37303428D02*
X60164287Y-38517714D01*
X60164287Y-38517714D02*
X60235715Y-38660571D01*
X60235715Y-38660571D02*
X60307144Y-38732000D01*
X60307144Y-38732000D02*
X60450001Y-38803428D01*
X60450001Y-38803428D02*
X60664287Y-38803428D01*
X60664287Y-38803428D02*
X60807144Y-38732000D01*
X60164287Y-38232000D02*
X60307144Y-38303428D01*
X60307144Y-38303428D02*
X60592858Y-38303428D01*
X60592858Y-38303428D02*
X60735715Y-38232000D01*
X60735715Y-38232000D02*
X60807144Y-38160571D01*
X60807144Y-38160571D02*
X60878572Y-38017714D01*
X60878572Y-38017714D02*
X60878572Y-37589142D01*
X60878572Y-37589142D02*
X60807144Y-37446285D01*
X60807144Y-37446285D02*
X60735715Y-37374857D01*
X60735715Y-37374857D02*
X60592858Y-37303428D01*
X60592858Y-37303428D02*
X60307144Y-37303428D01*
X60307144Y-37303428D02*
X60164287Y-37374857D01*
X59450001Y-38303428D02*
X59450001Y-37303428D01*
X59450001Y-36803428D02*
X59521429Y-36874857D01*
X59521429Y-36874857D02*
X59450001Y-36946285D01*
X59450001Y-36946285D02*
X59378572Y-36874857D01*
X59378572Y-36874857D02*
X59450001Y-36803428D01*
X59450001Y-36803428D02*
X59450001Y-36946285D01*
X58950000Y-37303428D02*
X58378572Y-37303428D01*
X58735715Y-36803428D02*
X58735715Y-38089142D01*
X58735715Y-38089142D02*
X58664286Y-38232000D01*
X58664286Y-38232000D02*
X58521429Y-38303428D01*
X58521429Y-38303428D02*
X58378572Y-38303428D01*
X57878572Y-38303428D02*
X57878572Y-36803428D01*
X57235715Y-38303428D02*
X57235715Y-37517714D01*
X57235715Y-37517714D02*
X57307143Y-37374857D01*
X57307143Y-37374857D02*
X57450000Y-37303428D01*
X57450000Y-37303428D02*
X57664286Y-37303428D01*
X57664286Y-37303428D02*
X57807143Y-37374857D01*
X57807143Y-37374857D02*
X57878572Y-37446285D01*
X55878572Y-37303428D02*
X55878572Y-38303428D01*
X56521429Y-37303428D02*
X56521429Y-38089142D01*
X56521429Y-38089142D02*
X56450000Y-38232000D01*
X56450000Y-38232000D02*
X56307143Y-38303428D01*
X56307143Y-38303428D02*
X56092857Y-38303428D01*
X56092857Y-38303428D02*
X55950000Y-38232000D01*
X55950000Y-38232000D02*
X55878572Y-38160571D01*
X55164286Y-38303428D02*
X55164286Y-36803428D01*
X55164286Y-37374857D02*
X55021429Y-37303428D01*
X55021429Y-37303428D02*
X54735714Y-37303428D01*
X54735714Y-37303428D02*
X54592857Y-37374857D01*
X54592857Y-37374857D02*
X54521429Y-37446285D01*
X54521429Y-37446285D02*
X54450000Y-37589142D01*
X54450000Y-37589142D02*
X54450000Y-38017714D01*
X54450000Y-38017714D02*
X54521429Y-38160571D01*
X54521429Y-38160571D02*
X54592857Y-38232000D01*
X54592857Y-38232000D02*
X54735714Y-38303428D01*
X54735714Y-38303428D02*
X55021429Y-38303428D01*
X55021429Y-38303428D02*
X55164286Y-38232000D01*
X53807143Y-38160571D02*
X53735714Y-38232000D01*
X53735714Y-38232000D02*
X53807143Y-38303428D01*
X53807143Y-38303428D02*
X53878571Y-38232000D01*
X53878571Y-38232000D02*
X53807143Y-38160571D01*
X53807143Y-38160571D02*
X53807143Y-38303428D01*
X52450000Y-38232000D02*
X52592857Y-38303428D01*
X52592857Y-38303428D02*
X52878571Y-38303428D01*
X52878571Y-38303428D02*
X53021428Y-38232000D01*
X53021428Y-38232000D02*
X53092857Y-38160571D01*
X53092857Y-38160571D02*
X53164285Y-38017714D01*
X53164285Y-38017714D02*
X53164285Y-37589142D01*
X53164285Y-37589142D02*
X53092857Y-37446285D01*
X53092857Y-37446285D02*
X53021428Y-37374857D01*
X53021428Y-37374857D02*
X52878571Y-37303428D01*
X52878571Y-37303428D02*
X52592857Y-37303428D01*
X52592857Y-37303428D02*
X52450000Y-37374857D01*
X51592857Y-38303428D02*
X51735714Y-38232000D01*
X51735714Y-38232000D02*
X51807143Y-38160571D01*
X51807143Y-38160571D02*
X51878571Y-38017714D01*
X51878571Y-38017714D02*
X51878571Y-37589142D01*
X51878571Y-37589142D02*
X51807143Y-37446285D01*
X51807143Y-37446285D02*
X51735714Y-37374857D01*
X51735714Y-37374857D02*
X51592857Y-37303428D01*
X51592857Y-37303428D02*
X51378571Y-37303428D01*
X51378571Y-37303428D02*
X51235714Y-37374857D01*
X51235714Y-37374857D02*
X51164286Y-37446285D01*
X51164286Y-37446285D02*
X51092857Y-37589142D01*
X51092857Y-37589142D02*
X51092857Y-38017714D01*
X51092857Y-38017714D02*
X51164286Y-38160571D01*
X51164286Y-38160571D02*
X51235714Y-38232000D01*
X51235714Y-38232000D02*
X51378571Y-38303428D01*
X51378571Y-38303428D02*
X51592857Y-38303428D01*
X50450000Y-38303428D02*
X50450000Y-37303428D01*
X50450000Y-37446285D02*
X50378571Y-37374857D01*
X50378571Y-37374857D02*
X50235714Y-37303428D01*
X50235714Y-37303428D02*
X50021428Y-37303428D01*
X50021428Y-37303428D02*
X49878571Y-37374857D01*
X49878571Y-37374857D02*
X49807143Y-37517714D01*
X49807143Y-37517714D02*
X49807143Y-38303428D01*
X49807143Y-37517714D02*
X49735714Y-37374857D01*
X49735714Y-37374857D02*
X49592857Y-37303428D01*
X49592857Y-37303428D02*
X49378571Y-37303428D01*
X49378571Y-37303428D02*
X49235714Y-37374857D01*
X49235714Y-37374857D02*
X49164285Y-37517714D01*
X49164285Y-37517714D02*
X49164285Y-38303428D01*
X47378571Y-36732000D02*
X48664285Y-38660571D01*
X46235714Y-38303428D02*
X46235714Y-37517714D01*
X46235714Y-37517714D02*
X46307142Y-37374857D01*
X46307142Y-37374857D02*
X46449999Y-37303428D01*
X46449999Y-37303428D02*
X46735714Y-37303428D01*
X46735714Y-37303428D02*
X46878571Y-37374857D01*
X46235714Y-38232000D02*
X46378571Y-38303428D01*
X46378571Y-38303428D02*
X46735714Y-38303428D01*
X46735714Y-38303428D02*
X46878571Y-38232000D01*
X46878571Y-38232000D02*
X46949999Y-38089142D01*
X46949999Y-38089142D02*
X46949999Y-37946285D01*
X46949999Y-37946285D02*
X46878571Y-37803428D01*
X46878571Y-37803428D02*
X46735714Y-37732000D01*
X46735714Y-37732000D02*
X46378571Y-37732000D01*
X46378571Y-37732000D02*
X46235714Y-37660571D01*
X45521428Y-38303428D02*
X45521428Y-36803428D01*
X45378571Y-37732000D02*
X44949999Y-38303428D01*
X44949999Y-37303428D02*
X45521428Y-37874857D01*
X43664285Y-37303428D02*
X43664285Y-38303428D01*
X44307142Y-37303428D02*
X44307142Y-38089142D01*
X44307142Y-38089142D02*
X44235713Y-38232000D01*
X44235713Y-38232000D02*
X44092856Y-38303428D01*
X44092856Y-38303428D02*
X43878570Y-38303428D01*
X43878570Y-38303428D02*
X43735713Y-38232000D01*
X43735713Y-38232000D02*
X43664285Y-38160571D01*
X42949999Y-38303428D02*
X42949999Y-36803428D01*
X42807142Y-37732000D02*
X42378570Y-38303428D01*
X42378570Y-37303428D02*
X42949999Y-37874857D01*
X41164284Y-38232000D02*
X41307141Y-38303428D01*
X41307141Y-38303428D02*
X41592856Y-38303428D01*
X41592856Y-38303428D02*
X41735713Y-38232000D01*
X41735713Y-38232000D02*
X41807141Y-38089142D01*
X41807141Y-38089142D02*
X41807141Y-37517714D01*
X41807141Y-37517714D02*
X41735713Y-37374857D01*
X41735713Y-37374857D02*
X41592856Y-37303428D01*
X41592856Y-37303428D02*
X41307141Y-37303428D01*
X41307141Y-37303428D02*
X41164284Y-37374857D01*
X41164284Y-37374857D02*
X41092856Y-37517714D01*
X41092856Y-37517714D02*
X41092856Y-37660571D01*
X41092856Y-37660571D02*
X41807141Y-37803428D01*
X40449999Y-38303428D02*
X40449999Y-37303428D01*
X40449999Y-37589142D02*
X40378570Y-37446285D01*
X40378570Y-37446285D02*
X40307142Y-37374857D01*
X40307142Y-37374857D02*
X40164284Y-37303428D01*
X40164284Y-37303428D02*
X40021427Y-37303428D01*
X38449999Y-36732000D02*
X39735713Y-38660571D01*
X37949999Y-38303428D02*
X37949999Y-36803428D01*
X37307142Y-38303428D02*
X37307142Y-37517714D01*
X37307142Y-37517714D02*
X37378570Y-37374857D01*
X37378570Y-37374857D02*
X37521427Y-37303428D01*
X37521427Y-37303428D02*
X37735713Y-37303428D01*
X37735713Y-37303428D02*
X37878570Y-37374857D01*
X37878570Y-37374857D02*
X37949999Y-37446285D01*
X36735713Y-37303428D02*
X36449999Y-38303428D01*
X36449999Y-38303428D02*
X36164284Y-37589142D01*
X36164284Y-37589142D02*
X35878570Y-38303428D01*
X35878570Y-38303428D02*
X35592856Y-37303428D01*
X35378570Y-38446285D02*
X34235712Y-38446285D01*
X33878570Y-37303428D02*
X33878570Y-38803428D01*
X33878570Y-37374857D02*
X33735713Y-37303428D01*
X33735713Y-37303428D02*
X33449998Y-37303428D01*
X33449998Y-37303428D02*
X33307141Y-37374857D01*
X33307141Y-37374857D02*
X33235713Y-37446285D01*
X33235713Y-37446285D02*
X33164284Y-37589142D01*
X33164284Y-37589142D02*
X33164284Y-38017714D01*
X33164284Y-38017714D02*
X33235713Y-38160571D01*
X33235713Y-38160571D02*
X33307141Y-38232000D01*
X33307141Y-38232000D02*
X33449998Y-38303428D01*
X33449998Y-38303428D02*
X33735713Y-38303428D01*
X33735713Y-38303428D02*
X33878570Y-38232000D01*
X32521427Y-38303428D02*
X32521427Y-37303428D01*
X32521427Y-37589142D02*
X32449998Y-37446285D01*
X32449998Y-37446285D02*
X32378570Y-37374857D01*
X32378570Y-37374857D02*
X32235712Y-37303428D01*
X32235712Y-37303428D02*
X32092855Y-37303428D01*
X31378570Y-38303428D02*
X31521427Y-38232000D01*
X31521427Y-38232000D02*
X31592856Y-38160571D01*
X31592856Y-38160571D02*
X31664284Y-38017714D01*
X31664284Y-38017714D02*
X31664284Y-37589142D01*
X31664284Y-37589142D02*
X31592856Y-37446285D01*
X31592856Y-37446285D02*
X31521427Y-37374857D01*
X31521427Y-37374857D02*
X31378570Y-37303428D01*
X31378570Y-37303428D02*
X31164284Y-37303428D01*
X31164284Y-37303428D02*
X31021427Y-37374857D01*
X31021427Y-37374857D02*
X30949999Y-37446285D01*
X30949999Y-37446285D02*
X30878570Y-37589142D01*
X30878570Y-37589142D02*
X30878570Y-38017714D01*
X30878570Y-38017714D02*
X30949999Y-38160571D01*
X30949999Y-38160571D02*
X31021427Y-38232000D01*
X31021427Y-38232000D02*
X31164284Y-38303428D01*
X31164284Y-38303428D02*
X31378570Y-38303428D01*
X30235713Y-37303428D02*
X30235713Y-38589142D01*
X30235713Y-38589142D02*
X30307141Y-38732000D01*
X30307141Y-38732000D02*
X30449998Y-38803428D01*
X30449998Y-38803428D02*
X30521427Y-38803428D01*
X30235713Y-36803428D02*
X30307141Y-36874857D01*
X30307141Y-36874857D02*
X30235713Y-36946285D01*
X30235713Y-36946285D02*
X30164284Y-36874857D01*
X30164284Y-36874857D02*
X30235713Y-36803428D01*
X30235713Y-36803428D02*
X30235713Y-36946285D01*
X28949998Y-38232000D02*
X29092855Y-38303428D01*
X29092855Y-38303428D02*
X29378570Y-38303428D01*
X29378570Y-38303428D02*
X29521427Y-38232000D01*
X29521427Y-38232000D02*
X29592855Y-38089142D01*
X29592855Y-38089142D02*
X29592855Y-37517714D01*
X29592855Y-37517714D02*
X29521427Y-37374857D01*
X29521427Y-37374857D02*
X29378570Y-37303428D01*
X29378570Y-37303428D02*
X29092855Y-37303428D01*
X29092855Y-37303428D02*
X28949998Y-37374857D01*
X28949998Y-37374857D02*
X28878570Y-37517714D01*
X28878570Y-37517714D02*
X28878570Y-37660571D01*
X28878570Y-37660571D02*
X29592855Y-37803428D01*
X27592856Y-38232000D02*
X27735713Y-38303428D01*
X27735713Y-38303428D02*
X28021427Y-38303428D01*
X28021427Y-38303428D02*
X28164284Y-38232000D01*
X28164284Y-38232000D02*
X28235713Y-38160571D01*
X28235713Y-38160571D02*
X28307141Y-38017714D01*
X28307141Y-38017714D02*
X28307141Y-37589142D01*
X28307141Y-37589142D02*
X28235713Y-37446285D01*
X28235713Y-37446285D02*
X28164284Y-37374857D01*
X28164284Y-37374857D02*
X28021427Y-37303428D01*
X28021427Y-37303428D02*
X27735713Y-37303428D01*
X27735713Y-37303428D02*
X27592856Y-37374857D01*
X27164284Y-37303428D02*
X26592856Y-37303428D01*
X26949999Y-36803428D02*
X26949999Y-38089142D01*
X26949999Y-38089142D02*
X26878570Y-38232000D01*
X26878570Y-38232000D02*
X26735713Y-38303428D01*
X26735713Y-38303428D02*
X26592856Y-38303428D01*
X26164284Y-38232000D02*
X26021427Y-38303428D01*
X26021427Y-38303428D02*
X25735713Y-38303428D01*
X25735713Y-38303428D02*
X25592856Y-38232000D01*
X25592856Y-38232000D02*
X25521427Y-38089142D01*
X25521427Y-38089142D02*
X25521427Y-38017714D01*
X25521427Y-38017714D02*
X25592856Y-37874857D01*
X25592856Y-37874857D02*
X25735713Y-37803428D01*
X25735713Y-37803428D02*
X25949999Y-37803428D01*
X25949999Y-37803428D02*
X26092856Y-37732000D01*
X26092856Y-37732000D02*
X26164284Y-37589142D01*
X26164284Y-37589142D02*
X26164284Y-37517714D01*
X26164284Y-37517714D02*
X26092856Y-37374857D01*
X26092856Y-37374857D02*
X25949999Y-37303428D01*
X25949999Y-37303428D02*
X25735713Y-37303428D01*
X25735713Y-37303428D02*
X25592856Y-37374857D01*
D10*
X23700000Y-25500000D02*
X62700000Y-25500000D01*
X62700000Y-40000000D01*
X23700000Y-40000000D01*
X23700000Y-25500000D01*
X24200000Y-26000000D02*
X62200000Y-26000000D01*
X62200000Y-39500000D01*
X24200000Y-39500000D01*
X24200000Y-26000000D01*
X24700000Y-26500000D02*
X61700000Y-26500000D01*
X61700000Y-39000000D01*
X24700000Y-39000000D01*
X24700000Y-26500000D01*
D12*
X57204819Y-64940476D02*
X57919104Y-64940476D01*
X57919104Y-64940476D02*
X58061961Y-64892857D01*
X58061961Y-64892857D02*
X58157200Y-64797619D01*
X58157200Y-64797619D02*
X58204819Y-64654762D01*
X58204819Y-64654762D02*
X58204819Y-64559524D01*
X58204819Y-65940476D02*
X58204819Y-65369048D01*
X58204819Y-65654762D02*
X57204819Y-65654762D01*
X57204819Y-65654762D02*
X57347676Y-65559524D01*
X57347676Y-65559524D02*
X57442914Y-65464286D01*
X57442914Y-65464286D02*
X57490533Y-65369048D01*
X57204819Y-66273810D02*
X57204819Y-66892857D01*
X57204819Y-66892857D02*
X57585771Y-66559524D01*
X57585771Y-66559524D02*
X57585771Y-66702381D01*
X57585771Y-66702381D02*
X57633390Y-66797619D01*
X57633390Y-66797619D02*
X57681009Y-66845238D01*
X57681009Y-66845238D02*
X57776247Y-66892857D01*
X57776247Y-66892857D02*
X58014342Y-66892857D01*
X58014342Y-66892857D02*
X58109580Y-66845238D01*
X58109580Y-66845238D02*
X58157200Y-66797619D01*
X58157200Y-66797619D02*
X58204819Y-66702381D01*
X58204819Y-66702381D02*
X58204819Y-66416667D01*
X58204819Y-66416667D02*
X58157200Y-66321429D01*
X58157200Y-66321429D02*
X58109580Y-66273810D01*
X61704819Y-18340476D02*
X62419104Y-18340476D01*
X62419104Y-18340476D02*
X62561961Y-18292857D01*
X62561961Y-18292857D02*
X62657200Y-18197619D01*
X62657200Y-18197619D02*
X62704819Y-18054762D01*
X62704819Y-18054762D02*
X62704819Y-17959524D01*
X62704819Y-19340476D02*
X62704819Y-18769048D01*
X62704819Y-19054762D02*
X61704819Y-19054762D01*
X61704819Y-19054762D02*
X61847676Y-18959524D01*
X61847676Y-18959524D02*
X61942914Y-18864286D01*
X61942914Y-18864286D02*
X61990533Y-18769048D01*
X61800057Y-19721429D02*
X61752438Y-19769048D01*
X61752438Y-19769048D02*
X61704819Y-19864286D01*
X61704819Y-19864286D02*
X61704819Y-20102381D01*
X61704819Y-20102381D02*
X61752438Y-20197619D01*
X61752438Y-20197619D02*
X61800057Y-20245238D01*
X61800057Y-20245238D02*
X61895295Y-20292857D01*
X61895295Y-20292857D02*
X61990533Y-20292857D01*
X61990533Y-20292857D02*
X62133390Y-20245238D01*
X62133390Y-20245238D02*
X62704819Y-19673810D01*
X62704819Y-19673810D02*
X62704819Y-20292857D01*
X27204819Y-64940476D02*
X27919104Y-64940476D01*
X27919104Y-64940476D02*
X28061961Y-64892857D01*
X28061961Y-64892857D02*
X28157200Y-64797619D01*
X28157200Y-64797619D02*
X28204819Y-64654762D01*
X28204819Y-64654762D02*
X28204819Y-64559524D01*
X28204819Y-65940476D02*
X28204819Y-65369048D01*
X28204819Y-65654762D02*
X27204819Y-65654762D01*
X27204819Y-65654762D02*
X27347676Y-65559524D01*
X27347676Y-65559524D02*
X27442914Y-65464286D01*
X27442914Y-65464286D02*
X27490533Y-65369048D01*
X28204819Y-66892857D02*
X28204819Y-66321429D01*
X28204819Y-66607143D02*
X27204819Y-66607143D01*
X27204819Y-66607143D02*
X27347676Y-66511905D01*
X27347676Y-66511905D02*
X27442914Y-66416667D01*
X27442914Y-66416667D02*
X27490533Y-66321429D01*
X31704819Y-18340476D02*
X32419104Y-18340476D01*
X32419104Y-18340476D02*
X32561961Y-18292857D01*
X32561961Y-18292857D02*
X32657200Y-18197619D01*
X32657200Y-18197619D02*
X32704819Y-18054762D01*
X32704819Y-18054762D02*
X32704819Y-17959524D01*
X32704819Y-19340476D02*
X32704819Y-18769048D01*
X32704819Y-19054762D02*
X31704819Y-19054762D01*
X31704819Y-19054762D02*
X31847676Y-18959524D01*
X31847676Y-18959524D02*
X31942914Y-18864286D01*
X31942914Y-18864286D02*
X31990533Y-18769048D01*
X31704819Y-19959524D02*
X31704819Y-20054762D01*
X31704819Y-20054762D02*
X31752438Y-20150000D01*
X31752438Y-20150000D02*
X31800057Y-20197619D01*
X31800057Y-20197619D02*
X31895295Y-20245238D01*
X31895295Y-20245238D02*
X32085771Y-20292857D01*
X32085771Y-20292857D02*
X32323866Y-20292857D01*
X32323866Y-20292857D02*
X32514342Y-20245238D01*
X32514342Y-20245238D02*
X32609580Y-20197619D01*
X32609580Y-20197619D02*
X32657200Y-20150000D01*
X32657200Y-20150000D02*
X32704819Y-20054762D01*
X32704819Y-20054762D02*
X32704819Y-19959524D01*
X32704819Y-19959524D02*
X32657200Y-19864286D01*
X32657200Y-19864286D02*
X32609580Y-19816667D01*
X32609580Y-19816667D02*
X32514342Y-19769048D01*
X32514342Y-19769048D02*
X32323866Y-19721429D01*
X32323866Y-19721429D02*
X32085771Y-19721429D01*
X32085771Y-19721429D02*
X31895295Y-19769048D01*
X31895295Y-19769048D02*
X31800057Y-19816667D01*
X31800057Y-19816667D02*
X31752438Y-19864286D01*
X31752438Y-19864286D02*
X31704819Y-19959524D01*
X66820833Y-59704819D02*
X66820833Y-60419104D01*
X66820833Y-60419104D02*
X66868452Y-60561961D01*
X66868452Y-60561961D02*
X66963690Y-60657200D01*
X66963690Y-60657200D02*
X67106547Y-60704819D01*
X67106547Y-60704819D02*
X67201785Y-60704819D01*
X66297023Y-60704819D02*
X66106547Y-60704819D01*
X66106547Y-60704819D02*
X66011309Y-60657200D01*
X66011309Y-60657200D02*
X65963690Y-60609580D01*
X65963690Y-60609580D02*
X65868452Y-60466723D01*
X65868452Y-60466723D02*
X65820833Y-60276247D01*
X65820833Y-60276247D02*
X65820833Y-59895295D01*
X65820833Y-59895295D02*
X65868452Y-59800057D01*
X65868452Y-59800057D02*
X65916071Y-59752438D01*
X65916071Y-59752438D02*
X66011309Y-59704819D01*
X66011309Y-59704819D02*
X66201785Y-59704819D01*
X66201785Y-59704819D02*
X66297023Y-59752438D01*
X66297023Y-59752438D02*
X66344642Y-59800057D01*
X66344642Y-59800057D02*
X66392261Y-59895295D01*
X66392261Y-59895295D02*
X66392261Y-60133390D01*
X66392261Y-60133390D02*
X66344642Y-60228628D01*
X66344642Y-60228628D02*
X66297023Y-60276247D01*
X66297023Y-60276247D02*
X66201785Y-60323866D01*
X66201785Y-60323866D02*
X66011309Y-60323866D01*
X66011309Y-60323866D02*
X65916071Y-60276247D01*
X65916071Y-60276247D02*
X65868452Y-60228628D01*
X65868452Y-60228628D02*
X65820833Y-60133390D01*
X23583333Y-35704819D02*
X23583333Y-36419104D01*
X23583333Y-36419104D02*
X23630952Y-36561961D01*
X23630952Y-36561961D02*
X23726190Y-36657200D01*
X23726190Y-36657200D02*
X23869047Y-36704819D01*
X23869047Y-36704819D02*
X23964285Y-36704819D01*
X22964285Y-36133390D02*
X23059523Y-36085771D01*
X23059523Y-36085771D02*
X23107142Y-36038152D01*
X23107142Y-36038152D02*
X23154761Y-35942914D01*
X23154761Y-35942914D02*
X23154761Y-35895295D01*
X23154761Y-35895295D02*
X23107142Y-35800057D01*
X23107142Y-35800057D02*
X23059523Y-35752438D01*
X23059523Y-35752438D02*
X22964285Y-35704819D01*
X22964285Y-35704819D02*
X22773809Y-35704819D01*
X22773809Y-35704819D02*
X22678571Y-35752438D01*
X22678571Y-35752438D02*
X22630952Y-35800057D01*
X22630952Y-35800057D02*
X22583333Y-35895295D01*
X22583333Y-35895295D02*
X22583333Y-35942914D01*
X22583333Y-35942914D02*
X22630952Y-36038152D01*
X22630952Y-36038152D02*
X22678571Y-36085771D01*
X22678571Y-36085771D02*
X22773809Y-36133390D01*
X22773809Y-36133390D02*
X22964285Y-36133390D01*
X22964285Y-36133390D02*
X23059523Y-36181009D01*
X23059523Y-36181009D02*
X23107142Y-36228628D01*
X23107142Y-36228628D02*
X23154761Y-36323866D01*
X23154761Y-36323866D02*
X23154761Y-36514342D01*
X23154761Y-36514342D02*
X23107142Y-36609580D01*
X23107142Y-36609580D02*
X23059523Y-36657200D01*
X23059523Y-36657200D02*
X22964285Y-36704819D01*
X22964285Y-36704819D02*
X22773809Y-36704819D01*
X22773809Y-36704819D02*
X22678571Y-36657200D01*
X22678571Y-36657200D02*
X22630952Y-36609580D01*
X22630952Y-36609580D02*
X22583333Y-36514342D01*
X22583333Y-36514342D02*
X22583333Y-36323866D01*
X22583333Y-36323866D02*
X22630952Y-36228628D01*
X22630952Y-36228628D02*
X22678571Y-36181009D01*
X22678571Y-36181009D02*
X22773809Y-36133390D01*
X66820833Y-29704819D02*
X66820833Y-30419104D01*
X66820833Y-30419104D02*
X66868452Y-30561961D01*
X66868452Y-30561961D02*
X66963690Y-30657200D01*
X66963690Y-30657200D02*
X67106547Y-30704819D01*
X67106547Y-30704819D02*
X67201785Y-30704819D01*
X66439880Y-29704819D02*
X65773214Y-29704819D01*
X65773214Y-29704819D02*
X66201785Y-30704819D01*
X20383333Y-25204819D02*
X20383333Y-25919104D01*
X20383333Y-25919104D02*
X20430952Y-26061961D01*
X20430952Y-26061961D02*
X20526190Y-26157200D01*
X20526190Y-26157200D02*
X20669047Y-26204819D01*
X20669047Y-26204819D02*
X20764285Y-26204819D01*
X19478571Y-25204819D02*
X19669047Y-25204819D01*
X19669047Y-25204819D02*
X19764285Y-25252438D01*
X19764285Y-25252438D02*
X19811904Y-25300057D01*
X19811904Y-25300057D02*
X19907142Y-25442914D01*
X19907142Y-25442914D02*
X19954761Y-25633390D01*
X19954761Y-25633390D02*
X19954761Y-26014342D01*
X19954761Y-26014342D02*
X19907142Y-26109580D01*
X19907142Y-26109580D02*
X19859523Y-26157200D01*
X19859523Y-26157200D02*
X19764285Y-26204819D01*
X19764285Y-26204819D02*
X19573809Y-26204819D01*
X19573809Y-26204819D02*
X19478571Y-26157200D01*
X19478571Y-26157200D02*
X19430952Y-26109580D01*
X19430952Y-26109580D02*
X19383333Y-26014342D01*
X19383333Y-26014342D02*
X19383333Y-25776247D01*
X19383333Y-25776247D02*
X19430952Y-25681009D01*
X19430952Y-25681009D02*
X19478571Y-25633390D01*
X19478571Y-25633390D02*
X19573809Y-25585771D01*
X19573809Y-25585771D02*
X19764285Y-25585771D01*
X19764285Y-25585771D02*
X19859523Y-25633390D01*
X19859523Y-25633390D02*
X19907142Y-25681009D01*
X19907142Y-25681009D02*
X19954761Y-25776247D01*
X66820833Y-44504819D02*
X66820833Y-45219104D01*
X66820833Y-45219104D02*
X66868452Y-45361961D01*
X66868452Y-45361961D02*
X66963690Y-45457200D01*
X66963690Y-45457200D02*
X67106547Y-45504819D01*
X67106547Y-45504819D02*
X67201785Y-45504819D01*
X65868452Y-44504819D02*
X66344642Y-44504819D01*
X66344642Y-44504819D02*
X66392261Y-44981009D01*
X66392261Y-44981009D02*
X66344642Y-44933390D01*
X66344642Y-44933390D02*
X66249404Y-44885771D01*
X66249404Y-44885771D02*
X66011309Y-44885771D01*
X66011309Y-44885771D02*
X65916071Y-44933390D01*
X65916071Y-44933390D02*
X65868452Y-44981009D01*
X65868452Y-44981009D02*
X65820833Y-45076247D01*
X65820833Y-45076247D02*
X65820833Y-45314342D01*
X65820833Y-45314342D02*
X65868452Y-45409580D01*
X65868452Y-45409580D02*
X65916071Y-45457200D01*
X65916071Y-45457200D02*
X66011309Y-45504819D01*
X66011309Y-45504819D02*
X66249404Y-45504819D01*
X66249404Y-45504819D02*
X66344642Y-45457200D01*
X66344642Y-45457200D02*
X66392261Y-45409580D01*
X20383333Y-40004819D02*
X20383333Y-40719104D01*
X20383333Y-40719104D02*
X20430952Y-40861961D01*
X20430952Y-40861961D02*
X20526190Y-40957200D01*
X20526190Y-40957200D02*
X20669047Y-41004819D01*
X20669047Y-41004819D02*
X20764285Y-41004819D01*
X19478571Y-40338152D02*
X19478571Y-41004819D01*
X19716666Y-39957200D02*
X19954761Y-40671485D01*
X19954761Y-40671485D02*
X19335714Y-40671485D01*
D10*
X43033333Y-39218633D02*
X43033333Y-39718633D01*
X43033333Y-39718633D02*
X43066666Y-39818633D01*
X43066666Y-39818633D02*
X43133333Y-39885300D01*
X43133333Y-39885300D02*
X43233333Y-39918633D01*
X43233333Y-39918633D02*
X43300000Y-39918633D01*
X42766667Y-39218633D02*
X42333333Y-39218633D01*
X42333333Y-39218633D02*
X42566667Y-39485300D01*
X42566667Y-39485300D02*
X42466667Y-39485300D01*
X42466667Y-39485300D02*
X42400000Y-39518633D01*
X42400000Y-39518633D02*
X42366667Y-39551966D01*
X42366667Y-39551966D02*
X42333333Y-39618633D01*
X42333333Y-39618633D02*
X42333333Y-39785300D01*
X42333333Y-39785300D02*
X42366667Y-39851966D01*
X42366667Y-39851966D02*
X42400000Y-39885300D01*
X42400000Y-39885300D02*
X42466667Y-39918633D01*
X42466667Y-39918633D02*
X42666667Y-39918633D01*
X42666667Y-39918633D02*
X42733333Y-39885300D01*
X42733333Y-39885300D02*
X42766667Y-39851966D01*
X63658333Y-59218633D02*
X63658333Y-59718633D01*
X63658333Y-59718633D02*
X63691666Y-59818633D01*
X63691666Y-59818633D02*
X63758333Y-59885300D01*
X63758333Y-59885300D02*
X63858333Y-59918633D01*
X63858333Y-59918633D02*
X63925000Y-59918633D01*
X63358333Y-59285300D02*
X63325000Y-59251966D01*
X63325000Y-59251966D02*
X63258333Y-59218633D01*
X63258333Y-59218633D02*
X63091667Y-59218633D01*
X63091667Y-59218633D02*
X63025000Y-59251966D01*
X63025000Y-59251966D02*
X62991667Y-59285300D01*
X62991667Y-59285300D02*
X62958333Y-59351966D01*
X62958333Y-59351966D02*
X62958333Y-59418633D01*
X62958333Y-59418633D02*
X62991667Y-59518633D01*
X62991667Y-59518633D02*
X63391667Y-59918633D01*
X63391667Y-59918633D02*
X62958333Y-59918633D01*
X22658333Y-19218633D02*
X22658333Y-19718633D01*
X22658333Y-19718633D02*
X22691666Y-19818633D01*
X22691666Y-19818633D02*
X22758333Y-19885300D01*
X22758333Y-19885300D02*
X22858333Y-19918633D01*
X22858333Y-19918633D02*
X22925000Y-19918633D01*
X21958333Y-19918633D02*
X22358333Y-19918633D01*
X22158333Y-19918633D02*
X22158333Y-19218633D01*
X22158333Y-19218633D02*
X22225000Y-19318633D01*
X22225000Y-19318633D02*
X22291667Y-19385300D01*
X22291667Y-19385300D02*
X22358333Y-19418633D01*
D13*
%TO.C,J13*%
X58300000Y-68050000D02*
X58300000Y-66650000D01*
%TO.C,J12*%
X61700000Y-16850000D02*
X61700000Y-18250000D01*
%TO.C,J11*%
X28300000Y-68050000D02*
X28300000Y-66650000D01*
%TO.C,J10*%
X31700000Y-16850000D02*
X31700000Y-18250000D01*
%TO.C,J9*%
X68787500Y-59700000D02*
X67387500Y-59700000D01*
%TO.C,J8*%
X17750000Y-56300000D02*
X19150000Y-56300000D01*
%TO.C,J7*%
X68787500Y-29700000D02*
X67387500Y-29700000D01*
%TO.C,J6*%
X17750000Y-26300000D02*
X19150000Y-26300000D01*
%TO.C,J5*%
X68787500Y-44500000D02*
X67387500Y-44500000D01*
%TO.C,J4*%
X17750000Y-41100000D02*
X19150000Y-41100000D01*
%TO.C,J3*%
X47160000Y-41640000D02*
X47160000Y-40390000D01*
X46860000Y-45410000D02*
X46860000Y-40690000D01*
X46250000Y-42000000D02*
X46860000Y-42000000D01*
X46250000Y-43300000D02*
X46860000Y-43300000D01*
X38740000Y-45410000D02*
X46860000Y-45410000D01*
X46250000Y-44800000D02*
X46250000Y-41300000D01*
X39350000Y-44800000D02*
X46250000Y-44800000D01*
X47160000Y-40390000D02*
X45910000Y-40390000D01*
X45400000Y-40690000D02*
X45400000Y-40490000D01*
X45400000Y-40490000D02*
X45100000Y-40490000D01*
X45400000Y-40590000D02*
X45100000Y-40590000D01*
X45100000Y-40490000D02*
X45100000Y-40690000D01*
X44300000Y-41300000D02*
X44300000Y-40690000D01*
X46250000Y-41300000D02*
X44300000Y-41300000D01*
X43700000Y-44300000D02*
X43900000Y-44300000D01*
X43900000Y-44300000D02*
X43900000Y-44800000D01*
X43800000Y-44300000D02*
X43800000Y-44800000D01*
X43700000Y-44800000D02*
X43700000Y-44300000D01*
X41700000Y-44300000D02*
X41900000Y-44300000D01*
X41900000Y-44300000D02*
X41900000Y-44800000D01*
X41800000Y-44300000D02*
X41800000Y-44800000D01*
X41700000Y-44800000D02*
X41700000Y-44300000D01*
X41300000Y-40690000D02*
X41300000Y-41300000D01*
X41300000Y-41300000D02*
X39350000Y-41300000D01*
X39350000Y-41300000D02*
X39350000Y-44800000D01*
X46860000Y-40690000D02*
X38740000Y-40690000D01*
X39350000Y-42000000D02*
X38740000Y-42000000D01*
X39350000Y-43300000D02*
X38740000Y-43300000D01*
X38740000Y-40690000D02*
X38740000Y-45410000D01*
%TO.C,J2*%
X67785000Y-61640000D02*
X67785000Y-60390000D01*
X67485000Y-65410000D02*
X67485000Y-60690000D01*
X66875000Y-62000000D02*
X67485000Y-62000000D01*
X66875000Y-63300000D02*
X67485000Y-63300000D01*
X59365000Y-65410000D02*
X67485000Y-65410000D01*
X66875000Y-64800000D02*
X66875000Y-61300000D01*
X59975000Y-64800000D02*
X66875000Y-64800000D01*
X67785000Y-60390000D02*
X66535000Y-60390000D01*
X66025000Y-60690000D02*
X66025000Y-60490000D01*
X66025000Y-60490000D02*
X65725000Y-60490000D01*
X66025000Y-60590000D02*
X65725000Y-60590000D01*
X65725000Y-60490000D02*
X65725000Y-60690000D01*
X64925000Y-61300000D02*
X64925000Y-60690000D01*
X66875000Y-61300000D02*
X64925000Y-61300000D01*
X64325000Y-64300000D02*
X64525000Y-64300000D01*
X64525000Y-64300000D02*
X64525000Y-64800000D01*
X64425000Y-64300000D02*
X64425000Y-64800000D01*
X64325000Y-64800000D02*
X64325000Y-64300000D01*
X62325000Y-64300000D02*
X62525000Y-64300000D01*
X62525000Y-64300000D02*
X62525000Y-64800000D01*
X62425000Y-64300000D02*
X62425000Y-64800000D01*
X62325000Y-64800000D02*
X62325000Y-64300000D01*
X61925000Y-60690000D02*
X61925000Y-61300000D01*
X61925000Y-61300000D02*
X59975000Y-61300000D01*
X59975000Y-61300000D02*
X59975000Y-64800000D01*
X67485000Y-60690000D02*
X59365000Y-60690000D01*
X59975000Y-62000000D02*
X59365000Y-62000000D01*
X59975000Y-63300000D02*
X59365000Y-63300000D01*
X59365000Y-60690000D02*
X59365000Y-65410000D01*
%TO.C,J1*%
X26785000Y-21640000D02*
X26785000Y-20390000D01*
X26485000Y-25410000D02*
X26485000Y-20690000D01*
X25875000Y-22000000D02*
X26485000Y-22000000D01*
X25875000Y-23300000D02*
X26485000Y-23300000D01*
X18365000Y-25410000D02*
X26485000Y-25410000D01*
X25875000Y-24800000D02*
X25875000Y-21300000D01*
X18975000Y-24800000D02*
X25875000Y-24800000D01*
X26785000Y-20390000D02*
X25535000Y-20390000D01*
X25025000Y-20690000D02*
X25025000Y-20490000D01*
X25025000Y-20490000D02*
X24725000Y-20490000D01*
X25025000Y-20590000D02*
X24725000Y-20590000D01*
X24725000Y-20490000D02*
X24725000Y-20690000D01*
X23925000Y-21300000D02*
X23925000Y-20690000D01*
X25875000Y-21300000D02*
X23925000Y-21300000D01*
X23325000Y-24300000D02*
X23525000Y-24300000D01*
X23525000Y-24300000D02*
X23525000Y-24800000D01*
X23425000Y-24300000D02*
X23425000Y-24800000D01*
X23325000Y-24800000D02*
X23325000Y-24300000D01*
X21325000Y-24300000D02*
X21525000Y-24300000D01*
X21525000Y-24300000D02*
X21525000Y-24800000D01*
X21425000Y-24300000D02*
X21425000Y-24800000D01*
X21325000Y-24800000D02*
X21325000Y-24300000D01*
X20925000Y-20690000D02*
X20925000Y-21300000D01*
X20925000Y-21300000D02*
X18975000Y-21300000D01*
X18975000Y-21300000D02*
X18975000Y-24800000D01*
X26485000Y-20690000D02*
X18365000Y-20690000D01*
X18975000Y-22000000D02*
X18365000Y-22000000D01*
X18975000Y-23300000D02*
X18365000Y-23300000D01*
X18365000Y-20690000D02*
X18365000Y-25410000D01*
%TD*%
%LPC*%
D14*
%TO.C,J13*%
X58850000Y-66100000D03*
X60000000Y-66100000D03*
X61150000Y-66100000D03*
%TD*%
%TO.C,J12*%
X61150000Y-18800000D03*
X60000000Y-18800000D03*
X58850000Y-18800000D03*
%TD*%
%TO.C,J11*%
X28850000Y-66100000D03*
X30000000Y-66100000D03*
X31150000Y-66100000D03*
%TD*%
%TO.C,J10*%
X31150000Y-18800000D03*
X30000000Y-18800000D03*
X28850000Y-18800000D03*
%TD*%
D15*
%TO.C,J9*%
X66837500Y-59150000D03*
X66837500Y-58000000D03*
X66837500Y-56850000D03*
%TD*%
%TO.C,J8*%
X19700000Y-56850000D03*
X19700000Y-58000000D03*
X19700000Y-59150000D03*
%TD*%
%TO.C,J7*%
X66837500Y-29150000D03*
X66837500Y-28000000D03*
X66837500Y-26850000D03*
%TD*%
%TO.C,J6*%
X19700000Y-26850000D03*
X19700000Y-28000000D03*
X19700000Y-29150000D03*
%TD*%
%TO.C,J5*%
X66837500Y-43950000D03*
X66837500Y-42800000D03*
X66837500Y-41650000D03*
%TD*%
%TO.C,J4*%
X19700000Y-41650000D03*
X19700000Y-42800000D03*
X19700000Y-43950000D03*
%TD*%
D16*
%TO.C,J3*%
X44800000Y-42500000D03*
D17*
X42800000Y-42500000D03*
X40800000Y-42500000D03*
%TD*%
D16*
%TO.C,J2*%
X65425000Y-62500000D03*
D17*
X63425000Y-62500000D03*
X61425000Y-62500000D03*
%TD*%
D16*
%TO.C,J1*%
X24425000Y-22500000D03*
D17*
X22425000Y-22500000D03*
X20425000Y-22500000D03*
%TD*%
%LPD*%
M02*
