M48
; DRILL file {KiCad 8.0.2} date 2024-05-09T20:46:25-0500
; FORMAT={-:-/ absolute / inch / decimal}
; #@! TF.CreationDate,2024-05-09T20:46:25-05:00
; #@! TF.GenerationSoftware,Kicad,Pcbnew,8.0.2
; #@! TF.FileFunction,Plated,1,2,PTH
FMAT,2
INCH
; #@! TA.AperFunction,Plated,PTH,ViaDrill
T1C0.0118
; #@! TA.AperFunction,Plated,PTH,ComponentDrill
T2C0.0374
; #@! TA.AperFunction,Plated,PTH,ComponentDrill
T3C0.0394
; #@! TA.AperFunction,Plated,PTH,ComponentDrill
T4C0.0906
%
G90
G05
T1
X3.7953Y-2.122
X3.811Y-2.0669
X3.9646Y-2.0276
X3.9724Y-2.1417
X4.1063Y-1.9882
X4.1102Y-2.1457
X4.1142Y-2.1811
X4.1339Y-2.311
X4.1417Y-2.1457
X4.1575Y-2.0197
X4.1732Y-2.126
X4.1968Y-2.0879
X4.311Y-2.1339
X4.311Y-2.2047
T2
X3.7205Y-2.0276
X3.7205Y-2.126
X3.7205Y-2.2047
X3.7205Y-2.3031
T3
X3.8976Y-1.9652
X3.8976Y-2.0652
X3.8976Y-2.1652
X3.8976Y-2.2652
X3.8976Y-2.3652
T4
X3.6138Y-1.9067
X3.6138Y-2.424
X4.4213Y-2.1654
T3
G00X4.4252Y-1.9134
M15
G01X4.4724Y-1.9134
M16
G05
G00X4.4252Y-2.4173
M15
G01X4.4724Y-2.4173
M16
G05
M30
