%TF.GenerationSoftware,KiCad,Pcbnew,8.0.2*%
%TF.CreationDate,2024-05-09T20:46:25-05:00*%
%TF.ProjectId,ch554_USB_Host_Test,63683535-345f-4555-9342-5f486f73745f,rev?*%
%TF.SameCoordinates,Original*%
%TF.FileFunction,Copper,L2,Bot*%
%TF.FilePolarity,Positive*%
%FSLAX46Y46*%
G04 Gerber Fmt 4.6, Leading zero omitted, Abs format (unit mm)*
G04 Created by KiCad (PCBNEW 8.0.2) date 2024-05-09 20:46:25*
%MOMM*%
%LPD*%
G01*
G04 APERTURE LIST*
G04 Aperture macros list*
%AMRoundRect*
0 Rectangle with rounded corners*
0 $1 Rounding radius*
0 $2 $3 $4 $5 $6 $7 $8 $9 X,Y pos of 4 corners*
0 Add a 4 corners polygon primitive as box body*
4,1,4,$2,$3,$4,$5,$6,$7,$8,$9,$2,$3,0*
0 Add four circle primitives for the rounded corners*
1,1,$1+$1,$2,$3*
1,1,$1+$1,$4,$5*
1,1,$1+$1,$6,$7*
1,1,$1+$1,$8,$9*
0 Add four rect primitives between the rounded corners*
20,1,$1+$1,$2,$3,$4,$5,0*
20,1,$1+$1,$4,$5,$6,$7,0*
20,1,$1+$1,$6,$7,$8,$9,0*
20,1,$1+$1,$8,$9,$2,$3,0*%
G04 Aperture macros list end*
%TA.AperFunction,SMDPad,CuDef*%
%ADD10RoundRect,0.237500X0.237500X-0.250000X0.237500X0.250000X-0.237500X0.250000X-0.237500X-0.250000X0*%
%TD*%
%TA.AperFunction,SMDPad,CuDef*%
%ADD11RoundRect,0.237500X-0.237500X0.250000X-0.237500X-0.250000X0.237500X-0.250000X0.237500X0.250000X0*%
%TD*%
%TA.AperFunction,ComponentPad*%
%ADD12R,1.500000X1.600000*%
%TD*%
%TA.AperFunction,ComponentPad*%
%ADD13C,1.600000*%
%TD*%
%TA.AperFunction,ComponentPad*%
%ADD14C,3.000000*%
%TD*%
%TA.AperFunction,ComponentPad*%
%ADD15C,3.316000*%
%TD*%
%TA.AperFunction,ComponentPad*%
%ADD16O,3.600000X1.800000*%
%TD*%
%TA.AperFunction,SMDPad,CuDef*%
%ADD17RoundRect,0.237500X-0.287500X-0.237500X0.287500X-0.237500X0.287500X0.237500X-0.287500X0.237500X0*%
%TD*%
%TA.AperFunction,SMDPad,CuDef*%
%ADD18RoundRect,0.237500X0.237500X-0.300000X0.237500X0.300000X-0.237500X0.300000X-0.237500X-0.300000X0*%
%TD*%
%TA.AperFunction,SMDPad,CuDef*%
%ADD19RoundRect,0.237500X-0.237500X0.300000X-0.237500X-0.300000X0.237500X-0.300000X0.237500X0.300000X0*%
%TD*%
%TA.AperFunction,SMDPad,CuDef*%
%ADD20RoundRect,0.075000X0.075000X-0.150000X0.075000X0.150000X-0.075000X0.150000X-0.075000X-0.150000X0*%
%TD*%
%TA.AperFunction,SMDPad,CuDef*%
%ADD21C,1.000000*%
%TD*%
%TA.AperFunction,ComponentPad*%
%ADD22O,1.700000X1.700000*%
%TD*%
%TA.AperFunction,ComponentPad*%
%ADD23R,1.700000X1.700000*%
%TD*%
%TA.AperFunction,SMDPad,CuDef*%
%ADD24RoundRect,0.087500X0.087500X-0.725000X0.087500X0.725000X-0.087500X0.725000X-0.087500X-0.725000X0*%
%TD*%
%TA.AperFunction,ViaPad*%
%ADD25C,0.600000*%
%TD*%
%TA.AperFunction,Conductor*%
%ADD26C,0.200000*%
%TD*%
G04 APERTURE END LIST*
D10*
%TO.P,R3,1*%
%TO.N,Net-(J2-Pin_2)*%
X102000000Y-57712500D03*
%TO.P,R3,2*%
%TO.N,/UDP*%
X102000000Y-55887500D03*
%TD*%
D11*
%TO.P,R2,1*%
%TO.N,Net-(D2-K)*%
X102000000Y-52287500D03*
%TO.P,R2,2*%
%TO.N,/TXD*%
X102000000Y-54112500D03*
%TD*%
D12*
%TO.P,J4,1,VBUS*%
%TO.N,+5V*%
X94500000Y-51500000D03*
D13*
%TO.P,J4,2,D-*%
%TO.N,/UDM*%
X94500000Y-54000000D03*
%TO.P,J4,3,D+*%
%TO.N,/UDP*%
X94500000Y-56000000D03*
%TO.P,J4,4,GND*%
%TO.N,GND*%
X94500000Y-58500000D03*
D14*
%TO.P,J4,5,Shield*%
X91790000Y-48430000D03*
X91790000Y-61570000D03*
%TD*%
D15*
%TO.P,J3,S1*%
%TO.N,GND*%
X112300000Y-55000000D03*
D16*
%TO.P,J3,S2*%
X113000000Y-48600000D03*
%TO.P,J3,S3*%
X113000000Y-61400000D03*
%TD*%
D17*
%TO.P,D2,2,A*%
%TO.N,+5V*%
X108875000Y-46900000D03*
%TO.P,D2,1,K*%
%TO.N,Net-(D2-K)*%
X107125000Y-46900000D03*
%TD*%
D18*
%TO.P,C4,2*%
%TO.N,GND*%
X107500000Y-51137500D03*
%TO.P,C4,1*%
%TO.N,+5V*%
X107500000Y-52862500D03*
%TD*%
D19*
%TO.P,C2,2*%
%TO.N,GND*%
X107500000Y-58862500D03*
%TO.P,C2,1*%
%TO.N,+3.3V*%
X107500000Y-57137500D03*
%TD*%
D20*
%TO.P,U3,1,IO1*%
%TO.N,/UDM*%
X108500000Y-55700000D03*
%TO.P,U3,2,IO2*%
%TO.N,/UDP*%
X108000000Y-55700000D03*
%TO.P,U3,3*%
%TO.N,GND*%
X107500000Y-55700000D03*
%TO.P,U3,4,IO3*%
%TO.N,/ADB_Data*%
X107500000Y-54300000D03*
%TO.P,U3,5*%
%TO.N,+5V*%
X108500000Y-54300000D03*
%TD*%
D21*
%TO.P,TP2,1,1*%
%TO.N,/RST*%
X99000000Y-62615000D03*
%TD*%
D22*
%TO.P,J2,5,Pin_5*%
%TO.N,GND*%
X99000000Y-49915000D03*
%TO.P,J2,4,Pin_4*%
%TO.N,/RXD*%
X99000000Y-52455000D03*
%TO.P,J2,3,Pin_3*%
%TO.N,/TXD*%
X99000000Y-54995000D03*
%TO.P,J2,2,Pin_2*%
%TO.N,Net-(J2-Pin_2)*%
X99000000Y-57535000D03*
D23*
%TO.P,J2,1,Pin_1*%
%TO.N,+3.3V*%
X99000000Y-60075000D03*
%TD*%
D18*
%TO.P,C3,2*%
%TO.N,GND*%
X109000000Y-51137500D03*
%TO.P,C3,1*%
%TO.N,+5V*%
X109000000Y-52862500D03*
%TD*%
D24*
%TO.P,U2,1,P1.4*%
%TO.N,/ADB_Data*%
X105500000Y-57112500D03*
%TO.P,U2,2,P1.5*%
%TO.N,/ADB_PWR_ON*%
X105000000Y-57112500D03*
%TO.P,U2,3,P1.6*%
%TO.N,/RXD*%
X104500000Y-57112500D03*
%TO.P,U2,4,P1.7*%
%TO.N,/TXD*%
X104000000Y-57112500D03*
%TO.P,U2,5,RST*%
%TO.N,/RST*%
X103500000Y-57112500D03*
%TO.P,U2,6,P3.6*%
%TO.N,/UDP*%
X103500000Y-52887500D03*
%TO.P,U2,7,P3.7*%
%TO.N,/UDM*%
X104000000Y-52887500D03*
%TO.P,U2,8,GND*%
%TO.N,GND*%
X104500000Y-52887500D03*
%TO.P,U2,9,VCC*%
%TO.N,+5V*%
X105000000Y-52887500D03*
%TO.P,U2,10,V33*%
%TO.N,+3.3V*%
X105500000Y-52887500D03*
%TD*%
D25*
%TO.N,GND*%
X100700000Y-51500000D03*
X105200000Y-54500000D03*
X104300000Y-50500000D03*
X100900000Y-54400000D03*
X96400000Y-53900000D03*
X96800000Y-52500000D03*
%TO.N,/ADB_Data*%
X106000000Y-53999986D03*
%TO.N,/ADB_PWR_ON*%
X105000000Y-58700000D03*
%TO.N,/UDP*%
X104500000Y-55400000D03*
%TO.N,/UDM*%
X104400000Y-54500000D03*
%TO.N,+5V*%
X105600000Y-51300000D03*
%TO.N,/ADB_Data*%
X106598001Y-53033471D03*
%TO.N,/UDP*%
X109500000Y-56000000D03*
%TO.N,/UDM*%
X109500000Y-54200000D03*
%TD*%
D26*
%TO.N,GND*%
X104500000Y-52887500D02*
X104500000Y-53800000D01*
%TO.N,/ADB_Data*%
X106000000Y-56612500D02*
X106000000Y-53999986D01*
X105500000Y-57112500D02*
X106000000Y-56612500D01*
%TO.N,GND*%
X104500000Y-53800000D02*
X105200000Y-54500000D01*
%TO.N,/ADB_Data*%
X106598001Y-53173002D02*
X107500000Y-54075001D01*
X106598001Y-53033471D02*
X106598001Y-53173002D01*
X107500000Y-54075001D02*
X107500000Y-54300000D01*
%TO.N,+3.3V*%
X106650000Y-56287500D02*
X106650000Y-53830761D01*
X105706739Y-52887500D02*
X105500000Y-52887500D01*
X106650000Y-53830761D02*
X105706739Y-52887500D01*
X107500000Y-57137500D02*
X106650000Y-56287500D01*
%TO.N,/RST*%
X103500000Y-57924999D02*
X102624999Y-58800000D01*
X97500000Y-58800000D02*
X96900000Y-59400000D01*
X103500000Y-57112500D02*
X103500000Y-57924999D01*
X96900000Y-59400000D02*
X96900000Y-61700000D01*
X102624999Y-58800000D02*
X97500000Y-58800000D01*
X96900000Y-61700000D02*
X97815000Y-62615000D01*
X97815000Y-62615000D02*
X99000000Y-62615000D01*
%TO.N,+5V*%
X108875000Y-46900000D02*
X110200000Y-48225000D01*
X110200000Y-51662500D02*
X109000000Y-52862500D01*
X110200000Y-48225000D02*
X110200000Y-51662500D01*
%TO.N,Net-(D2-K)*%
X102000000Y-52287500D02*
X102000000Y-51562500D01*
X102000000Y-51562500D02*
X106662500Y-46900000D01*
X106662500Y-46900000D02*
X107125000Y-46900000D01*
%TO.N,/TXD*%
X99000000Y-54995000D02*
X102000000Y-54995000D01*
X102000000Y-54995000D02*
X102600000Y-54995000D01*
X102000000Y-54112500D02*
X102000000Y-54995000D01*
%TO.N,/UDP*%
X100984500Y-56072000D02*
X101169000Y-55887500D01*
X101169000Y-55887500D02*
X102000000Y-55887500D01*
%TO.N,Net-(J2-Pin_2)*%
X100622500Y-57535000D02*
X100800000Y-57712500D01*
X100800000Y-57712500D02*
X102000000Y-57712500D01*
%TO.N,GND*%
X96800000Y-52500000D02*
X98218000Y-53918000D01*
X98218000Y-53918000D02*
X100418000Y-53918000D01*
X100418000Y-53918000D02*
X100900000Y-54400000D01*
%TO.N,+3.3V*%
X107500000Y-57137500D02*
X105337500Y-59300000D01*
X102525000Y-60075000D02*
X99000000Y-60075000D01*
X105337500Y-59300000D02*
X103300000Y-59300000D01*
X103300000Y-59300000D02*
X102525000Y-60075000D01*
%TO.N,/ADB_PWR_ON*%
X105000000Y-57112500D02*
X105000000Y-58700000D01*
%TO.N,GND*%
X107012500Y-50650000D02*
X107500000Y-51137500D01*
%TO.N,+5V*%
X105227001Y-51672999D02*
X105227001Y-51848000D01*
%TO.N,GND*%
X105330761Y-50650000D02*
X107012500Y-50650000D01*
X104500000Y-52887500D02*
X104500000Y-51480761D01*
X104500000Y-51480761D02*
X105330761Y-50650000D01*
%TO.N,+5V*%
X105600000Y-51300000D02*
X105227001Y-51672999D01*
%TO.N,/UDP*%
X109348000Y-56152000D02*
X108227001Y-56152000D01*
X108000000Y-55924999D02*
X108000000Y-55700000D01*
X109500000Y-56000000D02*
X109348000Y-56152000D01*
X108227001Y-56152000D02*
X108000000Y-55924999D01*
%TO.N,/UDM*%
X109500000Y-54200000D02*
X109500000Y-54700000D01*
X109500000Y-54700000D02*
X108500000Y-55700000D01*
%TO.N,+5V*%
X109000000Y-52862500D02*
X109000000Y-53800000D01*
X109000000Y-53800000D02*
X108500000Y-54300000D01*
X105000000Y-52887500D02*
X105000000Y-52075001D01*
X105000000Y-52075001D02*
X105227001Y-51848000D01*
X105227001Y-51848000D02*
X106485500Y-51848000D01*
X106485500Y-51848000D02*
X107500000Y-52862500D01*
X109000000Y-52862500D02*
X107500000Y-52862500D01*
%TO.N,/TXD*%
X102600000Y-54995000D02*
X102694999Y-54995000D01*
X102694999Y-54995000D02*
X104000000Y-56300001D01*
X104000000Y-56300001D02*
X104000000Y-57112500D01*
%TO.N,Net-(J2-Pin_2)*%
X99000000Y-57535000D02*
X100622500Y-57535000D01*
%TO.N,/UDP*%
X94572000Y-56072000D02*
X100984500Y-56072000D01*
%TO.N,/RXD*%
X103098000Y-54059518D02*
X103098000Y-54898000D01*
X104500000Y-56300000D02*
X104500000Y-57112500D01*
%TO.N,/UDM*%
X104000000Y-52887500D02*
X104000000Y-54100000D01*
X104000000Y-54100000D02*
X104400000Y-54500000D01*
%TO.N,/RXD*%
X102343482Y-53305000D02*
X103098000Y-54059518D01*
%TO.N,/UDP*%
X103500000Y-52887500D02*
X103500000Y-54400000D01*
X103500000Y-54400000D02*
X104500000Y-55400000D01*
%TO.N,/RXD*%
X99000000Y-52455000D02*
X99850000Y-53305000D01*
X99850000Y-53305000D02*
X102343482Y-53305000D01*
X103098000Y-54898000D02*
X104500000Y-56300000D01*
%TD*%
%TA.AperFunction,Conductor*%
%TO.N,GND*%
G36*
X113004418Y-45500816D02*
G01*
X113204561Y-45515130D01*
X113222063Y-45517647D01*
X113413797Y-45559355D01*
X113430755Y-45564334D01*
X113614609Y-45632909D01*
X113630701Y-45640259D01*
X113802904Y-45734288D01*
X113817784Y-45743849D01*
X113974867Y-45861441D01*
X113988237Y-45873027D01*
X114126972Y-46011762D01*
X114138558Y-46025132D01*
X114208549Y-46118629D01*
X114256146Y-46182210D01*
X114265711Y-46197095D01*
X114359740Y-46369298D01*
X114367090Y-46385390D01*
X114435662Y-46569236D01*
X114440646Y-46586212D01*
X114482351Y-46777931D01*
X114484869Y-46795442D01*
X114499184Y-46995580D01*
X114499500Y-47004427D01*
X114499500Y-47152070D01*
X114479815Y-47219109D01*
X114427011Y-47264864D01*
X114357853Y-47274808D01*
X114337183Y-47270001D01*
X114227836Y-47234473D01*
X114227837Y-47234473D01*
X114010181Y-47200000D01*
X113250000Y-47200000D01*
X113250000Y-48100000D01*
X112750000Y-48100000D01*
X112750000Y-47200000D01*
X111989819Y-47200000D01*
X111772164Y-47234473D01*
X111562589Y-47302567D01*
X111366239Y-47402613D01*
X111187958Y-47532142D01*
X111032142Y-47687958D01*
X110902610Y-47866244D01*
X110900113Y-47870318D01*
X110848296Y-47917188D01*
X110779365Y-47928603D01*
X110715205Y-47900940D01*
X110687003Y-47867514D01*
X110686270Y-47866244D01*
X110680520Y-47856284D01*
X110568716Y-47744480D01*
X110568715Y-47744479D01*
X110564385Y-47740149D01*
X110564374Y-47740139D01*
X109936818Y-47112583D01*
X109903333Y-47051260D01*
X109900499Y-47024902D01*
X109900499Y-46613330D01*
X109900498Y-46613313D01*
X109890174Y-46512247D01*
X109888140Y-46506109D01*
X109835908Y-46348484D01*
X109745340Y-46201650D01*
X109623350Y-46079660D01*
X109476516Y-45989092D01*
X109312753Y-45934826D01*
X109312751Y-45934825D01*
X109211678Y-45924500D01*
X108538330Y-45924500D01*
X108538312Y-45924501D01*
X108437247Y-45934825D01*
X108273484Y-45989092D01*
X108273481Y-45989093D01*
X108126648Y-46079661D01*
X108087681Y-46118629D01*
X108026358Y-46152114D01*
X107956666Y-46147130D01*
X107912319Y-46118629D01*
X107873351Y-46079661D01*
X107873350Y-46079660D01*
X107726516Y-45989092D01*
X107562753Y-45934826D01*
X107562751Y-45934825D01*
X107461678Y-45924500D01*
X106788330Y-45924500D01*
X106788312Y-45924501D01*
X106687247Y-45934825D01*
X106523484Y-45989092D01*
X106523481Y-45989093D01*
X106376648Y-46079661D01*
X106254661Y-46201648D01*
X106164093Y-46348481D01*
X106164091Y-46348486D01*
X106151862Y-46385390D01*
X106109826Y-46512247D01*
X106109826Y-46512248D01*
X106109825Y-46512248D01*
X106103933Y-46569929D01*
X106077537Y-46634620D01*
X106068256Y-46645007D01*
X104805224Y-47908039D01*
X104743901Y-47941524D01*
X104674209Y-47936540D01*
X104618276Y-47894668D01*
X104595070Y-47839756D01*
X104590501Y-47810907D01*
X104561090Y-47625215D01*
X104483241Y-47385621D01*
X104483239Y-47385618D01*
X104483239Y-47385616D01*
X104406227Y-47234473D01*
X104368870Y-47161155D01*
X104349952Y-47135117D01*
X104220798Y-46957350D01*
X104220794Y-46957345D01*
X104042654Y-46779205D01*
X104042649Y-46779201D01*
X103838848Y-46631132D01*
X103838847Y-46631131D01*
X103838845Y-46631130D01*
X103768747Y-46595413D01*
X103614383Y-46516760D01*
X103374785Y-46438910D01*
X103286273Y-46424891D01*
X103125962Y-46399500D01*
X102874038Y-46399500D01*
X102749626Y-46419205D01*
X102625214Y-46438910D01*
X102385616Y-46516760D01*
X102161151Y-46631132D01*
X101957350Y-46779201D01*
X101957345Y-46779205D01*
X101779205Y-46957345D01*
X101779201Y-46957350D01*
X101631132Y-47161151D01*
X101516760Y-47385616D01*
X101438910Y-47625214D01*
X101399500Y-47874038D01*
X101399500Y-48125961D01*
X101438910Y-48374785D01*
X101516760Y-48614383D01*
X101631132Y-48838848D01*
X101779201Y-49042649D01*
X101779205Y-49042654D01*
X101957345Y-49220794D01*
X101957350Y-49220798D01*
X102015379Y-49262958D01*
X102161155Y-49368870D01*
X102304184Y-49441747D01*
X102385616Y-49483239D01*
X102385618Y-49483239D01*
X102385621Y-49483241D01*
X102625215Y-49561090D01*
X102839758Y-49595070D01*
X102902892Y-49624999D01*
X102939823Y-49684311D01*
X102938825Y-49754173D01*
X102908040Y-49805224D01*
X101519481Y-51193782D01*
X101519479Y-51193785D01*
X101497594Y-51231692D01*
X101475738Y-51269549D01*
X101469361Y-51280594D01*
X101469360Y-51280595D01*
X101440422Y-51330717D01*
X101437310Y-51338229D01*
X101435693Y-51337559D01*
X101404483Y-51388746D01*
X101386185Y-51402517D01*
X101301650Y-51454659D01*
X101179661Y-51576648D01*
X101089093Y-51723481D01*
X101089092Y-51723484D01*
X101034826Y-51887247D01*
X101034826Y-51887248D01*
X101034825Y-51887248D01*
X101024500Y-51988315D01*
X101024500Y-51988328D01*
X101024501Y-52580500D01*
X101004817Y-52647539D01*
X100952013Y-52693294D01*
X100900501Y-52704500D01*
X100469152Y-52704500D01*
X100402113Y-52684815D01*
X100356358Y-52632011D01*
X100345624Y-52569694D01*
X100355659Y-52455000D01*
X100335063Y-52219592D01*
X100273903Y-51991337D01*
X100174035Y-51777171D01*
X100150202Y-51743133D01*
X100038494Y-51583597D01*
X99871402Y-51416506D01*
X99871401Y-51416505D01*
X99685405Y-51286269D01*
X99641781Y-51231692D01*
X99634588Y-51162193D01*
X99666110Y-51099839D01*
X99685405Y-51083119D01*
X99871082Y-50953105D01*
X100038105Y-50786082D01*
X100173600Y-50592578D01*
X100273429Y-50378492D01*
X100273432Y-50378486D01*
X100330636Y-50165000D01*
X99433012Y-50165000D01*
X99465925Y-50107993D01*
X99500000Y-49980826D01*
X99500000Y-49849174D01*
X99465925Y-49722007D01*
X99433012Y-49665000D01*
X100330636Y-49665000D01*
X100330635Y-49664999D01*
X100273432Y-49451513D01*
X100273429Y-49451507D01*
X100173600Y-49237422D01*
X100173599Y-49237420D01*
X100038113Y-49043926D01*
X100038108Y-49043920D01*
X99871082Y-48876894D01*
X99677578Y-48741399D01*
X99463492Y-48641570D01*
X99463486Y-48641567D01*
X99250000Y-48584364D01*
X99250000Y-49481988D01*
X99192993Y-49449075D01*
X99065826Y-49415000D01*
X98934174Y-49415000D01*
X98807007Y-49449075D01*
X98750000Y-49481988D01*
X98750000Y-48584364D01*
X98749999Y-48584364D01*
X98536513Y-48641567D01*
X98536507Y-48641570D01*
X98322422Y-48741399D01*
X98322420Y-48741400D01*
X98128926Y-48876886D01*
X98128920Y-48876891D01*
X97961891Y-49043920D01*
X97961886Y-49043926D01*
X97826400Y-49237420D01*
X97826399Y-49237422D01*
X97726570Y-49451507D01*
X97726567Y-49451513D01*
X97669364Y-49664999D01*
X97669364Y-49665000D01*
X98566988Y-49665000D01*
X98534075Y-49722007D01*
X98500000Y-49849174D01*
X98500000Y-49980826D01*
X98534075Y-50107993D01*
X98566988Y-50165000D01*
X97669364Y-50165000D01*
X97726567Y-50378486D01*
X97726570Y-50378492D01*
X97826399Y-50592578D01*
X97961894Y-50786082D01*
X98128917Y-50953105D01*
X98314595Y-51083119D01*
X98358219Y-51137696D01*
X98365412Y-51207195D01*
X98333890Y-51269549D01*
X98314595Y-51286269D01*
X98128594Y-51416508D01*
X97961505Y-51583597D01*
X97825965Y-51777169D01*
X97825964Y-51777171D01*
X97747982Y-51944404D01*
X97727503Y-51988323D01*
X97726098Y-51991335D01*
X97726094Y-51991344D01*
X97664938Y-52219586D01*
X97664936Y-52219596D01*
X97644341Y-52454999D01*
X97644341Y-52455000D01*
X97664936Y-52690403D01*
X97664938Y-52690413D01*
X97726094Y-52918655D01*
X97726096Y-52918659D01*
X97726097Y-52918663D01*
X97764007Y-52999960D01*
X97825965Y-53132830D01*
X97825967Y-53132834D01*
X97961501Y-53326395D01*
X97961506Y-53326402D01*
X98128597Y-53493493D01*
X98128603Y-53493498D01*
X98314158Y-53623425D01*
X98357783Y-53678002D01*
X98364977Y-53747500D01*
X98333454Y-53809855D01*
X98314158Y-53826575D01*
X98128597Y-53956505D01*
X97961505Y-54123597D01*
X97825965Y-54317169D01*
X97825964Y-54317171D01*
X97726098Y-54531335D01*
X97726094Y-54531344D01*
X97664938Y-54759586D01*
X97664936Y-54759596D01*
X97644341Y-54994999D01*
X97644341Y-54995000D01*
X97664936Y-55230403D01*
X97664938Y-55230413D01*
X97687712Y-55315407D01*
X97686049Y-55385257D01*
X97646886Y-55443119D01*
X97582658Y-55470623D01*
X97567937Y-55471500D01*
X95767496Y-55471500D01*
X95700457Y-55451815D01*
X95655114Y-55399904D01*
X95630571Y-55347272D01*
X95630569Y-55347268D01*
X95575970Y-55269292D01*
X95500047Y-55160861D01*
X95426865Y-55087679D01*
X95393382Y-55026359D01*
X95398366Y-54956667D01*
X95426865Y-54912320D01*
X95500047Y-54839139D01*
X95630568Y-54652734D01*
X95726739Y-54446496D01*
X95785635Y-54226692D01*
X95805468Y-54000000D01*
X95785635Y-53773308D01*
X95726739Y-53553504D01*
X95630568Y-53347266D01*
X95500047Y-53160861D01*
X95500045Y-53160858D01*
X95339147Y-52999960D01*
X95337980Y-52998981D01*
X95337606Y-52998419D01*
X95335311Y-52996124D01*
X95335772Y-52995662D01*
X95299272Y-52940813D01*
X95298158Y-52870952D01*
X95334989Y-52811579D01*
X95374345Y-52787802D01*
X95492326Y-52743798D01*
X95492326Y-52743797D01*
X95492331Y-52743796D01*
X95607546Y-52657546D01*
X95693796Y-52542331D01*
X95744091Y-52407483D01*
X95750500Y-52347873D01*
X95750499Y-50652128D01*
X95744091Y-50592517D01*
X95737263Y-50574211D01*
X95693797Y-50457671D01*
X95693793Y-50457664D01*
X95607547Y-50342455D01*
X95607544Y-50342452D01*
X95492335Y-50256206D01*
X95492328Y-50256202D01*
X95357482Y-50205908D01*
X95357483Y-50205908D01*
X95297883Y-50199501D01*
X95297881Y-50199500D01*
X95297873Y-50199500D01*
X95297864Y-50199500D01*
X93702129Y-50199500D01*
X93702123Y-50199501D01*
X93642516Y-50205908D01*
X93507671Y-50256202D01*
X93507664Y-50256206D01*
X93392455Y-50342452D01*
X93392452Y-50342455D01*
X93306206Y-50457664D01*
X93306202Y-50457671D01*
X93255908Y-50592517D01*
X93249501Y-50652116D01*
X93249501Y-50652123D01*
X93249500Y-50652135D01*
X93249500Y-52347870D01*
X93249501Y-52347876D01*
X93255908Y-52407483D01*
X93306202Y-52542328D01*
X93306206Y-52542335D01*
X93392452Y-52657544D01*
X93392455Y-52657547D01*
X93507664Y-52743793D01*
X93507671Y-52743797D01*
X93625655Y-52787802D01*
X93681589Y-52829673D01*
X93706006Y-52895137D01*
X93691155Y-52963410D01*
X93664508Y-52995943D01*
X93664689Y-52996124D01*
X93662878Y-52997934D01*
X93662028Y-52998973D01*
X93660859Y-52999953D01*
X93499954Y-53160858D01*
X93369432Y-53347265D01*
X93369431Y-53347267D01*
X93273261Y-53553502D01*
X93273258Y-53553511D01*
X93214366Y-53773302D01*
X93214364Y-53773313D01*
X93194532Y-53999998D01*
X93194532Y-54000001D01*
X93214364Y-54226686D01*
X93214366Y-54226697D01*
X93273258Y-54446488D01*
X93273261Y-54446497D01*
X93369431Y-54652732D01*
X93369432Y-54652734D01*
X93499954Y-54839141D01*
X93573132Y-54912319D01*
X93606617Y-54973642D01*
X93601633Y-55043334D01*
X93573132Y-55087681D01*
X93499954Y-55160858D01*
X93369432Y-55347265D01*
X93369431Y-55347267D01*
X93273261Y-55553502D01*
X93273258Y-55553511D01*
X93214366Y-55773302D01*
X93214364Y-55773313D01*
X93194532Y-55999998D01*
X93194532Y-56000001D01*
X93214364Y-56226686D01*
X93214366Y-56226697D01*
X93273258Y-56446488D01*
X93273261Y-56446497D01*
X93369431Y-56652732D01*
X93369432Y-56652734D01*
X93499954Y-56839141D01*
X93660858Y-57000045D01*
X93660861Y-57000047D01*
X93847266Y-57130568D01*
X93862975Y-57137893D01*
X93915414Y-57184064D01*
X93934567Y-57251257D01*
X93914352Y-57318138D01*
X93862979Y-57362656D01*
X93847514Y-57369867D01*
X93847512Y-57369868D01*
X93774526Y-57420973D01*
X93774526Y-57420974D01*
X94391002Y-58037449D01*
X94316657Y-58057370D01*
X94208343Y-58119905D01*
X94119905Y-58208343D01*
X94057370Y-58316657D01*
X94037449Y-58391001D01*
X93420974Y-57774526D01*
X93420973Y-57774526D01*
X93369868Y-57847512D01*
X93369866Y-57847516D01*
X93273734Y-58053673D01*
X93273730Y-58053682D01*
X93214860Y-58273389D01*
X93214858Y-58273400D01*
X93195034Y-58499997D01*
X93195034Y-58500002D01*
X93214858Y-58726599D01*
X93214860Y-58726610D01*
X93273730Y-58946317D01*
X93273735Y-58946331D01*
X93369863Y-59152478D01*
X93420974Y-59225472D01*
X94037449Y-58608997D01*
X94057370Y-58683343D01*
X94119905Y-58791657D01*
X94208343Y-58880095D01*
X94316657Y-58942630D01*
X94391002Y-58962550D01*
X93774526Y-59579025D01*
X93847513Y-59630132D01*
X93847521Y-59630136D01*
X94053668Y-59726264D01*
X94053682Y-59726269D01*
X94273389Y-59785139D01*
X94273400Y-59785141D01*
X94499998Y-59804966D01*
X94500002Y-59804966D01*
X94726599Y-59785141D01*
X94726610Y-59785139D01*
X94946317Y-59726269D01*
X94946331Y-59726264D01*
X95152478Y-59630136D01*
X95225471Y-59579024D01*
X94608997Y-58962550D01*
X94683343Y-58942630D01*
X94791657Y-58880095D01*
X94880095Y-58791657D01*
X94942630Y-58683343D01*
X94962550Y-58608997D01*
X95579024Y-59225471D01*
X95630136Y-59152478D01*
X95726264Y-58946331D01*
X95726269Y-58946317D01*
X95785139Y-58726610D01*
X95785141Y-58726599D01*
X95804966Y-58500002D01*
X95804966Y-58499997D01*
X95785141Y-58273400D01*
X95785139Y-58273389D01*
X95726269Y-58053682D01*
X95726264Y-58053668D01*
X95630136Y-57847521D01*
X95630132Y-57847513D01*
X95579025Y-57774526D01*
X94962550Y-58391001D01*
X94942630Y-58316657D01*
X94880095Y-58208343D01*
X94791657Y-58119905D01*
X94683343Y-58057370D01*
X94608998Y-58037449D01*
X95225472Y-57420974D01*
X95152480Y-57369864D01*
X95137024Y-57362657D01*
X95084585Y-57316484D01*
X95065433Y-57249290D01*
X95085649Y-57182409D01*
X95137023Y-57137893D01*
X95152734Y-57130568D01*
X95339139Y-57000047D01*
X95500047Y-56839139D01*
X95545908Y-56773642D01*
X95579704Y-56725377D01*
X95634281Y-56681752D01*
X95681279Y-56672500D01*
X97717811Y-56672500D01*
X97784850Y-56692185D01*
X97830605Y-56744989D01*
X97840549Y-56814147D01*
X97827478Y-56851902D01*
X97828253Y-56852264D01*
X97726098Y-57071335D01*
X97726094Y-57071344D01*
X97664938Y-57299586D01*
X97664936Y-57299596D01*
X97644341Y-57534999D01*
X97644341Y-57535000D01*
X97664936Y-57770403D01*
X97664938Y-57770413D01*
X97726094Y-57998655D01*
X97726096Y-57998659D01*
X97726097Y-57998663D01*
X97736205Y-58020340D01*
X97737490Y-58023095D01*
X97747982Y-58092173D01*
X97719462Y-58155957D01*
X97660986Y-58194196D01*
X97625108Y-58199500D01*
X97420943Y-58199500D01*
X97268213Y-58240423D01*
X97224833Y-58265470D01*
X97224832Y-58265470D01*
X97131287Y-58319477D01*
X97131282Y-58319481D01*
X96419481Y-59031282D01*
X96419480Y-59031284D01*
X96372331Y-59112949D01*
X96340423Y-59168215D01*
X96299499Y-59320943D01*
X96299499Y-59320945D01*
X96299499Y-59489046D01*
X96299500Y-59489059D01*
X96299500Y-61613330D01*
X96299499Y-61613348D01*
X96299499Y-61779054D01*
X96299498Y-61779054D01*
X96324949Y-61874038D01*
X96340423Y-61931785D01*
X96367210Y-61978181D01*
X96369358Y-61981900D01*
X96369359Y-61981904D01*
X96369360Y-61981904D01*
X96419479Y-62068714D01*
X96419481Y-62068717D01*
X96538349Y-62187585D01*
X96538355Y-62187590D01*
X97330139Y-62979374D01*
X97330149Y-62979385D01*
X97334479Y-62983715D01*
X97334480Y-62983716D01*
X97446284Y-63095520D01*
X97446286Y-63095521D01*
X97446290Y-63095524D01*
X97581406Y-63173532D01*
X97583216Y-63174577D01*
X97695019Y-63204534D01*
X97735942Y-63215500D01*
X97735943Y-63215500D01*
X98139880Y-63215500D01*
X98206919Y-63235185D01*
X98235733Y-63260835D01*
X98289116Y-63325883D01*
X98441460Y-63450909D01*
X98441467Y-63450913D01*
X98615266Y-63543811D01*
X98615269Y-63543811D01*
X98615273Y-63543814D01*
X98803868Y-63601024D01*
X99000000Y-63620341D01*
X99196132Y-63601024D01*
X99384727Y-63543814D01*
X99558538Y-63450910D01*
X99710883Y-63325883D01*
X99835910Y-63173538D01*
X99928814Y-62999727D01*
X99986024Y-62811132D01*
X100005341Y-62615000D01*
X99986024Y-62418868D01*
X99928814Y-62230273D01*
X99928811Y-62230269D01*
X99928811Y-62230266D01*
X99835913Y-62056467D01*
X99835909Y-62056460D01*
X99710883Y-61904116D01*
X99558539Y-61779090D01*
X99558532Y-61779086D01*
X99384728Y-61686186D01*
X99325302Y-61668159D01*
X99266864Y-61629862D01*
X99238407Y-61566049D01*
X99248968Y-61496982D01*
X99295193Y-61444589D01*
X99361296Y-61425499D01*
X99897872Y-61425499D01*
X99957483Y-61419091D01*
X100092331Y-61368796D01*
X100207546Y-61282546D01*
X100293796Y-61167331D01*
X100344091Y-61032483D01*
X100350500Y-60972873D01*
X100350500Y-60799500D01*
X100370185Y-60732461D01*
X100422989Y-60686706D01*
X100474500Y-60675500D01*
X101761689Y-60675500D01*
X101828728Y-60695185D01*
X101874483Y-60747989D01*
X101884427Y-60817147D01*
X101855402Y-60880703D01*
X101849370Y-60887181D01*
X101779205Y-60957345D01*
X101779201Y-60957350D01*
X101631132Y-61161151D01*
X101516760Y-61385616D01*
X101438910Y-61625214D01*
X101399500Y-61874038D01*
X101399500Y-62125961D01*
X101438910Y-62374785D01*
X101516760Y-62614383D01*
X101631132Y-62838848D01*
X101779201Y-63042649D01*
X101779205Y-63042654D01*
X101957345Y-63220794D01*
X101957350Y-63220798D01*
X102012457Y-63260835D01*
X102161155Y-63368870D01*
X102249310Y-63413787D01*
X102385616Y-63483239D01*
X102385618Y-63483239D01*
X102385621Y-63483241D01*
X102625215Y-63561090D01*
X102874038Y-63600500D01*
X102874039Y-63600500D01*
X103125961Y-63600500D01*
X103125962Y-63600500D01*
X103374785Y-63561090D01*
X103614379Y-63483241D01*
X103838845Y-63368870D01*
X104042656Y-63220793D01*
X104220793Y-63042656D01*
X104368870Y-62838845D01*
X104483241Y-62614379D01*
X104561090Y-62374785D01*
X104600500Y-62125962D01*
X104600500Y-61874038D01*
X104561090Y-61625215D01*
X104483241Y-61385621D01*
X104483239Y-61385618D01*
X104483239Y-61385616D01*
X104430721Y-61282544D01*
X104368870Y-61161155D01*
X104319348Y-61092993D01*
X104220798Y-60957350D01*
X104220794Y-60957345D01*
X104042654Y-60779205D01*
X104042649Y-60779201D01*
X103838848Y-60631132D01*
X103838847Y-60631131D01*
X103838845Y-60631130D01*
X103751120Y-60586432D01*
X103614383Y-60516760D01*
X103374785Y-60438909D01*
X103300524Y-60427148D01*
X103237389Y-60397219D01*
X103200458Y-60337907D01*
X103201456Y-60268045D01*
X103232241Y-60216994D01*
X103346669Y-60102567D01*
X103512417Y-59936819D01*
X103573740Y-59903334D01*
X103600098Y-59900500D01*
X105250831Y-59900500D01*
X105250847Y-59900501D01*
X105258443Y-59900501D01*
X105416554Y-59900501D01*
X105416557Y-59900501D01*
X105569285Y-59859577D01*
X105619404Y-59830639D01*
X105706216Y-59780520D01*
X105818020Y-59668716D01*
X105818020Y-59668714D01*
X105828228Y-59658507D01*
X105828230Y-59658504D01*
X106317321Y-59169412D01*
X106378640Y-59135930D01*
X106448331Y-59140914D01*
X106504265Y-59182785D01*
X106528356Y-59244494D01*
X106535319Y-59312652D01*
X106589546Y-59476300D01*
X106589551Y-59476311D01*
X106680052Y-59623034D01*
X106680055Y-59623038D01*
X106801961Y-59744944D01*
X106801965Y-59744947D01*
X106948688Y-59835448D01*
X106948699Y-59835453D01*
X107112347Y-59889680D01*
X107213352Y-59899999D01*
X107250000Y-59899999D01*
X107750000Y-59899999D01*
X107786640Y-59899999D01*
X107786654Y-59899998D01*
X107887652Y-59889680D01*
X108051300Y-59835453D01*
X108051311Y-59835448D01*
X108198034Y-59744947D01*
X108198038Y-59744944D01*
X108319944Y-59623038D01*
X108319947Y-59623034D01*
X108410448Y-59476311D01*
X108410453Y-59476300D01*
X108464680Y-59312652D01*
X108474999Y-59211654D01*
X108475000Y-59211641D01*
X108475000Y-59112500D01*
X107750000Y-59112500D01*
X107750000Y-59899999D01*
X107250000Y-59899999D01*
X107250000Y-58736500D01*
X107269685Y-58669461D01*
X107322489Y-58623706D01*
X107374000Y-58612500D01*
X108474999Y-58612500D01*
X108474999Y-58513360D01*
X108474998Y-58513345D01*
X108464680Y-58412347D01*
X108410453Y-58248699D01*
X108410448Y-58248688D01*
X108319947Y-58101965D01*
X108319944Y-58101961D01*
X108306017Y-58088034D01*
X108272532Y-58026711D01*
X108277516Y-57957019D01*
X108306017Y-57912672D01*
X108320340Y-57898350D01*
X108410908Y-57751516D01*
X108465174Y-57587753D01*
X108475500Y-57486677D01*
X108475499Y-56876499D01*
X108495183Y-56809461D01*
X108547987Y-56763706D01*
X108599499Y-56752500D01*
X109205747Y-56752500D01*
X109246701Y-56759458D01*
X109320745Y-56785368D01*
X109320751Y-56785368D01*
X109320753Y-56785369D01*
X109499996Y-56805565D01*
X109500000Y-56805565D01*
X109500004Y-56805565D01*
X109679249Y-56785369D01*
X109679252Y-56785368D01*
X109679255Y-56785368D01*
X109849522Y-56725789D01*
X110002262Y-56629816D01*
X110129816Y-56502262D01*
X110225789Y-56349522D01*
X110273986Y-56211781D01*
X110314708Y-56155006D01*
X110379660Y-56129258D01*
X110448222Y-56142714D01*
X110492332Y-56181227D01*
X110605250Y-56341194D01*
X111327912Y-55618532D01*
X111422829Y-55749175D01*
X111550825Y-55877171D01*
X111681465Y-55972086D01*
X110960970Y-56692581D01*
X111052619Y-56767143D01*
X111304861Y-56920535D01*
X111575636Y-57038149D01*
X111859909Y-57117799D01*
X111859916Y-57117800D01*
X112152388Y-57158000D01*
X112447612Y-57158000D01*
X112740083Y-57117800D01*
X112740090Y-57117799D01*
X113024363Y-57038149D01*
X113295138Y-56920535D01*
X113547377Y-56767145D01*
X113547383Y-56767141D01*
X113639028Y-56692581D01*
X112918534Y-55972086D01*
X113049175Y-55877171D01*
X113177171Y-55749175D01*
X113272086Y-55618533D01*
X113994748Y-56341194D01*
X114148145Y-56123882D01*
X114265402Y-55897588D01*
X114313722Y-55847121D01*
X114381657Y-55830789D01*
X114447636Y-55853778D01*
X114490713Y-55908788D01*
X114499500Y-55954636D01*
X114499500Y-59952070D01*
X114479815Y-60019109D01*
X114427011Y-60064864D01*
X114357853Y-60074808D01*
X114337183Y-60070001D01*
X114227836Y-60034473D01*
X114227837Y-60034473D01*
X114010181Y-60000000D01*
X113250000Y-60000000D01*
X113250000Y-60900000D01*
X112750000Y-60900000D01*
X112750000Y-60000000D01*
X111989819Y-60000000D01*
X111772164Y-60034473D01*
X111562589Y-60102567D01*
X111366239Y-60202613D01*
X111187958Y-60332142D01*
X111032142Y-60487958D01*
X110902613Y-60666239D01*
X110802567Y-60862589D01*
X110734473Y-61072161D01*
X110734473Y-61072164D01*
X110722145Y-61150000D01*
X111966988Y-61150000D01*
X111934075Y-61207007D01*
X111900000Y-61334174D01*
X111900000Y-61465826D01*
X111934075Y-61592993D01*
X111966988Y-61650000D01*
X110722145Y-61650000D01*
X110734473Y-61727835D01*
X110734473Y-61727838D01*
X110802567Y-61937410D01*
X110902613Y-62133760D01*
X111032142Y-62312041D01*
X111187958Y-62467857D01*
X111366239Y-62597386D01*
X111562589Y-62697432D01*
X111772164Y-62765526D01*
X111989819Y-62800000D01*
X112750000Y-62800000D01*
X112750000Y-61900000D01*
X113250000Y-61900000D01*
X113250000Y-62800000D01*
X114010181Y-62800000D01*
X114227835Y-62765526D01*
X114337182Y-62729998D01*
X114407023Y-62728003D01*
X114466856Y-62764083D01*
X114497684Y-62826784D01*
X114499500Y-62847929D01*
X114499500Y-62995572D01*
X114499184Y-63004419D01*
X114484869Y-63204557D01*
X114482351Y-63222068D01*
X114440646Y-63413787D01*
X114435662Y-63430763D01*
X114367090Y-63614609D01*
X114359740Y-63630701D01*
X114265711Y-63802904D01*
X114256146Y-63817789D01*
X114138558Y-63974867D01*
X114126972Y-63988237D01*
X113988237Y-64126972D01*
X113974867Y-64138558D01*
X113817789Y-64256146D01*
X113802904Y-64265711D01*
X113630701Y-64359740D01*
X113614609Y-64367090D01*
X113430763Y-64435662D01*
X113413787Y-64440646D01*
X113222068Y-64482351D01*
X113204557Y-64484869D01*
X113023779Y-64497799D01*
X113004417Y-64499184D01*
X112995572Y-64499500D01*
X87004428Y-64499500D01*
X86995582Y-64499184D01*
X86973622Y-64497613D01*
X86795442Y-64484869D01*
X86777931Y-64482351D01*
X86586212Y-64440646D01*
X86569236Y-64435662D01*
X86385390Y-64367090D01*
X86369298Y-64359740D01*
X86197095Y-64265711D01*
X86182210Y-64256146D01*
X86025132Y-64138558D01*
X86011762Y-64126972D01*
X85873027Y-63988237D01*
X85861441Y-63974867D01*
X85743849Y-63817784D01*
X85734288Y-63802904D01*
X85640259Y-63630701D01*
X85632909Y-63614609D01*
X85612947Y-63561089D01*
X85564334Y-63430755D01*
X85559355Y-63413797D01*
X85517647Y-63222063D01*
X85515130Y-63204556D01*
X85515128Y-63204534D01*
X85500816Y-63004418D01*
X85500500Y-62995572D01*
X85500500Y-61569998D01*
X89784891Y-61569998D01*
X89784891Y-61570001D01*
X89805300Y-61855362D01*
X89866109Y-62134895D01*
X89966091Y-62402958D01*
X90103191Y-62654038D01*
X90103196Y-62654046D01*
X90209882Y-62796561D01*
X90209883Y-62796562D01*
X90817912Y-62188532D01*
X90912829Y-62319175D01*
X91040825Y-62447171D01*
X91171465Y-62542086D01*
X90563436Y-63150115D01*
X90705960Y-63256807D01*
X90705961Y-63256808D01*
X90957042Y-63393908D01*
X90957041Y-63393908D01*
X91225104Y-63493890D01*
X91504637Y-63554699D01*
X91789999Y-63575109D01*
X91790001Y-63575109D01*
X92075362Y-63554699D01*
X92354895Y-63493890D01*
X92622958Y-63393908D01*
X92874047Y-63256803D01*
X93016561Y-63150116D01*
X93016562Y-63150115D01*
X92408534Y-62542086D01*
X92539175Y-62447171D01*
X92667171Y-62319175D01*
X92762086Y-62188533D01*
X93370115Y-62796562D01*
X93370116Y-62796561D01*
X93476803Y-62654047D01*
X93613908Y-62402958D01*
X93713890Y-62134895D01*
X93774699Y-61855362D01*
X93795109Y-61570001D01*
X93795109Y-61569998D01*
X93774699Y-61284637D01*
X93713890Y-61005104D01*
X93613908Y-60737041D01*
X93476808Y-60485961D01*
X93476807Y-60485960D01*
X93370115Y-60343436D01*
X92762086Y-60951465D01*
X92667171Y-60820825D01*
X92539175Y-60692829D01*
X92408533Y-60597912D01*
X93016562Y-59989883D01*
X93016561Y-59989882D01*
X92874046Y-59883196D01*
X92874038Y-59883191D01*
X92622957Y-59746091D01*
X92622958Y-59746091D01*
X92354895Y-59646109D01*
X92075362Y-59585300D01*
X91790001Y-59564891D01*
X91789999Y-59564891D01*
X91504637Y-59585300D01*
X91225104Y-59646109D01*
X90957041Y-59746091D01*
X90705961Y-59883191D01*
X90705953Y-59883196D01*
X90563437Y-59989882D01*
X90563436Y-59989883D01*
X91171466Y-60597913D01*
X91040825Y-60692829D01*
X90912829Y-60820825D01*
X90817913Y-60951466D01*
X90209883Y-60343436D01*
X90209882Y-60343437D01*
X90103196Y-60485953D01*
X90103191Y-60485961D01*
X89966091Y-60737041D01*
X89866109Y-61005104D01*
X89805300Y-61284637D01*
X89784891Y-61569998D01*
X85500500Y-61569998D01*
X85500500Y-48429998D01*
X89784891Y-48429998D01*
X89784891Y-48430001D01*
X89805300Y-48715362D01*
X89866109Y-48994895D01*
X89966091Y-49262958D01*
X90103191Y-49514038D01*
X90103196Y-49514046D01*
X90209882Y-49656561D01*
X90209883Y-49656562D01*
X90817912Y-49048532D01*
X90912829Y-49179175D01*
X91040825Y-49307171D01*
X91171465Y-49402086D01*
X90563436Y-50010115D01*
X90705960Y-50116807D01*
X90705961Y-50116808D01*
X90957042Y-50253908D01*
X90957041Y-50253908D01*
X91225104Y-50353890D01*
X91504637Y-50414699D01*
X91789999Y-50435109D01*
X91790001Y-50435109D01*
X92075362Y-50414699D01*
X92354895Y-50353890D01*
X92622958Y-50253908D01*
X92874047Y-50116803D01*
X93016561Y-50010116D01*
X93016562Y-50010115D01*
X92408534Y-49402086D01*
X92539175Y-49307171D01*
X92667171Y-49179175D01*
X92762086Y-49048533D01*
X93370115Y-49656562D01*
X93370116Y-49656561D01*
X93476803Y-49514047D01*
X93613908Y-49262958D01*
X93713890Y-48994895D01*
X93774699Y-48715362D01*
X93795109Y-48430001D01*
X93795109Y-48429998D01*
X93774699Y-48144637D01*
X93713890Y-47865104D01*
X93613908Y-47597041D01*
X93476808Y-47345961D01*
X93476807Y-47345960D01*
X93370115Y-47203436D01*
X92762086Y-47811465D01*
X92667171Y-47680825D01*
X92539175Y-47552829D01*
X92408533Y-47457912D01*
X93016562Y-46849883D01*
X93016561Y-46849882D01*
X92874046Y-46743196D01*
X92874038Y-46743191D01*
X92622957Y-46606091D01*
X92622958Y-46606091D01*
X92354895Y-46506109D01*
X92075362Y-46445300D01*
X91790001Y-46424891D01*
X91789999Y-46424891D01*
X91504637Y-46445300D01*
X91225104Y-46506109D01*
X90957041Y-46606091D01*
X90705961Y-46743191D01*
X90705953Y-46743196D01*
X90563437Y-46849882D01*
X90563436Y-46849883D01*
X91171466Y-47457913D01*
X91040825Y-47552829D01*
X90912829Y-47680825D01*
X90817913Y-47811466D01*
X90209883Y-47203436D01*
X90209882Y-47203437D01*
X90103196Y-47345953D01*
X90103191Y-47345961D01*
X89966091Y-47597041D01*
X89866109Y-47865104D01*
X89805300Y-48144637D01*
X89784891Y-48429998D01*
X85500500Y-48429998D01*
X85500500Y-47004427D01*
X85500816Y-46995581D01*
X85505213Y-46934108D01*
X85515130Y-46795436D01*
X85517646Y-46777938D01*
X85559356Y-46586199D01*
X85564333Y-46569248D01*
X85632911Y-46385385D01*
X85640259Y-46369298D01*
X85731802Y-46201648D01*
X85734291Y-46197089D01*
X85743845Y-46182221D01*
X85861448Y-46025123D01*
X85873020Y-46011769D01*
X86011769Y-45873020D01*
X86025123Y-45861448D01*
X86182221Y-45743845D01*
X86197089Y-45734291D01*
X86369298Y-45640258D01*
X86385385Y-45632911D01*
X86569248Y-45564333D01*
X86586199Y-45559356D01*
X86777938Y-45517646D01*
X86795436Y-45515130D01*
X86995582Y-45500816D01*
X87004428Y-45500500D01*
X87065892Y-45500500D01*
X112934108Y-45500500D01*
X112995572Y-45500500D01*
X113004418Y-45500816D01*
G37*
%TD.AperFunction*%
%TA.AperFunction,Conductor*%
G36*
X100967539Y-53925185D02*
G01*
X101013294Y-53977989D01*
X101024500Y-54029499D01*
X101024501Y-54270499D01*
X101004817Y-54337539D01*
X100952013Y-54383294D01*
X100900501Y-54394500D01*
X100289091Y-54394500D01*
X100222052Y-54374815D01*
X100176711Y-54322909D01*
X100174037Y-54317175D01*
X100174034Y-54317170D01*
X100174033Y-54317169D01*
X100038495Y-54123599D01*
X100038493Y-54123596D01*
X100032078Y-54117181D01*
X99998593Y-54055858D01*
X100003577Y-53986166D01*
X100045449Y-53930233D01*
X100110913Y-53905816D01*
X100119759Y-53905500D01*
X100900500Y-53905500D01*
X100967539Y-53925185D01*
G37*
%TD.AperFunction*%
%TA.AperFunction,Conductor*%
G36*
X113250000Y-50000000D02*
G01*
X114010181Y-50000000D01*
X114227835Y-49965526D01*
X114337182Y-49929998D01*
X114407023Y-49928003D01*
X114466856Y-49964083D01*
X114497684Y-50026784D01*
X114499500Y-50047929D01*
X114499500Y-54045363D01*
X114479815Y-54112402D01*
X114427011Y-54158157D01*
X114357853Y-54168101D01*
X114294297Y-54139076D01*
X114265402Y-54102411D01*
X114148145Y-53876116D01*
X114148141Y-53876110D01*
X113994749Y-53658804D01*
X113272086Y-54381466D01*
X113177171Y-54250825D01*
X113049175Y-54122829D01*
X112918533Y-54027912D01*
X113639028Y-53307417D01*
X113547380Y-53232856D01*
X113295138Y-53079464D01*
X113024363Y-52961850D01*
X112740090Y-52882200D01*
X112740083Y-52882199D01*
X112447612Y-52842000D01*
X112152388Y-52842000D01*
X111859916Y-52882199D01*
X111859909Y-52882200D01*
X111575636Y-52961850D01*
X111304861Y-53079464D01*
X111052620Y-53232856D01*
X111052618Y-53232857D01*
X110960970Y-53307417D01*
X111681466Y-54027913D01*
X111550825Y-54122829D01*
X111422829Y-54250825D01*
X111327913Y-54381466D01*
X110605250Y-53658803D01*
X110451850Y-53876124D01*
X110450377Y-53878547D01*
X110449714Y-53879150D01*
X110449412Y-53879579D01*
X110449317Y-53879512D01*
X110398720Y-53925594D01*
X110329829Y-53937245D01*
X110265575Y-53909801D01*
X110227392Y-53855059D01*
X110225789Y-53850477D01*
X110129815Y-53697737D01*
X110002262Y-53570184D01*
X110002257Y-53570180D01*
X109983271Y-53558250D01*
X109936981Y-53505915D01*
X109926334Y-53436861D01*
X109931537Y-53414260D01*
X109965174Y-53312753D01*
X109975500Y-53211677D01*
X109975499Y-52787595D01*
X109995183Y-52720557D01*
X110011813Y-52699920D01*
X110568713Y-52143021D01*
X110568716Y-52143020D01*
X110680520Y-52031216D01*
X110730639Y-51944404D01*
X110759577Y-51894285D01*
X110800500Y-51741558D01*
X110800500Y-51583443D01*
X110800500Y-49574846D01*
X110820185Y-49507807D01*
X110872989Y-49462052D01*
X110942147Y-49452108D01*
X111005703Y-49481133D01*
X111024819Y-49501961D01*
X111032143Y-49512042D01*
X111187958Y-49667857D01*
X111366239Y-49797386D01*
X111562589Y-49897432D01*
X111772164Y-49965526D01*
X111989819Y-50000000D01*
X112750000Y-50000000D01*
X112750000Y-49100000D01*
X113250000Y-49100000D01*
X113250000Y-50000000D01*
G37*
%TD.AperFunction*%
%TA.AperFunction,Conductor*%
G36*
X108043334Y-47652870D02*
G01*
X108087681Y-47681371D01*
X108126650Y-47720340D01*
X108273484Y-47810908D01*
X108437247Y-47865174D01*
X108538323Y-47875500D01*
X108949902Y-47875499D01*
X109016941Y-47895183D01*
X109037583Y-47911818D01*
X109563181Y-48437416D01*
X109596666Y-48498739D01*
X109599500Y-48525097D01*
X109599500Y-50008797D01*
X109579815Y-50075836D01*
X109527011Y-50121591D01*
X109457853Y-50131535D01*
X109436499Y-50126504D01*
X109387652Y-50110319D01*
X109286654Y-50100000D01*
X109250000Y-50100000D01*
X109250000Y-51263500D01*
X109230315Y-51330539D01*
X109177511Y-51376294D01*
X109126000Y-51387500D01*
X107374000Y-51387500D01*
X107306961Y-51367815D01*
X107261206Y-51315011D01*
X107250000Y-51263500D01*
X107250000Y-50887500D01*
X107750000Y-50887500D01*
X108750000Y-50887500D01*
X108750000Y-50100000D01*
X108713361Y-50100000D01*
X108713343Y-50100001D01*
X108612347Y-50110319D01*
X108448699Y-50164546D01*
X108448694Y-50164548D01*
X108315097Y-50246953D01*
X108247705Y-50265393D01*
X108184903Y-50246953D01*
X108051305Y-50164548D01*
X108051300Y-50164546D01*
X107887652Y-50110319D01*
X107786654Y-50100000D01*
X107750000Y-50100000D01*
X107750000Y-50887500D01*
X107250000Y-50887500D01*
X107250000Y-50100000D01*
X107213361Y-50100000D01*
X107213343Y-50100001D01*
X107112347Y-50110319D01*
X106948699Y-50164546D01*
X106948688Y-50164551D01*
X106801965Y-50255052D01*
X106801961Y-50255055D01*
X106680055Y-50376961D01*
X106680052Y-50376965D01*
X106589551Y-50523688D01*
X106589546Y-50523699D01*
X106535319Y-50687347D01*
X106525000Y-50788345D01*
X106525000Y-50837106D01*
X106505315Y-50904145D01*
X106452511Y-50949900D01*
X106383353Y-50959844D01*
X106319797Y-50930819D01*
X106296007Y-50903079D01*
X106229817Y-50797739D01*
X106102262Y-50670184D01*
X105949523Y-50574211D01*
X105779254Y-50514631D01*
X105779249Y-50514630D01*
X105600004Y-50494435D01*
X105599996Y-50494435D01*
X105420750Y-50514630D01*
X105420745Y-50514631D01*
X105250476Y-50574211D01*
X105097737Y-50670184D01*
X104970184Y-50797737D01*
X104874210Y-50950478D01*
X104814630Y-51120750D01*
X104804837Y-51207667D01*
X104777770Y-51272081D01*
X104769301Y-51281461D01*
X104746484Y-51304279D01*
X104746480Y-51304284D01*
X104711952Y-51364090D01*
X104711951Y-51364092D01*
X104667424Y-51441213D01*
X104633151Y-51569120D01*
X104601057Y-51624707D01*
X104570048Y-51655716D01*
X104508725Y-51689201D01*
X104439033Y-51684217D01*
X104406882Y-51666412D01*
X104377590Y-51643936D01*
X104378954Y-51642157D01*
X104338781Y-51600020D01*
X104336783Y-51591784D01*
X104324999Y-51581450D01*
X104268092Y-51588941D01*
X104235724Y-51588940D01*
X104126050Y-51574501D01*
X104126045Y-51574500D01*
X104126040Y-51574500D01*
X103873960Y-51574500D01*
X103873952Y-51574500D01*
X103766186Y-51588689D01*
X103733814Y-51588689D01*
X103626047Y-51574500D01*
X103626040Y-51574500D01*
X103373960Y-51574500D01*
X103373952Y-51574500D01*
X103271774Y-51587953D01*
X103259001Y-51589635D01*
X103259000Y-51589635D01*
X103258997Y-51589636D01*
X103115962Y-51648882D01*
X103115960Y-51648884D01*
X103099252Y-51661704D01*
X103034082Y-51686896D01*
X102965638Y-51672856D01*
X102915650Y-51624040D01*
X102899989Y-51555948D01*
X102923627Y-51490199D01*
X102936081Y-51475652D01*
X106527496Y-47884238D01*
X106588817Y-47850755D01*
X106654177Y-47854215D01*
X106687247Y-47865174D01*
X106788323Y-47875500D01*
X107461676Y-47875499D01*
X107461684Y-47875498D01*
X107461687Y-47875498D01*
X107539845Y-47867514D01*
X107562753Y-47865174D01*
X107726516Y-47810908D01*
X107873350Y-47720340D01*
X107912319Y-47681371D01*
X107973642Y-47647886D01*
X108043334Y-47652870D01*
G37*
%TD.AperFunction*%
%TD*%
M02*
