G04 #@! TF.GenerationSoftware,KiCad,Pcbnew,(6.99.0-2501-g45393f228a)*
G04 #@! TF.CreationDate,2022-07-20T10:21:51-05:00*
G04 #@! TF.ProjectId,tardis,74617264-6973-42e6-9b69-6361645f7063,rev?*
G04 #@! TF.SameCoordinates,Original*
G04 #@! TF.FileFunction,Copper,L1,Top*
G04 #@! TF.FilePolarity,Positive*
%FSLAX46Y46*%
G04 Gerber Fmt 4.6, Leading zero omitted, Abs format (unit mm)*
G04 Created by KiCad (PCBNEW (6.99.0-2501-g45393f228a)) date 2022-07-20 10:21:51*
%MOMM*%
%LPD*%
G01*
G04 APERTURE LIST*
G04 #@! TA.AperFunction,ViaPad*
%ADD10C,0.800000*%
G04 #@! TD*
G04 APERTURE END LIST*
D10*
X167000000Y-152200000D03*
X123000000Y-152200000D03*
G04 #@! TA.AperFunction,NonConductor*
G36*
X145128230Y-65416097D02*
G01*
X147034222Y-66464393D01*
X147084271Y-66514748D01*
X147099500Y-66574796D01*
X147099500Y-69599871D01*
X147099462Y-69599940D01*
X147099500Y-69600072D01*
X147099500Y-69600099D01*
X147099527Y-69600164D01*
X147099577Y-69600338D01*
X147099605Y-69600353D01*
X147099617Y-69600383D01*
X147099784Y-69600452D01*
X147099846Y-69600486D01*
X147099874Y-69600489D01*
X147100000Y-69600541D01*
X147100072Y-69600511D01*
X147112496Y-69601891D01*
X147112498Y-69601892D01*
X147887414Y-69687994D01*
X147952910Y-69715396D01*
X147993193Y-69773858D01*
X147999500Y-69813223D01*
X147999500Y-70799855D01*
X147999467Y-70799907D01*
X147999500Y-70800055D01*
X147999500Y-70800099D01*
X147999521Y-70800151D01*
X147999557Y-70800311D01*
X147999598Y-70800337D01*
X147999617Y-70800383D01*
X147999767Y-70800445D01*
X147999816Y-70800476D01*
X147999862Y-70800484D01*
X148000000Y-70800541D01*
X148000056Y-70800518D01*
X148012061Y-70802615D01*
X148012063Y-70802616D01*
X160636615Y-73008110D01*
X164495184Y-73682197D01*
X164558846Y-73713624D01*
X164595411Y-73774480D01*
X164599500Y-73806317D01*
X164599500Y-76299901D01*
X164599459Y-76300000D01*
X164599500Y-76300099D01*
X164599617Y-76300383D01*
X164600000Y-76300541D01*
X164600099Y-76300500D01*
X166173500Y-76300500D01*
X166241621Y-76320502D01*
X166288114Y-76374158D01*
X166299500Y-76426500D01*
X166299500Y-79099901D01*
X166299459Y-79100000D01*
X166299500Y-79100099D01*
X166299617Y-79100383D01*
X166300000Y-79100541D01*
X166300099Y-79100500D01*
X167673500Y-79100500D01*
X167741621Y-79120502D01*
X167788114Y-79174158D01*
X167799500Y-79226500D01*
X167799500Y-85273500D01*
X167779498Y-85341621D01*
X167725842Y-85388114D01*
X167673500Y-85399500D01*
X166300099Y-85399500D01*
X166300000Y-85399459D01*
X166299901Y-85399500D01*
X166299617Y-85399617D01*
X166299459Y-85400000D01*
X166299500Y-85400099D01*
X166299500Y-149299963D01*
X166299475Y-149300131D01*
X166299561Y-149300247D01*
X166299617Y-149300383D01*
X166299775Y-149300448D01*
X166312192Y-149307898D01*
X167738326Y-150163579D01*
X167786449Y-150215778D01*
X167799500Y-150271623D01*
X167799500Y-152873500D01*
X167779498Y-152941621D01*
X167725842Y-152988114D01*
X167673500Y-152999500D01*
X122326500Y-152999500D01*
X122258379Y-152979498D01*
X122211886Y-152925842D01*
X122200500Y-152873500D01*
X122200500Y-150271623D01*
X122220502Y-150203502D01*
X122261674Y-150163579D01*
X123677406Y-149314140D01*
X123700228Y-149300447D01*
X123700383Y-149300383D01*
X123700438Y-149300250D01*
X123700526Y-149300131D01*
X123700500Y-149299959D01*
X123700500Y-85400099D01*
X123700541Y-85400000D01*
X123700383Y-85399617D01*
X123700099Y-85399500D01*
X123700000Y-85399459D01*
X123699901Y-85399500D01*
X122326500Y-85399500D01*
X122258379Y-85379498D01*
X122211886Y-85325842D01*
X122200500Y-85273500D01*
X122200500Y-79226500D01*
X122220502Y-79158379D01*
X122274158Y-79111886D01*
X122326500Y-79100500D01*
X123699901Y-79100500D01*
X123700000Y-79100541D01*
X123700099Y-79100500D01*
X123700383Y-79100383D01*
X123700541Y-79100000D01*
X123700500Y-79099901D01*
X123700500Y-76426500D01*
X123720502Y-76358379D01*
X123774158Y-76311886D01*
X123826500Y-76300500D01*
X125399901Y-76300500D01*
X125400000Y-76300541D01*
X125400099Y-76300500D01*
X125400383Y-76300383D01*
X125400541Y-76300000D01*
X125400500Y-76299901D01*
X125400500Y-73806317D01*
X125420502Y-73738196D01*
X125474158Y-73691703D01*
X125504815Y-73682197D01*
X141999944Y-70800518D01*
X142000000Y-70800541D01*
X142000139Y-70800484D01*
X142000183Y-70800476D01*
X142000230Y-70800446D01*
X142000383Y-70800383D01*
X142000402Y-70800337D01*
X142000443Y-70800311D01*
X142000478Y-70800153D01*
X142000500Y-70800099D01*
X142000500Y-70800052D01*
X142000532Y-70799907D01*
X142000500Y-70799856D01*
X142000500Y-69813223D01*
X142020502Y-69745102D01*
X142074158Y-69698609D01*
X142112586Y-69687994D01*
X142245050Y-69673276D01*
X142899928Y-69600511D01*
X142900000Y-69600541D01*
X142900126Y-69600489D01*
X142900154Y-69600486D01*
X142900216Y-69600452D01*
X142900383Y-69600383D01*
X142900395Y-69600353D01*
X142900423Y-69600338D01*
X142900473Y-69600164D01*
X142900500Y-69600099D01*
X142900500Y-69600072D01*
X142900538Y-69599940D01*
X142900500Y-69599871D01*
X142900500Y-69300000D01*
X144399459Y-69300000D01*
X144399500Y-69300099D01*
X144399617Y-69300383D01*
X144400000Y-69300541D01*
X144400099Y-69300500D01*
X145499901Y-69300500D01*
X145500000Y-69300541D01*
X145500099Y-69300500D01*
X145500383Y-69300383D01*
X145500541Y-69300000D01*
X145500500Y-69299901D01*
X145500500Y-67300099D01*
X145500541Y-67300000D01*
X145500383Y-67299617D01*
X145500099Y-67299500D01*
X145500000Y-67299459D01*
X145499901Y-67299500D01*
X144400099Y-67299500D01*
X144400000Y-67299459D01*
X144399901Y-67299500D01*
X144399617Y-67299617D01*
X144399459Y-67300000D01*
X144399500Y-67300099D01*
X144399500Y-69299901D01*
X144399459Y-69300000D01*
X142900500Y-69300000D01*
X142900500Y-66574796D01*
X142920502Y-66506675D01*
X142965778Y-66464393D01*
X144871771Y-65416097D01*
X144932493Y-65400500D01*
X145067508Y-65400500D01*
X145128230Y-65416097D01*
G37*
G04 #@! TD.AperFunction*
M02*
