G04 #@! TF.GenerationSoftware,KiCad,Pcbnew,(6.99.0-2501-g45393f228a)*
G04 #@! TF.CreationDate,2022-07-20T10:21:51-05:00*
G04 #@! TF.ProjectId,tardis,74617264-6973-42e6-9b69-6361645f7063,rev?*
G04 #@! TF.SameCoordinates,Original*
G04 #@! TF.FileFunction,Legend,Top*
G04 #@! TF.FilePolarity,Positive*
%FSLAX46Y46*%
G04 Gerber Fmt 4.6, Leading zero omitted, Abs format (unit mm)*
G04 Created by KiCad (PCBNEW (6.99.0-2501-g45393f228a)) date 2022-07-20 10:21:51*
%MOMM*%
%LPD*%
G01*
G04 APERTURE LIST*
%ADD10C,0.400000*%
%ADD11C,0.150000*%
%ADD12C,1.000000*%
%ADD13C,0.856025*%
%ADD14C,0.500000*%
%ADD15C,0.100000*%
%ADD16C,0.250000*%
G04 APERTURE END LIST*
D10*
X167600000Y-150300000D02*
X166100000Y-149400000D01*
X122400000Y-150300000D02*
X122400000Y-152800000D01*
X122400000Y-152800000D02*
X145200000Y-152800000D01*
X167600000Y-79300000D02*
X166100000Y-79300000D01*
X143100000Y-66600000D02*
X143100000Y-69800000D01*
X128500000Y-93500000D02*
X131700000Y-93500000D01*
X131700000Y-93500000D02*
X131700000Y-99300000D01*
X131700000Y-99300000D02*
X128500000Y-99300000D01*
X128500000Y-99300000D02*
X128500000Y-93500000D01*
X132750000Y-93500000D02*
X135950000Y-93500000D01*
X135950000Y-93500000D02*
X135950000Y-99300000D01*
X135950000Y-99300000D02*
X132750000Y-99300000D01*
X132750000Y-99300000D02*
X132750000Y-93500000D01*
X123900000Y-149400000D02*
X122400000Y-150300000D01*
D11*
X147300000Y-106800000D02*
X147900000Y-106800000D01*
X147900000Y-106800000D02*
X147900000Y-110800000D01*
X147900000Y-110800000D02*
X147300000Y-110800000D01*
X147300000Y-110800000D02*
X147300000Y-106800000D01*
G36*
X147300000Y-106800000D02*
G01*
X147900000Y-106800000D01*
X147900000Y-110800000D01*
X147300000Y-110800000D01*
X147300000Y-106800000D01*
G37*
D10*
X144900000Y-65600000D02*
X143100000Y-66600000D01*
X125600000Y-73900000D02*
X125600000Y-76500000D01*
X128700000Y-134800000D02*
X140000000Y-134800000D01*
X140000000Y-134800000D02*
X140000000Y-148200000D01*
X140000000Y-148200000D02*
X128700000Y-148200000D01*
X128700000Y-148200000D02*
X128700000Y-134800000D01*
X150100000Y-134800000D02*
X161400000Y-134800000D01*
X161400000Y-134800000D02*
X161400000Y-148200000D01*
X161400000Y-148200000D02*
X150100000Y-148200000D01*
X150100000Y-148200000D02*
X150100000Y-134800000D01*
X167600000Y-85200000D02*
X167600000Y-79300000D01*
X164400000Y-73900000D02*
X147800000Y-71000000D01*
X147800000Y-71000000D02*
X147800000Y-69900000D01*
X122400000Y-79300000D02*
X122400000Y-85200000D01*
X158300000Y-93500000D02*
X161500000Y-93500000D01*
X161500000Y-93500000D02*
X161500000Y-99300000D01*
X161500000Y-99300000D02*
X158300000Y-99300000D01*
X158300000Y-99300000D02*
X158300000Y-93500000D01*
X142200000Y-71000000D02*
X125600000Y-73900000D01*
X143100000Y-69800000D02*
X142200000Y-69900000D01*
X128700000Y-118450000D02*
X140000000Y-118450000D01*
X140000000Y-118450000D02*
X140000000Y-131850000D01*
X140000000Y-131850000D02*
X128700000Y-131850000D01*
X128700000Y-131850000D02*
X128700000Y-118450000D01*
X146900000Y-69800000D02*
X146900000Y-66600000D01*
X166100000Y-85200000D02*
X167600000Y-85200000D01*
D12*
X128300000Y-102100000D02*
X140300000Y-102100000D01*
X140300000Y-102100000D02*
X140300000Y-115500000D01*
X140300000Y-115500000D02*
X128300000Y-115500000D01*
X128300000Y-115500000D02*
X128300000Y-102100000D01*
D13*
X148028012Y-117100000D02*
G75*
G03*
X148028012Y-117100000I-428012J0D01*
G01*
D10*
X144800000Y-152800000D02*
X167600000Y-152800000D01*
X144200000Y-67100000D02*
X145700000Y-67100000D01*
X145700000Y-67100000D02*
X145700000Y-69500000D01*
X145700000Y-69500000D02*
X144200000Y-69500000D01*
X144200000Y-69500000D02*
X144200000Y-67100000D01*
X167600000Y-152800000D02*
X167600000Y-150300000D01*
X123900000Y-79300000D02*
X122400000Y-79300000D01*
X126700000Y-76500000D02*
X163200000Y-76500000D01*
X137100000Y-86700000D02*
X140300000Y-86700000D01*
X140300000Y-86700000D02*
X140300000Y-92500000D01*
X140300000Y-92500000D02*
X137100000Y-92500000D01*
X137100000Y-92500000D02*
X137100000Y-86700000D01*
X166100000Y-79300000D02*
X166100000Y-76500000D01*
X132850000Y-86700000D02*
X136050000Y-86700000D01*
X136050000Y-86700000D02*
X136050000Y-92500000D01*
X136050000Y-92500000D02*
X132850000Y-92500000D01*
X132850000Y-92500000D02*
X132850000Y-86700000D01*
X150100000Y-102100000D02*
X161400000Y-102100000D01*
X161400000Y-102100000D02*
X161400000Y-115500000D01*
X161400000Y-115500000D02*
X150100000Y-115500000D01*
X150100000Y-115500000D02*
X150100000Y-102100000D01*
X166100000Y-149400000D02*
X166100000Y-85200000D01*
X144900000Y-65600000D02*
X145100000Y-65600000D01*
X125200000Y-80100000D02*
X164900000Y-80100000D01*
X164900000Y-80100000D02*
X164900000Y-84300000D01*
X164900000Y-84300000D02*
X125200000Y-84300000D01*
X125200000Y-84300000D02*
X125200000Y-80100000D01*
X154050000Y-93500000D02*
X157250000Y-93500000D01*
X157250000Y-93500000D02*
X157250000Y-99300000D01*
X157250000Y-99300000D02*
X154050000Y-99300000D01*
X154050000Y-99300000D02*
X154050000Y-93500000D01*
X142200000Y-69900000D02*
X142200000Y-71000000D01*
X123900000Y-85200000D02*
X123900000Y-149400000D01*
X166100000Y-76500000D02*
X164400000Y-76500000D01*
X164400000Y-76500000D02*
X164400000Y-73900000D01*
X149800000Y-93500000D02*
X153000000Y-93500000D01*
X153000000Y-93500000D02*
X153000000Y-99300000D01*
X153000000Y-99300000D02*
X149800000Y-99300000D01*
X149800000Y-99300000D02*
X149800000Y-93500000D01*
X128600000Y-86700000D02*
X131800000Y-86700000D01*
X131800000Y-86700000D02*
X131800000Y-92500000D01*
X131800000Y-92500000D02*
X128600000Y-92500000D01*
X128600000Y-92500000D02*
X128600000Y-86700000D01*
X125600000Y-76500000D02*
X123900000Y-76500000D01*
X154150000Y-86700000D02*
X157350000Y-86700000D01*
X157350000Y-86700000D02*
X157350000Y-92500000D01*
X157350000Y-92500000D02*
X154150000Y-92500000D01*
X154150000Y-92500000D02*
X154150000Y-86700000D01*
X146900000Y-66600000D02*
X145100000Y-65600000D01*
X149900000Y-86700000D02*
X153100000Y-86700000D01*
X153100000Y-86700000D02*
X153100000Y-92500000D01*
X153100000Y-92500000D02*
X149900000Y-92500000D01*
X149900000Y-92500000D02*
X149900000Y-86700000D01*
X158400000Y-86700000D02*
X161600000Y-86700000D01*
X161600000Y-86700000D02*
X161600000Y-92500000D01*
X161600000Y-92500000D02*
X158400000Y-92500000D01*
X158400000Y-92500000D02*
X158400000Y-86700000D01*
X123900000Y-76500000D02*
X123900000Y-79300000D01*
X150100000Y-118450000D02*
X161400000Y-118450000D01*
X161400000Y-118450000D02*
X161400000Y-131850000D01*
X161400000Y-131850000D02*
X150100000Y-131850000D01*
X150100000Y-131850000D02*
X150100000Y-118450000D01*
X137000000Y-93500000D02*
X140200000Y-93500000D01*
X140200000Y-93500000D02*
X140200000Y-99300000D01*
X140200000Y-99300000D02*
X137000000Y-99300000D01*
X137000000Y-99300000D02*
X137000000Y-93500000D01*
X122400000Y-85200000D02*
X123900000Y-85200000D01*
X144600000Y-86700000D02*
X145500000Y-86700000D01*
X145500000Y-86700000D02*
X145500000Y-148300000D01*
X145500000Y-148300000D02*
X144600000Y-148300000D01*
X144600000Y-148300000D02*
X144600000Y-86700000D01*
X147800000Y-69900000D02*
X146900000Y-69800000D01*
D11*
X131921429Y-108559878D02*
X131921429Y-107559878D01*
X131921429Y-107559878D02*
X132302381Y-107559878D01*
X132302381Y-107559878D02*
X132397619Y-107607498D01*
X132397619Y-107607498D02*
X132445238Y-107655117D01*
X132445238Y-107655117D02*
X132492857Y-107750355D01*
X132492857Y-107750355D02*
X132492857Y-107893212D01*
X132492857Y-107893212D02*
X132445238Y-107988450D01*
X132445238Y-107988450D02*
X132397619Y-108036069D01*
X132397619Y-108036069D02*
X132302381Y-108083688D01*
X132302381Y-108083688D02*
X131921429Y-108083688D01*
X132921429Y-107559878D02*
X132921429Y-108369402D01*
X132921429Y-108369402D02*
X132969048Y-108464640D01*
X132969048Y-108464640D02*
X133016667Y-108512259D01*
X133016667Y-108512259D02*
X133111905Y-108559878D01*
X133111905Y-108559878D02*
X133302381Y-108559878D01*
X133302381Y-108559878D02*
X133397619Y-108512259D01*
X133397619Y-108512259D02*
X133445238Y-108464640D01*
X133445238Y-108464640D02*
X133492857Y-108369402D01*
X133492857Y-108369402D02*
X133492857Y-107559878D01*
X134302381Y-108036069D02*
X134445238Y-108083688D01*
X134445238Y-108083688D02*
X134492857Y-108131307D01*
X134492857Y-108131307D02*
X134540476Y-108226545D01*
X134540476Y-108226545D02*
X134540476Y-108369402D01*
X134540476Y-108369402D02*
X134492857Y-108464640D01*
X134492857Y-108464640D02*
X134445238Y-108512259D01*
X134445238Y-108512259D02*
X134350000Y-108559878D01*
X134350000Y-108559878D02*
X133969048Y-108559878D01*
X133969048Y-108559878D02*
X133969048Y-107559878D01*
X133969048Y-107559878D02*
X134302381Y-107559878D01*
X134302381Y-107559878D02*
X134397619Y-107607498D01*
X134397619Y-107607498D02*
X134445238Y-107655117D01*
X134445238Y-107655117D02*
X134492857Y-107750355D01*
X134492857Y-107750355D02*
X134492857Y-107845593D01*
X134492857Y-107845593D02*
X134445238Y-107940831D01*
X134445238Y-107940831D02*
X134397619Y-107988450D01*
X134397619Y-107988450D02*
X134302381Y-108036069D01*
X134302381Y-108036069D02*
X133969048Y-108036069D01*
X135445238Y-108559878D02*
X134969048Y-108559878D01*
X134969048Y-108559878D02*
X134969048Y-107559878D01*
X135778572Y-108559878D02*
X135778572Y-107559878D01*
X136826190Y-108464640D02*
X136778571Y-108512259D01*
X136778571Y-108512259D02*
X136635714Y-108559878D01*
X136635714Y-108559878D02*
X136540476Y-108559878D01*
X136540476Y-108559878D02*
X136397619Y-108512259D01*
X136397619Y-108512259D02*
X136302381Y-108417021D01*
X136302381Y-108417021D02*
X136254762Y-108321783D01*
X136254762Y-108321783D02*
X136207143Y-108131307D01*
X136207143Y-108131307D02*
X136207143Y-107988450D01*
X136207143Y-107988450D02*
X136254762Y-107797974D01*
X136254762Y-107797974D02*
X136302381Y-107702736D01*
X136302381Y-107702736D02*
X136397619Y-107607498D01*
X136397619Y-107607498D02*
X136540476Y-107559878D01*
X136540476Y-107559878D02*
X136635714Y-107559878D01*
X136635714Y-107559878D02*
X136778571Y-107607498D01*
X136778571Y-107607498D02*
X136826190Y-107655117D01*
D14*
X155378571Y-82111428D02*
X155735714Y-82230476D01*
X155735714Y-82230476D02*
X155854761Y-82349523D01*
X155854761Y-82349523D02*
X155973809Y-82587619D01*
X155973809Y-82587619D02*
X155973809Y-82944761D01*
X155973809Y-82944761D02*
X155854761Y-83182857D01*
X155854761Y-83182857D02*
X155735714Y-83301904D01*
X155735714Y-83301904D02*
X155497619Y-83420952D01*
X155497619Y-83420952D02*
X154545238Y-83420952D01*
X154545238Y-83420952D02*
X154545238Y-80920952D01*
X154545238Y-80920952D02*
X155378571Y-80920952D01*
X155378571Y-80920952D02*
X155616666Y-81040000D01*
X155616666Y-81040000D02*
X155735714Y-81159047D01*
X155735714Y-81159047D02*
X155854761Y-81397142D01*
X155854761Y-81397142D02*
X155854761Y-81635238D01*
X155854761Y-81635238D02*
X155735714Y-81873333D01*
X155735714Y-81873333D02*
X155616666Y-81992380D01*
X155616666Y-81992380D02*
X155378571Y-82111428D01*
X155378571Y-82111428D02*
X154545238Y-82111428D01*
X157521428Y-80920952D02*
X157997619Y-80920952D01*
X157997619Y-80920952D02*
X158235714Y-81040000D01*
X158235714Y-81040000D02*
X158473809Y-81278095D01*
X158473809Y-81278095D02*
X158592857Y-81754285D01*
X158592857Y-81754285D02*
X158592857Y-82587619D01*
X158592857Y-82587619D02*
X158473809Y-83063809D01*
X158473809Y-83063809D02*
X158235714Y-83301904D01*
X158235714Y-83301904D02*
X157997619Y-83420952D01*
X157997619Y-83420952D02*
X157521428Y-83420952D01*
X157521428Y-83420952D02*
X157283333Y-83301904D01*
X157283333Y-83301904D02*
X157045238Y-83063809D01*
X157045238Y-83063809D02*
X156926190Y-82587619D01*
X156926190Y-82587619D02*
X156926190Y-81754285D01*
X156926190Y-81754285D02*
X157045238Y-81278095D01*
X157045238Y-81278095D02*
X157283333Y-81040000D01*
X157283333Y-81040000D02*
X157521428Y-80920952D01*
X159426190Y-80920952D02*
X161092857Y-83420952D01*
X161092857Y-80920952D02*
X159426190Y-83420952D01*
X128372619Y-83420952D02*
X128372619Y-80920952D01*
X128372619Y-80920952D02*
X129325000Y-80920952D01*
X129325000Y-80920952D02*
X129563095Y-81040000D01*
X129563095Y-81040000D02*
X129682142Y-81159047D01*
X129682142Y-81159047D02*
X129801190Y-81397142D01*
X129801190Y-81397142D02*
X129801190Y-81754285D01*
X129801190Y-81754285D02*
X129682142Y-81992380D01*
X129682142Y-81992380D02*
X129563095Y-82111428D01*
X129563095Y-82111428D02*
X129325000Y-82230476D01*
X129325000Y-82230476D02*
X128372619Y-82230476D01*
X131348809Y-80920952D02*
X131825000Y-80920952D01*
X131825000Y-80920952D02*
X132063095Y-81040000D01*
X132063095Y-81040000D02*
X132301190Y-81278095D01*
X132301190Y-81278095D02*
X132420238Y-81754285D01*
X132420238Y-81754285D02*
X132420238Y-82587619D01*
X132420238Y-82587619D02*
X132301190Y-83063809D01*
X132301190Y-83063809D02*
X132063095Y-83301904D01*
X132063095Y-83301904D02*
X131825000Y-83420952D01*
X131825000Y-83420952D02*
X131348809Y-83420952D01*
X131348809Y-83420952D02*
X131110714Y-83301904D01*
X131110714Y-83301904D02*
X130872619Y-83063809D01*
X130872619Y-83063809D02*
X130753571Y-82587619D01*
X130753571Y-82587619D02*
X130753571Y-81754285D01*
X130753571Y-81754285D02*
X130872619Y-81278095D01*
X130872619Y-81278095D02*
X131110714Y-81040000D01*
X131110714Y-81040000D02*
X131348809Y-80920952D01*
X134682143Y-83420952D02*
X133491667Y-83420952D01*
X133491667Y-83420952D02*
X133491667Y-80920952D01*
X135515477Y-83420952D02*
X135515477Y-80920952D01*
X138134524Y-83182857D02*
X138015476Y-83301904D01*
X138015476Y-83301904D02*
X137658334Y-83420952D01*
X137658334Y-83420952D02*
X137420238Y-83420952D01*
X137420238Y-83420952D02*
X137063095Y-83301904D01*
X137063095Y-83301904D02*
X136825000Y-83063809D01*
X136825000Y-83063809D02*
X136705953Y-82825714D01*
X136705953Y-82825714D02*
X136586905Y-82349523D01*
X136586905Y-82349523D02*
X136586905Y-81992380D01*
X136586905Y-81992380D02*
X136705953Y-81516190D01*
X136705953Y-81516190D02*
X136825000Y-81278095D01*
X136825000Y-81278095D02*
X137063095Y-81040000D01*
X137063095Y-81040000D02*
X137420238Y-80920952D01*
X137420238Y-80920952D02*
X137658334Y-80920952D01*
X137658334Y-80920952D02*
X138015476Y-81040000D01*
X138015476Y-81040000D02*
X138134524Y-81159047D01*
X139205953Y-82111428D02*
X140039286Y-82111428D01*
X140396429Y-83420952D02*
X139205953Y-83420952D01*
X139205953Y-83420952D02*
X139205953Y-80920952D01*
X139205953Y-80920952D02*
X140396429Y-80920952D01*
D11*
X133088095Y-104842737D02*
X132754762Y-104842737D01*
X132754762Y-105366546D02*
X132754762Y-104366546D01*
X132754762Y-104366546D02*
X133230952Y-104366546D01*
X134183333Y-105366546D02*
X133850000Y-104890356D01*
X133611905Y-105366546D02*
X133611905Y-104366546D01*
X133611905Y-104366546D02*
X133992857Y-104366546D01*
X133992857Y-104366546D02*
X134088095Y-104414166D01*
X134088095Y-104414166D02*
X134135714Y-104461785D01*
X134135714Y-104461785D02*
X134183333Y-104557023D01*
X134183333Y-104557023D02*
X134183333Y-104699880D01*
X134183333Y-104699880D02*
X134135714Y-104795118D01*
X134135714Y-104795118D02*
X134088095Y-104842737D01*
X134088095Y-104842737D02*
X133992857Y-104890356D01*
X133992857Y-104890356D02*
X133611905Y-104890356D01*
X134611905Y-104842737D02*
X134945238Y-104842737D01*
X135088095Y-105366546D02*
X134611905Y-105366546D01*
X134611905Y-105366546D02*
X134611905Y-104366546D01*
X134611905Y-104366546D02*
X135088095Y-104366546D01*
X135516667Y-104842737D02*
X135850000Y-104842737D01*
X135992857Y-105366546D02*
X135516667Y-105366546D01*
X135516667Y-105366546D02*
X135516667Y-104366546D01*
X135516667Y-104366546D02*
X135992857Y-104366546D01*
X129250000Y-114382380D02*
X129250000Y-113382380D01*
X129250000Y-113382380D02*
X129630952Y-113382380D01*
X129630952Y-113382380D02*
X129726190Y-113430000D01*
X129726190Y-113430000D02*
X129773809Y-113477619D01*
X129773809Y-113477619D02*
X129821428Y-113572857D01*
X129821428Y-113572857D02*
X129821428Y-113715714D01*
X129821428Y-113715714D02*
X129773809Y-113810952D01*
X129773809Y-113810952D02*
X129726190Y-113858571D01*
X129726190Y-113858571D02*
X129630952Y-113906190D01*
X129630952Y-113906190D02*
X129250000Y-113906190D01*
X130250000Y-113382380D02*
X130250000Y-114191904D01*
X130250000Y-114191904D02*
X130297619Y-114287142D01*
X130297619Y-114287142D02*
X130345238Y-114334761D01*
X130345238Y-114334761D02*
X130440476Y-114382380D01*
X130440476Y-114382380D02*
X130630952Y-114382380D01*
X130630952Y-114382380D02*
X130726190Y-114334761D01*
X130726190Y-114334761D02*
X130773809Y-114287142D01*
X130773809Y-114287142D02*
X130821428Y-114191904D01*
X130821428Y-114191904D02*
X130821428Y-113382380D01*
X131773809Y-114382380D02*
X131297619Y-114382380D01*
X131297619Y-114382380D02*
X131297619Y-113382380D01*
X132583333Y-114382380D02*
X132107143Y-114382380D01*
X132107143Y-114382380D02*
X132107143Y-113382380D01*
X133373810Y-113382380D02*
X133945238Y-113382380D01*
X133659524Y-114382380D02*
X133659524Y-113382380D01*
X134469048Y-113382380D02*
X134659524Y-113382380D01*
X134659524Y-113382380D02*
X134754762Y-113430000D01*
X134754762Y-113430000D02*
X134850000Y-113525238D01*
X134850000Y-113525238D02*
X134897619Y-113715714D01*
X134897619Y-113715714D02*
X134897619Y-114049047D01*
X134897619Y-114049047D02*
X134850000Y-114239523D01*
X134850000Y-114239523D02*
X134754762Y-114334761D01*
X134754762Y-114334761D02*
X134659524Y-114382380D01*
X134659524Y-114382380D02*
X134469048Y-114382380D01*
X134469048Y-114382380D02*
X134373810Y-114334761D01*
X134373810Y-114334761D02*
X134278572Y-114239523D01*
X134278572Y-114239523D02*
X134230953Y-114049047D01*
X134230953Y-114049047D02*
X134230953Y-113715714D01*
X134230953Y-113715714D02*
X134278572Y-113525238D01*
X134278572Y-113525238D02*
X134373810Y-113430000D01*
X134373810Y-113430000D02*
X134469048Y-113382380D01*
X136116667Y-113382380D02*
X136307143Y-113382380D01*
X136307143Y-113382380D02*
X136402381Y-113430000D01*
X136402381Y-113430000D02*
X136497619Y-113525238D01*
X136497619Y-113525238D02*
X136545238Y-113715714D01*
X136545238Y-113715714D02*
X136545238Y-114049047D01*
X136545238Y-114049047D02*
X136497619Y-114239523D01*
X136497619Y-114239523D02*
X136402381Y-114334761D01*
X136402381Y-114334761D02*
X136307143Y-114382380D01*
X136307143Y-114382380D02*
X136116667Y-114382380D01*
X136116667Y-114382380D02*
X136021429Y-114334761D01*
X136021429Y-114334761D02*
X135926191Y-114239523D01*
X135926191Y-114239523D02*
X135878572Y-114049047D01*
X135878572Y-114049047D02*
X135878572Y-113715714D01*
X135878572Y-113715714D02*
X135926191Y-113525238D01*
X135926191Y-113525238D02*
X136021429Y-113430000D01*
X136021429Y-113430000D02*
X136116667Y-113382380D01*
X136973810Y-114382380D02*
X136973810Y-113382380D01*
X136973810Y-113382380D02*
X137354762Y-113382380D01*
X137354762Y-113382380D02*
X137450000Y-113430000D01*
X137450000Y-113430000D02*
X137497619Y-113477619D01*
X137497619Y-113477619D02*
X137545238Y-113572857D01*
X137545238Y-113572857D02*
X137545238Y-113715714D01*
X137545238Y-113715714D02*
X137497619Y-113810952D01*
X137497619Y-113810952D02*
X137450000Y-113858571D01*
X137450000Y-113858571D02*
X137354762Y-113906190D01*
X137354762Y-113906190D02*
X136973810Y-113906190D01*
X137973810Y-113858571D02*
X138307143Y-113858571D01*
X138450000Y-114382380D02*
X137973810Y-114382380D01*
X137973810Y-114382380D02*
X137973810Y-113382380D01*
X137973810Y-113382380D02*
X138450000Y-113382380D01*
X138878572Y-114382380D02*
X138878572Y-113382380D01*
X138878572Y-113382380D02*
X139450000Y-114382380D01*
X139450000Y-114382380D02*
X139450000Y-113382380D01*
D15*
X129523334Y-103647666D02*
X129523334Y-102947666D01*
X129523334Y-102947666D02*
X129790001Y-102947666D01*
X129790001Y-102947666D02*
X129856668Y-102981000D01*
X129856668Y-102981000D02*
X129890001Y-103014333D01*
X129890001Y-103014333D02*
X129923334Y-103081000D01*
X129923334Y-103081000D02*
X129923334Y-103181000D01*
X129923334Y-103181000D02*
X129890001Y-103247666D01*
X129890001Y-103247666D02*
X129856668Y-103281000D01*
X129856668Y-103281000D02*
X129790001Y-103314333D01*
X129790001Y-103314333D02*
X129523334Y-103314333D01*
X130356668Y-102947666D02*
X130490001Y-102947666D01*
X130490001Y-102947666D02*
X130556668Y-102981000D01*
X130556668Y-102981000D02*
X130623334Y-103047666D01*
X130623334Y-103047666D02*
X130656668Y-103181000D01*
X130656668Y-103181000D02*
X130656668Y-103414333D01*
X130656668Y-103414333D02*
X130623334Y-103547666D01*
X130623334Y-103547666D02*
X130556668Y-103614333D01*
X130556668Y-103614333D02*
X130490001Y-103647666D01*
X130490001Y-103647666D02*
X130356668Y-103647666D01*
X130356668Y-103647666D02*
X130290001Y-103614333D01*
X130290001Y-103614333D02*
X130223334Y-103547666D01*
X130223334Y-103547666D02*
X130190001Y-103414333D01*
X130190001Y-103414333D02*
X130190001Y-103181000D01*
X130190001Y-103181000D02*
X130223334Y-103047666D01*
X130223334Y-103047666D02*
X130290001Y-102981000D01*
X130290001Y-102981000D02*
X130356668Y-102947666D01*
X131290001Y-103647666D02*
X130956667Y-103647666D01*
X130956667Y-103647666D02*
X130956667Y-102947666D01*
X131523334Y-103647666D02*
X131523334Y-102947666D01*
X132256667Y-103581000D02*
X132223334Y-103614333D01*
X132223334Y-103614333D02*
X132123334Y-103647666D01*
X132123334Y-103647666D02*
X132056667Y-103647666D01*
X132056667Y-103647666D02*
X131956667Y-103614333D01*
X131956667Y-103614333D02*
X131890001Y-103547666D01*
X131890001Y-103547666D02*
X131856667Y-103481000D01*
X131856667Y-103481000D02*
X131823334Y-103347666D01*
X131823334Y-103347666D02*
X131823334Y-103247666D01*
X131823334Y-103247666D02*
X131856667Y-103114333D01*
X131856667Y-103114333D02*
X131890001Y-103047666D01*
X131890001Y-103047666D02*
X131956667Y-102981000D01*
X131956667Y-102981000D02*
X132056667Y-102947666D01*
X132056667Y-102947666D02*
X132123334Y-102947666D01*
X132123334Y-102947666D02*
X132223334Y-102981000D01*
X132223334Y-102981000D02*
X132256667Y-103014333D01*
X132556667Y-103281000D02*
X132790001Y-103281000D01*
X132890001Y-103647666D02*
X132556667Y-103647666D01*
X132556667Y-103647666D02*
X132556667Y-102947666D01*
X132556667Y-102947666D02*
X132890001Y-102947666D01*
X133510000Y-102947666D02*
X133910000Y-102947666D01*
X133710000Y-103647666D02*
X133710000Y-102947666D01*
X134143333Y-103281000D02*
X134376667Y-103281000D01*
X134476667Y-103647666D02*
X134143333Y-103647666D01*
X134143333Y-103647666D02*
X134143333Y-102947666D01*
X134143333Y-102947666D02*
X134476667Y-102947666D01*
X135110000Y-103647666D02*
X134776666Y-103647666D01*
X134776666Y-103647666D02*
X134776666Y-102947666D01*
X135343333Y-103281000D02*
X135576667Y-103281000D01*
X135676667Y-103647666D02*
X135343333Y-103647666D01*
X135343333Y-103647666D02*
X135343333Y-102947666D01*
X135343333Y-102947666D02*
X135676667Y-102947666D01*
X135976666Y-103647666D02*
X135976666Y-102947666D01*
X135976666Y-102947666D02*
X136243333Y-102947666D01*
X136243333Y-102947666D02*
X136310000Y-102981000D01*
X136310000Y-102981000D02*
X136343333Y-103014333D01*
X136343333Y-103014333D02*
X136376666Y-103081000D01*
X136376666Y-103081000D02*
X136376666Y-103181000D01*
X136376666Y-103181000D02*
X136343333Y-103247666D01*
X136343333Y-103247666D02*
X136310000Y-103281000D01*
X136310000Y-103281000D02*
X136243333Y-103314333D01*
X136243333Y-103314333D02*
X135976666Y-103314333D01*
X136676666Y-103647666D02*
X136676666Y-102947666D01*
X136676666Y-103281000D02*
X137076666Y-103281000D01*
X137076666Y-103647666D02*
X137076666Y-102947666D01*
X137543333Y-102947666D02*
X137676666Y-102947666D01*
X137676666Y-102947666D02*
X137743333Y-102981000D01*
X137743333Y-102981000D02*
X137809999Y-103047666D01*
X137809999Y-103047666D02*
X137843333Y-103181000D01*
X137843333Y-103181000D02*
X137843333Y-103414333D01*
X137843333Y-103414333D02*
X137809999Y-103547666D01*
X137809999Y-103547666D02*
X137743333Y-103614333D01*
X137743333Y-103614333D02*
X137676666Y-103647666D01*
X137676666Y-103647666D02*
X137543333Y-103647666D01*
X137543333Y-103647666D02*
X137476666Y-103614333D01*
X137476666Y-103614333D02*
X137409999Y-103547666D01*
X137409999Y-103547666D02*
X137376666Y-103414333D01*
X137376666Y-103414333D02*
X137376666Y-103181000D01*
X137376666Y-103181000D02*
X137409999Y-103047666D01*
X137409999Y-103047666D02*
X137476666Y-102981000D01*
X137476666Y-102981000D02*
X137543333Y-102947666D01*
X138143332Y-103647666D02*
X138143332Y-102947666D01*
X138143332Y-102947666D02*
X138543332Y-103647666D01*
X138543332Y-103647666D02*
X138543332Y-102947666D01*
X138876665Y-103281000D02*
X139109999Y-103281000D01*
X139209999Y-103647666D02*
X138876665Y-103647666D01*
X138876665Y-103647666D02*
X138876665Y-102947666D01*
X138876665Y-102947666D02*
X139209999Y-102947666D01*
X131630001Y-106474332D02*
X131396667Y-106474332D01*
X131396667Y-106840998D02*
X131396667Y-106140998D01*
X131396667Y-106140998D02*
X131730001Y-106140998D01*
X132130001Y-106140998D02*
X132263334Y-106140998D01*
X132263334Y-106140998D02*
X132330001Y-106174332D01*
X132330001Y-106174332D02*
X132396667Y-106240998D01*
X132396667Y-106240998D02*
X132430001Y-106374332D01*
X132430001Y-106374332D02*
X132430001Y-106607665D01*
X132430001Y-106607665D02*
X132396667Y-106740998D01*
X132396667Y-106740998D02*
X132330001Y-106807665D01*
X132330001Y-106807665D02*
X132263334Y-106840998D01*
X132263334Y-106840998D02*
X132130001Y-106840998D01*
X132130001Y-106840998D02*
X132063334Y-106807665D01*
X132063334Y-106807665D02*
X131996667Y-106740998D01*
X131996667Y-106740998D02*
X131963334Y-106607665D01*
X131963334Y-106607665D02*
X131963334Y-106374332D01*
X131963334Y-106374332D02*
X131996667Y-106240998D01*
X131996667Y-106240998D02*
X132063334Y-106174332D01*
X132063334Y-106174332D02*
X132130001Y-106140998D01*
X133130000Y-106840998D02*
X132896667Y-106507665D01*
X132730000Y-106840998D02*
X132730000Y-106140998D01*
X132730000Y-106140998D02*
X132996667Y-106140998D01*
X132996667Y-106140998D02*
X133063334Y-106174332D01*
X133063334Y-106174332D02*
X133096667Y-106207665D01*
X133096667Y-106207665D02*
X133130000Y-106274332D01*
X133130000Y-106274332D02*
X133130000Y-106374332D01*
X133130000Y-106374332D02*
X133096667Y-106440998D01*
X133096667Y-106440998D02*
X133063334Y-106474332D01*
X133063334Y-106474332D02*
X132996667Y-106507665D01*
X132996667Y-106507665D02*
X132730000Y-106507665D01*
X133850000Y-106140998D02*
X133850000Y-106707665D01*
X133850000Y-106707665D02*
X133883334Y-106774332D01*
X133883334Y-106774332D02*
X133916667Y-106807665D01*
X133916667Y-106807665D02*
X133983334Y-106840998D01*
X133983334Y-106840998D02*
X134116667Y-106840998D01*
X134116667Y-106840998D02*
X134183334Y-106807665D01*
X134183334Y-106807665D02*
X134216667Y-106774332D01*
X134216667Y-106774332D02*
X134250000Y-106707665D01*
X134250000Y-106707665D02*
X134250000Y-106140998D01*
X134550000Y-106807665D02*
X134650000Y-106840998D01*
X134650000Y-106840998D02*
X134816667Y-106840998D01*
X134816667Y-106840998D02*
X134883333Y-106807665D01*
X134883333Y-106807665D02*
X134916667Y-106774332D01*
X134916667Y-106774332D02*
X134950000Y-106707665D01*
X134950000Y-106707665D02*
X134950000Y-106640998D01*
X134950000Y-106640998D02*
X134916667Y-106574332D01*
X134916667Y-106574332D02*
X134883333Y-106540998D01*
X134883333Y-106540998D02*
X134816667Y-106507665D01*
X134816667Y-106507665D02*
X134683333Y-106474332D01*
X134683333Y-106474332D02*
X134616667Y-106440998D01*
X134616667Y-106440998D02*
X134583333Y-106407665D01*
X134583333Y-106407665D02*
X134550000Y-106340998D01*
X134550000Y-106340998D02*
X134550000Y-106274332D01*
X134550000Y-106274332D02*
X134583333Y-106207665D01*
X134583333Y-106207665D02*
X134616667Y-106174332D01*
X134616667Y-106174332D02*
X134683333Y-106140998D01*
X134683333Y-106140998D02*
X134850000Y-106140998D01*
X134850000Y-106140998D02*
X134950000Y-106174332D01*
X135250000Y-106474332D02*
X135483334Y-106474332D01*
X135583334Y-106840998D02*
X135250000Y-106840998D01*
X135250000Y-106840998D02*
X135250000Y-106140998D01*
X135250000Y-106140998D02*
X135583334Y-106140998D01*
X136436667Y-106140998D02*
X136570000Y-106140998D01*
X136570000Y-106140998D02*
X136636667Y-106174332D01*
X136636667Y-106174332D02*
X136703333Y-106240998D01*
X136703333Y-106240998D02*
X136736667Y-106374332D01*
X136736667Y-106374332D02*
X136736667Y-106607665D01*
X136736667Y-106607665D02*
X136703333Y-106740998D01*
X136703333Y-106740998D02*
X136636667Y-106807665D01*
X136636667Y-106807665D02*
X136570000Y-106840998D01*
X136570000Y-106840998D02*
X136436667Y-106840998D01*
X136436667Y-106840998D02*
X136370000Y-106807665D01*
X136370000Y-106807665D02*
X136303333Y-106740998D01*
X136303333Y-106740998D02*
X136270000Y-106607665D01*
X136270000Y-106607665D02*
X136270000Y-106374332D01*
X136270000Y-106374332D02*
X136303333Y-106240998D01*
X136303333Y-106240998D02*
X136370000Y-106174332D01*
X136370000Y-106174332D02*
X136436667Y-106140998D01*
X137270000Y-106474332D02*
X137036666Y-106474332D01*
X137036666Y-106840998D02*
X137036666Y-106140998D01*
X137036666Y-106140998D02*
X137370000Y-106140998D01*
X131442857Y-111397020D02*
X131538095Y-111397020D01*
X131538095Y-111397020D02*
X131585714Y-111420830D01*
X131585714Y-111420830D02*
X131633333Y-111468449D01*
X131633333Y-111468449D02*
X131657143Y-111563687D01*
X131657143Y-111563687D02*
X131657143Y-111730353D01*
X131657143Y-111730353D02*
X131633333Y-111825591D01*
X131633333Y-111825591D02*
X131585714Y-111873210D01*
X131585714Y-111873210D02*
X131538095Y-111897020D01*
X131538095Y-111897020D02*
X131442857Y-111897020D01*
X131442857Y-111897020D02*
X131395238Y-111873210D01*
X131395238Y-111873210D02*
X131347619Y-111825591D01*
X131347619Y-111825591D02*
X131323810Y-111730353D01*
X131323810Y-111730353D02*
X131323810Y-111563687D01*
X131323810Y-111563687D02*
X131347619Y-111468449D01*
X131347619Y-111468449D02*
X131395238Y-111420830D01*
X131395238Y-111420830D02*
X131442857Y-111397020D01*
X132038096Y-111635115D02*
X131871429Y-111635115D01*
X131871429Y-111897020D02*
X131871429Y-111397020D01*
X131871429Y-111397020D02*
X132109524Y-111397020D01*
X132300000Y-111897020D02*
X132300000Y-111397020D01*
X132823809Y-111849401D02*
X132800000Y-111873210D01*
X132800000Y-111873210D02*
X132728571Y-111897020D01*
X132728571Y-111897020D02*
X132680952Y-111897020D01*
X132680952Y-111897020D02*
X132609524Y-111873210D01*
X132609524Y-111873210D02*
X132561905Y-111825591D01*
X132561905Y-111825591D02*
X132538095Y-111777972D01*
X132538095Y-111777972D02*
X132514286Y-111682734D01*
X132514286Y-111682734D02*
X132514286Y-111611306D01*
X132514286Y-111611306D02*
X132538095Y-111516068D01*
X132538095Y-111516068D02*
X132561905Y-111468449D01*
X132561905Y-111468449D02*
X132609524Y-111420830D01*
X132609524Y-111420830D02*
X132680952Y-111397020D01*
X132680952Y-111397020D02*
X132728571Y-111397020D01*
X132728571Y-111397020D02*
X132800000Y-111420830D01*
X132800000Y-111420830D02*
X132823809Y-111444639D01*
X133038095Y-111635115D02*
X133204762Y-111635115D01*
X133276190Y-111897020D02*
X133038095Y-111897020D01*
X133038095Y-111897020D02*
X133038095Y-111397020D01*
X133038095Y-111397020D02*
X133276190Y-111397020D01*
X133776190Y-111897020D02*
X133609524Y-111658925D01*
X133490476Y-111897020D02*
X133490476Y-111397020D01*
X133490476Y-111397020D02*
X133680952Y-111397020D01*
X133680952Y-111397020D02*
X133728571Y-111420830D01*
X133728571Y-111420830D02*
X133752381Y-111444639D01*
X133752381Y-111444639D02*
X133776190Y-111492258D01*
X133776190Y-111492258D02*
X133776190Y-111563687D01*
X133776190Y-111563687D02*
X133752381Y-111611306D01*
X133752381Y-111611306D02*
X133728571Y-111635115D01*
X133728571Y-111635115D02*
X133680952Y-111658925D01*
X133680952Y-111658925D02*
X133490476Y-111658925D01*
X133966667Y-111873210D02*
X134038095Y-111897020D01*
X134038095Y-111897020D02*
X134157143Y-111897020D01*
X134157143Y-111897020D02*
X134204762Y-111873210D01*
X134204762Y-111873210D02*
X134228571Y-111849401D01*
X134228571Y-111849401D02*
X134252381Y-111801782D01*
X134252381Y-111801782D02*
X134252381Y-111754163D01*
X134252381Y-111754163D02*
X134228571Y-111706544D01*
X134228571Y-111706544D02*
X134204762Y-111682734D01*
X134204762Y-111682734D02*
X134157143Y-111658925D01*
X134157143Y-111658925D02*
X134061905Y-111635115D01*
X134061905Y-111635115D02*
X134014286Y-111611306D01*
X134014286Y-111611306D02*
X133990476Y-111587496D01*
X133990476Y-111587496D02*
X133966667Y-111539877D01*
X133966667Y-111539877D02*
X133966667Y-111492258D01*
X133966667Y-111492258D02*
X133990476Y-111444639D01*
X133990476Y-111444639D02*
X134014286Y-111420830D01*
X134014286Y-111420830D02*
X134061905Y-111397020D01*
X134061905Y-111397020D02*
X134180952Y-111397020D01*
X134180952Y-111397020D02*
X134252381Y-111420830D01*
X135171428Y-111897020D02*
X135147619Y-111897020D01*
X135147619Y-111897020D02*
X135099999Y-111873210D01*
X135099999Y-111873210D02*
X135028571Y-111801782D01*
X135028571Y-111801782D02*
X134909523Y-111658925D01*
X134909523Y-111658925D02*
X134861904Y-111587496D01*
X134861904Y-111587496D02*
X134838095Y-111516068D01*
X134838095Y-111516068D02*
X134838095Y-111468449D01*
X134838095Y-111468449D02*
X134861904Y-111420830D01*
X134861904Y-111420830D02*
X134909523Y-111397020D01*
X134909523Y-111397020D02*
X134933333Y-111397020D01*
X134933333Y-111397020D02*
X134980952Y-111420830D01*
X134980952Y-111420830D02*
X135004761Y-111468449D01*
X135004761Y-111468449D02*
X135004761Y-111492258D01*
X135004761Y-111492258D02*
X134980952Y-111539877D01*
X134980952Y-111539877D02*
X134957142Y-111563687D01*
X134957142Y-111563687D02*
X134814285Y-111658925D01*
X134814285Y-111658925D02*
X134790476Y-111682734D01*
X134790476Y-111682734D02*
X134766666Y-111730353D01*
X134766666Y-111730353D02*
X134766666Y-111801782D01*
X134766666Y-111801782D02*
X134790476Y-111849401D01*
X134790476Y-111849401D02*
X134814285Y-111873210D01*
X134814285Y-111873210D02*
X134861904Y-111897020D01*
X134861904Y-111897020D02*
X134933333Y-111897020D01*
X134933333Y-111897020D02*
X134980952Y-111873210D01*
X134980952Y-111873210D02*
X135004761Y-111849401D01*
X135004761Y-111849401D02*
X135076190Y-111754163D01*
X135076190Y-111754163D02*
X135099999Y-111682734D01*
X135099999Y-111682734D02*
X135099999Y-111635115D01*
X135971428Y-111849401D02*
X135947619Y-111873210D01*
X135947619Y-111873210D02*
X135876190Y-111897020D01*
X135876190Y-111897020D02*
X135828571Y-111897020D01*
X135828571Y-111897020D02*
X135757143Y-111873210D01*
X135757143Y-111873210D02*
X135709524Y-111825591D01*
X135709524Y-111825591D02*
X135685714Y-111777972D01*
X135685714Y-111777972D02*
X135661905Y-111682734D01*
X135661905Y-111682734D02*
X135661905Y-111611306D01*
X135661905Y-111611306D02*
X135685714Y-111516068D01*
X135685714Y-111516068D02*
X135709524Y-111468449D01*
X135709524Y-111468449D02*
X135757143Y-111420830D01*
X135757143Y-111420830D02*
X135828571Y-111397020D01*
X135828571Y-111397020D02*
X135876190Y-111397020D01*
X135876190Y-111397020D02*
X135947619Y-111420830D01*
X135947619Y-111420830D02*
X135971428Y-111444639D01*
X136161905Y-111754163D02*
X136400000Y-111754163D01*
X136114286Y-111897020D02*
X136280952Y-111397020D01*
X136280952Y-111397020D02*
X136447619Y-111897020D01*
X136899999Y-111897020D02*
X136733333Y-111658925D01*
X136614285Y-111897020D02*
X136614285Y-111397020D01*
X136614285Y-111397020D02*
X136804761Y-111397020D01*
X136804761Y-111397020D02*
X136852380Y-111420830D01*
X136852380Y-111420830D02*
X136876190Y-111444639D01*
X136876190Y-111444639D02*
X136899999Y-111492258D01*
X136899999Y-111492258D02*
X136899999Y-111563687D01*
X136899999Y-111563687D02*
X136876190Y-111611306D01*
X136876190Y-111611306D02*
X136852380Y-111635115D01*
X136852380Y-111635115D02*
X136804761Y-111658925D01*
X136804761Y-111658925D02*
X136614285Y-111658925D01*
X137090476Y-111873210D02*
X137161904Y-111897020D01*
X137161904Y-111897020D02*
X137280952Y-111897020D01*
X137280952Y-111897020D02*
X137328571Y-111873210D01*
X137328571Y-111873210D02*
X137352380Y-111849401D01*
X137352380Y-111849401D02*
X137376190Y-111801782D01*
X137376190Y-111801782D02*
X137376190Y-111754163D01*
X137376190Y-111754163D02*
X137352380Y-111706544D01*
X137352380Y-111706544D02*
X137328571Y-111682734D01*
X137328571Y-111682734D02*
X137280952Y-111658925D01*
X137280952Y-111658925D02*
X137185714Y-111635115D01*
X137185714Y-111635115D02*
X137138095Y-111611306D01*
X137138095Y-111611306D02*
X137114285Y-111587496D01*
X137114285Y-111587496D02*
X137090476Y-111539877D01*
X137090476Y-111539877D02*
X137090476Y-111492258D01*
X137090476Y-111492258D02*
X137114285Y-111444639D01*
X137114285Y-111444639D02*
X137138095Y-111420830D01*
X137138095Y-111420830D02*
X137185714Y-111397020D01*
X137185714Y-111397020D02*
X137304761Y-111397020D01*
X137304761Y-111397020D02*
X137376190Y-111420830D01*
X130388095Y-112707020D02*
X130221429Y-112468925D01*
X130102381Y-112707020D02*
X130102381Y-112207020D01*
X130102381Y-112207020D02*
X130292857Y-112207020D01*
X130292857Y-112207020D02*
X130340476Y-112230830D01*
X130340476Y-112230830D02*
X130364286Y-112254639D01*
X130364286Y-112254639D02*
X130388095Y-112302258D01*
X130388095Y-112302258D02*
X130388095Y-112373687D01*
X130388095Y-112373687D02*
X130364286Y-112421306D01*
X130364286Y-112421306D02*
X130340476Y-112445115D01*
X130340476Y-112445115D02*
X130292857Y-112468925D01*
X130292857Y-112468925D02*
X130102381Y-112468925D01*
X130602381Y-112445115D02*
X130769048Y-112445115D01*
X130840476Y-112707020D02*
X130602381Y-112707020D01*
X130602381Y-112707020D02*
X130602381Y-112207020D01*
X130602381Y-112207020D02*
X130840476Y-112207020D01*
X131030953Y-112683210D02*
X131102381Y-112707020D01*
X131102381Y-112707020D02*
X131221429Y-112707020D01*
X131221429Y-112707020D02*
X131269048Y-112683210D01*
X131269048Y-112683210D02*
X131292857Y-112659401D01*
X131292857Y-112659401D02*
X131316667Y-112611782D01*
X131316667Y-112611782D02*
X131316667Y-112564163D01*
X131316667Y-112564163D02*
X131292857Y-112516544D01*
X131292857Y-112516544D02*
X131269048Y-112492734D01*
X131269048Y-112492734D02*
X131221429Y-112468925D01*
X131221429Y-112468925D02*
X131126191Y-112445115D01*
X131126191Y-112445115D02*
X131078572Y-112421306D01*
X131078572Y-112421306D02*
X131054762Y-112397496D01*
X131054762Y-112397496D02*
X131030953Y-112349877D01*
X131030953Y-112349877D02*
X131030953Y-112302258D01*
X131030953Y-112302258D02*
X131054762Y-112254639D01*
X131054762Y-112254639D02*
X131078572Y-112230830D01*
X131078572Y-112230830D02*
X131126191Y-112207020D01*
X131126191Y-112207020D02*
X131245238Y-112207020D01*
X131245238Y-112207020D02*
X131316667Y-112230830D01*
X131530952Y-112707020D02*
X131530952Y-112207020D01*
X131530952Y-112207020D02*
X131721428Y-112207020D01*
X131721428Y-112207020D02*
X131769047Y-112230830D01*
X131769047Y-112230830D02*
X131792857Y-112254639D01*
X131792857Y-112254639D02*
X131816666Y-112302258D01*
X131816666Y-112302258D02*
X131816666Y-112373687D01*
X131816666Y-112373687D02*
X131792857Y-112421306D01*
X131792857Y-112421306D02*
X131769047Y-112445115D01*
X131769047Y-112445115D02*
X131721428Y-112468925D01*
X131721428Y-112468925D02*
X131530952Y-112468925D01*
X132126190Y-112207020D02*
X132221428Y-112207020D01*
X132221428Y-112207020D02*
X132269047Y-112230830D01*
X132269047Y-112230830D02*
X132316666Y-112278449D01*
X132316666Y-112278449D02*
X132340476Y-112373687D01*
X132340476Y-112373687D02*
X132340476Y-112540353D01*
X132340476Y-112540353D02*
X132316666Y-112635591D01*
X132316666Y-112635591D02*
X132269047Y-112683210D01*
X132269047Y-112683210D02*
X132221428Y-112707020D01*
X132221428Y-112707020D02*
X132126190Y-112707020D01*
X132126190Y-112707020D02*
X132078571Y-112683210D01*
X132078571Y-112683210D02*
X132030952Y-112635591D01*
X132030952Y-112635591D02*
X132007143Y-112540353D01*
X132007143Y-112540353D02*
X132007143Y-112373687D01*
X132007143Y-112373687D02*
X132030952Y-112278449D01*
X132030952Y-112278449D02*
X132078571Y-112230830D01*
X132078571Y-112230830D02*
X132126190Y-112207020D01*
X132554762Y-112707020D02*
X132554762Y-112207020D01*
X132554762Y-112207020D02*
X132840476Y-112707020D01*
X132840476Y-112707020D02*
X132840476Y-112207020D01*
X133078572Y-112707020D02*
X133078572Y-112207020D01*
X133078572Y-112207020D02*
X133197620Y-112207020D01*
X133197620Y-112207020D02*
X133269048Y-112230830D01*
X133269048Y-112230830D02*
X133316667Y-112278449D01*
X133316667Y-112278449D02*
X133340477Y-112326068D01*
X133340477Y-112326068D02*
X133364286Y-112421306D01*
X133364286Y-112421306D02*
X133364286Y-112492734D01*
X133364286Y-112492734D02*
X133340477Y-112587972D01*
X133340477Y-112587972D02*
X133316667Y-112635591D01*
X133316667Y-112635591D02*
X133269048Y-112683210D01*
X133269048Y-112683210D02*
X133197620Y-112707020D01*
X133197620Y-112707020D02*
X133078572Y-112707020D01*
X133807144Y-112207020D02*
X134092858Y-112207020D01*
X133950001Y-112707020D02*
X133950001Y-112207020D01*
X134354762Y-112207020D02*
X134450000Y-112207020D01*
X134450000Y-112207020D02*
X134497619Y-112230830D01*
X134497619Y-112230830D02*
X134545238Y-112278449D01*
X134545238Y-112278449D02*
X134569048Y-112373687D01*
X134569048Y-112373687D02*
X134569048Y-112540353D01*
X134569048Y-112540353D02*
X134545238Y-112635591D01*
X134545238Y-112635591D02*
X134497619Y-112683210D01*
X134497619Y-112683210D02*
X134450000Y-112707020D01*
X134450000Y-112707020D02*
X134354762Y-112707020D01*
X134354762Y-112707020D02*
X134307143Y-112683210D01*
X134307143Y-112683210D02*
X134259524Y-112635591D01*
X134259524Y-112635591D02*
X134235715Y-112540353D01*
X134235715Y-112540353D02*
X134235715Y-112373687D01*
X134235715Y-112373687D02*
X134259524Y-112278449D01*
X134259524Y-112278449D02*
X134307143Y-112230830D01*
X134307143Y-112230830D02*
X134354762Y-112207020D01*
X135059525Y-112564163D02*
X135297620Y-112564163D01*
X135011906Y-112707020D02*
X135178572Y-112207020D01*
X135178572Y-112207020D02*
X135345239Y-112707020D01*
X135750000Y-112707020D02*
X135511905Y-112707020D01*
X135511905Y-112707020D02*
X135511905Y-112207020D01*
X136154762Y-112707020D02*
X135916667Y-112707020D01*
X135916667Y-112707020D02*
X135916667Y-112207020D01*
X136907143Y-112659401D02*
X136883334Y-112683210D01*
X136883334Y-112683210D02*
X136811905Y-112707020D01*
X136811905Y-112707020D02*
X136764286Y-112707020D01*
X136764286Y-112707020D02*
X136692858Y-112683210D01*
X136692858Y-112683210D02*
X136645239Y-112635591D01*
X136645239Y-112635591D02*
X136621429Y-112587972D01*
X136621429Y-112587972D02*
X136597620Y-112492734D01*
X136597620Y-112492734D02*
X136597620Y-112421306D01*
X136597620Y-112421306D02*
X136621429Y-112326068D01*
X136621429Y-112326068D02*
X136645239Y-112278449D01*
X136645239Y-112278449D02*
X136692858Y-112230830D01*
X136692858Y-112230830D02*
X136764286Y-112207020D01*
X136764286Y-112207020D02*
X136811905Y-112207020D01*
X136811905Y-112207020D02*
X136883334Y-112230830D01*
X136883334Y-112230830D02*
X136907143Y-112254639D01*
X137097620Y-112564163D02*
X137335715Y-112564163D01*
X137050001Y-112707020D02*
X137216667Y-112207020D01*
X137216667Y-112207020D02*
X137383334Y-112707020D01*
X137788095Y-112707020D02*
X137550000Y-112707020D01*
X137550000Y-112707020D02*
X137550000Y-112207020D01*
X138192857Y-112707020D02*
X137954762Y-112707020D01*
X137954762Y-112707020D02*
X137954762Y-112207020D01*
X138335715Y-112683210D02*
X138407143Y-112707020D01*
X138407143Y-112707020D02*
X138526191Y-112707020D01*
X138526191Y-112707020D02*
X138573810Y-112683210D01*
X138573810Y-112683210D02*
X138597619Y-112659401D01*
X138597619Y-112659401D02*
X138621429Y-112611782D01*
X138621429Y-112611782D02*
X138621429Y-112564163D01*
X138621429Y-112564163D02*
X138597619Y-112516544D01*
X138597619Y-112516544D02*
X138573810Y-112492734D01*
X138573810Y-112492734D02*
X138526191Y-112468925D01*
X138526191Y-112468925D02*
X138430953Y-112445115D01*
X138430953Y-112445115D02*
X138383334Y-112421306D01*
X138383334Y-112421306D02*
X138359524Y-112397496D01*
X138359524Y-112397496D02*
X138335715Y-112349877D01*
X138335715Y-112349877D02*
X138335715Y-112302258D01*
X138335715Y-112302258D02*
X138359524Y-112254639D01*
X138359524Y-112254639D02*
X138383334Y-112230830D01*
X138383334Y-112230830D02*
X138430953Y-112207020D01*
X138430953Y-112207020D02*
X138550000Y-112207020D01*
X138550000Y-112207020D02*
X138621429Y-112230830D01*
D16*
X143893451Y-81962380D02*
X143893451Y-80962380D01*
X143893451Y-80962380D02*
X144464880Y-80962380D01*
X144464880Y-80962380D02*
X144607737Y-81010000D01*
X144607737Y-81010000D02*
X144679166Y-81057619D01*
X144679166Y-81057619D02*
X144750594Y-81152857D01*
X144750594Y-81152857D02*
X144750594Y-81295714D01*
X144750594Y-81295714D02*
X144679166Y-81390952D01*
X144679166Y-81390952D02*
X144607737Y-81438571D01*
X144607737Y-81438571D02*
X144464880Y-81486190D01*
X144464880Y-81486190D02*
X143893451Y-81486190D01*
X145393451Y-80962380D02*
X145393451Y-81771904D01*
X145393451Y-81771904D02*
X145464880Y-81867142D01*
X145464880Y-81867142D02*
X145536309Y-81914761D01*
X145536309Y-81914761D02*
X145679166Y-81962380D01*
X145679166Y-81962380D02*
X145964880Y-81962380D01*
X145964880Y-81962380D02*
X146107737Y-81914761D01*
X146107737Y-81914761D02*
X146179166Y-81867142D01*
X146179166Y-81867142D02*
X146250594Y-81771904D01*
X146250594Y-81771904D02*
X146250594Y-80962380D01*
X147464880Y-81438571D02*
X147679166Y-81486190D01*
X147679166Y-81486190D02*
X147750595Y-81533809D01*
X147750595Y-81533809D02*
X147822023Y-81629047D01*
X147822023Y-81629047D02*
X147822023Y-81771904D01*
X147822023Y-81771904D02*
X147750595Y-81867142D01*
X147750595Y-81867142D02*
X147679166Y-81914761D01*
X147679166Y-81914761D02*
X147536309Y-81962380D01*
X147536309Y-81962380D02*
X146964880Y-81962380D01*
X146964880Y-81962380D02*
X146964880Y-80962380D01*
X146964880Y-80962380D02*
X147464880Y-80962380D01*
X147464880Y-80962380D02*
X147607738Y-81010000D01*
X147607738Y-81010000D02*
X147679166Y-81057619D01*
X147679166Y-81057619D02*
X147750595Y-81152857D01*
X147750595Y-81152857D02*
X147750595Y-81248095D01*
X147750595Y-81248095D02*
X147679166Y-81343333D01*
X147679166Y-81343333D02*
X147607738Y-81390952D01*
X147607738Y-81390952D02*
X147464880Y-81438571D01*
X147464880Y-81438571D02*
X146964880Y-81438571D01*
X149179166Y-81962380D02*
X148464880Y-81962380D01*
X148464880Y-81962380D02*
X148464880Y-80962380D01*
X149679166Y-81962380D02*
X149679166Y-80962380D01*
X151250595Y-81867142D02*
X151179167Y-81914761D01*
X151179167Y-81914761D02*
X150964881Y-81962380D01*
X150964881Y-81962380D02*
X150822024Y-81962380D01*
X150822024Y-81962380D02*
X150607738Y-81914761D01*
X150607738Y-81914761D02*
X150464881Y-81819523D01*
X150464881Y-81819523D02*
X150393452Y-81724285D01*
X150393452Y-81724285D02*
X150322024Y-81533809D01*
X150322024Y-81533809D02*
X150322024Y-81390952D01*
X150322024Y-81390952D02*
X150393452Y-81200476D01*
X150393452Y-81200476D02*
X150464881Y-81105238D01*
X150464881Y-81105238D02*
X150607738Y-81010000D01*
X150607738Y-81010000D02*
X150822024Y-80962380D01*
X150822024Y-80962380D02*
X150964881Y-80962380D01*
X150964881Y-80962380D02*
X151179167Y-81010000D01*
X151179167Y-81010000D02*
X151250595Y-81057619D01*
X146143451Y-83487142D02*
X146072023Y-83534761D01*
X146072023Y-83534761D02*
X145857737Y-83582380D01*
X145857737Y-83582380D02*
X145714880Y-83582380D01*
X145714880Y-83582380D02*
X145500594Y-83534761D01*
X145500594Y-83534761D02*
X145357737Y-83439523D01*
X145357737Y-83439523D02*
X145286308Y-83344285D01*
X145286308Y-83344285D02*
X145214880Y-83153809D01*
X145214880Y-83153809D02*
X145214880Y-83010952D01*
X145214880Y-83010952D02*
X145286308Y-82820476D01*
X145286308Y-82820476D02*
X145357737Y-82725238D01*
X145357737Y-82725238D02*
X145500594Y-82630000D01*
X145500594Y-82630000D02*
X145714880Y-82582380D01*
X145714880Y-82582380D02*
X145857737Y-82582380D01*
X145857737Y-82582380D02*
X146072023Y-82630000D01*
X146072023Y-82630000D02*
X146143451Y-82677619D01*
X146714880Y-83296666D02*
X147429166Y-83296666D01*
X146572023Y-83582380D02*
X147072023Y-82582380D01*
X147072023Y-82582380D02*
X147572023Y-83582380D01*
X148786308Y-83582380D02*
X148072022Y-83582380D01*
X148072022Y-83582380D02*
X148072022Y-82582380D01*
X150000594Y-83582380D02*
X149286308Y-83582380D01*
X149286308Y-83582380D02*
X149286308Y-82582380D01*
D15*
X130371430Y-109734997D02*
X130609525Y-109734997D01*
X130323811Y-109877854D02*
X130490477Y-109377854D01*
X130490477Y-109377854D02*
X130657144Y-109877854D01*
X130823810Y-109877854D02*
X130823810Y-109377854D01*
X130823810Y-109377854D02*
X130942858Y-109377854D01*
X130942858Y-109377854D02*
X131014286Y-109401664D01*
X131014286Y-109401664D02*
X131061905Y-109449283D01*
X131061905Y-109449283D02*
X131085715Y-109496902D01*
X131085715Y-109496902D02*
X131109524Y-109592140D01*
X131109524Y-109592140D02*
X131109524Y-109663568D01*
X131109524Y-109663568D02*
X131085715Y-109758806D01*
X131085715Y-109758806D02*
X131061905Y-109806425D01*
X131061905Y-109806425D02*
X131014286Y-109854044D01*
X131014286Y-109854044D02*
X130942858Y-109877854D01*
X130942858Y-109877854D02*
X130823810Y-109877854D01*
X131252382Y-109377854D02*
X131419048Y-109877854D01*
X131419048Y-109877854D02*
X131585715Y-109377854D01*
X131752381Y-109877854D02*
X131752381Y-109377854D01*
X132276190Y-109830235D02*
X132252381Y-109854044D01*
X132252381Y-109854044D02*
X132180952Y-109877854D01*
X132180952Y-109877854D02*
X132133333Y-109877854D01*
X132133333Y-109877854D02*
X132061905Y-109854044D01*
X132061905Y-109854044D02*
X132014286Y-109806425D01*
X132014286Y-109806425D02*
X131990476Y-109758806D01*
X131990476Y-109758806D02*
X131966667Y-109663568D01*
X131966667Y-109663568D02*
X131966667Y-109592140D01*
X131966667Y-109592140D02*
X131990476Y-109496902D01*
X131990476Y-109496902D02*
X132014286Y-109449283D01*
X132014286Y-109449283D02*
X132061905Y-109401664D01*
X132061905Y-109401664D02*
X132133333Y-109377854D01*
X132133333Y-109377854D02*
X132180952Y-109377854D01*
X132180952Y-109377854D02*
X132252381Y-109401664D01*
X132252381Y-109401664D02*
X132276190Y-109425473D01*
X132490476Y-109615949D02*
X132657143Y-109615949D01*
X132728571Y-109877854D02*
X132490476Y-109877854D01*
X132490476Y-109877854D02*
X132490476Y-109377854D01*
X132490476Y-109377854D02*
X132728571Y-109377854D01*
X133647619Y-109877854D02*
X133623810Y-109877854D01*
X133623810Y-109877854D02*
X133576190Y-109854044D01*
X133576190Y-109854044D02*
X133504762Y-109782616D01*
X133504762Y-109782616D02*
X133385714Y-109639759D01*
X133385714Y-109639759D02*
X133338095Y-109568330D01*
X133338095Y-109568330D02*
X133314286Y-109496902D01*
X133314286Y-109496902D02*
X133314286Y-109449283D01*
X133314286Y-109449283D02*
X133338095Y-109401664D01*
X133338095Y-109401664D02*
X133385714Y-109377854D01*
X133385714Y-109377854D02*
X133409524Y-109377854D01*
X133409524Y-109377854D02*
X133457143Y-109401664D01*
X133457143Y-109401664D02*
X133480952Y-109449283D01*
X133480952Y-109449283D02*
X133480952Y-109473092D01*
X133480952Y-109473092D02*
X133457143Y-109520711D01*
X133457143Y-109520711D02*
X133433333Y-109544521D01*
X133433333Y-109544521D02*
X133290476Y-109639759D01*
X133290476Y-109639759D02*
X133266667Y-109663568D01*
X133266667Y-109663568D02*
X133242857Y-109711187D01*
X133242857Y-109711187D02*
X133242857Y-109782616D01*
X133242857Y-109782616D02*
X133266667Y-109830235D01*
X133266667Y-109830235D02*
X133290476Y-109854044D01*
X133290476Y-109854044D02*
X133338095Y-109877854D01*
X133338095Y-109877854D02*
X133409524Y-109877854D01*
X133409524Y-109877854D02*
X133457143Y-109854044D01*
X133457143Y-109854044D02*
X133480952Y-109830235D01*
X133480952Y-109830235D02*
X133552381Y-109734997D01*
X133552381Y-109734997D02*
X133576190Y-109663568D01*
X133576190Y-109663568D02*
X133576190Y-109615949D01*
X134138096Y-109734997D02*
X134376191Y-109734997D01*
X134090477Y-109877854D02*
X134257143Y-109377854D01*
X134257143Y-109377854D02*
X134423810Y-109877854D01*
X134566667Y-109854044D02*
X134638095Y-109877854D01*
X134638095Y-109877854D02*
X134757143Y-109877854D01*
X134757143Y-109877854D02*
X134804762Y-109854044D01*
X134804762Y-109854044D02*
X134828571Y-109830235D01*
X134828571Y-109830235D02*
X134852381Y-109782616D01*
X134852381Y-109782616D02*
X134852381Y-109734997D01*
X134852381Y-109734997D02*
X134828571Y-109687378D01*
X134828571Y-109687378D02*
X134804762Y-109663568D01*
X134804762Y-109663568D02*
X134757143Y-109639759D01*
X134757143Y-109639759D02*
X134661905Y-109615949D01*
X134661905Y-109615949D02*
X134614286Y-109592140D01*
X134614286Y-109592140D02*
X134590476Y-109568330D01*
X134590476Y-109568330D02*
X134566667Y-109520711D01*
X134566667Y-109520711D02*
X134566667Y-109473092D01*
X134566667Y-109473092D02*
X134590476Y-109425473D01*
X134590476Y-109425473D02*
X134614286Y-109401664D01*
X134614286Y-109401664D02*
X134661905Y-109377854D01*
X134661905Y-109377854D02*
X134780952Y-109377854D01*
X134780952Y-109377854D02*
X134852381Y-109401664D01*
X135042857Y-109854044D02*
X135114285Y-109877854D01*
X135114285Y-109877854D02*
X135233333Y-109877854D01*
X135233333Y-109877854D02*
X135280952Y-109854044D01*
X135280952Y-109854044D02*
X135304761Y-109830235D01*
X135304761Y-109830235D02*
X135328571Y-109782616D01*
X135328571Y-109782616D02*
X135328571Y-109734997D01*
X135328571Y-109734997D02*
X135304761Y-109687378D01*
X135304761Y-109687378D02*
X135280952Y-109663568D01*
X135280952Y-109663568D02*
X135233333Y-109639759D01*
X135233333Y-109639759D02*
X135138095Y-109615949D01*
X135138095Y-109615949D02*
X135090476Y-109592140D01*
X135090476Y-109592140D02*
X135066666Y-109568330D01*
X135066666Y-109568330D02*
X135042857Y-109520711D01*
X135042857Y-109520711D02*
X135042857Y-109473092D01*
X135042857Y-109473092D02*
X135066666Y-109425473D01*
X135066666Y-109425473D02*
X135090476Y-109401664D01*
X135090476Y-109401664D02*
X135138095Y-109377854D01*
X135138095Y-109377854D02*
X135257142Y-109377854D01*
X135257142Y-109377854D02*
X135328571Y-109401664D01*
X135542856Y-109877854D02*
X135542856Y-109377854D01*
X135757142Y-109854044D02*
X135828570Y-109877854D01*
X135828570Y-109877854D02*
X135947618Y-109877854D01*
X135947618Y-109877854D02*
X135995237Y-109854044D01*
X135995237Y-109854044D02*
X136019046Y-109830235D01*
X136019046Y-109830235D02*
X136042856Y-109782616D01*
X136042856Y-109782616D02*
X136042856Y-109734997D01*
X136042856Y-109734997D02*
X136019046Y-109687378D01*
X136019046Y-109687378D02*
X135995237Y-109663568D01*
X135995237Y-109663568D02*
X135947618Y-109639759D01*
X135947618Y-109639759D02*
X135852380Y-109615949D01*
X135852380Y-109615949D02*
X135804761Y-109592140D01*
X135804761Y-109592140D02*
X135780951Y-109568330D01*
X135780951Y-109568330D02*
X135757142Y-109520711D01*
X135757142Y-109520711D02*
X135757142Y-109473092D01*
X135757142Y-109473092D02*
X135780951Y-109425473D01*
X135780951Y-109425473D02*
X135804761Y-109401664D01*
X135804761Y-109401664D02*
X135852380Y-109377854D01*
X135852380Y-109377854D02*
X135971427Y-109377854D01*
X135971427Y-109377854D02*
X136042856Y-109401664D01*
X136185713Y-109377854D02*
X136471427Y-109377854D01*
X136328570Y-109877854D02*
X136328570Y-109377854D01*
X136614284Y-109734997D02*
X136852379Y-109734997D01*
X136566665Y-109877854D02*
X136733331Y-109377854D01*
X136733331Y-109377854D02*
X136899998Y-109877854D01*
X137066664Y-109877854D02*
X137066664Y-109377854D01*
X137066664Y-109377854D02*
X137352378Y-109877854D01*
X137352378Y-109877854D02*
X137352378Y-109377854D01*
X137876188Y-109830235D02*
X137852379Y-109854044D01*
X137852379Y-109854044D02*
X137780950Y-109877854D01*
X137780950Y-109877854D02*
X137733331Y-109877854D01*
X137733331Y-109877854D02*
X137661903Y-109854044D01*
X137661903Y-109854044D02*
X137614284Y-109806425D01*
X137614284Y-109806425D02*
X137590474Y-109758806D01*
X137590474Y-109758806D02*
X137566665Y-109663568D01*
X137566665Y-109663568D02*
X137566665Y-109592140D01*
X137566665Y-109592140D02*
X137590474Y-109496902D01*
X137590474Y-109496902D02*
X137614284Y-109449283D01*
X137614284Y-109449283D02*
X137661903Y-109401664D01*
X137661903Y-109401664D02*
X137733331Y-109377854D01*
X137733331Y-109377854D02*
X137780950Y-109377854D01*
X137780950Y-109377854D02*
X137852379Y-109401664D01*
X137852379Y-109401664D02*
X137876188Y-109425473D01*
X138090474Y-109615949D02*
X138257141Y-109615949D01*
X138328569Y-109877854D02*
X138090474Y-109877854D01*
X138090474Y-109877854D02*
X138090474Y-109377854D01*
X138090474Y-109377854D02*
X138328569Y-109377854D01*
X129890476Y-110187854D02*
X129985714Y-110187854D01*
X129985714Y-110187854D02*
X130033333Y-110211664D01*
X130033333Y-110211664D02*
X130080952Y-110259283D01*
X130080952Y-110259283D02*
X130104762Y-110354521D01*
X130104762Y-110354521D02*
X130104762Y-110521187D01*
X130104762Y-110521187D02*
X130080952Y-110616425D01*
X130080952Y-110616425D02*
X130033333Y-110664044D01*
X130033333Y-110664044D02*
X129985714Y-110687854D01*
X129985714Y-110687854D02*
X129890476Y-110687854D01*
X129890476Y-110687854D02*
X129842857Y-110664044D01*
X129842857Y-110664044D02*
X129795238Y-110616425D01*
X129795238Y-110616425D02*
X129771429Y-110521187D01*
X129771429Y-110521187D02*
X129771429Y-110354521D01*
X129771429Y-110354521D02*
X129795238Y-110259283D01*
X129795238Y-110259283D02*
X129842857Y-110211664D01*
X129842857Y-110211664D02*
X129890476Y-110187854D01*
X130485715Y-110425949D02*
X130557143Y-110449759D01*
X130557143Y-110449759D02*
X130580953Y-110473568D01*
X130580953Y-110473568D02*
X130604762Y-110521187D01*
X130604762Y-110521187D02*
X130604762Y-110592616D01*
X130604762Y-110592616D02*
X130580953Y-110640235D01*
X130580953Y-110640235D02*
X130557143Y-110664044D01*
X130557143Y-110664044D02*
X130509524Y-110687854D01*
X130509524Y-110687854D02*
X130319048Y-110687854D01*
X130319048Y-110687854D02*
X130319048Y-110187854D01*
X130319048Y-110187854D02*
X130485715Y-110187854D01*
X130485715Y-110187854D02*
X130533334Y-110211664D01*
X130533334Y-110211664D02*
X130557143Y-110235473D01*
X130557143Y-110235473D02*
X130580953Y-110283092D01*
X130580953Y-110283092D02*
X130580953Y-110330711D01*
X130580953Y-110330711D02*
X130557143Y-110378330D01*
X130557143Y-110378330D02*
X130533334Y-110402140D01*
X130533334Y-110402140D02*
X130485715Y-110425949D01*
X130485715Y-110425949D02*
X130319048Y-110425949D01*
X130747620Y-110187854D02*
X131033334Y-110187854D01*
X130890477Y-110687854D02*
X130890477Y-110187854D01*
X131176191Y-110544997D02*
X131414286Y-110544997D01*
X131128572Y-110687854D02*
X131295238Y-110187854D01*
X131295238Y-110187854D02*
X131461905Y-110687854D01*
X131628571Y-110687854D02*
X131628571Y-110187854D01*
X131866666Y-110687854D02*
X131866666Y-110187854D01*
X131866666Y-110187854D02*
X132152380Y-110687854D01*
X132152380Y-110687854D02*
X132152380Y-110187854D01*
X132366667Y-110544997D02*
X132604762Y-110544997D01*
X132319048Y-110687854D02*
X132485714Y-110187854D01*
X132485714Y-110187854D02*
X132652381Y-110687854D01*
X132985714Y-110425949D02*
X133057142Y-110449759D01*
X133057142Y-110449759D02*
X133080952Y-110473568D01*
X133080952Y-110473568D02*
X133104761Y-110521187D01*
X133104761Y-110521187D02*
X133104761Y-110592616D01*
X133104761Y-110592616D02*
X133080952Y-110640235D01*
X133080952Y-110640235D02*
X133057142Y-110664044D01*
X133057142Y-110664044D02*
X133009523Y-110687854D01*
X133009523Y-110687854D02*
X132819047Y-110687854D01*
X132819047Y-110687854D02*
X132819047Y-110187854D01*
X132819047Y-110187854D02*
X132985714Y-110187854D01*
X132985714Y-110187854D02*
X133033333Y-110211664D01*
X133033333Y-110211664D02*
X133057142Y-110235473D01*
X133057142Y-110235473D02*
X133080952Y-110283092D01*
X133080952Y-110283092D02*
X133080952Y-110330711D01*
X133080952Y-110330711D02*
X133057142Y-110378330D01*
X133057142Y-110378330D02*
X133033333Y-110402140D01*
X133033333Y-110402140D02*
X132985714Y-110425949D01*
X132985714Y-110425949D02*
X132819047Y-110425949D01*
X133557142Y-110687854D02*
X133319047Y-110687854D01*
X133319047Y-110687854D02*
X133319047Y-110187854D01*
X133723809Y-110425949D02*
X133890476Y-110425949D01*
X133961904Y-110687854D02*
X133723809Y-110687854D01*
X133723809Y-110687854D02*
X133723809Y-110187854D01*
X133723809Y-110187854D02*
X133961904Y-110187854D01*
X134476190Y-110687854D02*
X134476190Y-110187854D01*
X134714285Y-110687854D02*
X134714285Y-110187854D01*
X134714285Y-110187854D02*
X134880952Y-110544997D01*
X134880952Y-110544997D02*
X135047618Y-110187854D01*
X135047618Y-110187854D02*
X135047618Y-110687854D01*
X135285714Y-110687854D02*
X135285714Y-110187854D01*
X135285714Y-110187854D02*
X135452381Y-110544997D01*
X135452381Y-110544997D02*
X135619047Y-110187854D01*
X135619047Y-110187854D02*
X135619047Y-110687854D01*
X135857143Y-110425949D02*
X136023810Y-110425949D01*
X136095238Y-110687854D02*
X135857143Y-110687854D01*
X135857143Y-110687854D02*
X135857143Y-110187854D01*
X135857143Y-110187854D02*
X136095238Y-110187854D01*
X136309524Y-110687854D02*
X136309524Y-110187854D01*
X136309524Y-110187854D02*
X136428572Y-110187854D01*
X136428572Y-110187854D02*
X136500000Y-110211664D01*
X136500000Y-110211664D02*
X136547619Y-110259283D01*
X136547619Y-110259283D02*
X136571429Y-110306902D01*
X136571429Y-110306902D02*
X136595238Y-110402140D01*
X136595238Y-110402140D02*
X136595238Y-110473568D01*
X136595238Y-110473568D02*
X136571429Y-110568806D01*
X136571429Y-110568806D02*
X136547619Y-110616425D01*
X136547619Y-110616425D02*
X136500000Y-110664044D01*
X136500000Y-110664044D02*
X136428572Y-110687854D01*
X136428572Y-110687854D02*
X136309524Y-110687854D01*
X136809524Y-110687854D02*
X136809524Y-110187854D01*
X137023810Y-110544997D02*
X137261905Y-110544997D01*
X136976191Y-110687854D02*
X137142857Y-110187854D01*
X137142857Y-110187854D02*
X137309524Y-110687854D01*
X137404762Y-110187854D02*
X137690476Y-110187854D01*
X137547619Y-110687854D02*
X137547619Y-110187854D01*
X137857142Y-110425949D02*
X138023809Y-110425949D01*
X138095237Y-110687854D02*
X137857142Y-110687854D01*
X137857142Y-110687854D02*
X137857142Y-110187854D01*
X137857142Y-110187854D02*
X138095237Y-110187854D01*
X138547618Y-110687854D02*
X138309523Y-110687854D01*
X138309523Y-110687854D02*
X138309523Y-110187854D01*
X138809523Y-110449759D02*
X138809523Y-110687854D01*
X138642857Y-110187854D02*
X138809523Y-110449759D01*
X138809523Y-110449759D02*
X138976190Y-110187854D01*
%LPC*%
M02*
