%TF.GenerationSoftware,KiCad,Pcbnew,(5.1.7-7-g831c51c875)-1*%
%TF.CreationDate,2021-03-20T10:33:23-05:00*%
%TF.ProjectId,raspberry_pi_fan_hat,72617370-6265-4727-9279-5f70695f6661,rev?*%
%TF.SameCoordinates,PXbebc200PY8f0d180*%
%TF.FileFunction,Copper,L1,Top*%
%TF.FilePolarity,Positive*%
%FSLAX46Y46*%
G04 Gerber Fmt 4.6, Leading zero omitted, Abs format (unit mm)*
G04 Created by KiCad (PCBNEW (5.1.7-7-g831c51c875)-1) date 2021-03-20 10:33:23*
%MOMM*%
%LPD*%
G01*
G04 APERTURE LIST*
%TA.AperFunction,Profile*%
%ADD10C,0.100000*%
%TD*%
%TA.AperFunction,ComponentPad*%
%ADD11O,1.700000X1.700000*%
%TD*%
%TA.AperFunction,ComponentPad*%
%ADD12R,1.700000X1.700000*%
%TD*%
%TA.AperFunction,Conductor*%
%ADD13C,0.200000*%
%TD*%
G04 APERTURE END LIST*
D10*
X46030000Y16000000D02*
G75*
G03*
X46030000Y16000000I-1530000J0D01*
G01*
X22030000Y16000000D02*
G75*
G03*
X22030000Y16000000I-1530000J0D01*
G01*
X22030000Y40000000D02*
G75*
G03*
X22030000Y40000000I-1530000J0D01*
G01*
X46030000Y40000000D02*
G75*
G03*
X46030000Y40000000I-1530000J0D01*
G01*
X3500000Y7000000D02*
X15000000Y16500000D01*
X46500000Y28000000D02*
G75*
G03*
X46500000Y28000000I-14000000J0D01*
G01*
X49500000Y39500000D02*
X61500000Y49000000D01*
X3500000Y49000000D02*
X15000000Y39500000D01*
X61500000Y7000000D02*
X49500000Y16500000D01*
X7000000Y3500000D02*
X21000000Y11000000D01*
X44000000Y11000000D02*
X58000000Y3500000D01*
X21000000Y11000000D02*
X44000000Y11000000D01*
X15000000Y39500000D02*
X15000000Y16500000D01*
X49500000Y16500000D02*
X49500000Y39500000D01*
X7000000Y3500000D02*
G75*
G02*
X3500000Y7000000I-3500000J0D01*
G01*
X61500000Y7000000D02*
G75*
G02*
X58000000Y3500000I0J-3500000D01*
G01*
X61500000Y56000000D02*
G75*
G02*
X61500000Y49000000I0J-3500000D01*
G01*
X3500000Y49000000D02*
G75*
G02*
X3500000Y56000000I0J3500000D01*
G01*
X61500000Y56000000D02*
X3500000Y56000000D01*
%TA.AperFunction,SMDPad,CuDef*%
G36*
G01*
X12700000Y48950001D02*
X12700000Y48049999D01*
G75*
G02*
X12450001Y47800000I-249999J0D01*
G01*
X11924999Y47800000D01*
G75*
G02*
X11675000Y48049999I0J249999D01*
G01*
X11675000Y48950001D01*
G75*
G02*
X11924999Y49200000I249999J0D01*
G01*
X12450001Y49200000D01*
G75*
G02*
X12700000Y48950001I0J-249999D01*
G01*
G37*
%TD.AperFunction*%
%TA.AperFunction,SMDPad,CuDef*%
G36*
G01*
X14525000Y48950001D02*
X14525000Y48049999D01*
G75*
G02*
X14275001Y47800000I-249999J0D01*
G01*
X13749999Y47800000D01*
G75*
G02*
X13500000Y48049999I0J249999D01*
G01*
X13500000Y48950001D01*
G75*
G02*
X13749999Y49200000I249999J0D01*
G01*
X14275001Y49200000D01*
G75*
G02*
X14525000Y48950001I0J-249999D01*
G01*
G37*
%TD.AperFunction*%
D11*
X32600000Y45160000D03*
D12*
X32600000Y47700000D03*
%TA.AperFunction,SMDPad,CuDef*%
G36*
G01*
X52100000Y45949999D02*
X52100000Y46850001D01*
G75*
G02*
X52349999Y47100000I249999J0D01*
G01*
X52875001Y47100000D01*
G75*
G02*
X53125000Y46850001I0J-249999D01*
G01*
X53125000Y45949999D01*
G75*
G02*
X52875001Y45700000I-249999J0D01*
G01*
X52349999Y45700000D01*
G75*
G02*
X52100000Y45949999I0J249999D01*
G01*
G37*
%TD.AperFunction*%
%TA.AperFunction,SMDPad,CuDef*%
G36*
G01*
X50275000Y45949999D02*
X50275000Y46850001D01*
G75*
G02*
X50524999Y47100000I249999J0D01*
G01*
X51050001Y47100000D01*
G75*
G02*
X51300000Y46850001I0J-249999D01*
G01*
X51300000Y45949999D01*
G75*
G02*
X51050001Y45700000I-249999J0D01*
G01*
X50524999Y45700000D01*
G75*
G02*
X50275000Y45949999I0J249999D01*
G01*
G37*
%TD.AperFunction*%
%TA.AperFunction,SMDPad,CuDef*%
G36*
G01*
X52100000Y48049999D02*
X52100000Y48950001D01*
G75*
G02*
X52349999Y49200000I249999J0D01*
G01*
X52875001Y49200000D01*
G75*
G02*
X53125000Y48950001I0J-249999D01*
G01*
X53125000Y48049999D01*
G75*
G02*
X52875001Y47800000I-249999J0D01*
G01*
X52349999Y47800000D01*
G75*
G02*
X52100000Y48049999I0J249999D01*
G01*
G37*
%TD.AperFunction*%
%TA.AperFunction,SMDPad,CuDef*%
G36*
G01*
X50275000Y48049999D02*
X50275000Y48950001D01*
G75*
G02*
X50524999Y49200000I249999J0D01*
G01*
X51050001Y49200000D01*
G75*
G02*
X51300000Y48950001I0J-249999D01*
G01*
X51300000Y48049999D01*
G75*
G02*
X51050001Y47800000I-249999J0D01*
G01*
X50524999Y47800000D01*
G75*
G02*
X50275000Y48049999I0J249999D01*
G01*
G37*
%TD.AperFunction*%
%TA.AperFunction,SMDPad,CuDef*%
G36*
G01*
X12700000Y46850001D02*
X12700000Y45949999D01*
G75*
G02*
X12450001Y45700000I-249999J0D01*
G01*
X11924999Y45700000D01*
G75*
G02*
X11675000Y45949999I0J249999D01*
G01*
X11675000Y46850001D01*
G75*
G02*
X11924999Y47100000I249999J0D01*
G01*
X12450001Y47100000D01*
G75*
G02*
X12700000Y46850001I0J-249999D01*
G01*
G37*
%TD.AperFunction*%
%TA.AperFunction,SMDPad,CuDef*%
G36*
G01*
X14525000Y46850001D02*
X14525000Y45949999D01*
G75*
G02*
X14275001Y45700000I-249999J0D01*
G01*
X13749999Y45700000D01*
G75*
G02*
X13500000Y45949999I0J249999D01*
G01*
X13500000Y46850001D01*
G75*
G02*
X13749999Y47100000I249999J0D01*
G01*
X14275001Y47100000D01*
G75*
G02*
X14525000Y46850001I0J-249999D01*
G01*
G37*
%TD.AperFunction*%
%TA.AperFunction,SMDPad,CuDef*%
G36*
G01*
X54650000Y46856250D02*
X54650000Y45943750D01*
G75*
G02*
X54406250Y45700000I-243750J0D01*
G01*
X53918750Y45700000D01*
G75*
G02*
X53675000Y45943750I0J243750D01*
G01*
X53675000Y46856250D01*
G75*
G02*
X53918750Y47100000I243750J0D01*
G01*
X54406250Y47100000D01*
G75*
G02*
X54650000Y46856250I0J-243750D01*
G01*
G37*
%TD.AperFunction*%
%TA.AperFunction,SMDPad,CuDef*%
G36*
G01*
X56525000Y46856250D02*
X56525000Y45943750D01*
G75*
G02*
X56281250Y45700000I-243750J0D01*
G01*
X55793750Y45700000D01*
G75*
G02*
X55550000Y45943750I0J243750D01*
G01*
X55550000Y46856250D01*
G75*
G02*
X55793750Y47100000I243750J0D01*
G01*
X56281250Y47100000D01*
G75*
G02*
X56525000Y46856250I0J-243750D01*
G01*
G37*
%TD.AperFunction*%
%TA.AperFunction,SMDPad,CuDef*%
G36*
G01*
X54650000Y48956250D02*
X54650000Y48043750D01*
G75*
G02*
X54406250Y47800000I-243750J0D01*
G01*
X53918750Y47800000D01*
G75*
G02*
X53675000Y48043750I0J243750D01*
G01*
X53675000Y48956250D01*
G75*
G02*
X53918750Y49200000I243750J0D01*
G01*
X54406250Y49200000D01*
G75*
G02*
X54650000Y48956250I0J-243750D01*
G01*
G37*
%TD.AperFunction*%
%TA.AperFunction,SMDPad,CuDef*%
G36*
G01*
X56525000Y48956250D02*
X56525000Y48043750D01*
G75*
G02*
X56281250Y47800000I-243750J0D01*
G01*
X55793750Y47800000D01*
G75*
G02*
X55550000Y48043750I0J243750D01*
G01*
X55550000Y48956250D01*
G75*
G02*
X55793750Y49200000I243750J0D01*
G01*
X56281250Y49200000D01*
G75*
G02*
X56525000Y48956250I0J-243750D01*
G01*
G37*
%TD.AperFunction*%
%TA.AperFunction,SMDPad,CuDef*%
G36*
G01*
X10150000Y45943750D02*
X10150000Y46856250D01*
G75*
G02*
X10393750Y47100000I243750J0D01*
G01*
X10881250Y47100000D01*
G75*
G02*
X11125000Y46856250I0J-243750D01*
G01*
X11125000Y45943750D01*
G75*
G02*
X10881250Y45700000I-243750J0D01*
G01*
X10393750Y45700000D01*
G75*
G02*
X10150000Y45943750I0J243750D01*
G01*
G37*
%TD.AperFunction*%
%TA.AperFunction,SMDPad,CuDef*%
G36*
G01*
X8275000Y45943750D02*
X8275000Y46856250D01*
G75*
G02*
X8518750Y47100000I243750J0D01*
G01*
X9006250Y47100000D01*
G75*
G02*
X9250000Y46856250I0J-243750D01*
G01*
X9250000Y45943750D01*
G75*
G02*
X9006250Y45700000I-243750J0D01*
G01*
X8518750Y45700000D01*
G75*
G02*
X8275000Y45943750I0J243750D01*
G01*
G37*
%TD.AperFunction*%
%TA.AperFunction,SMDPad,CuDef*%
G36*
G01*
X10150000Y48043750D02*
X10150000Y48956250D01*
G75*
G02*
X10393750Y49200000I243750J0D01*
G01*
X10881250Y49200000D01*
G75*
G02*
X11125000Y48956250I0J-243750D01*
G01*
X11125000Y48043750D01*
G75*
G02*
X10881250Y47800000I-243750J0D01*
G01*
X10393750Y47800000D01*
G75*
G02*
X10150000Y48043750I0J243750D01*
G01*
G37*
%TD.AperFunction*%
%TA.AperFunction,SMDPad,CuDef*%
G36*
G01*
X8275000Y48043750D02*
X8275000Y48956250D01*
G75*
G02*
X8518750Y49200000I243750J0D01*
G01*
X9006250Y49200000D01*
G75*
G02*
X9250000Y48956250I0J-243750D01*
G01*
X9250000Y48043750D01*
G75*
G02*
X9006250Y47800000I-243750J0D01*
G01*
X8518750Y47800000D01*
G75*
G02*
X8275000Y48043750I0J243750D01*
G01*
G37*
%TD.AperFunction*%
X8370000Y51230000D03*
D11*
X8370000Y53770000D03*
X10910000Y51230000D03*
X10910000Y53770000D03*
X13450000Y51230000D03*
X13450000Y53770000D03*
X15990000Y51230000D03*
X15990000Y53770000D03*
X18530000Y51230000D03*
X18530000Y53770000D03*
X21070000Y51230000D03*
X21070000Y53770000D03*
X23610000Y51230000D03*
X23610000Y53770000D03*
X26150000Y51230000D03*
X26150000Y53770000D03*
X28690000Y51230000D03*
X28690000Y53770000D03*
X31230000Y51230000D03*
X31230000Y53770000D03*
X33770000Y51230000D03*
X33770000Y53770000D03*
X36310000Y51230000D03*
X36310000Y53770000D03*
X38850000Y51230000D03*
X38850000Y53770000D03*
X41390000Y51230000D03*
X41390000Y53770000D03*
X43930000Y51230000D03*
X43930000Y53770000D03*
X46470000Y51230000D03*
X46470000Y53770000D03*
X49010000Y51230000D03*
X49010000Y53770000D03*
X51550000Y51230000D03*
X51550000Y53770000D03*
X54090000Y51230000D03*
X54090000Y53770000D03*
X56630000Y51230000D03*
X56630000Y53770000D03*
D13*
X10099990Y49500010D02*
X8370000Y51230000D01*
X12677824Y49500010D02*
X10099990Y49500010D01*
X13000010Y49177824D02*
X12677824Y49500010D01*
X13000010Y47412490D02*
X13000010Y49177824D01*
X14012500Y46400000D02*
X13000010Y47412490D01*
X27539999Y50079999D02*
X15379999Y50079999D01*
X28690000Y51230000D02*
X27539999Y50079999D01*
X15379999Y50079999D02*
X15000000Y49700000D01*
X15000000Y47387500D02*
X14012500Y46400000D01*
X15000000Y49700000D02*
X15000000Y47387500D01*
X12060001Y52619999D02*
X10910000Y53770000D01*
X14012500Y48965498D02*
X14012500Y48500000D01*
X12060001Y50917997D02*
X14012500Y48965498D01*
X12060001Y52619999D02*
X12060001Y50917997D01*
X8762500Y46400000D02*
X8762500Y48500000D01*
X12299999Y54920001D02*
X13450000Y53770000D01*
X7817999Y54920001D02*
X12299999Y54920001D01*
X7219999Y54322001D02*
X7817999Y54920001D01*
X7219999Y50042501D02*
X7219999Y54322001D01*
X8762500Y48500000D02*
X7219999Y50042501D01*
X56630000Y49092500D02*
X56037500Y48500000D01*
X56630000Y51230000D02*
X56630000Y49092500D01*
X56037500Y48500000D02*
X56037500Y46400000D01*
X10637500Y48500000D02*
X12187500Y48500000D01*
X10637500Y46400000D02*
X12187500Y46400000D01*
X54162500Y48500000D02*
X52612500Y48500000D01*
X54162500Y46400000D02*
X52612500Y46400000D01*
X44120000Y48500000D02*
X41390000Y51230000D01*
X50787500Y48500000D02*
X44120000Y48500000D01*
X49322003Y52619999D02*
X42540001Y52619999D01*
X42540001Y52619999D02*
X41390000Y53770000D01*
X50160001Y50639999D02*
X50160001Y51782001D01*
X50160001Y51782001D02*
X49322003Y52619999D01*
X51600010Y49199990D02*
X50160001Y50639999D01*
X51600010Y47212510D02*
X51600010Y49199990D01*
X50787500Y46400000D02*
X51600010Y47212510D01*
M02*
