%TF.GenerationSoftware,KiCad,Pcbnew,(5.1.7-7-g831c51c875)-1*%
%TF.CreationDate,2021-03-20T10:33:23-05:00*%
%TF.ProjectId,raspberry_pi_fan_hat,72617370-6265-4727-9279-5f70695f6661,rev?*%
%TF.SameCoordinates,PXbebc200PY8f0d180*%
%TF.FileFunction,Legend,Top*%
%TF.FilePolarity,Positive*%
%FSLAX46Y46*%
G04 Gerber Fmt 4.6, Leading zero omitted, Abs format (unit mm)*
G04 Created by KiCad (PCBNEW (5.1.7-7-g831c51c875)-1) date 2021-03-20 10:33:23*
%MOMM*%
%LPD*%
G01*
G04 APERTURE LIST*
%ADD10C,0.150000*%
%ADD11C,0.100000*%
%TA.AperFunction,Profile*%
%ADD12C,0.100000*%
%TD*%
%ADD13C,0.010000*%
%ADD14C,0.120000*%
G04 APERTURE END LIST*
D10*
X16652380Y23380953D02*
X17366666Y23380953D01*
X17509523Y23333334D01*
X17604761Y23238096D01*
X17652380Y23095239D01*
X17652380Y23000000D01*
X17652380Y24333334D02*
X17652380Y23857143D01*
X16652380Y23857143D01*
X17557142Y25238096D02*
X17604761Y25190477D01*
X17652380Y25047620D01*
X17652380Y24952381D01*
X17604761Y24809524D01*
X17509523Y24714286D01*
X17414285Y24666667D01*
X17223809Y24619048D01*
X17080952Y24619048D01*
X16890476Y24666667D01*
X16795238Y24714286D01*
X16700000Y24809524D01*
X16652380Y24952381D01*
X16652380Y25047620D01*
X16700000Y25190477D01*
X16747619Y25238096D01*
X16652380Y25952381D02*
X17366666Y25952381D01*
X17509523Y25904762D01*
X17604761Y25809524D01*
X17652380Y25666667D01*
X17652380Y25571429D01*
X17652380Y26904762D02*
X17652380Y26428572D01*
X16652380Y26428572D01*
X17557142Y27809524D02*
X17604761Y27761905D01*
X17652380Y27619048D01*
X17652380Y27523810D01*
X17604761Y27380953D01*
X17509523Y27285715D01*
X17414285Y27238096D01*
X17223809Y27190477D01*
X17080952Y27190477D01*
X16890476Y27238096D01*
X16795238Y27285715D01*
X16700000Y27380953D01*
X16652380Y27523810D01*
X16652380Y27619048D01*
X16700000Y27761905D01*
X16747619Y27809524D01*
X16652380Y28523810D02*
X17366666Y28523810D01*
X17509523Y28476191D01*
X17604761Y28380953D01*
X17652380Y28238096D01*
X17652380Y28142858D01*
X17652380Y29476191D02*
X17652380Y29000000D01*
X16652380Y29000000D01*
X17557142Y30380953D02*
X17604761Y30333334D01*
X17652380Y30190477D01*
X17652380Y30095239D01*
X17604761Y29952381D01*
X17509523Y29857143D01*
X17414285Y29809524D01*
X17223809Y29761905D01*
X17080952Y29761905D01*
X16890476Y29809524D01*
X16795238Y29857143D01*
X16700000Y29952381D01*
X16652380Y30095239D01*
X16652380Y30190477D01*
X16700000Y30333334D01*
X16747619Y30380953D01*
X16652380Y31095239D02*
X17366666Y31095239D01*
X17509523Y31047620D01*
X17604761Y30952381D01*
X17652380Y30809524D01*
X17652380Y30714286D01*
X17652380Y32047620D02*
X17652380Y31571429D01*
X16652380Y31571429D01*
X17557142Y32952381D02*
X17604761Y32904762D01*
X17652380Y32761905D01*
X17652380Y32666667D01*
X17604761Y32523810D01*
X17509523Y32428572D01*
X17414285Y32380953D01*
X17223809Y32333334D01*
X17080952Y32333334D01*
X16890476Y32380953D01*
X16795238Y32428572D01*
X16700000Y32523810D01*
X16652380Y32666667D01*
X16652380Y32761905D01*
X16700000Y32904762D01*
X16747619Y32952381D01*
X17800000Y43700000D02*
X17800000Y49000000D01*
X28000000Y43700000D02*
X17800000Y43700000D01*
X28000000Y49000000D02*
X28000000Y43700000D01*
X17800000Y49000000D02*
X28000000Y49000000D01*
X29038095Y45600000D02*
X28942857Y45647620D01*
X28800000Y45647620D01*
X28657142Y45600000D01*
X28561904Y45504762D01*
X28514285Y45409524D01*
X28466666Y45219048D01*
X28466666Y45076191D01*
X28514285Y44885715D01*
X28561904Y44790477D01*
X28657142Y44695239D01*
X28800000Y44647620D01*
X28895238Y44647620D01*
X29038095Y44695239D01*
X29085714Y44742858D01*
X29085714Y45076191D01*
X28895238Y45076191D01*
X29514285Y44647620D02*
X29514285Y45647620D01*
X30085714Y44647620D01*
X30085714Y45647620D01*
X30561904Y44647620D02*
X30561904Y45647620D01*
X30800000Y45647620D01*
X30942857Y45600000D01*
X31038095Y45504762D01*
X31085714Y45409524D01*
X31133333Y45219048D01*
X31133333Y45076191D01*
X31085714Y44885715D01*
X31038095Y44790477D01*
X30942857Y44695239D01*
X30800000Y44647620D01*
X30561904Y44647620D01*
X29857142Y48247620D02*
X29380952Y48247620D01*
X29333333Y47771429D01*
X29380952Y47819048D01*
X29476190Y47866667D01*
X29714285Y47866667D01*
X29809523Y47819048D01*
X29857142Y47771429D01*
X29904761Y47676191D01*
X29904761Y47438096D01*
X29857142Y47342858D01*
X29809523Y47295239D01*
X29714285Y47247620D01*
X29476190Y47247620D01*
X29380952Y47295239D01*
X29333333Y47342858D01*
X30238095Y47914286D02*
X30476190Y47247620D01*
X30714285Y47914286D01*
X39195238Y46391667D02*
X39147619Y46439286D01*
X39052380Y46582143D01*
X39004761Y46677381D01*
X38957142Y46820239D01*
X38909523Y47058334D01*
X38909523Y47248810D01*
X38957142Y47486905D01*
X39004761Y47629762D01*
X39052380Y47725000D01*
X39147619Y47867858D01*
X39195238Y47915477D01*
X40004761Y46820239D02*
X39909523Y46772620D01*
X39719047Y46772620D01*
X39623809Y46820239D01*
X39576190Y46867858D01*
X39528571Y46963096D01*
X39528571Y47248810D01*
X39576190Y47344048D01*
X39623809Y47391667D01*
X39719047Y47439286D01*
X39909523Y47439286D01*
X40004761Y47391667D01*
X40338095Y46391667D02*
X40385714Y46439286D01*
X40480952Y46582143D01*
X40528571Y46677381D01*
X40576190Y46820239D01*
X40623809Y47058334D01*
X40623809Y47248810D01*
X40576190Y47486905D01*
X40528571Y47629762D01*
X40480952Y47725000D01*
X40385714Y47867858D01*
X40338095Y47915477D01*
X42290476Y46772620D02*
X42290476Y47296429D01*
X42242857Y47391667D01*
X42147619Y47439286D01*
X41957142Y47439286D01*
X41861904Y47391667D01*
X42290476Y46820239D02*
X42195238Y46772620D01*
X41957142Y46772620D01*
X41861904Y46820239D01*
X41814285Y46915477D01*
X41814285Y47010715D01*
X41861904Y47105953D01*
X41957142Y47153572D01*
X42195238Y47153572D01*
X42290476Y47201191D01*
X42766666Y46772620D02*
X42766666Y47772620D01*
X42861904Y47153572D02*
X43147619Y46772620D01*
X43147619Y47439286D02*
X42766666Y47058334D01*
X44004761Y47439286D02*
X44004761Y46772620D01*
X43576190Y47439286D02*
X43576190Y46915477D01*
X43623809Y46820239D01*
X43719047Y46772620D01*
X43861904Y46772620D01*
X43957142Y46820239D01*
X44004761Y46867858D01*
X44480952Y46772620D02*
X44480952Y47772620D01*
X44576190Y47153572D02*
X44861904Y46772620D01*
X44861904Y47439286D02*
X44480952Y47058334D01*
X45671428Y46820239D02*
X45576190Y46772620D01*
X45385714Y46772620D01*
X45290476Y46820239D01*
X45242857Y46915477D01*
X45242857Y47296429D01*
X45290476Y47391667D01*
X45385714Y47439286D01*
X45576190Y47439286D01*
X45671428Y47391667D01*
X45719047Y47296429D01*
X45719047Y47201191D01*
X45242857Y47105953D01*
X46147619Y46772620D02*
X46147619Y47439286D01*
X46147619Y47248810D02*
X46195238Y47344048D01*
X46242857Y47391667D01*
X46338095Y47439286D01*
X46433333Y47439286D01*
X40885714Y46027381D02*
X40933333Y46075000D01*
X41028571Y46122620D01*
X41266666Y46122620D01*
X41361904Y46075000D01*
X41409523Y46027381D01*
X41457142Y45932143D01*
X41457142Y45836905D01*
X41409523Y45694048D01*
X40838095Y45122620D01*
X41457142Y45122620D01*
X42076190Y46122620D02*
X42171428Y46122620D01*
X42266666Y46075000D01*
X42314285Y46027381D01*
X42361904Y45932143D01*
X42409523Y45741667D01*
X42409523Y45503572D01*
X42361904Y45313096D01*
X42314285Y45217858D01*
X42266666Y45170239D01*
X42171428Y45122620D01*
X42076190Y45122620D01*
X41980952Y45170239D01*
X41933333Y45217858D01*
X41885714Y45313096D01*
X41838095Y45503572D01*
X41838095Y45741667D01*
X41885714Y45932143D01*
X41933333Y46027381D01*
X41980952Y46075000D01*
X42076190Y46122620D01*
X42790476Y46027381D02*
X42838095Y46075000D01*
X42933333Y46122620D01*
X43171428Y46122620D01*
X43266666Y46075000D01*
X43314285Y46027381D01*
X43361904Y45932143D01*
X43361904Y45836905D01*
X43314285Y45694048D01*
X42742857Y45122620D01*
X43361904Y45122620D01*
X44314285Y45122620D02*
X43742857Y45122620D01*
X44028571Y45122620D02*
X44028571Y46122620D01*
X43933333Y45979762D01*
X43838095Y45884524D01*
X43742857Y45836905D01*
X18800000Y47597620D02*
X18466666Y48073810D01*
X18228571Y47597620D02*
X18228571Y48597620D01*
X18609523Y48597620D01*
X18704761Y48550000D01*
X18752380Y48502381D01*
X18800000Y48407143D01*
X18800000Y48264286D01*
X18752380Y48169048D01*
X18704761Y48121429D01*
X18609523Y48073810D01*
X18228571Y48073810D01*
X19657142Y47597620D02*
X19657142Y48121429D01*
X19609523Y48216667D01*
X19514285Y48264286D01*
X19323809Y48264286D01*
X19228571Y48216667D01*
X19657142Y47645239D02*
X19561904Y47597620D01*
X19323809Y47597620D01*
X19228571Y47645239D01*
X19180952Y47740477D01*
X19180952Y47835715D01*
X19228571Y47930953D01*
X19323809Y47978572D01*
X19561904Y47978572D01*
X19657142Y48026191D01*
X20085714Y47645239D02*
X20180952Y47597620D01*
X20371428Y47597620D01*
X20466666Y47645239D01*
X20514285Y47740477D01*
X20514285Y47788096D01*
X20466666Y47883334D01*
X20371428Y47930953D01*
X20228571Y47930953D01*
X20133333Y47978572D01*
X20085714Y48073810D01*
X20085714Y48121429D01*
X20133333Y48216667D01*
X20228571Y48264286D01*
X20371428Y48264286D01*
X20466666Y48216667D01*
X20942857Y48264286D02*
X20942857Y47264286D01*
X20942857Y48216667D02*
X21038095Y48264286D01*
X21228571Y48264286D01*
X21323809Y48216667D01*
X21371428Y48169048D01*
X21419047Y48073810D01*
X21419047Y47788096D01*
X21371428Y47692858D01*
X21323809Y47645239D01*
X21228571Y47597620D01*
X21038095Y47597620D01*
X20942857Y47645239D01*
X21847619Y47597620D02*
X21847619Y48597620D01*
X21847619Y48216667D02*
X21942857Y48264286D01*
X22133333Y48264286D01*
X22228571Y48216667D01*
X22276190Y48169048D01*
X22323809Y48073810D01*
X22323809Y47788096D01*
X22276190Y47692858D01*
X22228571Y47645239D01*
X22133333Y47597620D01*
X21942857Y47597620D01*
X21847619Y47645239D01*
X23133333Y47645239D02*
X23038095Y47597620D01*
X22847619Y47597620D01*
X22752380Y47645239D01*
X22704761Y47740477D01*
X22704761Y48121429D01*
X22752380Y48216667D01*
X22847619Y48264286D01*
X23038095Y48264286D01*
X23133333Y48216667D01*
X23180952Y48121429D01*
X23180952Y48026191D01*
X22704761Y47930953D01*
X23609523Y47597620D02*
X23609523Y48264286D01*
X23609523Y48073810D02*
X23657142Y48169048D01*
X23704761Y48216667D01*
X23800000Y48264286D01*
X23895238Y48264286D01*
X24228571Y47597620D02*
X24228571Y48264286D01*
X24228571Y48073810D02*
X24276190Y48169048D01*
X24323809Y48216667D01*
X24419047Y48264286D01*
X24514285Y48264286D01*
X24752380Y48264286D02*
X24990476Y47597620D01*
X25228571Y48264286D02*
X24990476Y47597620D01*
X24895238Y47359524D01*
X24847619Y47311905D01*
X24752380Y47264286D01*
X26371428Y47597620D02*
X26371428Y48597620D01*
X26752380Y48597620D01*
X26847619Y48550000D01*
X26895238Y48502381D01*
X26942857Y48407143D01*
X26942857Y48264286D01*
X26895238Y48169048D01*
X26847619Y48121429D01*
X26752380Y48073810D01*
X26371428Y48073810D01*
X27371428Y47597620D02*
X27371428Y48264286D01*
X27371428Y48597620D02*
X27323809Y48550000D01*
X27371428Y48502381D01*
X27419047Y48550000D01*
X27371428Y48597620D01*
X27371428Y48502381D01*
X19228571Y46471429D02*
X18895238Y46471429D01*
X18895238Y45947620D02*
X18895238Y46947620D01*
X19371428Y46947620D01*
X20180952Y45947620D02*
X20180952Y46471429D01*
X20133333Y46566667D01*
X20038095Y46614286D01*
X19847619Y46614286D01*
X19752380Y46566667D01*
X20180952Y45995239D02*
X20085714Y45947620D01*
X19847619Y45947620D01*
X19752380Y45995239D01*
X19704761Y46090477D01*
X19704761Y46185715D01*
X19752380Y46280953D01*
X19847619Y46328572D01*
X20085714Y46328572D01*
X20180952Y46376191D01*
X20657142Y46614286D02*
X20657142Y45947620D01*
X20657142Y46519048D02*
X20704761Y46566667D01*
X20800000Y46614286D01*
X20942857Y46614286D01*
X21038095Y46566667D01*
X21085714Y46471429D01*
X21085714Y45947620D01*
X22323809Y45947620D02*
X22323809Y46947620D01*
X22323809Y46471429D02*
X22895238Y46471429D01*
X22895238Y45947620D02*
X22895238Y46947620D01*
X23514285Y45947620D02*
X23419047Y45995239D01*
X23371428Y46042858D01*
X23323809Y46138096D01*
X23323809Y46423810D01*
X23371428Y46519048D01*
X23419047Y46566667D01*
X23514285Y46614286D01*
X23657142Y46614286D01*
X23752380Y46566667D01*
X23800000Y46519048D01*
X23847619Y46423810D01*
X23847619Y46138096D01*
X23800000Y46042858D01*
X23752380Y45995239D01*
X23657142Y45947620D01*
X23514285Y45947620D01*
X24419047Y45947620D02*
X24323809Y45995239D01*
X24276190Y46090477D01*
X24276190Y46947620D01*
X25228571Y45947620D02*
X25228571Y46947620D01*
X25228571Y45995239D02*
X25133333Y45947620D01*
X24942857Y45947620D01*
X24847619Y45995239D01*
X24800000Y46042858D01*
X24752380Y46138096D01*
X24752380Y46423810D01*
X24800000Y46519048D01*
X24847619Y46566667D01*
X24942857Y46614286D01*
X25133333Y46614286D01*
X25228571Y46566667D01*
X26085714Y45995239D02*
X25990476Y45947620D01*
X25800000Y45947620D01*
X25704761Y45995239D01*
X25657142Y46090477D01*
X25657142Y46471429D01*
X25704761Y46566667D01*
X25800000Y46614286D01*
X25990476Y46614286D01*
X26085714Y46566667D01*
X26133333Y46471429D01*
X26133333Y46376191D01*
X25657142Y46280953D01*
X26561904Y45947620D02*
X26561904Y46614286D01*
X26561904Y46423810D02*
X26609523Y46519048D01*
X26657142Y46566667D01*
X26752380Y46614286D01*
X26847619Y46614286D01*
X21371428Y44964286D02*
X21609523Y44297620D01*
X21847619Y44964286D01*
X22752380Y44297620D02*
X22180952Y44297620D01*
X22466666Y44297620D02*
X22466666Y45297620D01*
X22371428Y45154762D01*
X22276190Y45059524D01*
X22180952Y45011905D01*
X23180952Y44392858D02*
X23228571Y44345239D01*
X23180952Y44297620D01*
X23133333Y44345239D01*
X23180952Y44392858D01*
X23180952Y44297620D01*
X23847619Y45297620D02*
X23942857Y45297620D01*
X24038095Y45250000D01*
X24085714Y45202381D01*
X24133333Y45107143D01*
X24180952Y44916667D01*
X24180952Y44678572D01*
X24133333Y44488096D01*
X24085714Y44392858D01*
X24038095Y44345239D01*
X23942857Y44297620D01*
X23847619Y44297620D01*
X23752380Y44345239D01*
X23704761Y44392858D01*
X23657142Y44488096D01*
X23609523Y44678572D01*
X23609523Y44916667D01*
X23657142Y45107143D01*
X23704761Y45202381D01*
X23752380Y45250000D01*
X23847619Y45297620D01*
X17595238Y11947620D02*
X17595238Y12947620D01*
X18023809Y11947620D02*
X18023809Y12471429D01*
X17976190Y12566667D01*
X17880952Y12614286D01*
X17738095Y12614286D01*
X17642857Y12566667D01*
X17595238Y12519048D01*
X18357142Y12614286D02*
X18738095Y12614286D01*
X18500000Y12947620D02*
X18500000Y12090477D01*
X18547619Y11995239D01*
X18642857Y11947620D01*
X18738095Y11947620D01*
X18928571Y12614286D02*
X19309523Y12614286D01*
X19071428Y12947620D02*
X19071428Y12090477D01*
X19119047Y11995239D01*
X19214285Y11947620D01*
X19309523Y11947620D01*
X19642857Y12614286D02*
X19642857Y11614286D01*
X19642857Y12566667D02*
X19738095Y12614286D01*
X19928571Y12614286D01*
X20023809Y12566667D01*
X20071428Y12519048D01*
X20119047Y12423810D01*
X20119047Y12138096D01*
X20071428Y12042858D01*
X20023809Y11995239D01*
X19928571Y11947620D01*
X19738095Y11947620D01*
X19642857Y11995239D01*
X20500000Y11995239D02*
X20595238Y11947620D01*
X20785714Y11947620D01*
X20880952Y11995239D01*
X20928571Y12090477D01*
X20928571Y12138096D01*
X20880952Y12233334D01*
X20785714Y12280953D01*
X20642857Y12280953D01*
X20547619Y12328572D01*
X20500000Y12423810D01*
X20500000Y12471429D01*
X20547619Y12566667D01*
X20642857Y12614286D01*
X20785714Y12614286D01*
X20880952Y12566667D01*
X21357142Y12042858D02*
X21404761Y11995239D01*
X21357142Y11947620D01*
X21309523Y11995239D01*
X21357142Y12042858D01*
X21357142Y11947620D01*
X21357142Y12566667D02*
X21404761Y12519048D01*
X21357142Y12471429D01*
X21309523Y12519048D01*
X21357142Y12566667D01*
X21357142Y12471429D01*
X22547619Y12995239D02*
X21690476Y11709524D01*
X23595238Y12995239D02*
X22738095Y11709524D01*
X24357142Y12614286D02*
X24357142Y11804762D01*
X24309523Y11709524D01*
X24261904Y11661905D01*
X24166666Y11614286D01*
X24023809Y11614286D01*
X23928571Y11661905D01*
X24357142Y11995239D02*
X24261904Y11947620D01*
X24071428Y11947620D01*
X23976190Y11995239D01*
X23928571Y12042858D01*
X23880952Y12138096D01*
X23880952Y12423810D01*
X23928571Y12519048D01*
X23976190Y12566667D01*
X24071428Y12614286D01*
X24261904Y12614286D01*
X24357142Y12566667D01*
X24833333Y11947620D02*
X24833333Y12614286D01*
X24833333Y12947620D02*
X24785714Y12900000D01*
X24833333Y12852381D01*
X24880952Y12900000D01*
X24833333Y12947620D01*
X24833333Y12852381D01*
X25166666Y12614286D02*
X25547619Y12614286D01*
X25309523Y12947620D02*
X25309523Y12090477D01*
X25357142Y11995239D01*
X25452380Y11947620D01*
X25547619Y11947620D01*
X25880952Y11947620D02*
X25880952Y12947620D01*
X26309523Y11947620D02*
X26309523Y12471429D01*
X26261904Y12566667D01*
X26166666Y12614286D01*
X26023809Y12614286D01*
X25928571Y12566667D01*
X25880952Y12519048D01*
X27214285Y12614286D02*
X27214285Y11947620D01*
X26785714Y12614286D02*
X26785714Y12090477D01*
X26833333Y11995239D01*
X26928571Y11947620D01*
X27071428Y11947620D01*
X27166666Y11995239D01*
X27214285Y12042858D01*
X27690476Y11947620D02*
X27690476Y12947620D01*
X27690476Y12566667D02*
X27785714Y12614286D01*
X27976190Y12614286D01*
X28071428Y12566667D01*
X28119047Y12519048D01*
X28166666Y12423810D01*
X28166666Y12138096D01*
X28119047Y12042858D01*
X28071428Y11995239D01*
X27976190Y11947620D01*
X27785714Y11947620D01*
X27690476Y11995239D01*
X28595238Y12042858D02*
X28642857Y11995239D01*
X28595238Y11947620D01*
X28547619Y11995239D01*
X28595238Y12042858D01*
X28595238Y11947620D01*
X29500000Y11995239D02*
X29404761Y11947620D01*
X29214285Y11947620D01*
X29119047Y11995239D01*
X29071428Y12042858D01*
X29023809Y12138096D01*
X29023809Y12423810D01*
X29071428Y12519048D01*
X29119047Y12566667D01*
X29214285Y12614286D01*
X29404761Y12614286D01*
X29500000Y12566667D01*
X30071428Y11947620D02*
X29976190Y11995239D01*
X29928571Y12042858D01*
X29880952Y12138096D01*
X29880952Y12423810D01*
X29928571Y12519048D01*
X29976190Y12566667D01*
X30071428Y12614286D01*
X30214285Y12614286D01*
X30309523Y12566667D01*
X30357142Y12519048D01*
X30404761Y12423810D01*
X30404761Y12138096D01*
X30357142Y12042858D01*
X30309523Y11995239D01*
X30214285Y11947620D01*
X30071428Y11947620D01*
X30833333Y11947620D02*
X30833333Y12614286D01*
X30833333Y12519048D02*
X30880952Y12566667D01*
X30976190Y12614286D01*
X31119047Y12614286D01*
X31214285Y12566667D01*
X31261904Y12471429D01*
X31261904Y11947620D01*
X31261904Y12471429D02*
X31309523Y12566667D01*
X31404761Y12614286D01*
X31547619Y12614286D01*
X31642857Y12566667D01*
X31690476Y12471429D01*
X31690476Y11947620D01*
X32880952Y12995239D02*
X32023809Y11709524D01*
X33642857Y11947620D02*
X33642857Y12471429D01*
X33595238Y12566667D01*
X33500000Y12614286D01*
X33309523Y12614286D01*
X33214285Y12566667D01*
X33642857Y11995239D02*
X33547619Y11947620D01*
X33309523Y11947620D01*
X33214285Y11995239D01*
X33166666Y12090477D01*
X33166666Y12185715D01*
X33214285Y12280953D01*
X33309523Y12328572D01*
X33547619Y12328572D01*
X33642857Y12376191D01*
X34119047Y11947620D02*
X34119047Y12947620D01*
X34214285Y12328572D02*
X34500000Y11947620D01*
X34500000Y12614286D02*
X34119047Y12233334D01*
X35357142Y12614286D02*
X35357142Y11947620D01*
X34928571Y12614286D02*
X34928571Y12090477D01*
X34976190Y11995239D01*
X35071428Y11947620D01*
X35214285Y11947620D01*
X35309523Y11995239D01*
X35357142Y12042858D01*
X35833333Y11947620D02*
X35833333Y12947620D01*
X35928571Y12328572D02*
X36214285Y11947620D01*
X36214285Y12614286D02*
X35833333Y12233334D01*
X37023809Y11995239D02*
X36928571Y11947620D01*
X36738095Y11947620D01*
X36642857Y11995239D01*
X36595238Y12090477D01*
X36595238Y12471429D01*
X36642857Y12566667D01*
X36738095Y12614286D01*
X36928571Y12614286D01*
X37023809Y12566667D01*
X37071428Y12471429D01*
X37071428Y12376191D01*
X36595238Y12280953D01*
X37500000Y11947620D02*
X37500000Y12614286D01*
X37500000Y12423810D02*
X37547619Y12519048D01*
X37595238Y12566667D01*
X37690476Y12614286D01*
X37785714Y12614286D01*
X38833333Y12995239D02*
X37976190Y11709524D01*
X39166666Y11947620D02*
X39166666Y12947620D01*
X39595238Y11947620D02*
X39595238Y12471429D01*
X39547619Y12566667D01*
X39452380Y12614286D01*
X39309523Y12614286D01*
X39214285Y12566667D01*
X39166666Y12519048D01*
X39976190Y12614286D02*
X40166666Y11947620D01*
X40357142Y12423810D01*
X40547619Y11947620D01*
X40738095Y12614286D01*
X40880952Y11852381D02*
X41642857Y11852381D01*
X41880952Y12614286D02*
X41880952Y11614286D01*
X41880952Y12566667D02*
X41976190Y12614286D01*
X42166666Y12614286D01*
X42261904Y12566667D01*
X42309523Y12519048D01*
X42357142Y12423810D01*
X42357142Y12138096D01*
X42309523Y12042858D01*
X42261904Y11995239D01*
X42166666Y11947620D01*
X41976190Y11947620D01*
X41880952Y11995239D01*
X42785714Y11947620D02*
X42785714Y12614286D01*
X42785714Y12423810D02*
X42833333Y12519048D01*
X42880952Y12566667D01*
X42976190Y12614286D01*
X43071428Y12614286D01*
X43547619Y11947620D02*
X43452380Y11995239D01*
X43404761Y12042858D01*
X43357142Y12138096D01*
X43357142Y12423810D01*
X43404761Y12519048D01*
X43452380Y12566667D01*
X43547619Y12614286D01*
X43690476Y12614286D01*
X43785714Y12566667D01*
X43833333Y12519048D01*
X43880952Y12423810D01*
X43880952Y12138096D01*
X43833333Y12042858D01*
X43785714Y11995239D01*
X43690476Y11947620D01*
X43547619Y11947620D01*
X44309523Y12614286D02*
X44309523Y11757143D01*
X44261904Y11661905D01*
X44166666Y11614286D01*
X44119047Y11614286D01*
X44309523Y12947620D02*
X44261904Y12900000D01*
X44309523Y12852381D01*
X44357142Y12900000D01*
X44309523Y12947620D01*
X44309523Y12852381D01*
X45166666Y11995239D02*
X45071428Y11947620D01*
X44880952Y11947620D01*
X44785714Y11995239D01*
X44738095Y12090477D01*
X44738095Y12471429D01*
X44785714Y12566667D01*
X44880952Y12614286D01*
X45071428Y12614286D01*
X45166666Y12566667D01*
X45214285Y12471429D01*
X45214285Y12376191D01*
X44738095Y12280953D01*
X46071428Y11995239D02*
X45976190Y11947620D01*
X45785714Y11947620D01*
X45690476Y11995239D01*
X45642857Y12042858D01*
X45595238Y12138096D01*
X45595238Y12423810D01*
X45642857Y12519048D01*
X45690476Y12566667D01*
X45785714Y12614286D01*
X45976190Y12614286D01*
X46071428Y12566667D01*
X46357142Y12614286D02*
X46738095Y12614286D01*
X46500000Y12947620D02*
X46500000Y12090477D01*
X46547619Y11995239D01*
X46642857Y11947620D01*
X46738095Y11947620D01*
X47023809Y11995239D02*
X47119047Y11947620D01*
X47309523Y11947620D01*
X47404761Y11995239D01*
X47452380Y12090477D01*
X47452380Y12138096D01*
X47404761Y12233334D01*
X47309523Y12280953D01*
X47166666Y12280953D01*
X47071428Y12328572D01*
X47023809Y12423810D01*
X47023809Y12471429D01*
X47071428Y12566667D01*
X47166666Y12614286D01*
X47309523Y12614286D01*
X47404761Y12566667D01*
D11*
X52319047Y45100000D02*
X52242857Y45138096D01*
X52128571Y45138096D01*
X52014285Y45100000D01*
X51938095Y45023810D01*
X51900000Y44947620D01*
X51861904Y44795239D01*
X51861904Y44680953D01*
X51900000Y44528572D01*
X51938095Y44452381D01*
X52014285Y44376191D01*
X52128571Y44338096D01*
X52204761Y44338096D01*
X52319047Y44376191D01*
X52357142Y44414286D01*
X52357142Y44680953D01*
X52204761Y44680953D01*
X52700000Y44338096D02*
X52700000Y45138096D01*
X53004761Y45138096D01*
X53080952Y45100000D01*
X53119047Y45061905D01*
X53157142Y44985715D01*
X53157142Y44871429D01*
X53119047Y44795239D01*
X53080952Y44757143D01*
X53004761Y44719048D01*
X52700000Y44719048D01*
X53500000Y44338096D02*
X53500000Y45138096D01*
X54033333Y45138096D02*
X54185714Y45138096D01*
X54261904Y45100000D01*
X54338095Y45023810D01*
X54376190Y44871429D01*
X54376190Y44604762D01*
X54338095Y44452381D01*
X54261904Y44376191D01*
X54185714Y44338096D01*
X54033333Y44338096D01*
X53957142Y44376191D01*
X53880952Y44452381D01*
X53842857Y44604762D01*
X53842857Y44871429D01*
X53880952Y45023810D01*
X53957142Y45100000D01*
X54033333Y45138096D01*
X54871428Y45138096D02*
X54947619Y45138096D01*
X55023809Y45100000D01*
X55061904Y45061905D01*
X55100000Y44985715D01*
X55138095Y44833334D01*
X55138095Y44642858D01*
X55100000Y44490477D01*
X55061904Y44414286D01*
X55023809Y44376191D01*
X54947619Y44338096D01*
X54871428Y44338096D01*
X54795238Y44376191D01*
X54757142Y44414286D01*
X54719047Y44490477D01*
X54680952Y44642858D01*
X54680952Y44833334D01*
X54719047Y44985715D01*
X54757142Y45061905D01*
X54795238Y45100000D01*
X54871428Y45138096D01*
X57419047Y48900000D02*
X57342857Y48938096D01*
X57228571Y48938096D01*
X57114285Y48900000D01*
X57038095Y48823810D01*
X57000000Y48747620D01*
X56961904Y48595239D01*
X56961904Y48480953D01*
X57000000Y48328572D01*
X57038095Y48252381D01*
X57114285Y48176191D01*
X57228571Y48138096D01*
X57304761Y48138096D01*
X57419047Y48176191D01*
X57457142Y48214286D01*
X57457142Y48480953D01*
X57304761Y48480953D01*
X57800000Y48138096D02*
X57800000Y48938096D01*
X58104761Y48938096D01*
X58180952Y48900000D01*
X58219047Y48861905D01*
X58257142Y48785715D01*
X58257142Y48671429D01*
X58219047Y48595239D01*
X58180952Y48557143D01*
X58104761Y48519048D01*
X57800000Y48519048D01*
X58600000Y48138096D02*
X58600000Y48938096D01*
X59133333Y48938096D02*
X59285714Y48938096D01*
X59361904Y48900000D01*
X59438095Y48823810D01*
X59476190Y48671429D01*
X59476190Y48404762D01*
X59438095Y48252381D01*
X59361904Y48176191D01*
X59285714Y48138096D01*
X59133333Y48138096D01*
X59057142Y48176191D01*
X58980952Y48252381D01*
X58942857Y48404762D01*
X58942857Y48671429D01*
X58980952Y48823810D01*
X59057142Y48900000D01*
X59133333Y48938096D01*
X59971428Y48938096D02*
X60047619Y48938096D01*
X60123809Y48900000D01*
X60161904Y48861905D01*
X60200000Y48785715D01*
X60238095Y48633334D01*
X60238095Y48442858D01*
X60200000Y48290477D01*
X60161904Y48214286D01*
X60123809Y48176191D01*
X60047619Y48138096D01*
X59971428Y48138096D01*
X59895238Y48176191D01*
X59857142Y48214286D01*
X59819047Y48290477D01*
X59780952Y48442858D01*
X59780952Y48633334D01*
X59819047Y48785715D01*
X59857142Y48861905D01*
X59895238Y48900000D01*
X59971428Y48938096D01*
X9257142Y45238096D02*
X9752380Y45238096D01*
X9485714Y44933334D01*
X9600000Y44933334D01*
X9676190Y44895239D01*
X9714285Y44857143D01*
X9752380Y44780953D01*
X9752380Y44590477D01*
X9714285Y44514286D01*
X9676190Y44476191D01*
X9600000Y44438096D01*
X9371428Y44438096D01*
X9295238Y44476191D01*
X9257142Y44514286D01*
X10095238Y44514286D02*
X10133333Y44476191D01*
X10095238Y44438096D01*
X10057142Y44476191D01*
X10095238Y44514286D01*
X10095238Y44438096D01*
X10400000Y45238096D02*
X10895238Y45238096D01*
X10628571Y44933334D01*
X10742857Y44933334D01*
X10819047Y44895239D01*
X10857142Y44857143D01*
X10895238Y44780953D01*
X10895238Y44590477D01*
X10857142Y44514286D01*
X10819047Y44476191D01*
X10742857Y44438096D01*
X10514285Y44438096D01*
X10438095Y44476191D01*
X10400000Y44514286D01*
X11161904Y44971429D02*
X11352380Y44438096D01*
X11542857Y44971429D01*
X7085714Y49038096D02*
X6704761Y49038096D01*
X6666666Y48657143D01*
X6704761Y48695239D01*
X6780952Y48733334D01*
X6971428Y48733334D01*
X7047619Y48695239D01*
X7085714Y48657143D01*
X7123809Y48580953D01*
X7123809Y48390477D01*
X7085714Y48314286D01*
X7047619Y48276191D01*
X6971428Y48238096D01*
X6780952Y48238096D01*
X6704761Y48276191D01*
X6666666Y48314286D01*
X7390476Y48771429D02*
X7580952Y48238096D01*
X7771428Y48771429D01*
D10*
X34638095Y45600000D02*
X34542857Y45647620D01*
X34400000Y45647620D01*
X34257142Y45600000D01*
X34161904Y45504762D01*
X34114285Y45409524D01*
X34066666Y45219048D01*
X34066666Y45076191D01*
X34114285Y44885715D01*
X34161904Y44790477D01*
X34257142Y44695239D01*
X34400000Y44647620D01*
X34495238Y44647620D01*
X34638095Y44695239D01*
X34685714Y44742858D01*
X34685714Y45076191D01*
X34495238Y45076191D01*
X35114285Y44647620D02*
X35114285Y45647620D01*
X35685714Y44647620D01*
X35685714Y45647620D01*
X36161904Y44647620D02*
X36161904Y45647620D01*
X36400000Y45647620D01*
X36542857Y45600000D01*
X36638095Y45504762D01*
X36685714Y45409524D01*
X36733333Y45219048D01*
X36733333Y45076191D01*
X36685714Y44885715D01*
X36638095Y44790477D01*
X36542857Y44695239D01*
X36400000Y44647620D01*
X36161904Y44647620D01*
X34657142Y48247620D02*
X34180952Y48247620D01*
X34133333Y47771429D01*
X34180952Y47819048D01*
X34276190Y47866667D01*
X34514285Y47866667D01*
X34609523Y47819048D01*
X34657142Y47771429D01*
X34704761Y47676191D01*
X34704761Y47438096D01*
X34657142Y47342858D01*
X34609523Y47295239D01*
X34514285Y47247620D01*
X34276190Y47247620D01*
X34180952Y47295239D01*
X34133333Y47342858D01*
X35038095Y47914286D02*
X35276190Y47247620D01*
X35514285Y47914286D01*
D12*
X46030000Y16000000D02*
G75*
G03*
X46030000Y16000000I-1530000J0D01*
G01*
X22030000Y16000000D02*
G75*
G03*
X22030000Y16000000I-1530000J0D01*
G01*
X22030000Y40000000D02*
G75*
G03*
X22030000Y40000000I-1530000J0D01*
G01*
X46030000Y40000000D02*
G75*
G03*
X46030000Y40000000I-1530000J0D01*
G01*
X3500000Y7000000D02*
X15000000Y16500000D01*
X46500000Y28000000D02*
G75*
G03*
X46500000Y28000000I-14000000J0D01*
G01*
X49500000Y39500000D02*
X61500000Y49000000D01*
X3500000Y49000000D02*
X15000000Y39500000D01*
X61500000Y7000000D02*
X49500000Y16500000D01*
X7000000Y3500000D02*
X21000000Y11000000D01*
X44000000Y11000000D02*
X58000000Y3500000D01*
X21000000Y11000000D02*
X44000000Y11000000D01*
X15000000Y39500000D02*
X15000000Y16500000D01*
X49500000Y16500000D02*
X49500000Y39500000D01*
X7000000Y3500000D02*
G75*
G02*
X3500000Y7000000I-3500000J0D01*
G01*
X61500000Y7000000D02*
G75*
G02*
X58000000Y3500000I0J-3500000D01*
G01*
X61500000Y56000000D02*
G75*
G02*
X61500000Y49000000I0J-3500000D01*
G01*
X3500000Y49000000D02*
G75*
G02*
X3500000Y56000000I0J3500000D01*
G01*
X61500000Y56000000D02*
X3500000Y56000000D01*
D13*
G36*
X48599744Y9780082D02*
G01*
X48655201Y9752432D01*
X48704148Y9701520D01*
X48717629Y9682662D01*
X48732314Y9657985D01*
X48741842Y9631184D01*
X48747293Y9595413D01*
X48749747Y9543831D01*
X48750286Y9475733D01*
X48747852Y9382412D01*
X48739394Y9312343D01*
X48723174Y9260069D01*
X48697454Y9220131D01*
X48660497Y9187071D01*
X48657782Y9185114D01*
X48621360Y9165092D01*
X48577502Y9155185D01*
X48521724Y9152743D01*
X48431048Y9152743D01*
X48431010Y9064717D01*
X48430166Y9015692D01*
X48425024Y8986935D01*
X48411587Y8969689D01*
X48385858Y8955192D01*
X48379679Y8952231D01*
X48350764Y8938352D01*
X48328376Y8929586D01*
X48311729Y8928829D01*
X48300036Y8938977D01*
X48292510Y8962927D01*
X48288366Y9003574D01*
X48286815Y9063814D01*
X48287071Y9146545D01*
X48288349Y9254661D01*
X48288748Y9287000D01*
X48290185Y9398476D01*
X48291472Y9471397D01*
X48430971Y9471397D01*
X48431755Y9409501D01*
X48435240Y9369003D01*
X48443124Y9342292D01*
X48457105Y9321756D01*
X48466597Y9311740D01*
X48505404Y9282433D01*
X48539763Y9280048D01*
X48575216Y9304250D01*
X48576114Y9305143D01*
X48590539Y9323847D01*
X48599313Y9349268D01*
X48603739Y9388416D01*
X48605118Y9448303D01*
X48605143Y9461570D01*
X48601812Y9544099D01*
X48590969Y9601309D01*
X48571340Y9636234D01*
X48541650Y9651906D01*
X48524491Y9653486D01*
X48483766Y9646074D01*
X48455832Y9621670D01*
X48439017Y9577020D01*
X48431650Y9508870D01*
X48430971Y9471397D01*
X48291472Y9471397D01*
X48291708Y9484755D01*
X48293677Y9549667D01*
X48296450Y9597042D01*
X48300388Y9630710D01*
X48305849Y9654502D01*
X48313192Y9672247D01*
X48322777Y9687776D01*
X48326887Y9693619D01*
X48381405Y9748815D01*
X48450336Y9780110D01*
X48530072Y9788835D01*
X48599744Y9780082D01*
G37*
X48599744Y9780082D02*
X48655201Y9752432D01*
X48704148Y9701520D01*
X48717629Y9682662D01*
X48732314Y9657985D01*
X48741842Y9631184D01*
X48747293Y9595413D01*
X48749747Y9543831D01*
X48750286Y9475733D01*
X48747852Y9382412D01*
X48739394Y9312343D01*
X48723174Y9260069D01*
X48697454Y9220131D01*
X48660497Y9187071D01*
X48657782Y9185114D01*
X48621360Y9165092D01*
X48577502Y9155185D01*
X48521724Y9152743D01*
X48431048Y9152743D01*
X48431010Y9064717D01*
X48430166Y9015692D01*
X48425024Y8986935D01*
X48411587Y8969689D01*
X48385858Y8955192D01*
X48379679Y8952231D01*
X48350764Y8938352D01*
X48328376Y8929586D01*
X48311729Y8928829D01*
X48300036Y8938977D01*
X48292510Y8962927D01*
X48288366Y9003574D01*
X48286815Y9063814D01*
X48287071Y9146545D01*
X48288349Y9254661D01*
X48288748Y9287000D01*
X48290185Y9398476D01*
X48291472Y9471397D01*
X48430971Y9471397D01*
X48431755Y9409501D01*
X48435240Y9369003D01*
X48443124Y9342292D01*
X48457105Y9321756D01*
X48466597Y9311740D01*
X48505404Y9282433D01*
X48539763Y9280048D01*
X48575216Y9304250D01*
X48576114Y9305143D01*
X48590539Y9323847D01*
X48599313Y9349268D01*
X48603739Y9388416D01*
X48605118Y9448303D01*
X48605143Y9461570D01*
X48601812Y9544099D01*
X48590969Y9601309D01*
X48571340Y9636234D01*
X48541650Y9651906D01*
X48524491Y9653486D01*
X48483766Y9646074D01*
X48455832Y9621670D01*
X48439017Y9577020D01*
X48431650Y9508870D01*
X48430971Y9471397D01*
X48291472Y9471397D01*
X48291708Y9484755D01*
X48293677Y9549667D01*
X48296450Y9597042D01*
X48300388Y9630710D01*
X48305849Y9654502D01*
X48313192Y9672247D01*
X48322777Y9687776D01*
X48326887Y9693619D01*
X48381405Y9748815D01*
X48450336Y9780110D01*
X48530072Y9788835D01*
X48599744Y9780082D01*
G36*
X49716093Y9772220D02*
G01*
X49762672Y9745277D01*
X49795057Y9718534D01*
X49818742Y9690516D01*
X49835059Y9656252D01*
X49845339Y9610773D01*
X49850914Y9549108D01*
X49853116Y9466289D01*
X49853371Y9406754D01*
X49853371Y9187609D01*
X49791686Y9159956D01*
X49730000Y9132303D01*
X49722743Y9372330D01*
X49719744Y9461972D01*
X49716598Y9527038D01*
X49712701Y9571974D01*
X49707447Y9601230D01*
X49700231Y9619252D01*
X49690450Y9630489D01*
X49687312Y9632921D01*
X49639761Y9651917D01*
X49591697Y9644400D01*
X49563086Y9624457D01*
X49551447Y9610325D01*
X49543391Y9591780D01*
X49538271Y9563666D01*
X49535441Y9520827D01*
X49534256Y9458105D01*
X49534057Y9392739D01*
X49534018Y9310732D01*
X49532614Y9252684D01*
X49527914Y9213535D01*
X49517987Y9188220D01*
X49500903Y9171677D01*
X49474732Y9158844D01*
X49439775Y9145509D01*
X49401596Y9130993D01*
X49406141Y9388611D01*
X49407971Y9481481D01*
X49410112Y9550111D01*
X49413181Y9599289D01*
X49417794Y9633802D01*
X49424568Y9658438D01*
X49434119Y9677984D01*
X49445634Y9695230D01*
X49501190Y9750320D01*
X49568980Y9782178D01*
X49642713Y9789809D01*
X49716093Y9772220D01*
G37*
X49716093Y9772220D02*
X49762672Y9745277D01*
X49795057Y9718534D01*
X49818742Y9690516D01*
X49835059Y9656252D01*
X49845339Y9610773D01*
X49850914Y9549108D01*
X49853116Y9466289D01*
X49853371Y9406754D01*
X49853371Y9187609D01*
X49791686Y9159956D01*
X49730000Y9132303D01*
X49722743Y9372330D01*
X49719744Y9461972D01*
X49716598Y9527038D01*
X49712701Y9571974D01*
X49707447Y9601230D01*
X49700231Y9619252D01*
X49690450Y9630489D01*
X49687312Y9632921D01*
X49639761Y9651917D01*
X49591697Y9644400D01*
X49563086Y9624457D01*
X49551447Y9610325D01*
X49543391Y9591780D01*
X49538271Y9563666D01*
X49535441Y9520827D01*
X49534256Y9458105D01*
X49534057Y9392739D01*
X49534018Y9310732D01*
X49532614Y9252684D01*
X49527914Y9213535D01*
X49517987Y9188220D01*
X49500903Y9171677D01*
X49474732Y9158844D01*
X49439775Y9145509D01*
X49401596Y9130993D01*
X49406141Y9388611D01*
X49407971Y9481481D01*
X49410112Y9550111D01*
X49413181Y9599289D01*
X49417794Y9633802D01*
X49424568Y9658438D01*
X49434119Y9677984D01*
X49445634Y9695230D01*
X49501190Y9750320D01*
X49568980Y9782178D01*
X49642713Y9789809D01*
X49716093Y9772220D01*
G36*
X48041115Y9778038D02*
G01*
X48109145Y9742267D01*
X48159351Y9684699D01*
X48177185Y9647688D01*
X48191063Y9592118D01*
X48198167Y9521904D01*
X48198840Y9445273D01*
X48193427Y9370448D01*
X48182270Y9305658D01*
X48165714Y9259127D01*
X48160626Y9251113D01*
X48100355Y9191293D01*
X48028769Y9155465D01*
X47951092Y9144980D01*
X47872548Y9161190D01*
X47850689Y9170908D01*
X47808122Y9200857D01*
X47770763Y9240567D01*
X47767232Y9245603D01*
X47752881Y9269876D01*
X47743394Y9295822D01*
X47737790Y9329978D01*
X47735086Y9378881D01*
X47734299Y9449065D01*
X47734286Y9464800D01*
X47734322Y9469808D01*
X47879429Y9469808D01*
X47880273Y9403570D01*
X47883596Y9359614D01*
X47890583Y9331221D01*
X47902416Y9311675D01*
X47908457Y9305143D01*
X47943186Y9280320D01*
X47976903Y9281452D01*
X48010995Y9302984D01*
X48031329Y9325971D01*
X48043371Y9359522D01*
X48050134Y9412431D01*
X48050598Y9418601D01*
X48051752Y9514487D01*
X48039688Y9585701D01*
X48014570Y9631806D01*
X47976560Y9652365D01*
X47962992Y9653486D01*
X47927364Y9647848D01*
X47902994Y9628314D01*
X47888093Y9590958D01*
X47880875Y9531850D01*
X47879429Y9469808D01*
X47734322Y9469808D01*
X47734826Y9539587D01*
X47737096Y9591841D01*
X47742068Y9628051D01*
X47750713Y9654701D01*
X47764005Y9678278D01*
X47766943Y9682662D01*
X47816313Y9741751D01*
X47870109Y9776053D01*
X47935602Y9789669D01*
X47957842Y9790335D01*
X48041115Y9778038D01*
G37*
X48041115Y9778038D02*
X48109145Y9742267D01*
X48159351Y9684699D01*
X48177185Y9647688D01*
X48191063Y9592118D01*
X48198167Y9521904D01*
X48198840Y9445273D01*
X48193427Y9370448D01*
X48182270Y9305658D01*
X48165714Y9259127D01*
X48160626Y9251113D01*
X48100355Y9191293D01*
X48028769Y9155465D01*
X47951092Y9144980D01*
X47872548Y9161190D01*
X47850689Y9170908D01*
X47808122Y9200857D01*
X47770763Y9240567D01*
X47767232Y9245603D01*
X47752881Y9269876D01*
X47743394Y9295822D01*
X47737790Y9329978D01*
X47735086Y9378881D01*
X47734299Y9449065D01*
X47734286Y9464800D01*
X47734322Y9469808D01*
X47879429Y9469808D01*
X47880273Y9403570D01*
X47883596Y9359614D01*
X47890583Y9331221D01*
X47902416Y9311675D01*
X47908457Y9305143D01*
X47943186Y9280320D01*
X47976903Y9281452D01*
X48010995Y9302984D01*
X48031329Y9325971D01*
X48043371Y9359522D01*
X48050134Y9412431D01*
X48050598Y9418601D01*
X48051752Y9514487D01*
X48039688Y9585701D01*
X48014570Y9631806D01*
X47976560Y9652365D01*
X47962992Y9653486D01*
X47927364Y9647848D01*
X47902994Y9628314D01*
X47888093Y9590958D01*
X47880875Y9531850D01*
X47879429Y9469808D01*
X47734322Y9469808D01*
X47734826Y9539587D01*
X47737096Y9591841D01*
X47742068Y9628051D01*
X47750713Y9654701D01*
X47764005Y9678278D01*
X47766943Y9682662D01*
X47816313Y9741751D01*
X47870109Y9776053D01*
X47935602Y9789669D01*
X47957842Y9790335D01*
X48041115Y9778038D01*
G36*
X49168303Y9768761D02*
G01*
X49225527Y9730265D01*
X49269749Y9674665D01*
X49296167Y9603914D01*
X49301510Y9551838D01*
X49300903Y9530107D01*
X49295822Y9513469D01*
X49281855Y9498563D01*
X49254589Y9482027D01*
X49209612Y9460502D01*
X49142511Y9430626D01*
X49142171Y9430476D01*
X49080407Y9402187D01*
X49029759Y9377067D01*
X48995404Y9357821D01*
X48982518Y9347152D01*
X48982514Y9347066D01*
X48993872Y9323834D01*
X49020431Y9298226D01*
X49050923Y9279779D01*
X49066370Y9276114D01*
X49108515Y9288788D01*
X49144808Y9320529D01*
X49162517Y9355428D01*
X49179552Y9381155D01*
X49212922Y9410454D01*
X49252149Y9435765D01*
X49286756Y9449529D01*
X49293993Y9450286D01*
X49302139Y9437840D01*
X49302630Y9406028D01*
X49296643Y9363134D01*
X49285357Y9317442D01*
X49269950Y9277239D01*
X49269171Y9275678D01*
X49222804Y9210938D01*
X49162711Y9166903D01*
X49094465Y9145289D01*
X49023638Y9147815D01*
X48955804Y9176196D01*
X48952788Y9178192D01*
X48899427Y9226552D01*
X48864340Y9289648D01*
X48844922Y9372613D01*
X48842316Y9395922D01*
X48837701Y9505945D01*
X48843233Y9557252D01*
X48982514Y9557252D01*
X48984324Y9525247D01*
X48994222Y9515907D01*
X49018898Y9522895D01*
X49057795Y9539413D01*
X49101275Y9560119D01*
X49102356Y9560667D01*
X49139209Y9580051D01*
X49154000Y9592987D01*
X49150353Y9606549D01*
X49134995Y9624368D01*
X49095923Y9650155D01*
X49053846Y9652050D01*
X49016103Y9633283D01*
X48990034Y9597085D01*
X48982514Y9557252D01*
X48843233Y9557252D01*
X48847194Y9593973D01*
X48871550Y9663788D01*
X48905456Y9712698D01*
X48966653Y9762122D01*
X49034063Y9786641D01*
X49102880Y9788203D01*
X49168303Y9768761D01*
G37*
X49168303Y9768761D02*
X49225527Y9730265D01*
X49269749Y9674665D01*
X49296167Y9603914D01*
X49301510Y9551838D01*
X49300903Y9530107D01*
X49295822Y9513469D01*
X49281855Y9498563D01*
X49254589Y9482027D01*
X49209612Y9460502D01*
X49142511Y9430626D01*
X49142171Y9430476D01*
X49080407Y9402187D01*
X49029759Y9377067D01*
X48995404Y9357821D01*
X48982518Y9347152D01*
X48982514Y9347066D01*
X48993872Y9323834D01*
X49020431Y9298226D01*
X49050923Y9279779D01*
X49066370Y9276114D01*
X49108515Y9288788D01*
X49144808Y9320529D01*
X49162517Y9355428D01*
X49179552Y9381155D01*
X49212922Y9410454D01*
X49252149Y9435765D01*
X49286756Y9449529D01*
X49293993Y9450286D01*
X49302139Y9437840D01*
X49302630Y9406028D01*
X49296643Y9363134D01*
X49285357Y9317442D01*
X49269950Y9277239D01*
X49269171Y9275678D01*
X49222804Y9210938D01*
X49162711Y9166903D01*
X49094465Y9145289D01*
X49023638Y9147815D01*
X48955804Y9176196D01*
X48952788Y9178192D01*
X48899427Y9226552D01*
X48864340Y9289648D01*
X48844922Y9372613D01*
X48842316Y9395922D01*
X48837701Y9505945D01*
X48843233Y9557252D01*
X48982514Y9557252D01*
X48984324Y9525247D01*
X48994222Y9515907D01*
X49018898Y9522895D01*
X49057795Y9539413D01*
X49101275Y9560119D01*
X49102356Y9560667D01*
X49139209Y9580051D01*
X49154000Y9592987D01*
X49150353Y9606549D01*
X49134995Y9624368D01*
X49095923Y9650155D01*
X49053846Y9652050D01*
X49016103Y9633283D01*
X48990034Y9597085D01*
X48982514Y9557252D01*
X48843233Y9557252D01*
X48847194Y9593973D01*
X48871550Y9663788D01*
X48905456Y9712698D01*
X48966653Y9762122D01*
X49034063Y9786641D01*
X49102880Y9788203D01*
X49168303Y9768761D01*
G36*
X50375886Y9848711D02*
G01*
X50380139Y9789387D01*
X50385025Y9754428D01*
X50391795Y9739180D01*
X50401702Y9738985D01*
X50404914Y9740805D01*
X50447644Y9753985D01*
X50503227Y9753215D01*
X50559737Y9739667D01*
X50595082Y9722139D01*
X50631321Y9694139D01*
X50657813Y9662451D01*
X50675999Y9622187D01*
X50687322Y9568457D01*
X50693222Y9496374D01*
X50695143Y9401049D01*
X50695177Y9382763D01*
X50695200Y9177354D01*
X50649491Y9161420D01*
X50617027Y9150580D01*
X50599215Y9145532D01*
X50598691Y9145486D01*
X50596937Y9159172D01*
X50595444Y9196924D01*
X50594326Y9253776D01*
X50593697Y9324766D01*
X50593600Y9367927D01*
X50593398Y9453027D01*
X50592358Y9514019D01*
X50589831Y9555823D01*
X50585164Y9583358D01*
X50577707Y9601544D01*
X50566811Y9615302D01*
X50560007Y9621927D01*
X50513272Y9648625D01*
X50462272Y9650625D01*
X50416001Y9628045D01*
X50407444Y9619893D01*
X50394893Y9604564D01*
X50386188Y9586382D01*
X50380631Y9560091D01*
X50377526Y9520438D01*
X50376176Y9462168D01*
X50375886Y9381827D01*
X50375886Y9177354D01*
X50330177Y9161420D01*
X50297713Y9150580D01*
X50279901Y9145532D01*
X50279377Y9145486D01*
X50278037Y9159377D01*
X50276828Y9198561D01*
X50275801Y9259300D01*
X50275002Y9337859D01*
X50274481Y9430502D01*
X50274286Y9533491D01*
X50274286Y9930658D01*
X50321457Y9950556D01*
X50368629Y9970453D01*
X50375886Y9848711D01*
G37*
X50375886Y9848711D02*
X50380139Y9789387D01*
X50385025Y9754428D01*
X50391795Y9739180D01*
X50401702Y9738985D01*
X50404914Y9740805D01*
X50447644Y9753985D01*
X50503227Y9753215D01*
X50559737Y9739667D01*
X50595082Y9722139D01*
X50631321Y9694139D01*
X50657813Y9662451D01*
X50675999Y9622187D01*
X50687322Y9568457D01*
X50693222Y9496374D01*
X50695143Y9401049D01*
X50695177Y9382763D01*
X50695200Y9177354D01*
X50649491Y9161420D01*
X50617027Y9150580D01*
X50599215Y9145532D01*
X50598691Y9145486D01*
X50596937Y9159172D01*
X50595444Y9196924D01*
X50594326Y9253776D01*
X50593697Y9324766D01*
X50593600Y9367927D01*
X50593398Y9453027D01*
X50592358Y9514019D01*
X50589831Y9555823D01*
X50585164Y9583358D01*
X50577707Y9601544D01*
X50566811Y9615302D01*
X50560007Y9621927D01*
X50513272Y9648625D01*
X50462272Y9650625D01*
X50416001Y9628045D01*
X50407444Y9619893D01*
X50394893Y9604564D01*
X50386188Y9586382D01*
X50380631Y9560091D01*
X50377526Y9520438D01*
X50376176Y9462168D01*
X50375886Y9381827D01*
X50375886Y9177354D01*
X50330177Y9161420D01*
X50297713Y9150580D01*
X50279901Y9145532D01*
X50279377Y9145486D01*
X50278037Y9159377D01*
X50276828Y9198561D01*
X50275801Y9259300D01*
X50275002Y9337859D01*
X50274481Y9430502D01*
X50274286Y9533491D01*
X50274286Y9930658D01*
X50321457Y9950556D01*
X50368629Y9970453D01*
X50375886Y9848711D01*
G36*
X51039744Y9749032D02*
G01*
X51096616Y9727913D01*
X51097267Y9727507D01*
X51132440Y9701620D01*
X51158407Y9671367D01*
X51176670Y9631942D01*
X51188732Y9578538D01*
X51196096Y9506349D01*
X51200264Y9410568D01*
X51200629Y9396922D01*
X51205876Y9191158D01*
X51161716Y9168322D01*
X51129763Y9152890D01*
X51110470Y9145577D01*
X51109578Y9145486D01*
X51106239Y9158978D01*
X51103587Y9195374D01*
X51101956Y9248548D01*
X51101600Y9291607D01*
X51101592Y9361359D01*
X51098403Y9405163D01*
X51087288Y9426056D01*
X51063501Y9427075D01*
X51022296Y9411259D01*
X50960086Y9382185D01*
X50914341Y9358037D01*
X50890813Y9337087D01*
X50883896Y9314253D01*
X50883886Y9313123D01*
X50895299Y9273788D01*
X50929092Y9252538D01*
X50980809Y9249461D01*
X51018061Y9249994D01*
X51037703Y9239265D01*
X51049952Y9213495D01*
X51057002Y9180663D01*
X51046842Y9162034D01*
X51043017Y9159368D01*
X51007001Y9148660D01*
X50956566Y9147144D01*
X50904626Y9154241D01*
X50867822Y9167212D01*
X50816938Y9210415D01*
X50788014Y9270554D01*
X50782286Y9317538D01*
X50786657Y9359918D01*
X50802475Y9394512D01*
X50833797Y9425237D01*
X50884678Y9456010D01*
X50959176Y9490748D01*
X50963714Y9492712D01*
X51030821Y9523713D01*
X51072232Y9549138D01*
X51089981Y9571986D01*
X51086107Y9595255D01*
X51062643Y9621944D01*
X51055627Y9628086D01*
X51008630Y9651900D01*
X50959933Y9650897D01*
X50917522Y9627549D01*
X50889384Y9584325D01*
X50886769Y9575840D01*
X50861308Y9534692D01*
X50829001Y9514872D01*
X50782286Y9495230D01*
X50782286Y9546050D01*
X50796496Y9619918D01*
X50838675Y9687673D01*
X50860624Y9710339D01*
X50910517Y9739431D01*
X50973967Y9752600D01*
X51039744Y9749032D01*
G37*
X51039744Y9749032D02*
X51096616Y9727913D01*
X51097267Y9727507D01*
X51132440Y9701620D01*
X51158407Y9671367D01*
X51176670Y9631942D01*
X51188732Y9578538D01*
X51196096Y9506349D01*
X51200264Y9410568D01*
X51200629Y9396922D01*
X51205876Y9191158D01*
X51161716Y9168322D01*
X51129763Y9152890D01*
X51110470Y9145577D01*
X51109578Y9145486D01*
X51106239Y9158978D01*
X51103587Y9195374D01*
X51101956Y9248548D01*
X51101600Y9291607D01*
X51101592Y9361359D01*
X51098403Y9405163D01*
X51087288Y9426056D01*
X51063501Y9427075D01*
X51022296Y9411259D01*
X50960086Y9382185D01*
X50914341Y9358037D01*
X50890813Y9337087D01*
X50883896Y9314253D01*
X50883886Y9313123D01*
X50895299Y9273788D01*
X50929092Y9252538D01*
X50980809Y9249461D01*
X51018061Y9249994D01*
X51037703Y9239265D01*
X51049952Y9213495D01*
X51057002Y9180663D01*
X51046842Y9162034D01*
X51043017Y9159368D01*
X51007001Y9148660D01*
X50956566Y9147144D01*
X50904626Y9154241D01*
X50867822Y9167212D01*
X50816938Y9210415D01*
X50788014Y9270554D01*
X50782286Y9317538D01*
X50786657Y9359918D01*
X50802475Y9394512D01*
X50833797Y9425237D01*
X50884678Y9456010D01*
X50959176Y9490748D01*
X50963714Y9492712D01*
X51030821Y9523713D01*
X51072232Y9549138D01*
X51089981Y9571986D01*
X51086107Y9595255D01*
X51062643Y9621944D01*
X51055627Y9628086D01*
X51008630Y9651900D01*
X50959933Y9650897D01*
X50917522Y9627549D01*
X50889384Y9584325D01*
X50886769Y9575840D01*
X50861308Y9534692D01*
X50829001Y9514872D01*
X50782286Y9495230D01*
X50782286Y9546050D01*
X50796496Y9619918D01*
X50838675Y9687673D01*
X50860624Y9710339D01*
X50910517Y9739431D01*
X50973967Y9752600D01*
X51039744Y9749032D01*
G36*
X51529926Y9750245D02*
G01*
X51595858Y9725916D01*
X51649273Y9682883D01*
X51670164Y9652591D01*
X51692939Y9597006D01*
X51692466Y9556814D01*
X51668562Y9529783D01*
X51659717Y9525187D01*
X51621530Y9510856D01*
X51602028Y9514528D01*
X51595422Y9538593D01*
X51595086Y9551886D01*
X51582992Y9600790D01*
X51551471Y9635001D01*
X51507659Y9651524D01*
X51458695Y9647366D01*
X51418894Y9625773D01*
X51405450Y9613456D01*
X51395921Y9598513D01*
X51389485Y9575925D01*
X51385317Y9540672D01*
X51382597Y9487734D01*
X51380502Y9412093D01*
X51379960Y9388143D01*
X51377981Y9306210D01*
X51375731Y9248545D01*
X51372357Y9210392D01*
X51367006Y9186996D01*
X51358824Y9173602D01*
X51346959Y9165455D01*
X51339362Y9161856D01*
X51307102Y9149548D01*
X51288111Y9145486D01*
X51281836Y9159052D01*
X51278006Y9200066D01*
X51276600Y9269001D01*
X51277598Y9366331D01*
X51277908Y9381343D01*
X51280101Y9470141D01*
X51282693Y9534981D01*
X51286382Y9580933D01*
X51291864Y9613065D01*
X51299835Y9636447D01*
X51310993Y9656148D01*
X51316830Y9664590D01*
X51350296Y9701943D01*
X51387727Y9730997D01*
X51392309Y9733533D01*
X51459426Y9753557D01*
X51529926Y9750245D01*
G37*
X51529926Y9750245D02*
X51595858Y9725916D01*
X51649273Y9682883D01*
X51670164Y9652591D01*
X51692939Y9597006D01*
X51692466Y9556814D01*
X51668562Y9529783D01*
X51659717Y9525187D01*
X51621530Y9510856D01*
X51602028Y9514528D01*
X51595422Y9538593D01*
X51595086Y9551886D01*
X51582992Y9600790D01*
X51551471Y9635001D01*
X51507659Y9651524D01*
X51458695Y9647366D01*
X51418894Y9625773D01*
X51405450Y9613456D01*
X51395921Y9598513D01*
X51389485Y9575925D01*
X51385317Y9540672D01*
X51382597Y9487734D01*
X51380502Y9412093D01*
X51379960Y9388143D01*
X51377981Y9306210D01*
X51375731Y9248545D01*
X51372357Y9210392D01*
X51367006Y9186996D01*
X51358824Y9173602D01*
X51346959Y9165455D01*
X51339362Y9161856D01*
X51307102Y9149548D01*
X51288111Y9145486D01*
X51281836Y9159052D01*
X51278006Y9200066D01*
X51276600Y9269001D01*
X51277598Y9366331D01*
X51277908Y9381343D01*
X51280101Y9470141D01*
X51282693Y9534981D01*
X51286382Y9580933D01*
X51291864Y9613065D01*
X51299835Y9636447D01*
X51310993Y9656148D01*
X51316830Y9664590D01*
X51350296Y9701943D01*
X51387727Y9730997D01*
X51392309Y9733533D01*
X51459426Y9753557D01*
X51529926Y9750245D01*
G36*
X52190117Y9634642D02*
G01*
X52189933Y9526163D01*
X52189219Y9442713D01*
X52187675Y9380296D01*
X52185001Y9334915D01*
X52180894Y9302571D01*
X52175055Y9279267D01*
X52167182Y9261005D01*
X52161221Y9250582D01*
X52111855Y9194055D01*
X52049264Y9158623D01*
X51980013Y9145910D01*
X51910668Y9157537D01*
X51869375Y9178432D01*
X51826025Y9214578D01*
X51796481Y9258724D01*
X51778655Y9316538D01*
X51770463Y9393687D01*
X51769302Y9450286D01*
X51769458Y9454353D01*
X51870857Y9454353D01*
X51871476Y9389450D01*
X51874314Y9346486D01*
X51880840Y9318378D01*
X51892523Y9298047D01*
X51906483Y9282712D01*
X51953365Y9253110D01*
X52003701Y9250581D01*
X52051276Y9275295D01*
X52054979Y9278644D01*
X52070783Y9296065D01*
X52080693Y9316791D01*
X52086058Y9347638D01*
X52088228Y9395423D01*
X52088571Y9448252D01*
X52087827Y9514619D01*
X52084748Y9558894D01*
X52078061Y9587991D01*
X52066496Y9608827D01*
X52057013Y9619893D01*
X52012960Y9647802D01*
X51962224Y9651157D01*
X51913796Y9629841D01*
X51904450Y9621927D01*
X51888540Y9604353D01*
X51878610Y9583413D01*
X51873278Y9552218D01*
X51871163Y9503878D01*
X51870857Y9454353D01*
X51769458Y9454353D01*
X51772810Y9541432D01*
X51784726Y9609914D01*
X51807135Y9661400D01*
X51842124Y9701557D01*
X51869375Y9722139D01*
X51918907Y9744375D01*
X51976316Y9754696D01*
X52029682Y9751933D01*
X52059543Y9740788D01*
X52071261Y9737617D01*
X52079037Y9749443D01*
X52084465Y9781134D01*
X52088571Y9829407D01*
X52093067Y9883171D01*
X52099313Y9915518D01*
X52110676Y9934015D01*
X52130528Y9946230D01*
X52143000Y9951638D01*
X52190171Y9971399D01*
X52190117Y9634642D01*
G37*
X52190117Y9634642D02*
X52189933Y9526163D01*
X52189219Y9442713D01*
X52187675Y9380296D01*
X52185001Y9334915D01*
X52180894Y9302571D01*
X52175055Y9279267D01*
X52167182Y9261005D01*
X52161221Y9250582D01*
X52111855Y9194055D01*
X52049264Y9158623D01*
X51980013Y9145910D01*
X51910668Y9157537D01*
X51869375Y9178432D01*
X51826025Y9214578D01*
X51796481Y9258724D01*
X51778655Y9316538D01*
X51770463Y9393687D01*
X51769302Y9450286D01*
X51769458Y9454353D01*
X51870857Y9454353D01*
X51871476Y9389450D01*
X51874314Y9346486D01*
X51880840Y9318378D01*
X51892523Y9298047D01*
X51906483Y9282712D01*
X51953365Y9253110D01*
X52003701Y9250581D01*
X52051276Y9275295D01*
X52054979Y9278644D01*
X52070783Y9296065D01*
X52080693Y9316791D01*
X52086058Y9347638D01*
X52088228Y9395423D01*
X52088571Y9448252D01*
X52087827Y9514619D01*
X52084748Y9558894D01*
X52078061Y9587991D01*
X52066496Y9608827D01*
X52057013Y9619893D01*
X52012960Y9647802D01*
X51962224Y9651157D01*
X51913796Y9629841D01*
X51904450Y9621927D01*
X51888540Y9604353D01*
X51878610Y9583413D01*
X51873278Y9552218D01*
X51871163Y9503878D01*
X51870857Y9454353D01*
X51769458Y9454353D01*
X51772810Y9541432D01*
X51784726Y9609914D01*
X51807135Y9661400D01*
X51842124Y9701557D01*
X51869375Y9722139D01*
X51918907Y9744375D01*
X51976316Y9754696D01*
X52029682Y9751933D01*
X52059543Y9740788D01*
X52071261Y9737617D01*
X52079037Y9749443D01*
X52084465Y9781134D01*
X52088571Y9829407D01*
X52093067Y9883171D01*
X52099313Y9915518D01*
X52110676Y9934015D01*
X52130528Y9946230D01*
X52143000Y9951638D01*
X52190171Y9971399D01*
X52190117Y9634642D01*
G36*
X52779833Y9741337D02*
G01*
X52782048Y9703150D01*
X52783784Y9645114D01*
X52784899Y9571820D01*
X52785257Y9494945D01*
X52785257Y9234804D01*
X52739326Y9188873D01*
X52707675Y9160571D01*
X52679890Y9149107D01*
X52641915Y9149832D01*
X52626840Y9151679D01*
X52579726Y9157052D01*
X52540756Y9160131D01*
X52531257Y9160415D01*
X52499233Y9158555D01*
X52453432Y9153886D01*
X52435674Y9151679D01*
X52392057Y9148265D01*
X52362745Y9155680D01*
X52333680Y9178573D01*
X52323188Y9188873D01*
X52277257Y9234804D01*
X52277257Y9721398D01*
X52314226Y9738242D01*
X52346059Y9750718D01*
X52364683Y9755086D01*
X52369458Y9741282D01*
X52373921Y9702714D01*
X52377775Y9643644D01*
X52380722Y9568337D01*
X52382143Y9504714D01*
X52386114Y9254343D01*
X52420759Y9249444D01*
X52452268Y9252869D01*
X52467708Y9263959D01*
X52472023Y9284692D01*
X52475708Y9328855D01*
X52478469Y9390854D01*
X52480012Y9465091D01*
X52480235Y9503294D01*
X52480457Y9723217D01*
X52526166Y9739151D01*
X52558518Y9749985D01*
X52576115Y9755038D01*
X52576623Y9755086D01*
X52578388Y9741352D01*
X52580329Y9703270D01*
X52582282Y9645518D01*
X52584084Y9572773D01*
X52585343Y9504714D01*
X52589314Y9254343D01*
X52676400Y9254343D01*
X52680396Y9482760D01*
X52684392Y9711178D01*
X52726847Y9733132D01*
X52758192Y9748207D01*
X52776744Y9755049D01*
X52777279Y9755086D01*
X52779833Y9741337D01*
G37*
X52779833Y9741337D02*
X52782048Y9703150D01*
X52783784Y9645114D01*
X52784899Y9571820D01*
X52785257Y9494945D01*
X52785257Y9234804D01*
X52739326Y9188873D01*
X52707675Y9160571D01*
X52679890Y9149107D01*
X52641915Y9149832D01*
X52626840Y9151679D01*
X52579726Y9157052D01*
X52540756Y9160131D01*
X52531257Y9160415D01*
X52499233Y9158555D01*
X52453432Y9153886D01*
X52435674Y9151679D01*
X52392057Y9148265D01*
X52362745Y9155680D01*
X52333680Y9178573D01*
X52323188Y9188873D01*
X52277257Y9234804D01*
X52277257Y9721398D01*
X52314226Y9738242D01*
X52346059Y9750718D01*
X52364683Y9755086D01*
X52369458Y9741282D01*
X52373921Y9702714D01*
X52377775Y9643644D01*
X52380722Y9568337D01*
X52382143Y9504714D01*
X52386114Y9254343D01*
X52420759Y9249444D01*
X52452268Y9252869D01*
X52467708Y9263959D01*
X52472023Y9284692D01*
X52475708Y9328855D01*
X52478469Y9390854D01*
X52480012Y9465091D01*
X52480235Y9503294D01*
X52480457Y9723217D01*
X52526166Y9739151D01*
X52558518Y9749985D01*
X52576115Y9755038D01*
X52576623Y9755086D01*
X52578388Y9741352D01*
X52580329Y9703270D01*
X52582282Y9645518D01*
X52584084Y9572773D01*
X52585343Y9504714D01*
X52589314Y9254343D01*
X52676400Y9254343D01*
X52680396Y9482760D01*
X52684392Y9711178D01*
X52726847Y9733132D01*
X52758192Y9748207D01*
X52776744Y9755049D01*
X52777279Y9755086D01*
X52779833Y9741337D01*
G36*
X53144876Y9743665D02*
G01*
X53186667Y9724656D01*
X53219469Y9701622D01*
X53243503Y9675867D01*
X53260097Y9642642D01*
X53270577Y9597200D01*
X53276271Y9534793D01*
X53278507Y9450673D01*
X53278743Y9395279D01*
X53278743Y9179174D01*
X53241774Y9162330D01*
X53212656Y9150019D01*
X53198231Y9145486D01*
X53195472Y9158975D01*
X53193282Y9195347D01*
X53191942Y9248458D01*
X53191657Y9290628D01*
X53190434Y9351553D01*
X53187136Y9399885D01*
X53182321Y9429482D01*
X53178496Y9435771D01*
X53152783Y9429348D01*
X53112418Y9412875D01*
X53065679Y9390542D01*
X53020845Y9366543D01*
X52986193Y9345070D01*
X52970002Y9330315D01*
X52969938Y9330155D01*
X52971330Y9302848D01*
X52983818Y9276781D01*
X53005743Y9255608D01*
X53037743Y9248526D01*
X53065092Y9249351D01*
X53103826Y9249958D01*
X53124158Y9240884D01*
X53136369Y9216908D01*
X53137909Y9212387D01*
X53143203Y9178194D01*
X53129047Y9157432D01*
X53092148Y9147538D01*
X53052289Y9145708D01*
X52980562Y9159273D01*
X52943432Y9178645D01*
X52897576Y9224155D01*
X52873256Y9280017D01*
X52871073Y9339043D01*
X52891629Y9394047D01*
X52922549Y9428514D01*
X52953420Y9447811D01*
X53001942Y9472241D01*
X53058485Y9497015D01*
X53067910Y9500801D01*
X53130019Y9528209D01*
X53165822Y9552366D01*
X53177337Y9576381D01*
X53166580Y9603365D01*
X53148114Y9624457D01*
X53104469Y9650428D01*
X53056446Y9652376D01*
X53012406Y9632363D01*
X52980709Y9592449D01*
X52976549Y9582152D01*
X52952327Y9544276D01*
X52916965Y9516158D01*
X52872343Y9493083D01*
X52872343Y9558515D01*
X52874969Y9598494D01*
X52886230Y9630003D01*
X52911199Y9663622D01*
X52935169Y9689516D01*
X52972441Y9726183D01*
X53001401Y9745879D01*
X53032505Y9753780D01*
X53067713Y9755086D01*
X53144876Y9743665D01*
G37*
X53144876Y9743665D02*
X53186667Y9724656D01*
X53219469Y9701622D01*
X53243503Y9675867D01*
X53260097Y9642642D01*
X53270577Y9597200D01*
X53276271Y9534793D01*
X53278507Y9450673D01*
X53278743Y9395279D01*
X53278743Y9179174D01*
X53241774Y9162330D01*
X53212656Y9150019D01*
X53198231Y9145486D01*
X53195472Y9158975D01*
X53193282Y9195347D01*
X53191942Y9248458D01*
X53191657Y9290628D01*
X53190434Y9351553D01*
X53187136Y9399885D01*
X53182321Y9429482D01*
X53178496Y9435771D01*
X53152783Y9429348D01*
X53112418Y9412875D01*
X53065679Y9390542D01*
X53020845Y9366543D01*
X52986193Y9345070D01*
X52970002Y9330315D01*
X52969938Y9330155D01*
X52971330Y9302848D01*
X52983818Y9276781D01*
X53005743Y9255608D01*
X53037743Y9248526D01*
X53065092Y9249351D01*
X53103826Y9249958D01*
X53124158Y9240884D01*
X53136369Y9216908D01*
X53137909Y9212387D01*
X53143203Y9178194D01*
X53129047Y9157432D01*
X53092148Y9147538D01*
X53052289Y9145708D01*
X52980562Y9159273D01*
X52943432Y9178645D01*
X52897576Y9224155D01*
X52873256Y9280017D01*
X52871073Y9339043D01*
X52891629Y9394047D01*
X52922549Y9428514D01*
X52953420Y9447811D01*
X53001942Y9472241D01*
X53058485Y9497015D01*
X53067910Y9500801D01*
X53130019Y9528209D01*
X53165822Y9552366D01*
X53177337Y9576381D01*
X53166580Y9603365D01*
X53148114Y9624457D01*
X53104469Y9650428D01*
X53056446Y9652376D01*
X53012406Y9632363D01*
X52980709Y9592449D01*
X52976549Y9582152D01*
X52952327Y9544276D01*
X52916965Y9516158D01*
X52872343Y9493083D01*
X52872343Y9558515D01*
X52874969Y9598494D01*
X52886230Y9630003D01*
X52911199Y9663622D01*
X52935169Y9689516D01*
X52972441Y9726183D01*
X53001401Y9745879D01*
X53032505Y9753780D01*
X53067713Y9755086D01*
X53144876Y9743665D01*
G36*
X53652600Y9741248D02*
G01*
X53669948Y9733666D01*
X53711356Y9700872D01*
X53746765Y9653453D01*
X53768664Y9602849D01*
X53772229Y9577902D01*
X53760279Y9543073D01*
X53734067Y9524643D01*
X53705964Y9513484D01*
X53693095Y9511428D01*
X53686829Y9526351D01*
X53674456Y9558825D01*
X53669028Y9573498D01*
X53638590Y9624256D01*
X53594520Y9649573D01*
X53538010Y9648794D01*
X53533825Y9647797D01*
X53503655Y9633493D01*
X53481476Y9605607D01*
X53466327Y9560713D01*
X53457250Y9495385D01*
X53453286Y9406196D01*
X53452914Y9358739D01*
X53452730Y9283929D01*
X53451522Y9232931D01*
X53448309Y9200529D01*
X53442109Y9181505D01*
X53431940Y9170644D01*
X53416819Y9162728D01*
X53415946Y9162330D01*
X53386828Y9150019D01*
X53372403Y9145486D01*
X53370186Y9159191D01*
X53368289Y9197075D01*
X53366847Y9254285D01*
X53365998Y9325973D01*
X53365829Y9378435D01*
X53366692Y9479953D01*
X53370070Y9556968D01*
X53377142Y9613977D01*
X53389088Y9655474D01*
X53407090Y9685957D01*
X53432327Y9709920D01*
X53457247Y9726645D01*
X53517171Y9748903D01*
X53586911Y9753924D01*
X53652600Y9741248D01*
G37*
X53652600Y9741248D02*
X53669948Y9733666D01*
X53711356Y9700872D01*
X53746765Y9653453D01*
X53768664Y9602849D01*
X53772229Y9577902D01*
X53760279Y9543073D01*
X53734067Y9524643D01*
X53705964Y9513484D01*
X53693095Y9511428D01*
X53686829Y9526351D01*
X53674456Y9558825D01*
X53669028Y9573498D01*
X53638590Y9624256D01*
X53594520Y9649573D01*
X53538010Y9648794D01*
X53533825Y9647797D01*
X53503655Y9633493D01*
X53481476Y9605607D01*
X53466327Y9560713D01*
X53457250Y9495385D01*
X53453286Y9406196D01*
X53452914Y9358739D01*
X53452730Y9283929D01*
X53451522Y9232931D01*
X53448309Y9200529D01*
X53442109Y9181505D01*
X53431940Y9170644D01*
X53416819Y9162728D01*
X53415946Y9162330D01*
X53386828Y9150019D01*
X53372403Y9145486D01*
X53370186Y9159191D01*
X53368289Y9197075D01*
X53366847Y9254285D01*
X53365998Y9325973D01*
X53365829Y9378435D01*
X53366692Y9479953D01*
X53370070Y9556968D01*
X53377142Y9613977D01*
X53389088Y9655474D01*
X53407090Y9685957D01*
X53432327Y9709920D01*
X53457247Y9726645D01*
X53517171Y9748903D01*
X53586911Y9753924D01*
X53652600Y9741248D01*
G36*
X54153595Y9733034D02*
G01*
X54211021Y9695503D01*
X54238719Y9661904D01*
X54260662Y9600936D01*
X54262405Y9552692D01*
X54258457Y9488184D01*
X54109686Y9423066D01*
X54037349Y9389798D01*
X53990084Y9363036D01*
X53965507Y9339856D01*
X53961237Y9317333D01*
X53974889Y9292545D01*
X53989943Y9276114D01*
X54033746Y9249765D01*
X54081389Y9247919D01*
X54125145Y9268454D01*
X54157289Y9309248D01*
X54163038Y9323653D01*
X54190576Y9368644D01*
X54222258Y9387818D01*
X54265714Y9404221D01*
X54265714Y9342034D01*
X54261872Y9299717D01*
X54246823Y9264031D01*
X54215280Y9223057D01*
X54210592Y9217733D01*
X54175506Y9181280D01*
X54145347Y9161717D01*
X54107615Y9152717D01*
X54076335Y9149770D01*
X54020385Y9149035D01*
X53980555Y9158340D01*
X53955708Y9172154D01*
X53916656Y9202533D01*
X53889625Y9235387D01*
X53872517Y9276706D01*
X53863238Y9332479D01*
X53859693Y9408695D01*
X53859410Y9447378D01*
X53860372Y9493753D01*
X53948007Y9493753D01*
X53949023Y9468874D01*
X53951556Y9464800D01*
X53968274Y9470335D01*
X54004249Y9484983D01*
X54052331Y9505810D01*
X54062386Y9510286D01*
X54123152Y9541186D01*
X54156632Y9568343D01*
X54163990Y9593780D01*
X54146391Y9619519D01*
X54131856Y9630891D01*
X54079410Y9653636D01*
X54030322Y9649878D01*
X53989227Y9622116D01*
X53960758Y9572848D01*
X53951631Y9533743D01*
X53948007Y9493753D01*
X53860372Y9493753D01*
X53861285Y9537751D01*
X53868196Y9604616D01*
X53881884Y9653305D01*
X53904096Y9689151D01*
X53936574Y9717487D01*
X53950733Y9726645D01*
X54015053Y9750493D01*
X54085473Y9751994D01*
X54153595Y9733034D01*
G37*
X54153595Y9733034D02*
X54211021Y9695503D01*
X54238719Y9661904D01*
X54260662Y9600936D01*
X54262405Y9552692D01*
X54258457Y9488184D01*
X54109686Y9423066D01*
X54037349Y9389798D01*
X53990084Y9363036D01*
X53965507Y9339856D01*
X53961237Y9317333D01*
X53974889Y9292545D01*
X53989943Y9276114D01*
X54033746Y9249765D01*
X54081389Y9247919D01*
X54125145Y9268454D01*
X54157289Y9309248D01*
X54163038Y9323653D01*
X54190576Y9368644D01*
X54222258Y9387818D01*
X54265714Y9404221D01*
X54265714Y9342034D01*
X54261872Y9299717D01*
X54246823Y9264031D01*
X54215280Y9223057D01*
X54210592Y9217733D01*
X54175506Y9181280D01*
X54145347Y9161717D01*
X54107615Y9152717D01*
X54076335Y9149770D01*
X54020385Y9149035D01*
X53980555Y9158340D01*
X53955708Y9172154D01*
X53916656Y9202533D01*
X53889625Y9235387D01*
X53872517Y9276706D01*
X53863238Y9332479D01*
X53859693Y9408695D01*
X53859410Y9447378D01*
X53860372Y9493753D01*
X53948007Y9493753D01*
X53949023Y9468874D01*
X53951556Y9464800D01*
X53968274Y9470335D01*
X54004249Y9484983D01*
X54052331Y9505810D01*
X54062386Y9510286D01*
X54123152Y9541186D01*
X54156632Y9568343D01*
X54163990Y9593780D01*
X54146391Y9619519D01*
X54131856Y9630891D01*
X54079410Y9653636D01*
X54030322Y9649878D01*
X53989227Y9622116D01*
X53960758Y9572848D01*
X53951631Y9533743D01*
X53948007Y9493753D01*
X53860372Y9493753D01*
X53861285Y9537751D01*
X53868196Y9604616D01*
X53881884Y9653305D01*
X53904096Y9689151D01*
X53936574Y9717487D01*
X53950733Y9726645D01*
X54015053Y9750493D01*
X54085473Y9751994D01*
X54153595Y9733034D01*
G36*
X51103910Y14457652D02*
G01*
X51182454Y14457222D01*
X51239298Y14456058D01*
X51278105Y14453793D01*
X51302538Y14450060D01*
X51316262Y14444494D01*
X51322940Y14436727D01*
X51326236Y14426395D01*
X51326556Y14425057D01*
X51331562Y14400921D01*
X51340829Y14353299D01*
X51353392Y14287259D01*
X51368287Y14207872D01*
X51384551Y14120204D01*
X51385119Y14117125D01*
X51401410Y14031211D01*
X51416652Y13955304D01*
X51429861Y13893955D01*
X51440054Y13851718D01*
X51446248Y13833145D01*
X51446543Y13832816D01*
X51464788Y13823747D01*
X51502405Y13808633D01*
X51551271Y13790738D01*
X51551543Y13790642D01*
X51613093Y13767507D01*
X51685657Y13738035D01*
X51754057Y13708403D01*
X51757294Y13706938D01*
X51868702Y13656374D01*
X52115399Y13824840D01*
X52191077Y13876197D01*
X52259631Y13922111D01*
X52317088Y13959970D01*
X52359476Y13987163D01*
X52382825Y14001079D01*
X52385042Y14002111D01*
X52402010Y13997516D01*
X52433701Y13975345D01*
X52481352Y13934553D01*
X52546198Y13874095D01*
X52612397Y13809773D01*
X52676214Y13746388D01*
X52733329Y13688549D01*
X52780305Y13639825D01*
X52813703Y13603790D01*
X52830085Y13584016D01*
X52830694Y13582998D01*
X52832505Y13569428D01*
X52825683Y13547267D01*
X52808540Y13513522D01*
X52779393Y13465200D01*
X52736555Y13399308D01*
X52679448Y13314483D01*
X52628766Y13239823D01*
X52583461Y13172860D01*
X52546150Y13117484D01*
X52519452Y13077580D01*
X52505985Y13057038D01*
X52505137Y13055644D01*
X52506781Y13035962D01*
X52519245Y12997707D01*
X52540048Y12948111D01*
X52547462Y12932272D01*
X52579814Y12861710D01*
X52614328Y12781647D01*
X52642365Y12712371D01*
X52662568Y12660955D01*
X52678615Y12621881D01*
X52687888Y12601459D01*
X52689041Y12599886D01*
X52706096Y12597279D01*
X52746298Y12590137D01*
X52804302Y12579477D01*
X52874763Y12566315D01*
X52952335Y12551667D01*
X53031672Y12536551D01*
X53107431Y12521982D01*
X53174264Y12508978D01*
X53226828Y12498555D01*
X53259776Y12491730D01*
X53267857Y12489801D01*
X53276205Y12485038D01*
X53282506Y12474282D01*
X53287045Y12453902D01*
X53290104Y12420266D01*
X53291967Y12369745D01*
X53292918Y12298708D01*
X53293240Y12203524D01*
X53293257Y12164508D01*
X53293257Y11847201D01*
X53217057Y11832161D01*
X53174663Y11824005D01*
X53111400Y11812101D01*
X53034962Y11797884D01*
X52953043Y11782790D01*
X52930400Y11778645D01*
X52854806Y11763947D01*
X52788953Y11749495D01*
X52738366Y11736625D01*
X52708574Y11726678D01*
X52703612Y11723713D01*
X52691426Y11702717D01*
X52673953Y11662033D01*
X52654577Y11609678D01*
X52650734Y11598400D01*
X52625339Y11528477D01*
X52593817Y11449582D01*
X52562969Y11378734D01*
X52562817Y11378405D01*
X52511447Y11267267D01*
X52680399Y11018747D01*
X52849352Y10770228D01*
X52632429Y10552942D01*
X52566819Y10488274D01*
X52506979Y10431267D01*
X52456267Y10384967D01*
X52418046Y10352416D01*
X52395675Y10336657D01*
X52392466Y10335657D01*
X52373626Y10343531D01*
X52335180Y10365422D01*
X52281330Y10398733D01*
X52216276Y10440869D01*
X52145940Y10488057D01*
X52074555Y10536190D01*
X52010908Y10578072D01*
X51959041Y10611129D01*
X51922995Y10632782D01*
X51906867Y10640457D01*
X51887189Y10633963D01*
X51849875Y10616850D01*
X51802621Y10592674D01*
X51797612Y10589987D01*
X51733977Y10558073D01*
X51690341Y10542421D01*
X51663202Y10542255D01*
X51649057Y10556796D01*
X51648975Y10557000D01*
X51641905Y10574221D01*
X51625042Y10615101D01*
X51599695Y10676475D01*
X51567171Y10755181D01*
X51528778Y10848053D01*
X51485822Y10951928D01*
X51444222Y11052498D01*
X51398504Y11163484D01*
X51356526Y11266297D01*
X51319548Y11357785D01*
X51288827Y11434799D01*
X51265622Y11494185D01*
X51251190Y11532791D01*
X51246743Y11547200D01*
X51257896Y11563728D01*
X51287069Y11590070D01*
X51325971Y11619113D01*
X51436757Y11710961D01*
X51523351Y11816241D01*
X51584716Y11932734D01*
X51619815Y12058224D01*
X51627608Y12190493D01*
X51621943Y12251543D01*
X51591078Y12378205D01*
X51537920Y12490059D01*
X51465767Y12585999D01*
X51377917Y12664924D01*
X51277665Y12725730D01*
X51168310Y12767313D01*
X51053147Y12788572D01*
X50935475Y12788401D01*
X50818590Y12765699D01*
X50705789Y12719362D01*
X50600369Y12648287D01*
X50556368Y12608089D01*
X50471979Y12504871D01*
X50413222Y12392075D01*
X50379704Y12272990D01*
X50371035Y12150905D01*
X50386823Y12029107D01*
X50426678Y11910884D01*
X50490207Y11799525D01*
X50577021Y11698316D01*
X50674029Y11619113D01*
X50714437Y11588838D01*
X50742982Y11562781D01*
X50753257Y11547175D01*
X50747877Y11530157D01*
X50732575Y11489500D01*
X50708612Y11428358D01*
X50677244Y11349881D01*
X50639732Y11257220D01*
X50597333Y11153528D01*
X50555663Y11052474D01*
X50509690Y10941393D01*
X50467107Y10838459D01*
X50429221Y10746835D01*
X50397340Y10669684D01*
X50372771Y10610169D01*
X50356820Y10571456D01*
X50350910Y10557000D01*
X50336948Y10542315D01*
X50309940Y10542358D01*
X50266413Y10557901D01*
X50202890Y10589716D01*
X50202388Y10589987D01*
X50154560Y10614677D01*
X50115897Y10632662D01*
X50094095Y10640386D01*
X50093133Y10640457D01*
X50076721Y10632622D01*
X50040487Y10610835D01*
X49988474Y10577672D01*
X49924725Y10535709D01*
X49854060Y10488057D01*
X49782116Y10439809D01*
X49717274Y10397849D01*
X49663735Y10364773D01*
X49625697Y10343179D01*
X49607533Y10335657D01*
X49590808Y10345543D01*
X49557180Y10373174D01*
X49510010Y10415505D01*
X49452658Y10469495D01*
X49388484Y10532101D01*
X49367497Y10553017D01*
X49150499Y10770377D01*
X49315668Y11012780D01*
X49365864Y11087219D01*
X49409919Y11154028D01*
X49445362Y11209335D01*
X49469719Y11249271D01*
X49480522Y11269964D01*
X49480838Y11271437D01*
X49475143Y11290942D01*
X49459826Y11330178D01*
X49437537Y11382570D01*
X49421893Y11417645D01*
X49392641Y11484799D01*
X49365094Y11552642D01*
X49343737Y11609966D01*
X49337935Y11627428D01*
X49321452Y11674062D01*
X49305340Y11710095D01*
X49296490Y11723713D01*
X49276960Y11732048D01*
X49234334Y11743863D01*
X49174145Y11757819D01*
X49101922Y11772578D01*
X49069600Y11778645D01*
X48987522Y11793727D01*
X48908795Y11808331D01*
X48841109Y11821020D01*
X48792160Y11830358D01*
X48782943Y11832161D01*
X48706743Y11847201D01*
X48706743Y12164508D01*
X48706914Y12268846D01*
X48707616Y12347787D01*
X48709134Y12404962D01*
X48711749Y12444001D01*
X48715746Y12468535D01*
X48721409Y12482195D01*
X48729020Y12488611D01*
X48732143Y12489801D01*
X48750978Y12494020D01*
X48792588Y12502438D01*
X48851630Y12514039D01*
X48922757Y12527805D01*
X49000625Y12542720D01*
X49079887Y12557768D01*
X49155198Y12571931D01*
X49221213Y12584194D01*
X49272587Y12593539D01*
X49303975Y12598950D01*
X49310959Y12599886D01*
X49317285Y12612404D01*
X49331290Y12645754D01*
X49350355Y12693623D01*
X49357634Y12712371D01*
X49386996Y12784805D01*
X49421571Y12864830D01*
X49452537Y12932272D01*
X49475323Y12983841D01*
X49490482Y13026215D01*
X49495542Y13052166D01*
X49494736Y13055644D01*
X49484041Y13072064D01*
X49459620Y13108583D01*
X49424095Y13161313D01*
X49380087Y13226365D01*
X49330217Y13299849D01*
X49320356Y13314355D01*
X49262492Y13400296D01*
X49219956Y13465739D01*
X49191054Y13513696D01*
X49174090Y13547180D01*
X49167367Y13569205D01*
X49169190Y13582783D01*
X49169236Y13582869D01*
X49183586Y13600703D01*
X49215323Y13635183D01*
X49261010Y13682732D01*
X49317204Y13739778D01*
X49380468Y13802745D01*
X49387602Y13809773D01*
X49467330Y13886980D01*
X49528857Y13943670D01*
X49573421Y13980890D01*
X49602257Y13999685D01*
X49614958Y14002111D01*
X49633494Y13991529D01*
X49671961Y13967084D01*
X49726386Y13931388D01*
X49792798Y13887053D01*
X49867225Y13836689D01*
X49884601Y13824840D01*
X50131297Y13656374D01*
X50242706Y13706938D01*
X50310457Y13736405D01*
X50383183Y13766041D01*
X50445703Y13789670D01*
X50448457Y13790642D01*
X50497360Y13808543D01*
X50535057Y13823680D01*
X50553425Y13832790D01*
X50553456Y13832816D01*
X50559285Y13849283D01*
X50569192Y13889781D01*
X50582195Y13949758D01*
X50597309Y14024660D01*
X50613552Y14109936D01*
X50614881Y14117125D01*
X50631175Y14204986D01*
X50646133Y14284740D01*
X50658791Y14351319D01*
X50668186Y14399653D01*
X50673354Y14424675D01*
X50673444Y14425057D01*
X50676589Y14435701D01*
X50682704Y14443738D01*
X50695453Y14449533D01*
X50718500Y14453453D01*
X50755509Y14455865D01*
X50810144Y14457135D01*
X50886067Y14457629D01*
X50986944Y14457714D01*
X51000000Y14457714D01*
X51103910Y14457652D01*
G37*
X51103910Y14457652D02*
X51182454Y14457222D01*
X51239298Y14456058D01*
X51278105Y14453793D01*
X51302538Y14450060D01*
X51316262Y14444494D01*
X51322940Y14436727D01*
X51326236Y14426395D01*
X51326556Y14425057D01*
X51331562Y14400921D01*
X51340829Y14353299D01*
X51353392Y14287259D01*
X51368287Y14207872D01*
X51384551Y14120204D01*
X51385119Y14117125D01*
X51401410Y14031211D01*
X51416652Y13955304D01*
X51429861Y13893955D01*
X51440054Y13851718D01*
X51446248Y13833145D01*
X51446543Y13832816D01*
X51464788Y13823747D01*
X51502405Y13808633D01*
X51551271Y13790738D01*
X51551543Y13790642D01*
X51613093Y13767507D01*
X51685657Y13738035D01*
X51754057Y13708403D01*
X51757294Y13706938D01*
X51868702Y13656374D01*
X52115399Y13824840D01*
X52191077Y13876197D01*
X52259631Y13922111D01*
X52317088Y13959970D01*
X52359476Y13987163D01*
X52382825Y14001079D01*
X52385042Y14002111D01*
X52402010Y13997516D01*
X52433701Y13975345D01*
X52481352Y13934553D01*
X52546198Y13874095D01*
X52612397Y13809773D01*
X52676214Y13746388D01*
X52733329Y13688549D01*
X52780305Y13639825D01*
X52813703Y13603790D01*
X52830085Y13584016D01*
X52830694Y13582998D01*
X52832505Y13569428D01*
X52825683Y13547267D01*
X52808540Y13513522D01*
X52779393Y13465200D01*
X52736555Y13399308D01*
X52679448Y13314483D01*
X52628766Y13239823D01*
X52583461Y13172860D01*
X52546150Y13117484D01*
X52519452Y13077580D01*
X52505985Y13057038D01*
X52505137Y13055644D01*
X52506781Y13035962D01*
X52519245Y12997707D01*
X52540048Y12948111D01*
X52547462Y12932272D01*
X52579814Y12861710D01*
X52614328Y12781647D01*
X52642365Y12712371D01*
X52662568Y12660955D01*
X52678615Y12621881D01*
X52687888Y12601459D01*
X52689041Y12599886D01*
X52706096Y12597279D01*
X52746298Y12590137D01*
X52804302Y12579477D01*
X52874763Y12566315D01*
X52952335Y12551667D01*
X53031672Y12536551D01*
X53107431Y12521982D01*
X53174264Y12508978D01*
X53226828Y12498555D01*
X53259776Y12491730D01*
X53267857Y12489801D01*
X53276205Y12485038D01*
X53282506Y12474282D01*
X53287045Y12453902D01*
X53290104Y12420266D01*
X53291967Y12369745D01*
X53292918Y12298708D01*
X53293240Y12203524D01*
X53293257Y12164508D01*
X53293257Y11847201D01*
X53217057Y11832161D01*
X53174663Y11824005D01*
X53111400Y11812101D01*
X53034962Y11797884D01*
X52953043Y11782790D01*
X52930400Y11778645D01*
X52854806Y11763947D01*
X52788953Y11749495D01*
X52738366Y11736625D01*
X52708574Y11726678D01*
X52703612Y11723713D01*
X52691426Y11702717D01*
X52673953Y11662033D01*
X52654577Y11609678D01*
X52650734Y11598400D01*
X52625339Y11528477D01*
X52593817Y11449582D01*
X52562969Y11378734D01*
X52562817Y11378405D01*
X52511447Y11267267D01*
X52680399Y11018747D01*
X52849352Y10770228D01*
X52632429Y10552942D01*
X52566819Y10488274D01*
X52506979Y10431267D01*
X52456267Y10384967D01*
X52418046Y10352416D01*
X52395675Y10336657D01*
X52392466Y10335657D01*
X52373626Y10343531D01*
X52335180Y10365422D01*
X52281330Y10398733D01*
X52216276Y10440869D01*
X52145940Y10488057D01*
X52074555Y10536190D01*
X52010908Y10578072D01*
X51959041Y10611129D01*
X51922995Y10632782D01*
X51906867Y10640457D01*
X51887189Y10633963D01*
X51849875Y10616850D01*
X51802621Y10592674D01*
X51797612Y10589987D01*
X51733977Y10558073D01*
X51690341Y10542421D01*
X51663202Y10542255D01*
X51649057Y10556796D01*
X51648975Y10557000D01*
X51641905Y10574221D01*
X51625042Y10615101D01*
X51599695Y10676475D01*
X51567171Y10755181D01*
X51528778Y10848053D01*
X51485822Y10951928D01*
X51444222Y11052498D01*
X51398504Y11163484D01*
X51356526Y11266297D01*
X51319548Y11357785D01*
X51288827Y11434799D01*
X51265622Y11494185D01*
X51251190Y11532791D01*
X51246743Y11547200D01*
X51257896Y11563728D01*
X51287069Y11590070D01*
X51325971Y11619113D01*
X51436757Y11710961D01*
X51523351Y11816241D01*
X51584716Y11932734D01*
X51619815Y12058224D01*
X51627608Y12190493D01*
X51621943Y12251543D01*
X51591078Y12378205D01*
X51537920Y12490059D01*
X51465767Y12585999D01*
X51377917Y12664924D01*
X51277665Y12725730D01*
X51168310Y12767313D01*
X51053147Y12788572D01*
X50935475Y12788401D01*
X50818590Y12765699D01*
X50705789Y12719362D01*
X50600369Y12648287D01*
X50556368Y12608089D01*
X50471979Y12504871D01*
X50413222Y12392075D01*
X50379704Y12272990D01*
X50371035Y12150905D01*
X50386823Y12029107D01*
X50426678Y11910884D01*
X50490207Y11799525D01*
X50577021Y11698316D01*
X50674029Y11619113D01*
X50714437Y11588838D01*
X50742982Y11562781D01*
X50753257Y11547175D01*
X50747877Y11530157D01*
X50732575Y11489500D01*
X50708612Y11428358D01*
X50677244Y11349881D01*
X50639732Y11257220D01*
X50597333Y11153528D01*
X50555663Y11052474D01*
X50509690Y10941393D01*
X50467107Y10838459D01*
X50429221Y10746835D01*
X50397340Y10669684D01*
X50372771Y10610169D01*
X50356820Y10571456D01*
X50350910Y10557000D01*
X50336948Y10542315D01*
X50309940Y10542358D01*
X50266413Y10557901D01*
X50202890Y10589716D01*
X50202388Y10589987D01*
X50154560Y10614677D01*
X50115897Y10632662D01*
X50094095Y10640386D01*
X50093133Y10640457D01*
X50076721Y10632622D01*
X50040487Y10610835D01*
X49988474Y10577672D01*
X49924725Y10535709D01*
X49854060Y10488057D01*
X49782116Y10439809D01*
X49717274Y10397849D01*
X49663735Y10364773D01*
X49625697Y10343179D01*
X49607533Y10335657D01*
X49590808Y10345543D01*
X49557180Y10373174D01*
X49510010Y10415505D01*
X49452658Y10469495D01*
X49388484Y10532101D01*
X49367497Y10553017D01*
X49150499Y10770377D01*
X49315668Y11012780D01*
X49365864Y11087219D01*
X49409919Y11154028D01*
X49445362Y11209335D01*
X49469719Y11249271D01*
X49480522Y11269964D01*
X49480838Y11271437D01*
X49475143Y11290942D01*
X49459826Y11330178D01*
X49437537Y11382570D01*
X49421893Y11417645D01*
X49392641Y11484799D01*
X49365094Y11552642D01*
X49343737Y11609966D01*
X49337935Y11627428D01*
X49321452Y11674062D01*
X49305340Y11710095D01*
X49296490Y11723713D01*
X49276960Y11732048D01*
X49234334Y11743863D01*
X49174145Y11757819D01*
X49101922Y11772578D01*
X49069600Y11778645D01*
X48987522Y11793727D01*
X48908795Y11808331D01*
X48841109Y11821020D01*
X48792160Y11830358D01*
X48782943Y11832161D01*
X48706743Y11847201D01*
X48706743Y12164508D01*
X48706914Y12268846D01*
X48707616Y12347787D01*
X48709134Y12404962D01*
X48711749Y12444001D01*
X48715746Y12468535D01*
X48721409Y12482195D01*
X48729020Y12488611D01*
X48732143Y12489801D01*
X48750978Y12494020D01*
X48792588Y12502438D01*
X48851630Y12514039D01*
X48922757Y12527805D01*
X49000625Y12542720D01*
X49079887Y12557768D01*
X49155198Y12571931D01*
X49221213Y12584194D01*
X49272587Y12593539D01*
X49303975Y12598950D01*
X49310959Y12599886D01*
X49317285Y12612404D01*
X49331290Y12645754D01*
X49350355Y12693623D01*
X49357634Y12712371D01*
X49386996Y12784805D01*
X49421571Y12864830D01*
X49452537Y12932272D01*
X49475323Y12983841D01*
X49490482Y13026215D01*
X49495542Y13052166D01*
X49494736Y13055644D01*
X49484041Y13072064D01*
X49459620Y13108583D01*
X49424095Y13161313D01*
X49380087Y13226365D01*
X49330217Y13299849D01*
X49320356Y13314355D01*
X49262492Y13400296D01*
X49219956Y13465739D01*
X49191054Y13513696D01*
X49174090Y13547180D01*
X49167367Y13569205D01*
X49169190Y13582783D01*
X49169236Y13582869D01*
X49183586Y13600703D01*
X49215323Y13635183D01*
X49261010Y13682732D01*
X49317204Y13739778D01*
X49380468Y13802745D01*
X49387602Y13809773D01*
X49467330Y13886980D01*
X49528857Y13943670D01*
X49573421Y13980890D01*
X49602257Y13999685D01*
X49614958Y14002111D01*
X49633494Y13991529D01*
X49671961Y13967084D01*
X49726386Y13931388D01*
X49792798Y13887053D01*
X49867225Y13836689D01*
X49884601Y13824840D01*
X50131297Y13656374D01*
X50242706Y13706938D01*
X50310457Y13736405D01*
X50383183Y13766041D01*
X50445703Y13789670D01*
X50448457Y13790642D01*
X50497360Y13808543D01*
X50535057Y13823680D01*
X50553425Y13832790D01*
X50553456Y13832816D01*
X50559285Y13849283D01*
X50569192Y13889781D01*
X50582195Y13949758D01*
X50597309Y14024660D01*
X50613552Y14109936D01*
X50614881Y14117125D01*
X50631175Y14204986D01*
X50646133Y14284740D01*
X50658791Y14351319D01*
X50668186Y14399653D01*
X50673354Y14424675D01*
X50673444Y14425057D01*
X50676589Y14435701D01*
X50682704Y14443738D01*
X50695453Y14449533D01*
X50718500Y14453453D01*
X50755509Y14455865D01*
X50810144Y14457135D01*
X50886067Y14457629D01*
X50986944Y14457714D01*
X51000000Y14457714D01*
X51103910Y14457652D01*
G36*
X14869674Y14592182D02*
G01*
X14884691Y14591021D01*
X14894383Y14589034D01*
X14901240Y14585325D01*
X14907753Y14579000D01*
X14908422Y14578255D01*
X14918021Y14563285D01*
X14926864Y14540943D01*
X14934899Y14511638D01*
X14942074Y14475783D01*
X14948337Y14433788D01*
X14953636Y14386063D01*
X14957919Y14333020D01*
X14961135Y14275070D01*
X14963230Y14212623D01*
X14964154Y14146091D01*
X14964184Y14137631D01*
X14964194Y14097965D01*
X14963907Y14064581D01*
X14963168Y14035946D01*
X14961820Y14010528D01*
X14959709Y13986795D01*
X14956678Y13963215D01*
X14952572Y13938254D01*
X14947236Y13910382D01*
X14940513Y13878065D01*
X14935407Y13854323D01*
X14929595Y13827216D01*
X14922652Y13794387D01*
X14914981Y13757777D01*
X14906988Y13719327D01*
X14899078Y13680978D01*
X14891655Y13644671D01*
X14890628Y13639613D01*
X14881943Y13597173D01*
X14874400Y13561292D01*
X14867695Y13530848D01*
X14861526Y13504718D01*
X14855587Y13481781D01*
X14849576Y13460915D01*
X14843189Y13440998D01*
X14836122Y13420907D01*
X14828071Y13399522D01*
X14820248Y13379539D01*
X14809467Y13351933D01*
X14801525Y13330458D01*
X14796175Y13314063D01*
X14793169Y13301697D01*
X14792259Y13292312D01*
X14793198Y13284857D01*
X14795738Y13278282D01*
X14796173Y13277437D01*
X14802873Y13267439D01*
X14813871Y13254954D01*
X14829503Y13239685D01*
X14850109Y13221337D01*
X14876025Y13199614D01*
X14907589Y13174218D01*
X14945139Y13144854D01*
X14962893Y13131178D01*
X14992202Y13108589D01*
X15017379Y13088905D01*
X15039598Y13071110D01*
X15060032Y13054189D01*
X15079855Y13037125D01*
X15100240Y13018905D01*
X15122361Y12998512D01*
X15147391Y12974931D01*
X15176504Y12947147D01*
X15185006Y12938994D01*
X15202046Y12922906D01*
X15223608Y12902951D01*
X15248311Y12880387D01*
X15274774Y12856466D01*
X15301614Y12832446D01*
X15327451Y12809580D01*
X15327637Y12809416D01*
X15351646Y12788171D01*
X15375039Y12767212D01*
X15396807Y12747464D01*
X15415937Y12729854D01*
X15431418Y12715307D01*
X15442239Y12704747D01*
X15443946Y12702998D01*
X15456185Y12689948D01*
X15464093Y12680204D01*
X15468918Y12671596D01*
X15471908Y12661957D01*
X15474038Y12650748D01*
X15475800Y12637251D01*
X15477590Y12618270D01*
X15479220Y12596131D01*
X15480501Y12573161D01*
X15480698Y12568693D01*
X15482358Y12534300D01*
X15484371Y12506503D01*
X15487078Y12484081D01*
X15490816Y12465815D01*
X15495927Y12450484D01*
X15502749Y12436869D01*
X15511621Y12423750D01*
X15522884Y12409907D01*
X15525821Y12406523D01*
X15549357Y12381214D01*
X15574885Y12357026D01*
X15603202Y12333394D01*
X15635102Y12309751D01*
X15671380Y12285532D01*
X15712831Y12260169D01*
X15760251Y12233096D01*
X15798768Y12212103D01*
X15851880Y12183863D01*
X15899572Y12159083D01*
X15943112Y12137181D01*
X15983769Y12117573D01*
X16022811Y12099677D01*
X16061507Y12082910D01*
X16101124Y12066690D01*
X16142933Y12050433D01*
X16184047Y12035080D01*
X16219748Y12021782D01*
X16249601Y12010188D01*
X16275191Y11999585D01*
X16298101Y11989256D01*
X16319915Y11978486D01*
X16342215Y11966560D01*
X16366587Y11952763D01*
X16367708Y11952115D01*
X16399794Y11932933D01*
X16436540Y11909887D01*
X16476560Y11883924D01*
X16518470Y11855994D01*
X16560885Y11827042D01*
X16602421Y11798018D01*
X16641692Y11769869D01*
X16677316Y11743542D01*
X16707905Y11719985D01*
X16714290Y11714893D01*
X16743312Y11689912D01*
X16765610Y11666731D01*
X16781774Y11644396D01*
X16792394Y11621950D01*
X16798060Y11598439D01*
X16799422Y11577074D01*
X16798973Y11563489D01*
X16797366Y11551234D01*
X16794065Y11539456D01*
X16788538Y11527307D01*
X16780251Y11513935D01*
X16768670Y11498490D01*
X16753260Y11480121D01*
X16733489Y11457978D01*
X16708822Y11431211D01*
X16705876Y11428043D01*
X16672345Y11393080D01*
X16642084Y11363890D01*
X16614155Y11339660D01*
X16587624Y11319574D01*
X16562478Y11303365D01*
X16545786Y11292501D01*
X16525640Y11277845D01*
X16504200Y11261042D01*
X16483628Y11243734D01*
X16480775Y11241218D01*
X16463041Y11225638D01*
X16445619Y11210630D01*
X16430108Y11197554D01*
X16418109Y11187766D01*
X16414401Y11184887D01*
X16389809Y11169889D01*
X16357761Y11156439D01*
X16318207Y11144523D01*
X16271096Y11134124D01*
X16216377Y11125230D01*
X16198738Y11122887D01*
X16171753Y11119165D01*
X16140356Y11114357D01*
X16107780Y11108984D01*
X16077260Y11103569D01*
X16065876Y11101416D01*
X16034490Y11095479D01*
X16007304Y11090716D01*
X15982512Y11086918D01*
X15958307Y11083874D01*
X15932883Y11081373D01*
X15904433Y11079205D01*
X15871151Y11077159D01*
X15846093Y11075795D01*
X15821216Y11074411D01*
X15798988Y11073031D01*
X15780591Y11071740D01*
X15767204Y11070623D01*
X15760010Y11069766D01*
X15759156Y11069533D01*
X15760334Y11066282D01*
X15766552Y11059391D01*
X15776604Y11049914D01*
X15789283Y11038907D01*
X15803384Y11027428D01*
X15817699Y11016530D01*
X15827977Y11009290D01*
X15850918Y10996577D01*
X15879116Y10986034D01*
X15913628Y10977290D01*
X15926139Y10974819D01*
X15951879Y10969507D01*
X15971401Y10963802D01*
X15986272Y10956640D01*
X15998059Y10946956D01*
X16008331Y10933683D01*
X16018655Y10915757D01*
X16021708Y10909877D01*
X16040541Y10865069D01*
X16052828Y10816856D01*
X16058594Y10764987D01*
X16057865Y10709217D01*
X16050668Y10649295D01*
X16049440Y10642200D01*
X16045404Y10617494D01*
X16043243Y10597254D01*
X16043005Y10578866D01*
X16044739Y10559716D01*
X16048493Y10537192D01*
X16051673Y10521273D01*
X16056321Y10494293D01*
X16057533Y10473443D01*
X16055054Y10457711D01*
X16048627Y10446088D01*
X16037995Y10437563D01*
X16029381Y10433470D01*
X16005334Y10427819D01*
X15976462Y10428098D01*
X15942997Y10434276D01*
X15905169Y10446323D01*
X15892258Y10451381D01*
X15862284Y10463614D01*
X15798473Y10452284D01*
X15778642Y10448840D01*
X15761708Y10446173D01*
X15746195Y10444184D01*
X15730629Y10442774D01*
X15713535Y10441845D01*
X15693437Y10441299D01*
X15668861Y10441035D01*
X15638332Y10440957D01*
X15629154Y10440954D01*
X15586025Y10441194D01*
X15549269Y10442003D01*
X15517457Y10443512D01*
X15489160Y10445855D01*
X15462948Y10449164D01*
X15437390Y10453572D01*
X15411059Y10459212D01*
X15397559Y10462435D01*
X15329439Y10480732D01*
X15261631Y10501976D01*
X15195700Y10525577D01*
X15133213Y10550948D01*
X15075736Y10577497D01*
X15034835Y10598954D01*
X15011182Y10611898D01*
X14984501Y10626048D01*
X14955676Y10640975D01*
X14925588Y10656252D01*
X14895120Y10671452D01*
X14865154Y10686146D01*
X14836573Y10699908D01*
X14810258Y10712309D01*
X14787092Y10722921D01*
X14767958Y10731317D01*
X14753737Y10737070D01*
X14745312Y10739751D01*
X14744106Y10739893D01*
X14740821Y10738478D01*
X14737423Y10733542D01*
X14733474Y10724047D01*
X14728536Y10708953D01*
X14722706Y10689093D01*
X14716385Y10668778D01*
X14708213Y10645067D01*
X14699509Y10621707D01*
X14695154Y10610807D01*
X14687692Y10591615D01*
X14679030Y10567628D01*
X14670114Y10541567D01*
X14661894Y10516150D01*
X14659883Y10509640D01*
X14649899Y10477695D01*
X14640865Y10450958D01*
X14631902Y10427368D01*
X14622128Y10404863D01*
X14610664Y10381382D01*
X14596628Y10354863D01*
X14583884Y10331740D01*
X14571700Y10309614D01*
X14561961Y10290939D01*
X14554241Y10274291D01*
X14548114Y10258247D01*
X14543154Y10241383D01*
X14538935Y10222276D01*
X14535031Y10199502D01*
X14531017Y10171639D01*
X14527067Y10141881D01*
X14520403Y10093901D01*
X14513604Y10052224D01*
X14506248Y10015341D01*
X14497913Y9981744D01*
X14488176Y9949926D01*
X14476615Y9918379D01*
X14462807Y9885594D01*
X14446330Y9850065D01*
X14443905Y9845031D01*
X14429464Y9814895D01*
X14418171Y9790280D01*
X14409646Y9769736D01*
X14403508Y9751810D01*
X14399377Y9735052D01*
X14396872Y9718008D01*
X14395613Y9699229D01*
X14395219Y9677262D01*
X14395254Y9659416D01*
X14395972Y9618430D01*
X14397759Y9578872D01*
X14400779Y9538694D01*
X14405200Y9495849D01*
X14411187Y9448287D01*
X14414139Y9426908D01*
X14421567Y9371635D01*
X14427404Y9321464D01*
X14431618Y9275161D01*
X14434177Y9231494D01*
X14435050Y9189231D01*
X14434204Y9147138D01*
X14431608Y9103982D01*
X14427230Y9058531D01*
X14421037Y9009552D01*
X14412999Y8955812D01*
X14403082Y8896078D01*
X14399923Y8877877D01*
X14395114Y8850419D01*
X14391425Y8829707D01*
X14388621Y8814790D01*
X14386469Y8804718D01*
X14384734Y8798540D01*
X14383183Y8795305D01*
X14381581Y8794062D01*
X14379693Y8793861D01*
X14379233Y8793862D01*
X14374814Y8796679D01*
X14366582Y8804353D01*
X14355707Y8815718D01*
X14343358Y8829608D01*
X14343128Y8829875D01*
X14325638Y8849321D01*
X14309847Y8865108D01*
X14296579Y8876497D01*
X14286660Y8882753D01*
X14282840Y8883739D01*
X14280285Y8880316D01*
X14277071Y8871637D01*
X14275546Y8866154D01*
X14271386Y8854472D01*
X14265975Y8849298D01*
X14258653Y8850718D01*
X14248764Y8858817D01*
X14237828Y8871039D01*
X14223236Y8888052D01*
X14208426Y8904454D01*
X14194596Y8918998D01*
X14182942Y8930440D01*
X14174659Y8937532D01*
X14172806Y8938741D01*
X14168630Y8940187D01*
X14167437Y8937031D01*
X14168497Y8928293D01*
X14168512Y8916250D01*
X14164084Y8910124D01*
X14155721Y8910423D01*
X14152257Y8911980D01*
X14146216Y8916069D01*
X14135696Y8924064D01*
X14122177Y8934810D01*
X14107139Y8947155D01*
X14107108Y8947180D01*
X14090012Y8961008D01*
X14078145Y8969584D01*
X14071162Y8973131D01*
X14068761Y8972170D01*
X14069514Y8964048D01*
X14071692Y8958447D01*
X14074759Y8948793D01*
X14075847Y8938703D01*
X14074567Y8929861D01*
X14070045Y8926795D01*
X14068712Y8926723D01*
X14061933Y8928820D01*
X14053863Y8935642D01*
X14043721Y8947987D01*
X14033110Y8963088D01*
X14026234Y8972412D01*
X14016773Y8984095D01*
X14005921Y8996806D01*
X13994874Y9009212D01*
X13984824Y9019981D01*
X13976967Y9027778D01*
X13972498Y9031273D01*
X13971988Y9031276D01*
X13972559Y9027290D01*
X13975125Y9017790D01*
X13979168Y9004659D01*
X13980145Y9001649D01*
X13985562Y8982573D01*
X13987138Y8969896D01*
X13984882Y8963216D01*
X13981030Y8961893D01*
X13977104Y8964589D01*
X13968795Y8972059D01*
X13957069Y8983377D01*
X13942890Y8997617D01*
X13930633Y9010278D01*
X13908672Y9032851D01*
X13888632Y9052717D01*
X13871133Y9069311D01*
X13856794Y9082070D01*
X13846237Y9090428D01*
X13840082Y9093821D01*
X13838968Y9093640D01*
X13839293Y9089275D01*
X13842083Y9079744D01*
X13846741Y9067071D01*
X13846972Y9066493D01*
X13853929Y9046836D01*
X13856698Y9033203D01*
X13855257Y9025796D01*
X13852043Y9024416D01*
X13848218Y9027402D01*
X13840596Y9035702D01*
X13830005Y9048331D01*
X13817273Y9064302D01*
X13803661Y9082054D01*
X13786222Y9104887D01*
X13769411Y9126302D01*
X13753859Y9145551D01*
X13740196Y9161888D01*
X13729050Y9174569D01*
X13721054Y9182845D01*
X13716837Y9185972D01*
X13716339Y9185463D01*
X13717534Y9180390D01*
X13720701Y9169987D01*
X13725210Y9156296D01*
X13726309Y9153077D01*
X13732373Y9132449D01*
X13736060Y9113507D01*
X13737282Y9097600D01*
X13735954Y9086075D01*
X13731990Y9080281D01*
X13730993Y9079951D01*
X13725203Y9081375D01*
X13724154Y9085196D01*
X13722103Y9094037D01*
X13716576Y9106876D01*
X13708516Y9122216D01*
X13698865Y9138566D01*
X13688562Y9154431D01*
X13678552Y9168316D01*
X13669774Y9178729D01*
X13663170Y9184174D01*
X13661483Y9184631D01*
X13659618Y9180873D01*
X13659077Y9169977D01*
X13659889Y9152515D01*
X13659898Y9152393D01*
X13660827Y9136488D01*
X13660699Y9127535D01*
X13659454Y9124735D01*
X13657879Y9126016D01*
X13650657Y9137545D01*
X13642418Y9153422D01*
X13634629Y9170586D01*
X13628758Y9185975D01*
X13628039Y9188252D01*
X13623087Y9200648D01*
X13615260Y9216091D01*
X13606236Y9231274D01*
X13606074Y9231523D01*
X13589516Y9256923D01*
X13587076Y9222529D01*
X13585522Y9206587D01*
X13583464Y9193503D01*
X13581259Y9185339D01*
X13580412Y9183910D01*
X13573539Y9181216D01*
X13566822Y9184936D01*
X13562212Y9193878D01*
X13561900Y9195210D01*
X13558818Y9206479D01*
X13553965Y9220668D01*
X13548351Y9235167D01*
X13542986Y9247367D01*
X13538920Y9254608D01*
X13536184Y9256193D01*
X13534119Y9252029D01*
X13532277Y9241131D01*
X13532096Y9239698D01*
X13530281Y9227790D01*
X13528379Y9219407D01*
X13527380Y9217108D01*
X13521911Y9215921D01*
X13515708Y9221984D01*
X13509151Y9234812D01*
X13505334Y9245169D01*
X13500900Y9257721D01*
X13497314Y9266467D01*
X13495299Y9269659D01*
X13495224Y9269619D01*
X13494526Y9265318D01*
X13493890Y9255024D01*
X13493412Y9240560D01*
X13493260Y9232246D01*
X13492796Y9216592D01*
X13491950Y9204408D01*
X13490869Y9197417D01*
X13490258Y9196406D01*
X13487024Y9199461D01*
X13480940Y9207428D01*
X13473310Y9218599D01*
X13473129Y9218876D01*
X13458519Y9241293D01*
X13458475Y9219143D01*
X13458048Y9205782D01*
X13456996Y9195040D01*
X13456059Y9190812D01*
X13451014Y9185152D01*
X13444009Y9185764D01*
X13436905Y9192102D01*
X13433858Y9197331D01*
X13429201Y9208116D01*
X13422426Y9224870D01*
X13414059Y9246206D01*
X13404624Y9270738D01*
X13394645Y9297078D01*
X13384649Y9323840D01*
X13375158Y9349638D01*
X13366698Y9373085D01*
X13359793Y9392795D01*
X13358821Y9395647D01*
X13342255Y9444493D01*
X13339879Y9411277D01*
X13339002Y9396253D01*
X13338062Y9375465D01*
X13337138Y9350963D01*
X13336308Y9324796D01*
X13335776Y9304473D01*
X13335150Y9281324D01*
X13334444Y9260984D01*
X13333712Y9244695D01*
X13333012Y9233700D01*
X13332400Y9229239D01*
X13332383Y9229219D01*
X13330635Y9232123D01*
X13326907Y9241224D01*
X13321663Y9255299D01*
X13315367Y9273123D01*
X13311667Y9283954D01*
X13304935Y9303319D01*
X13298909Y9319608D01*
X13294073Y9331589D01*
X13290910Y9338035D01*
X13290069Y9338780D01*
X13288126Y9334313D01*
X13286003Y9324676D01*
X13284974Y9317993D01*
X13281671Y9303714D01*
X13276618Y9294270D01*
X13270608Y9290846D01*
X13267410Y9291811D01*
X13263369Y9297725D01*
X13258765Y9310203D01*
X13254023Y9328057D01*
X13253380Y9330885D01*
X13250827Y9342323D01*
X13239612Y9323069D01*
X13230159Y9308602D01*
X13218624Y9293280D01*
X13212672Y9286231D01*
X13196949Y9268647D01*
X13196722Y9299908D01*
X13196495Y9331170D01*
X13182502Y9306479D01*
X13171902Y9289680D01*
X13163373Y9280365D01*
X13156874Y9278493D01*
X13154877Y9279775D01*
X13154674Y9284312D01*
X13155895Y9294849D01*
X13158310Y9309745D01*
X13161194Y9324918D01*
X13164618Y9343406D01*
X13167153Y9360084D01*
X13168512Y9372858D01*
X13168571Y9378761D01*
X13167308Y9389785D01*
X13159220Y9376108D01*
X13152198Y9365899D01*
X13142372Y9353697D01*
X13131124Y9340974D01*
X13119838Y9329201D01*
X13109897Y9319851D01*
X13102684Y9314395D01*
X13100456Y9313585D01*
X13096179Y9316396D01*
X13095626Y9325055D01*
X13098831Y9339897D01*
X13104850Y9358523D01*
X13109541Y9372155D01*
X13112982Y9382850D01*
X13114513Y9388541D01*
X13114537Y9388808D01*
X13112959Y9391580D01*
X13107777Y9389737D01*
X13098407Y9382928D01*
X13084264Y9370805D01*
X13083802Y9370393D01*
X13067841Y9356536D01*
X13056503Y9347765D01*
X13048923Y9343600D01*
X13044237Y9343561D01*
X13041659Y9346963D01*
X13041486Y9353045D01*
X13042768Y9365087D01*
X13045277Y9381417D01*
X13048784Y9400363D01*
X13049278Y9402816D01*
X13054862Y9430608D01*
X13058900Y9451522D01*
X13061517Y9466315D01*
X13062839Y9475745D01*
X13062992Y9480566D01*
X13062382Y9481616D01*
X13059696Y9478529D01*
X13053954Y9470265D01*
X13046176Y9458317D01*
X13042064Y9451788D01*
X13030687Y9434496D01*
X13017771Y9416319D01*
X13005866Y9400823D01*
X13004394Y9399034D01*
X12991198Y9384535D01*
X12981566Y9376974D01*
X12975553Y9376327D01*
X12973211Y9382568D01*
X12974596Y9395671D01*
X12978480Y9411277D01*
X12990853Y9456483D01*
X13000345Y9495967D01*
X13006837Y9529199D01*
X13009400Y9547287D01*
X13013387Y9570736D01*
X13019680Y9595204D01*
X13024649Y9609813D01*
X13029806Y9623674D01*
X13033393Y9634451D01*
X13034823Y9640339D01*
X13034740Y9640887D01*
X13031538Y9639083D01*
X13025177Y9631880D01*
X13016558Y9620555D01*
X13006580Y9606387D01*
X12996143Y9590655D01*
X12986148Y9574639D01*
X12977494Y9559616D01*
X12977325Y9559306D01*
X12954849Y9521351D01*
X12932063Y9489469D01*
X12912721Y9467612D01*
X12903971Y9459501D01*
X12898445Y9456556D01*
X12894338Y9457961D01*
X12893344Y9458874D01*
X12891270Y9462271D01*
X12890593Y9467903D01*
X12891431Y9477135D01*
X12893902Y9491332D01*
X12897736Y9510042D01*
X12901528Y9528356D01*
X12904626Y9544105D01*
X12906707Y9555583D01*
X12907447Y9561036D01*
X12904849Y9559997D01*
X12897599Y9554114D01*
X12886515Y9544128D01*
X12872412Y9530778D01*
X12856106Y9514805D01*
X12852490Y9511198D01*
X12833636Y9492485D01*
X12819685Y9479028D01*
X12810153Y9470420D01*
X12804557Y9466255D01*
X12802413Y9466127D01*
X12803237Y9469628D01*
X12803349Y9469893D01*
X12807455Y9479426D01*
X12813693Y9493764D01*
X12821039Y9510559D01*
X12825212Y9520062D01*
X12833256Y9539881D01*
X12839414Y9558086D01*
X12843387Y9573423D01*
X12844873Y9584639D01*
X12843573Y9590480D01*
X12842214Y9591031D01*
X12837334Y9588882D01*
X12828222Y9583255D01*
X12817260Y9575662D01*
X12790084Y9556126D01*
X12768493Y9541040D01*
X12751912Y9530046D01*
X12739768Y9522783D01*
X12731488Y9518890D01*
X12726496Y9518008D01*
X12725735Y9518200D01*
X12723244Y9520449D01*
X12724256Y9524912D01*
X12729361Y9532823D01*
X12738166Y9544188D01*
X12748180Y9557250D01*
X12758335Y9571409D01*
X12767658Y9585187D01*
X12775180Y9597102D01*
X12779928Y9605676D01*
X12780966Y9609399D01*
X12777451Y9607864D01*
X12768825Y9602823D01*
X12756475Y9595113D01*
X12744966Y9587665D01*
X12726782Y9576090D01*
X12707394Y9564326D01*
X12689897Y9554230D01*
X12683142Y9550556D01*
X12666609Y9542201D01*
X12654765Y9537328D01*
X12647608Y9536332D01*
X12645135Y9539610D01*
X12647343Y9547556D01*
X12654229Y9560567D01*
X12665792Y9579037D01*
X12682027Y9603363D01*
X12682768Y9604454D01*
X12695929Y9623989D01*
X12707623Y9641618D01*
X12717107Y9656202D01*
X12723642Y9666602D01*
X12726475Y9671647D01*
X12724863Y9673288D01*
X12717106Y9670824D01*
X12703044Y9664196D01*
X12692173Y9658546D01*
X12670096Y9647229D01*
X12646604Y9635903D01*
X12622804Y9625026D01*
X12599806Y9615056D01*
X12578716Y9606452D01*
X12560643Y9599671D01*
X12546695Y9595173D01*
X12537981Y9593415D01*
X12535733Y9593858D01*
X12533332Y9597689D01*
X12534448Y9602012D01*
X12539912Y9607722D01*
X12550550Y9615717D01*
X12564828Y9625340D01*
X12577515Y9634322D01*
X12591722Y9645373D01*
X12606257Y9657434D01*
X12619930Y9669443D01*
X12631549Y9680340D01*
X12639924Y9689064D01*
X12643865Y9694556D01*
X12643854Y9695711D01*
X12639615Y9695290D01*
X12629499Y9692704D01*
X12615005Y9688375D01*
X12597631Y9682726D01*
X12597003Y9682514D01*
X12577402Y9676079D01*
X12563838Y9672164D01*
X12555039Y9670516D01*
X12549736Y9670878D01*
X12547094Y9672508D01*
X12545093Y9676558D01*
X12547624Y9681649D01*
X12555569Y9689425D01*
X12556731Y9690444D01*
X12565163Y9698159D01*
X12570460Y9703695D01*
X12571385Y9705183D01*
X12567891Y9705002D01*
X12558436Y9702989D01*
X12544565Y9699502D01*
X12531627Y9695977D01*
X12514681Y9691351D01*
X12500269Y9687661D01*
X12490217Y9685359D01*
X12486689Y9684816D01*
X12481939Y9686813D01*
X12482781Y9692950D01*
X12489339Y9703444D01*
X12501740Y9718513D01*
X12513747Y9731669D01*
X12527138Y9746650D01*
X12540170Y9762480D01*
X12551971Y9777941D01*
X12561665Y9791813D01*
X12568382Y9802876D01*
X12571248Y9809913D01*
X12570951Y9811553D01*
X12567092Y9810467D01*
X12557590Y9806457D01*
X12543778Y9800121D01*
X12526991Y9792056D01*
X12522824Y9790006D01*
X12499796Y9779031D01*
X12473799Y9767271D01*
X12448397Y9756308D01*
X12431329Y9749346D01*
X12405616Y9739792D01*
X12386513Y9733882D01*
X12374089Y9731567D01*
X12368415Y9732799D01*
X12369561Y9737529D01*
X12377596Y9745707D01*
X12392592Y9757284D01*
X12406420Y9766819D01*
X12424313Y9779194D01*
X12441133Y9791606D01*
X12455813Y9803180D01*
X12467289Y9813038D01*
X12474493Y9820307D01*
X12476360Y9824110D01*
X12476283Y9824205D01*
X12472503Y9823030D01*
X12463811Y9818585D01*
X12451912Y9811759D01*
X12448886Y9809937D01*
X12435891Y9802389D01*
X12419481Y9793368D01*
X12401042Y9783577D01*
X12381960Y9773717D01*
X12363621Y9764493D01*
X12347409Y9756606D01*
X12334712Y9750759D01*
X12326914Y9747656D01*
X12325439Y9747339D01*
X12321084Y9749423D01*
X12322653Y9755143D01*
X12329637Y9763698D01*
X12341526Y9774289D01*
X12343762Y9776051D01*
X12358477Y9788229D01*
X12373706Y9802005D01*
X12383816Y9811998D01*
X12401400Y9830499D01*
X12383816Y9819837D01*
X12370899Y9812523D01*
X12354118Y9803754D01*
X12335121Y9794308D01*
X12315554Y9784965D01*
X12297066Y9776501D01*
X12281303Y9769695D01*
X12269912Y9765325D01*
X12266135Y9764247D01*
X12257401Y9763977D01*
X12254890Y9767436D01*
X12258414Y9773880D01*
X12267785Y9782570D01*
X12271470Y9785331D01*
X12283575Y9794695D01*
X12297644Y9806556D01*
X12312184Y9819533D01*
X12325703Y9832248D01*
X12336708Y9843319D01*
X12343706Y9851365D01*
X12345004Y9853341D01*
X12345209Y9856069D01*
X12340448Y9854756D01*
X12330162Y9849187D01*
X12323309Y9845069D01*
X12305364Y9834566D01*
X12285143Y9823510D01*
X12264018Y9812568D01*
X12243362Y9802403D01*
X12224548Y9793679D01*
X12208948Y9787061D01*
X12197934Y9783212D01*
X12194027Y9782508D01*
X12187511Y9783330D01*
X12185833Y9786120D01*
X12189393Y9791369D01*
X12198592Y9799566D01*
X12213831Y9811201D01*
X12222891Y9817778D01*
X12238788Y9829453D01*
X12253557Y9840746D01*
X12265272Y9850159D01*
X12270841Y9855033D01*
X12281414Y9865818D01*
X12291268Y9877134D01*
X12299175Y9887401D01*
X12303906Y9895039D01*
X12304486Y9898310D01*
X12300208Y9897741D01*
X12291609Y9893958D01*
X12285453Y9890601D01*
X12270024Y9882484D01*
X12251110Y9873832D01*
X12230005Y9865095D01*
X12208001Y9856719D01*
X12186392Y9849154D01*
X12166471Y9842848D01*
X12149530Y9838248D01*
X12136864Y9835803D01*
X12129765Y9835961D01*
X12129067Y9836401D01*
X12126862Y9840018D01*
X12128009Y9844199D01*
X12133325Y9849770D01*
X12143625Y9857555D01*
X12159726Y9868380D01*
X12162414Y9870135D01*
X12180060Y9882038D01*
X12194278Y9892399D01*
X12204565Y9900726D01*
X12210419Y9906524D01*
X12211336Y9909302D01*
X12206814Y9908566D01*
X12197223Y9904264D01*
X12180219Y9896802D01*
X12160385Y9889709D01*
X12140506Y9883846D01*
X12123369Y9880076D01*
X12116243Y9879214D01*
X12105166Y9879555D01*
X12100280Y9882562D01*
X12101700Y9888554D01*
X12109544Y9897848D01*
X12123930Y9910765D01*
X12129535Y9915391D01*
X12142750Y9926401D01*
X12153553Y9935882D01*
X12160562Y9942594D01*
X12162462Y9944955D01*
X12159873Y9945908D01*
X12151377Y9944725D01*
X12138512Y9941653D01*
X12133633Y9940285D01*
X12110628Y9933963D01*
X12089894Y9928908D01*
X12072675Y9925370D01*
X12060214Y9923600D01*
X12053756Y9923847D01*
X12053333Y9924119D01*
X12052127Y9927581D01*
X12055364Y9931983D01*
X12063794Y9937886D01*
X12078170Y9945846D01*
X12091992Y9952851D01*
X12112565Y9963277D01*
X12126446Y9970956D01*
X12133497Y9976025D01*
X12133581Y9978623D01*
X12126561Y9978886D01*
X12112299Y9976951D01*
X12090658Y9972955D01*
X12075007Y9969815D01*
X12050997Y9965065D01*
X12026563Y9960490D01*
X12002944Y9956294D01*
X11981381Y9952680D01*
X11963114Y9949854D01*
X11949384Y9948020D01*
X11941429Y9947380D01*
X11939983Y9947593D01*
X11942761Y9949770D01*
X11951167Y9954896D01*
X11963940Y9962230D01*
X11979819Y9971033D01*
X11981705Y9972061D01*
X11997605Y9980943D01*
X12010270Y9988458D01*
X12018527Y9993875D01*
X12021202Y9996463D01*
X12021079Y9996554D01*
X12015970Y9996059D01*
X12005321Y9993740D01*
X11991070Y9990040D01*
X11984804Y9988275D01*
X11963866Y9982657D01*
X11943180Y9977827D01*
X11924219Y9974051D01*
X11908459Y9971596D01*
X11897372Y9970728D01*
X11892540Y9971589D01*
X11891494Y9975968D01*
X11895617Y9982474D01*
X11905380Y9991583D01*
X11921254Y10003768D01*
X11932216Y10011573D01*
X11947329Y10022375D01*
X11960793Y10032418D01*
X11970812Y10040340D01*
X11974733Y10043811D01*
X11979041Y10048828D01*
X11979051Y10051537D01*
X11973968Y10051995D01*
X11962994Y10050263D01*
X11945332Y10046398D01*
X11943947Y10046077D01*
X11925522Y10042735D01*
X11908731Y10041365D01*
X11895245Y10041949D01*
X11886735Y10044468D01*
X11884767Y10046711D01*
X11886253Y10050032D01*
X11892923Y10054410D01*
X11905272Y10060055D01*
X11923797Y10067176D01*
X11948996Y10075983D01*
X11972469Y10083787D01*
X11995075Y10091499D01*
X12010382Y10097461D01*
X12018674Y10101800D01*
X12020241Y10104642D01*
X12020135Y10104760D01*
X12014477Y10106458D01*
X12002309Y10107627D01*
X11984918Y10108288D01*
X11963588Y10108463D01*
X11939608Y10108174D01*
X11914262Y10107443D01*
X11888836Y10106291D01*
X11864617Y10104741D01*
X11842891Y10102814D01*
X11832194Y10101566D01*
X11808155Y10098499D01*
X11790784Y10096515D01*
X11779009Y10095601D01*
X11771760Y10095748D01*
X11767964Y10096947D01*
X11766550Y10099187D01*
X11766400Y10100952D01*
X11769848Y10105172D01*
X11779604Y10111899D01*
X11794784Y10120578D01*
X11810362Y10128613D01*
X11833349Y10140406D01*
X11853833Y10151634D01*
X11870816Y10161691D01*
X11883302Y10169970D01*
X11890294Y10175865D01*
X11891439Y10177942D01*
X11888266Y10178078D01*
X11880137Y10175463D01*
X11873638Y10172776D01*
X11851353Y10164550D01*
X11823049Y10156619D01*
X11790525Y10149321D01*
X11755578Y10142990D01*
X11720004Y10137964D01*
X11685602Y10134578D01*
X11662847Y10133353D01*
X11645588Y10133047D01*
X11634831Y10133553D01*
X11629290Y10135031D01*
X11627678Y10137641D01*
X11627677Y10137735D01*
X11631114Y10142069D01*
X11640049Y10147088D01*
X11647216Y10149901D01*
X11663290Y10155999D01*
X11683960Y10164706D01*
X11707106Y10175041D01*
X11730610Y10186022D01*
X11752350Y10196667D01*
X11770207Y10205996D01*
X11778123Y10210520D01*
X11793320Y10220673D01*
X11806128Y10231040D01*
X11815345Y10240461D01*
X11819772Y10247771D01*
X11819604Y10250703D01*
X11814209Y10252599D01*
X11803467Y10251475D01*
X11802569Y10251282D01*
X11794079Y10249803D01*
X11779346Y10247640D01*
X11759893Y10244984D01*
X11737243Y10242031D01*
X11712919Y10238974D01*
X11688444Y10236007D01*
X11665341Y10233323D01*
X11645133Y10231116D01*
X11639187Y10230508D01*
X11624909Y10230077D01*
X11614921Y10231730D01*
X11610413Y10235082D01*
X11612079Y10239284D01*
X11617248Y10241996D01*
X11628137Y10246304D01*
X11642985Y10251544D01*
X11655031Y10255487D01*
X11675325Y10262522D01*
X11695782Y10270652D01*
X11715085Y10279233D01*
X11731914Y10287618D01*
X11744951Y10295162D01*
X11752876Y10301219D01*
X11754677Y10304277D01*
X11753534Y10306920D01*
X11749340Y10309118D01*
X11740946Y10311138D01*
X11727206Y10313245D01*
X11706971Y10315706D01*
X11703877Y10316057D01*
X11679694Y10319579D01*
X11663210Y10323880D01*
X11654336Y10329075D01*
X11652984Y10335278D01*
X11659064Y10342604D01*
X11672490Y10351167D01*
X11675547Y10352781D01*
X11687370Y10359436D01*
X11691883Y10363356D01*
X11689118Y10364454D01*
X11679104Y10362645D01*
X11672616Y10360963D01*
X11665687Y10359408D01*
X11652940Y10356854D01*
X11635881Y10353578D01*
X11616015Y10349853D01*
X11594848Y10345955D01*
X11573886Y10342159D01*
X11554634Y10338739D01*
X11538597Y10335972D01*
X11527282Y10334132D01*
X11522254Y10333493D01*
X11520460Y10336693D01*
X11520216Y10339570D01*
X11523719Y10344618D01*
X11533299Y10350963D01*
X11542685Y10355560D01*
X11571263Y10368508D01*
X11598089Y10381309D01*
X11622131Y10393422D01*
X11642356Y10404304D01*
X11657730Y10413414D01*
X11667221Y10420210D01*
X11668708Y10421651D01*
X11674241Y10428411D01*
X11674204Y10430588D01*
X11671645Y10429982D01*
X11665686Y10428372D01*
X11653497Y10425463D01*
X11636492Y10421579D01*
X11616086Y10417045D01*
X11599353Y10413403D01*
X11567058Y10406864D01*
X11539485Y10402159D01*
X11517225Y10399349D01*
X11500867Y10398495D01*
X11491001Y10399659D01*
X11488220Y10401877D01*
X11490852Y10405402D01*
X11498782Y10412693D01*
X11511001Y10422901D01*
X11526501Y10435176D01*
X11539647Y10445209D01*
X11562650Y10462721D01*
X11579303Y10476033D01*
X11589672Y10485401D01*
X11593829Y10491080D01*
X11591840Y10493328D01*
X11583775Y10492400D01*
X11569703Y10488553D01*
X11549693Y10482042D01*
X11549523Y10481985D01*
X11525902Y10474785D01*
X11508150Y10471042D01*
X11496510Y10470698D01*
X11491225Y10473692D01*
X11492536Y10479966D01*
X11500686Y10489459D01*
X11504618Y10493028D01*
X11517244Y10504026D01*
X11530256Y10515369D01*
X11535303Y10519773D01*
X11543156Y10527272D01*
X11547363Y10532588D01*
X11547556Y10533943D01*
X11543199Y10533941D01*
X11532687Y10532654D01*
X11517537Y10530301D01*
X11499265Y10527099D01*
X11496770Y10526638D01*
X11474985Y10522813D01*
X11452979Y10519337D01*
X11433489Y10516622D01*
X11420570Y10515186D01*
X11393216Y10512823D01*
X11446460Y10536714D01*
X11473804Y10549486D01*
X11494423Y10560224D01*
X11508136Y10568819D01*
X11514762Y10575159D01*
X11514719Y10578662D01*
X11510103Y10580304D01*
X11499850Y10582704D01*
X11486039Y10585384D01*
X11483810Y10585776D01*
X11460584Y10590668D01*
X11442778Y10596208D01*
X11431158Y10602090D01*
X11426488Y10608007D01*
X11426431Y10608711D01*
X11429647Y10613743D01*
X11437902Y10620212D01*
X11444993Y10624359D01*
X11455577Y10630225D01*
X11459262Y10633259D01*
X11455942Y10633479D01*
X11445510Y10630900D01*
X11430968Y10626519D01*
X11412923Y10621311D01*
X11401025Y10619141D01*
X11394223Y10620000D01*
X11391467Y10623880D01*
X11391262Y10626197D01*
X11395055Y10633279D01*
X11406359Y10641975D01*
X11412432Y10645587D01*
X11425499Y10653131D01*
X11433850Y10658657D01*
X11437018Y10662352D01*
X11434533Y10664403D01*
X11425929Y10665000D01*
X11410738Y10664330D01*
X11388490Y10662582D01*
X11373446Y10661262D01*
X11351322Y10659501D01*
X11335863Y10658818D01*
X11325992Y10659215D01*
X11320635Y10660698D01*
X11319674Y10661425D01*
X11317598Y10665354D01*
X11320366Y10668991D01*
X11328805Y10672784D01*
X11343742Y10677181D01*
X11353242Y10679583D01*
X11366149Y10682958D01*
X11375209Y10685739D01*
X11378620Y10687367D01*
X11378587Y10687439D01*
X11374413Y10687462D01*
X11364261Y10686449D01*
X11349876Y10684592D01*
X11339987Y10683160D01*
X11310501Y10679284D01*
X11287029Y10677325D01*
X11269801Y10677180D01*
X11259051Y10678747D01*
X11255010Y10681922D01*
X11257910Y10686602D01*
X11267984Y10692685D01*
X11285463Y10700067D01*
X11294537Y10703346D01*
X11308047Y10708365D01*
X11317380Y10712462D01*
X11321223Y10715024D01*
X11320751Y10715526D01*
X11315328Y10715107D01*
X11303502Y10713314D01*
X11286522Y10710366D01*
X11265635Y10706481D01*
X11242090Y10701878D01*
X11237184Y10700893D01*
X11212955Y10696097D01*
X11190850Y10691892D01*
X11172195Y10688516D01*
X11158315Y10686209D01*
X11150536Y10685208D01*
X11149912Y10685185D01*
X11142907Y10686207D01*
X11142300Y10689376D01*
X11148286Y10694848D01*
X11161062Y10702776D01*
X11180824Y10713316D01*
X11193474Y10719658D01*
X11215142Y10730638D01*
X11230213Y10738901D01*
X11238580Y10744359D01*
X11240138Y10746921D01*
X11234779Y10746497D01*
X11222396Y10742999D01*
X11220553Y10742407D01*
X11207385Y10738711D01*
X11190109Y10734653D01*
X11170579Y10730578D01*
X11150644Y10726826D01*
X11132157Y10723741D01*
X11116969Y10721664D01*
X11106930Y10720939D01*
X11105081Y10721052D01*
X11098178Y10723961D01*
X11096231Y10727439D01*
X11097309Y10730842D01*
X11101251Y10734680D01*
X11109120Y10739615D01*
X11121979Y10746310D01*
X11140892Y10755427D01*
X11141967Y10755934D01*
X11156168Y10763301D01*
X11168469Y10770835D01*
X11176261Y10776934D01*
X11176382Y10777061D01*
X11184599Y10785809D01*
X11140415Y10775067D01*
X11106863Y10767165D01*
X11080163Y10761500D01*
X11059700Y10758015D01*
X11044854Y10756655D01*
X11035009Y10757364D01*
X11029545Y10760084D01*
X11027847Y10764760D01*
X11027847Y10764800D01*
X11031001Y10769805D01*
X11039715Y10777999D01*
X11052864Y10788521D01*
X11069322Y10800510D01*
X11087964Y10813106D01*
X11105023Y10823851D01*
X11118138Y10832143D01*
X11126199Y10838268D01*
X11128798Y10842370D01*
X11125527Y10844595D01*
X11115978Y10845088D01*
X11099743Y10843996D01*
X11076414Y10841462D01*
X11060913Y10839570D01*
X11038072Y10836766D01*
X11021851Y10834968D01*
X11011121Y10834173D01*
X11004752Y10834378D01*
X11001613Y10835580D01*
X11000576Y10837775D01*
X11000493Y10839396D01*
X11003353Y10844112D01*
X11011176Y10852673D01*
X11022827Y10864038D01*
X11037169Y10877165D01*
X11053066Y10891012D01*
X11069382Y10904537D01*
X11083969Y10915938D01*
X11095241Y10925079D01*
X11100811Y10930986D01*
X11100554Y10933222D01*
X11094343Y10931353D01*
X11087439Y10927937D01*
X11069592Y10918486D01*
X11058353Y10913053D01*
X11053461Y10911924D01*
X11054657Y10915390D01*
X11061679Y10923736D01*
X11074266Y10937253D01*
X11076693Y10939822D01*
X11090552Y10954954D01*
X11103591Y10970000D01*
X11114124Y10982972D01*
X11119430Y10990242D01*
X11127158Y11000546D01*
X11138635Y11014201D01*
X11152033Y11029082D01*
X11160369Y11037854D01*
X11172075Y11050076D01*
X11181168Y11059936D01*
X11186632Y11066308D01*
X11187678Y11068139D01*
X11183204Y11066965D01*
X11173299Y11063854D01*
X11159920Y11059426D01*
X11156825Y11058378D01*
X11143150Y11053902D01*
X11132703Y11050814D01*
X11127344Y11049655D01*
X11127028Y11049716D01*
X11129201Y11052685D01*
X11136815Y11059337D01*
X11148862Y11068939D01*
X11164335Y11080759D01*
X11182226Y11094062D01*
X11201528Y11108116D01*
X11221234Y11122188D01*
X11240335Y11135545D01*
X11257826Y11147453D01*
X11272697Y11157180D01*
X11283943Y11163993D01*
X11284497Y11164303D01*
X11295523Y11170417D01*
X11284321Y11167935D01*
X11268195Y11164468D01*
X11258217Y11162745D01*
X11252929Y11162704D01*
X11250877Y11164281D01*
X11250585Y11166461D01*
X11253724Y11171173D01*
X11262500Y11179381D01*
X11275956Y11190390D01*
X11293130Y11203507D01*
X11313063Y11218037D01*
X11334796Y11233287D01*
X11357370Y11248562D01*
X11379825Y11263167D01*
X11401201Y11276410D01*
X11408847Y11280944D01*
X11422970Y11289378D01*
X11430843Y11294649D01*
X11433086Y11297316D01*
X11430319Y11297938D01*
X11427408Y11297677D01*
X11418814Y11297235D01*
X11414796Y11298208D01*
X11414754Y11298393D01*
X11417951Y11301223D01*
X11426323Y11306561D01*
X11438117Y11313295D01*
X11439177Y11313873D01*
X11450946Y11320468D01*
X11467623Y11330097D01*
X11487446Y11341727D01*
X11508648Y11354325D01*
X11521499Y11362042D01*
X11543029Y11374834D01*
X11564631Y11387335D01*
X11584426Y11398479D01*
X11600537Y11407203D01*
X11607469Y11410743D01*
X11635493Y11424502D01*
X11600323Y11419554D01*
X11614000Y11428801D01*
X11623323Y11434624D01*
X11638257Y11443389D01*
X11657503Y11454381D01*
X11679765Y11466887D01*
X11703745Y11480193D01*
X11728145Y11493583D01*
X11751669Y11506346D01*
X11773019Y11517765D01*
X11790897Y11527128D01*
X11804006Y11533720D01*
X11808179Y11535670D01*
X11822897Y11541410D01*
X11841756Y11547649D01*
X11861259Y11553251D01*
X11866047Y11554474D01*
X11882527Y11558684D01*
X11892778Y11561894D01*
X11898187Y11564856D01*
X11900142Y11568322D01*
X11900045Y11572910D01*
X11901651Y11581982D01*
X11908892Y11592076D01*
X11922260Y11603657D01*
X11942244Y11617189D01*
X11954894Y11624845D01*
X11968893Y11633101D01*
X11980110Y11639753D01*
X11987011Y11643891D01*
X11988433Y11644779D01*
X11987631Y11648372D01*
X11984525Y11654325D01*
X11981483Y11661253D01*
X11983942Y11665614D01*
X11986568Y11667405D01*
X11992598Y11671643D01*
X12003067Y11679471D01*
X12016295Y11689620D01*
X12025645Y11696915D01*
X12040631Y11708442D01*
X12054850Y11718956D01*
X12066239Y11726951D01*
X12070749Y11729849D01*
X12078887Y11735021D01*
X12080904Y11737926D01*
X12077492Y11740122D01*
X12075634Y11740832D01*
X12068824Y11744878D01*
X12068336Y11750527D01*
X12074197Y11759103D01*
X12076085Y11761232D01*
X12081559Y11766447D01*
X12091824Y11775533D01*
X12105614Y11787426D01*
X12121660Y11801060D01*
X12138696Y11815372D01*
X12155453Y11829296D01*
X12170665Y11841767D01*
X12183064Y11851722D01*
X12191382Y11858094D01*
X12191419Y11858121D01*
X12199865Y11865086D01*
X12201646Y11869341D01*
X12196469Y11871186D01*
X12184042Y11870921D01*
X12179358Y11870523D01*
X12165706Y11869595D01*
X12156625Y11870020D01*
X12152401Y11872176D01*
X12153319Y11876437D01*
X12159663Y11883179D01*
X12171720Y11892779D01*
X12189773Y11905613D01*
X12214108Y11922055D01*
X12222810Y11927837D01*
X12237365Y11937585D01*
X12246100Y11943898D01*
X12249751Y11947593D01*
X12249056Y11949486D01*
X12244751Y11950393D01*
X12243325Y11950548D01*
X12234020Y11953347D01*
X12231416Y11957864D01*
X12233995Y11963001D01*
X12240989Y11972273D01*
X12251281Y11984295D01*
X12261865Y11995716D01*
X12274682Y12009210D01*
X12285872Y12021217D01*
X12294080Y12030272D01*
X12297616Y12034440D01*
X12300675Y12039110D01*
X12298438Y12039539D01*
X12292705Y12037520D01*
X12283770Y12035636D01*
X12279727Y12038112D01*
X12281021Y12043438D01*
X12289004Y12052731D01*
X12303647Y12065966D01*
X12324922Y12083114D01*
X12339441Y12094205D01*
X12355582Y12106558D01*
X12365633Y12114990D01*
X12369884Y12120094D01*
X12368625Y12122465D01*
X12362143Y12122697D01*
X12352803Y12121664D01*
X12342186Y12120527D01*
X12336508Y12120972D01*
X12336061Y12123616D01*
X12341140Y12129077D01*
X12352037Y12137971D01*
X12365432Y12148192D01*
X12380452Y12159738D01*
X12395195Y12171428D01*
X12406996Y12181142D01*
X12409216Y12183049D01*
X12424847Y12196666D01*
X12406285Y12194602D01*
X12395501Y12193801D01*
X12388806Y12194069D01*
X12387723Y12194662D01*
X12390586Y12197719D01*
X12398526Y12204886D01*
X12410575Y12215322D01*
X12425764Y12228185D01*
X12440477Y12240447D01*
X12457559Y12254635D01*
X12472335Y12267005D01*
X12483840Y12276741D01*
X12491107Y12283025D01*
X12493231Y12285046D01*
X12489869Y12285209D01*
X12481755Y12284301D01*
X12481508Y12284265D01*
X12472565Y12284243D01*
X12469845Y12287872D01*
X12470086Y12290894D01*
X12471261Y12294016D01*
X12474153Y12298075D01*
X12479549Y12303908D01*
X12488231Y12312353D01*
X12500986Y12324247D01*
X12518597Y12340428D01*
X12522122Y12343657D01*
X12539648Y12359816D01*
X12551609Y12371310D01*
X12558245Y12378704D01*
X12559800Y12382564D01*
X12556515Y12383453D01*
X12548632Y12381937D01*
X12537193Y12378808D01*
X12529521Y12378015D01*
X12527967Y12381617D01*
X12532358Y12389367D01*
X12542525Y12401017D01*
X12558295Y12416322D01*
X12571358Y12428016D01*
X12588388Y12443145D01*
X12599821Y12453982D01*
X12606179Y12461097D01*
X12607981Y12465063D01*
X12606304Y12466388D01*
X12599871Y12469010D01*
X12599172Y12473974D01*
X12604429Y12481494D01*
X12615864Y12491784D01*
X12633701Y12505056D01*
X12658162Y12521524D01*
X12674995Y12532323D01*
X12697004Y12545959D01*
X12722251Y12561140D01*
X12747117Y12575710D01*
X12762392Y12584409D01*
X12778987Y12593801D01*
X12791789Y12601668D01*
X12801963Y12609262D01*
X12810670Y12617833D01*
X12819073Y12628634D01*
X12828336Y12642915D01*
X12839620Y12661929D01*
X12848220Y12676777D01*
X12858926Y12693671D01*
X12871511Y12711169D01*
X12883268Y12725511D01*
X12883370Y12725623D01*
X12893443Y12737149D01*
X12901711Y12747421D01*
X12906407Y12754242D01*
X12906441Y12754308D01*
X12908535Y12760174D01*
X12912225Y12772471D01*
X12917194Y12790052D01*
X12923120Y12811771D01*
X12929686Y12836482D01*
X12934374Y12854494D01*
X12956881Y12939729D01*
X12978920Y13019266D01*
X13000322Y13092520D01*
X13020921Y13158907D01*
X13030910Y13189475D01*
X13040113Y13216173D01*
X13049870Y13242437D01*
X13060550Y13269046D01*
X13072524Y13296779D01*
X13086163Y13326415D01*
X13101838Y13358731D01*
X13119917Y13394508D01*
X13140772Y13434523D01*
X13164774Y13479555D01*
X13192292Y13530383D01*
X13198466Y13541708D01*
X13225790Y13592405D01*
X13249308Y13637446D01*
X13269459Y13677738D01*
X13286683Y13714186D01*
X13301420Y13747696D01*
X13314110Y13779174D01*
X13315472Y13782743D01*
X13329400Y13820656D01*
X13341009Y13855310D01*
X13350835Y13888737D01*
X13359410Y13922970D01*
X13367267Y13960043D01*
X13374942Y14001989D01*
X13378372Y14022354D01*
X13383247Y14050718D01*
X13388592Y14079845D01*
X13394004Y14107653D01*
X13399076Y14132062D01*
X13403401Y14150992D01*
X13403702Y14152204D01*
X13416684Y14200832D01*
X13430507Y14246592D01*
X13444874Y14288747D01*
X13459490Y14326564D01*
X13474059Y14359307D01*
X13488283Y14386240D01*
X13501867Y14406629D01*
X13509820Y14415643D01*
X13525258Y14430708D01*
X13559252Y14430427D01*
X13588251Y14428012D01*
X13619587Y14421041D01*
X13654224Y14409220D01*
X13693120Y14392258D01*
X13706570Y14385724D01*
X13737850Y14368084D01*
X13766985Y14347027D01*
X13794568Y14321872D01*
X13821188Y14291939D01*
X13847436Y14256548D01*
X13873904Y14215019D01*
X13901182Y14166672D01*
X13907919Y14153971D01*
X13923397Y14123280D01*
X13936738Y14093913D01*
X13948362Y14064528D01*
X13958690Y14033784D01*
X13968143Y14000340D01*
X13977142Y13962855D01*
X13986109Y13919987D01*
X13993434Y13881499D01*
X14004974Y13820597D01*
X14015864Y13766812D01*
X14026249Y13719487D01*
X14036273Y13677964D01*
X14046081Y13641586D01*
X14047107Y13638030D01*
X14053961Y13615600D01*
X14061518Y13592822D01*
X14069279Y13571010D01*
X14076742Y13551477D01*
X14083405Y13535537D01*
X14088768Y13524506D01*
X14092212Y13519762D01*
X14097118Y13520792D01*
X14103142Y13527840D01*
X14109277Y13539402D01*
X14114076Y13552470D01*
X14120765Y13568064D01*
X14132945Y13588851D01*
X14150451Y13614632D01*
X14173122Y13645205D01*
X14200793Y13680370D01*
X14233302Y13719924D01*
X14270484Y13763666D01*
X14312176Y13811397D01*
X14358215Y13862914D01*
X14408438Y13918016D01*
X14430801Y13942247D01*
X14478245Y13994499D01*
X14519859Y14042561D01*
X14556053Y14086947D01*
X14587238Y14128170D01*
X14613825Y14166745D01*
X14627583Y14188571D01*
X14637536Y14205982D01*
X14649813Y14229051D01*
X14663678Y14256246D01*
X14678396Y14286033D01*
X14693232Y14316880D01*
X14707449Y14347253D01*
X14720312Y14375619D01*
X14731085Y14400446D01*
X14739034Y14420200D01*
X14740070Y14422995D01*
X14753882Y14460409D01*
X14765710Y14491160D01*
X14775963Y14516026D01*
X14785051Y14535782D01*
X14793382Y14551207D01*
X14801368Y14563077D01*
X14809416Y14572170D01*
X14817937Y14579261D01*
X14824761Y14583662D01*
X14835148Y14589104D01*
X14844627Y14591917D01*
X14856263Y14592682D01*
X14869674Y14592182D01*
G37*
X14869674Y14592182D02*
X14884691Y14591021D01*
X14894383Y14589034D01*
X14901240Y14585325D01*
X14907753Y14579000D01*
X14908422Y14578255D01*
X14918021Y14563285D01*
X14926864Y14540943D01*
X14934899Y14511638D01*
X14942074Y14475783D01*
X14948337Y14433788D01*
X14953636Y14386063D01*
X14957919Y14333020D01*
X14961135Y14275070D01*
X14963230Y14212623D01*
X14964154Y14146091D01*
X14964184Y14137631D01*
X14964194Y14097965D01*
X14963907Y14064581D01*
X14963168Y14035946D01*
X14961820Y14010528D01*
X14959709Y13986795D01*
X14956678Y13963215D01*
X14952572Y13938254D01*
X14947236Y13910382D01*
X14940513Y13878065D01*
X14935407Y13854323D01*
X14929595Y13827216D01*
X14922652Y13794387D01*
X14914981Y13757777D01*
X14906988Y13719327D01*
X14899078Y13680978D01*
X14891655Y13644671D01*
X14890628Y13639613D01*
X14881943Y13597173D01*
X14874400Y13561292D01*
X14867695Y13530848D01*
X14861526Y13504718D01*
X14855587Y13481781D01*
X14849576Y13460915D01*
X14843189Y13440998D01*
X14836122Y13420907D01*
X14828071Y13399522D01*
X14820248Y13379539D01*
X14809467Y13351933D01*
X14801525Y13330458D01*
X14796175Y13314063D01*
X14793169Y13301697D01*
X14792259Y13292312D01*
X14793198Y13284857D01*
X14795738Y13278282D01*
X14796173Y13277437D01*
X14802873Y13267439D01*
X14813871Y13254954D01*
X14829503Y13239685D01*
X14850109Y13221337D01*
X14876025Y13199614D01*
X14907589Y13174218D01*
X14945139Y13144854D01*
X14962893Y13131178D01*
X14992202Y13108589D01*
X15017379Y13088905D01*
X15039598Y13071110D01*
X15060032Y13054189D01*
X15079855Y13037125D01*
X15100240Y13018905D01*
X15122361Y12998512D01*
X15147391Y12974931D01*
X15176504Y12947147D01*
X15185006Y12938994D01*
X15202046Y12922906D01*
X15223608Y12902951D01*
X15248311Y12880387D01*
X15274774Y12856466D01*
X15301614Y12832446D01*
X15327451Y12809580D01*
X15327637Y12809416D01*
X15351646Y12788171D01*
X15375039Y12767212D01*
X15396807Y12747464D01*
X15415937Y12729854D01*
X15431418Y12715307D01*
X15442239Y12704747D01*
X15443946Y12702998D01*
X15456185Y12689948D01*
X15464093Y12680204D01*
X15468918Y12671596D01*
X15471908Y12661957D01*
X15474038Y12650748D01*
X15475800Y12637251D01*
X15477590Y12618270D01*
X15479220Y12596131D01*
X15480501Y12573161D01*
X15480698Y12568693D01*
X15482358Y12534300D01*
X15484371Y12506503D01*
X15487078Y12484081D01*
X15490816Y12465815D01*
X15495927Y12450484D01*
X15502749Y12436869D01*
X15511621Y12423750D01*
X15522884Y12409907D01*
X15525821Y12406523D01*
X15549357Y12381214D01*
X15574885Y12357026D01*
X15603202Y12333394D01*
X15635102Y12309751D01*
X15671380Y12285532D01*
X15712831Y12260169D01*
X15760251Y12233096D01*
X15798768Y12212103D01*
X15851880Y12183863D01*
X15899572Y12159083D01*
X15943112Y12137181D01*
X15983769Y12117573D01*
X16022811Y12099677D01*
X16061507Y12082910D01*
X16101124Y12066690D01*
X16142933Y12050433D01*
X16184047Y12035080D01*
X16219748Y12021782D01*
X16249601Y12010188D01*
X16275191Y11999585D01*
X16298101Y11989256D01*
X16319915Y11978486D01*
X16342215Y11966560D01*
X16366587Y11952763D01*
X16367708Y11952115D01*
X16399794Y11932933D01*
X16436540Y11909887D01*
X16476560Y11883924D01*
X16518470Y11855994D01*
X16560885Y11827042D01*
X16602421Y11798018D01*
X16641692Y11769869D01*
X16677316Y11743542D01*
X16707905Y11719985D01*
X16714290Y11714893D01*
X16743312Y11689912D01*
X16765610Y11666731D01*
X16781774Y11644396D01*
X16792394Y11621950D01*
X16798060Y11598439D01*
X16799422Y11577074D01*
X16798973Y11563489D01*
X16797366Y11551234D01*
X16794065Y11539456D01*
X16788538Y11527307D01*
X16780251Y11513935D01*
X16768670Y11498490D01*
X16753260Y11480121D01*
X16733489Y11457978D01*
X16708822Y11431211D01*
X16705876Y11428043D01*
X16672345Y11393080D01*
X16642084Y11363890D01*
X16614155Y11339660D01*
X16587624Y11319574D01*
X16562478Y11303365D01*
X16545786Y11292501D01*
X16525640Y11277845D01*
X16504200Y11261042D01*
X16483628Y11243734D01*
X16480775Y11241218D01*
X16463041Y11225638D01*
X16445619Y11210630D01*
X16430108Y11197554D01*
X16418109Y11187766D01*
X16414401Y11184887D01*
X16389809Y11169889D01*
X16357761Y11156439D01*
X16318207Y11144523D01*
X16271096Y11134124D01*
X16216377Y11125230D01*
X16198738Y11122887D01*
X16171753Y11119165D01*
X16140356Y11114357D01*
X16107780Y11108984D01*
X16077260Y11103569D01*
X16065876Y11101416D01*
X16034490Y11095479D01*
X16007304Y11090716D01*
X15982512Y11086918D01*
X15958307Y11083874D01*
X15932883Y11081373D01*
X15904433Y11079205D01*
X15871151Y11077159D01*
X15846093Y11075795D01*
X15821216Y11074411D01*
X15798988Y11073031D01*
X15780591Y11071740D01*
X15767204Y11070623D01*
X15760010Y11069766D01*
X15759156Y11069533D01*
X15760334Y11066282D01*
X15766552Y11059391D01*
X15776604Y11049914D01*
X15789283Y11038907D01*
X15803384Y11027428D01*
X15817699Y11016530D01*
X15827977Y11009290D01*
X15850918Y10996577D01*
X15879116Y10986034D01*
X15913628Y10977290D01*
X15926139Y10974819D01*
X15951879Y10969507D01*
X15971401Y10963802D01*
X15986272Y10956640D01*
X15998059Y10946956D01*
X16008331Y10933683D01*
X16018655Y10915757D01*
X16021708Y10909877D01*
X16040541Y10865069D01*
X16052828Y10816856D01*
X16058594Y10764987D01*
X16057865Y10709217D01*
X16050668Y10649295D01*
X16049440Y10642200D01*
X16045404Y10617494D01*
X16043243Y10597254D01*
X16043005Y10578866D01*
X16044739Y10559716D01*
X16048493Y10537192D01*
X16051673Y10521273D01*
X16056321Y10494293D01*
X16057533Y10473443D01*
X16055054Y10457711D01*
X16048627Y10446088D01*
X16037995Y10437563D01*
X16029381Y10433470D01*
X16005334Y10427819D01*
X15976462Y10428098D01*
X15942997Y10434276D01*
X15905169Y10446323D01*
X15892258Y10451381D01*
X15862284Y10463614D01*
X15798473Y10452284D01*
X15778642Y10448840D01*
X15761708Y10446173D01*
X15746195Y10444184D01*
X15730629Y10442774D01*
X15713535Y10441845D01*
X15693437Y10441299D01*
X15668861Y10441035D01*
X15638332Y10440957D01*
X15629154Y10440954D01*
X15586025Y10441194D01*
X15549269Y10442003D01*
X15517457Y10443512D01*
X15489160Y10445855D01*
X15462948Y10449164D01*
X15437390Y10453572D01*
X15411059Y10459212D01*
X15397559Y10462435D01*
X15329439Y10480732D01*
X15261631Y10501976D01*
X15195700Y10525577D01*
X15133213Y10550948D01*
X15075736Y10577497D01*
X15034835Y10598954D01*
X15011182Y10611898D01*
X14984501Y10626048D01*
X14955676Y10640975D01*
X14925588Y10656252D01*
X14895120Y10671452D01*
X14865154Y10686146D01*
X14836573Y10699908D01*
X14810258Y10712309D01*
X14787092Y10722921D01*
X14767958Y10731317D01*
X14753737Y10737070D01*
X14745312Y10739751D01*
X14744106Y10739893D01*
X14740821Y10738478D01*
X14737423Y10733542D01*
X14733474Y10724047D01*
X14728536Y10708953D01*
X14722706Y10689093D01*
X14716385Y10668778D01*
X14708213Y10645067D01*
X14699509Y10621707D01*
X14695154Y10610807D01*
X14687692Y10591615D01*
X14679030Y10567628D01*
X14670114Y10541567D01*
X14661894Y10516150D01*
X14659883Y10509640D01*
X14649899Y10477695D01*
X14640865Y10450958D01*
X14631902Y10427368D01*
X14622128Y10404863D01*
X14610664Y10381382D01*
X14596628Y10354863D01*
X14583884Y10331740D01*
X14571700Y10309614D01*
X14561961Y10290939D01*
X14554241Y10274291D01*
X14548114Y10258247D01*
X14543154Y10241383D01*
X14538935Y10222276D01*
X14535031Y10199502D01*
X14531017Y10171639D01*
X14527067Y10141881D01*
X14520403Y10093901D01*
X14513604Y10052224D01*
X14506248Y10015341D01*
X14497913Y9981744D01*
X14488176Y9949926D01*
X14476615Y9918379D01*
X14462807Y9885594D01*
X14446330Y9850065D01*
X14443905Y9845031D01*
X14429464Y9814895D01*
X14418171Y9790280D01*
X14409646Y9769736D01*
X14403508Y9751810D01*
X14399377Y9735052D01*
X14396872Y9718008D01*
X14395613Y9699229D01*
X14395219Y9677262D01*
X14395254Y9659416D01*
X14395972Y9618430D01*
X14397759Y9578872D01*
X14400779Y9538694D01*
X14405200Y9495849D01*
X14411187Y9448287D01*
X14414139Y9426908D01*
X14421567Y9371635D01*
X14427404Y9321464D01*
X14431618Y9275161D01*
X14434177Y9231494D01*
X14435050Y9189231D01*
X14434204Y9147138D01*
X14431608Y9103982D01*
X14427230Y9058531D01*
X14421037Y9009552D01*
X14412999Y8955812D01*
X14403082Y8896078D01*
X14399923Y8877877D01*
X14395114Y8850419D01*
X14391425Y8829707D01*
X14388621Y8814790D01*
X14386469Y8804718D01*
X14384734Y8798540D01*
X14383183Y8795305D01*
X14381581Y8794062D01*
X14379693Y8793861D01*
X14379233Y8793862D01*
X14374814Y8796679D01*
X14366582Y8804353D01*
X14355707Y8815718D01*
X14343358Y8829608D01*
X14343128Y8829875D01*
X14325638Y8849321D01*
X14309847Y8865108D01*
X14296579Y8876497D01*
X14286660Y8882753D01*
X14282840Y8883739D01*
X14280285Y8880316D01*
X14277071Y8871637D01*
X14275546Y8866154D01*
X14271386Y8854472D01*
X14265975Y8849298D01*
X14258653Y8850718D01*
X14248764Y8858817D01*
X14237828Y8871039D01*
X14223236Y8888052D01*
X14208426Y8904454D01*
X14194596Y8918998D01*
X14182942Y8930440D01*
X14174659Y8937532D01*
X14172806Y8938741D01*
X14168630Y8940187D01*
X14167437Y8937031D01*
X14168497Y8928293D01*
X14168512Y8916250D01*
X14164084Y8910124D01*
X14155721Y8910423D01*
X14152257Y8911980D01*
X14146216Y8916069D01*
X14135696Y8924064D01*
X14122177Y8934810D01*
X14107139Y8947155D01*
X14107108Y8947180D01*
X14090012Y8961008D01*
X14078145Y8969584D01*
X14071162Y8973131D01*
X14068761Y8972170D01*
X14069514Y8964048D01*
X14071692Y8958447D01*
X14074759Y8948793D01*
X14075847Y8938703D01*
X14074567Y8929861D01*
X14070045Y8926795D01*
X14068712Y8926723D01*
X14061933Y8928820D01*
X14053863Y8935642D01*
X14043721Y8947987D01*
X14033110Y8963088D01*
X14026234Y8972412D01*
X14016773Y8984095D01*
X14005921Y8996806D01*
X13994874Y9009212D01*
X13984824Y9019981D01*
X13976967Y9027778D01*
X13972498Y9031273D01*
X13971988Y9031276D01*
X13972559Y9027290D01*
X13975125Y9017790D01*
X13979168Y9004659D01*
X13980145Y9001649D01*
X13985562Y8982573D01*
X13987138Y8969896D01*
X13984882Y8963216D01*
X13981030Y8961893D01*
X13977104Y8964589D01*
X13968795Y8972059D01*
X13957069Y8983377D01*
X13942890Y8997617D01*
X13930633Y9010278D01*
X13908672Y9032851D01*
X13888632Y9052717D01*
X13871133Y9069311D01*
X13856794Y9082070D01*
X13846237Y9090428D01*
X13840082Y9093821D01*
X13838968Y9093640D01*
X13839293Y9089275D01*
X13842083Y9079744D01*
X13846741Y9067071D01*
X13846972Y9066493D01*
X13853929Y9046836D01*
X13856698Y9033203D01*
X13855257Y9025796D01*
X13852043Y9024416D01*
X13848218Y9027402D01*
X13840596Y9035702D01*
X13830005Y9048331D01*
X13817273Y9064302D01*
X13803661Y9082054D01*
X13786222Y9104887D01*
X13769411Y9126302D01*
X13753859Y9145551D01*
X13740196Y9161888D01*
X13729050Y9174569D01*
X13721054Y9182845D01*
X13716837Y9185972D01*
X13716339Y9185463D01*
X13717534Y9180390D01*
X13720701Y9169987D01*
X13725210Y9156296D01*
X13726309Y9153077D01*
X13732373Y9132449D01*
X13736060Y9113507D01*
X13737282Y9097600D01*
X13735954Y9086075D01*
X13731990Y9080281D01*
X13730993Y9079951D01*
X13725203Y9081375D01*
X13724154Y9085196D01*
X13722103Y9094037D01*
X13716576Y9106876D01*
X13708516Y9122216D01*
X13698865Y9138566D01*
X13688562Y9154431D01*
X13678552Y9168316D01*
X13669774Y9178729D01*
X13663170Y9184174D01*
X13661483Y9184631D01*
X13659618Y9180873D01*
X13659077Y9169977D01*
X13659889Y9152515D01*
X13659898Y9152393D01*
X13660827Y9136488D01*
X13660699Y9127535D01*
X13659454Y9124735D01*
X13657879Y9126016D01*
X13650657Y9137545D01*
X13642418Y9153422D01*
X13634629Y9170586D01*
X13628758Y9185975D01*
X13628039Y9188252D01*
X13623087Y9200648D01*
X13615260Y9216091D01*
X13606236Y9231274D01*
X13606074Y9231523D01*
X13589516Y9256923D01*
X13587076Y9222529D01*
X13585522Y9206587D01*
X13583464Y9193503D01*
X13581259Y9185339D01*
X13580412Y9183910D01*
X13573539Y9181216D01*
X13566822Y9184936D01*
X13562212Y9193878D01*
X13561900Y9195210D01*
X13558818Y9206479D01*
X13553965Y9220668D01*
X13548351Y9235167D01*
X13542986Y9247367D01*
X13538920Y9254608D01*
X13536184Y9256193D01*
X13534119Y9252029D01*
X13532277Y9241131D01*
X13532096Y9239698D01*
X13530281Y9227790D01*
X13528379Y9219407D01*
X13527380Y9217108D01*
X13521911Y9215921D01*
X13515708Y9221984D01*
X13509151Y9234812D01*
X13505334Y9245169D01*
X13500900Y9257721D01*
X13497314Y9266467D01*
X13495299Y9269659D01*
X13495224Y9269619D01*
X13494526Y9265318D01*
X13493890Y9255024D01*
X13493412Y9240560D01*
X13493260Y9232246D01*
X13492796Y9216592D01*
X13491950Y9204408D01*
X13490869Y9197417D01*
X13490258Y9196406D01*
X13487024Y9199461D01*
X13480940Y9207428D01*
X13473310Y9218599D01*
X13473129Y9218876D01*
X13458519Y9241293D01*
X13458475Y9219143D01*
X13458048Y9205782D01*
X13456996Y9195040D01*
X13456059Y9190812D01*
X13451014Y9185152D01*
X13444009Y9185764D01*
X13436905Y9192102D01*
X13433858Y9197331D01*
X13429201Y9208116D01*
X13422426Y9224870D01*
X13414059Y9246206D01*
X13404624Y9270738D01*
X13394645Y9297078D01*
X13384649Y9323840D01*
X13375158Y9349638D01*
X13366698Y9373085D01*
X13359793Y9392795D01*
X13358821Y9395647D01*
X13342255Y9444493D01*
X13339879Y9411277D01*
X13339002Y9396253D01*
X13338062Y9375465D01*
X13337138Y9350963D01*
X13336308Y9324796D01*
X13335776Y9304473D01*
X13335150Y9281324D01*
X13334444Y9260984D01*
X13333712Y9244695D01*
X13333012Y9233700D01*
X13332400Y9229239D01*
X13332383Y9229219D01*
X13330635Y9232123D01*
X13326907Y9241224D01*
X13321663Y9255299D01*
X13315367Y9273123D01*
X13311667Y9283954D01*
X13304935Y9303319D01*
X13298909Y9319608D01*
X13294073Y9331589D01*
X13290910Y9338035D01*
X13290069Y9338780D01*
X13288126Y9334313D01*
X13286003Y9324676D01*
X13284974Y9317993D01*
X13281671Y9303714D01*
X13276618Y9294270D01*
X13270608Y9290846D01*
X13267410Y9291811D01*
X13263369Y9297725D01*
X13258765Y9310203D01*
X13254023Y9328057D01*
X13253380Y9330885D01*
X13250827Y9342323D01*
X13239612Y9323069D01*
X13230159Y9308602D01*
X13218624Y9293280D01*
X13212672Y9286231D01*
X13196949Y9268647D01*
X13196722Y9299908D01*
X13196495Y9331170D01*
X13182502Y9306479D01*
X13171902Y9289680D01*
X13163373Y9280365D01*
X13156874Y9278493D01*
X13154877Y9279775D01*
X13154674Y9284312D01*
X13155895Y9294849D01*
X13158310Y9309745D01*
X13161194Y9324918D01*
X13164618Y9343406D01*
X13167153Y9360084D01*
X13168512Y9372858D01*
X13168571Y9378761D01*
X13167308Y9389785D01*
X13159220Y9376108D01*
X13152198Y9365899D01*
X13142372Y9353697D01*
X13131124Y9340974D01*
X13119838Y9329201D01*
X13109897Y9319851D01*
X13102684Y9314395D01*
X13100456Y9313585D01*
X13096179Y9316396D01*
X13095626Y9325055D01*
X13098831Y9339897D01*
X13104850Y9358523D01*
X13109541Y9372155D01*
X13112982Y9382850D01*
X13114513Y9388541D01*
X13114537Y9388808D01*
X13112959Y9391580D01*
X13107777Y9389737D01*
X13098407Y9382928D01*
X13084264Y9370805D01*
X13083802Y9370393D01*
X13067841Y9356536D01*
X13056503Y9347765D01*
X13048923Y9343600D01*
X13044237Y9343561D01*
X13041659Y9346963D01*
X13041486Y9353045D01*
X13042768Y9365087D01*
X13045277Y9381417D01*
X13048784Y9400363D01*
X13049278Y9402816D01*
X13054862Y9430608D01*
X13058900Y9451522D01*
X13061517Y9466315D01*
X13062839Y9475745D01*
X13062992Y9480566D01*
X13062382Y9481616D01*
X13059696Y9478529D01*
X13053954Y9470265D01*
X13046176Y9458317D01*
X13042064Y9451788D01*
X13030687Y9434496D01*
X13017771Y9416319D01*
X13005866Y9400823D01*
X13004394Y9399034D01*
X12991198Y9384535D01*
X12981566Y9376974D01*
X12975553Y9376327D01*
X12973211Y9382568D01*
X12974596Y9395671D01*
X12978480Y9411277D01*
X12990853Y9456483D01*
X13000345Y9495967D01*
X13006837Y9529199D01*
X13009400Y9547287D01*
X13013387Y9570736D01*
X13019680Y9595204D01*
X13024649Y9609813D01*
X13029806Y9623674D01*
X13033393Y9634451D01*
X13034823Y9640339D01*
X13034740Y9640887D01*
X13031538Y9639083D01*
X13025177Y9631880D01*
X13016558Y9620555D01*
X13006580Y9606387D01*
X12996143Y9590655D01*
X12986148Y9574639D01*
X12977494Y9559616D01*
X12977325Y9559306D01*
X12954849Y9521351D01*
X12932063Y9489469D01*
X12912721Y9467612D01*
X12903971Y9459501D01*
X12898445Y9456556D01*
X12894338Y9457961D01*
X12893344Y9458874D01*
X12891270Y9462271D01*
X12890593Y9467903D01*
X12891431Y9477135D01*
X12893902Y9491332D01*
X12897736Y9510042D01*
X12901528Y9528356D01*
X12904626Y9544105D01*
X12906707Y9555583D01*
X12907447Y9561036D01*
X12904849Y9559997D01*
X12897599Y9554114D01*
X12886515Y9544128D01*
X12872412Y9530778D01*
X12856106Y9514805D01*
X12852490Y9511198D01*
X12833636Y9492485D01*
X12819685Y9479028D01*
X12810153Y9470420D01*
X12804557Y9466255D01*
X12802413Y9466127D01*
X12803237Y9469628D01*
X12803349Y9469893D01*
X12807455Y9479426D01*
X12813693Y9493764D01*
X12821039Y9510559D01*
X12825212Y9520062D01*
X12833256Y9539881D01*
X12839414Y9558086D01*
X12843387Y9573423D01*
X12844873Y9584639D01*
X12843573Y9590480D01*
X12842214Y9591031D01*
X12837334Y9588882D01*
X12828222Y9583255D01*
X12817260Y9575662D01*
X12790084Y9556126D01*
X12768493Y9541040D01*
X12751912Y9530046D01*
X12739768Y9522783D01*
X12731488Y9518890D01*
X12726496Y9518008D01*
X12725735Y9518200D01*
X12723244Y9520449D01*
X12724256Y9524912D01*
X12729361Y9532823D01*
X12738166Y9544188D01*
X12748180Y9557250D01*
X12758335Y9571409D01*
X12767658Y9585187D01*
X12775180Y9597102D01*
X12779928Y9605676D01*
X12780966Y9609399D01*
X12777451Y9607864D01*
X12768825Y9602823D01*
X12756475Y9595113D01*
X12744966Y9587665D01*
X12726782Y9576090D01*
X12707394Y9564326D01*
X12689897Y9554230D01*
X12683142Y9550556D01*
X12666609Y9542201D01*
X12654765Y9537328D01*
X12647608Y9536332D01*
X12645135Y9539610D01*
X12647343Y9547556D01*
X12654229Y9560567D01*
X12665792Y9579037D01*
X12682027Y9603363D01*
X12682768Y9604454D01*
X12695929Y9623989D01*
X12707623Y9641618D01*
X12717107Y9656202D01*
X12723642Y9666602D01*
X12726475Y9671647D01*
X12724863Y9673288D01*
X12717106Y9670824D01*
X12703044Y9664196D01*
X12692173Y9658546D01*
X12670096Y9647229D01*
X12646604Y9635903D01*
X12622804Y9625026D01*
X12599806Y9615056D01*
X12578716Y9606452D01*
X12560643Y9599671D01*
X12546695Y9595173D01*
X12537981Y9593415D01*
X12535733Y9593858D01*
X12533332Y9597689D01*
X12534448Y9602012D01*
X12539912Y9607722D01*
X12550550Y9615717D01*
X12564828Y9625340D01*
X12577515Y9634322D01*
X12591722Y9645373D01*
X12606257Y9657434D01*
X12619930Y9669443D01*
X12631549Y9680340D01*
X12639924Y9689064D01*
X12643865Y9694556D01*
X12643854Y9695711D01*
X12639615Y9695290D01*
X12629499Y9692704D01*
X12615005Y9688375D01*
X12597631Y9682726D01*
X12597003Y9682514D01*
X12577402Y9676079D01*
X12563838Y9672164D01*
X12555039Y9670516D01*
X12549736Y9670878D01*
X12547094Y9672508D01*
X12545093Y9676558D01*
X12547624Y9681649D01*
X12555569Y9689425D01*
X12556731Y9690444D01*
X12565163Y9698159D01*
X12570460Y9703695D01*
X12571385Y9705183D01*
X12567891Y9705002D01*
X12558436Y9702989D01*
X12544565Y9699502D01*
X12531627Y9695977D01*
X12514681Y9691351D01*
X12500269Y9687661D01*
X12490217Y9685359D01*
X12486689Y9684816D01*
X12481939Y9686813D01*
X12482781Y9692950D01*
X12489339Y9703444D01*
X12501740Y9718513D01*
X12513747Y9731669D01*
X12527138Y9746650D01*
X12540170Y9762480D01*
X12551971Y9777941D01*
X12561665Y9791813D01*
X12568382Y9802876D01*
X12571248Y9809913D01*
X12570951Y9811553D01*
X12567092Y9810467D01*
X12557590Y9806457D01*
X12543778Y9800121D01*
X12526991Y9792056D01*
X12522824Y9790006D01*
X12499796Y9779031D01*
X12473799Y9767271D01*
X12448397Y9756308D01*
X12431329Y9749346D01*
X12405616Y9739792D01*
X12386513Y9733882D01*
X12374089Y9731567D01*
X12368415Y9732799D01*
X12369561Y9737529D01*
X12377596Y9745707D01*
X12392592Y9757284D01*
X12406420Y9766819D01*
X12424313Y9779194D01*
X12441133Y9791606D01*
X12455813Y9803180D01*
X12467289Y9813038D01*
X12474493Y9820307D01*
X12476360Y9824110D01*
X12476283Y9824205D01*
X12472503Y9823030D01*
X12463811Y9818585D01*
X12451912Y9811759D01*
X12448886Y9809937D01*
X12435891Y9802389D01*
X12419481Y9793368D01*
X12401042Y9783577D01*
X12381960Y9773717D01*
X12363621Y9764493D01*
X12347409Y9756606D01*
X12334712Y9750759D01*
X12326914Y9747656D01*
X12325439Y9747339D01*
X12321084Y9749423D01*
X12322653Y9755143D01*
X12329637Y9763698D01*
X12341526Y9774289D01*
X12343762Y9776051D01*
X12358477Y9788229D01*
X12373706Y9802005D01*
X12383816Y9811998D01*
X12401400Y9830499D01*
X12383816Y9819837D01*
X12370899Y9812523D01*
X12354118Y9803754D01*
X12335121Y9794308D01*
X12315554Y9784965D01*
X12297066Y9776501D01*
X12281303Y9769695D01*
X12269912Y9765325D01*
X12266135Y9764247D01*
X12257401Y9763977D01*
X12254890Y9767436D01*
X12258414Y9773880D01*
X12267785Y9782570D01*
X12271470Y9785331D01*
X12283575Y9794695D01*
X12297644Y9806556D01*
X12312184Y9819533D01*
X12325703Y9832248D01*
X12336708Y9843319D01*
X12343706Y9851365D01*
X12345004Y9853341D01*
X12345209Y9856069D01*
X12340448Y9854756D01*
X12330162Y9849187D01*
X12323309Y9845069D01*
X12305364Y9834566D01*
X12285143Y9823510D01*
X12264018Y9812568D01*
X12243362Y9802403D01*
X12224548Y9793679D01*
X12208948Y9787061D01*
X12197934Y9783212D01*
X12194027Y9782508D01*
X12187511Y9783330D01*
X12185833Y9786120D01*
X12189393Y9791369D01*
X12198592Y9799566D01*
X12213831Y9811201D01*
X12222891Y9817778D01*
X12238788Y9829453D01*
X12253557Y9840746D01*
X12265272Y9850159D01*
X12270841Y9855033D01*
X12281414Y9865818D01*
X12291268Y9877134D01*
X12299175Y9887401D01*
X12303906Y9895039D01*
X12304486Y9898310D01*
X12300208Y9897741D01*
X12291609Y9893958D01*
X12285453Y9890601D01*
X12270024Y9882484D01*
X12251110Y9873832D01*
X12230005Y9865095D01*
X12208001Y9856719D01*
X12186392Y9849154D01*
X12166471Y9842848D01*
X12149530Y9838248D01*
X12136864Y9835803D01*
X12129765Y9835961D01*
X12129067Y9836401D01*
X12126862Y9840018D01*
X12128009Y9844199D01*
X12133325Y9849770D01*
X12143625Y9857555D01*
X12159726Y9868380D01*
X12162414Y9870135D01*
X12180060Y9882038D01*
X12194278Y9892399D01*
X12204565Y9900726D01*
X12210419Y9906524D01*
X12211336Y9909302D01*
X12206814Y9908566D01*
X12197223Y9904264D01*
X12180219Y9896802D01*
X12160385Y9889709D01*
X12140506Y9883846D01*
X12123369Y9880076D01*
X12116243Y9879214D01*
X12105166Y9879555D01*
X12100280Y9882562D01*
X12101700Y9888554D01*
X12109544Y9897848D01*
X12123930Y9910765D01*
X12129535Y9915391D01*
X12142750Y9926401D01*
X12153553Y9935882D01*
X12160562Y9942594D01*
X12162462Y9944955D01*
X12159873Y9945908D01*
X12151377Y9944725D01*
X12138512Y9941653D01*
X12133633Y9940285D01*
X12110628Y9933963D01*
X12089894Y9928908D01*
X12072675Y9925370D01*
X12060214Y9923600D01*
X12053756Y9923847D01*
X12053333Y9924119D01*
X12052127Y9927581D01*
X12055364Y9931983D01*
X12063794Y9937886D01*
X12078170Y9945846D01*
X12091992Y9952851D01*
X12112565Y9963277D01*
X12126446Y9970956D01*
X12133497Y9976025D01*
X12133581Y9978623D01*
X12126561Y9978886D01*
X12112299Y9976951D01*
X12090658Y9972955D01*
X12075007Y9969815D01*
X12050997Y9965065D01*
X12026563Y9960490D01*
X12002944Y9956294D01*
X11981381Y9952680D01*
X11963114Y9949854D01*
X11949384Y9948020D01*
X11941429Y9947380D01*
X11939983Y9947593D01*
X11942761Y9949770D01*
X11951167Y9954896D01*
X11963940Y9962230D01*
X11979819Y9971033D01*
X11981705Y9972061D01*
X11997605Y9980943D01*
X12010270Y9988458D01*
X12018527Y9993875D01*
X12021202Y9996463D01*
X12021079Y9996554D01*
X12015970Y9996059D01*
X12005321Y9993740D01*
X11991070Y9990040D01*
X11984804Y9988275D01*
X11963866Y9982657D01*
X11943180Y9977827D01*
X11924219Y9974051D01*
X11908459Y9971596D01*
X11897372Y9970728D01*
X11892540Y9971589D01*
X11891494Y9975968D01*
X11895617Y9982474D01*
X11905380Y9991583D01*
X11921254Y10003768D01*
X11932216Y10011573D01*
X11947329Y10022375D01*
X11960793Y10032418D01*
X11970812Y10040340D01*
X11974733Y10043811D01*
X11979041Y10048828D01*
X11979051Y10051537D01*
X11973968Y10051995D01*
X11962994Y10050263D01*
X11945332Y10046398D01*
X11943947Y10046077D01*
X11925522Y10042735D01*
X11908731Y10041365D01*
X11895245Y10041949D01*
X11886735Y10044468D01*
X11884767Y10046711D01*
X11886253Y10050032D01*
X11892923Y10054410D01*
X11905272Y10060055D01*
X11923797Y10067176D01*
X11948996Y10075983D01*
X11972469Y10083787D01*
X11995075Y10091499D01*
X12010382Y10097461D01*
X12018674Y10101800D01*
X12020241Y10104642D01*
X12020135Y10104760D01*
X12014477Y10106458D01*
X12002309Y10107627D01*
X11984918Y10108288D01*
X11963588Y10108463D01*
X11939608Y10108174D01*
X11914262Y10107443D01*
X11888836Y10106291D01*
X11864617Y10104741D01*
X11842891Y10102814D01*
X11832194Y10101566D01*
X11808155Y10098499D01*
X11790784Y10096515D01*
X11779009Y10095601D01*
X11771760Y10095748D01*
X11767964Y10096947D01*
X11766550Y10099187D01*
X11766400Y10100952D01*
X11769848Y10105172D01*
X11779604Y10111899D01*
X11794784Y10120578D01*
X11810362Y10128613D01*
X11833349Y10140406D01*
X11853833Y10151634D01*
X11870816Y10161691D01*
X11883302Y10169970D01*
X11890294Y10175865D01*
X11891439Y10177942D01*
X11888266Y10178078D01*
X11880137Y10175463D01*
X11873638Y10172776D01*
X11851353Y10164550D01*
X11823049Y10156619D01*
X11790525Y10149321D01*
X11755578Y10142990D01*
X11720004Y10137964D01*
X11685602Y10134578D01*
X11662847Y10133353D01*
X11645588Y10133047D01*
X11634831Y10133553D01*
X11629290Y10135031D01*
X11627678Y10137641D01*
X11627677Y10137735D01*
X11631114Y10142069D01*
X11640049Y10147088D01*
X11647216Y10149901D01*
X11663290Y10155999D01*
X11683960Y10164706D01*
X11707106Y10175041D01*
X11730610Y10186022D01*
X11752350Y10196667D01*
X11770207Y10205996D01*
X11778123Y10210520D01*
X11793320Y10220673D01*
X11806128Y10231040D01*
X11815345Y10240461D01*
X11819772Y10247771D01*
X11819604Y10250703D01*
X11814209Y10252599D01*
X11803467Y10251475D01*
X11802569Y10251282D01*
X11794079Y10249803D01*
X11779346Y10247640D01*
X11759893Y10244984D01*
X11737243Y10242031D01*
X11712919Y10238974D01*
X11688444Y10236007D01*
X11665341Y10233323D01*
X11645133Y10231116D01*
X11639187Y10230508D01*
X11624909Y10230077D01*
X11614921Y10231730D01*
X11610413Y10235082D01*
X11612079Y10239284D01*
X11617248Y10241996D01*
X11628137Y10246304D01*
X11642985Y10251544D01*
X11655031Y10255487D01*
X11675325Y10262522D01*
X11695782Y10270652D01*
X11715085Y10279233D01*
X11731914Y10287618D01*
X11744951Y10295162D01*
X11752876Y10301219D01*
X11754677Y10304277D01*
X11753534Y10306920D01*
X11749340Y10309118D01*
X11740946Y10311138D01*
X11727206Y10313245D01*
X11706971Y10315706D01*
X11703877Y10316057D01*
X11679694Y10319579D01*
X11663210Y10323880D01*
X11654336Y10329075D01*
X11652984Y10335278D01*
X11659064Y10342604D01*
X11672490Y10351167D01*
X11675547Y10352781D01*
X11687370Y10359436D01*
X11691883Y10363356D01*
X11689118Y10364454D01*
X11679104Y10362645D01*
X11672616Y10360963D01*
X11665687Y10359408D01*
X11652940Y10356854D01*
X11635881Y10353578D01*
X11616015Y10349853D01*
X11594848Y10345955D01*
X11573886Y10342159D01*
X11554634Y10338739D01*
X11538597Y10335972D01*
X11527282Y10334132D01*
X11522254Y10333493D01*
X11520460Y10336693D01*
X11520216Y10339570D01*
X11523719Y10344618D01*
X11533299Y10350963D01*
X11542685Y10355560D01*
X11571263Y10368508D01*
X11598089Y10381309D01*
X11622131Y10393422D01*
X11642356Y10404304D01*
X11657730Y10413414D01*
X11667221Y10420210D01*
X11668708Y10421651D01*
X11674241Y10428411D01*
X11674204Y10430588D01*
X11671645Y10429982D01*
X11665686Y10428372D01*
X11653497Y10425463D01*
X11636492Y10421579D01*
X11616086Y10417045D01*
X11599353Y10413403D01*
X11567058Y10406864D01*
X11539485Y10402159D01*
X11517225Y10399349D01*
X11500867Y10398495D01*
X11491001Y10399659D01*
X11488220Y10401877D01*
X11490852Y10405402D01*
X11498782Y10412693D01*
X11511001Y10422901D01*
X11526501Y10435176D01*
X11539647Y10445209D01*
X11562650Y10462721D01*
X11579303Y10476033D01*
X11589672Y10485401D01*
X11593829Y10491080D01*
X11591840Y10493328D01*
X11583775Y10492400D01*
X11569703Y10488553D01*
X11549693Y10482042D01*
X11549523Y10481985D01*
X11525902Y10474785D01*
X11508150Y10471042D01*
X11496510Y10470698D01*
X11491225Y10473692D01*
X11492536Y10479966D01*
X11500686Y10489459D01*
X11504618Y10493028D01*
X11517244Y10504026D01*
X11530256Y10515369D01*
X11535303Y10519773D01*
X11543156Y10527272D01*
X11547363Y10532588D01*
X11547556Y10533943D01*
X11543199Y10533941D01*
X11532687Y10532654D01*
X11517537Y10530301D01*
X11499265Y10527099D01*
X11496770Y10526638D01*
X11474985Y10522813D01*
X11452979Y10519337D01*
X11433489Y10516622D01*
X11420570Y10515186D01*
X11393216Y10512823D01*
X11446460Y10536714D01*
X11473804Y10549486D01*
X11494423Y10560224D01*
X11508136Y10568819D01*
X11514762Y10575159D01*
X11514719Y10578662D01*
X11510103Y10580304D01*
X11499850Y10582704D01*
X11486039Y10585384D01*
X11483810Y10585776D01*
X11460584Y10590668D01*
X11442778Y10596208D01*
X11431158Y10602090D01*
X11426488Y10608007D01*
X11426431Y10608711D01*
X11429647Y10613743D01*
X11437902Y10620212D01*
X11444993Y10624359D01*
X11455577Y10630225D01*
X11459262Y10633259D01*
X11455942Y10633479D01*
X11445510Y10630900D01*
X11430968Y10626519D01*
X11412923Y10621311D01*
X11401025Y10619141D01*
X11394223Y10620000D01*
X11391467Y10623880D01*
X11391262Y10626197D01*
X11395055Y10633279D01*
X11406359Y10641975D01*
X11412432Y10645587D01*
X11425499Y10653131D01*
X11433850Y10658657D01*
X11437018Y10662352D01*
X11434533Y10664403D01*
X11425929Y10665000D01*
X11410738Y10664330D01*
X11388490Y10662582D01*
X11373446Y10661262D01*
X11351322Y10659501D01*
X11335863Y10658818D01*
X11325992Y10659215D01*
X11320635Y10660698D01*
X11319674Y10661425D01*
X11317598Y10665354D01*
X11320366Y10668991D01*
X11328805Y10672784D01*
X11343742Y10677181D01*
X11353242Y10679583D01*
X11366149Y10682958D01*
X11375209Y10685739D01*
X11378620Y10687367D01*
X11378587Y10687439D01*
X11374413Y10687462D01*
X11364261Y10686449D01*
X11349876Y10684592D01*
X11339987Y10683160D01*
X11310501Y10679284D01*
X11287029Y10677325D01*
X11269801Y10677180D01*
X11259051Y10678747D01*
X11255010Y10681922D01*
X11257910Y10686602D01*
X11267984Y10692685D01*
X11285463Y10700067D01*
X11294537Y10703346D01*
X11308047Y10708365D01*
X11317380Y10712462D01*
X11321223Y10715024D01*
X11320751Y10715526D01*
X11315328Y10715107D01*
X11303502Y10713314D01*
X11286522Y10710366D01*
X11265635Y10706481D01*
X11242090Y10701878D01*
X11237184Y10700893D01*
X11212955Y10696097D01*
X11190850Y10691892D01*
X11172195Y10688516D01*
X11158315Y10686209D01*
X11150536Y10685208D01*
X11149912Y10685185D01*
X11142907Y10686207D01*
X11142300Y10689376D01*
X11148286Y10694848D01*
X11161062Y10702776D01*
X11180824Y10713316D01*
X11193474Y10719658D01*
X11215142Y10730638D01*
X11230213Y10738901D01*
X11238580Y10744359D01*
X11240138Y10746921D01*
X11234779Y10746497D01*
X11222396Y10742999D01*
X11220553Y10742407D01*
X11207385Y10738711D01*
X11190109Y10734653D01*
X11170579Y10730578D01*
X11150644Y10726826D01*
X11132157Y10723741D01*
X11116969Y10721664D01*
X11106930Y10720939D01*
X11105081Y10721052D01*
X11098178Y10723961D01*
X11096231Y10727439D01*
X11097309Y10730842D01*
X11101251Y10734680D01*
X11109120Y10739615D01*
X11121979Y10746310D01*
X11140892Y10755427D01*
X11141967Y10755934D01*
X11156168Y10763301D01*
X11168469Y10770835D01*
X11176261Y10776934D01*
X11176382Y10777061D01*
X11184599Y10785809D01*
X11140415Y10775067D01*
X11106863Y10767165D01*
X11080163Y10761500D01*
X11059700Y10758015D01*
X11044854Y10756655D01*
X11035009Y10757364D01*
X11029545Y10760084D01*
X11027847Y10764760D01*
X11027847Y10764800D01*
X11031001Y10769805D01*
X11039715Y10777999D01*
X11052864Y10788521D01*
X11069322Y10800510D01*
X11087964Y10813106D01*
X11105023Y10823851D01*
X11118138Y10832143D01*
X11126199Y10838268D01*
X11128798Y10842370D01*
X11125527Y10844595D01*
X11115978Y10845088D01*
X11099743Y10843996D01*
X11076414Y10841462D01*
X11060913Y10839570D01*
X11038072Y10836766D01*
X11021851Y10834968D01*
X11011121Y10834173D01*
X11004752Y10834378D01*
X11001613Y10835580D01*
X11000576Y10837775D01*
X11000493Y10839396D01*
X11003353Y10844112D01*
X11011176Y10852673D01*
X11022827Y10864038D01*
X11037169Y10877165D01*
X11053066Y10891012D01*
X11069382Y10904537D01*
X11083969Y10915938D01*
X11095241Y10925079D01*
X11100811Y10930986D01*
X11100554Y10933222D01*
X11094343Y10931353D01*
X11087439Y10927937D01*
X11069592Y10918486D01*
X11058353Y10913053D01*
X11053461Y10911924D01*
X11054657Y10915390D01*
X11061679Y10923736D01*
X11074266Y10937253D01*
X11076693Y10939822D01*
X11090552Y10954954D01*
X11103591Y10970000D01*
X11114124Y10982972D01*
X11119430Y10990242D01*
X11127158Y11000546D01*
X11138635Y11014201D01*
X11152033Y11029082D01*
X11160369Y11037854D01*
X11172075Y11050076D01*
X11181168Y11059936D01*
X11186632Y11066308D01*
X11187678Y11068139D01*
X11183204Y11066965D01*
X11173299Y11063854D01*
X11159920Y11059426D01*
X11156825Y11058378D01*
X11143150Y11053902D01*
X11132703Y11050814D01*
X11127344Y11049655D01*
X11127028Y11049716D01*
X11129201Y11052685D01*
X11136815Y11059337D01*
X11148862Y11068939D01*
X11164335Y11080759D01*
X11182226Y11094062D01*
X11201528Y11108116D01*
X11221234Y11122188D01*
X11240335Y11135545D01*
X11257826Y11147453D01*
X11272697Y11157180D01*
X11283943Y11163993D01*
X11284497Y11164303D01*
X11295523Y11170417D01*
X11284321Y11167935D01*
X11268195Y11164468D01*
X11258217Y11162745D01*
X11252929Y11162704D01*
X11250877Y11164281D01*
X11250585Y11166461D01*
X11253724Y11171173D01*
X11262500Y11179381D01*
X11275956Y11190390D01*
X11293130Y11203507D01*
X11313063Y11218037D01*
X11334796Y11233287D01*
X11357370Y11248562D01*
X11379825Y11263167D01*
X11401201Y11276410D01*
X11408847Y11280944D01*
X11422970Y11289378D01*
X11430843Y11294649D01*
X11433086Y11297316D01*
X11430319Y11297938D01*
X11427408Y11297677D01*
X11418814Y11297235D01*
X11414796Y11298208D01*
X11414754Y11298393D01*
X11417951Y11301223D01*
X11426323Y11306561D01*
X11438117Y11313295D01*
X11439177Y11313873D01*
X11450946Y11320468D01*
X11467623Y11330097D01*
X11487446Y11341727D01*
X11508648Y11354325D01*
X11521499Y11362042D01*
X11543029Y11374834D01*
X11564631Y11387335D01*
X11584426Y11398479D01*
X11600537Y11407203D01*
X11607469Y11410743D01*
X11635493Y11424502D01*
X11600323Y11419554D01*
X11614000Y11428801D01*
X11623323Y11434624D01*
X11638257Y11443389D01*
X11657503Y11454381D01*
X11679765Y11466887D01*
X11703745Y11480193D01*
X11728145Y11493583D01*
X11751669Y11506346D01*
X11773019Y11517765D01*
X11790897Y11527128D01*
X11804006Y11533720D01*
X11808179Y11535670D01*
X11822897Y11541410D01*
X11841756Y11547649D01*
X11861259Y11553251D01*
X11866047Y11554474D01*
X11882527Y11558684D01*
X11892778Y11561894D01*
X11898187Y11564856D01*
X11900142Y11568322D01*
X11900045Y11572910D01*
X11901651Y11581982D01*
X11908892Y11592076D01*
X11922260Y11603657D01*
X11942244Y11617189D01*
X11954894Y11624845D01*
X11968893Y11633101D01*
X11980110Y11639753D01*
X11987011Y11643891D01*
X11988433Y11644779D01*
X11987631Y11648372D01*
X11984525Y11654325D01*
X11981483Y11661253D01*
X11983942Y11665614D01*
X11986568Y11667405D01*
X11992598Y11671643D01*
X12003067Y11679471D01*
X12016295Y11689620D01*
X12025645Y11696915D01*
X12040631Y11708442D01*
X12054850Y11718956D01*
X12066239Y11726951D01*
X12070749Y11729849D01*
X12078887Y11735021D01*
X12080904Y11737926D01*
X12077492Y11740122D01*
X12075634Y11740832D01*
X12068824Y11744878D01*
X12068336Y11750527D01*
X12074197Y11759103D01*
X12076085Y11761232D01*
X12081559Y11766447D01*
X12091824Y11775533D01*
X12105614Y11787426D01*
X12121660Y11801060D01*
X12138696Y11815372D01*
X12155453Y11829296D01*
X12170665Y11841767D01*
X12183064Y11851722D01*
X12191382Y11858094D01*
X12191419Y11858121D01*
X12199865Y11865086D01*
X12201646Y11869341D01*
X12196469Y11871186D01*
X12184042Y11870921D01*
X12179358Y11870523D01*
X12165706Y11869595D01*
X12156625Y11870020D01*
X12152401Y11872176D01*
X12153319Y11876437D01*
X12159663Y11883179D01*
X12171720Y11892779D01*
X12189773Y11905613D01*
X12214108Y11922055D01*
X12222810Y11927837D01*
X12237365Y11937585D01*
X12246100Y11943898D01*
X12249751Y11947593D01*
X12249056Y11949486D01*
X12244751Y11950393D01*
X12243325Y11950548D01*
X12234020Y11953347D01*
X12231416Y11957864D01*
X12233995Y11963001D01*
X12240989Y11972273D01*
X12251281Y11984295D01*
X12261865Y11995716D01*
X12274682Y12009210D01*
X12285872Y12021217D01*
X12294080Y12030272D01*
X12297616Y12034440D01*
X12300675Y12039110D01*
X12298438Y12039539D01*
X12292705Y12037520D01*
X12283770Y12035636D01*
X12279727Y12038112D01*
X12281021Y12043438D01*
X12289004Y12052731D01*
X12303647Y12065966D01*
X12324922Y12083114D01*
X12339441Y12094205D01*
X12355582Y12106558D01*
X12365633Y12114990D01*
X12369884Y12120094D01*
X12368625Y12122465D01*
X12362143Y12122697D01*
X12352803Y12121664D01*
X12342186Y12120527D01*
X12336508Y12120972D01*
X12336061Y12123616D01*
X12341140Y12129077D01*
X12352037Y12137971D01*
X12365432Y12148192D01*
X12380452Y12159738D01*
X12395195Y12171428D01*
X12406996Y12181142D01*
X12409216Y12183049D01*
X12424847Y12196666D01*
X12406285Y12194602D01*
X12395501Y12193801D01*
X12388806Y12194069D01*
X12387723Y12194662D01*
X12390586Y12197719D01*
X12398526Y12204886D01*
X12410575Y12215322D01*
X12425764Y12228185D01*
X12440477Y12240447D01*
X12457559Y12254635D01*
X12472335Y12267005D01*
X12483840Y12276741D01*
X12491107Y12283025D01*
X12493231Y12285046D01*
X12489869Y12285209D01*
X12481755Y12284301D01*
X12481508Y12284265D01*
X12472565Y12284243D01*
X12469845Y12287872D01*
X12470086Y12290894D01*
X12471261Y12294016D01*
X12474153Y12298075D01*
X12479549Y12303908D01*
X12488231Y12312353D01*
X12500986Y12324247D01*
X12518597Y12340428D01*
X12522122Y12343657D01*
X12539648Y12359816D01*
X12551609Y12371310D01*
X12558245Y12378704D01*
X12559800Y12382564D01*
X12556515Y12383453D01*
X12548632Y12381937D01*
X12537193Y12378808D01*
X12529521Y12378015D01*
X12527967Y12381617D01*
X12532358Y12389367D01*
X12542525Y12401017D01*
X12558295Y12416322D01*
X12571358Y12428016D01*
X12588388Y12443145D01*
X12599821Y12453982D01*
X12606179Y12461097D01*
X12607981Y12465063D01*
X12606304Y12466388D01*
X12599871Y12469010D01*
X12599172Y12473974D01*
X12604429Y12481494D01*
X12615864Y12491784D01*
X12633701Y12505056D01*
X12658162Y12521524D01*
X12674995Y12532323D01*
X12697004Y12545959D01*
X12722251Y12561140D01*
X12747117Y12575710D01*
X12762392Y12584409D01*
X12778987Y12593801D01*
X12791789Y12601668D01*
X12801963Y12609262D01*
X12810670Y12617833D01*
X12819073Y12628634D01*
X12828336Y12642915D01*
X12839620Y12661929D01*
X12848220Y12676777D01*
X12858926Y12693671D01*
X12871511Y12711169D01*
X12883268Y12725511D01*
X12883370Y12725623D01*
X12893443Y12737149D01*
X12901711Y12747421D01*
X12906407Y12754242D01*
X12906441Y12754308D01*
X12908535Y12760174D01*
X12912225Y12772471D01*
X12917194Y12790052D01*
X12923120Y12811771D01*
X12929686Y12836482D01*
X12934374Y12854494D01*
X12956881Y12939729D01*
X12978920Y13019266D01*
X13000322Y13092520D01*
X13020921Y13158907D01*
X13030910Y13189475D01*
X13040113Y13216173D01*
X13049870Y13242437D01*
X13060550Y13269046D01*
X13072524Y13296779D01*
X13086163Y13326415D01*
X13101838Y13358731D01*
X13119917Y13394508D01*
X13140772Y13434523D01*
X13164774Y13479555D01*
X13192292Y13530383D01*
X13198466Y13541708D01*
X13225790Y13592405D01*
X13249308Y13637446D01*
X13269459Y13677738D01*
X13286683Y13714186D01*
X13301420Y13747696D01*
X13314110Y13779174D01*
X13315472Y13782743D01*
X13329400Y13820656D01*
X13341009Y13855310D01*
X13350835Y13888737D01*
X13359410Y13922970D01*
X13367267Y13960043D01*
X13374942Y14001989D01*
X13378372Y14022354D01*
X13383247Y14050718D01*
X13388592Y14079845D01*
X13394004Y14107653D01*
X13399076Y14132062D01*
X13403401Y14150992D01*
X13403702Y14152204D01*
X13416684Y14200832D01*
X13430507Y14246592D01*
X13444874Y14288747D01*
X13459490Y14326564D01*
X13474059Y14359307D01*
X13488283Y14386240D01*
X13501867Y14406629D01*
X13509820Y14415643D01*
X13525258Y14430708D01*
X13559252Y14430427D01*
X13588251Y14428012D01*
X13619587Y14421041D01*
X13654224Y14409220D01*
X13693120Y14392258D01*
X13706570Y14385724D01*
X13737850Y14368084D01*
X13766985Y14347027D01*
X13794568Y14321872D01*
X13821188Y14291939D01*
X13847436Y14256548D01*
X13873904Y14215019D01*
X13901182Y14166672D01*
X13907919Y14153971D01*
X13923397Y14123280D01*
X13936738Y14093913D01*
X13948362Y14064528D01*
X13958690Y14033784D01*
X13968143Y14000340D01*
X13977142Y13962855D01*
X13986109Y13919987D01*
X13993434Y13881499D01*
X14004974Y13820597D01*
X14015864Y13766812D01*
X14026249Y13719487D01*
X14036273Y13677964D01*
X14046081Y13641586D01*
X14047107Y13638030D01*
X14053961Y13615600D01*
X14061518Y13592822D01*
X14069279Y13571010D01*
X14076742Y13551477D01*
X14083405Y13535537D01*
X14088768Y13524506D01*
X14092212Y13519762D01*
X14097118Y13520792D01*
X14103142Y13527840D01*
X14109277Y13539402D01*
X14114076Y13552470D01*
X14120765Y13568064D01*
X14132945Y13588851D01*
X14150451Y13614632D01*
X14173122Y13645205D01*
X14200793Y13680370D01*
X14233302Y13719924D01*
X14270484Y13763666D01*
X14312176Y13811397D01*
X14358215Y13862914D01*
X14408438Y13918016D01*
X14430801Y13942247D01*
X14478245Y13994499D01*
X14519859Y14042561D01*
X14556053Y14086947D01*
X14587238Y14128170D01*
X14613825Y14166745D01*
X14627583Y14188571D01*
X14637536Y14205982D01*
X14649813Y14229051D01*
X14663678Y14256246D01*
X14678396Y14286033D01*
X14693232Y14316880D01*
X14707449Y14347253D01*
X14720312Y14375619D01*
X14731085Y14400446D01*
X14739034Y14420200D01*
X14740070Y14422995D01*
X14753882Y14460409D01*
X14765710Y14491160D01*
X14775963Y14516026D01*
X14785051Y14535782D01*
X14793382Y14551207D01*
X14801368Y14563077D01*
X14809416Y14572170D01*
X14817937Y14579261D01*
X14824761Y14583662D01*
X14835148Y14589104D01*
X14844627Y14591917D01*
X14856263Y14592682D01*
X14869674Y14592182D01*
D14*
X13327064Y49235000D02*
X12872936Y49235000D01*
X13327064Y47765000D02*
X12872936Y47765000D01*
X31330000Y47700000D02*
X31330000Y48970000D01*
X31330000Y48970000D02*
X32600000Y48970000D01*
X51472936Y45665000D02*
X51927064Y45665000D01*
X51472936Y47135000D02*
X51927064Y47135000D01*
X51472936Y47765000D02*
X51927064Y47765000D01*
X51472936Y49235000D02*
X51927064Y49235000D01*
X13327064Y47135000D02*
X12872936Y47135000D01*
X13327064Y45665000D02*
X12872936Y45665000D01*
X56785000Y47360000D02*
X54100000Y47360000D01*
X56785000Y45440000D02*
X56785000Y47360000D01*
X54100000Y45440000D02*
X56785000Y45440000D01*
X56785000Y49460000D02*
X54100000Y49460000D01*
X56785000Y47540000D02*
X56785000Y49460000D01*
X54100000Y47540000D02*
X56785000Y47540000D01*
X8015000Y45440000D02*
X10700000Y45440000D01*
X8015000Y47360000D02*
X8015000Y45440000D01*
X10700000Y47360000D02*
X8015000Y47360000D01*
X8015000Y47540000D02*
X10700000Y47540000D01*
X8015000Y49460000D02*
X8015000Y47540000D01*
X10700000Y49460000D02*
X8015000Y49460000D01*
D10*
X15633333Y47947620D02*
X15300000Y48423810D01*
X15061904Y47947620D02*
X15061904Y48947620D01*
X15442857Y48947620D01*
X15538095Y48900000D01*
X15585714Y48852381D01*
X15633333Y48757143D01*
X15633333Y48614286D01*
X15585714Y48519048D01*
X15538095Y48471429D01*
X15442857Y48423810D01*
X15061904Y48423810D01*
X16585714Y47947620D02*
X16014285Y47947620D01*
X16300000Y47947620D02*
X16300000Y48947620D01*
X16204761Y48804762D01*
X16109523Y48709524D01*
X16014285Y48661905D01*
X33366666Y49947620D02*
X33366666Y49233334D01*
X33319047Y49090477D01*
X33223809Y48995239D01*
X33080952Y48947620D01*
X32985714Y48947620D01*
X34366666Y48947620D02*
X33795238Y48947620D01*
X34080952Y48947620D02*
X34080952Y49947620D01*
X33985714Y49804762D01*
X33890476Y49709524D01*
X33795238Y49661905D01*
X48733333Y45947620D02*
X48400000Y46423810D01*
X48161904Y45947620D02*
X48161904Y46947620D01*
X48542857Y46947620D01*
X48638095Y46900000D01*
X48685714Y46852381D01*
X48733333Y46757143D01*
X48733333Y46614286D01*
X48685714Y46519048D01*
X48638095Y46471429D01*
X48542857Y46423810D01*
X48161904Y46423810D01*
X49590476Y46614286D02*
X49590476Y45947620D01*
X49352380Y46995239D02*
X49114285Y46280953D01*
X49733333Y46280953D01*
X48833333Y48047620D02*
X48500000Y48523810D01*
X48261904Y48047620D02*
X48261904Y49047620D01*
X48642857Y49047620D01*
X48738095Y49000000D01*
X48785714Y48952381D01*
X48833333Y48857143D01*
X48833333Y48714286D01*
X48785714Y48619048D01*
X48738095Y48571429D01*
X48642857Y48523810D01*
X48261904Y48523810D01*
X49166666Y49047620D02*
X49785714Y49047620D01*
X49452380Y48666667D01*
X49595238Y48666667D01*
X49690476Y48619048D01*
X49738095Y48571429D01*
X49785714Y48476191D01*
X49785714Y48238096D01*
X49738095Y48142858D01*
X49690476Y48095239D01*
X49595238Y48047620D01*
X49309523Y48047620D01*
X49214285Y48095239D01*
X49166666Y48142858D01*
X15633333Y45847620D02*
X15300000Y46323810D01*
X15061904Y45847620D02*
X15061904Y46847620D01*
X15442857Y46847620D01*
X15538095Y46800000D01*
X15585714Y46752381D01*
X15633333Y46657143D01*
X15633333Y46514286D01*
X15585714Y46419048D01*
X15538095Y46371429D01*
X15442857Y46323810D01*
X15061904Y46323810D01*
X16014285Y46752381D02*
X16061904Y46800000D01*
X16157142Y46847620D01*
X16395238Y46847620D01*
X16490476Y46800000D01*
X16538095Y46752381D01*
X16585714Y46657143D01*
X16585714Y46561905D01*
X16538095Y46419048D01*
X15966666Y45847620D01*
X16585714Y45847620D01*
M02*
