%TF.GenerationSoftware,KiCad,Pcbnew,(5.1.7-7-g831c51c875)-1*%
%TF.CreationDate,2021-03-20T10:33:23-05:00*%
%TF.ProjectId,raspberry_pi_fan_hat,72617370-6265-4727-9279-5f70695f6661,rev?*%
%TF.SameCoordinates,PXbebc200PY8f0d180*%
%TF.FileFunction,Legend,Bot*%
%TF.FilePolarity,Positive*%
%FSLAX46Y46*%
G04 Gerber Fmt 4.6, Leading zero omitted, Abs format (unit mm)*
G04 Created by KiCad (PCBNEW (5.1.7-7-g831c51c875)-1) date 2021-03-20 10:33:23*
%MOMM*%
%LPD*%
G01*
G04 APERTURE LIST*
%TA.AperFunction,Profile*%
%ADD10C,0.100000*%
%TD*%
%ADD11C,0.120000*%
%ADD12C,0.150000*%
G04 APERTURE END LIST*
D10*
X46030000Y16000000D02*
G75*
G03*
X46030000Y16000000I-1530000J0D01*
G01*
X22030000Y16000000D02*
G75*
G03*
X22030000Y16000000I-1530000J0D01*
G01*
X22030000Y40000000D02*
G75*
G03*
X22030000Y40000000I-1530000J0D01*
G01*
X46030000Y40000000D02*
G75*
G03*
X46030000Y40000000I-1530000J0D01*
G01*
X3500000Y7000000D02*
X15000000Y16500000D01*
X46500000Y28000000D02*
G75*
G03*
X46500000Y28000000I-14000000J0D01*
G01*
X49500000Y39500000D02*
X61500000Y49000000D01*
X3500000Y49000000D02*
X15000000Y39500000D01*
X61500000Y7000000D02*
X49500000Y16500000D01*
X7000000Y3500000D02*
X21000000Y11000000D01*
X44000000Y11000000D02*
X58000000Y3500000D01*
X21000000Y11000000D02*
X44000000Y11000000D01*
X15000000Y39500000D02*
X15000000Y16500000D01*
X49500000Y16500000D02*
X49500000Y39500000D01*
X7000000Y3500000D02*
G75*
G02*
X3500000Y7000000I-3500000J0D01*
G01*
X61500000Y7000000D02*
G75*
G02*
X58000000Y3500000I0J-3500000D01*
G01*
X61500000Y56000000D02*
G75*
G02*
X61500000Y49000000I0J-3500000D01*
G01*
X3500000Y49000000D02*
G75*
G02*
X3500000Y56000000I0J3500000D01*
G01*
X61500000Y56000000D02*
X3500000Y56000000D01*
D11*
X7040000Y51230000D02*
X7040000Y49900000D01*
X7040000Y49900000D02*
X8370000Y49900000D01*
X7040000Y52500000D02*
X9640000Y52500000D01*
X9640000Y52500000D02*
X9640000Y49900000D01*
X9640000Y49900000D02*
X57960000Y49900000D01*
X57960000Y55100000D02*
X57960000Y49900000D01*
X7040000Y55100000D02*
X57960000Y55100000D01*
X7040000Y55100000D02*
X7040000Y52500000D01*
D12*
X7596095Y48569620D02*
X7596095Y49569620D01*
X7215142Y49569620D01*
X7119904Y49522000D01*
X7072285Y49474381D01*
X7024666Y49379143D01*
X7024666Y49236286D01*
X7072285Y49141048D01*
X7119904Y49093429D01*
X7215142Y49045810D01*
X7596095Y49045810D01*
X6072285Y48569620D02*
X6643714Y48569620D01*
X6358000Y48569620D02*
X6358000Y49569620D01*
X6453238Y49426762D01*
X6548476Y49331524D01*
X6643714Y49283905D01*
M02*
