%TF.GenerationSoftware,KiCad,Pcbnew,8.0.2*%
%TF.CreationDate,2024-09-15T20:03:39-05:00*%
%TF.ProjectId,fifty_pin_header_breakout,66696674-795f-4706-996e-5f6865616465,rev?*%
%TF.SameCoordinates,Original*%
%TF.FileFunction,Copper,L2,Bot*%
%TF.FilePolarity,Positive*%
%FSLAX46Y46*%
G04 Gerber Fmt 4.6, Leading zero omitted, Abs format (unit mm)*
G04 Created by KiCad (PCBNEW 8.0.2) date 2024-09-15 20:03:39*
%MOMM*%
%LPD*%
G01*
G04 APERTURE LIST*
%TA.AperFunction,ComponentPad*%
%ADD10R,1.700000X1.700000*%
%TD*%
%TA.AperFunction,ComponentPad*%
%ADD11O,1.700000X1.700000*%
%TD*%
%TA.AperFunction,Conductor*%
%ADD12C,0.200000*%
%TD*%
G04 APERTURE END LIST*
D10*
%TO.P,J6,1,Pin_1*%
%TO.N,Net-(J6-Pin_1)*%
X142795833Y-42800000D03*
D11*
%TO.P,J6,2,Pin_2*%
X145335833Y-42800000D03*
%TO.P,J6,3,Pin_3*%
X147875833Y-42800000D03*
%TO.P,J6,4,Pin_4*%
X150415833Y-42800000D03*
%TO.P,J6,5,Pin_5*%
X152955833Y-42800000D03*
%TD*%
D10*
%TO.P,J5,1,Pin_1*%
%TO.N,Net-(J5-Pin_1)*%
X143050000Y-118200000D03*
D11*
%TO.P,J5,2,Pin_2*%
X145590000Y-118200000D03*
%TO.P,J5,3,Pin_3*%
X148130000Y-118200000D03*
%TO.P,J5,4,Pin_4*%
X150670000Y-118200000D03*
%TO.P,J5,5,Pin_5*%
X153210000Y-118200000D03*
%TD*%
D10*
%TO.P,J7,1,Pin_1*%
%TO.N,Net-(J7-Pin_1)*%
X98129166Y-42800000D03*
D11*
%TO.P,J7,2,Pin_2*%
X100669166Y-42800000D03*
%TO.P,J7,3,Pin_3*%
X103209166Y-42800000D03*
%TO.P,J7,4,Pin_4*%
X105749166Y-42800000D03*
%TO.P,J7,5,Pin_5*%
X108289166Y-42800000D03*
%TD*%
D10*
%TO.P,J2,1,Pin_1*%
%TO.N,PIN_1*%
X125000000Y-50000000D03*
D11*
%TO.P,J2,2,Pin_2*%
%TO.N,PIN_2*%
X127540000Y-50000000D03*
%TO.P,J2,3,Pin_3*%
%TO.N,PIN_3*%
X125000000Y-52540000D03*
%TO.P,J2,4,Pin_4*%
%TO.N,PIN_4*%
X127540000Y-52540000D03*
%TO.P,J2,5,Pin_5*%
%TO.N,PIN_5*%
X125000000Y-55080000D03*
%TO.P,J2,6,Pin_6*%
%TO.N,PIN_6*%
X127540000Y-55080000D03*
%TO.P,J2,7,Pin_7*%
%TO.N,PIN_7*%
X125000000Y-57620000D03*
%TO.P,J2,8,Pin_8*%
%TO.N,PIN_8*%
X127540000Y-57620000D03*
%TO.P,J2,9,Pin_9*%
%TO.N,PIN_9*%
X125000000Y-60160000D03*
%TO.P,J2,10,Pin_10*%
%TO.N,PIN_10*%
X127540000Y-60160000D03*
%TO.P,J2,11,Pin_11*%
%TO.N,PIN_11*%
X125000000Y-62700000D03*
%TO.P,J2,12,Pin_12*%
%TO.N,PIN_12*%
X127540000Y-62700000D03*
%TO.P,J2,13,Pin_13*%
%TO.N,PIN_13*%
X125000000Y-65240000D03*
%TO.P,J2,14,Pin_14*%
%TO.N,PIN_14*%
X127540000Y-65240000D03*
%TO.P,J2,15,Pin_15*%
%TO.N,PIN_15*%
X125000000Y-67780000D03*
%TO.P,J2,16,Pin_16*%
%TO.N,PIN_16*%
X127540000Y-67780000D03*
%TO.P,J2,17,Pin_17*%
%TO.N,PIN_17*%
X125000000Y-70320000D03*
%TO.P,J2,18,Pin_18*%
%TO.N,PIN_18*%
X127540000Y-70320000D03*
%TO.P,J2,19,Pin_19*%
%TO.N,PIN_19*%
X125000000Y-72860000D03*
%TO.P,J2,20,Pin_20*%
%TO.N,PIN_20*%
X127540000Y-72860000D03*
%TO.P,J2,21,Pin_21*%
%TO.N,PIN_21*%
X125000000Y-75400000D03*
%TO.P,J2,22,Pin_22*%
%TO.N,PIN_22*%
X127540000Y-75400000D03*
%TO.P,J2,23,Pin_23*%
%TO.N,PIN_23*%
X125000000Y-77940000D03*
%TO.P,J2,24,Pin_24*%
%TO.N,PIN_24*%
X127540000Y-77940000D03*
%TO.P,J2,25,Pin_25*%
%TO.N,PIN_25*%
X125000000Y-80480000D03*
%TO.P,J2,26,Pin_26*%
%TO.N,PIN_26*%
X127540000Y-80480000D03*
%TO.P,J2,27,Pin_27*%
%TO.N,PIN_27*%
X125000000Y-83020000D03*
%TO.P,J2,28,Pin_28*%
%TO.N,PIN_28*%
X127540000Y-83020000D03*
%TO.P,J2,29,Pin_29*%
%TO.N,PIN_29*%
X125000000Y-85560000D03*
%TO.P,J2,30,Pin_30*%
%TO.N,PIN_30*%
X127540000Y-85560000D03*
%TO.P,J2,31,Pin_31*%
%TO.N,PIN_31*%
X125000000Y-88100000D03*
%TO.P,J2,32,Pin_32*%
%TO.N,PIN_32*%
X127540000Y-88100000D03*
%TO.P,J2,33,Pin_33*%
%TO.N,PIN_33*%
X125000000Y-90640000D03*
%TO.P,J2,34,Pin_34*%
%TO.N,PIN_34*%
X127540000Y-90640000D03*
%TO.P,J2,35,Pin_35*%
%TO.N,PIN_35*%
X125000000Y-93180000D03*
%TO.P,J2,36,Pin_36*%
%TO.N,PIN_36*%
X127540000Y-93180000D03*
%TO.P,J2,37,Pin_37*%
%TO.N,PIN_37*%
X125000000Y-95720000D03*
%TO.P,J2,38,Pin_38*%
%TO.N,PIN_38*%
X127540000Y-95720000D03*
%TO.P,J2,39,Pin_39*%
%TO.N,PIN_39*%
X125000000Y-98260000D03*
%TO.P,J2,40,Pin_40*%
%TO.N,PIN_40*%
X127540000Y-98260000D03*
%TO.P,J2,41,Pin_41*%
%TO.N,PIN_41*%
X125000000Y-100800000D03*
%TO.P,J2,42,Pin_42*%
%TO.N,PIN_42*%
X127540000Y-100800000D03*
%TO.P,J2,43,Pin_43*%
%TO.N,PIN_43*%
X125000000Y-103340000D03*
%TO.P,J2,44,Pin_44*%
%TO.N,PIN_44*%
X127540000Y-103340000D03*
%TO.P,J2,45,Pin_45*%
%TO.N,PIN_45*%
X125000000Y-105880000D03*
%TO.P,J2,46,Pin_46*%
%TO.N,PIN_46*%
X127540000Y-105880000D03*
%TO.P,J2,47,Pin_47*%
%TO.N,PIN_47*%
X125000000Y-108420000D03*
%TO.P,J2,48,Pin_48*%
%TO.N,PIN_48*%
X127540000Y-108420000D03*
%TO.P,J2,49,Pin_49*%
%TO.N,PIN_49*%
X125000000Y-110960000D03*
%TO.P,J2,50,Pin_50*%
%TO.N,PIN_50*%
X127540000Y-110960000D03*
%TD*%
D10*
%TO.P,J4,1,Pin_1*%
%TO.N,Net-(J4-Pin_1)*%
X98637500Y-118200000D03*
D11*
%TO.P,J4,2,Pin_2*%
X101177500Y-118200000D03*
%TO.P,J4,3,Pin_3*%
X103717500Y-118200000D03*
%TO.P,J4,4,Pin_4*%
X106257500Y-118200000D03*
%TO.P,J4,5,Pin_5*%
X108797500Y-118200000D03*
%TD*%
D10*
%TO.P,J3,1,Pin_1*%
%TO.N,PIN_1*%
X150000000Y-50000000D03*
D11*
%TO.P,J3,2,Pin_2*%
%TO.N,PIN_2*%
X152540000Y-50000000D03*
%TO.P,J3,3,Pin_3*%
%TO.N,PIN_3*%
X150000000Y-52540000D03*
%TO.P,J3,4,Pin_4*%
%TO.N,PIN_4*%
X152540000Y-52540000D03*
%TO.P,J3,5,Pin_5*%
%TO.N,PIN_5*%
X150000000Y-55080000D03*
%TO.P,J3,6,Pin_6*%
%TO.N,PIN_6*%
X152540000Y-55080000D03*
%TO.P,J3,7,Pin_7*%
%TO.N,PIN_7*%
X150000000Y-57620000D03*
%TO.P,J3,8,Pin_8*%
%TO.N,PIN_8*%
X152540000Y-57620000D03*
%TO.P,J3,9,Pin_9*%
%TO.N,PIN_9*%
X150000000Y-60160000D03*
%TO.P,J3,10,Pin_10*%
%TO.N,PIN_10*%
X152540000Y-60160000D03*
%TO.P,J3,11,Pin_11*%
%TO.N,PIN_11*%
X150000000Y-62700000D03*
%TO.P,J3,12,Pin_12*%
%TO.N,PIN_12*%
X152540000Y-62700000D03*
%TO.P,J3,13,Pin_13*%
%TO.N,PIN_13*%
X150000000Y-65240000D03*
%TO.P,J3,14,Pin_14*%
%TO.N,PIN_14*%
X152540000Y-65240000D03*
%TO.P,J3,15,Pin_15*%
%TO.N,PIN_15*%
X150000000Y-67780000D03*
%TO.P,J3,16,Pin_16*%
%TO.N,PIN_16*%
X152540000Y-67780000D03*
%TO.P,J3,17,Pin_17*%
%TO.N,PIN_17*%
X150000000Y-70320000D03*
%TO.P,J3,18,Pin_18*%
%TO.N,PIN_18*%
X152540000Y-70320000D03*
%TO.P,J3,19,Pin_19*%
%TO.N,PIN_19*%
X150000000Y-72860000D03*
%TO.P,J3,20,Pin_20*%
%TO.N,PIN_20*%
X152540000Y-72860000D03*
%TO.P,J3,21,Pin_21*%
%TO.N,PIN_21*%
X150000000Y-75400000D03*
%TO.P,J3,22,Pin_22*%
%TO.N,PIN_22*%
X152540000Y-75400000D03*
%TO.P,J3,23,Pin_23*%
%TO.N,PIN_23*%
X150000000Y-77940000D03*
%TO.P,J3,24,Pin_24*%
%TO.N,PIN_24*%
X152540000Y-77940000D03*
%TO.P,J3,25,Pin_25*%
%TO.N,PIN_25*%
X150000000Y-80480000D03*
%TO.P,J3,26,Pin_26*%
%TO.N,PIN_26*%
X152540000Y-80480000D03*
%TO.P,J3,27,Pin_27*%
%TO.N,PIN_27*%
X150000000Y-83020000D03*
%TO.P,J3,28,Pin_28*%
%TO.N,PIN_28*%
X152540000Y-83020000D03*
%TO.P,J3,29,Pin_29*%
%TO.N,PIN_29*%
X150000000Y-85560000D03*
%TO.P,J3,30,Pin_30*%
%TO.N,PIN_30*%
X152540000Y-85560000D03*
%TO.P,J3,31,Pin_31*%
%TO.N,PIN_31*%
X150000000Y-88100000D03*
%TO.P,J3,32,Pin_32*%
%TO.N,PIN_32*%
X152540000Y-88100000D03*
%TO.P,J3,33,Pin_33*%
%TO.N,PIN_33*%
X150000000Y-90640000D03*
%TO.P,J3,34,Pin_34*%
%TO.N,PIN_34*%
X152540000Y-90640000D03*
%TO.P,J3,35,Pin_35*%
%TO.N,PIN_35*%
X150000000Y-93180000D03*
%TO.P,J3,36,Pin_36*%
%TO.N,PIN_36*%
X152540000Y-93180000D03*
%TO.P,J3,37,Pin_37*%
%TO.N,PIN_37*%
X150000000Y-95720000D03*
%TO.P,J3,38,Pin_38*%
%TO.N,PIN_38*%
X152540000Y-95720000D03*
%TO.P,J3,39,Pin_39*%
%TO.N,PIN_39*%
X150000000Y-98260000D03*
%TO.P,J3,40,Pin_40*%
%TO.N,PIN_40*%
X152540000Y-98260000D03*
%TO.P,J3,41,Pin_41*%
%TO.N,PIN_41*%
X150000000Y-100800000D03*
%TO.P,J3,42,Pin_42*%
%TO.N,PIN_42*%
X152540000Y-100800000D03*
%TO.P,J3,43,Pin_43*%
%TO.N,PIN_43*%
X150000000Y-103340000D03*
%TO.P,J3,44,Pin_44*%
%TO.N,PIN_44*%
X152540000Y-103340000D03*
%TO.P,J3,45,Pin_45*%
%TO.N,PIN_45*%
X150000000Y-105880000D03*
%TO.P,J3,46,Pin_46*%
%TO.N,PIN_46*%
X152540000Y-105880000D03*
%TO.P,J3,47,Pin_47*%
%TO.N,PIN_47*%
X150000000Y-108420000D03*
%TO.P,J3,48,Pin_48*%
%TO.N,PIN_48*%
X152540000Y-108420000D03*
%TO.P,J3,49,Pin_49*%
%TO.N,PIN_49*%
X150000000Y-110960000D03*
%TO.P,J3,50,Pin_50*%
%TO.N,PIN_50*%
X152540000Y-110960000D03*
%TD*%
D10*
%TO.P,J1,1,Pin_1*%
%TO.N,PIN_1*%
X100000000Y-49998250D03*
D11*
%TO.P,J1,2,Pin_2*%
%TO.N,PIN_2*%
X102540000Y-49998250D03*
%TO.P,J1,3,Pin_3*%
%TO.N,PIN_3*%
X100000000Y-52538250D03*
%TO.P,J1,4,Pin_4*%
%TO.N,PIN_4*%
X102540000Y-52538250D03*
%TO.P,J1,5,Pin_5*%
%TO.N,PIN_5*%
X100000000Y-55078250D03*
%TO.P,J1,6,Pin_6*%
%TO.N,PIN_6*%
X102540000Y-55078250D03*
%TO.P,J1,7,Pin_7*%
%TO.N,PIN_7*%
X100000000Y-57618250D03*
%TO.P,J1,8,Pin_8*%
%TO.N,PIN_8*%
X102540000Y-57618250D03*
%TO.P,J1,9,Pin_9*%
%TO.N,PIN_9*%
X100000000Y-60158250D03*
%TO.P,J1,10,Pin_10*%
%TO.N,PIN_10*%
X102540000Y-60158250D03*
%TO.P,J1,11,Pin_11*%
%TO.N,PIN_11*%
X100000000Y-62698250D03*
%TO.P,J1,12,Pin_12*%
%TO.N,PIN_12*%
X102540000Y-62698250D03*
%TO.P,J1,13,Pin_13*%
%TO.N,PIN_13*%
X100000000Y-65238250D03*
%TO.P,J1,14,Pin_14*%
%TO.N,PIN_14*%
X102540000Y-65238250D03*
%TO.P,J1,15,Pin_15*%
%TO.N,PIN_15*%
X100000000Y-67778250D03*
%TO.P,J1,16,Pin_16*%
%TO.N,PIN_16*%
X102540000Y-67778250D03*
%TO.P,J1,17,Pin_17*%
%TO.N,PIN_17*%
X100000000Y-70318250D03*
%TO.P,J1,18,Pin_18*%
%TO.N,PIN_18*%
X102540000Y-70318250D03*
%TO.P,J1,19,Pin_19*%
%TO.N,PIN_19*%
X100000000Y-72858250D03*
%TO.P,J1,20,Pin_20*%
%TO.N,PIN_20*%
X102540000Y-72858250D03*
%TO.P,J1,21,Pin_21*%
%TO.N,PIN_21*%
X100000000Y-75398250D03*
%TO.P,J1,22,Pin_22*%
%TO.N,PIN_22*%
X102540000Y-75398250D03*
%TO.P,J1,23,Pin_23*%
%TO.N,PIN_23*%
X100000000Y-77938250D03*
%TO.P,J1,24,Pin_24*%
%TO.N,PIN_24*%
X102540000Y-77938250D03*
%TO.P,J1,25,Pin_25*%
%TO.N,PIN_25*%
X100000000Y-80478250D03*
%TO.P,J1,26,Pin_26*%
%TO.N,PIN_26*%
X102540000Y-80478250D03*
%TO.P,J1,27,Pin_27*%
%TO.N,PIN_27*%
X100000000Y-83018250D03*
%TO.P,J1,28,Pin_28*%
%TO.N,PIN_28*%
X102540000Y-83018250D03*
%TO.P,J1,29,Pin_29*%
%TO.N,PIN_29*%
X100000000Y-85558250D03*
%TO.P,J1,30,Pin_30*%
%TO.N,PIN_30*%
X102540000Y-85558250D03*
%TO.P,J1,31,Pin_31*%
%TO.N,PIN_31*%
X100000000Y-88098250D03*
%TO.P,J1,32,Pin_32*%
%TO.N,PIN_32*%
X102540000Y-88098250D03*
%TO.P,J1,33,Pin_33*%
%TO.N,PIN_33*%
X100000000Y-90638250D03*
%TO.P,J1,34,Pin_34*%
%TO.N,PIN_34*%
X102540000Y-90638250D03*
%TO.P,J1,35,Pin_35*%
%TO.N,PIN_35*%
X100000000Y-93178250D03*
%TO.P,J1,36,Pin_36*%
%TO.N,PIN_36*%
X102540000Y-93178250D03*
%TO.P,J1,37,Pin_37*%
%TO.N,PIN_37*%
X100000000Y-95718250D03*
%TO.P,J1,38,Pin_38*%
%TO.N,PIN_38*%
X102540000Y-95718250D03*
%TO.P,J1,39,Pin_39*%
%TO.N,PIN_39*%
X100000000Y-98258250D03*
%TO.P,J1,40,Pin_40*%
%TO.N,PIN_40*%
X102540000Y-98258250D03*
%TO.P,J1,41,Pin_41*%
%TO.N,PIN_41*%
X100000000Y-100798250D03*
%TO.P,J1,42,Pin_42*%
%TO.N,PIN_42*%
X102540000Y-100798250D03*
%TO.P,J1,43,Pin_43*%
%TO.N,PIN_43*%
X100000000Y-103338250D03*
%TO.P,J1,44,Pin_44*%
%TO.N,PIN_44*%
X102540000Y-103338250D03*
%TO.P,J1,45,Pin_45*%
%TO.N,PIN_45*%
X100000000Y-105878250D03*
%TO.P,J1,46,Pin_46*%
%TO.N,PIN_46*%
X102540000Y-105878250D03*
%TO.P,J1,47,Pin_47*%
%TO.N,PIN_47*%
X100000000Y-108418250D03*
%TO.P,J1,48,Pin_48*%
%TO.N,PIN_48*%
X102540000Y-108418250D03*
%TO.P,J1,49,Pin_49*%
%TO.N,PIN_49*%
X100000000Y-110958250D03*
%TO.P,J1,50,Pin_50*%
%TO.N,PIN_50*%
X102540000Y-110958250D03*
%TD*%
D12*
%TO.N,PIN_24*%
X126422000Y-76746000D02*
X103886000Y-76746000D01*
X128886000Y-76746000D02*
X127654000Y-77978000D01*
X152654000Y-77978000D02*
X151422000Y-76746000D01*
X151422000Y-76746000D02*
X128886000Y-76746000D01*
X127654000Y-77978000D02*
X126422000Y-76746000D01*
X103886000Y-76746000D02*
X102654000Y-77978000D01*
%TO.N,PIN_12*%
X152654000Y-62738000D02*
X151422000Y-61506000D01*
X128886000Y-61506000D02*
X127654000Y-62738000D01*
X126422000Y-61506000D02*
X103886000Y-61506000D01*
X127654000Y-62738000D02*
X126422000Y-61506000D01*
X151422000Y-61506000D02*
X128886000Y-61506000D01*
X103886000Y-61506000D02*
X102654000Y-62738000D01*
%TO.N,PIN_22*%
X128886000Y-74206000D02*
X127654000Y-75438000D01*
X103886000Y-74206000D02*
X102654000Y-75438000D01*
X152654000Y-75438000D02*
X151422000Y-74206000D01*
X127654000Y-75438000D02*
X126422000Y-74206000D01*
X126422000Y-74206000D02*
X103886000Y-74206000D01*
X151422000Y-74206000D02*
X128886000Y-74206000D01*
%TO.N,PIN_10*%
X152654000Y-60198000D02*
X151422000Y-58966000D01*
X103886000Y-58966000D02*
X102654000Y-60198000D01*
X151422000Y-58966000D02*
X128886000Y-58966000D01*
X128886000Y-58966000D02*
X127654000Y-60198000D01*
X127654000Y-60198000D02*
X126422000Y-58966000D01*
X126422000Y-58966000D02*
X103886000Y-58966000D01*
%TO.N,PIN_32*%
X128886000Y-86906000D02*
X127654000Y-88138000D01*
X126422000Y-86906000D02*
X103886000Y-86906000D01*
X103886000Y-86906000D02*
X102654000Y-88138000D01*
X152654000Y-88138000D02*
X151422000Y-86906000D01*
X127654000Y-88138000D02*
X126422000Y-86906000D01*
X151422000Y-86906000D02*
X128886000Y-86906000D01*
%TO.N,PIN_18*%
X152654000Y-70358000D02*
X151422000Y-69126000D01*
X128886000Y-69126000D02*
X127654000Y-70358000D01*
X103886000Y-69126000D02*
X102654000Y-70358000D01*
X127654000Y-70358000D02*
X126422000Y-69126000D01*
X151422000Y-69126000D02*
X128886000Y-69126000D01*
X126422000Y-69126000D02*
X103886000Y-69126000D01*
%TO.N,PIN_34*%
X128886000Y-89446000D02*
X127654000Y-90678000D01*
X103886000Y-89446000D02*
X102654000Y-90678000D01*
X127654000Y-90678000D02*
X126422000Y-89446000D01*
X126422000Y-89446000D02*
X103886000Y-89446000D01*
X151422000Y-89446000D02*
X128886000Y-89446000D01*
X152654000Y-90678000D02*
X151422000Y-89446000D01*
%TO.N,PIN_14*%
X128886000Y-64046000D02*
X127654000Y-65278000D01*
X151422000Y-64046000D02*
X128886000Y-64046000D01*
X103886000Y-64046000D02*
X102654000Y-65278000D01*
X126422000Y-64046000D02*
X103886000Y-64046000D01*
X127654000Y-65278000D02*
X126422000Y-64046000D01*
X152654000Y-65278000D02*
X151422000Y-64046000D01*
%TO.N,PIN_8*%
X103886000Y-56426000D02*
X102654000Y-57658000D01*
X128886000Y-56426000D02*
X127654000Y-57658000D01*
X126422000Y-56426000D02*
X103886000Y-56426000D01*
X127654000Y-57658000D02*
X126422000Y-56426000D01*
X152654000Y-57658000D02*
X151422000Y-56426000D01*
X151422000Y-56426000D02*
X128886000Y-56426000D01*
%TO.N,PIN_6*%
X126422000Y-53886000D02*
X103886000Y-53886000D01*
X128886000Y-53886000D02*
X127654000Y-55118000D01*
X103886000Y-53886000D02*
X102654000Y-55118000D01*
X152654000Y-55118000D02*
X151422000Y-53886000D01*
X151422000Y-53886000D02*
X128886000Y-53886000D01*
X127654000Y-55118000D02*
X126422000Y-53886000D01*
%TO.N,PIN_30*%
X103886000Y-84366000D02*
X102654000Y-85598000D01*
X152654000Y-85598000D02*
X151422000Y-84366000D01*
X126422000Y-84366000D02*
X103886000Y-84366000D01*
X127654000Y-85598000D02*
X126422000Y-84366000D01*
X151422000Y-84366000D02*
X128886000Y-84366000D01*
X128886000Y-84366000D02*
X127654000Y-85598000D01*
%TO.N,PIN_16*%
X152654000Y-67818000D02*
X151422000Y-66586000D01*
X127654000Y-67818000D02*
X126422000Y-66586000D01*
X128886000Y-66586000D02*
X127654000Y-67818000D01*
X126422000Y-66586000D02*
X103886000Y-66586000D01*
X103886000Y-66586000D02*
X102654000Y-67818000D01*
X151422000Y-66586000D02*
X128886000Y-66586000D01*
%TO.N,PIN_2*%
X128886000Y-48806000D02*
X127654000Y-50038000D01*
X151422000Y-48806000D02*
X128886000Y-48806000D01*
X152654000Y-50038000D02*
X151422000Y-48806000D01*
X127654000Y-50038000D02*
X126422000Y-48806000D01*
X126422000Y-48806000D02*
X103886000Y-48806000D01*
X103886000Y-48806000D02*
X102654000Y-50038000D01*
%TO.N,PIN_4*%
X151422000Y-51346000D02*
X128886000Y-51346000D01*
X126422000Y-51346000D02*
X103886000Y-51346000D01*
X128886000Y-51346000D02*
X127654000Y-52578000D01*
X152654000Y-52578000D02*
X151422000Y-51346000D01*
X127654000Y-52578000D02*
X126422000Y-51346000D01*
X103886000Y-51346000D02*
X102654000Y-52578000D01*
%TO.N,PIN_26*%
X151422000Y-79286000D02*
X128886000Y-79286000D01*
X128886000Y-79286000D02*
X127654000Y-80518000D01*
X127654000Y-80518000D02*
X126422000Y-79286000D01*
X103886000Y-79286000D02*
X102654000Y-80518000D01*
X152654000Y-80518000D02*
X151422000Y-79286000D01*
X126422000Y-79286000D02*
X103886000Y-79286000D01*
%TO.N,PIN_28*%
X103886000Y-81826000D02*
X102654000Y-83058000D01*
X152654000Y-83058000D02*
X151422000Y-81826000D01*
X151422000Y-81826000D02*
X128886000Y-81826000D01*
X126422000Y-81826000D02*
X103886000Y-81826000D01*
X128886000Y-81826000D02*
X127654000Y-83058000D01*
X127654000Y-83058000D02*
X126422000Y-81826000D01*
%TO.N,PIN_20*%
X103886000Y-71666000D02*
X102654000Y-72898000D01*
X151422000Y-71666000D02*
X128886000Y-71666000D01*
X128886000Y-71666000D02*
X127654000Y-72898000D01*
X126422000Y-71666000D02*
X103886000Y-71666000D01*
X127654000Y-72898000D02*
X126422000Y-71666000D01*
X152654000Y-72898000D02*
X151422000Y-71666000D01*
%TO.N,PIN_50*%
X126422000Y-109766000D02*
X103886000Y-109766000D01*
X127654000Y-110998000D02*
X126422000Y-109766000D01*
X103886000Y-109766000D02*
X102654000Y-110998000D01*
X152654000Y-110998000D02*
X151422000Y-109766000D01*
X128886000Y-109766000D02*
X127654000Y-110998000D01*
X151422000Y-109766000D02*
X128886000Y-109766000D01*
%TO.N,PIN_46*%
X152654000Y-105918000D02*
X151422000Y-104686000D01*
X151422000Y-104686000D02*
X128886000Y-104686000D01*
X103886000Y-104686000D02*
X102654000Y-105918000D01*
X128886000Y-104686000D02*
X127654000Y-105918000D01*
X126422000Y-104686000D02*
X103886000Y-104686000D01*
X127654000Y-105918000D02*
X126422000Y-104686000D01*
%TO.N,PIN_36*%
X152654000Y-93218000D02*
X151422000Y-91986000D01*
X126422000Y-91986000D02*
X103886000Y-91986000D01*
X128886000Y-91986000D02*
X127654000Y-93218000D01*
X127654000Y-93218000D02*
X126422000Y-91986000D01*
X103886000Y-91986000D02*
X102654000Y-93218000D01*
X151422000Y-91986000D02*
X128886000Y-91986000D01*
%TO.N,PIN_38*%
X126422000Y-94526000D02*
X103886000Y-94526000D01*
X127654000Y-95758000D02*
X126422000Y-94526000D01*
X103886000Y-94526000D02*
X102654000Y-95758000D01*
X152654000Y-95758000D02*
X151422000Y-94526000D01*
X151422000Y-94526000D02*
X128886000Y-94526000D01*
X128886000Y-94526000D02*
X127654000Y-95758000D01*
%TO.N,PIN_42*%
X126422000Y-99606000D02*
X103886000Y-99606000D01*
X151422000Y-99606000D02*
X128886000Y-99606000D01*
X103886000Y-99606000D02*
X102654000Y-100838000D01*
X152654000Y-100838000D02*
X151422000Y-99606000D01*
X127654000Y-100838000D02*
X126422000Y-99606000D01*
X128886000Y-99606000D02*
X127654000Y-100838000D01*
%TO.N,PIN_44*%
X151422000Y-102146000D02*
X128886000Y-102146000D01*
X126422000Y-102146000D02*
X103886000Y-102146000D01*
X103886000Y-102146000D02*
X102654000Y-103378000D01*
X128886000Y-102146000D02*
X127654000Y-103378000D01*
X127654000Y-103378000D02*
X126422000Y-102146000D01*
X152654000Y-103378000D02*
X151422000Y-102146000D01*
%TO.N,PIN_40*%
X127654000Y-98298000D02*
X126422000Y-97066000D01*
X152654000Y-98298000D02*
X151422000Y-97066000D01*
X103886000Y-97066000D02*
X102654000Y-98298000D01*
X151422000Y-97066000D02*
X128886000Y-97066000D01*
X128886000Y-97066000D02*
X127654000Y-98298000D01*
X126422000Y-97066000D02*
X103886000Y-97066000D01*
%TO.N,PIN_48*%
X128886000Y-107226000D02*
X127654000Y-108458000D01*
X152654000Y-108458000D02*
X151422000Y-107226000D01*
X103886000Y-107226000D02*
X102654000Y-108458000D01*
X151422000Y-107226000D02*
X128886000Y-107226000D01*
X127654000Y-108458000D02*
X126422000Y-107226000D01*
X126422000Y-107226000D02*
X103886000Y-107226000D01*
%TD*%
M02*
