%TF.GenerationSoftware,KiCad,Pcbnew,8.0.2*%
%TF.CreationDate,2024-09-15T20:03:39-05:00*%
%TF.ProjectId,fifty_pin_header_breakout,66696674-795f-4706-996e-5f6865616465,rev?*%
%TF.SameCoordinates,Original*%
%TF.FileFunction,Legend,Top*%
%TF.FilePolarity,Positive*%
%FSLAX46Y46*%
G04 Gerber Fmt 4.6, Leading zero omitted, Abs format (unit mm)*
G04 Created by KiCad (PCBNEW 8.0.2) date 2024-09-15 20:03:39*
%MOMM*%
%LPD*%
G01*
G04 APERTURE LIST*
%ADD10C,0.100000*%
%ADD11C,0.150000*%
%ADD12C,0.300000*%
%ADD13C,0.120000*%
%ADD14C,2.500000*%
%ADD15R,1.700000X1.700000*%
%ADD16O,1.700000X1.700000*%
G04 APERTURE END LIST*
D10*
X121156265Y-80031023D02*
X121203884Y-79983404D01*
X121203884Y-79983404D02*
X121299122Y-79935785D01*
X121299122Y-79935785D02*
X121537217Y-79935785D01*
X121537217Y-79935785D02*
X121632455Y-79983404D01*
X121632455Y-79983404D02*
X121680074Y-80031023D01*
X121680074Y-80031023D02*
X121727693Y-80126261D01*
X121727693Y-80126261D02*
X121727693Y-80221499D01*
X121727693Y-80221499D02*
X121680074Y-80364356D01*
X121680074Y-80364356D02*
X121108646Y-80935785D01*
X121108646Y-80935785D02*
X121727693Y-80935785D01*
X122632455Y-79935785D02*
X122156265Y-79935785D01*
X122156265Y-79935785D02*
X122108646Y-80411975D01*
X122108646Y-80411975D02*
X122156265Y-80364356D01*
X122156265Y-80364356D02*
X122251503Y-80316737D01*
X122251503Y-80316737D02*
X122489598Y-80316737D01*
X122489598Y-80316737D02*
X122584836Y-80364356D01*
X122584836Y-80364356D02*
X122632455Y-80411975D01*
X122632455Y-80411975D02*
X122680074Y-80507213D01*
X122680074Y-80507213D02*
X122680074Y-80745308D01*
X122680074Y-80745308D02*
X122632455Y-80840546D01*
X122632455Y-80840546D02*
X122584836Y-80888166D01*
X122584836Y-80888166D02*
X122489598Y-80935785D01*
X122489598Y-80935785D02*
X122251503Y-80935785D01*
X122251503Y-80935785D02*
X122156265Y-80888166D01*
X122156265Y-80888166D02*
X122108646Y-80840546D01*
X105332455Y-97941187D02*
X105332455Y-98607854D01*
X105094360Y-97560235D02*
X104856265Y-98274520D01*
X104856265Y-98274520D02*
X105475312Y-98274520D01*
X106046741Y-97607854D02*
X106141979Y-97607854D01*
X106141979Y-97607854D02*
X106237217Y-97655473D01*
X106237217Y-97655473D02*
X106284836Y-97703092D01*
X106284836Y-97703092D02*
X106332455Y-97798330D01*
X106332455Y-97798330D02*
X106380074Y-97988806D01*
X106380074Y-97988806D02*
X106380074Y-98226901D01*
X106380074Y-98226901D02*
X106332455Y-98417377D01*
X106332455Y-98417377D02*
X106284836Y-98512615D01*
X106284836Y-98512615D02*
X106237217Y-98560235D01*
X106237217Y-98560235D02*
X106141979Y-98607854D01*
X106141979Y-98607854D02*
X106046741Y-98607854D01*
X106046741Y-98607854D02*
X105951503Y-98560235D01*
X105951503Y-98560235D02*
X105903884Y-98512615D01*
X105903884Y-98512615D02*
X105856265Y-98417377D01*
X105856265Y-98417377D02*
X105808646Y-98226901D01*
X105808646Y-98226901D02*
X105808646Y-97988806D01*
X105808646Y-97988806D02*
X105856265Y-97798330D01*
X105856265Y-97798330D02*
X105903884Y-97703092D01*
X105903884Y-97703092D02*
X105951503Y-97655473D01*
X105951503Y-97655473D02*
X106046741Y-97607854D01*
X97256265Y-54572355D02*
X96780075Y-54572355D01*
X96780075Y-54572355D02*
X96732456Y-55048545D01*
X96732456Y-55048545D02*
X96780075Y-55000926D01*
X96780075Y-55000926D02*
X96875313Y-54953307D01*
X96875313Y-54953307D02*
X97113408Y-54953307D01*
X97113408Y-54953307D02*
X97208646Y-55000926D01*
X97208646Y-55000926D02*
X97256265Y-55048545D01*
X97256265Y-55048545D02*
X97303884Y-55143783D01*
X97303884Y-55143783D02*
X97303884Y-55381878D01*
X97303884Y-55381878D02*
X97256265Y-55477116D01*
X97256265Y-55477116D02*
X97208646Y-55524736D01*
X97208646Y-55524736D02*
X97113408Y-55572355D01*
X97113408Y-55572355D02*
X96875313Y-55572355D01*
X96875313Y-55572355D02*
X96780075Y-55524736D01*
X96780075Y-55524736D02*
X96732456Y-55477116D01*
X105332455Y-108039507D02*
X105332455Y-108706174D01*
X105094360Y-107658555D02*
X104856265Y-108372840D01*
X104856265Y-108372840D02*
X105475312Y-108372840D01*
X105999122Y-108134745D02*
X105903884Y-108087126D01*
X105903884Y-108087126D02*
X105856265Y-108039507D01*
X105856265Y-108039507D02*
X105808646Y-107944269D01*
X105808646Y-107944269D02*
X105808646Y-107896650D01*
X105808646Y-107896650D02*
X105856265Y-107801412D01*
X105856265Y-107801412D02*
X105903884Y-107753793D01*
X105903884Y-107753793D02*
X105999122Y-107706174D01*
X105999122Y-107706174D02*
X106189598Y-107706174D01*
X106189598Y-107706174D02*
X106284836Y-107753793D01*
X106284836Y-107753793D02*
X106332455Y-107801412D01*
X106332455Y-107801412D02*
X106380074Y-107896650D01*
X106380074Y-107896650D02*
X106380074Y-107944269D01*
X106380074Y-107944269D02*
X106332455Y-108039507D01*
X106332455Y-108039507D02*
X106284836Y-108087126D01*
X106284836Y-108087126D02*
X106189598Y-108134745D01*
X106189598Y-108134745D02*
X105999122Y-108134745D01*
X105999122Y-108134745D02*
X105903884Y-108182364D01*
X105903884Y-108182364D02*
X105856265Y-108229983D01*
X105856265Y-108229983D02*
X105808646Y-108325221D01*
X105808646Y-108325221D02*
X105808646Y-108515697D01*
X105808646Y-108515697D02*
X105856265Y-108610935D01*
X105856265Y-108610935D02*
X105903884Y-108658555D01*
X105903884Y-108658555D02*
X105999122Y-108706174D01*
X105999122Y-108706174D02*
X106189598Y-108706174D01*
X106189598Y-108706174D02*
X106284836Y-108658555D01*
X106284836Y-108658555D02*
X106332455Y-108610935D01*
X106332455Y-108610935D02*
X106380074Y-108515697D01*
X106380074Y-108515697D02*
X106380074Y-108325221D01*
X106380074Y-108325221D02*
X106332455Y-108229983D01*
X106332455Y-108229983D02*
X106284836Y-108182364D01*
X106284836Y-108182364D02*
X106189598Y-108134745D01*
X96256265Y-82567366D02*
X96303884Y-82519747D01*
X96303884Y-82519747D02*
X96399122Y-82472128D01*
X96399122Y-82472128D02*
X96637217Y-82472128D01*
X96637217Y-82472128D02*
X96732455Y-82519747D01*
X96732455Y-82519747D02*
X96780074Y-82567366D01*
X96780074Y-82567366D02*
X96827693Y-82662604D01*
X96827693Y-82662604D02*
X96827693Y-82757842D01*
X96827693Y-82757842D02*
X96780074Y-82900699D01*
X96780074Y-82900699D02*
X96208646Y-83472128D01*
X96208646Y-83472128D02*
X96827693Y-83472128D01*
X97161027Y-82472128D02*
X97827693Y-82472128D01*
X97827693Y-82472128D02*
X97399122Y-83472128D01*
X105332455Y-102990347D02*
X105332455Y-103657014D01*
X105094360Y-102609395D02*
X104856265Y-103323680D01*
X104856265Y-103323680D02*
X105475312Y-103323680D01*
X106284836Y-102990347D02*
X106284836Y-103657014D01*
X106046741Y-102609395D02*
X105808646Y-103323680D01*
X105808646Y-103323680D02*
X106427693Y-103323680D01*
X96684837Y-57108698D02*
X97351503Y-57108698D01*
X97351503Y-57108698D02*
X96922932Y-58108698D01*
X96827693Y-73326756D02*
X96256265Y-73326756D01*
X96541979Y-73326756D02*
X96541979Y-72326756D01*
X96541979Y-72326756D02*
X96446741Y-72469613D01*
X96446741Y-72469613D02*
X96351503Y-72564851D01*
X96351503Y-72564851D02*
X96256265Y-72612470D01*
X97303884Y-73326756D02*
X97494360Y-73326756D01*
X97494360Y-73326756D02*
X97589598Y-73279137D01*
X97589598Y-73279137D02*
X97637217Y-73231517D01*
X97637217Y-73231517D02*
X97732455Y-73088660D01*
X97732455Y-73088660D02*
X97780074Y-72898184D01*
X97780074Y-72898184D02*
X97780074Y-72517232D01*
X97780074Y-72517232D02*
X97732455Y-72421994D01*
X97732455Y-72421994D02*
X97684836Y-72374375D01*
X97684836Y-72374375D02*
X97589598Y-72326756D01*
X97589598Y-72326756D02*
X97399122Y-72326756D01*
X97399122Y-72326756D02*
X97303884Y-72374375D01*
X97303884Y-72374375D02*
X97256265Y-72421994D01*
X97256265Y-72421994D02*
X97208646Y-72517232D01*
X97208646Y-72517232D02*
X97208646Y-72755327D01*
X97208646Y-72755327D02*
X97256265Y-72850565D01*
X97256265Y-72850565D02*
X97303884Y-72898184D01*
X97303884Y-72898184D02*
X97399122Y-72945803D01*
X97399122Y-72945803D02*
X97589598Y-72945803D01*
X97589598Y-72945803D02*
X97684836Y-72898184D01*
X97684836Y-72898184D02*
X97732455Y-72850565D01*
X97732455Y-72850565D02*
X97780074Y-72755327D01*
X130132455Y-100465767D02*
X130132455Y-101132434D01*
X129894360Y-100084815D02*
X129656265Y-100799100D01*
X129656265Y-100799100D02*
X130275312Y-100799100D01*
X130608646Y-100227672D02*
X130656265Y-100180053D01*
X130656265Y-100180053D02*
X130751503Y-100132434D01*
X130751503Y-100132434D02*
X130989598Y-100132434D01*
X130989598Y-100132434D02*
X131084836Y-100180053D01*
X131084836Y-100180053D02*
X131132455Y-100227672D01*
X131132455Y-100227672D02*
X131180074Y-100322910D01*
X131180074Y-100322910D02*
X131180074Y-100418148D01*
X131180074Y-100418148D02*
X131132455Y-100561005D01*
X131132455Y-100561005D02*
X130561027Y-101132434D01*
X130561027Y-101132434D02*
X131180074Y-101132434D01*
X155427693Y-65788314D02*
X154856265Y-65788314D01*
X155141979Y-65788314D02*
X155141979Y-64788314D01*
X155141979Y-64788314D02*
X155046741Y-64931171D01*
X155046741Y-64931171D02*
X154951503Y-65026409D01*
X154951503Y-65026409D02*
X154856265Y-65074028D01*
X156284836Y-65121647D02*
X156284836Y-65788314D01*
X156046741Y-64740695D02*
X155808646Y-65454980D01*
X155808646Y-65454980D02*
X156427693Y-65454980D01*
X129656265Y-80031032D02*
X129703884Y-79983413D01*
X129703884Y-79983413D02*
X129799122Y-79935794D01*
X129799122Y-79935794D02*
X130037217Y-79935794D01*
X130037217Y-79935794D02*
X130132455Y-79983413D01*
X130132455Y-79983413D02*
X130180074Y-80031032D01*
X130180074Y-80031032D02*
X130227693Y-80126270D01*
X130227693Y-80126270D02*
X130227693Y-80221508D01*
X130227693Y-80221508D02*
X130180074Y-80364365D01*
X130180074Y-80364365D02*
X129608646Y-80935794D01*
X129608646Y-80935794D02*
X130227693Y-80935794D01*
X131084836Y-79935794D02*
X130894360Y-79935794D01*
X130894360Y-79935794D02*
X130799122Y-79983413D01*
X130799122Y-79983413D02*
X130751503Y-80031032D01*
X130751503Y-80031032D02*
X130656265Y-80173889D01*
X130656265Y-80173889D02*
X130608646Y-80364365D01*
X130608646Y-80364365D02*
X130608646Y-80745317D01*
X130608646Y-80745317D02*
X130656265Y-80840555D01*
X130656265Y-80840555D02*
X130703884Y-80888175D01*
X130703884Y-80888175D02*
X130799122Y-80935794D01*
X130799122Y-80935794D02*
X130989598Y-80935794D01*
X130989598Y-80935794D02*
X131084836Y-80888175D01*
X131084836Y-80888175D02*
X131132455Y-80840555D01*
X131132455Y-80840555D02*
X131180074Y-80745317D01*
X131180074Y-80745317D02*
X131180074Y-80507222D01*
X131180074Y-80507222D02*
X131132455Y-80411984D01*
X131132455Y-80411984D02*
X131084836Y-80364365D01*
X131084836Y-80364365D02*
X130989598Y-80316746D01*
X130989598Y-80316746D02*
X130799122Y-80316746D01*
X130799122Y-80316746D02*
X130703884Y-80364365D01*
X130703884Y-80364365D02*
X130656265Y-80411984D01*
X130656265Y-80411984D02*
X130608646Y-80507222D01*
X121632455Y-110705252D02*
X121632455Y-111371919D01*
X121394360Y-110324300D02*
X121156265Y-111038585D01*
X121156265Y-111038585D02*
X121775312Y-111038585D01*
X122203884Y-111371919D02*
X122394360Y-111371919D01*
X122394360Y-111371919D02*
X122489598Y-111324300D01*
X122489598Y-111324300D02*
X122537217Y-111276680D01*
X122537217Y-111276680D02*
X122632455Y-111133823D01*
X122632455Y-111133823D02*
X122680074Y-110943347D01*
X122680074Y-110943347D02*
X122680074Y-110562395D01*
X122680074Y-110562395D02*
X122632455Y-110467157D01*
X122632455Y-110467157D02*
X122584836Y-110419538D01*
X122584836Y-110419538D02*
X122489598Y-110371919D01*
X122489598Y-110371919D02*
X122299122Y-110371919D01*
X122299122Y-110371919D02*
X122203884Y-110419538D01*
X122203884Y-110419538D02*
X122156265Y-110467157D01*
X122156265Y-110467157D02*
X122108646Y-110562395D01*
X122108646Y-110562395D02*
X122108646Y-110800490D01*
X122108646Y-110800490D02*
X122156265Y-110895728D01*
X122156265Y-110895728D02*
X122203884Y-110943347D01*
X122203884Y-110943347D02*
X122299122Y-110990966D01*
X122299122Y-110990966D02*
X122489598Y-110990966D01*
X122489598Y-110990966D02*
X122584836Y-110943347D01*
X122584836Y-110943347D02*
X122632455Y-110895728D01*
X122632455Y-110895728D02*
X122680074Y-110800490D01*
X129656265Y-74981872D02*
X129703884Y-74934253D01*
X129703884Y-74934253D02*
X129799122Y-74886634D01*
X129799122Y-74886634D02*
X130037217Y-74886634D01*
X130037217Y-74886634D02*
X130132455Y-74934253D01*
X130132455Y-74934253D02*
X130180074Y-74981872D01*
X130180074Y-74981872D02*
X130227693Y-75077110D01*
X130227693Y-75077110D02*
X130227693Y-75172348D01*
X130227693Y-75172348D02*
X130180074Y-75315205D01*
X130180074Y-75315205D02*
X129608646Y-75886634D01*
X129608646Y-75886634D02*
X130227693Y-75886634D01*
X130608646Y-74981872D02*
X130656265Y-74934253D01*
X130656265Y-74934253D02*
X130751503Y-74886634D01*
X130751503Y-74886634D02*
X130989598Y-74886634D01*
X130989598Y-74886634D02*
X131084836Y-74934253D01*
X131084836Y-74934253D02*
X131132455Y-74981872D01*
X131132455Y-74981872D02*
X131180074Y-75077110D01*
X131180074Y-75077110D02*
X131180074Y-75172348D01*
X131180074Y-75172348D02*
X131132455Y-75315205D01*
X131132455Y-75315205D02*
X130561027Y-75886634D01*
X130561027Y-75886634D02*
X131180074Y-75886634D01*
X104808646Y-90034114D02*
X105427693Y-90034114D01*
X105427693Y-90034114D02*
X105094360Y-90415066D01*
X105094360Y-90415066D02*
X105237217Y-90415066D01*
X105237217Y-90415066D02*
X105332455Y-90462685D01*
X105332455Y-90462685D02*
X105380074Y-90510304D01*
X105380074Y-90510304D02*
X105427693Y-90605542D01*
X105427693Y-90605542D02*
X105427693Y-90843637D01*
X105427693Y-90843637D02*
X105380074Y-90938875D01*
X105380074Y-90938875D02*
X105332455Y-90986495D01*
X105332455Y-90986495D02*
X105237217Y-91034114D01*
X105237217Y-91034114D02*
X104951503Y-91034114D01*
X104951503Y-91034114D02*
X104856265Y-90986495D01*
X104856265Y-90986495D02*
X104808646Y-90938875D01*
X106284836Y-90367447D02*
X106284836Y-91034114D01*
X106046741Y-89986495D02*
X105808646Y-90700780D01*
X105808646Y-90700780D02*
X106427693Y-90700780D01*
D11*
X97261779Y-50471569D02*
X96690351Y-50471569D01*
X96976065Y-50471569D02*
X96976065Y-49471569D01*
X96976065Y-49471569D02*
X96880827Y-49614426D01*
X96880827Y-49614426D02*
X96785589Y-49709664D01*
X96785589Y-49709664D02*
X96690351Y-49757283D01*
D10*
X146632455Y-105632548D02*
X146632455Y-106299215D01*
X146394360Y-105251596D02*
X146156265Y-105965881D01*
X146156265Y-105965881D02*
X146775312Y-105965881D01*
X147632455Y-105299215D02*
X147156265Y-105299215D01*
X147156265Y-105299215D02*
X147108646Y-105775405D01*
X147108646Y-105775405D02*
X147156265Y-105727786D01*
X147156265Y-105727786D02*
X147251503Y-105680167D01*
X147251503Y-105680167D02*
X147489598Y-105680167D01*
X147489598Y-105680167D02*
X147584836Y-105727786D01*
X147584836Y-105727786D02*
X147632455Y-105775405D01*
X147632455Y-105775405D02*
X147680074Y-105870643D01*
X147680074Y-105870643D02*
X147680074Y-106108738D01*
X147680074Y-106108738D02*
X147632455Y-106203976D01*
X147632455Y-106203976D02*
X147584836Y-106251596D01*
X147584836Y-106251596D02*
X147489598Y-106299215D01*
X147489598Y-106299215D02*
X147251503Y-106299215D01*
X147251503Y-106299215D02*
X147156265Y-106251596D01*
X147156265Y-106251596D02*
X147108646Y-106203976D01*
X121108646Y-97690186D02*
X121727693Y-97690186D01*
X121727693Y-97690186D02*
X121394360Y-98071138D01*
X121394360Y-98071138D02*
X121537217Y-98071138D01*
X121537217Y-98071138D02*
X121632455Y-98118757D01*
X121632455Y-98118757D02*
X121680074Y-98166376D01*
X121680074Y-98166376D02*
X121727693Y-98261614D01*
X121727693Y-98261614D02*
X121727693Y-98499709D01*
X121727693Y-98499709D02*
X121680074Y-98594947D01*
X121680074Y-98594947D02*
X121632455Y-98642567D01*
X121632455Y-98642567D02*
X121537217Y-98690186D01*
X121537217Y-98690186D02*
X121251503Y-98690186D01*
X121251503Y-98690186D02*
X121156265Y-98642567D01*
X121156265Y-98642567D02*
X121108646Y-98594947D01*
X122203884Y-98690186D02*
X122394360Y-98690186D01*
X122394360Y-98690186D02*
X122489598Y-98642567D01*
X122489598Y-98642567D02*
X122537217Y-98594947D01*
X122537217Y-98594947D02*
X122632455Y-98452090D01*
X122632455Y-98452090D02*
X122680074Y-98261614D01*
X122680074Y-98261614D02*
X122680074Y-97880662D01*
X122680074Y-97880662D02*
X122632455Y-97785424D01*
X122632455Y-97785424D02*
X122584836Y-97737805D01*
X122584836Y-97737805D02*
X122489598Y-97690186D01*
X122489598Y-97690186D02*
X122299122Y-97690186D01*
X122299122Y-97690186D02*
X122203884Y-97737805D01*
X122203884Y-97737805D02*
X122156265Y-97785424D01*
X122156265Y-97785424D02*
X122108646Y-97880662D01*
X122108646Y-97880662D02*
X122108646Y-98118757D01*
X122108646Y-98118757D02*
X122156265Y-98213995D01*
X122156265Y-98213995D02*
X122203884Y-98261614D01*
X122203884Y-98261614D02*
X122299122Y-98309233D01*
X122299122Y-98309233D02*
X122489598Y-98309233D01*
X122489598Y-98309233D02*
X122584836Y-98261614D01*
X122584836Y-98261614D02*
X122632455Y-98213995D01*
X122632455Y-98213995D02*
X122680074Y-98118757D01*
X155332455Y-105514927D02*
X155332455Y-106181594D01*
X155094360Y-105133975D02*
X154856265Y-105848260D01*
X154856265Y-105848260D02*
X155475312Y-105848260D01*
X156284836Y-105181594D02*
X156094360Y-105181594D01*
X156094360Y-105181594D02*
X155999122Y-105229213D01*
X155999122Y-105229213D02*
X155951503Y-105276832D01*
X155951503Y-105276832D02*
X155856265Y-105419689D01*
X155856265Y-105419689D02*
X155808646Y-105610165D01*
X155808646Y-105610165D02*
X155808646Y-105991117D01*
X155808646Y-105991117D02*
X155856265Y-106086355D01*
X155856265Y-106086355D02*
X155903884Y-106133975D01*
X155903884Y-106133975D02*
X155999122Y-106181594D01*
X155999122Y-106181594D02*
X156189598Y-106181594D01*
X156189598Y-106181594D02*
X156284836Y-106133975D01*
X156284836Y-106133975D02*
X156332455Y-106086355D01*
X156332455Y-106086355D02*
X156380074Y-105991117D01*
X156380074Y-105991117D02*
X156380074Y-105753022D01*
X156380074Y-105753022D02*
X156332455Y-105657784D01*
X156332455Y-105657784D02*
X156284836Y-105610165D01*
X156284836Y-105610165D02*
X156189598Y-105562546D01*
X156189598Y-105562546D02*
X155999122Y-105562546D01*
X155999122Y-105562546D02*
X155903884Y-105610165D01*
X155903884Y-105610165D02*
X155856265Y-105657784D01*
X155856265Y-105657784D02*
X155808646Y-105753022D01*
D11*
X122161779Y-50471569D02*
X121590351Y-50471569D01*
X121876065Y-50471569D02*
X121876065Y-49471569D01*
X121876065Y-49471569D02*
X121780827Y-49614426D01*
X121780827Y-49614426D02*
X121685589Y-49709664D01*
X121685589Y-49709664D02*
X121590351Y-49757283D01*
D10*
X129608646Y-87509534D02*
X130227693Y-87509534D01*
X130227693Y-87509534D02*
X129894360Y-87890486D01*
X129894360Y-87890486D02*
X130037217Y-87890486D01*
X130037217Y-87890486D02*
X130132455Y-87938105D01*
X130132455Y-87938105D02*
X130180074Y-87985724D01*
X130180074Y-87985724D02*
X130227693Y-88080962D01*
X130227693Y-88080962D02*
X130227693Y-88319057D01*
X130227693Y-88319057D02*
X130180074Y-88414295D01*
X130180074Y-88414295D02*
X130132455Y-88461915D01*
X130132455Y-88461915D02*
X130037217Y-88509534D01*
X130037217Y-88509534D02*
X129751503Y-88509534D01*
X129751503Y-88509534D02*
X129656265Y-88461915D01*
X129656265Y-88461915D02*
X129608646Y-88414295D01*
X130608646Y-87604772D02*
X130656265Y-87557153D01*
X130656265Y-87557153D02*
X130751503Y-87509534D01*
X130751503Y-87509534D02*
X130989598Y-87509534D01*
X130989598Y-87509534D02*
X131084836Y-87557153D01*
X131084836Y-87557153D02*
X131132455Y-87604772D01*
X131132455Y-87604772D02*
X131180074Y-87700010D01*
X131180074Y-87700010D02*
X131180074Y-87795248D01*
X131180074Y-87795248D02*
X131132455Y-87938105D01*
X131132455Y-87938105D02*
X130561027Y-88509534D01*
X130561027Y-88509534D02*
X131180074Y-88509534D01*
X130132455Y-108039507D02*
X130132455Y-108706174D01*
X129894360Y-107658555D02*
X129656265Y-108372840D01*
X129656265Y-108372840D02*
X130275312Y-108372840D01*
X130799122Y-108134745D02*
X130703884Y-108087126D01*
X130703884Y-108087126D02*
X130656265Y-108039507D01*
X130656265Y-108039507D02*
X130608646Y-107944269D01*
X130608646Y-107944269D02*
X130608646Y-107896650D01*
X130608646Y-107896650D02*
X130656265Y-107801412D01*
X130656265Y-107801412D02*
X130703884Y-107753793D01*
X130703884Y-107753793D02*
X130799122Y-107706174D01*
X130799122Y-107706174D02*
X130989598Y-107706174D01*
X130989598Y-107706174D02*
X131084836Y-107753793D01*
X131084836Y-107753793D02*
X131132455Y-107801412D01*
X131132455Y-107801412D02*
X131180074Y-107896650D01*
X131180074Y-107896650D02*
X131180074Y-107944269D01*
X131180074Y-107944269D02*
X131132455Y-108039507D01*
X131132455Y-108039507D02*
X131084836Y-108087126D01*
X131084836Y-108087126D02*
X130989598Y-108134745D01*
X130989598Y-108134745D02*
X130799122Y-108134745D01*
X130799122Y-108134745D02*
X130703884Y-108182364D01*
X130703884Y-108182364D02*
X130656265Y-108229983D01*
X130656265Y-108229983D02*
X130608646Y-108325221D01*
X130608646Y-108325221D02*
X130608646Y-108515697D01*
X130608646Y-108515697D02*
X130656265Y-108610935D01*
X130656265Y-108610935D02*
X130703884Y-108658555D01*
X130703884Y-108658555D02*
X130799122Y-108706174D01*
X130799122Y-108706174D02*
X130989598Y-108706174D01*
X130989598Y-108706174D02*
X131084836Y-108658555D01*
X131084836Y-108658555D02*
X131132455Y-108610935D01*
X131132455Y-108610935D02*
X131180074Y-108515697D01*
X131180074Y-108515697D02*
X131180074Y-108325221D01*
X131180074Y-108325221D02*
X131132455Y-108229983D01*
X131132455Y-108229983D02*
X131084836Y-108182364D01*
X131084836Y-108182364D02*
X130989598Y-108134745D01*
X146108646Y-95153843D02*
X146727693Y-95153843D01*
X146727693Y-95153843D02*
X146394360Y-95534795D01*
X146394360Y-95534795D02*
X146537217Y-95534795D01*
X146537217Y-95534795D02*
X146632455Y-95582414D01*
X146632455Y-95582414D02*
X146680074Y-95630033D01*
X146680074Y-95630033D02*
X146727693Y-95725271D01*
X146727693Y-95725271D02*
X146727693Y-95963366D01*
X146727693Y-95963366D02*
X146680074Y-96058604D01*
X146680074Y-96058604D02*
X146632455Y-96106224D01*
X146632455Y-96106224D02*
X146537217Y-96153843D01*
X146537217Y-96153843D02*
X146251503Y-96153843D01*
X146251503Y-96153843D02*
X146156265Y-96106224D01*
X146156265Y-96106224D02*
X146108646Y-96058604D01*
X147061027Y-95153843D02*
X147727693Y-95153843D01*
X147727693Y-95153843D02*
X147299122Y-96153843D01*
X96684837Y-52036012D02*
X97303884Y-52036012D01*
X97303884Y-52036012D02*
X96970551Y-52416964D01*
X96970551Y-52416964D02*
X97113408Y-52416964D01*
X97113408Y-52416964D02*
X97208646Y-52464583D01*
X97208646Y-52464583D02*
X97256265Y-52512202D01*
X97256265Y-52512202D02*
X97303884Y-52607440D01*
X97303884Y-52607440D02*
X97303884Y-52845535D01*
X97303884Y-52845535D02*
X97256265Y-52940773D01*
X97256265Y-52940773D02*
X97208646Y-52988393D01*
X97208646Y-52988393D02*
X97113408Y-53036012D01*
X97113408Y-53036012D02*
X96827694Y-53036012D01*
X96827694Y-53036012D02*
X96732456Y-52988393D01*
X96732456Y-52988393D02*
X96684837Y-52940773D01*
X130132455Y-105514927D02*
X130132455Y-106181594D01*
X129894360Y-105133975D02*
X129656265Y-105848260D01*
X129656265Y-105848260D02*
X130275312Y-105848260D01*
X131084836Y-105181594D02*
X130894360Y-105181594D01*
X130894360Y-105181594D02*
X130799122Y-105229213D01*
X130799122Y-105229213D02*
X130751503Y-105276832D01*
X130751503Y-105276832D02*
X130656265Y-105419689D01*
X130656265Y-105419689D02*
X130608646Y-105610165D01*
X130608646Y-105610165D02*
X130608646Y-105991117D01*
X130608646Y-105991117D02*
X130656265Y-106086355D01*
X130656265Y-106086355D02*
X130703884Y-106133975D01*
X130703884Y-106133975D02*
X130799122Y-106181594D01*
X130799122Y-106181594D02*
X130989598Y-106181594D01*
X130989598Y-106181594D02*
X131084836Y-106133975D01*
X131084836Y-106133975D02*
X131132455Y-106086355D01*
X131132455Y-106086355D02*
X131180074Y-105991117D01*
X131180074Y-105991117D02*
X131180074Y-105753022D01*
X131180074Y-105753022D02*
X131132455Y-105657784D01*
X131132455Y-105657784D02*
X131084836Y-105610165D01*
X131084836Y-105610165D02*
X130989598Y-105562546D01*
X130989598Y-105562546D02*
X130799122Y-105562546D01*
X130799122Y-105562546D02*
X130703884Y-105610165D01*
X130703884Y-105610165D02*
X130656265Y-105657784D01*
X130656265Y-105657784D02*
X130608646Y-105753022D01*
D11*
X155290351Y-49707972D02*
X155337970Y-49660353D01*
X155337970Y-49660353D02*
X155433208Y-49612734D01*
X155433208Y-49612734D02*
X155671303Y-49612734D01*
X155671303Y-49612734D02*
X155766541Y-49660353D01*
X155766541Y-49660353D02*
X155814160Y-49707972D01*
X155814160Y-49707972D02*
X155861779Y-49803210D01*
X155861779Y-49803210D02*
X155861779Y-49898448D01*
X155861779Y-49898448D02*
X155814160Y-50041305D01*
X155814160Y-50041305D02*
X155242732Y-50612734D01*
X155242732Y-50612734D02*
X155861779Y-50612734D01*
D10*
X121727693Y-73326756D02*
X121156265Y-73326756D01*
X121441979Y-73326756D02*
X121441979Y-72326756D01*
X121441979Y-72326756D02*
X121346741Y-72469613D01*
X121346741Y-72469613D02*
X121251503Y-72564851D01*
X121251503Y-72564851D02*
X121156265Y-72612470D01*
X122203884Y-73326756D02*
X122394360Y-73326756D01*
X122394360Y-73326756D02*
X122489598Y-73279137D01*
X122489598Y-73279137D02*
X122537217Y-73231517D01*
X122537217Y-73231517D02*
X122632455Y-73088660D01*
X122632455Y-73088660D02*
X122680074Y-72898184D01*
X122680074Y-72898184D02*
X122680074Y-72517232D01*
X122680074Y-72517232D02*
X122632455Y-72421994D01*
X122632455Y-72421994D02*
X122584836Y-72374375D01*
X122584836Y-72374375D02*
X122489598Y-72326756D01*
X122489598Y-72326756D02*
X122299122Y-72326756D01*
X122299122Y-72326756D02*
X122203884Y-72374375D01*
X122203884Y-72374375D02*
X122156265Y-72421994D01*
X122156265Y-72421994D02*
X122108646Y-72517232D01*
X122108646Y-72517232D02*
X122108646Y-72755327D01*
X122108646Y-72755327D02*
X122156265Y-72850565D01*
X122156265Y-72850565D02*
X122203884Y-72898184D01*
X122203884Y-72898184D02*
X122299122Y-72945803D01*
X122299122Y-72945803D02*
X122489598Y-72945803D01*
X122489598Y-72945803D02*
X122584836Y-72898184D01*
X122584836Y-72898184D02*
X122632455Y-72850565D01*
X122632455Y-72850565D02*
X122680074Y-72755327D01*
X146584837Y-52036012D02*
X147203884Y-52036012D01*
X147203884Y-52036012D02*
X146870551Y-52416964D01*
X146870551Y-52416964D02*
X147013408Y-52416964D01*
X147013408Y-52416964D02*
X147108646Y-52464583D01*
X147108646Y-52464583D02*
X147156265Y-52512202D01*
X147156265Y-52512202D02*
X147203884Y-52607440D01*
X147203884Y-52607440D02*
X147203884Y-52845535D01*
X147203884Y-52845535D02*
X147156265Y-52940773D01*
X147156265Y-52940773D02*
X147108646Y-52988393D01*
X147108646Y-52988393D02*
X147013408Y-53036012D01*
X147013408Y-53036012D02*
X146727694Y-53036012D01*
X146727694Y-53036012D02*
X146632456Y-52988393D01*
X146632456Y-52988393D02*
X146584837Y-52940773D01*
X146727693Y-63181384D02*
X146156265Y-63181384D01*
X146441979Y-63181384D02*
X146441979Y-62181384D01*
X146441979Y-62181384D02*
X146346741Y-62324241D01*
X146346741Y-62324241D02*
X146251503Y-62419479D01*
X146251503Y-62419479D02*
X146156265Y-62467098D01*
X147680074Y-63181384D02*
X147108646Y-63181384D01*
X147394360Y-63181384D02*
X147394360Y-62181384D01*
X147394360Y-62181384D02*
X147299122Y-62324241D01*
X147299122Y-62324241D02*
X147203884Y-62419479D01*
X147203884Y-62419479D02*
X147108646Y-62467098D01*
X130227693Y-60739154D02*
X129656265Y-60739154D01*
X129941979Y-60739154D02*
X129941979Y-59739154D01*
X129941979Y-59739154D02*
X129846741Y-59882011D01*
X129846741Y-59882011D02*
X129751503Y-59977249D01*
X129751503Y-59977249D02*
X129656265Y-60024868D01*
X130846741Y-59739154D02*
X130941979Y-59739154D01*
X130941979Y-59739154D02*
X131037217Y-59786773D01*
X131037217Y-59786773D02*
X131084836Y-59834392D01*
X131084836Y-59834392D02*
X131132455Y-59929630D01*
X131132455Y-59929630D02*
X131180074Y-60120106D01*
X131180074Y-60120106D02*
X131180074Y-60358201D01*
X131180074Y-60358201D02*
X131132455Y-60548677D01*
X131132455Y-60548677D02*
X131084836Y-60643915D01*
X131084836Y-60643915D02*
X131037217Y-60691535D01*
X131037217Y-60691535D02*
X130941979Y-60739154D01*
X130941979Y-60739154D02*
X130846741Y-60739154D01*
X130846741Y-60739154D02*
X130751503Y-60691535D01*
X130751503Y-60691535D02*
X130703884Y-60643915D01*
X130703884Y-60643915D02*
X130656265Y-60548677D01*
X130656265Y-60548677D02*
X130608646Y-60358201D01*
X130608646Y-60358201D02*
X130608646Y-60120106D01*
X130608646Y-60120106D02*
X130656265Y-59929630D01*
X130656265Y-59929630D02*
X130703884Y-59834392D01*
X130703884Y-59834392D02*
X130751503Y-59786773D01*
X130751503Y-59786773D02*
X130846741Y-59739154D01*
X104808646Y-95083274D02*
X105427693Y-95083274D01*
X105427693Y-95083274D02*
X105094360Y-95464226D01*
X105094360Y-95464226D02*
X105237217Y-95464226D01*
X105237217Y-95464226D02*
X105332455Y-95511845D01*
X105332455Y-95511845D02*
X105380074Y-95559464D01*
X105380074Y-95559464D02*
X105427693Y-95654702D01*
X105427693Y-95654702D02*
X105427693Y-95892797D01*
X105427693Y-95892797D02*
X105380074Y-95988035D01*
X105380074Y-95988035D02*
X105332455Y-96035655D01*
X105332455Y-96035655D02*
X105237217Y-96083274D01*
X105237217Y-96083274D02*
X104951503Y-96083274D01*
X104951503Y-96083274D02*
X104856265Y-96035655D01*
X104856265Y-96035655D02*
X104808646Y-95988035D01*
X105999122Y-95511845D02*
X105903884Y-95464226D01*
X105903884Y-95464226D02*
X105856265Y-95416607D01*
X105856265Y-95416607D02*
X105808646Y-95321369D01*
X105808646Y-95321369D02*
X105808646Y-95273750D01*
X105808646Y-95273750D02*
X105856265Y-95178512D01*
X105856265Y-95178512D02*
X105903884Y-95130893D01*
X105903884Y-95130893D02*
X105999122Y-95083274D01*
X105999122Y-95083274D02*
X106189598Y-95083274D01*
X106189598Y-95083274D02*
X106284836Y-95130893D01*
X106284836Y-95130893D02*
X106332455Y-95178512D01*
X106332455Y-95178512D02*
X106380074Y-95273750D01*
X106380074Y-95273750D02*
X106380074Y-95321369D01*
X106380074Y-95321369D02*
X106332455Y-95416607D01*
X106332455Y-95416607D02*
X106284836Y-95464226D01*
X106284836Y-95464226D02*
X106189598Y-95511845D01*
X106189598Y-95511845D02*
X105999122Y-95511845D01*
X105999122Y-95511845D02*
X105903884Y-95559464D01*
X105903884Y-95559464D02*
X105856265Y-95607083D01*
X105856265Y-95607083D02*
X105808646Y-95702321D01*
X105808646Y-95702321D02*
X105808646Y-95892797D01*
X105808646Y-95892797D02*
X105856265Y-95988035D01*
X105856265Y-95988035D02*
X105903884Y-96035655D01*
X105903884Y-96035655D02*
X105999122Y-96083274D01*
X105999122Y-96083274D02*
X106189598Y-96083274D01*
X106189598Y-96083274D02*
X106284836Y-96035655D01*
X106284836Y-96035655D02*
X106332455Y-95988035D01*
X106332455Y-95988035D02*
X106380074Y-95892797D01*
X106380074Y-95892797D02*
X106380074Y-95702321D01*
X106380074Y-95702321D02*
X106332455Y-95607083D01*
X106332455Y-95607083D02*
X106284836Y-95559464D01*
X106284836Y-95559464D02*
X106189598Y-95511845D01*
X146727693Y-65717727D02*
X146156265Y-65717727D01*
X146441979Y-65717727D02*
X146441979Y-64717727D01*
X146441979Y-64717727D02*
X146346741Y-64860584D01*
X146346741Y-64860584D02*
X146251503Y-64955822D01*
X146251503Y-64955822D02*
X146156265Y-65003441D01*
X147061027Y-64717727D02*
X147680074Y-64717727D01*
X147680074Y-64717727D02*
X147346741Y-65098679D01*
X147346741Y-65098679D02*
X147489598Y-65098679D01*
X147489598Y-65098679D02*
X147584836Y-65146298D01*
X147584836Y-65146298D02*
X147632455Y-65193917D01*
X147632455Y-65193917D02*
X147680074Y-65289155D01*
X147680074Y-65289155D02*
X147680074Y-65527250D01*
X147680074Y-65527250D02*
X147632455Y-65622488D01*
X147632455Y-65622488D02*
X147584836Y-65670108D01*
X147584836Y-65670108D02*
X147489598Y-65717727D01*
X147489598Y-65717727D02*
X147203884Y-65717727D01*
X147203884Y-65717727D02*
X147108646Y-65670108D01*
X147108646Y-65670108D02*
X147061027Y-65622488D01*
X121108646Y-95153843D02*
X121727693Y-95153843D01*
X121727693Y-95153843D02*
X121394360Y-95534795D01*
X121394360Y-95534795D02*
X121537217Y-95534795D01*
X121537217Y-95534795D02*
X121632455Y-95582414D01*
X121632455Y-95582414D02*
X121680074Y-95630033D01*
X121680074Y-95630033D02*
X121727693Y-95725271D01*
X121727693Y-95725271D02*
X121727693Y-95963366D01*
X121727693Y-95963366D02*
X121680074Y-96058604D01*
X121680074Y-96058604D02*
X121632455Y-96106224D01*
X121632455Y-96106224D02*
X121537217Y-96153843D01*
X121537217Y-96153843D02*
X121251503Y-96153843D01*
X121251503Y-96153843D02*
X121156265Y-96106224D01*
X121156265Y-96106224D02*
X121108646Y-96058604D01*
X122061027Y-95153843D02*
X122727693Y-95153843D01*
X122727693Y-95153843D02*
X122299122Y-96153843D01*
X105808646Y-54689994D02*
X105618170Y-54689994D01*
X105618170Y-54689994D02*
X105522932Y-54737613D01*
X105522932Y-54737613D02*
X105475313Y-54785232D01*
X105475313Y-54785232D02*
X105380075Y-54928089D01*
X105380075Y-54928089D02*
X105332456Y-55118565D01*
X105332456Y-55118565D02*
X105332456Y-55499517D01*
X105332456Y-55499517D02*
X105380075Y-55594755D01*
X105380075Y-55594755D02*
X105427694Y-55642375D01*
X105427694Y-55642375D02*
X105522932Y-55689994D01*
X105522932Y-55689994D02*
X105713408Y-55689994D01*
X105713408Y-55689994D02*
X105808646Y-55642375D01*
X105808646Y-55642375D02*
X105856265Y-55594755D01*
X105856265Y-55594755D02*
X105903884Y-55499517D01*
X105903884Y-55499517D02*
X105903884Y-55261422D01*
X105903884Y-55261422D02*
X105856265Y-55166184D01*
X105856265Y-55166184D02*
X105808646Y-55118565D01*
X105808646Y-55118565D02*
X105713408Y-55070946D01*
X105713408Y-55070946D02*
X105522932Y-55070946D01*
X105522932Y-55070946D02*
X105427694Y-55118565D01*
X105427694Y-55118565D02*
X105380075Y-55166184D01*
X105380075Y-55166184D02*
X105332456Y-55261422D01*
X121156265Y-74958337D02*
X121203884Y-74910718D01*
X121203884Y-74910718D02*
X121299122Y-74863099D01*
X121299122Y-74863099D02*
X121537217Y-74863099D01*
X121537217Y-74863099D02*
X121632455Y-74910718D01*
X121632455Y-74910718D02*
X121680074Y-74958337D01*
X121680074Y-74958337D02*
X121727693Y-75053575D01*
X121727693Y-75053575D02*
X121727693Y-75148813D01*
X121727693Y-75148813D02*
X121680074Y-75291670D01*
X121680074Y-75291670D02*
X121108646Y-75863099D01*
X121108646Y-75863099D02*
X121727693Y-75863099D01*
X122680074Y-75863099D02*
X122108646Y-75863099D01*
X122394360Y-75863099D02*
X122394360Y-74863099D01*
X122394360Y-74863099D02*
X122299122Y-75005956D01*
X122299122Y-75005956D02*
X122203884Y-75101194D01*
X122203884Y-75101194D02*
X122108646Y-75148813D01*
X96732455Y-103096205D02*
X96732455Y-103762872D01*
X96494360Y-102715253D02*
X96256265Y-103429538D01*
X96256265Y-103429538D02*
X96875312Y-103429538D01*
X97161027Y-102762872D02*
X97780074Y-102762872D01*
X97780074Y-102762872D02*
X97446741Y-103143824D01*
X97446741Y-103143824D02*
X97589598Y-103143824D01*
X97589598Y-103143824D02*
X97684836Y-103191443D01*
X97684836Y-103191443D02*
X97732455Y-103239062D01*
X97732455Y-103239062D02*
X97780074Y-103334300D01*
X97780074Y-103334300D02*
X97780074Y-103572395D01*
X97780074Y-103572395D02*
X97732455Y-103667633D01*
X97732455Y-103667633D02*
X97684836Y-103715253D01*
X97684836Y-103715253D02*
X97589598Y-103762872D01*
X97589598Y-103762872D02*
X97303884Y-103762872D01*
X97303884Y-103762872D02*
X97208646Y-103715253D01*
X97208646Y-103715253D02*
X97161027Y-103667633D01*
X96732455Y-105632548D02*
X96732455Y-106299215D01*
X96494360Y-105251596D02*
X96256265Y-105965881D01*
X96256265Y-105965881D02*
X96875312Y-105965881D01*
X97732455Y-105299215D02*
X97256265Y-105299215D01*
X97256265Y-105299215D02*
X97208646Y-105775405D01*
X97208646Y-105775405D02*
X97256265Y-105727786D01*
X97256265Y-105727786D02*
X97351503Y-105680167D01*
X97351503Y-105680167D02*
X97589598Y-105680167D01*
X97589598Y-105680167D02*
X97684836Y-105727786D01*
X97684836Y-105727786D02*
X97732455Y-105775405D01*
X97732455Y-105775405D02*
X97780074Y-105870643D01*
X97780074Y-105870643D02*
X97780074Y-106108738D01*
X97780074Y-106108738D02*
X97732455Y-106203976D01*
X97732455Y-106203976D02*
X97684836Y-106251596D01*
X97684836Y-106251596D02*
X97589598Y-106299215D01*
X97589598Y-106299215D02*
X97351503Y-106299215D01*
X97351503Y-106299215D02*
X97256265Y-106251596D01*
X97256265Y-106251596D02*
X97208646Y-106203976D01*
X155427693Y-63263734D02*
X154856265Y-63263734D01*
X155141979Y-63263734D02*
X155141979Y-62263734D01*
X155141979Y-62263734D02*
X155046741Y-62406591D01*
X155046741Y-62406591D02*
X154951503Y-62501829D01*
X154951503Y-62501829D02*
X154856265Y-62549448D01*
X155808646Y-62358972D02*
X155856265Y-62311353D01*
X155856265Y-62311353D02*
X155951503Y-62263734D01*
X155951503Y-62263734D02*
X156189598Y-62263734D01*
X156189598Y-62263734D02*
X156284836Y-62311353D01*
X156284836Y-62311353D02*
X156332455Y-62358972D01*
X156332455Y-62358972D02*
X156380074Y-62454210D01*
X156380074Y-62454210D02*
X156380074Y-62549448D01*
X156380074Y-62549448D02*
X156332455Y-62692305D01*
X156332455Y-62692305D02*
X155761027Y-63263734D01*
X155761027Y-63263734D02*
X156380074Y-63263734D01*
X104808646Y-84984954D02*
X105427693Y-84984954D01*
X105427693Y-84984954D02*
X105094360Y-85365906D01*
X105094360Y-85365906D02*
X105237217Y-85365906D01*
X105237217Y-85365906D02*
X105332455Y-85413525D01*
X105332455Y-85413525D02*
X105380074Y-85461144D01*
X105380074Y-85461144D02*
X105427693Y-85556382D01*
X105427693Y-85556382D02*
X105427693Y-85794477D01*
X105427693Y-85794477D02*
X105380074Y-85889715D01*
X105380074Y-85889715D02*
X105332455Y-85937335D01*
X105332455Y-85937335D02*
X105237217Y-85984954D01*
X105237217Y-85984954D02*
X104951503Y-85984954D01*
X104951503Y-85984954D02*
X104856265Y-85937335D01*
X104856265Y-85937335D02*
X104808646Y-85889715D01*
X106046741Y-84984954D02*
X106141979Y-84984954D01*
X106141979Y-84984954D02*
X106237217Y-85032573D01*
X106237217Y-85032573D02*
X106284836Y-85080192D01*
X106284836Y-85080192D02*
X106332455Y-85175430D01*
X106332455Y-85175430D02*
X106380074Y-85365906D01*
X106380074Y-85365906D02*
X106380074Y-85604001D01*
X106380074Y-85604001D02*
X106332455Y-85794477D01*
X106332455Y-85794477D02*
X106284836Y-85889715D01*
X106284836Y-85889715D02*
X106237217Y-85937335D01*
X106237217Y-85937335D02*
X106141979Y-85984954D01*
X106141979Y-85984954D02*
X106046741Y-85984954D01*
X106046741Y-85984954D02*
X105951503Y-85937335D01*
X105951503Y-85937335D02*
X105903884Y-85889715D01*
X105903884Y-85889715D02*
X105856265Y-85794477D01*
X105856265Y-85794477D02*
X105808646Y-85604001D01*
X105808646Y-85604001D02*
X105808646Y-85365906D01*
X105808646Y-85365906D02*
X105856265Y-85175430D01*
X105856265Y-85175430D02*
X105903884Y-85080192D01*
X105903884Y-85080192D02*
X105951503Y-85032573D01*
X105951503Y-85032573D02*
X106046741Y-84984954D01*
X121156265Y-77494680D02*
X121203884Y-77447061D01*
X121203884Y-77447061D02*
X121299122Y-77399442D01*
X121299122Y-77399442D02*
X121537217Y-77399442D01*
X121537217Y-77399442D02*
X121632455Y-77447061D01*
X121632455Y-77447061D02*
X121680074Y-77494680D01*
X121680074Y-77494680D02*
X121727693Y-77589918D01*
X121727693Y-77589918D02*
X121727693Y-77685156D01*
X121727693Y-77685156D02*
X121680074Y-77828013D01*
X121680074Y-77828013D02*
X121108646Y-78399442D01*
X121108646Y-78399442D02*
X121727693Y-78399442D01*
X122061027Y-77399442D02*
X122680074Y-77399442D01*
X122680074Y-77399442D02*
X122346741Y-77780394D01*
X122346741Y-77780394D02*
X122489598Y-77780394D01*
X122489598Y-77780394D02*
X122584836Y-77828013D01*
X122584836Y-77828013D02*
X122632455Y-77875632D01*
X122632455Y-77875632D02*
X122680074Y-77970870D01*
X122680074Y-77970870D02*
X122680074Y-78208965D01*
X122680074Y-78208965D02*
X122632455Y-78304203D01*
X122632455Y-78304203D02*
X122584836Y-78351823D01*
X122584836Y-78351823D02*
X122489598Y-78399442D01*
X122489598Y-78399442D02*
X122203884Y-78399442D01*
X122203884Y-78399442D02*
X122108646Y-78351823D01*
X122108646Y-78351823D02*
X122061027Y-78304203D01*
X121632455Y-100559862D02*
X121632455Y-101226529D01*
X121394360Y-100178910D02*
X121156265Y-100893195D01*
X121156265Y-100893195D02*
X121775312Y-100893195D01*
X122680074Y-101226529D02*
X122108646Y-101226529D01*
X122394360Y-101226529D02*
X122394360Y-100226529D01*
X122394360Y-100226529D02*
X122299122Y-100369386D01*
X122299122Y-100369386D02*
X122203884Y-100464624D01*
X122203884Y-100464624D02*
X122108646Y-100512243D01*
X121727694Y-60645041D02*
X121918170Y-60645041D01*
X121918170Y-60645041D02*
X122013408Y-60597422D01*
X122013408Y-60597422D02*
X122061027Y-60549802D01*
X122061027Y-60549802D02*
X122156265Y-60406945D01*
X122156265Y-60406945D02*
X122203884Y-60216469D01*
X122203884Y-60216469D02*
X122203884Y-59835517D01*
X122203884Y-59835517D02*
X122156265Y-59740279D01*
X122156265Y-59740279D02*
X122108646Y-59692660D01*
X122108646Y-59692660D02*
X122013408Y-59645041D01*
X122013408Y-59645041D02*
X121822932Y-59645041D01*
X121822932Y-59645041D02*
X121727694Y-59692660D01*
X121727694Y-59692660D02*
X121680075Y-59740279D01*
X121680075Y-59740279D02*
X121632456Y-59835517D01*
X121632456Y-59835517D02*
X121632456Y-60073612D01*
X121632456Y-60073612D02*
X121680075Y-60168850D01*
X121680075Y-60168850D02*
X121727694Y-60216469D01*
X121727694Y-60216469D02*
X121822932Y-60264088D01*
X121822932Y-60264088D02*
X122013408Y-60264088D01*
X122013408Y-60264088D02*
X122108646Y-60216469D01*
X122108646Y-60216469D02*
X122156265Y-60168850D01*
X122156265Y-60168850D02*
X122203884Y-60073612D01*
X130322932Y-57643145D02*
X130227694Y-57595526D01*
X130227694Y-57595526D02*
X130180075Y-57547907D01*
X130180075Y-57547907D02*
X130132456Y-57452669D01*
X130132456Y-57452669D02*
X130132456Y-57405050D01*
X130132456Y-57405050D02*
X130180075Y-57309812D01*
X130180075Y-57309812D02*
X130227694Y-57262193D01*
X130227694Y-57262193D02*
X130322932Y-57214574D01*
X130322932Y-57214574D02*
X130513408Y-57214574D01*
X130513408Y-57214574D02*
X130608646Y-57262193D01*
X130608646Y-57262193D02*
X130656265Y-57309812D01*
X130656265Y-57309812D02*
X130703884Y-57405050D01*
X130703884Y-57405050D02*
X130703884Y-57452669D01*
X130703884Y-57452669D02*
X130656265Y-57547907D01*
X130656265Y-57547907D02*
X130608646Y-57595526D01*
X130608646Y-57595526D02*
X130513408Y-57643145D01*
X130513408Y-57643145D02*
X130322932Y-57643145D01*
X130322932Y-57643145D02*
X130227694Y-57690764D01*
X130227694Y-57690764D02*
X130180075Y-57738383D01*
X130180075Y-57738383D02*
X130132456Y-57833621D01*
X130132456Y-57833621D02*
X130132456Y-58024097D01*
X130132456Y-58024097D02*
X130180075Y-58119335D01*
X130180075Y-58119335D02*
X130227694Y-58166955D01*
X130227694Y-58166955D02*
X130322932Y-58214574D01*
X130322932Y-58214574D02*
X130513408Y-58214574D01*
X130513408Y-58214574D02*
X130608646Y-58166955D01*
X130608646Y-58166955D02*
X130656265Y-58119335D01*
X130656265Y-58119335D02*
X130703884Y-58024097D01*
X130703884Y-58024097D02*
X130703884Y-57833621D01*
X130703884Y-57833621D02*
X130656265Y-57738383D01*
X130656265Y-57738383D02*
X130608646Y-57690764D01*
X130608646Y-57690764D02*
X130513408Y-57643145D01*
X146156265Y-85103709D02*
X146203884Y-85056090D01*
X146203884Y-85056090D02*
X146299122Y-85008471D01*
X146299122Y-85008471D02*
X146537217Y-85008471D01*
X146537217Y-85008471D02*
X146632455Y-85056090D01*
X146632455Y-85056090D02*
X146680074Y-85103709D01*
X146680074Y-85103709D02*
X146727693Y-85198947D01*
X146727693Y-85198947D02*
X146727693Y-85294185D01*
X146727693Y-85294185D02*
X146680074Y-85437042D01*
X146680074Y-85437042D02*
X146108646Y-86008471D01*
X146108646Y-86008471D02*
X146727693Y-86008471D01*
X147203884Y-86008471D02*
X147394360Y-86008471D01*
X147394360Y-86008471D02*
X147489598Y-85960852D01*
X147489598Y-85960852D02*
X147537217Y-85913232D01*
X147537217Y-85913232D02*
X147632455Y-85770375D01*
X147632455Y-85770375D02*
X147680074Y-85579899D01*
X147680074Y-85579899D02*
X147680074Y-85198947D01*
X147680074Y-85198947D02*
X147632455Y-85103709D01*
X147632455Y-85103709D02*
X147584836Y-85056090D01*
X147584836Y-85056090D02*
X147489598Y-85008471D01*
X147489598Y-85008471D02*
X147299122Y-85008471D01*
X147299122Y-85008471D02*
X147203884Y-85056090D01*
X147203884Y-85056090D02*
X147156265Y-85103709D01*
X147156265Y-85103709D02*
X147108646Y-85198947D01*
X147108646Y-85198947D02*
X147108646Y-85437042D01*
X147108646Y-85437042D02*
X147156265Y-85532280D01*
X147156265Y-85532280D02*
X147203884Y-85579899D01*
X147203884Y-85579899D02*
X147299122Y-85627518D01*
X147299122Y-85627518D02*
X147489598Y-85627518D01*
X147489598Y-85627518D02*
X147584836Y-85579899D01*
X147584836Y-85579899D02*
X147632455Y-85532280D01*
X147632455Y-85532280D02*
X147680074Y-85437042D01*
X146632455Y-108168891D02*
X146632455Y-108835558D01*
X146394360Y-107787939D02*
X146156265Y-108502224D01*
X146156265Y-108502224D02*
X146775312Y-108502224D01*
X147061027Y-107835558D02*
X147727693Y-107835558D01*
X147727693Y-107835558D02*
X147299122Y-108835558D01*
X105808646Y-52498747D02*
X105808646Y-53165414D01*
X105570551Y-52117795D02*
X105332456Y-52832080D01*
X105332456Y-52832080D02*
X105951503Y-52832080D01*
X146632455Y-100559862D02*
X146632455Y-101226529D01*
X146394360Y-100178910D02*
X146156265Y-100893195D01*
X146156265Y-100893195D02*
X146775312Y-100893195D01*
X147680074Y-101226529D02*
X147108646Y-101226529D01*
X147394360Y-101226529D02*
X147394360Y-100226529D01*
X147394360Y-100226529D02*
X147299122Y-100369386D01*
X147299122Y-100369386D02*
X147203884Y-100464624D01*
X147203884Y-100464624D02*
X147108646Y-100512243D01*
X121727693Y-70790413D02*
X121156265Y-70790413D01*
X121441979Y-70790413D02*
X121441979Y-69790413D01*
X121441979Y-69790413D02*
X121346741Y-69933270D01*
X121346741Y-69933270D02*
X121251503Y-70028508D01*
X121251503Y-70028508D02*
X121156265Y-70076127D01*
X122061027Y-69790413D02*
X122727693Y-69790413D01*
X122727693Y-69790413D02*
X122299122Y-70790413D01*
X104856265Y-80031032D02*
X104903884Y-79983413D01*
X104903884Y-79983413D02*
X104999122Y-79935794D01*
X104999122Y-79935794D02*
X105237217Y-79935794D01*
X105237217Y-79935794D02*
X105332455Y-79983413D01*
X105332455Y-79983413D02*
X105380074Y-80031032D01*
X105380074Y-80031032D02*
X105427693Y-80126270D01*
X105427693Y-80126270D02*
X105427693Y-80221508D01*
X105427693Y-80221508D02*
X105380074Y-80364365D01*
X105380074Y-80364365D02*
X104808646Y-80935794D01*
X104808646Y-80935794D02*
X105427693Y-80935794D01*
X106284836Y-79935794D02*
X106094360Y-79935794D01*
X106094360Y-79935794D02*
X105999122Y-79983413D01*
X105999122Y-79983413D02*
X105951503Y-80031032D01*
X105951503Y-80031032D02*
X105856265Y-80173889D01*
X105856265Y-80173889D02*
X105808646Y-80364365D01*
X105808646Y-80364365D02*
X105808646Y-80745317D01*
X105808646Y-80745317D02*
X105856265Y-80840555D01*
X105856265Y-80840555D02*
X105903884Y-80888175D01*
X105903884Y-80888175D02*
X105999122Y-80935794D01*
X105999122Y-80935794D02*
X106189598Y-80935794D01*
X106189598Y-80935794D02*
X106284836Y-80888175D01*
X106284836Y-80888175D02*
X106332455Y-80840555D01*
X106332455Y-80840555D02*
X106380074Y-80745317D01*
X106380074Y-80745317D02*
X106380074Y-80507222D01*
X106380074Y-80507222D02*
X106332455Y-80411984D01*
X106332455Y-80411984D02*
X106284836Y-80364365D01*
X106284836Y-80364365D02*
X106189598Y-80316746D01*
X106189598Y-80316746D02*
X105999122Y-80316746D01*
X105999122Y-80316746D02*
X105903884Y-80364365D01*
X105903884Y-80364365D02*
X105856265Y-80411984D01*
X105856265Y-80411984D02*
X105808646Y-80507222D01*
X154808646Y-90034114D02*
X155427693Y-90034114D01*
X155427693Y-90034114D02*
X155094360Y-90415066D01*
X155094360Y-90415066D02*
X155237217Y-90415066D01*
X155237217Y-90415066D02*
X155332455Y-90462685D01*
X155332455Y-90462685D02*
X155380074Y-90510304D01*
X155380074Y-90510304D02*
X155427693Y-90605542D01*
X155427693Y-90605542D02*
X155427693Y-90843637D01*
X155427693Y-90843637D02*
X155380074Y-90938875D01*
X155380074Y-90938875D02*
X155332455Y-90986495D01*
X155332455Y-90986495D02*
X155237217Y-91034114D01*
X155237217Y-91034114D02*
X154951503Y-91034114D01*
X154951503Y-91034114D02*
X154856265Y-90986495D01*
X154856265Y-90986495D02*
X154808646Y-90938875D01*
X156284836Y-90367447D02*
X156284836Y-91034114D01*
X156046741Y-89986495D02*
X155808646Y-90700780D01*
X155808646Y-90700780D02*
X156427693Y-90700780D01*
X146108646Y-92617500D02*
X146727693Y-92617500D01*
X146727693Y-92617500D02*
X146394360Y-92998452D01*
X146394360Y-92998452D02*
X146537217Y-92998452D01*
X146537217Y-92998452D02*
X146632455Y-93046071D01*
X146632455Y-93046071D02*
X146680074Y-93093690D01*
X146680074Y-93093690D02*
X146727693Y-93188928D01*
X146727693Y-93188928D02*
X146727693Y-93427023D01*
X146727693Y-93427023D02*
X146680074Y-93522261D01*
X146680074Y-93522261D02*
X146632455Y-93569881D01*
X146632455Y-93569881D02*
X146537217Y-93617500D01*
X146537217Y-93617500D02*
X146251503Y-93617500D01*
X146251503Y-93617500D02*
X146156265Y-93569881D01*
X146156265Y-93569881D02*
X146108646Y-93522261D01*
X147632455Y-92617500D02*
X147156265Y-92617500D01*
X147156265Y-92617500D02*
X147108646Y-93093690D01*
X147108646Y-93093690D02*
X147156265Y-93046071D01*
X147156265Y-93046071D02*
X147251503Y-92998452D01*
X147251503Y-92998452D02*
X147489598Y-92998452D01*
X147489598Y-92998452D02*
X147584836Y-93046071D01*
X147584836Y-93046071D02*
X147632455Y-93093690D01*
X147632455Y-93093690D02*
X147680074Y-93188928D01*
X147680074Y-93188928D02*
X147680074Y-93427023D01*
X147680074Y-93427023D02*
X147632455Y-93522261D01*
X147632455Y-93522261D02*
X147584836Y-93569881D01*
X147584836Y-93569881D02*
X147489598Y-93617500D01*
X147489598Y-93617500D02*
X147251503Y-93617500D01*
X147251503Y-93617500D02*
X147156265Y-93569881D01*
X147156265Y-93569881D02*
X147108646Y-93522261D01*
X154856265Y-77506452D02*
X154903884Y-77458833D01*
X154903884Y-77458833D02*
X154999122Y-77411214D01*
X154999122Y-77411214D02*
X155237217Y-77411214D01*
X155237217Y-77411214D02*
X155332455Y-77458833D01*
X155332455Y-77458833D02*
X155380074Y-77506452D01*
X155380074Y-77506452D02*
X155427693Y-77601690D01*
X155427693Y-77601690D02*
X155427693Y-77696928D01*
X155427693Y-77696928D02*
X155380074Y-77839785D01*
X155380074Y-77839785D02*
X154808646Y-78411214D01*
X154808646Y-78411214D02*
X155427693Y-78411214D01*
X156284836Y-77744547D02*
X156284836Y-78411214D01*
X156046741Y-77363595D02*
X155808646Y-78077880D01*
X155808646Y-78077880D02*
X156427693Y-78077880D01*
X96256265Y-77494680D02*
X96303884Y-77447061D01*
X96303884Y-77447061D02*
X96399122Y-77399442D01*
X96399122Y-77399442D02*
X96637217Y-77399442D01*
X96637217Y-77399442D02*
X96732455Y-77447061D01*
X96732455Y-77447061D02*
X96780074Y-77494680D01*
X96780074Y-77494680D02*
X96827693Y-77589918D01*
X96827693Y-77589918D02*
X96827693Y-77685156D01*
X96827693Y-77685156D02*
X96780074Y-77828013D01*
X96780074Y-77828013D02*
X96208646Y-78399442D01*
X96208646Y-78399442D02*
X96827693Y-78399442D01*
X97161027Y-77399442D02*
X97780074Y-77399442D01*
X97780074Y-77399442D02*
X97446741Y-77780394D01*
X97446741Y-77780394D02*
X97589598Y-77780394D01*
X97589598Y-77780394D02*
X97684836Y-77828013D01*
X97684836Y-77828013D02*
X97732455Y-77875632D01*
X97732455Y-77875632D02*
X97780074Y-77970870D01*
X97780074Y-77970870D02*
X97780074Y-78208965D01*
X97780074Y-78208965D02*
X97732455Y-78304203D01*
X97732455Y-78304203D02*
X97684836Y-78351823D01*
X97684836Y-78351823D02*
X97589598Y-78399442D01*
X97589598Y-78399442D02*
X97303884Y-78399442D01*
X97303884Y-78399442D02*
X97208646Y-78351823D01*
X97208646Y-78351823D02*
X97161027Y-78304203D01*
X96208646Y-97690186D02*
X96827693Y-97690186D01*
X96827693Y-97690186D02*
X96494360Y-98071138D01*
X96494360Y-98071138D02*
X96637217Y-98071138D01*
X96637217Y-98071138D02*
X96732455Y-98118757D01*
X96732455Y-98118757D02*
X96780074Y-98166376D01*
X96780074Y-98166376D02*
X96827693Y-98261614D01*
X96827693Y-98261614D02*
X96827693Y-98499709D01*
X96827693Y-98499709D02*
X96780074Y-98594947D01*
X96780074Y-98594947D02*
X96732455Y-98642567D01*
X96732455Y-98642567D02*
X96637217Y-98690186D01*
X96637217Y-98690186D02*
X96351503Y-98690186D01*
X96351503Y-98690186D02*
X96256265Y-98642567D01*
X96256265Y-98642567D02*
X96208646Y-98594947D01*
X97303884Y-98690186D02*
X97494360Y-98690186D01*
X97494360Y-98690186D02*
X97589598Y-98642567D01*
X97589598Y-98642567D02*
X97637217Y-98594947D01*
X97637217Y-98594947D02*
X97732455Y-98452090D01*
X97732455Y-98452090D02*
X97780074Y-98261614D01*
X97780074Y-98261614D02*
X97780074Y-97880662D01*
X97780074Y-97880662D02*
X97732455Y-97785424D01*
X97732455Y-97785424D02*
X97684836Y-97737805D01*
X97684836Y-97737805D02*
X97589598Y-97690186D01*
X97589598Y-97690186D02*
X97399122Y-97690186D01*
X97399122Y-97690186D02*
X97303884Y-97737805D01*
X97303884Y-97737805D02*
X97256265Y-97785424D01*
X97256265Y-97785424D02*
X97208646Y-97880662D01*
X97208646Y-97880662D02*
X97208646Y-98118757D01*
X97208646Y-98118757D02*
X97256265Y-98213995D01*
X97256265Y-98213995D02*
X97303884Y-98261614D01*
X97303884Y-98261614D02*
X97399122Y-98309233D01*
X97399122Y-98309233D02*
X97589598Y-98309233D01*
X97589598Y-98309233D02*
X97684836Y-98261614D01*
X97684836Y-98261614D02*
X97732455Y-98213995D01*
X97732455Y-98213995D02*
X97780074Y-98118757D01*
X155380074Y-110230754D02*
X154903884Y-110230754D01*
X154903884Y-110230754D02*
X154856265Y-110706944D01*
X154856265Y-110706944D02*
X154903884Y-110659325D01*
X154903884Y-110659325D02*
X154999122Y-110611706D01*
X154999122Y-110611706D02*
X155237217Y-110611706D01*
X155237217Y-110611706D02*
X155332455Y-110659325D01*
X155332455Y-110659325D02*
X155380074Y-110706944D01*
X155380074Y-110706944D02*
X155427693Y-110802182D01*
X155427693Y-110802182D02*
X155427693Y-111040277D01*
X155427693Y-111040277D02*
X155380074Y-111135515D01*
X155380074Y-111135515D02*
X155332455Y-111183135D01*
X155332455Y-111183135D02*
X155237217Y-111230754D01*
X155237217Y-111230754D02*
X154999122Y-111230754D01*
X154999122Y-111230754D02*
X154903884Y-111183135D01*
X154903884Y-111183135D02*
X154856265Y-111135515D01*
X156046741Y-110230754D02*
X156141979Y-110230754D01*
X156141979Y-110230754D02*
X156237217Y-110278373D01*
X156237217Y-110278373D02*
X156284836Y-110325992D01*
X156284836Y-110325992D02*
X156332455Y-110421230D01*
X156332455Y-110421230D02*
X156380074Y-110611706D01*
X156380074Y-110611706D02*
X156380074Y-110849801D01*
X156380074Y-110849801D02*
X156332455Y-111040277D01*
X156332455Y-111040277D02*
X156284836Y-111135515D01*
X156284836Y-111135515D02*
X156237217Y-111183135D01*
X156237217Y-111183135D02*
X156141979Y-111230754D01*
X156141979Y-111230754D02*
X156046741Y-111230754D01*
X156046741Y-111230754D02*
X155951503Y-111183135D01*
X155951503Y-111183135D02*
X155903884Y-111135515D01*
X155903884Y-111135515D02*
X155856265Y-111040277D01*
X155856265Y-111040277D02*
X155808646Y-110849801D01*
X155808646Y-110849801D02*
X155808646Y-110611706D01*
X155808646Y-110611706D02*
X155856265Y-110421230D01*
X155856265Y-110421230D02*
X155903884Y-110325992D01*
X155903884Y-110325992D02*
X155951503Y-110278373D01*
X155951503Y-110278373D02*
X156046741Y-110230754D01*
X155427693Y-70837474D02*
X154856265Y-70837474D01*
X155141979Y-70837474D02*
X155141979Y-69837474D01*
X155141979Y-69837474D02*
X155046741Y-69980331D01*
X155046741Y-69980331D02*
X154951503Y-70075569D01*
X154951503Y-70075569D02*
X154856265Y-70123188D01*
X155999122Y-70266045D02*
X155903884Y-70218426D01*
X155903884Y-70218426D02*
X155856265Y-70170807D01*
X155856265Y-70170807D02*
X155808646Y-70075569D01*
X155808646Y-70075569D02*
X155808646Y-70027950D01*
X155808646Y-70027950D02*
X155856265Y-69932712D01*
X155856265Y-69932712D02*
X155903884Y-69885093D01*
X155903884Y-69885093D02*
X155999122Y-69837474D01*
X155999122Y-69837474D02*
X156189598Y-69837474D01*
X156189598Y-69837474D02*
X156284836Y-69885093D01*
X156284836Y-69885093D02*
X156332455Y-69932712D01*
X156332455Y-69932712D02*
X156380074Y-70027950D01*
X156380074Y-70027950D02*
X156380074Y-70075569D01*
X156380074Y-70075569D02*
X156332455Y-70170807D01*
X156332455Y-70170807D02*
X156284836Y-70218426D01*
X156284836Y-70218426D02*
X156189598Y-70266045D01*
X156189598Y-70266045D02*
X155999122Y-70266045D01*
X155999122Y-70266045D02*
X155903884Y-70313664D01*
X155903884Y-70313664D02*
X155856265Y-70361283D01*
X155856265Y-70361283D02*
X155808646Y-70456521D01*
X155808646Y-70456521D02*
X155808646Y-70646997D01*
X155808646Y-70646997D02*
X155856265Y-70742235D01*
X155856265Y-70742235D02*
X155903884Y-70789855D01*
X155903884Y-70789855D02*
X155999122Y-70837474D01*
X155999122Y-70837474D02*
X156189598Y-70837474D01*
X156189598Y-70837474D02*
X156284836Y-70789855D01*
X156284836Y-70789855D02*
X156332455Y-70742235D01*
X156332455Y-70742235D02*
X156380074Y-70646997D01*
X156380074Y-70646997D02*
X156380074Y-70456521D01*
X156380074Y-70456521D02*
X156332455Y-70361283D01*
X156332455Y-70361283D02*
X156284836Y-70313664D01*
X156284836Y-70313664D02*
X156189598Y-70266045D01*
X155332455Y-97941187D02*
X155332455Y-98607854D01*
X155094360Y-97560235D02*
X154856265Y-98274520D01*
X154856265Y-98274520D02*
X155475312Y-98274520D01*
X156046741Y-97607854D02*
X156141979Y-97607854D01*
X156141979Y-97607854D02*
X156237217Y-97655473D01*
X156237217Y-97655473D02*
X156284836Y-97703092D01*
X156284836Y-97703092D02*
X156332455Y-97798330D01*
X156332455Y-97798330D02*
X156380074Y-97988806D01*
X156380074Y-97988806D02*
X156380074Y-98226901D01*
X156380074Y-98226901D02*
X156332455Y-98417377D01*
X156332455Y-98417377D02*
X156284836Y-98512615D01*
X156284836Y-98512615D02*
X156237217Y-98560235D01*
X156237217Y-98560235D02*
X156141979Y-98607854D01*
X156141979Y-98607854D02*
X156046741Y-98607854D01*
X156046741Y-98607854D02*
X155951503Y-98560235D01*
X155951503Y-98560235D02*
X155903884Y-98512615D01*
X155903884Y-98512615D02*
X155856265Y-98417377D01*
X155856265Y-98417377D02*
X155808646Y-98226901D01*
X155808646Y-98226901D02*
X155808646Y-97988806D01*
X155808646Y-97988806D02*
X155856265Y-97798330D01*
X155856265Y-97798330D02*
X155903884Y-97703092D01*
X155903884Y-97703092D02*
X155951503Y-97655473D01*
X155951503Y-97655473D02*
X156046741Y-97607854D01*
X146727694Y-60645041D02*
X146918170Y-60645041D01*
X146918170Y-60645041D02*
X147013408Y-60597422D01*
X147013408Y-60597422D02*
X147061027Y-60549802D01*
X147061027Y-60549802D02*
X147156265Y-60406945D01*
X147156265Y-60406945D02*
X147203884Y-60216469D01*
X147203884Y-60216469D02*
X147203884Y-59835517D01*
X147203884Y-59835517D02*
X147156265Y-59740279D01*
X147156265Y-59740279D02*
X147108646Y-59692660D01*
X147108646Y-59692660D02*
X147013408Y-59645041D01*
X147013408Y-59645041D02*
X146822932Y-59645041D01*
X146822932Y-59645041D02*
X146727694Y-59692660D01*
X146727694Y-59692660D02*
X146680075Y-59740279D01*
X146680075Y-59740279D02*
X146632456Y-59835517D01*
X146632456Y-59835517D02*
X146632456Y-60073612D01*
X146632456Y-60073612D02*
X146680075Y-60168850D01*
X146680075Y-60168850D02*
X146727694Y-60216469D01*
X146727694Y-60216469D02*
X146822932Y-60264088D01*
X146822932Y-60264088D02*
X147013408Y-60264088D01*
X147013408Y-60264088D02*
X147108646Y-60216469D01*
X147108646Y-60216469D02*
X147156265Y-60168850D01*
X147156265Y-60168850D02*
X147203884Y-60073612D01*
X121584837Y-52036012D02*
X122203884Y-52036012D01*
X122203884Y-52036012D02*
X121870551Y-52416964D01*
X121870551Y-52416964D02*
X122013408Y-52416964D01*
X122013408Y-52416964D02*
X122108646Y-52464583D01*
X122108646Y-52464583D02*
X122156265Y-52512202D01*
X122156265Y-52512202D02*
X122203884Y-52607440D01*
X122203884Y-52607440D02*
X122203884Y-52845535D01*
X122203884Y-52845535D02*
X122156265Y-52940773D01*
X122156265Y-52940773D02*
X122108646Y-52988393D01*
X122108646Y-52988393D02*
X122013408Y-53036012D01*
X122013408Y-53036012D02*
X121727694Y-53036012D01*
X121727694Y-53036012D02*
X121632456Y-52988393D01*
X121632456Y-52988393D02*
X121584837Y-52940773D01*
X104808646Y-92558694D02*
X105427693Y-92558694D01*
X105427693Y-92558694D02*
X105094360Y-92939646D01*
X105094360Y-92939646D02*
X105237217Y-92939646D01*
X105237217Y-92939646D02*
X105332455Y-92987265D01*
X105332455Y-92987265D02*
X105380074Y-93034884D01*
X105380074Y-93034884D02*
X105427693Y-93130122D01*
X105427693Y-93130122D02*
X105427693Y-93368217D01*
X105427693Y-93368217D02*
X105380074Y-93463455D01*
X105380074Y-93463455D02*
X105332455Y-93511075D01*
X105332455Y-93511075D02*
X105237217Y-93558694D01*
X105237217Y-93558694D02*
X104951503Y-93558694D01*
X104951503Y-93558694D02*
X104856265Y-93511075D01*
X104856265Y-93511075D02*
X104808646Y-93463455D01*
X106284836Y-92558694D02*
X106094360Y-92558694D01*
X106094360Y-92558694D02*
X105999122Y-92606313D01*
X105999122Y-92606313D02*
X105951503Y-92653932D01*
X105951503Y-92653932D02*
X105856265Y-92796789D01*
X105856265Y-92796789D02*
X105808646Y-92987265D01*
X105808646Y-92987265D02*
X105808646Y-93368217D01*
X105808646Y-93368217D02*
X105856265Y-93463455D01*
X105856265Y-93463455D02*
X105903884Y-93511075D01*
X105903884Y-93511075D02*
X105999122Y-93558694D01*
X105999122Y-93558694D02*
X106189598Y-93558694D01*
X106189598Y-93558694D02*
X106284836Y-93511075D01*
X106284836Y-93511075D02*
X106332455Y-93463455D01*
X106332455Y-93463455D02*
X106380074Y-93368217D01*
X106380074Y-93368217D02*
X106380074Y-93130122D01*
X106380074Y-93130122D02*
X106332455Y-93034884D01*
X106332455Y-93034884D02*
X106284836Y-92987265D01*
X106284836Y-92987265D02*
X106189598Y-92939646D01*
X106189598Y-92939646D02*
X105999122Y-92939646D01*
X105999122Y-92939646D02*
X105903884Y-92987265D01*
X105903884Y-92987265D02*
X105856265Y-93034884D01*
X105856265Y-93034884D02*
X105808646Y-93130122D01*
X154856265Y-80031032D02*
X154903884Y-79983413D01*
X154903884Y-79983413D02*
X154999122Y-79935794D01*
X154999122Y-79935794D02*
X155237217Y-79935794D01*
X155237217Y-79935794D02*
X155332455Y-79983413D01*
X155332455Y-79983413D02*
X155380074Y-80031032D01*
X155380074Y-80031032D02*
X155427693Y-80126270D01*
X155427693Y-80126270D02*
X155427693Y-80221508D01*
X155427693Y-80221508D02*
X155380074Y-80364365D01*
X155380074Y-80364365D02*
X154808646Y-80935794D01*
X154808646Y-80935794D02*
X155427693Y-80935794D01*
X156284836Y-79935794D02*
X156094360Y-79935794D01*
X156094360Y-79935794D02*
X155999122Y-79983413D01*
X155999122Y-79983413D02*
X155951503Y-80031032D01*
X155951503Y-80031032D02*
X155856265Y-80173889D01*
X155856265Y-80173889D02*
X155808646Y-80364365D01*
X155808646Y-80364365D02*
X155808646Y-80745317D01*
X155808646Y-80745317D02*
X155856265Y-80840555D01*
X155856265Y-80840555D02*
X155903884Y-80888175D01*
X155903884Y-80888175D02*
X155999122Y-80935794D01*
X155999122Y-80935794D02*
X156189598Y-80935794D01*
X156189598Y-80935794D02*
X156284836Y-80888175D01*
X156284836Y-80888175D02*
X156332455Y-80840555D01*
X156332455Y-80840555D02*
X156380074Y-80745317D01*
X156380074Y-80745317D02*
X156380074Y-80507222D01*
X156380074Y-80507222D02*
X156332455Y-80411984D01*
X156332455Y-80411984D02*
X156284836Y-80364365D01*
X156284836Y-80364365D02*
X156189598Y-80316746D01*
X156189598Y-80316746D02*
X155999122Y-80316746D01*
X155999122Y-80316746D02*
X155903884Y-80364365D01*
X155903884Y-80364365D02*
X155856265Y-80411984D01*
X155856265Y-80411984D02*
X155808646Y-80507222D01*
X155808646Y-54689994D02*
X155618170Y-54689994D01*
X155618170Y-54689994D02*
X155522932Y-54737613D01*
X155522932Y-54737613D02*
X155475313Y-54785232D01*
X155475313Y-54785232D02*
X155380075Y-54928089D01*
X155380075Y-54928089D02*
X155332456Y-55118565D01*
X155332456Y-55118565D02*
X155332456Y-55499517D01*
X155332456Y-55499517D02*
X155380075Y-55594755D01*
X155380075Y-55594755D02*
X155427694Y-55642375D01*
X155427694Y-55642375D02*
X155522932Y-55689994D01*
X155522932Y-55689994D02*
X155713408Y-55689994D01*
X155713408Y-55689994D02*
X155808646Y-55642375D01*
X155808646Y-55642375D02*
X155856265Y-55594755D01*
X155856265Y-55594755D02*
X155903884Y-55499517D01*
X155903884Y-55499517D02*
X155903884Y-55261422D01*
X155903884Y-55261422D02*
X155856265Y-55166184D01*
X155856265Y-55166184D02*
X155808646Y-55118565D01*
X155808646Y-55118565D02*
X155713408Y-55070946D01*
X155713408Y-55070946D02*
X155522932Y-55070946D01*
X155522932Y-55070946D02*
X155427694Y-55118565D01*
X155427694Y-55118565D02*
X155380075Y-55166184D01*
X155380075Y-55166184D02*
X155332456Y-55261422D01*
X129656265Y-82555612D02*
X129703884Y-82507993D01*
X129703884Y-82507993D02*
X129799122Y-82460374D01*
X129799122Y-82460374D02*
X130037217Y-82460374D01*
X130037217Y-82460374D02*
X130132455Y-82507993D01*
X130132455Y-82507993D02*
X130180074Y-82555612D01*
X130180074Y-82555612D02*
X130227693Y-82650850D01*
X130227693Y-82650850D02*
X130227693Y-82746088D01*
X130227693Y-82746088D02*
X130180074Y-82888945D01*
X130180074Y-82888945D02*
X129608646Y-83460374D01*
X129608646Y-83460374D02*
X130227693Y-83460374D01*
X130799122Y-82888945D02*
X130703884Y-82841326D01*
X130703884Y-82841326D02*
X130656265Y-82793707D01*
X130656265Y-82793707D02*
X130608646Y-82698469D01*
X130608646Y-82698469D02*
X130608646Y-82650850D01*
X130608646Y-82650850D02*
X130656265Y-82555612D01*
X130656265Y-82555612D02*
X130703884Y-82507993D01*
X130703884Y-82507993D02*
X130799122Y-82460374D01*
X130799122Y-82460374D02*
X130989598Y-82460374D01*
X130989598Y-82460374D02*
X131084836Y-82507993D01*
X131084836Y-82507993D02*
X131132455Y-82555612D01*
X131132455Y-82555612D02*
X131180074Y-82650850D01*
X131180074Y-82650850D02*
X131180074Y-82698469D01*
X131180074Y-82698469D02*
X131132455Y-82793707D01*
X131132455Y-82793707D02*
X131084836Y-82841326D01*
X131084836Y-82841326D02*
X130989598Y-82888945D01*
X130989598Y-82888945D02*
X130799122Y-82888945D01*
X130799122Y-82888945D02*
X130703884Y-82936564D01*
X130703884Y-82936564D02*
X130656265Y-82984183D01*
X130656265Y-82984183D02*
X130608646Y-83079421D01*
X130608646Y-83079421D02*
X130608646Y-83269897D01*
X130608646Y-83269897D02*
X130656265Y-83365135D01*
X130656265Y-83365135D02*
X130703884Y-83412755D01*
X130703884Y-83412755D02*
X130799122Y-83460374D01*
X130799122Y-83460374D02*
X130989598Y-83460374D01*
X130989598Y-83460374D02*
X131084836Y-83412755D01*
X131084836Y-83412755D02*
X131132455Y-83365135D01*
X131132455Y-83365135D02*
X131180074Y-83269897D01*
X131180074Y-83269897D02*
X131180074Y-83079421D01*
X131180074Y-83079421D02*
X131132455Y-82984183D01*
X131132455Y-82984183D02*
X131084836Y-82936564D01*
X131084836Y-82936564D02*
X130989598Y-82888945D01*
X104856265Y-82555612D02*
X104903884Y-82507993D01*
X104903884Y-82507993D02*
X104999122Y-82460374D01*
X104999122Y-82460374D02*
X105237217Y-82460374D01*
X105237217Y-82460374D02*
X105332455Y-82507993D01*
X105332455Y-82507993D02*
X105380074Y-82555612D01*
X105380074Y-82555612D02*
X105427693Y-82650850D01*
X105427693Y-82650850D02*
X105427693Y-82746088D01*
X105427693Y-82746088D02*
X105380074Y-82888945D01*
X105380074Y-82888945D02*
X104808646Y-83460374D01*
X104808646Y-83460374D02*
X105427693Y-83460374D01*
X105999122Y-82888945D02*
X105903884Y-82841326D01*
X105903884Y-82841326D02*
X105856265Y-82793707D01*
X105856265Y-82793707D02*
X105808646Y-82698469D01*
X105808646Y-82698469D02*
X105808646Y-82650850D01*
X105808646Y-82650850D02*
X105856265Y-82555612D01*
X105856265Y-82555612D02*
X105903884Y-82507993D01*
X105903884Y-82507993D02*
X105999122Y-82460374D01*
X105999122Y-82460374D02*
X106189598Y-82460374D01*
X106189598Y-82460374D02*
X106284836Y-82507993D01*
X106284836Y-82507993D02*
X106332455Y-82555612D01*
X106332455Y-82555612D02*
X106380074Y-82650850D01*
X106380074Y-82650850D02*
X106380074Y-82698469D01*
X106380074Y-82698469D02*
X106332455Y-82793707D01*
X106332455Y-82793707D02*
X106284836Y-82841326D01*
X106284836Y-82841326D02*
X106189598Y-82888945D01*
X106189598Y-82888945D02*
X105999122Y-82888945D01*
X105999122Y-82888945D02*
X105903884Y-82936564D01*
X105903884Y-82936564D02*
X105856265Y-82984183D01*
X105856265Y-82984183D02*
X105808646Y-83079421D01*
X105808646Y-83079421D02*
X105808646Y-83269897D01*
X105808646Y-83269897D02*
X105856265Y-83365135D01*
X105856265Y-83365135D02*
X105903884Y-83412755D01*
X105903884Y-83412755D02*
X105999122Y-83460374D01*
X105999122Y-83460374D02*
X106189598Y-83460374D01*
X106189598Y-83460374D02*
X106284836Y-83412755D01*
X106284836Y-83412755D02*
X106332455Y-83365135D01*
X106332455Y-83365135D02*
X106380074Y-83269897D01*
X106380074Y-83269897D02*
X106380074Y-83079421D01*
X106380074Y-83079421D02*
X106332455Y-82984183D01*
X106332455Y-82984183D02*
X106284836Y-82936564D01*
X106284836Y-82936564D02*
X106189598Y-82888945D01*
X96732455Y-110705252D02*
X96732455Y-111371919D01*
X96494360Y-110324300D02*
X96256265Y-111038585D01*
X96256265Y-111038585D02*
X96875312Y-111038585D01*
X97303884Y-111371919D02*
X97494360Y-111371919D01*
X97494360Y-111371919D02*
X97589598Y-111324300D01*
X97589598Y-111324300D02*
X97637217Y-111276680D01*
X97637217Y-111276680D02*
X97732455Y-111133823D01*
X97732455Y-111133823D02*
X97780074Y-110943347D01*
X97780074Y-110943347D02*
X97780074Y-110562395D01*
X97780074Y-110562395D02*
X97732455Y-110467157D01*
X97732455Y-110467157D02*
X97684836Y-110419538D01*
X97684836Y-110419538D02*
X97589598Y-110371919D01*
X97589598Y-110371919D02*
X97399122Y-110371919D01*
X97399122Y-110371919D02*
X97303884Y-110419538D01*
X97303884Y-110419538D02*
X97256265Y-110467157D01*
X97256265Y-110467157D02*
X97208646Y-110562395D01*
X97208646Y-110562395D02*
X97208646Y-110800490D01*
X97208646Y-110800490D02*
X97256265Y-110895728D01*
X97256265Y-110895728D02*
X97303884Y-110943347D01*
X97303884Y-110943347D02*
X97399122Y-110990966D01*
X97399122Y-110990966D02*
X97589598Y-110990966D01*
X97589598Y-110990966D02*
X97684836Y-110943347D01*
X97684836Y-110943347D02*
X97732455Y-110895728D01*
X97732455Y-110895728D02*
X97780074Y-110800490D01*
X104856265Y-77506452D02*
X104903884Y-77458833D01*
X104903884Y-77458833D02*
X104999122Y-77411214D01*
X104999122Y-77411214D02*
X105237217Y-77411214D01*
X105237217Y-77411214D02*
X105332455Y-77458833D01*
X105332455Y-77458833D02*
X105380074Y-77506452D01*
X105380074Y-77506452D02*
X105427693Y-77601690D01*
X105427693Y-77601690D02*
X105427693Y-77696928D01*
X105427693Y-77696928D02*
X105380074Y-77839785D01*
X105380074Y-77839785D02*
X104808646Y-78411214D01*
X104808646Y-78411214D02*
X105427693Y-78411214D01*
X106284836Y-77744547D02*
X106284836Y-78411214D01*
X106046741Y-77363595D02*
X105808646Y-78077880D01*
X105808646Y-78077880D02*
X106427693Y-78077880D01*
X154856265Y-72457292D02*
X154903884Y-72409673D01*
X154903884Y-72409673D02*
X154999122Y-72362054D01*
X154999122Y-72362054D02*
X155237217Y-72362054D01*
X155237217Y-72362054D02*
X155332455Y-72409673D01*
X155332455Y-72409673D02*
X155380074Y-72457292D01*
X155380074Y-72457292D02*
X155427693Y-72552530D01*
X155427693Y-72552530D02*
X155427693Y-72647768D01*
X155427693Y-72647768D02*
X155380074Y-72790625D01*
X155380074Y-72790625D02*
X154808646Y-73362054D01*
X154808646Y-73362054D02*
X155427693Y-73362054D01*
X156046741Y-72362054D02*
X156141979Y-72362054D01*
X156141979Y-72362054D02*
X156237217Y-72409673D01*
X156237217Y-72409673D02*
X156284836Y-72457292D01*
X156284836Y-72457292D02*
X156332455Y-72552530D01*
X156332455Y-72552530D02*
X156380074Y-72743006D01*
X156380074Y-72743006D02*
X156380074Y-72981101D01*
X156380074Y-72981101D02*
X156332455Y-73171577D01*
X156332455Y-73171577D02*
X156284836Y-73266815D01*
X156284836Y-73266815D02*
X156237217Y-73314435D01*
X156237217Y-73314435D02*
X156141979Y-73362054D01*
X156141979Y-73362054D02*
X156046741Y-73362054D01*
X156046741Y-73362054D02*
X155951503Y-73314435D01*
X155951503Y-73314435D02*
X155903884Y-73266815D01*
X155903884Y-73266815D02*
X155856265Y-73171577D01*
X155856265Y-73171577D02*
X155808646Y-72981101D01*
X155808646Y-72981101D02*
X155808646Y-72743006D01*
X155808646Y-72743006D02*
X155856265Y-72552530D01*
X155856265Y-72552530D02*
X155903884Y-72457292D01*
X155903884Y-72457292D02*
X155951503Y-72409673D01*
X155951503Y-72409673D02*
X156046741Y-72362054D01*
X96208646Y-95153843D02*
X96827693Y-95153843D01*
X96827693Y-95153843D02*
X96494360Y-95534795D01*
X96494360Y-95534795D02*
X96637217Y-95534795D01*
X96637217Y-95534795D02*
X96732455Y-95582414D01*
X96732455Y-95582414D02*
X96780074Y-95630033D01*
X96780074Y-95630033D02*
X96827693Y-95725271D01*
X96827693Y-95725271D02*
X96827693Y-95963366D01*
X96827693Y-95963366D02*
X96780074Y-96058604D01*
X96780074Y-96058604D02*
X96732455Y-96106224D01*
X96732455Y-96106224D02*
X96637217Y-96153843D01*
X96637217Y-96153843D02*
X96351503Y-96153843D01*
X96351503Y-96153843D02*
X96256265Y-96106224D01*
X96256265Y-96106224D02*
X96208646Y-96058604D01*
X97161027Y-95153843D02*
X97827693Y-95153843D01*
X97827693Y-95153843D02*
X97399122Y-96153843D01*
X154808646Y-84984954D02*
X155427693Y-84984954D01*
X155427693Y-84984954D02*
X155094360Y-85365906D01*
X155094360Y-85365906D02*
X155237217Y-85365906D01*
X155237217Y-85365906D02*
X155332455Y-85413525D01*
X155332455Y-85413525D02*
X155380074Y-85461144D01*
X155380074Y-85461144D02*
X155427693Y-85556382D01*
X155427693Y-85556382D02*
X155427693Y-85794477D01*
X155427693Y-85794477D02*
X155380074Y-85889715D01*
X155380074Y-85889715D02*
X155332455Y-85937335D01*
X155332455Y-85937335D02*
X155237217Y-85984954D01*
X155237217Y-85984954D02*
X154951503Y-85984954D01*
X154951503Y-85984954D02*
X154856265Y-85937335D01*
X154856265Y-85937335D02*
X154808646Y-85889715D01*
X156046741Y-84984954D02*
X156141979Y-84984954D01*
X156141979Y-84984954D02*
X156237217Y-85032573D01*
X156237217Y-85032573D02*
X156284836Y-85080192D01*
X156284836Y-85080192D02*
X156332455Y-85175430D01*
X156332455Y-85175430D02*
X156380074Y-85365906D01*
X156380074Y-85365906D02*
X156380074Y-85604001D01*
X156380074Y-85604001D02*
X156332455Y-85794477D01*
X156332455Y-85794477D02*
X156284836Y-85889715D01*
X156284836Y-85889715D02*
X156237217Y-85937335D01*
X156237217Y-85937335D02*
X156141979Y-85984954D01*
X156141979Y-85984954D02*
X156046741Y-85984954D01*
X156046741Y-85984954D02*
X155951503Y-85937335D01*
X155951503Y-85937335D02*
X155903884Y-85889715D01*
X155903884Y-85889715D02*
X155856265Y-85794477D01*
X155856265Y-85794477D02*
X155808646Y-85604001D01*
X155808646Y-85604001D02*
X155808646Y-85365906D01*
X155808646Y-85365906D02*
X155856265Y-85175430D01*
X155856265Y-85175430D02*
X155903884Y-85080192D01*
X155903884Y-85080192D02*
X155951503Y-85032573D01*
X155951503Y-85032573D02*
X156046741Y-84984954D01*
X96256265Y-74958337D02*
X96303884Y-74910718D01*
X96303884Y-74910718D02*
X96399122Y-74863099D01*
X96399122Y-74863099D02*
X96637217Y-74863099D01*
X96637217Y-74863099D02*
X96732455Y-74910718D01*
X96732455Y-74910718D02*
X96780074Y-74958337D01*
X96780074Y-74958337D02*
X96827693Y-75053575D01*
X96827693Y-75053575D02*
X96827693Y-75148813D01*
X96827693Y-75148813D02*
X96780074Y-75291670D01*
X96780074Y-75291670D02*
X96208646Y-75863099D01*
X96208646Y-75863099D02*
X96827693Y-75863099D01*
X97780074Y-75863099D02*
X97208646Y-75863099D01*
X97494360Y-75863099D02*
X97494360Y-74863099D01*
X97494360Y-74863099D02*
X97399122Y-75005956D01*
X97399122Y-75005956D02*
X97303884Y-75101194D01*
X97303884Y-75101194D02*
X97208646Y-75148813D01*
X96827693Y-65717727D02*
X96256265Y-65717727D01*
X96541979Y-65717727D02*
X96541979Y-64717727D01*
X96541979Y-64717727D02*
X96446741Y-64860584D01*
X96446741Y-64860584D02*
X96351503Y-64955822D01*
X96351503Y-64955822D02*
X96256265Y-65003441D01*
X97161027Y-64717727D02*
X97780074Y-64717727D01*
X97780074Y-64717727D02*
X97446741Y-65098679D01*
X97446741Y-65098679D02*
X97589598Y-65098679D01*
X97589598Y-65098679D02*
X97684836Y-65146298D01*
X97684836Y-65146298D02*
X97732455Y-65193917D01*
X97732455Y-65193917D02*
X97780074Y-65289155D01*
X97780074Y-65289155D02*
X97780074Y-65527250D01*
X97780074Y-65527250D02*
X97732455Y-65622488D01*
X97732455Y-65622488D02*
X97684836Y-65670108D01*
X97684836Y-65670108D02*
X97589598Y-65717727D01*
X97589598Y-65717727D02*
X97303884Y-65717727D01*
X97303884Y-65717727D02*
X97208646Y-65670108D01*
X97208646Y-65670108D02*
X97161027Y-65622488D01*
X121584837Y-57108698D02*
X122251503Y-57108698D01*
X122251503Y-57108698D02*
X121822932Y-58108698D01*
X130227693Y-65788314D02*
X129656265Y-65788314D01*
X129941979Y-65788314D02*
X129941979Y-64788314D01*
X129941979Y-64788314D02*
X129846741Y-64931171D01*
X129846741Y-64931171D02*
X129751503Y-65026409D01*
X129751503Y-65026409D02*
X129656265Y-65074028D01*
X131084836Y-65121647D02*
X131084836Y-65788314D01*
X130846741Y-64740695D02*
X130608646Y-65454980D01*
X130608646Y-65454980D02*
X131227693Y-65454980D01*
X130227693Y-68312894D02*
X129656265Y-68312894D01*
X129941979Y-68312894D02*
X129941979Y-67312894D01*
X129941979Y-67312894D02*
X129846741Y-67455751D01*
X129846741Y-67455751D02*
X129751503Y-67550989D01*
X129751503Y-67550989D02*
X129656265Y-67598608D01*
X131084836Y-67312894D02*
X130894360Y-67312894D01*
X130894360Y-67312894D02*
X130799122Y-67360513D01*
X130799122Y-67360513D02*
X130751503Y-67408132D01*
X130751503Y-67408132D02*
X130656265Y-67550989D01*
X130656265Y-67550989D02*
X130608646Y-67741465D01*
X130608646Y-67741465D02*
X130608646Y-68122417D01*
X130608646Y-68122417D02*
X130656265Y-68217655D01*
X130656265Y-68217655D02*
X130703884Y-68265275D01*
X130703884Y-68265275D02*
X130799122Y-68312894D01*
X130799122Y-68312894D02*
X130989598Y-68312894D01*
X130989598Y-68312894D02*
X131084836Y-68265275D01*
X131084836Y-68265275D02*
X131132455Y-68217655D01*
X131132455Y-68217655D02*
X131180074Y-68122417D01*
X131180074Y-68122417D02*
X131180074Y-67884322D01*
X131180074Y-67884322D02*
X131132455Y-67789084D01*
X131132455Y-67789084D02*
X131084836Y-67741465D01*
X131084836Y-67741465D02*
X130989598Y-67693846D01*
X130989598Y-67693846D02*
X130799122Y-67693846D01*
X130799122Y-67693846D02*
X130703884Y-67741465D01*
X130703884Y-67741465D02*
X130656265Y-67789084D01*
X130656265Y-67789084D02*
X130608646Y-67884322D01*
X121727693Y-68254070D02*
X121156265Y-68254070D01*
X121441979Y-68254070D02*
X121441979Y-67254070D01*
X121441979Y-67254070D02*
X121346741Y-67396927D01*
X121346741Y-67396927D02*
X121251503Y-67492165D01*
X121251503Y-67492165D02*
X121156265Y-67539784D01*
X122632455Y-67254070D02*
X122156265Y-67254070D01*
X122156265Y-67254070D02*
X122108646Y-67730260D01*
X122108646Y-67730260D02*
X122156265Y-67682641D01*
X122156265Y-67682641D02*
X122251503Y-67635022D01*
X122251503Y-67635022D02*
X122489598Y-67635022D01*
X122489598Y-67635022D02*
X122584836Y-67682641D01*
X122584836Y-67682641D02*
X122632455Y-67730260D01*
X122632455Y-67730260D02*
X122680074Y-67825498D01*
X122680074Y-67825498D02*
X122680074Y-68063593D01*
X122680074Y-68063593D02*
X122632455Y-68158831D01*
X122632455Y-68158831D02*
X122584836Y-68206451D01*
X122584836Y-68206451D02*
X122489598Y-68254070D01*
X122489598Y-68254070D02*
X122251503Y-68254070D01*
X122251503Y-68254070D02*
X122156265Y-68206451D01*
X122156265Y-68206451D02*
X122108646Y-68158831D01*
X121632455Y-105632548D02*
X121632455Y-106299215D01*
X121394360Y-105251596D02*
X121156265Y-105965881D01*
X121156265Y-105965881D02*
X121775312Y-105965881D01*
X122632455Y-105299215D02*
X122156265Y-105299215D01*
X122156265Y-105299215D02*
X122108646Y-105775405D01*
X122108646Y-105775405D02*
X122156265Y-105727786D01*
X122156265Y-105727786D02*
X122251503Y-105680167D01*
X122251503Y-105680167D02*
X122489598Y-105680167D01*
X122489598Y-105680167D02*
X122584836Y-105727786D01*
X122584836Y-105727786D02*
X122632455Y-105775405D01*
X122632455Y-105775405D02*
X122680074Y-105870643D01*
X122680074Y-105870643D02*
X122680074Y-106108738D01*
X122680074Y-106108738D02*
X122632455Y-106203976D01*
X122632455Y-106203976D02*
X122584836Y-106251596D01*
X122584836Y-106251596D02*
X122489598Y-106299215D01*
X122489598Y-106299215D02*
X122251503Y-106299215D01*
X122251503Y-106299215D02*
X122156265Y-106251596D01*
X122156265Y-106251596D02*
X122108646Y-106203976D01*
X105332455Y-100465767D02*
X105332455Y-101132434D01*
X105094360Y-100084815D02*
X104856265Y-100799100D01*
X104856265Y-100799100D02*
X105475312Y-100799100D01*
X105808646Y-100227672D02*
X105856265Y-100180053D01*
X105856265Y-100180053D02*
X105951503Y-100132434D01*
X105951503Y-100132434D02*
X106189598Y-100132434D01*
X106189598Y-100132434D02*
X106284836Y-100180053D01*
X106284836Y-100180053D02*
X106332455Y-100227672D01*
X106332455Y-100227672D02*
X106380074Y-100322910D01*
X106380074Y-100322910D02*
X106380074Y-100418148D01*
X106380074Y-100418148D02*
X106332455Y-100561005D01*
X106332455Y-100561005D02*
X105761027Y-101132434D01*
X105761027Y-101132434D02*
X106380074Y-101132434D01*
X96827694Y-60645041D02*
X97018170Y-60645041D01*
X97018170Y-60645041D02*
X97113408Y-60597422D01*
X97113408Y-60597422D02*
X97161027Y-60549802D01*
X97161027Y-60549802D02*
X97256265Y-60406945D01*
X97256265Y-60406945D02*
X97303884Y-60216469D01*
X97303884Y-60216469D02*
X97303884Y-59835517D01*
X97303884Y-59835517D02*
X97256265Y-59740279D01*
X97256265Y-59740279D02*
X97208646Y-59692660D01*
X97208646Y-59692660D02*
X97113408Y-59645041D01*
X97113408Y-59645041D02*
X96922932Y-59645041D01*
X96922932Y-59645041D02*
X96827694Y-59692660D01*
X96827694Y-59692660D02*
X96780075Y-59740279D01*
X96780075Y-59740279D02*
X96732456Y-59835517D01*
X96732456Y-59835517D02*
X96732456Y-60073612D01*
X96732456Y-60073612D02*
X96780075Y-60168850D01*
X96780075Y-60168850D02*
X96827694Y-60216469D01*
X96827694Y-60216469D02*
X96922932Y-60264088D01*
X96922932Y-60264088D02*
X97113408Y-60264088D01*
X97113408Y-60264088D02*
X97208646Y-60216469D01*
X97208646Y-60216469D02*
X97256265Y-60168850D01*
X97256265Y-60168850D02*
X97303884Y-60073612D01*
X129608646Y-90034114D02*
X130227693Y-90034114D01*
X130227693Y-90034114D02*
X129894360Y-90415066D01*
X129894360Y-90415066D02*
X130037217Y-90415066D01*
X130037217Y-90415066D02*
X130132455Y-90462685D01*
X130132455Y-90462685D02*
X130180074Y-90510304D01*
X130180074Y-90510304D02*
X130227693Y-90605542D01*
X130227693Y-90605542D02*
X130227693Y-90843637D01*
X130227693Y-90843637D02*
X130180074Y-90938875D01*
X130180074Y-90938875D02*
X130132455Y-90986495D01*
X130132455Y-90986495D02*
X130037217Y-91034114D01*
X130037217Y-91034114D02*
X129751503Y-91034114D01*
X129751503Y-91034114D02*
X129656265Y-90986495D01*
X129656265Y-90986495D02*
X129608646Y-90938875D01*
X131084836Y-90367447D02*
X131084836Y-91034114D01*
X130846741Y-89986495D02*
X130608646Y-90700780D01*
X130608646Y-90700780D02*
X131227693Y-90700780D01*
X121108646Y-92617500D02*
X121727693Y-92617500D01*
X121727693Y-92617500D02*
X121394360Y-92998452D01*
X121394360Y-92998452D02*
X121537217Y-92998452D01*
X121537217Y-92998452D02*
X121632455Y-93046071D01*
X121632455Y-93046071D02*
X121680074Y-93093690D01*
X121680074Y-93093690D02*
X121727693Y-93188928D01*
X121727693Y-93188928D02*
X121727693Y-93427023D01*
X121727693Y-93427023D02*
X121680074Y-93522261D01*
X121680074Y-93522261D02*
X121632455Y-93569881D01*
X121632455Y-93569881D02*
X121537217Y-93617500D01*
X121537217Y-93617500D02*
X121251503Y-93617500D01*
X121251503Y-93617500D02*
X121156265Y-93569881D01*
X121156265Y-93569881D02*
X121108646Y-93522261D01*
X122632455Y-92617500D02*
X122156265Y-92617500D01*
X122156265Y-92617500D02*
X122108646Y-93093690D01*
X122108646Y-93093690D02*
X122156265Y-93046071D01*
X122156265Y-93046071D02*
X122251503Y-92998452D01*
X122251503Y-92998452D02*
X122489598Y-92998452D01*
X122489598Y-92998452D02*
X122584836Y-93046071D01*
X122584836Y-93046071D02*
X122632455Y-93093690D01*
X122632455Y-93093690D02*
X122680074Y-93188928D01*
X122680074Y-93188928D02*
X122680074Y-93427023D01*
X122680074Y-93427023D02*
X122632455Y-93522261D01*
X122632455Y-93522261D02*
X122584836Y-93569881D01*
X122584836Y-93569881D02*
X122489598Y-93617500D01*
X122489598Y-93617500D02*
X122251503Y-93617500D01*
X122251503Y-93617500D02*
X122156265Y-93569881D01*
X122156265Y-93569881D02*
X122108646Y-93522261D01*
X146727693Y-73326756D02*
X146156265Y-73326756D01*
X146441979Y-73326756D02*
X146441979Y-72326756D01*
X146441979Y-72326756D02*
X146346741Y-72469613D01*
X146346741Y-72469613D02*
X146251503Y-72564851D01*
X146251503Y-72564851D02*
X146156265Y-72612470D01*
X147203884Y-73326756D02*
X147394360Y-73326756D01*
X147394360Y-73326756D02*
X147489598Y-73279137D01*
X147489598Y-73279137D02*
X147537217Y-73231517D01*
X147537217Y-73231517D02*
X147632455Y-73088660D01*
X147632455Y-73088660D02*
X147680074Y-72898184D01*
X147680074Y-72898184D02*
X147680074Y-72517232D01*
X147680074Y-72517232D02*
X147632455Y-72421994D01*
X147632455Y-72421994D02*
X147584836Y-72374375D01*
X147584836Y-72374375D02*
X147489598Y-72326756D01*
X147489598Y-72326756D02*
X147299122Y-72326756D01*
X147299122Y-72326756D02*
X147203884Y-72374375D01*
X147203884Y-72374375D02*
X147156265Y-72421994D01*
X147156265Y-72421994D02*
X147108646Y-72517232D01*
X147108646Y-72517232D02*
X147108646Y-72755327D01*
X147108646Y-72755327D02*
X147156265Y-72850565D01*
X147156265Y-72850565D02*
X147203884Y-72898184D01*
X147203884Y-72898184D02*
X147299122Y-72945803D01*
X147299122Y-72945803D02*
X147489598Y-72945803D01*
X147489598Y-72945803D02*
X147584836Y-72898184D01*
X147584836Y-72898184D02*
X147632455Y-72850565D01*
X147632455Y-72850565D02*
X147680074Y-72755327D01*
X96256265Y-85103709D02*
X96303884Y-85056090D01*
X96303884Y-85056090D02*
X96399122Y-85008471D01*
X96399122Y-85008471D02*
X96637217Y-85008471D01*
X96637217Y-85008471D02*
X96732455Y-85056090D01*
X96732455Y-85056090D02*
X96780074Y-85103709D01*
X96780074Y-85103709D02*
X96827693Y-85198947D01*
X96827693Y-85198947D02*
X96827693Y-85294185D01*
X96827693Y-85294185D02*
X96780074Y-85437042D01*
X96780074Y-85437042D02*
X96208646Y-86008471D01*
X96208646Y-86008471D02*
X96827693Y-86008471D01*
X97303884Y-86008471D02*
X97494360Y-86008471D01*
X97494360Y-86008471D02*
X97589598Y-85960852D01*
X97589598Y-85960852D02*
X97637217Y-85913232D01*
X97637217Y-85913232D02*
X97732455Y-85770375D01*
X97732455Y-85770375D02*
X97780074Y-85579899D01*
X97780074Y-85579899D02*
X97780074Y-85198947D01*
X97780074Y-85198947D02*
X97732455Y-85103709D01*
X97732455Y-85103709D02*
X97684836Y-85056090D01*
X97684836Y-85056090D02*
X97589598Y-85008471D01*
X97589598Y-85008471D02*
X97399122Y-85008471D01*
X97399122Y-85008471D02*
X97303884Y-85056090D01*
X97303884Y-85056090D02*
X97256265Y-85103709D01*
X97256265Y-85103709D02*
X97208646Y-85198947D01*
X97208646Y-85198947D02*
X97208646Y-85437042D01*
X97208646Y-85437042D02*
X97256265Y-85532280D01*
X97256265Y-85532280D02*
X97303884Y-85579899D01*
X97303884Y-85579899D02*
X97399122Y-85627518D01*
X97399122Y-85627518D02*
X97589598Y-85627518D01*
X97589598Y-85627518D02*
X97684836Y-85579899D01*
X97684836Y-85579899D02*
X97732455Y-85532280D01*
X97732455Y-85532280D02*
X97780074Y-85437042D01*
X155808646Y-52498747D02*
X155808646Y-53165414D01*
X155570551Y-52117795D02*
X155332456Y-52832080D01*
X155332456Y-52832080D02*
X155951503Y-52832080D01*
X130180074Y-110230754D02*
X129703884Y-110230754D01*
X129703884Y-110230754D02*
X129656265Y-110706944D01*
X129656265Y-110706944D02*
X129703884Y-110659325D01*
X129703884Y-110659325D02*
X129799122Y-110611706D01*
X129799122Y-110611706D02*
X130037217Y-110611706D01*
X130037217Y-110611706D02*
X130132455Y-110659325D01*
X130132455Y-110659325D02*
X130180074Y-110706944D01*
X130180074Y-110706944D02*
X130227693Y-110802182D01*
X130227693Y-110802182D02*
X130227693Y-111040277D01*
X130227693Y-111040277D02*
X130180074Y-111135515D01*
X130180074Y-111135515D02*
X130132455Y-111183135D01*
X130132455Y-111183135D02*
X130037217Y-111230754D01*
X130037217Y-111230754D02*
X129799122Y-111230754D01*
X129799122Y-111230754D02*
X129703884Y-111183135D01*
X129703884Y-111183135D02*
X129656265Y-111135515D01*
X130846741Y-110230754D02*
X130941979Y-110230754D01*
X130941979Y-110230754D02*
X131037217Y-110278373D01*
X131037217Y-110278373D02*
X131084836Y-110325992D01*
X131084836Y-110325992D02*
X131132455Y-110421230D01*
X131132455Y-110421230D02*
X131180074Y-110611706D01*
X131180074Y-110611706D02*
X131180074Y-110849801D01*
X131180074Y-110849801D02*
X131132455Y-111040277D01*
X131132455Y-111040277D02*
X131084836Y-111135515D01*
X131084836Y-111135515D02*
X131037217Y-111183135D01*
X131037217Y-111183135D02*
X130941979Y-111230754D01*
X130941979Y-111230754D02*
X130846741Y-111230754D01*
X130846741Y-111230754D02*
X130751503Y-111183135D01*
X130751503Y-111183135D02*
X130703884Y-111135515D01*
X130703884Y-111135515D02*
X130656265Y-111040277D01*
X130656265Y-111040277D02*
X130608646Y-110849801D01*
X130608646Y-110849801D02*
X130608646Y-110611706D01*
X130608646Y-110611706D02*
X130656265Y-110421230D01*
X130656265Y-110421230D02*
X130703884Y-110325992D01*
X130703884Y-110325992D02*
X130751503Y-110278373D01*
X130751503Y-110278373D02*
X130846741Y-110230754D01*
X121156265Y-82567366D02*
X121203884Y-82519747D01*
X121203884Y-82519747D02*
X121299122Y-82472128D01*
X121299122Y-82472128D02*
X121537217Y-82472128D01*
X121537217Y-82472128D02*
X121632455Y-82519747D01*
X121632455Y-82519747D02*
X121680074Y-82567366D01*
X121680074Y-82567366D02*
X121727693Y-82662604D01*
X121727693Y-82662604D02*
X121727693Y-82757842D01*
X121727693Y-82757842D02*
X121680074Y-82900699D01*
X121680074Y-82900699D02*
X121108646Y-83472128D01*
X121108646Y-83472128D02*
X121727693Y-83472128D01*
X122061027Y-82472128D02*
X122727693Y-82472128D01*
X122727693Y-82472128D02*
X122299122Y-83472128D01*
X130227693Y-63263734D02*
X129656265Y-63263734D01*
X129941979Y-63263734D02*
X129941979Y-62263734D01*
X129941979Y-62263734D02*
X129846741Y-62406591D01*
X129846741Y-62406591D02*
X129751503Y-62501829D01*
X129751503Y-62501829D02*
X129656265Y-62549448D01*
X130608646Y-62358972D02*
X130656265Y-62311353D01*
X130656265Y-62311353D02*
X130751503Y-62263734D01*
X130751503Y-62263734D02*
X130989598Y-62263734D01*
X130989598Y-62263734D02*
X131084836Y-62311353D01*
X131084836Y-62311353D02*
X131132455Y-62358972D01*
X131132455Y-62358972D02*
X131180074Y-62454210D01*
X131180074Y-62454210D02*
X131180074Y-62549448D01*
X131180074Y-62549448D02*
X131132455Y-62692305D01*
X131132455Y-62692305D02*
X130561027Y-63263734D01*
X130561027Y-63263734D02*
X131180074Y-63263734D01*
X146156265Y-80031023D02*
X146203884Y-79983404D01*
X146203884Y-79983404D02*
X146299122Y-79935785D01*
X146299122Y-79935785D02*
X146537217Y-79935785D01*
X146537217Y-79935785D02*
X146632455Y-79983404D01*
X146632455Y-79983404D02*
X146680074Y-80031023D01*
X146680074Y-80031023D02*
X146727693Y-80126261D01*
X146727693Y-80126261D02*
X146727693Y-80221499D01*
X146727693Y-80221499D02*
X146680074Y-80364356D01*
X146680074Y-80364356D02*
X146108646Y-80935785D01*
X146108646Y-80935785D02*
X146727693Y-80935785D01*
X147632455Y-79935785D02*
X147156265Y-79935785D01*
X147156265Y-79935785D02*
X147108646Y-80411975D01*
X147108646Y-80411975D02*
X147156265Y-80364356D01*
X147156265Y-80364356D02*
X147251503Y-80316737D01*
X147251503Y-80316737D02*
X147489598Y-80316737D01*
X147489598Y-80316737D02*
X147584836Y-80364356D01*
X147584836Y-80364356D02*
X147632455Y-80411975D01*
X147632455Y-80411975D02*
X147680074Y-80507213D01*
X147680074Y-80507213D02*
X147680074Y-80745308D01*
X147680074Y-80745308D02*
X147632455Y-80840546D01*
X147632455Y-80840546D02*
X147584836Y-80888166D01*
X147584836Y-80888166D02*
X147489598Y-80935785D01*
X147489598Y-80935785D02*
X147251503Y-80935785D01*
X147251503Y-80935785D02*
X147156265Y-80888166D01*
X147156265Y-80888166D02*
X147108646Y-80840546D01*
X121632455Y-103096205D02*
X121632455Y-103762872D01*
X121394360Y-102715253D02*
X121156265Y-103429538D01*
X121156265Y-103429538D02*
X121775312Y-103429538D01*
X122061027Y-102762872D02*
X122680074Y-102762872D01*
X122680074Y-102762872D02*
X122346741Y-103143824D01*
X122346741Y-103143824D02*
X122489598Y-103143824D01*
X122489598Y-103143824D02*
X122584836Y-103191443D01*
X122584836Y-103191443D02*
X122632455Y-103239062D01*
X122632455Y-103239062D02*
X122680074Y-103334300D01*
X122680074Y-103334300D02*
X122680074Y-103572395D01*
X122680074Y-103572395D02*
X122632455Y-103667633D01*
X122632455Y-103667633D02*
X122584836Y-103715253D01*
X122584836Y-103715253D02*
X122489598Y-103762872D01*
X122489598Y-103762872D02*
X122203884Y-103762872D01*
X122203884Y-103762872D02*
X122108646Y-103715253D01*
X122108646Y-103715253D02*
X122061027Y-103667633D01*
X155427693Y-68312894D02*
X154856265Y-68312894D01*
X155141979Y-68312894D02*
X155141979Y-67312894D01*
X155141979Y-67312894D02*
X155046741Y-67455751D01*
X155046741Y-67455751D02*
X154951503Y-67550989D01*
X154951503Y-67550989D02*
X154856265Y-67598608D01*
X156284836Y-67312894D02*
X156094360Y-67312894D01*
X156094360Y-67312894D02*
X155999122Y-67360513D01*
X155999122Y-67360513D02*
X155951503Y-67408132D01*
X155951503Y-67408132D02*
X155856265Y-67550989D01*
X155856265Y-67550989D02*
X155808646Y-67741465D01*
X155808646Y-67741465D02*
X155808646Y-68122417D01*
X155808646Y-68122417D02*
X155856265Y-68217655D01*
X155856265Y-68217655D02*
X155903884Y-68265275D01*
X155903884Y-68265275D02*
X155999122Y-68312894D01*
X155999122Y-68312894D02*
X156189598Y-68312894D01*
X156189598Y-68312894D02*
X156284836Y-68265275D01*
X156284836Y-68265275D02*
X156332455Y-68217655D01*
X156332455Y-68217655D02*
X156380074Y-68122417D01*
X156380074Y-68122417D02*
X156380074Y-67884322D01*
X156380074Y-67884322D02*
X156332455Y-67789084D01*
X156332455Y-67789084D02*
X156284836Y-67741465D01*
X156284836Y-67741465D02*
X156189598Y-67693846D01*
X156189598Y-67693846D02*
X155999122Y-67693846D01*
X155999122Y-67693846D02*
X155903884Y-67741465D01*
X155903884Y-67741465D02*
X155856265Y-67789084D01*
X155856265Y-67789084D02*
X155808646Y-67884322D01*
X130608646Y-52498747D02*
X130608646Y-53165414D01*
X130370551Y-52117795D02*
X130132456Y-52832080D01*
X130132456Y-52832080D02*
X130751503Y-52832080D01*
X122156265Y-54572355D02*
X121680075Y-54572355D01*
X121680075Y-54572355D02*
X121632456Y-55048545D01*
X121632456Y-55048545D02*
X121680075Y-55000926D01*
X121680075Y-55000926D02*
X121775313Y-54953307D01*
X121775313Y-54953307D02*
X122013408Y-54953307D01*
X122013408Y-54953307D02*
X122108646Y-55000926D01*
X122108646Y-55000926D02*
X122156265Y-55048545D01*
X122156265Y-55048545D02*
X122203884Y-55143783D01*
X122203884Y-55143783D02*
X122203884Y-55381878D01*
X122203884Y-55381878D02*
X122156265Y-55477116D01*
X122156265Y-55477116D02*
X122108646Y-55524736D01*
X122108646Y-55524736D02*
X122013408Y-55572355D01*
X122013408Y-55572355D02*
X121775313Y-55572355D01*
X121775313Y-55572355D02*
X121680075Y-55524736D01*
X121680075Y-55524736D02*
X121632456Y-55477116D01*
X154808646Y-95083274D02*
X155427693Y-95083274D01*
X155427693Y-95083274D02*
X155094360Y-95464226D01*
X155094360Y-95464226D02*
X155237217Y-95464226D01*
X155237217Y-95464226D02*
X155332455Y-95511845D01*
X155332455Y-95511845D02*
X155380074Y-95559464D01*
X155380074Y-95559464D02*
X155427693Y-95654702D01*
X155427693Y-95654702D02*
X155427693Y-95892797D01*
X155427693Y-95892797D02*
X155380074Y-95988035D01*
X155380074Y-95988035D02*
X155332455Y-96035655D01*
X155332455Y-96035655D02*
X155237217Y-96083274D01*
X155237217Y-96083274D02*
X154951503Y-96083274D01*
X154951503Y-96083274D02*
X154856265Y-96035655D01*
X154856265Y-96035655D02*
X154808646Y-95988035D01*
X155999122Y-95511845D02*
X155903884Y-95464226D01*
X155903884Y-95464226D02*
X155856265Y-95416607D01*
X155856265Y-95416607D02*
X155808646Y-95321369D01*
X155808646Y-95321369D02*
X155808646Y-95273750D01*
X155808646Y-95273750D02*
X155856265Y-95178512D01*
X155856265Y-95178512D02*
X155903884Y-95130893D01*
X155903884Y-95130893D02*
X155999122Y-95083274D01*
X155999122Y-95083274D02*
X156189598Y-95083274D01*
X156189598Y-95083274D02*
X156284836Y-95130893D01*
X156284836Y-95130893D02*
X156332455Y-95178512D01*
X156332455Y-95178512D02*
X156380074Y-95273750D01*
X156380074Y-95273750D02*
X156380074Y-95321369D01*
X156380074Y-95321369D02*
X156332455Y-95416607D01*
X156332455Y-95416607D02*
X156284836Y-95464226D01*
X156284836Y-95464226D02*
X156189598Y-95511845D01*
X156189598Y-95511845D02*
X155999122Y-95511845D01*
X155999122Y-95511845D02*
X155903884Y-95559464D01*
X155903884Y-95559464D02*
X155856265Y-95607083D01*
X155856265Y-95607083D02*
X155808646Y-95702321D01*
X155808646Y-95702321D02*
X155808646Y-95892797D01*
X155808646Y-95892797D02*
X155856265Y-95988035D01*
X155856265Y-95988035D02*
X155903884Y-96035655D01*
X155903884Y-96035655D02*
X155999122Y-96083274D01*
X155999122Y-96083274D02*
X156189598Y-96083274D01*
X156189598Y-96083274D02*
X156284836Y-96035655D01*
X156284836Y-96035655D02*
X156332455Y-95988035D01*
X156332455Y-95988035D02*
X156380074Y-95892797D01*
X156380074Y-95892797D02*
X156380074Y-95702321D01*
X156380074Y-95702321D02*
X156332455Y-95607083D01*
X156332455Y-95607083D02*
X156284836Y-95559464D01*
X156284836Y-95559464D02*
X156189598Y-95511845D01*
X155332455Y-102990347D02*
X155332455Y-103657014D01*
X155094360Y-102609395D02*
X154856265Y-103323680D01*
X154856265Y-103323680D02*
X155475312Y-103323680D01*
X156284836Y-102990347D02*
X156284836Y-103657014D01*
X156046741Y-102609395D02*
X155808646Y-103323680D01*
X155808646Y-103323680D02*
X156427693Y-103323680D01*
X104856265Y-74981872D02*
X104903884Y-74934253D01*
X104903884Y-74934253D02*
X104999122Y-74886634D01*
X104999122Y-74886634D02*
X105237217Y-74886634D01*
X105237217Y-74886634D02*
X105332455Y-74934253D01*
X105332455Y-74934253D02*
X105380074Y-74981872D01*
X105380074Y-74981872D02*
X105427693Y-75077110D01*
X105427693Y-75077110D02*
X105427693Y-75172348D01*
X105427693Y-75172348D02*
X105380074Y-75315205D01*
X105380074Y-75315205D02*
X104808646Y-75886634D01*
X104808646Y-75886634D02*
X105427693Y-75886634D01*
X105808646Y-74981872D02*
X105856265Y-74934253D01*
X105856265Y-74934253D02*
X105951503Y-74886634D01*
X105951503Y-74886634D02*
X106189598Y-74886634D01*
X106189598Y-74886634D02*
X106284836Y-74934253D01*
X106284836Y-74934253D02*
X106332455Y-74981872D01*
X106332455Y-74981872D02*
X106380074Y-75077110D01*
X106380074Y-75077110D02*
X106380074Y-75172348D01*
X106380074Y-75172348D02*
X106332455Y-75315205D01*
X106332455Y-75315205D02*
X105761027Y-75886634D01*
X105761027Y-75886634D02*
X106380074Y-75886634D01*
X146156265Y-74958337D02*
X146203884Y-74910718D01*
X146203884Y-74910718D02*
X146299122Y-74863099D01*
X146299122Y-74863099D02*
X146537217Y-74863099D01*
X146537217Y-74863099D02*
X146632455Y-74910718D01*
X146632455Y-74910718D02*
X146680074Y-74958337D01*
X146680074Y-74958337D02*
X146727693Y-75053575D01*
X146727693Y-75053575D02*
X146727693Y-75148813D01*
X146727693Y-75148813D02*
X146680074Y-75291670D01*
X146680074Y-75291670D02*
X146108646Y-75863099D01*
X146108646Y-75863099D02*
X146727693Y-75863099D01*
X147680074Y-75863099D02*
X147108646Y-75863099D01*
X147394360Y-75863099D02*
X147394360Y-74863099D01*
X147394360Y-74863099D02*
X147299122Y-75005956D01*
X147299122Y-75005956D02*
X147203884Y-75101194D01*
X147203884Y-75101194D02*
X147108646Y-75148813D01*
X129608646Y-92558694D02*
X130227693Y-92558694D01*
X130227693Y-92558694D02*
X129894360Y-92939646D01*
X129894360Y-92939646D02*
X130037217Y-92939646D01*
X130037217Y-92939646D02*
X130132455Y-92987265D01*
X130132455Y-92987265D02*
X130180074Y-93034884D01*
X130180074Y-93034884D02*
X130227693Y-93130122D01*
X130227693Y-93130122D02*
X130227693Y-93368217D01*
X130227693Y-93368217D02*
X130180074Y-93463455D01*
X130180074Y-93463455D02*
X130132455Y-93511075D01*
X130132455Y-93511075D02*
X130037217Y-93558694D01*
X130037217Y-93558694D02*
X129751503Y-93558694D01*
X129751503Y-93558694D02*
X129656265Y-93511075D01*
X129656265Y-93511075D02*
X129608646Y-93463455D01*
X131084836Y-92558694D02*
X130894360Y-92558694D01*
X130894360Y-92558694D02*
X130799122Y-92606313D01*
X130799122Y-92606313D02*
X130751503Y-92653932D01*
X130751503Y-92653932D02*
X130656265Y-92796789D01*
X130656265Y-92796789D02*
X130608646Y-92987265D01*
X130608646Y-92987265D02*
X130608646Y-93368217D01*
X130608646Y-93368217D02*
X130656265Y-93463455D01*
X130656265Y-93463455D02*
X130703884Y-93511075D01*
X130703884Y-93511075D02*
X130799122Y-93558694D01*
X130799122Y-93558694D02*
X130989598Y-93558694D01*
X130989598Y-93558694D02*
X131084836Y-93511075D01*
X131084836Y-93511075D02*
X131132455Y-93463455D01*
X131132455Y-93463455D02*
X131180074Y-93368217D01*
X131180074Y-93368217D02*
X131180074Y-93130122D01*
X131180074Y-93130122D02*
X131132455Y-93034884D01*
X131132455Y-93034884D02*
X131084836Y-92987265D01*
X131084836Y-92987265D02*
X130989598Y-92939646D01*
X130989598Y-92939646D02*
X130799122Y-92939646D01*
X130799122Y-92939646D02*
X130703884Y-92987265D01*
X130703884Y-92987265D02*
X130656265Y-93034884D01*
X130656265Y-93034884D02*
X130608646Y-93130122D01*
X96827693Y-70790413D02*
X96256265Y-70790413D01*
X96541979Y-70790413D02*
X96541979Y-69790413D01*
X96541979Y-69790413D02*
X96446741Y-69933270D01*
X96446741Y-69933270D02*
X96351503Y-70028508D01*
X96351503Y-70028508D02*
X96256265Y-70076127D01*
X97161027Y-69790413D02*
X97827693Y-69790413D01*
X97827693Y-69790413D02*
X97399122Y-70790413D01*
X105380074Y-110230754D02*
X104903884Y-110230754D01*
X104903884Y-110230754D02*
X104856265Y-110706944D01*
X104856265Y-110706944D02*
X104903884Y-110659325D01*
X104903884Y-110659325D02*
X104999122Y-110611706D01*
X104999122Y-110611706D02*
X105237217Y-110611706D01*
X105237217Y-110611706D02*
X105332455Y-110659325D01*
X105332455Y-110659325D02*
X105380074Y-110706944D01*
X105380074Y-110706944D02*
X105427693Y-110802182D01*
X105427693Y-110802182D02*
X105427693Y-111040277D01*
X105427693Y-111040277D02*
X105380074Y-111135515D01*
X105380074Y-111135515D02*
X105332455Y-111183135D01*
X105332455Y-111183135D02*
X105237217Y-111230754D01*
X105237217Y-111230754D02*
X104999122Y-111230754D01*
X104999122Y-111230754D02*
X104903884Y-111183135D01*
X104903884Y-111183135D02*
X104856265Y-111135515D01*
X106046741Y-110230754D02*
X106141979Y-110230754D01*
X106141979Y-110230754D02*
X106237217Y-110278373D01*
X106237217Y-110278373D02*
X106284836Y-110325992D01*
X106284836Y-110325992D02*
X106332455Y-110421230D01*
X106332455Y-110421230D02*
X106380074Y-110611706D01*
X106380074Y-110611706D02*
X106380074Y-110849801D01*
X106380074Y-110849801D02*
X106332455Y-111040277D01*
X106332455Y-111040277D02*
X106284836Y-111135515D01*
X106284836Y-111135515D02*
X106237217Y-111183135D01*
X106237217Y-111183135D02*
X106141979Y-111230754D01*
X106141979Y-111230754D02*
X106046741Y-111230754D01*
X106046741Y-111230754D02*
X105951503Y-111183135D01*
X105951503Y-111183135D02*
X105903884Y-111135515D01*
X105903884Y-111135515D02*
X105856265Y-111040277D01*
X105856265Y-111040277D02*
X105808646Y-110849801D01*
X105808646Y-110849801D02*
X105808646Y-110611706D01*
X105808646Y-110611706D02*
X105856265Y-110421230D01*
X105856265Y-110421230D02*
X105903884Y-110325992D01*
X105903884Y-110325992D02*
X105951503Y-110278373D01*
X105951503Y-110278373D02*
X106046741Y-110230754D01*
X130132455Y-102990347D02*
X130132455Y-103657014D01*
X129894360Y-102609395D02*
X129656265Y-103323680D01*
X129656265Y-103323680D02*
X130275312Y-103323680D01*
X131084836Y-102990347D02*
X131084836Y-103657014D01*
X130846741Y-102609395D02*
X130608646Y-103323680D01*
X130608646Y-103323680D02*
X131227693Y-103323680D01*
X104856265Y-72457292D02*
X104903884Y-72409673D01*
X104903884Y-72409673D02*
X104999122Y-72362054D01*
X104999122Y-72362054D02*
X105237217Y-72362054D01*
X105237217Y-72362054D02*
X105332455Y-72409673D01*
X105332455Y-72409673D02*
X105380074Y-72457292D01*
X105380074Y-72457292D02*
X105427693Y-72552530D01*
X105427693Y-72552530D02*
X105427693Y-72647768D01*
X105427693Y-72647768D02*
X105380074Y-72790625D01*
X105380074Y-72790625D02*
X104808646Y-73362054D01*
X104808646Y-73362054D02*
X105427693Y-73362054D01*
X106046741Y-72362054D02*
X106141979Y-72362054D01*
X106141979Y-72362054D02*
X106237217Y-72409673D01*
X106237217Y-72409673D02*
X106284836Y-72457292D01*
X106284836Y-72457292D02*
X106332455Y-72552530D01*
X106332455Y-72552530D02*
X106380074Y-72743006D01*
X106380074Y-72743006D02*
X106380074Y-72981101D01*
X106380074Y-72981101D02*
X106332455Y-73171577D01*
X106332455Y-73171577D02*
X106284836Y-73266815D01*
X106284836Y-73266815D02*
X106237217Y-73314435D01*
X106237217Y-73314435D02*
X106141979Y-73362054D01*
X106141979Y-73362054D02*
X106046741Y-73362054D01*
X106046741Y-73362054D02*
X105951503Y-73314435D01*
X105951503Y-73314435D02*
X105903884Y-73266815D01*
X105903884Y-73266815D02*
X105856265Y-73171577D01*
X105856265Y-73171577D02*
X105808646Y-72981101D01*
X105808646Y-72981101D02*
X105808646Y-72743006D01*
X105808646Y-72743006D02*
X105856265Y-72552530D01*
X105856265Y-72552530D02*
X105903884Y-72457292D01*
X105903884Y-72457292D02*
X105951503Y-72409673D01*
X105951503Y-72409673D02*
X106046741Y-72362054D01*
D11*
X147161779Y-50471569D02*
X146590351Y-50471569D01*
X146876065Y-50471569D02*
X146876065Y-49471569D01*
X146876065Y-49471569D02*
X146780827Y-49614426D01*
X146780827Y-49614426D02*
X146685589Y-49709664D01*
X146685589Y-49709664D02*
X146590351Y-49757283D01*
D10*
X96208646Y-87544814D02*
X96827693Y-87544814D01*
X96827693Y-87544814D02*
X96494360Y-87925766D01*
X96494360Y-87925766D02*
X96637217Y-87925766D01*
X96637217Y-87925766D02*
X96732455Y-87973385D01*
X96732455Y-87973385D02*
X96780074Y-88021004D01*
X96780074Y-88021004D02*
X96827693Y-88116242D01*
X96827693Y-88116242D02*
X96827693Y-88354337D01*
X96827693Y-88354337D02*
X96780074Y-88449575D01*
X96780074Y-88449575D02*
X96732455Y-88497195D01*
X96732455Y-88497195D02*
X96637217Y-88544814D01*
X96637217Y-88544814D02*
X96351503Y-88544814D01*
X96351503Y-88544814D02*
X96256265Y-88497195D01*
X96256265Y-88497195D02*
X96208646Y-88449575D01*
X97780074Y-88544814D02*
X97208646Y-88544814D01*
X97494360Y-88544814D02*
X97494360Y-87544814D01*
X97494360Y-87544814D02*
X97399122Y-87687671D01*
X97399122Y-87687671D02*
X97303884Y-87782909D01*
X97303884Y-87782909D02*
X97208646Y-87830528D01*
X146156265Y-82567366D02*
X146203884Y-82519747D01*
X146203884Y-82519747D02*
X146299122Y-82472128D01*
X146299122Y-82472128D02*
X146537217Y-82472128D01*
X146537217Y-82472128D02*
X146632455Y-82519747D01*
X146632455Y-82519747D02*
X146680074Y-82567366D01*
X146680074Y-82567366D02*
X146727693Y-82662604D01*
X146727693Y-82662604D02*
X146727693Y-82757842D01*
X146727693Y-82757842D02*
X146680074Y-82900699D01*
X146680074Y-82900699D02*
X146108646Y-83472128D01*
X146108646Y-83472128D02*
X146727693Y-83472128D01*
X147061027Y-82472128D02*
X147727693Y-82472128D01*
X147727693Y-82472128D02*
X147299122Y-83472128D01*
X121727693Y-63181384D02*
X121156265Y-63181384D01*
X121441979Y-63181384D02*
X121441979Y-62181384D01*
X121441979Y-62181384D02*
X121346741Y-62324241D01*
X121346741Y-62324241D02*
X121251503Y-62419479D01*
X121251503Y-62419479D02*
X121156265Y-62467098D01*
X122680074Y-63181384D02*
X122108646Y-63181384D01*
X122394360Y-63181384D02*
X122394360Y-62181384D01*
X122394360Y-62181384D02*
X122299122Y-62324241D01*
X122299122Y-62324241D02*
X122203884Y-62419479D01*
X122203884Y-62419479D02*
X122108646Y-62467098D01*
X146632455Y-103096205D02*
X146632455Y-103762872D01*
X146394360Y-102715253D02*
X146156265Y-103429538D01*
X146156265Y-103429538D02*
X146775312Y-103429538D01*
X147061027Y-102762872D02*
X147680074Y-102762872D01*
X147680074Y-102762872D02*
X147346741Y-103143824D01*
X147346741Y-103143824D02*
X147489598Y-103143824D01*
X147489598Y-103143824D02*
X147584836Y-103191443D01*
X147584836Y-103191443D02*
X147632455Y-103239062D01*
X147632455Y-103239062D02*
X147680074Y-103334300D01*
X147680074Y-103334300D02*
X147680074Y-103572395D01*
X147680074Y-103572395D02*
X147632455Y-103667633D01*
X147632455Y-103667633D02*
X147584836Y-103715253D01*
X147584836Y-103715253D02*
X147489598Y-103762872D01*
X147489598Y-103762872D02*
X147203884Y-103762872D01*
X147203884Y-103762872D02*
X147108646Y-103715253D01*
X147108646Y-103715253D02*
X147061027Y-103667633D01*
X105427693Y-70837474D02*
X104856265Y-70837474D01*
X105141979Y-70837474D02*
X105141979Y-69837474D01*
X105141979Y-69837474D02*
X105046741Y-69980331D01*
X105046741Y-69980331D02*
X104951503Y-70075569D01*
X104951503Y-70075569D02*
X104856265Y-70123188D01*
X105999122Y-70266045D02*
X105903884Y-70218426D01*
X105903884Y-70218426D02*
X105856265Y-70170807D01*
X105856265Y-70170807D02*
X105808646Y-70075569D01*
X105808646Y-70075569D02*
X105808646Y-70027950D01*
X105808646Y-70027950D02*
X105856265Y-69932712D01*
X105856265Y-69932712D02*
X105903884Y-69885093D01*
X105903884Y-69885093D02*
X105999122Y-69837474D01*
X105999122Y-69837474D02*
X106189598Y-69837474D01*
X106189598Y-69837474D02*
X106284836Y-69885093D01*
X106284836Y-69885093D02*
X106332455Y-69932712D01*
X106332455Y-69932712D02*
X106380074Y-70027950D01*
X106380074Y-70027950D02*
X106380074Y-70075569D01*
X106380074Y-70075569D02*
X106332455Y-70170807D01*
X106332455Y-70170807D02*
X106284836Y-70218426D01*
X106284836Y-70218426D02*
X106189598Y-70266045D01*
X106189598Y-70266045D02*
X105999122Y-70266045D01*
X105999122Y-70266045D02*
X105903884Y-70313664D01*
X105903884Y-70313664D02*
X105856265Y-70361283D01*
X105856265Y-70361283D02*
X105808646Y-70456521D01*
X105808646Y-70456521D02*
X105808646Y-70646997D01*
X105808646Y-70646997D02*
X105856265Y-70742235D01*
X105856265Y-70742235D02*
X105903884Y-70789855D01*
X105903884Y-70789855D02*
X105999122Y-70837474D01*
X105999122Y-70837474D02*
X106189598Y-70837474D01*
X106189598Y-70837474D02*
X106284836Y-70789855D01*
X106284836Y-70789855D02*
X106332455Y-70742235D01*
X106332455Y-70742235D02*
X106380074Y-70646997D01*
X106380074Y-70646997D02*
X106380074Y-70456521D01*
X106380074Y-70456521D02*
X106332455Y-70361283D01*
X106332455Y-70361283D02*
X106284836Y-70313664D01*
X106284836Y-70313664D02*
X106189598Y-70266045D01*
X96208646Y-92617500D02*
X96827693Y-92617500D01*
X96827693Y-92617500D02*
X96494360Y-92998452D01*
X96494360Y-92998452D02*
X96637217Y-92998452D01*
X96637217Y-92998452D02*
X96732455Y-93046071D01*
X96732455Y-93046071D02*
X96780074Y-93093690D01*
X96780074Y-93093690D02*
X96827693Y-93188928D01*
X96827693Y-93188928D02*
X96827693Y-93427023D01*
X96827693Y-93427023D02*
X96780074Y-93522261D01*
X96780074Y-93522261D02*
X96732455Y-93569881D01*
X96732455Y-93569881D02*
X96637217Y-93617500D01*
X96637217Y-93617500D02*
X96351503Y-93617500D01*
X96351503Y-93617500D02*
X96256265Y-93569881D01*
X96256265Y-93569881D02*
X96208646Y-93522261D01*
X97732455Y-92617500D02*
X97256265Y-92617500D01*
X97256265Y-92617500D02*
X97208646Y-93093690D01*
X97208646Y-93093690D02*
X97256265Y-93046071D01*
X97256265Y-93046071D02*
X97351503Y-92998452D01*
X97351503Y-92998452D02*
X97589598Y-92998452D01*
X97589598Y-92998452D02*
X97684836Y-93046071D01*
X97684836Y-93046071D02*
X97732455Y-93093690D01*
X97732455Y-93093690D02*
X97780074Y-93188928D01*
X97780074Y-93188928D02*
X97780074Y-93427023D01*
X97780074Y-93427023D02*
X97732455Y-93522261D01*
X97732455Y-93522261D02*
X97684836Y-93569881D01*
X97684836Y-93569881D02*
X97589598Y-93617500D01*
X97589598Y-93617500D02*
X97351503Y-93617500D01*
X97351503Y-93617500D02*
X97256265Y-93569881D01*
X97256265Y-93569881D02*
X97208646Y-93522261D01*
X146108646Y-90081157D02*
X146727693Y-90081157D01*
X146727693Y-90081157D02*
X146394360Y-90462109D01*
X146394360Y-90462109D02*
X146537217Y-90462109D01*
X146537217Y-90462109D02*
X146632455Y-90509728D01*
X146632455Y-90509728D02*
X146680074Y-90557347D01*
X146680074Y-90557347D02*
X146727693Y-90652585D01*
X146727693Y-90652585D02*
X146727693Y-90890680D01*
X146727693Y-90890680D02*
X146680074Y-90985918D01*
X146680074Y-90985918D02*
X146632455Y-91033538D01*
X146632455Y-91033538D02*
X146537217Y-91081157D01*
X146537217Y-91081157D02*
X146251503Y-91081157D01*
X146251503Y-91081157D02*
X146156265Y-91033538D01*
X146156265Y-91033538D02*
X146108646Y-90985918D01*
X147061027Y-90081157D02*
X147680074Y-90081157D01*
X147680074Y-90081157D02*
X147346741Y-90462109D01*
X147346741Y-90462109D02*
X147489598Y-90462109D01*
X147489598Y-90462109D02*
X147584836Y-90509728D01*
X147584836Y-90509728D02*
X147632455Y-90557347D01*
X147632455Y-90557347D02*
X147680074Y-90652585D01*
X147680074Y-90652585D02*
X147680074Y-90890680D01*
X147680074Y-90890680D02*
X147632455Y-90985918D01*
X147632455Y-90985918D02*
X147584836Y-91033538D01*
X147584836Y-91033538D02*
X147489598Y-91081157D01*
X147489598Y-91081157D02*
X147203884Y-91081157D01*
X147203884Y-91081157D02*
X147108646Y-91033538D01*
X147108646Y-91033538D02*
X147061027Y-90985918D01*
X155332455Y-108039507D02*
X155332455Y-108706174D01*
X155094360Y-107658555D02*
X154856265Y-108372840D01*
X154856265Y-108372840D02*
X155475312Y-108372840D01*
X155999122Y-108134745D02*
X155903884Y-108087126D01*
X155903884Y-108087126D02*
X155856265Y-108039507D01*
X155856265Y-108039507D02*
X155808646Y-107944269D01*
X155808646Y-107944269D02*
X155808646Y-107896650D01*
X155808646Y-107896650D02*
X155856265Y-107801412D01*
X155856265Y-107801412D02*
X155903884Y-107753793D01*
X155903884Y-107753793D02*
X155999122Y-107706174D01*
X155999122Y-107706174D02*
X156189598Y-107706174D01*
X156189598Y-107706174D02*
X156284836Y-107753793D01*
X156284836Y-107753793D02*
X156332455Y-107801412D01*
X156332455Y-107801412D02*
X156380074Y-107896650D01*
X156380074Y-107896650D02*
X156380074Y-107944269D01*
X156380074Y-107944269D02*
X156332455Y-108039507D01*
X156332455Y-108039507D02*
X156284836Y-108087126D01*
X156284836Y-108087126D02*
X156189598Y-108134745D01*
X156189598Y-108134745D02*
X155999122Y-108134745D01*
X155999122Y-108134745D02*
X155903884Y-108182364D01*
X155903884Y-108182364D02*
X155856265Y-108229983D01*
X155856265Y-108229983D02*
X155808646Y-108325221D01*
X155808646Y-108325221D02*
X155808646Y-108515697D01*
X155808646Y-108515697D02*
X155856265Y-108610935D01*
X155856265Y-108610935D02*
X155903884Y-108658555D01*
X155903884Y-108658555D02*
X155999122Y-108706174D01*
X155999122Y-108706174D02*
X156189598Y-108706174D01*
X156189598Y-108706174D02*
X156284836Y-108658555D01*
X156284836Y-108658555D02*
X156332455Y-108610935D01*
X156332455Y-108610935D02*
X156380074Y-108515697D01*
X156380074Y-108515697D02*
X156380074Y-108325221D01*
X156380074Y-108325221D02*
X156332455Y-108229983D01*
X156332455Y-108229983D02*
X156284836Y-108182364D01*
X156284836Y-108182364D02*
X156189598Y-108134745D01*
X146584837Y-57108698D02*
X147251503Y-57108698D01*
X147251503Y-57108698D02*
X146822932Y-58108698D01*
X147156265Y-54572355D02*
X146680075Y-54572355D01*
X146680075Y-54572355D02*
X146632456Y-55048545D01*
X146632456Y-55048545D02*
X146680075Y-55000926D01*
X146680075Y-55000926D02*
X146775313Y-54953307D01*
X146775313Y-54953307D02*
X147013408Y-54953307D01*
X147013408Y-54953307D02*
X147108646Y-55000926D01*
X147108646Y-55000926D02*
X147156265Y-55048545D01*
X147156265Y-55048545D02*
X147203884Y-55143783D01*
X147203884Y-55143783D02*
X147203884Y-55381878D01*
X147203884Y-55381878D02*
X147156265Y-55477116D01*
X147156265Y-55477116D02*
X147108646Y-55524736D01*
X147108646Y-55524736D02*
X147013408Y-55572355D01*
X147013408Y-55572355D02*
X146775313Y-55572355D01*
X146775313Y-55572355D02*
X146680075Y-55524736D01*
X146680075Y-55524736D02*
X146632456Y-55477116D01*
X129656265Y-72457292D02*
X129703884Y-72409673D01*
X129703884Y-72409673D02*
X129799122Y-72362054D01*
X129799122Y-72362054D02*
X130037217Y-72362054D01*
X130037217Y-72362054D02*
X130132455Y-72409673D01*
X130132455Y-72409673D02*
X130180074Y-72457292D01*
X130180074Y-72457292D02*
X130227693Y-72552530D01*
X130227693Y-72552530D02*
X130227693Y-72647768D01*
X130227693Y-72647768D02*
X130180074Y-72790625D01*
X130180074Y-72790625D02*
X129608646Y-73362054D01*
X129608646Y-73362054D02*
X130227693Y-73362054D01*
X130846741Y-72362054D02*
X130941979Y-72362054D01*
X130941979Y-72362054D02*
X131037217Y-72409673D01*
X131037217Y-72409673D02*
X131084836Y-72457292D01*
X131084836Y-72457292D02*
X131132455Y-72552530D01*
X131132455Y-72552530D02*
X131180074Y-72743006D01*
X131180074Y-72743006D02*
X131180074Y-72981101D01*
X131180074Y-72981101D02*
X131132455Y-73171577D01*
X131132455Y-73171577D02*
X131084836Y-73266815D01*
X131084836Y-73266815D02*
X131037217Y-73314435D01*
X131037217Y-73314435D02*
X130941979Y-73362054D01*
X130941979Y-73362054D02*
X130846741Y-73362054D01*
X130846741Y-73362054D02*
X130751503Y-73314435D01*
X130751503Y-73314435D02*
X130703884Y-73266815D01*
X130703884Y-73266815D02*
X130656265Y-73171577D01*
X130656265Y-73171577D02*
X130608646Y-72981101D01*
X130608646Y-72981101D02*
X130608646Y-72743006D01*
X130608646Y-72743006D02*
X130656265Y-72552530D01*
X130656265Y-72552530D02*
X130703884Y-72457292D01*
X130703884Y-72457292D02*
X130751503Y-72409673D01*
X130751503Y-72409673D02*
X130846741Y-72362054D01*
X121632455Y-108168891D02*
X121632455Y-108835558D01*
X121394360Y-107787939D02*
X121156265Y-108502224D01*
X121156265Y-108502224D02*
X121775312Y-108502224D01*
X122061027Y-107835558D02*
X122727693Y-107835558D01*
X122727693Y-107835558D02*
X122299122Y-108835558D01*
X105427693Y-65788314D02*
X104856265Y-65788314D01*
X105141979Y-65788314D02*
X105141979Y-64788314D01*
X105141979Y-64788314D02*
X105046741Y-64931171D01*
X105046741Y-64931171D02*
X104951503Y-65026409D01*
X104951503Y-65026409D02*
X104856265Y-65074028D01*
X106284836Y-65121647D02*
X106284836Y-65788314D01*
X106046741Y-64740695D02*
X105808646Y-65454980D01*
X105808646Y-65454980D02*
X106427693Y-65454980D01*
D12*
X111899862Y-95842858D02*
X109899862Y-95842858D01*
X110852243Y-95842858D02*
X110852243Y-94700001D01*
X111899862Y-94700001D02*
X109899862Y-94700001D01*
X111804624Y-92985715D02*
X111899862Y-93176191D01*
X111899862Y-93176191D02*
X111899862Y-93557144D01*
X111899862Y-93557144D02*
X111804624Y-93747620D01*
X111804624Y-93747620D02*
X111614147Y-93842858D01*
X111614147Y-93842858D02*
X110852243Y-93842858D01*
X110852243Y-93842858D02*
X110661766Y-93747620D01*
X110661766Y-93747620D02*
X110566528Y-93557144D01*
X110566528Y-93557144D02*
X110566528Y-93176191D01*
X110566528Y-93176191D02*
X110661766Y-92985715D01*
X110661766Y-92985715D02*
X110852243Y-92890477D01*
X110852243Y-92890477D02*
X111042719Y-92890477D01*
X111042719Y-92890477D02*
X111233195Y-93842858D01*
X111899862Y-91176191D02*
X110852243Y-91176191D01*
X110852243Y-91176191D02*
X110661766Y-91271429D01*
X110661766Y-91271429D02*
X110566528Y-91461905D01*
X110566528Y-91461905D02*
X110566528Y-91842858D01*
X110566528Y-91842858D02*
X110661766Y-92033334D01*
X111804624Y-91176191D02*
X111899862Y-91366667D01*
X111899862Y-91366667D02*
X111899862Y-91842858D01*
X111899862Y-91842858D02*
X111804624Y-92033334D01*
X111804624Y-92033334D02*
X111614147Y-92128572D01*
X111614147Y-92128572D02*
X111423671Y-92128572D01*
X111423671Y-92128572D02*
X111233195Y-92033334D01*
X111233195Y-92033334D02*
X111137957Y-91842858D01*
X111137957Y-91842858D02*
X111137957Y-91366667D01*
X111137957Y-91366667D02*
X111042719Y-91176191D01*
X111899862Y-89366667D02*
X109899862Y-89366667D01*
X111804624Y-89366667D02*
X111899862Y-89557143D01*
X111899862Y-89557143D02*
X111899862Y-89938096D01*
X111899862Y-89938096D02*
X111804624Y-90128572D01*
X111804624Y-90128572D02*
X111709385Y-90223810D01*
X111709385Y-90223810D02*
X111518909Y-90319048D01*
X111518909Y-90319048D02*
X110947481Y-90319048D01*
X110947481Y-90319048D02*
X110757004Y-90223810D01*
X110757004Y-90223810D02*
X110661766Y-90128572D01*
X110661766Y-90128572D02*
X110566528Y-89938096D01*
X110566528Y-89938096D02*
X110566528Y-89557143D01*
X110566528Y-89557143D02*
X110661766Y-89366667D01*
X111804624Y-87652381D02*
X111899862Y-87842857D01*
X111899862Y-87842857D02*
X111899862Y-88223810D01*
X111899862Y-88223810D02*
X111804624Y-88414286D01*
X111804624Y-88414286D02*
X111614147Y-88509524D01*
X111614147Y-88509524D02*
X110852243Y-88509524D01*
X110852243Y-88509524D02*
X110661766Y-88414286D01*
X110661766Y-88414286D02*
X110566528Y-88223810D01*
X110566528Y-88223810D02*
X110566528Y-87842857D01*
X110566528Y-87842857D02*
X110661766Y-87652381D01*
X110661766Y-87652381D02*
X110852243Y-87557143D01*
X110852243Y-87557143D02*
X111042719Y-87557143D01*
X111042719Y-87557143D02*
X111233195Y-88509524D01*
X111899862Y-86700000D02*
X110566528Y-86700000D01*
X110947481Y-86700000D02*
X110757004Y-86604762D01*
X110757004Y-86604762D02*
X110661766Y-86509524D01*
X110661766Y-86509524D02*
X110566528Y-86319048D01*
X110566528Y-86319048D02*
X110566528Y-86128571D01*
X110852243Y-83271428D02*
X110947481Y-82985714D01*
X110947481Y-82985714D02*
X111042719Y-82890476D01*
X111042719Y-82890476D02*
X111233195Y-82795238D01*
X111233195Y-82795238D02*
X111518909Y-82795238D01*
X111518909Y-82795238D02*
X111709385Y-82890476D01*
X111709385Y-82890476D02*
X111804624Y-82985714D01*
X111804624Y-82985714D02*
X111899862Y-83176190D01*
X111899862Y-83176190D02*
X111899862Y-83938095D01*
X111899862Y-83938095D02*
X109899862Y-83938095D01*
X109899862Y-83938095D02*
X109899862Y-83271428D01*
X109899862Y-83271428D02*
X109995100Y-83080952D01*
X109995100Y-83080952D02*
X110090338Y-82985714D01*
X110090338Y-82985714D02*
X110280814Y-82890476D01*
X110280814Y-82890476D02*
X110471290Y-82890476D01*
X110471290Y-82890476D02*
X110661766Y-82985714D01*
X110661766Y-82985714D02*
X110757004Y-83080952D01*
X110757004Y-83080952D02*
X110852243Y-83271428D01*
X110852243Y-83271428D02*
X110852243Y-83938095D01*
X111899862Y-81938095D02*
X110566528Y-81938095D01*
X110947481Y-81938095D02*
X110757004Y-81842857D01*
X110757004Y-81842857D02*
X110661766Y-81747619D01*
X110661766Y-81747619D02*
X110566528Y-81557143D01*
X110566528Y-81557143D02*
X110566528Y-81366666D01*
X111804624Y-79938095D02*
X111899862Y-80128571D01*
X111899862Y-80128571D02*
X111899862Y-80509524D01*
X111899862Y-80509524D02*
X111804624Y-80700000D01*
X111804624Y-80700000D02*
X111614147Y-80795238D01*
X111614147Y-80795238D02*
X110852243Y-80795238D01*
X110852243Y-80795238D02*
X110661766Y-80700000D01*
X110661766Y-80700000D02*
X110566528Y-80509524D01*
X110566528Y-80509524D02*
X110566528Y-80128571D01*
X110566528Y-80128571D02*
X110661766Y-79938095D01*
X110661766Y-79938095D02*
X110852243Y-79842857D01*
X110852243Y-79842857D02*
X111042719Y-79842857D01*
X111042719Y-79842857D02*
X111233195Y-80795238D01*
X111899862Y-78128571D02*
X110852243Y-78128571D01*
X110852243Y-78128571D02*
X110661766Y-78223809D01*
X110661766Y-78223809D02*
X110566528Y-78414285D01*
X110566528Y-78414285D02*
X110566528Y-78795238D01*
X110566528Y-78795238D02*
X110661766Y-78985714D01*
X111804624Y-78128571D02*
X111899862Y-78319047D01*
X111899862Y-78319047D02*
X111899862Y-78795238D01*
X111899862Y-78795238D02*
X111804624Y-78985714D01*
X111804624Y-78985714D02*
X111614147Y-79080952D01*
X111614147Y-79080952D02*
X111423671Y-79080952D01*
X111423671Y-79080952D02*
X111233195Y-78985714D01*
X111233195Y-78985714D02*
X111137957Y-78795238D01*
X111137957Y-78795238D02*
X111137957Y-78319047D01*
X111137957Y-78319047D02*
X111042719Y-78128571D01*
X111899862Y-77176190D02*
X109899862Y-77176190D01*
X111137957Y-76985714D02*
X111899862Y-76414285D01*
X110566528Y-76414285D02*
X111328433Y-77176190D01*
X111899862Y-75271428D02*
X111804624Y-75461904D01*
X111804624Y-75461904D02*
X111709385Y-75557142D01*
X111709385Y-75557142D02*
X111518909Y-75652380D01*
X111518909Y-75652380D02*
X110947481Y-75652380D01*
X110947481Y-75652380D02*
X110757004Y-75557142D01*
X110757004Y-75557142D02*
X110661766Y-75461904D01*
X110661766Y-75461904D02*
X110566528Y-75271428D01*
X110566528Y-75271428D02*
X110566528Y-74985713D01*
X110566528Y-74985713D02*
X110661766Y-74795237D01*
X110661766Y-74795237D02*
X110757004Y-74699999D01*
X110757004Y-74699999D02*
X110947481Y-74604761D01*
X110947481Y-74604761D02*
X111518909Y-74604761D01*
X111518909Y-74604761D02*
X111709385Y-74699999D01*
X111709385Y-74699999D02*
X111804624Y-74795237D01*
X111804624Y-74795237D02*
X111899862Y-74985713D01*
X111899862Y-74985713D02*
X111899862Y-75271428D01*
X110566528Y-72890475D02*
X111899862Y-72890475D01*
X110566528Y-73747618D02*
X111614147Y-73747618D01*
X111614147Y-73747618D02*
X111804624Y-73652380D01*
X111804624Y-73652380D02*
X111899862Y-73461904D01*
X111899862Y-73461904D02*
X111899862Y-73176189D01*
X111899862Y-73176189D02*
X111804624Y-72985713D01*
X111804624Y-72985713D02*
X111709385Y-72890475D01*
X110566528Y-72223808D02*
X110566528Y-71461904D01*
X109899862Y-71938094D02*
X111614147Y-71938094D01*
X111614147Y-71938094D02*
X111804624Y-71842856D01*
X111804624Y-71842856D02*
X111899862Y-71652380D01*
X111899862Y-71652380D02*
X111899862Y-71461904D01*
X110852243Y-68604760D02*
X110947481Y-68319046D01*
X110947481Y-68319046D02*
X111042719Y-68223808D01*
X111042719Y-68223808D02*
X111233195Y-68128570D01*
X111233195Y-68128570D02*
X111518909Y-68128570D01*
X111518909Y-68128570D02*
X111709385Y-68223808D01*
X111709385Y-68223808D02*
X111804624Y-68319046D01*
X111804624Y-68319046D02*
X111899862Y-68509522D01*
X111899862Y-68509522D02*
X111899862Y-69271427D01*
X111899862Y-69271427D02*
X109899862Y-69271427D01*
X109899862Y-69271427D02*
X109899862Y-68604760D01*
X109899862Y-68604760D02*
X109995100Y-68414284D01*
X109995100Y-68414284D02*
X110090338Y-68319046D01*
X110090338Y-68319046D02*
X110280814Y-68223808D01*
X110280814Y-68223808D02*
X110471290Y-68223808D01*
X110471290Y-68223808D02*
X110661766Y-68319046D01*
X110661766Y-68319046D02*
X110757004Y-68414284D01*
X110757004Y-68414284D02*
X110852243Y-68604760D01*
X110852243Y-68604760D02*
X110852243Y-69271427D01*
X111899862Y-66985713D02*
X111804624Y-67176189D01*
X111804624Y-67176189D02*
X111709385Y-67271427D01*
X111709385Y-67271427D02*
X111518909Y-67366665D01*
X111518909Y-67366665D02*
X110947481Y-67366665D01*
X110947481Y-67366665D02*
X110757004Y-67271427D01*
X110757004Y-67271427D02*
X110661766Y-67176189D01*
X110661766Y-67176189D02*
X110566528Y-66985713D01*
X110566528Y-66985713D02*
X110566528Y-66699998D01*
X110566528Y-66699998D02*
X110661766Y-66509522D01*
X110661766Y-66509522D02*
X110757004Y-66414284D01*
X110757004Y-66414284D02*
X110947481Y-66319046D01*
X110947481Y-66319046D02*
X111518909Y-66319046D01*
X111518909Y-66319046D02*
X111709385Y-66414284D01*
X111709385Y-66414284D02*
X111804624Y-66509522D01*
X111804624Y-66509522D02*
X111899862Y-66699998D01*
X111899862Y-66699998D02*
X111899862Y-66985713D01*
X111899862Y-64604760D02*
X110852243Y-64604760D01*
X110852243Y-64604760D02*
X110661766Y-64699998D01*
X110661766Y-64699998D02*
X110566528Y-64890474D01*
X110566528Y-64890474D02*
X110566528Y-65271427D01*
X110566528Y-65271427D02*
X110661766Y-65461903D01*
X111804624Y-64604760D02*
X111899862Y-64795236D01*
X111899862Y-64795236D02*
X111899862Y-65271427D01*
X111899862Y-65271427D02*
X111804624Y-65461903D01*
X111804624Y-65461903D02*
X111614147Y-65557141D01*
X111614147Y-65557141D02*
X111423671Y-65557141D01*
X111423671Y-65557141D02*
X111233195Y-65461903D01*
X111233195Y-65461903D02*
X111137957Y-65271427D01*
X111137957Y-65271427D02*
X111137957Y-64795236D01*
X111137957Y-64795236D02*
X111042719Y-64604760D01*
X111899862Y-63652379D02*
X110566528Y-63652379D01*
X110947481Y-63652379D02*
X110757004Y-63557141D01*
X110757004Y-63557141D02*
X110661766Y-63461903D01*
X110661766Y-63461903D02*
X110566528Y-63271427D01*
X110566528Y-63271427D02*
X110566528Y-63080950D01*
X111899862Y-61557141D02*
X109899862Y-61557141D01*
X111804624Y-61557141D02*
X111899862Y-61747617D01*
X111899862Y-61747617D02*
X111899862Y-62128570D01*
X111899862Y-62128570D02*
X111804624Y-62319046D01*
X111804624Y-62319046D02*
X111709385Y-62414284D01*
X111709385Y-62414284D02*
X111518909Y-62509522D01*
X111518909Y-62509522D02*
X110947481Y-62509522D01*
X110947481Y-62509522D02*
X110757004Y-62414284D01*
X110757004Y-62414284D02*
X110661766Y-62319046D01*
X110661766Y-62319046D02*
X110566528Y-62128570D01*
X110566528Y-62128570D02*
X110566528Y-61747617D01*
X110566528Y-61747617D02*
X110661766Y-61557141D01*
X113786416Y-101319049D02*
X115405464Y-101319049D01*
X115405464Y-101319049D02*
X115595940Y-101414287D01*
X115595940Y-101414287D02*
X115691178Y-101509525D01*
X115691178Y-101509525D02*
X115786416Y-101700002D01*
X115786416Y-101700002D02*
X115786416Y-101985716D01*
X115786416Y-101985716D02*
X115691178Y-102176192D01*
X115024512Y-101319049D02*
X115119750Y-101509525D01*
X115119750Y-101509525D02*
X115119750Y-101890478D01*
X115119750Y-101890478D02*
X115024512Y-102080954D01*
X115024512Y-102080954D02*
X114929273Y-102176192D01*
X114929273Y-102176192D02*
X114738797Y-102271430D01*
X114738797Y-102271430D02*
X114167369Y-102271430D01*
X114167369Y-102271430D02*
X113976892Y-102176192D01*
X113976892Y-102176192D02*
X113881654Y-102080954D01*
X113881654Y-102080954D02*
X113786416Y-101890478D01*
X113786416Y-101890478D02*
X113786416Y-101509525D01*
X113786416Y-101509525D02*
X113881654Y-101319049D01*
X115119750Y-100366668D02*
X113786416Y-100366668D01*
X113119750Y-100366668D02*
X113214988Y-100461906D01*
X113214988Y-100461906D02*
X113310226Y-100366668D01*
X113310226Y-100366668D02*
X113214988Y-100271430D01*
X113214988Y-100271430D02*
X113119750Y-100366668D01*
X113119750Y-100366668D02*
X113310226Y-100366668D01*
X113786416Y-99700001D02*
X113786416Y-98938097D01*
X113119750Y-99414287D02*
X114834035Y-99414287D01*
X114834035Y-99414287D02*
X115024512Y-99319049D01*
X115024512Y-99319049D02*
X115119750Y-99128573D01*
X115119750Y-99128573D02*
X115119750Y-98938097D01*
X115119750Y-98271430D02*
X113119750Y-98271430D01*
X115119750Y-97414287D02*
X114072131Y-97414287D01*
X114072131Y-97414287D02*
X113881654Y-97509525D01*
X113881654Y-97509525D02*
X113786416Y-97700001D01*
X113786416Y-97700001D02*
X113786416Y-97985716D01*
X113786416Y-97985716D02*
X113881654Y-98176192D01*
X113881654Y-98176192D02*
X113976892Y-98271430D01*
X113786416Y-95604763D02*
X115119750Y-95604763D01*
X113786416Y-96461906D02*
X114834035Y-96461906D01*
X114834035Y-96461906D02*
X115024512Y-96366668D01*
X115024512Y-96366668D02*
X115119750Y-96176192D01*
X115119750Y-96176192D02*
X115119750Y-95890477D01*
X115119750Y-95890477D02*
X115024512Y-95700001D01*
X115024512Y-95700001D02*
X114929273Y-95604763D01*
X115119750Y-94652382D02*
X113119750Y-94652382D01*
X113881654Y-94652382D02*
X113786416Y-94461906D01*
X113786416Y-94461906D02*
X113786416Y-94080953D01*
X113786416Y-94080953D02*
X113881654Y-93890477D01*
X113881654Y-93890477D02*
X113976892Y-93795239D01*
X113976892Y-93795239D02*
X114167369Y-93700001D01*
X114167369Y-93700001D02*
X114738797Y-93700001D01*
X114738797Y-93700001D02*
X114929273Y-93795239D01*
X114929273Y-93795239D02*
X115024512Y-93890477D01*
X115024512Y-93890477D02*
X115119750Y-94080953D01*
X115119750Y-94080953D02*
X115119750Y-94461906D01*
X115119750Y-94461906D02*
X115024512Y-94652382D01*
X114929273Y-92842858D02*
X115024512Y-92747620D01*
X115024512Y-92747620D02*
X115119750Y-92842858D01*
X115119750Y-92842858D02*
X115024512Y-92938096D01*
X115024512Y-92938096D02*
X114929273Y-92842858D01*
X114929273Y-92842858D02*
X115119750Y-92842858D01*
X115024512Y-91033334D02*
X115119750Y-91223810D01*
X115119750Y-91223810D02*
X115119750Y-91604763D01*
X115119750Y-91604763D02*
X115024512Y-91795239D01*
X115024512Y-91795239D02*
X114929273Y-91890477D01*
X114929273Y-91890477D02*
X114738797Y-91985715D01*
X114738797Y-91985715D02*
X114167369Y-91985715D01*
X114167369Y-91985715D02*
X113976892Y-91890477D01*
X113976892Y-91890477D02*
X113881654Y-91795239D01*
X113881654Y-91795239D02*
X113786416Y-91604763D01*
X113786416Y-91604763D02*
X113786416Y-91223810D01*
X113786416Y-91223810D02*
X113881654Y-91033334D01*
X115119750Y-89890477D02*
X115024512Y-90080953D01*
X115024512Y-90080953D02*
X114929273Y-90176191D01*
X114929273Y-90176191D02*
X114738797Y-90271429D01*
X114738797Y-90271429D02*
X114167369Y-90271429D01*
X114167369Y-90271429D02*
X113976892Y-90176191D01*
X113976892Y-90176191D02*
X113881654Y-90080953D01*
X113881654Y-90080953D02*
X113786416Y-89890477D01*
X113786416Y-89890477D02*
X113786416Y-89604762D01*
X113786416Y-89604762D02*
X113881654Y-89414286D01*
X113881654Y-89414286D02*
X113976892Y-89319048D01*
X113976892Y-89319048D02*
X114167369Y-89223810D01*
X114167369Y-89223810D02*
X114738797Y-89223810D01*
X114738797Y-89223810D02*
X114929273Y-89319048D01*
X114929273Y-89319048D02*
X115024512Y-89414286D01*
X115024512Y-89414286D02*
X115119750Y-89604762D01*
X115119750Y-89604762D02*
X115119750Y-89890477D01*
X115119750Y-88366667D02*
X113786416Y-88366667D01*
X113976892Y-88366667D02*
X113881654Y-88271429D01*
X113881654Y-88271429D02*
X113786416Y-88080953D01*
X113786416Y-88080953D02*
X113786416Y-87795238D01*
X113786416Y-87795238D02*
X113881654Y-87604762D01*
X113881654Y-87604762D02*
X114072131Y-87509524D01*
X114072131Y-87509524D02*
X115119750Y-87509524D01*
X114072131Y-87509524D02*
X113881654Y-87414286D01*
X113881654Y-87414286D02*
X113786416Y-87223810D01*
X113786416Y-87223810D02*
X113786416Y-86938096D01*
X113786416Y-86938096D02*
X113881654Y-86747619D01*
X113881654Y-86747619D02*
X114072131Y-86652381D01*
X114072131Y-86652381D02*
X115119750Y-86652381D01*
X113024512Y-84271429D02*
X115595940Y-85985714D01*
X115119750Y-82747619D02*
X114072131Y-82747619D01*
X114072131Y-82747619D02*
X113881654Y-82842857D01*
X113881654Y-82842857D02*
X113786416Y-83033333D01*
X113786416Y-83033333D02*
X113786416Y-83414286D01*
X113786416Y-83414286D02*
X113881654Y-83604762D01*
X115024512Y-82747619D02*
X115119750Y-82938095D01*
X115119750Y-82938095D02*
X115119750Y-83414286D01*
X115119750Y-83414286D02*
X115024512Y-83604762D01*
X115024512Y-83604762D02*
X114834035Y-83700000D01*
X114834035Y-83700000D02*
X114643559Y-83700000D01*
X114643559Y-83700000D02*
X114453083Y-83604762D01*
X114453083Y-83604762D02*
X114357845Y-83414286D01*
X114357845Y-83414286D02*
X114357845Y-82938095D01*
X114357845Y-82938095D02*
X114262607Y-82747619D01*
X115119750Y-81795238D02*
X113119750Y-81795238D01*
X114357845Y-81604762D02*
X115119750Y-81033333D01*
X113786416Y-81033333D02*
X114548321Y-81795238D01*
X113786416Y-79319047D02*
X115119750Y-79319047D01*
X113786416Y-80176190D02*
X114834035Y-80176190D01*
X114834035Y-80176190D02*
X115024512Y-80080952D01*
X115024512Y-80080952D02*
X115119750Y-79890476D01*
X115119750Y-79890476D02*
X115119750Y-79604761D01*
X115119750Y-79604761D02*
X115024512Y-79414285D01*
X115024512Y-79414285D02*
X114929273Y-79319047D01*
X115119750Y-78366666D02*
X113119750Y-78366666D01*
X114357845Y-78176190D02*
X115119750Y-77604761D01*
X113786416Y-77604761D02*
X114548321Y-78366666D01*
X115024512Y-75985713D02*
X115119750Y-76176189D01*
X115119750Y-76176189D02*
X115119750Y-76557142D01*
X115119750Y-76557142D02*
X115024512Y-76747618D01*
X115024512Y-76747618D02*
X114834035Y-76842856D01*
X114834035Y-76842856D02*
X114072131Y-76842856D01*
X114072131Y-76842856D02*
X113881654Y-76747618D01*
X113881654Y-76747618D02*
X113786416Y-76557142D01*
X113786416Y-76557142D02*
X113786416Y-76176189D01*
X113786416Y-76176189D02*
X113881654Y-75985713D01*
X113881654Y-75985713D02*
X114072131Y-75890475D01*
X114072131Y-75890475D02*
X114262607Y-75890475D01*
X114262607Y-75890475D02*
X114453083Y-76842856D01*
X115119750Y-75033332D02*
X113786416Y-75033332D01*
X114167369Y-75033332D02*
X113976892Y-74938094D01*
X113976892Y-74938094D02*
X113881654Y-74842856D01*
X113881654Y-74842856D02*
X113786416Y-74652380D01*
X113786416Y-74652380D02*
X113786416Y-74461903D01*
X113024512Y-72366666D02*
X115595940Y-74080951D01*
X115119750Y-71699999D02*
X113119750Y-71699999D01*
X115119750Y-70842856D02*
X114072131Y-70842856D01*
X114072131Y-70842856D02*
X113881654Y-70938094D01*
X113881654Y-70938094D02*
X113786416Y-71128570D01*
X113786416Y-71128570D02*
X113786416Y-71414285D01*
X113786416Y-71414285D02*
X113881654Y-71604761D01*
X113881654Y-71604761D02*
X113976892Y-71699999D01*
X113786416Y-70080951D02*
X115119750Y-69699999D01*
X115119750Y-69699999D02*
X114167369Y-69319046D01*
X114167369Y-69319046D02*
X115119750Y-68938094D01*
X115119750Y-68938094D02*
X113786416Y-68557142D01*
X115310226Y-68271428D02*
X115310226Y-66747618D01*
X113786416Y-66271427D02*
X115786416Y-66271427D01*
X113881654Y-66271427D02*
X113786416Y-66080951D01*
X113786416Y-66080951D02*
X113786416Y-65699998D01*
X113786416Y-65699998D02*
X113881654Y-65509522D01*
X113881654Y-65509522D02*
X113976892Y-65414284D01*
X113976892Y-65414284D02*
X114167369Y-65319046D01*
X114167369Y-65319046D02*
X114738797Y-65319046D01*
X114738797Y-65319046D02*
X114929273Y-65414284D01*
X114929273Y-65414284D02*
X115024512Y-65509522D01*
X115024512Y-65509522D02*
X115119750Y-65699998D01*
X115119750Y-65699998D02*
X115119750Y-66080951D01*
X115119750Y-66080951D02*
X115024512Y-66271427D01*
X115119750Y-64461903D02*
X113786416Y-64461903D01*
X114167369Y-64461903D02*
X113976892Y-64366665D01*
X113976892Y-64366665D02*
X113881654Y-64271427D01*
X113881654Y-64271427D02*
X113786416Y-64080951D01*
X113786416Y-64080951D02*
X113786416Y-63890474D01*
X115119750Y-62938094D02*
X115024512Y-63128570D01*
X115024512Y-63128570D02*
X114929273Y-63223808D01*
X114929273Y-63223808D02*
X114738797Y-63319046D01*
X114738797Y-63319046D02*
X114167369Y-63319046D01*
X114167369Y-63319046D02*
X113976892Y-63223808D01*
X113976892Y-63223808D02*
X113881654Y-63128570D01*
X113881654Y-63128570D02*
X113786416Y-62938094D01*
X113786416Y-62938094D02*
X113786416Y-62652379D01*
X113786416Y-62652379D02*
X113881654Y-62461903D01*
X113881654Y-62461903D02*
X113976892Y-62366665D01*
X113976892Y-62366665D02*
X114167369Y-62271427D01*
X114167369Y-62271427D02*
X114738797Y-62271427D01*
X114738797Y-62271427D02*
X114929273Y-62366665D01*
X114929273Y-62366665D02*
X115024512Y-62461903D01*
X115024512Y-62461903D02*
X115119750Y-62652379D01*
X115119750Y-62652379D02*
X115119750Y-62938094D01*
X113786416Y-61414284D02*
X115500702Y-61414284D01*
X115500702Y-61414284D02*
X115691178Y-61509522D01*
X115691178Y-61509522D02*
X115786416Y-61699998D01*
X115786416Y-61699998D02*
X115786416Y-61795236D01*
X113119750Y-61414284D02*
X113214988Y-61509522D01*
X113214988Y-61509522D02*
X113310226Y-61414284D01*
X113310226Y-61414284D02*
X113214988Y-61319046D01*
X113214988Y-61319046D02*
X113119750Y-61414284D01*
X113119750Y-61414284D02*
X113310226Y-61414284D01*
X115024512Y-59699998D02*
X115119750Y-59890474D01*
X115119750Y-59890474D02*
X115119750Y-60271427D01*
X115119750Y-60271427D02*
X115024512Y-60461903D01*
X115024512Y-60461903D02*
X114834035Y-60557141D01*
X114834035Y-60557141D02*
X114072131Y-60557141D01*
X114072131Y-60557141D02*
X113881654Y-60461903D01*
X113881654Y-60461903D02*
X113786416Y-60271427D01*
X113786416Y-60271427D02*
X113786416Y-59890474D01*
X113786416Y-59890474D02*
X113881654Y-59699998D01*
X113881654Y-59699998D02*
X114072131Y-59604760D01*
X114072131Y-59604760D02*
X114262607Y-59604760D01*
X114262607Y-59604760D02*
X114453083Y-60557141D01*
X115024512Y-57890474D02*
X115119750Y-58080950D01*
X115119750Y-58080950D02*
X115119750Y-58461903D01*
X115119750Y-58461903D02*
X115024512Y-58652379D01*
X115024512Y-58652379D02*
X114929273Y-58747617D01*
X114929273Y-58747617D02*
X114738797Y-58842855D01*
X114738797Y-58842855D02*
X114167369Y-58842855D01*
X114167369Y-58842855D02*
X113976892Y-58747617D01*
X113976892Y-58747617D02*
X113881654Y-58652379D01*
X113881654Y-58652379D02*
X113786416Y-58461903D01*
X113786416Y-58461903D02*
X113786416Y-58080950D01*
X113786416Y-58080950D02*
X113881654Y-57890474D01*
X113786416Y-57319045D02*
X113786416Y-56557141D01*
X113119750Y-57033331D02*
X114834035Y-57033331D01*
X114834035Y-57033331D02*
X115024512Y-56938093D01*
X115024512Y-56938093D02*
X115119750Y-56747617D01*
X115119750Y-56747617D02*
X115119750Y-56557141D01*
X115024512Y-55985712D02*
X115119750Y-55795236D01*
X115119750Y-55795236D02*
X115119750Y-55414284D01*
X115119750Y-55414284D02*
X115024512Y-55223807D01*
X115024512Y-55223807D02*
X114834035Y-55128569D01*
X114834035Y-55128569D02*
X114738797Y-55128569D01*
X114738797Y-55128569D02*
X114548321Y-55223807D01*
X114548321Y-55223807D02*
X114453083Y-55414284D01*
X114453083Y-55414284D02*
X114453083Y-55699998D01*
X114453083Y-55699998D02*
X114357845Y-55890474D01*
X114357845Y-55890474D02*
X114167369Y-55985712D01*
X114167369Y-55985712D02*
X114072131Y-55985712D01*
X114072131Y-55985712D02*
X113881654Y-55890474D01*
X113881654Y-55890474D02*
X113786416Y-55699998D01*
X113786416Y-55699998D02*
X113786416Y-55414284D01*
X113786416Y-55414284D02*
X113881654Y-55223807D01*
X118149161Y-97319049D02*
X118244400Y-97414287D01*
X118244400Y-97414287D02*
X118339638Y-97700001D01*
X118339638Y-97700001D02*
X118339638Y-97890477D01*
X118339638Y-97890477D02*
X118244400Y-98176192D01*
X118244400Y-98176192D02*
X118053923Y-98366668D01*
X118053923Y-98366668D02*
X117863447Y-98461906D01*
X117863447Y-98461906D02*
X117482495Y-98557144D01*
X117482495Y-98557144D02*
X117196780Y-98557144D01*
X117196780Y-98557144D02*
X116815828Y-98461906D01*
X116815828Y-98461906D02*
X116625352Y-98366668D01*
X116625352Y-98366668D02*
X116434876Y-98176192D01*
X116434876Y-98176192D02*
X116339638Y-97890477D01*
X116339638Y-97890477D02*
X116339638Y-97700001D01*
X116339638Y-97700001D02*
X116434876Y-97414287D01*
X116434876Y-97414287D02*
X116530114Y-97319049D01*
X118339638Y-96176192D02*
X118244400Y-96366668D01*
X118244400Y-96366668D02*
X118149161Y-96461906D01*
X118149161Y-96461906D02*
X117958685Y-96557144D01*
X117958685Y-96557144D02*
X117387257Y-96557144D01*
X117387257Y-96557144D02*
X117196780Y-96461906D01*
X117196780Y-96461906D02*
X117101542Y-96366668D01*
X117101542Y-96366668D02*
X117006304Y-96176192D01*
X117006304Y-96176192D02*
X117006304Y-95890477D01*
X117006304Y-95890477D02*
X117101542Y-95700001D01*
X117101542Y-95700001D02*
X117196780Y-95604763D01*
X117196780Y-95604763D02*
X117387257Y-95509525D01*
X117387257Y-95509525D02*
X117958685Y-95509525D01*
X117958685Y-95509525D02*
X118149161Y-95604763D01*
X118149161Y-95604763D02*
X118244400Y-95700001D01*
X118244400Y-95700001D02*
X118339638Y-95890477D01*
X118339638Y-95890477D02*
X118339638Y-96176192D01*
X117006304Y-94652382D02*
X119006304Y-94652382D01*
X117101542Y-94652382D02*
X117006304Y-94461906D01*
X117006304Y-94461906D02*
X117006304Y-94080953D01*
X117006304Y-94080953D02*
X117101542Y-93890477D01*
X117101542Y-93890477D02*
X117196780Y-93795239D01*
X117196780Y-93795239D02*
X117387257Y-93700001D01*
X117387257Y-93700001D02*
X117958685Y-93700001D01*
X117958685Y-93700001D02*
X118149161Y-93795239D01*
X118149161Y-93795239D02*
X118244400Y-93890477D01*
X118244400Y-93890477D02*
X118339638Y-94080953D01*
X118339638Y-94080953D02*
X118339638Y-94461906D01*
X118339638Y-94461906D02*
X118244400Y-94652382D01*
X117006304Y-93033334D02*
X118339638Y-92557144D01*
X117006304Y-92080953D02*
X118339638Y-92557144D01*
X118339638Y-92557144D02*
X118815828Y-92747620D01*
X118815828Y-92747620D02*
X118911066Y-92842858D01*
X118911066Y-92842858D02*
X119006304Y-93033334D01*
X118339638Y-91319048D02*
X117006304Y-91319048D01*
X117387257Y-91319048D02*
X117196780Y-91223810D01*
X117196780Y-91223810D02*
X117101542Y-91128572D01*
X117101542Y-91128572D02*
X117006304Y-90938096D01*
X117006304Y-90938096D02*
X117006304Y-90747619D01*
X118339638Y-90080953D02*
X117006304Y-90080953D01*
X116339638Y-90080953D02*
X116434876Y-90176191D01*
X116434876Y-90176191D02*
X116530114Y-90080953D01*
X116530114Y-90080953D02*
X116434876Y-89985715D01*
X116434876Y-89985715D02*
X116339638Y-90080953D01*
X116339638Y-90080953D02*
X116530114Y-90080953D01*
X117006304Y-88271429D02*
X118625352Y-88271429D01*
X118625352Y-88271429D02*
X118815828Y-88366667D01*
X118815828Y-88366667D02*
X118911066Y-88461905D01*
X118911066Y-88461905D02*
X119006304Y-88652382D01*
X119006304Y-88652382D02*
X119006304Y-88938096D01*
X119006304Y-88938096D02*
X118911066Y-89128572D01*
X118244400Y-88271429D02*
X118339638Y-88461905D01*
X118339638Y-88461905D02*
X118339638Y-88842858D01*
X118339638Y-88842858D02*
X118244400Y-89033334D01*
X118244400Y-89033334D02*
X118149161Y-89128572D01*
X118149161Y-89128572D02*
X117958685Y-89223810D01*
X117958685Y-89223810D02*
X117387257Y-89223810D01*
X117387257Y-89223810D02*
X117196780Y-89128572D01*
X117196780Y-89128572D02*
X117101542Y-89033334D01*
X117101542Y-89033334D02*
X117006304Y-88842858D01*
X117006304Y-88842858D02*
X117006304Y-88461905D01*
X117006304Y-88461905D02*
X117101542Y-88271429D01*
X118339638Y-87319048D02*
X116339638Y-87319048D01*
X118339638Y-86461905D02*
X117292019Y-86461905D01*
X117292019Y-86461905D02*
X117101542Y-86557143D01*
X117101542Y-86557143D02*
X117006304Y-86747619D01*
X117006304Y-86747619D02*
X117006304Y-87033334D01*
X117006304Y-87033334D02*
X117101542Y-87223810D01*
X117101542Y-87223810D02*
X117196780Y-87319048D01*
X117006304Y-85795238D02*
X117006304Y-85033334D01*
X116339638Y-85509524D02*
X118053923Y-85509524D01*
X118053923Y-85509524D02*
X118244400Y-85414286D01*
X118244400Y-85414286D02*
X118339638Y-85223810D01*
X118339638Y-85223810D02*
X118339638Y-85033334D01*
X119101542Y-82271428D02*
X119006304Y-82366667D01*
X119006304Y-82366667D02*
X118720590Y-82557143D01*
X118720590Y-82557143D02*
X118530114Y-82652381D01*
X118530114Y-82652381D02*
X118244400Y-82747619D01*
X118244400Y-82747619D02*
X117768209Y-82842857D01*
X117768209Y-82842857D02*
X117387257Y-82842857D01*
X117387257Y-82842857D02*
X116911066Y-82747619D01*
X116911066Y-82747619D02*
X116625352Y-82652381D01*
X116625352Y-82652381D02*
X116434876Y-82557143D01*
X116434876Y-82557143D02*
X116149161Y-82366667D01*
X116149161Y-82366667D02*
X116053923Y-82271428D01*
X118244400Y-80652381D02*
X118339638Y-80842857D01*
X118339638Y-80842857D02*
X118339638Y-81223810D01*
X118339638Y-81223810D02*
X118244400Y-81414286D01*
X118244400Y-81414286D02*
X118149161Y-81509524D01*
X118149161Y-81509524D02*
X117958685Y-81604762D01*
X117958685Y-81604762D02*
X117387257Y-81604762D01*
X117387257Y-81604762D02*
X117196780Y-81509524D01*
X117196780Y-81509524D02*
X117101542Y-81414286D01*
X117101542Y-81414286D02*
X117006304Y-81223810D01*
X117006304Y-81223810D02*
X117006304Y-80842857D01*
X117006304Y-80842857D02*
X117101542Y-80652381D01*
X119101542Y-79985714D02*
X119006304Y-79890476D01*
X119006304Y-79890476D02*
X118720590Y-79700000D01*
X118720590Y-79700000D02*
X118530114Y-79604762D01*
X118530114Y-79604762D02*
X118244400Y-79509524D01*
X118244400Y-79509524D02*
X117768209Y-79414286D01*
X117768209Y-79414286D02*
X117387257Y-79414286D01*
X117387257Y-79414286D02*
X116911066Y-79509524D01*
X116911066Y-79509524D02*
X116625352Y-79604762D01*
X116625352Y-79604762D02*
X116434876Y-79700000D01*
X116434876Y-79700000D02*
X116149161Y-79890476D01*
X116149161Y-79890476D02*
X116053923Y-79985714D01*
X116530114Y-77033333D02*
X116434876Y-76938095D01*
X116434876Y-76938095D02*
X116339638Y-76747619D01*
X116339638Y-76747619D02*
X116339638Y-76271428D01*
X116339638Y-76271428D02*
X116434876Y-76080952D01*
X116434876Y-76080952D02*
X116530114Y-75985714D01*
X116530114Y-75985714D02*
X116720590Y-75890476D01*
X116720590Y-75890476D02*
X116911066Y-75890476D01*
X116911066Y-75890476D02*
X117196780Y-75985714D01*
X117196780Y-75985714D02*
X118339638Y-77128571D01*
X118339638Y-77128571D02*
X118339638Y-75890476D01*
X116339638Y-74652381D02*
X116339638Y-74461904D01*
X116339638Y-74461904D02*
X116434876Y-74271428D01*
X116434876Y-74271428D02*
X116530114Y-74176190D01*
X116530114Y-74176190D02*
X116720590Y-74080952D01*
X116720590Y-74080952D02*
X117101542Y-73985714D01*
X117101542Y-73985714D02*
X117577733Y-73985714D01*
X117577733Y-73985714D02*
X117958685Y-74080952D01*
X117958685Y-74080952D02*
X118149161Y-74176190D01*
X118149161Y-74176190D02*
X118244400Y-74271428D01*
X118244400Y-74271428D02*
X118339638Y-74461904D01*
X118339638Y-74461904D02*
X118339638Y-74652381D01*
X118339638Y-74652381D02*
X118244400Y-74842857D01*
X118244400Y-74842857D02*
X118149161Y-74938095D01*
X118149161Y-74938095D02*
X117958685Y-75033333D01*
X117958685Y-75033333D02*
X117577733Y-75128571D01*
X117577733Y-75128571D02*
X117101542Y-75128571D01*
X117101542Y-75128571D02*
X116720590Y-75033333D01*
X116720590Y-75033333D02*
X116530114Y-74938095D01*
X116530114Y-74938095D02*
X116434876Y-74842857D01*
X116434876Y-74842857D02*
X116339638Y-74652381D01*
X116530114Y-73223809D02*
X116434876Y-73128571D01*
X116434876Y-73128571D02*
X116339638Y-72938095D01*
X116339638Y-72938095D02*
X116339638Y-72461904D01*
X116339638Y-72461904D02*
X116434876Y-72271428D01*
X116434876Y-72271428D02*
X116530114Y-72176190D01*
X116530114Y-72176190D02*
X116720590Y-72080952D01*
X116720590Y-72080952D02*
X116911066Y-72080952D01*
X116911066Y-72080952D02*
X117196780Y-72176190D01*
X117196780Y-72176190D02*
X118339638Y-73319047D01*
X118339638Y-73319047D02*
X118339638Y-72080952D01*
X117006304Y-70366666D02*
X118339638Y-70366666D01*
X116244400Y-70842857D02*
X117672971Y-71319047D01*
X117672971Y-71319047D02*
X117672971Y-70080952D01*
X118339638Y-66938094D02*
X117292019Y-66938094D01*
X117292019Y-66938094D02*
X117101542Y-67033332D01*
X117101542Y-67033332D02*
X117006304Y-67223808D01*
X117006304Y-67223808D02*
X117006304Y-67604761D01*
X117006304Y-67604761D02*
X117101542Y-67795237D01*
X118244400Y-66938094D02*
X118339638Y-67128570D01*
X118339638Y-67128570D02*
X118339638Y-67604761D01*
X118339638Y-67604761D02*
X118244400Y-67795237D01*
X118244400Y-67795237D02*
X118053923Y-67890475D01*
X118053923Y-67890475D02*
X117863447Y-67890475D01*
X117863447Y-67890475D02*
X117672971Y-67795237D01*
X117672971Y-67795237D02*
X117577733Y-67604761D01*
X117577733Y-67604761D02*
X117577733Y-67128570D01*
X117577733Y-67128570D02*
X117482495Y-66938094D01*
X118339638Y-65985713D02*
X116339638Y-65985713D01*
X117577733Y-65795237D02*
X118339638Y-65223808D01*
X117006304Y-65223808D02*
X117768209Y-65985713D01*
X117006304Y-63509522D02*
X118339638Y-63509522D01*
X117006304Y-64366665D02*
X118053923Y-64366665D01*
X118053923Y-64366665D02*
X118244400Y-64271427D01*
X118244400Y-64271427D02*
X118339638Y-64080951D01*
X118339638Y-64080951D02*
X118339638Y-63795236D01*
X118339638Y-63795236D02*
X118244400Y-63604760D01*
X118244400Y-63604760D02*
X118149161Y-63509522D01*
X118339638Y-62557141D02*
X116339638Y-62557141D01*
X117577733Y-62366665D02*
X118339638Y-61795236D01*
X117006304Y-61795236D02*
X117768209Y-62557141D01*
X118244400Y-60176188D02*
X118339638Y-60366664D01*
X118339638Y-60366664D02*
X118339638Y-60747617D01*
X118339638Y-60747617D02*
X118244400Y-60938093D01*
X118244400Y-60938093D02*
X118053923Y-61033331D01*
X118053923Y-61033331D02*
X117292019Y-61033331D01*
X117292019Y-61033331D02*
X117101542Y-60938093D01*
X117101542Y-60938093D02*
X117006304Y-60747617D01*
X117006304Y-60747617D02*
X117006304Y-60366664D01*
X117006304Y-60366664D02*
X117101542Y-60176188D01*
X117101542Y-60176188D02*
X117292019Y-60080950D01*
X117292019Y-60080950D02*
X117482495Y-60080950D01*
X117482495Y-60080950D02*
X117672971Y-61033331D01*
X118339638Y-59223807D02*
X117006304Y-59223807D01*
X117387257Y-59223807D02*
X117196780Y-59128569D01*
X117196780Y-59128569D02*
X117101542Y-59033331D01*
X117101542Y-59033331D02*
X117006304Y-58842855D01*
X117006304Y-58842855D02*
X117006304Y-58652378D01*
D10*
X96732455Y-108168891D02*
X96732455Y-108835558D01*
X96494360Y-107787939D02*
X96256265Y-108502224D01*
X96256265Y-108502224D02*
X96875312Y-108502224D01*
X97161027Y-107835558D02*
X97827693Y-107835558D01*
X97827693Y-107835558D02*
X97399122Y-108835558D01*
X154856265Y-74981872D02*
X154903884Y-74934253D01*
X154903884Y-74934253D02*
X154999122Y-74886634D01*
X154999122Y-74886634D02*
X155237217Y-74886634D01*
X155237217Y-74886634D02*
X155332455Y-74934253D01*
X155332455Y-74934253D02*
X155380074Y-74981872D01*
X155380074Y-74981872D02*
X155427693Y-75077110D01*
X155427693Y-75077110D02*
X155427693Y-75172348D01*
X155427693Y-75172348D02*
X155380074Y-75315205D01*
X155380074Y-75315205D02*
X154808646Y-75886634D01*
X154808646Y-75886634D02*
X155427693Y-75886634D01*
X155808646Y-74981872D02*
X155856265Y-74934253D01*
X155856265Y-74934253D02*
X155951503Y-74886634D01*
X155951503Y-74886634D02*
X156189598Y-74886634D01*
X156189598Y-74886634D02*
X156284836Y-74934253D01*
X156284836Y-74934253D02*
X156332455Y-74981872D01*
X156332455Y-74981872D02*
X156380074Y-75077110D01*
X156380074Y-75077110D02*
X156380074Y-75172348D01*
X156380074Y-75172348D02*
X156332455Y-75315205D01*
X156332455Y-75315205D02*
X155761027Y-75886634D01*
X155761027Y-75886634D02*
X156380074Y-75886634D01*
X155427693Y-60739154D02*
X154856265Y-60739154D01*
X155141979Y-60739154D02*
X155141979Y-59739154D01*
X155141979Y-59739154D02*
X155046741Y-59882011D01*
X155046741Y-59882011D02*
X154951503Y-59977249D01*
X154951503Y-59977249D02*
X154856265Y-60024868D01*
X156046741Y-59739154D02*
X156141979Y-59739154D01*
X156141979Y-59739154D02*
X156237217Y-59786773D01*
X156237217Y-59786773D02*
X156284836Y-59834392D01*
X156284836Y-59834392D02*
X156332455Y-59929630D01*
X156332455Y-59929630D02*
X156380074Y-60120106D01*
X156380074Y-60120106D02*
X156380074Y-60358201D01*
X156380074Y-60358201D02*
X156332455Y-60548677D01*
X156332455Y-60548677D02*
X156284836Y-60643915D01*
X156284836Y-60643915D02*
X156237217Y-60691535D01*
X156237217Y-60691535D02*
X156141979Y-60739154D01*
X156141979Y-60739154D02*
X156046741Y-60739154D01*
X156046741Y-60739154D02*
X155951503Y-60691535D01*
X155951503Y-60691535D02*
X155903884Y-60643915D01*
X155903884Y-60643915D02*
X155856265Y-60548677D01*
X155856265Y-60548677D02*
X155808646Y-60358201D01*
X155808646Y-60358201D02*
X155808646Y-60120106D01*
X155808646Y-60120106D02*
X155856265Y-59929630D01*
X155856265Y-59929630D02*
X155903884Y-59834392D01*
X155903884Y-59834392D02*
X155951503Y-59786773D01*
X155951503Y-59786773D02*
X156046741Y-59739154D01*
X121156265Y-85103709D02*
X121203884Y-85056090D01*
X121203884Y-85056090D02*
X121299122Y-85008471D01*
X121299122Y-85008471D02*
X121537217Y-85008471D01*
X121537217Y-85008471D02*
X121632455Y-85056090D01*
X121632455Y-85056090D02*
X121680074Y-85103709D01*
X121680074Y-85103709D02*
X121727693Y-85198947D01*
X121727693Y-85198947D02*
X121727693Y-85294185D01*
X121727693Y-85294185D02*
X121680074Y-85437042D01*
X121680074Y-85437042D02*
X121108646Y-86008471D01*
X121108646Y-86008471D02*
X121727693Y-86008471D01*
X122203884Y-86008471D02*
X122394360Y-86008471D01*
X122394360Y-86008471D02*
X122489598Y-85960852D01*
X122489598Y-85960852D02*
X122537217Y-85913232D01*
X122537217Y-85913232D02*
X122632455Y-85770375D01*
X122632455Y-85770375D02*
X122680074Y-85579899D01*
X122680074Y-85579899D02*
X122680074Y-85198947D01*
X122680074Y-85198947D02*
X122632455Y-85103709D01*
X122632455Y-85103709D02*
X122584836Y-85056090D01*
X122584836Y-85056090D02*
X122489598Y-85008471D01*
X122489598Y-85008471D02*
X122299122Y-85008471D01*
X122299122Y-85008471D02*
X122203884Y-85056090D01*
X122203884Y-85056090D02*
X122156265Y-85103709D01*
X122156265Y-85103709D02*
X122108646Y-85198947D01*
X122108646Y-85198947D02*
X122108646Y-85437042D01*
X122108646Y-85437042D02*
X122156265Y-85532280D01*
X122156265Y-85532280D02*
X122203884Y-85579899D01*
X122203884Y-85579899D02*
X122299122Y-85627518D01*
X122299122Y-85627518D02*
X122489598Y-85627518D01*
X122489598Y-85627518D02*
X122584836Y-85579899D01*
X122584836Y-85579899D02*
X122632455Y-85532280D01*
X122632455Y-85532280D02*
X122680074Y-85437042D01*
D11*
X130090351Y-49707972D02*
X130137970Y-49660353D01*
X130137970Y-49660353D02*
X130233208Y-49612734D01*
X130233208Y-49612734D02*
X130471303Y-49612734D01*
X130471303Y-49612734D02*
X130566541Y-49660353D01*
X130566541Y-49660353D02*
X130614160Y-49707972D01*
X130614160Y-49707972D02*
X130661779Y-49803210D01*
X130661779Y-49803210D02*
X130661779Y-49898448D01*
X130661779Y-49898448D02*
X130614160Y-50041305D01*
X130614160Y-50041305D02*
X130042732Y-50612734D01*
X130042732Y-50612734D02*
X130661779Y-50612734D01*
D10*
X105522932Y-57643145D02*
X105427694Y-57595526D01*
X105427694Y-57595526D02*
X105380075Y-57547907D01*
X105380075Y-57547907D02*
X105332456Y-57452669D01*
X105332456Y-57452669D02*
X105332456Y-57405050D01*
X105332456Y-57405050D02*
X105380075Y-57309812D01*
X105380075Y-57309812D02*
X105427694Y-57262193D01*
X105427694Y-57262193D02*
X105522932Y-57214574D01*
X105522932Y-57214574D02*
X105713408Y-57214574D01*
X105713408Y-57214574D02*
X105808646Y-57262193D01*
X105808646Y-57262193D02*
X105856265Y-57309812D01*
X105856265Y-57309812D02*
X105903884Y-57405050D01*
X105903884Y-57405050D02*
X105903884Y-57452669D01*
X105903884Y-57452669D02*
X105856265Y-57547907D01*
X105856265Y-57547907D02*
X105808646Y-57595526D01*
X105808646Y-57595526D02*
X105713408Y-57643145D01*
X105713408Y-57643145D02*
X105522932Y-57643145D01*
X105522932Y-57643145D02*
X105427694Y-57690764D01*
X105427694Y-57690764D02*
X105380075Y-57738383D01*
X105380075Y-57738383D02*
X105332456Y-57833621D01*
X105332456Y-57833621D02*
X105332456Y-58024097D01*
X105332456Y-58024097D02*
X105380075Y-58119335D01*
X105380075Y-58119335D02*
X105427694Y-58166955D01*
X105427694Y-58166955D02*
X105522932Y-58214574D01*
X105522932Y-58214574D02*
X105713408Y-58214574D01*
X105713408Y-58214574D02*
X105808646Y-58166955D01*
X105808646Y-58166955D02*
X105856265Y-58119335D01*
X105856265Y-58119335D02*
X105903884Y-58024097D01*
X105903884Y-58024097D02*
X105903884Y-57833621D01*
X105903884Y-57833621D02*
X105856265Y-57738383D01*
X105856265Y-57738383D02*
X105808646Y-57690764D01*
X105808646Y-57690764D02*
X105713408Y-57643145D01*
X121108646Y-87544814D02*
X121727693Y-87544814D01*
X121727693Y-87544814D02*
X121394360Y-87925766D01*
X121394360Y-87925766D02*
X121537217Y-87925766D01*
X121537217Y-87925766D02*
X121632455Y-87973385D01*
X121632455Y-87973385D02*
X121680074Y-88021004D01*
X121680074Y-88021004D02*
X121727693Y-88116242D01*
X121727693Y-88116242D02*
X121727693Y-88354337D01*
X121727693Y-88354337D02*
X121680074Y-88449575D01*
X121680074Y-88449575D02*
X121632455Y-88497195D01*
X121632455Y-88497195D02*
X121537217Y-88544814D01*
X121537217Y-88544814D02*
X121251503Y-88544814D01*
X121251503Y-88544814D02*
X121156265Y-88497195D01*
X121156265Y-88497195D02*
X121108646Y-88449575D01*
X122680074Y-88544814D02*
X122108646Y-88544814D01*
X122394360Y-88544814D02*
X122394360Y-87544814D01*
X122394360Y-87544814D02*
X122299122Y-87687671D01*
X122299122Y-87687671D02*
X122203884Y-87782909D01*
X122203884Y-87782909D02*
X122108646Y-87830528D01*
X105427693Y-68312894D02*
X104856265Y-68312894D01*
X105141979Y-68312894D02*
X105141979Y-67312894D01*
X105141979Y-67312894D02*
X105046741Y-67455751D01*
X105046741Y-67455751D02*
X104951503Y-67550989D01*
X104951503Y-67550989D02*
X104856265Y-67598608D01*
X106284836Y-67312894D02*
X106094360Y-67312894D01*
X106094360Y-67312894D02*
X105999122Y-67360513D01*
X105999122Y-67360513D02*
X105951503Y-67408132D01*
X105951503Y-67408132D02*
X105856265Y-67550989D01*
X105856265Y-67550989D02*
X105808646Y-67741465D01*
X105808646Y-67741465D02*
X105808646Y-68122417D01*
X105808646Y-68122417D02*
X105856265Y-68217655D01*
X105856265Y-68217655D02*
X105903884Y-68265275D01*
X105903884Y-68265275D02*
X105999122Y-68312894D01*
X105999122Y-68312894D02*
X106189598Y-68312894D01*
X106189598Y-68312894D02*
X106284836Y-68265275D01*
X106284836Y-68265275D02*
X106332455Y-68217655D01*
X106332455Y-68217655D02*
X106380074Y-68122417D01*
X106380074Y-68122417D02*
X106380074Y-67884322D01*
X106380074Y-67884322D02*
X106332455Y-67789084D01*
X106332455Y-67789084D02*
X106284836Y-67741465D01*
X106284836Y-67741465D02*
X106189598Y-67693846D01*
X106189598Y-67693846D02*
X105999122Y-67693846D01*
X105999122Y-67693846D02*
X105903884Y-67741465D01*
X105903884Y-67741465D02*
X105856265Y-67789084D01*
X105856265Y-67789084D02*
X105808646Y-67884322D01*
X96827693Y-63181384D02*
X96256265Y-63181384D01*
X96541979Y-63181384D02*
X96541979Y-62181384D01*
X96541979Y-62181384D02*
X96446741Y-62324241D01*
X96446741Y-62324241D02*
X96351503Y-62419479D01*
X96351503Y-62419479D02*
X96256265Y-62467098D01*
X97780074Y-63181384D02*
X97208646Y-63181384D01*
X97494360Y-63181384D02*
X97494360Y-62181384D01*
X97494360Y-62181384D02*
X97399122Y-62324241D01*
X97399122Y-62324241D02*
X97303884Y-62419479D01*
X97303884Y-62419479D02*
X97208646Y-62467098D01*
X121727693Y-65717727D02*
X121156265Y-65717727D01*
X121441979Y-65717727D02*
X121441979Y-64717727D01*
X121441979Y-64717727D02*
X121346741Y-64860584D01*
X121346741Y-64860584D02*
X121251503Y-64955822D01*
X121251503Y-64955822D02*
X121156265Y-65003441D01*
X122061027Y-64717727D02*
X122680074Y-64717727D01*
X122680074Y-64717727D02*
X122346741Y-65098679D01*
X122346741Y-65098679D02*
X122489598Y-65098679D01*
X122489598Y-65098679D02*
X122584836Y-65146298D01*
X122584836Y-65146298D02*
X122632455Y-65193917D01*
X122632455Y-65193917D02*
X122680074Y-65289155D01*
X122680074Y-65289155D02*
X122680074Y-65527250D01*
X122680074Y-65527250D02*
X122632455Y-65622488D01*
X122632455Y-65622488D02*
X122584836Y-65670108D01*
X122584836Y-65670108D02*
X122489598Y-65717727D01*
X122489598Y-65717727D02*
X122203884Y-65717727D01*
X122203884Y-65717727D02*
X122108646Y-65670108D01*
X122108646Y-65670108D02*
X122061027Y-65622488D01*
X146108646Y-97690186D02*
X146727693Y-97690186D01*
X146727693Y-97690186D02*
X146394360Y-98071138D01*
X146394360Y-98071138D02*
X146537217Y-98071138D01*
X146537217Y-98071138D02*
X146632455Y-98118757D01*
X146632455Y-98118757D02*
X146680074Y-98166376D01*
X146680074Y-98166376D02*
X146727693Y-98261614D01*
X146727693Y-98261614D02*
X146727693Y-98499709D01*
X146727693Y-98499709D02*
X146680074Y-98594947D01*
X146680074Y-98594947D02*
X146632455Y-98642567D01*
X146632455Y-98642567D02*
X146537217Y-98690186D01*
X146537217Y-98690186D02*
X146251503Y-98690186D01*
X146251503Y-98690186D02*
X146156265Y-98642567D01*
X146156265Y-98642567D02*
X146108646Y-98594947D01*
X147203884Y-98690186D02*
X147394360Y-98690186D01*
X147394360Y-98690186D02*
X147489598Y-98642567D01*
X147489598Y-98642567D02*
X147537217Y-98594947D01*
X147537217Y-98594947D02*
X147632455Y-98452090D01*
X147632455Y-98452090D02*
X147680074Y-98261614D01*
X147680074Y-98261614D02*
X147680074Y-97880662D01*
X147680074Y-97880662D02*
X147632455Y-97785424D01*
X147632455Y-97785424D02*
X147584836Y-97737805D01*
X147584836Y-97737805D02*
X147489598Y-97690186D01*
X147489598Y-97690186D02*
X147299122Y-97690186D01*
X147299122Y-97690186D02*
X147203884Y-97737805D01*
X147203884Y-97737805D02*
X147156265Y-97785424D01*
X147156265Y-97785424D02*
X147108646Y-97880662D01*
X147108646Y-97880662D02*
X147108646Y-98118757D01*
X147108646Y-98118757D02*
X147156265Y-98213995D01*
X147156265Y-98213995D02*
X147203884Y-98261614D01*
X147203884Y-98261614D02*
X147299122Y-98309233D01*
X147299122Y-98309233D02*
X147489598Y-98309233D01*
X147489598Y-98309233D02*
X147584836Y-98261614D01*
X147584836Y-98261614D02*
X147632455Y-98213995D01*
X147632455Y-98213995D02*
X147680074Y-98118757D01*
X146727693Y-70790413D02*
X146156265Y-70790413D01*
X146441979Y-70790413D02*
X146441979Y-69790413D01*
X146441979Y-69790413D02*
X146346741Y-69933270D01*
X146346741Y-69933270D02*
X146251503Y-70028508D01*
X146251503Y-70028508D02*
X146156265Y-70076127D01*
X147061027Y-69790413D02*
X147727693Y-69790413D01*
X147727693Y-69790413D02*
X147299122Y-70790413D01*
X155522932Y-57643145D02*
X155427694Y-57595526D01*
X155427694Y-57595526D02*
X155380075Y-57547907D01*
X155380075Y-57547907D02*
X155332456Y-57452669D01*
X155332456Y-57452669D02*
X155332456Y-57405050D01*
X155332456Y-57405050D02*
X155380075Y-57309812D01*
X155380075Y-57309812D02*
X155427694Y-57262193D01*
X155427694Y-57262193D02*
X155522932Y-57214574D01*
X155522932Y-57214574D02*
X155713408Y-57214574D01*
X155713408Y-57214574D02*
X155808646Y-57262193D01*
X155808646Y-57262193D02*
X155856265Y-57309812D01*
X155856265Y-57309812D02*
X155903884Y-57405050D01*
X155903884Y-57405050D02*
X155903884Y-57452669D01*
X155903884Y-57452669D02*
X155856265Y-57547907D01*
X155856265Y-57547907D02*
X155808646Y-57595526D01*
X155808646Y-57595526D02*
X155713408Y-57643145D01*
X155713408Y-57643145D02*
X155522932Y-57643145D01*
X155522932Y-57643145D02*
X155427694Y-57690764D01*
X155427694Y-57690764D02*
X155380075Y-57738383D01*
X155380075Y-57738383D02*
X155332456Y-57833621D01*
X155332456Y-57833621D02*
X155332456Y-58024097D01*
X155332456Y-58024097D02*
X155380075Y-58119335D01*
X155380075Y-58119335D02*
X155427694Y-58166955D01*
X155427694Y-58166955D02*
X155522932Y-58214574D01*
X155522932Y-58214574D02*
X155713408Y-58214574D01*
X155713408Y-58214574D02*
X155808646Y-58166955D01*
X155808646Y-58166955D02*
X155856265Y-58119335D01*
X155856265Y-58119335D02*
X155903884Y-58024097D01*
X155903884Y-58024097D02*
X155903884Y-57833621D01*
X155903884Y-57833621D02*
X155856265Y-57738383D01*
X155856265Y-57738383D02*
X155808646Y-57690764D01*
X155808646Y-57690764D02*
X155713408Y-57643145D01*
X129608646Y-84984954D02*
X130227693Y-84984954D01*
X130227693Y-84984954D02*
X129894360Y-85365906D01*
X129894360Y-85365906D02*
X130037217Y-85365906D01*
X130037217Y-85365906D02*
X130132455Y-85413525D01*
X130132455Y-85413525D02*
X130180074Y-85461144D01*
X130180074Y-85461144D02*
X130227693Y-85556382D01*
X130227693Y-85556382D02*
X130227693Y-85794477D01*
X130227693Y-85794477D02*
X130180074Y-85889715D01*
X130180074Y-85889715D02*
X130132455Y-85937335D01*
X130132455Y-85937335D02*
X130037217Y-85984954D01*
X130037217Y-85984954D02*
X129751503Y-85984954D01*
X129751503Y-85984954D02*
X129656265Y-85937335D01*
X129656265Y-85937335D02*
X129608646Y-85889715D01*
X130846741Y-84984954D02*
X130941979Y-84984954D01*
X130941979Y-84984954D02*
X131037217Y-85032573D01*
X131037217Y-85032573D02*
X131084836Y-85080192D01*
X131084836Y-85080192D02*
X131132455Y-85175430D01*
X131132455Y-85175430D02*
X131180074Y-85365906D01*
X131180074Y-85365906D02*
X131180074Y-85604001D01*
X131180074Y-85604001D02*
X131132455Y-85794477D01*
X131132455Y-85794477D02*
X131084836Y-85889715D01*
X131084836Y-85889715D02*
X131037217Y-85937335D01*
X131037217Y-85937335D02*
X130941979Y-85984954D01*
X130941979Y-85984954D02*
X130846741Y-85984954D01*
X130846741Y-85984954D02*
X130751503Y-85937335D01*
X130751503Y-85937335D02*
X130703884Y-85889715D01*
X130703884Y-85889715D02*
X130656265Y-85794477D01*
X130656265Y-85794477D02*
X130608646Y-85604001D01*
X130608646Y-85604001D02*
X130608646Y-85365906D01*
X130608646Y-85365906D02*
X130656265Y-85175430D01*
X130656265Y-85175430D02*
X130703884Y-85080192D01*
X130703884Y-85080192D02*
X130751503Y-85032573D01*
X130751503Y-85032573D02*
X130846741Y-84984954D01*
X105332455Y-105514927D02*
X105332455Y-106181594D01*
X105094360Y-105133975D02*
X104856265Y-105848260D01*
X104856265Y-105848260D02*
X105475312Y-105848260D01*
X106284836Y-105181594D02*
X106094360Y-105181594D01*
X106094360Y-105181594D02*
X105999122Y-105229213D01*
X105999122Y-105229213D02*
X105951503Y-105276832D01*
X105951503Y-105276832D02*
X105856265Y-105419689D01*
X105856265Y-105419689D02*
X105808646Y-105610165D01*
X105808646Y-105610165D02*
X105808646Y-105991117D01*
X105808646Y-105991117D02*
X105856265Y-106086355D01*
X105856265Y-106086355D02*
X105903884Y-106133975D01*
X105903884Y-106133975D02*
X105999122Y-106181594D01*
X105999122Y-106181594D02*
X106189598Y-106181594D01*
X106189598Y-106181594D02*
X106284836Y-106133975D01*
X106284836Y-106133975D02*
X106332455Y-106086355D01*
X106332455Y-106086355D02*
X106380074Y-105991117D01*
X106380074Y-105991117D02*
X106380074Y-105753022D01*
X106380074Y-105753022D02*
X106332455Y-105657784D01*
X106332455Y-105657784D02*
X106284836Y-105610165D01*
X106284836Y-105610165D02*
X106189598Y-105562546D01*
X106189598Y-105562546D02*
X105999122Y-105562546D01*
X105999122Y-105562546D02*
X105903884Y-105610165D01*
X105903884Y-105610165D02*
X105856265Y-105657784D01*
X105856265Y-105657784D02*
X105808646Y-105753022D01*
X155332455Y-100465767D02*
X155332455Y-101132434D01*
X155094360Y-100084815D02*
X154856265Y-100799100D01*
X154856265Y-100799100D02*
X155475312Y-100799100D01*
X155808646Y-100227672D02*
X155856265Y-100180053D01*
X155856265Y-100180053D02*
X155951503Y-100132434D01*
X155951503Y-100132434D02*
X156189598Y-100132434D01*
X156189598Y-100132434D02*
X156284836Y-100180053D01*
X156284836Y-100180053D02*
X156332455Y-100227672D01*
X156332455Y-100227672D02*
X156380074Y-100322910D01*
X156380074Y-100322910D02*
X156380074Y-100418148D01*
X156380074Y-100418148D02*
X156332455Y-100561005D01*
X156332455Y-100561005D02*
X155761027Y-101132434D01*
X155761027Y-101132434D02*
X156380074Y-101132434D01*
X96208646Y-90081157D02*
X96827693Y-90081157D01*
X96827693Y-90081157D02*
X96494360Y-90462109D01*
X96494360Y-90462109D02*
X96637217Y-90462109D01*
X96637217Y-90462109D02*
X96732455Y-90509728D01*
X96732455Y-90509728D02*
X96780074Y-90557347D01*
X96780074Y-90557347D02*
X96827693Y-90652585D01*
X96827693Y-90652585D02*
X96827693Y-90890680D01*
X96827693Y-90890680D02*
X96780074Y-90985918D01*
X96780074Y-90985918D02*
X96732455Y-91033538D01*
X96732455Y-91033538D02*
X96637217Y-91081157D01*
X96637217Y-91081157D02*
X96351503Y-91081157D01*
X96351503Y-91081157D02*
X96256265Y-91033538D01*
X96256265Y-91033538D02*
X96208646Y-90985918D01*
X97161027Y-90081157D02*
X97780074Y-90081157D01*
X97780074Y-90081157D02*
X97446741Y-90462109D01*
X97446741Y-90462109D02*
X97589598Y-90462109D01*
X97589598Y-90462109D02*
X97684836Y-90509728D01*
X97684836Y-90509728D02*
X97732455Y-90557347D01*
X97732455Y-90557347D02*
X97780074Y-90652585D01*
X97780074Y-90652585D02*
X97780074Y-90890680D01*
X97780074Y-90890680D02*
X97732455Y-90985918D01*
X97732455Y-90985918D02*
X97684836Y-91033538D01*
X97684836Y-91033538D02*
X97589598Y-91081157D01*
X97589598Y-91081157D02*
X97303884Y-91081157D01*
X97303884Y-91081157D02*
X97208646Y-91033538D01*
X97208646Y-91033538D02*
X97161027Y-90985918D01*
X105427693Y-63263734D02*
X104856265Y-63263734D01*
X105141979Y-63263734D02*
X105141979Y-62263734D01*
X105141979Y-62263734D02*
X105046741Y-62406591D01*
X105046741Y-62406591D02*
X104951503Y-62501829D01*
X104951503Y-62501829D02*
X104856265Y-62549448D01*
X105808646Y-62358972D02*
X105856265Y-62311353D01*
X105856265Y-62311353D02*
X105951503Y-62263734D01*
X105951503Y-62263734D02*
X106189598Y-62263734D01*
X106189598Y-62263734D02*
X106284836Y-62311353D01*
X106284836Y-62311353D02*
X106332455Y-62358972D01*
X106332455Y-62358972D02*
X106380074Y-62454210D01*
X106380074Y-62454210D02*
X106380074Y-62549448D01*
X106380074Y-62549448D02*
X106332455Y-62692305D01*
X106332455Y-62692305D02*
X105761027Y-63263734D01*
X105761027Y-63263734D02*
X106380074Y-63263734D01*
X104808646Y-87509534D02*
X105427693Y-87509534D01*
X105427693Y-87509534D02*
X105094360Y-87890486D01*
X105094360Y-87890486D02*
X105237217Y-87890486D01*
X105237217Y-87890486D02*
X105332455Y-87938105D01*
X105332455Y-87938105D02*
X105380074Y-87985724D01*
X105380074Y-87985724D02*
X105427693Y-88080962D01*
X105427693Y-88080962D02*
X105427693Y-88319057D01*
X105427693Y-88319057D02*
X105380074Y-88414295D01*
X105380074Y-88414295D02*
X105332455Y-88461915D01*
X105332455Y-88461915D02*
X105237217Y-88509534D01*
X105237217Y-88509534D02*
X104951503Y-88509534D01*
X104951503Y-88509534D02*
X104856265Y-88461915D01*
X104856265Y-88461915D02*
X104808646Y-88414295D01*
X105808646Y-87604772D02*
X105856265Y-87557153D01*
X105856265Y-87557153D02*
X105951503Y-87509534D01*
X105951503Y-87509534D02*
X106189598Y-87509534D01*
X106189598Y-87509534D02*
X106284836Y-87557153D01*
X106284836Y-87557153D02*
X106332455Y-87604772D01*
X106332455Y-87604772D02*
X106380074Y-87700010D01*
X106380074Y-87700010D02*
X106380074Y-87795248D01*
X106380074Y-87795248D02*
X106332455Y-87938105D01*
X106332455Y-87938105D02*
X105761027Y-88509534D01*
X105761027Y-88509534D02*
X106380074Y-88509534D01*
X154808646Y-92558694D02*
X155427693Y-92558694D01*
X155427693Y-92558694D02*
X155094360Y-92939646D01*
X155094360Y-92939646D02*
X155237217Y-92939646D01*
X155237217Y-92939646D02*
X155332455Y-92987265D01*
X155332455Y-92987265D02*
X155380074Y-93034884D01*
X155380074Y-93034884D02*
X155427693Y-93130122D01*
X155427693Y-93130122D02*
X155427693Y-93368217D01*
X155427693Y-93368217D02*
X155380074Y-93463455D01*
X155380074Y-93463455D02*
X155332455Y-93511075D01*
X155332455Y-93511075D02*
X155237217Y-93558694D01*
X155237217Y-93558694D02*
X154951503Y-93558694D01*
X154951503Y-93558694D02*
X154856265Y-93511075D01*
X154856265Y-93511075D02*
X154808646Y-93463455D01*
X156284836Y-92558694D02*
X156094360Y-92558694D01*
X156094360Y-92558694D02*
X155999122Y-92606313D01*
X155999122Y-92606313D02*
X155951503Y-92653932D01*
X155951503Y-92653932D02*
X155856265Y-92796789D01*
X155856265Y-92796789D02*
X155808646Y-92987265D01*
X155808646Y-92987265D02*
X155808646Y-93368217D01*
X155808646Y-93368217D02*
X155856265Y-93463455D01*
X155856265Y-93463455D02*
X155903884Y-93511075D01*
X155903884Y-93511075D02*
X155999122Y-93558694D01*
X155999122Y-93558694D02*
X156189598Y-93558694D01*
X156189598Y-93558694D02*
X156284836Y-93511075D01*
X156284836Y-93511075D02*
X156332455Y-93463455D01*
X156332455Y-93463455D02*
X156380074Y-93368217D01*
X156380074Y-93368217D02*
X156380074Y-93130122D01*
X156380074Y-93130122D02*
X156332455Y-93034884D01*
X156332455Y-93034884D02*
X156284836Y-92987265D01*
X156284836Y-92987265D02*
X156189598Y-92939646D01*
X156189598Y-92939646D02*
X155999122Y-92939646D01*
X155999122Y-92939646D02*
X155903884Y-92987265D01*
X155903884Y-92987265D02*
X155856265Y-93034884D01*
X155856265Y-93034884D02*
X155808646Y-93130122D01*
X146108646Y-87544814D02*
X146727693Y-87544814D01*
X146727693Y-87544814D02*
X146394360Y-87925766D01*
X146394360Y-87925766D02*
X146537217Y-87925766D01*
X146537217Y-87925766D02*
X146632455Y-87973385D01*
X146632455Y-87973385D02*
X146680074Y-88021004D01*
X146680074Y-88021004D02*
X146727693Y-88116242D01*
X146727693Y-88116242D02*
X146727693Y-88354337D01*
X146727693Y-88354337D02*
X146680074Y-88449575D01*
X146680074Y-88449575D02*
X146632455Y-88497195D01*
X146632455Y-88497195D02*
X146537217Y-88544814D01*
X146537217Y-88544814D02*
X146251503Y-88544814D01*
X146251503Y-88544814D02*
X146156265Y-88497195D01*
X146156265Y-88497195D02*
X146108646Y-88449575D01*
X147680074Y-88544814D02*
X147108646Y-88544814D01*
X147394360Y-88544814D02*
X147394360Y-87544814D01*
X147394360Y-87544814D02*
X147299122Y-87687671D01*
X147299122Y-87687671D02*
X147203884Y-87782909D01*
X147203884Y-87782909D02*
X147108646Y-87830528D01*
X130608646Y-54689994D02*
X130418170Y-54689994D01*
X130418170Y-54689994D02*
X130322932Y-54737613D01*
X130322932Y-54737613D02*
X130275313Y-54785232D01*
X130275313Y-54785232D02*
X130180075Y-54928089D01*
X130180075Y-54928089D02*
X130132456Y-55118565D01*
X130132456Y-55118565D02*
X130132456Y-55499517D01*
X130132456Y-55499517D02*
X130180075Y-55594755D01*
X130180075Y-55594755D02*
X130227694Y-55642375D01*
X130227694Y-55642375D02*
X130322932Y-55689994D01*
X130322932Y-55689994D02*
X130513408Y-55689994D01*
X130513408Y-55689994D02*
X130608646Y-55642375D01*
X130608646Y-55642375D02*
X130656265Y-55594755D01*
X130656265Y-55594755D02*
X130703884Y-55499517D01*
X130703884Y-55499517D02*
X130703884Y-55261422D01*
X130703884Y-55261422D02*
X130656265Y-55166184D01*
X130656265Y-55166184D02*
X130608646Y-55118565D01*
X130608646Y-55118565D02*
X130513408Y-55070946D01*
X130513408Y-55070946D02*
X130322932Y-55070946D01*
X130322932Y-55070946D02*
X130227694Y-55118565D01*
X130227694Y-55118565D02*
X130180075Y-55166184D01*
X130180075Y-55166184D02*
X130132456Y-55261422D01*
X129608646Y-95083274D02*
X130227693Y-95083274D01*
X130227693Y-95083274D02*
X129894360Y-95464226D01*
X129894360Y-95464226D02*
X130037217Y-95464226D01*
X130037217Y-95464226D02*
X130132455Y-95511845D01*
X130132455Y-95511845D02*
X130180074Y-95559464D01*
X130180074Y-95559464D02*
X130227693Y-95654702D01*
X130227693Y-95654702D02*
X130227693Y-95892797D01*
X130227693Y-95892797D02*
X130180074Y-95988035D01*
X130180074Y-95988035D02*
X130132455Y-96035655D01*
X130132455Y-96035655D02*
X130037217Y-96083274D01*
X130037217Y-96083274D02*
X129751503Y-96083274D01*
X129751503Y-96083274D02*
X129656265Y-96035655D01*
X129656265Y-96035655D02*
X129608646Y-95988035D01*
X130799122Y-95511845D02*
X130703884Y-95464226D01*
X130703884Y-95464226D02*
X130656265Y-95416607D01*
X130656265Y-95416607D02*
X130608646Y-95321369D01*
X130608646Y-95321369D02*
X130608646Y-95273750D01*
X130608646Y-95273750D02*
X130656265Y-95178512D01*
X130656265Y-95178512D02*
X130703884Y-95130893D01*
X130703884Y-95130893D02*
X130799122Y-95083274D01*
X130799122Y-95083274D02*
X130989598Y-95083274D01*
X130989598Y-95083274D02*
X131084836Y-95130893D01*
X131084836Y-95130893D02*
X131132455Y-95178512D01*
X131132455Y-95178512D02*
X131180074Y-95273750D01*
X131180074Y-95273750D02*
X131180074Y-95321369D01*
X131180074Y-95321369D02*
X131132455Y-95416607D01*
X131132455Y-95416607D02*
X131084836Y-95464226D01*
X131084836Y-95464226D02*
X130989598Y-95511845D01*
X130989598Y-95511845D02*
X130799122Y-95511845D01*
X130799122Y-95511845D02*
X130703884Y-95559464D01*
X130703884Y-95559464D02*
X130656265Y-95607083D01*
X130656265Y-95607083D02*
X130608646Y-95702321D01*
X130608646Y-95702321D02*
X130608646Y-95892797D01*
X130608646Y-95892797D02*
X130656265Y-95988035D01*
X130656265Y-95988035D02*
X130703884Y-96035655D01*
X130703884Y-96035655D02*
X130799122Y-96083274D01*
X130799122Y-96083274D02*
X130989598Y-96083274D01*
X130989598Y-96083274D02*
X131084836Y-96035655D01*
X131084836Y-96035655D02*
X131132455Y-95988035D01*
X131132455Y-95988035D02*
X131180074Y-95892797D01*
X131180074Y-95892797D02*
X131180074Y-95702321D01*
X131180074Y-95702321D02*
X131132455Y-95607083D01*
X131132455Y-95607083D02*
X131084836Y-95559464D01*
X131084836Y-95559464D02*
X130989598Y-95511845D01*
X146632455Y-110705252D02*
X146632455Y-111371919D01*
X146394360Y-110324300D02*
X146156265Y-111038585D01*
X146156265Y-111038585D02*
X146775312Y-111038585D01*
X147203884Y-111371919D02*
X147394360Y-111371919D01*
X147394360Y-111371919D02*
X147489598Y-111324300D01*
X147489598Y-111324300D02*
X147537217Y-111276680D01*
X147537217Y-111276680D02*
X147632455Y-111133823D01*
X147632455Y-111133823D02*
X147680074Y-110943347D01*
X147680074Y-110943347D02*
X147680074Y-110562395D01*
X147680074Y-110562395D02*
X147632455Y-110467157D01*
X147632455Y-110467157D02*
X147584836Y-110419538D01*
X147584836Y-110419538D02*
X147489598Y-110371919D01*
X147489598Y-110371919D02*
X147299122Y-110371919D01*
X147299122Y-110371919D02*
X147203884Y-110419538D01*
X147203884Y-110419538D02*
X147156265Y-110467157D01*
X147156265Y-110467157D02*
X147108646Y-110562395D01*
X147108646Y-110562395D02*
X147108646Y-110800490D01*
X147108646Y-110800490D02*
X147156265Y-110895728D01*
X147156265Y-110895728D02*
X147203884Y-110943347D01*
X147203884Y-110943347D02*
X147299122Y-110990966D01*
X147299122Y-110990966D02*
X147489598Y-110990966D01*
X147489598Y-110990966D02*
X147584836Y-110943347D01*
X147584836Y-110943347D02*
X147632455Y-110895728D01*
X147632455Y-110895728D02*
X147680074Y-110800490D01*
X146727693Y-68254070D02*
X146156265Y-68254070D01*
X146441979Y-68254070D02*
X146441979Y-67254070D01*
X146441979Y-67254070D02*
X146346741Y-67396927D01*
X146346741Y-67396927D02*
X146251503Y-67492165D01*
X146251503Y-67492165D02*
X146156265Y-67539784D01*
X147632455Y-67254070D02*
X147156265Y-67254070D01*
X147156265Y-67254070D02*
X147108646Y-67730260D01*
X147108646Y-67730260D02*
X147156265Y-67682641D01*
X147156265Y-67682641D02*
X147251503Y-67635022D01*
X147251503Y-67635022D02*
X147489598Y-67635022D01*
X147489598Y-67635022D02*
X147584836Y-67682641D01*
X147584836Y-67682641D02*
X147632455Y-67730260D01*
X147632455Y-67730260D02*
X147680074Y-67825498D01*
X147680074Y-67825498D02*
X147680074Y-68063593D01*
X147680074Y-68063593D02*
X147632455Y-68158831D01*
X147632455Y-68158831D02*
X147584836Y-68206451D01*
X147584836Y-68206451D02*
X147489598Y-68254070D01*
X147489598Y-68254070D02*
X147251503Y-68254070D01*
X147251503Y-68254070D02*
X147156265Y-68206451D01*
X147156265Y-68206451D02*
X147108646Y-68158831D01*
X129656265Y-77506452D02*
X129703884Y-77458833D01*
X129703884Y-77458833D02*
X129799122Y-77411214D01*
X129799122Y-77411214D02*
X130037217Y-77411214D01*
X130037217Y-77411214D02*
X130132455Y-77458833D01*
X130132455Y-77458833D02*
X130180074Y-77506452D01*
X130180074Y-77506452D02*
X130227693Y-77601690D01*
X130227693Y-77601690D02*
X130227693Y-77696928D01*
X130227693Y-77696928D02*
X130180074Y-77839785D01*
X130180074Y-77839785D02*
X129608646Y-78411214D01*
X129608646Y-78411214D02*
X130227693Y-78411214D01*
X131084836Y-77744547D02*
X131084836Y-78411214D01*
X130846741Y-77363595D02*
X130608646Y-78077880D01*
X130608646Y-78077880D02*
X131227693Y-78077880D01*
X130227693Y-70837474D02*
X129656265Y-70837474D01*
X129941979Y-70837474D02*
X129941979Y-69837474D01*
X129941979Y-69837474D02*
X129846741Y-69980331D01*
X129846741Y-69980331D02*
X129751503Y-70075569D01*
X129751503Y-70075569D02*
X129656265Y-70123188D01*
X130799122Y-70266045D02*
X130703884Y-70218426D01*
X130703884Y-70218426D02*
X130656265Y-70170807D01*
X130656265Y-70170807D02*
X130608646Y-70075569D01*
X130608646Y-70075569D02*
X130608646Y-70027950D01*
X130608646Y-70027950D02*
X130656265Y-69932712D01*
X130656265Y-69932712D02*
X130703884Y-69885093D01*
X130703884Y-69885093D02*
X130799122Y-69837474D01*
X130799122Y-69837474D02*
X130989598Y-69837474D01*
X130989598Y-69837474D02*
X131084836Y-69885093D01*
X131084836Y-69885093D02*
X131132455Y-69932712D01*
X131132455Y-69932712D02*
X131180074Y-70027950D01*
X131180074Y-70027950D02*
X131180074Y-70075569D01*
X131180074Y-70075569D02*
X131132455Y-70170807D01*
X131132455Y-70170807D02*
X131084836Y-70218426D01*
X131084836Y-70218426D02*
X130989598Y-70266045D01*
X130989598Y-70266045D02*
X130799122Y-70266045D01*
X130799122Y-70266045D02*
X130703884Y-70313664D01*
X130703884Y-70313664D02*
X130656265Y-70361283D01*
X130656265Y-70361283D02*
X130608646Y-70456521D01*
X130608646Y-70456521D02*
X130608646Y-70646997D01*
X130608646Y-70646997D02*
X130656265Y-70742235D01*
X130656265Y-70742235D02*
X130703884Y-70789855D01*
X130703884Y-70789855D02*
X130799122Y-70837474D01*
X130799122Y-70837474D02*
X130989598Y-70837474D01*
X130989598Y-70837474D02*
X131084836Y-70789855D01*
X131084836Y-70789855D02*
X131132455Y-70742235D01*
X131132455Y-70742235D02*
X131180074Y-70646997D01*
X131180074Y-70646997D02*
X131180074Y-70456521D01*
X131180074Y-70456521D02*
X131132455Y-70361283D01*
X131132455Y-70361283D02*
X131084836Y-70313664D01*
X131084836Y-70313664D02*
X130989598Y-70266045D01*
X154856265Y-82555612D02*
X154903884Y-82507993D01*
X154903884Y-82507993D02*
X154999122Y-82460374D01*
X154999122Y-82460374D02*
X155237217Y-82460374D01*
X155237217Y-82460374D02*
X155332455Y-82507993D01*
X155332455Y-82507993D02*
X155380074Y-82555612D01*
X155380074Y-82555612D02*
X155427693Y-82650850D01*
X155427693Y-82650850D02*
X155427693Y-82746088D01*
X155427693Y-82746088D02*
X155380074Y-82888945D01*
X155380074Y-82888945D02*
X154808646Y-83460374D01*
X154808646Y-83460374D02*
X155427693Y-83460374D01*
X155999122Y-82888945D02*
X155903884Y-82841326D01*
X155903884Y-82841326D02*
X155856265Y-82793707D01*
X155856265Y-82793707D02*
X155808646Y-82698469D01*
X155808646Y-82698469D02*
X155808646Y-82650850D01*
X155808646Y-82650850D02*
X155856265Y-82555612D01*
X155856265Y-82555612D02*
X155903884Y-82507993D01*
X155903884Y-82507993D02*
X155999122Y-82460374D01*
X155999122Y-82460374D02*
X156189598Y-82460374D01*
X156189598Y-82460374D02*
X156284836Y-82507993D01*
X156284836Y-82507993D02*
X156332455Y-82555612D01*
X156332455Y-82555612D02*
X156380074Y-82650850D01*
X156380074Y-82650850D02*
X156380074Y-82698469D01*
X156380074Y-82698469D02*
X156332455Y-82793707D01*
X156332455Y-82793707D02*
X156284836Y-82841326D01*
X156284836Y-82841326D02*
X156189598Y-82888945D01*
X156189598Y-82888945D02*
X155999122Y-82888945D01*
X155999122Y-82888945D02*
X155903884Y-82936564D01*
X155903884Y-82936564D02*
X155856265Y-82984183D01*
X155856265Y-82984183D02*
X155808646Y-83079421D01*
X155808646Y-83079421D02*
X155808646Y-83269897D01*
X155808646Y-83269897D02*
X155856265Y-83365135D01*
X155856265Y-83365135D02*
X155903884Y-83412755D01*
X155903884Y-83412755D02*
X155999122Y-83460374D01*
X155999122Y-83460374D02*
X156189598Y-83460374D01*
X156189598Y-83460374D02*
X156284836Y-83412755D01*
X156284836Y-83412755D02*
X156332455Y-83365135D01*
X156332455Y-83365135D02*
X156380074Y-83269897D01*
X156380074Y-83269897D02*
X156380074Y-83079421D01*
X156380074Y-83079421D02*
X156332455Y-82984183D01*
X156332455Y-82984183D02*
X156284836Y-82936564D01*
X156284836Y-82936564D02*
X156189598Y-82888945D01*
D11*
X105290351Y-49707972D02*
X105337970Y-49660353D01*
X105337970Y-49660353D02*
X105433208Y-49612734D01*
X105433208Y-49612734D02*
X105671303Y-49612734D01*
X105671303Y-49612734D02*
X105766541Y-49660353D01*
X105766541Y-49660353D02*
X105814160Y-49707972D01*
X105814160Y-49707972D02*
X105861779Y-49803210D01*
X105861779Y-49803210D02*
X105861779Y-49898448D01*
X105861779Y-49898448D02*
X105814160Y-50041305D01*
X105814160Y-50041305D02*
X105242732Y-50612734D01*
X105242732Y-50612734D02*
X105861779Y-50612734D01*
D10*
X121108646Y-90081157D02*
X121727693Y-90081157D01*
X121727693Y-90081157D02*
X121394360Y-90462109D01*
X121394360Y-90462109D02*
X121537217Y-90462109D01*
X121537217Y-90462109D02*
X121632455Y-90509728D01*
X121632455Y-90509728D02*
X121680074Y-90557347D01*
X121680074Y-90557347D02*
X121727693Y-90652585D01*
X121727693Y-90652585D02*
X121727693Y-90890680D01*
X121727693Y-90890680D02*
X121680074Y-90985918D01*
X121680074Y-90985918D02*
X121632455Y-91033538D01*
X121632455Y-91033538D02*
X121537217Y-91081157D01*
X121537217Y-91081157D02*
X121251503Y-91081157D01*
X121251503Y-91081157D02*
X121156265Y-91033538D01*
X121156265Y-91033538D02*
X121108646Y-90985918D01*
X122061027Y-90081157D02*
X122680074Y-90081157D01*
X122680074Y-90081157D02*
X122346741Y-90462109D01*
X122346741Y-90462109D02*
X122489598Y-90462109D01*
X122489598Y-90462109D02*
X122584836Y-90509728D01*
X122584836Y-90509728D02*
X122632455Y-90557347D01*
X122632455Y-90557347D02*
X122680074Y-90652585D01*
X122680074Y-90652585D02*
X122680074Y-90890680D01*
X122680074Y-90890680D02*
X122632455Y-90985918D01*
X122632455Y-90985918D02*
X122584836Y-91033538D01*
X122584836Y-91033538D02*
X122489598Y-91081157D01*
X122489598Y-91081157D02*
X122203884Y-91081157D01*
X122203884Y-91081157D02*
X122108646Y-91033538D01*
X122108646Y-91033538D02*
X122061027Y-90985918D01*
X130132455Y-97941187D02*
X130132455Y-98607854D01*
X129894360Y-97560235D02*
X129656265Y-98274520D01*
X129656265Y-98274520D02*
X130275312Y-98274520D01*
X130846741Y-97607854D02*
X130941979Y-97607854D01*
X130941979Y-97607854D02*
X131037217Y-97655473D01*
X131037217Y-97655473D02*
X131084836Y-97703092D01*
X131084836Y-97703092D02*
X131132455Y-97798330D01*
X131132455Y-97798330D02*
X131180074Y-97988806D01*
X131180074Y-97988806D02*
X131180074Y-98226901D01*
X131180074Y-98226901D02*
X131132455Y-98417377D01*
X131132455Y-98417377D02*
X131084836Y-98512615D01*
X131084836Y-98512615D02*
X131037217Y-98560235D01*
X131037217Y-98560235D02*
X130941979Y-98607854D01*
X130941979Y-98607854D02*
X130846741Y-98607854D01*
X130846741Y-98607854D02*
X130751503Y-98560235D01*
X130751503Y-98560235D02*
X130703884Y-98512615D01*
X130703884Y-98512615D02*
X130656265Y-98417377D01*
X130656265Y-98417377D02*
X130608646Y-98226901D01*
X130608646Y-98226901D02*
X130608646Y-97988806D01*
X130608646Y-97988806D02*
X130656265Y-97798330D01*
X130656265Y-97798330D02*
X130703884Y-97703092D01*
X130703884Y-97703092D02*
X130751503Y-97655473D01*
X130751503Y-97655473D02*
X130846741Y-97607854D01*
X146156265Y-77494680D02*
X146203884Y-77447061D01*
X146203884Y-77447061D02*
X146299122Y-77399442D01*
X146299122Y-77399442D02*
X146537217Y-77399442D01*
X146537217Y-77399442D02*
X146632455Y-77447061D01*
X146632455Y-77447061D02*
X146680074Y-77494680D01*
X146680074Y-77494680D02*
X146727693Y-77589918D01*
X146727693Y-77589918D02*
X146727693Y-77685156D01*
X146727693Y-77685156D02*
X146680074Y-77828013D01*
X146680074Y-77828013D02*
X146108646Y-78399442D01*
X146108646Y-78399442D02*
X146727693Y-78399442D01*
X147061027Y-77399442D02*
X147680074Y-77399442D01*
X147680074Y-77399442D02*
X147346741Y-77780394D01*
X147346741Y-77780394D02*
X147489598Y-77780394D01*
X147489598Y-77780394D02*
X147584836Y-77828013D01*
X147584836Y-77828013D02*
X147632455Y-77875632D01*
X147632455Y-77875632D02*
X147680074Y-77970870D01*
X147680074Y-77970870D02*
X147680074Y-78208965D01*
X147680074Y-78208965D02*
X147632455Y-78304203D01*
X147632455Y-78304203D02*
X147584836Y-78351823D01*
X147584836Y-78351823D02*
X147489598Y-78399442D01*
X147489598Y-78399442D02*
X147203884Y-78399442D01*
X147203884Y-78399442D02*
X147108646Y-78351823D01*
X147108646Y-78351823D02*
X147061027Y-78304203D01*
X96827693Y-68254070D02*
X96256265Y-68254070D01*
X96541979Y-68254070D02*
X96541979Y-67254070D01*
X96541979Y-67254070D02*
X96446741Y-67396927D01*
X96446741Y-67396927D02*
X96351503Y-67492165D01*
X96351503Y-67492165D02*
X96256265Y-67539784D01*
X97732455Y-67254070D02*
X97256265Y-67254070D01*
X97256265Y-67254070D02*
X97208646Y-67730260D01*
X97208646Y-67730260D02*
X97256265Y-67682641D01*
X97256265Y-67682641D02*
X97351503Y-67635022D01*
X97351503Y-67635022D02*
X97589598Y-67635022D01*
X97589598Y-67635022D02*
X97684836Y-67682641D01*
X97684836Y-67682641D02*
X97732455Y-67730260D01*
X97732455Y-67730260D02*
X97780074Y-67825498D01*
X97780074Y-67825498D02*
X97780074Y-68063593D01*
X97780074Y-68063593D02*
X97732455Y-68158831D01*
X97732455Y-68158831D02*
X97684836Y-68206451D01*
X97684836Y-68206451D02*
X97589598Y-68254070D01*
X97589598Y-68254070D02*
X97351503Y-68254070D01*
X97351503Y-68254070D02*
X97256265Y-68206451D01*
X97256265Y-68206451D02*
X97208646Y-68158831D01*
X96732455Y-100559862D02*
X96732455Y-101226529D01*
X96494360Y-100178910D02*
X96256265Y-100893195D01*
X96256265Y-100893195D02*
X96875312Y-100893195D01*
X97780074Y-101226529D02*
X97208646Y-101226529D01*
X97494360Y-101226529D02*
X97494360Y-100226529D01*
X97494360Y-100226529D02*
X97399122Y-100369386D01*
X97399122Y-100369386D02*
X97303884Y-100464624D01*
X97303884Y-100464624D02*
X97208646Y-100512243D01*
X105427693Y-60739154D02*
X104856265Y-60739154D01*
X105141979Y-60739154D02*
X105141979Y-59739154D01*
X105141979Y-59739154D02*
X105046741Y-59882011D01*
X105046741Y-59882011D02*
X104951503Y-59977249D01*
X104951503Y-59977249D02*
X104856265Y-60024868D01*
X106046741Y-59739154D02*
X106141979Y-59739154D01*
X106141979Y-59739154D02*
X106237217Y-59786773D01*
X106237217Y-59786773D02*
X106284836Y-59834392D01*
X106284836Y-59834392D02*
X106332455Y-59929630D01*
X106332455Y-59929630D02*
X106380074Y-60120106D01*
X106380074Y-60120106D02*
X106380074Y-60358201D01*
X106380074Y-60358201D02*
X106332455Y-60548677D01*
X106332455Y-60548677D02*
X106284836Y-60643915D01*
X106284836Y-60643915D02*
X106237217Y-60691535D01*
X106237217Y-60691535D02*
X106141979Y-60739154D01*
X106141979Y-60739154D02*
X106046741Y-60739154D01*
X106046741Y-60739154D02*
X105951503Y-60691535D01*
X105951503Y-60691535D02*
X105903884Y-60643915D01*
X105903884Y-60643915D02*
X105856265Y-60548677D01*
X105856265Y-60548677D02*
X105808646Y-60358201D01*
X105808646Y-60358201D02*
X105808646Y-60120106D01*
X105808646Y-60120106D02*
X105856265Y-59929630D01*
X105856265Y-59929630D02*
X105903884Y-59834392D01*
X105903884Y-59834392D02*
X105951503Y-59786773D01*
X105951503Y-59786773D02*
X106046741Y-59739154D01*
X96256265Y-80031023D02*
X96303884Y-79983404D01*
X96303884Y-79983404D02*
X96399122Y-79935785D01*
X96399122Y-79935785D02*
X96637217Y-79935785D01*
X96637217Y-79935785D02*
X96732455Y-79983404D01*
X96732455Y-79983404D02*
X96780074Y-80031023D01*
X96780074Y-80031023D02*
X96827693Y-80126261D01*
X96827693Y-80126261D02*
X96827693Y-80221499D01*
X96827693Y-80221499D02*
X96780074Y-80364356D01*
X96780074Y-80364356D02*
X96208646Y-80935785D01*
X96208646Y-80935785D02*
X96827693Y-80935785D01*
X97732455Y-79935785D02*
X97256265Y-79935785D01*
X97256265Y-79935785D02*
X97208646Y-80411975D01*
X97208646Y-80411975D02*
X97256265Y-80364356D01*
X97256265Y-80364356D02*
X97351503Y-80316737D01*
X97351503Y-80316737D02*
X97589598Y-80316737D01*
X97589598Y-80316737D02*
X97684836Y-80364356D01*
X97684836Y-80364356D02*
X97732455Y-80411975D01*
X97732455Y-80411975D02*
X97780074Y-80507213D01*
X97780074Y-80507213D02*
X97780074Y-80745308D01*
X97780074Y-80745308D02*
X97732455Y-80840546D01*
X97732455Y-80840546D02*
X97684836Y-80888166D01*
X97684836Y-80888166D02*
X97589598Y-80935785D01*
X97589598Y-80935785D02*
X97351503Y-80935785D01*
X97351503Y-80935785D02*
X97256265Y-80888166D01*
X97256265Y-80888166D02*
X97208646Y-80840546D01*
X154808646Y-87509534D02*
X155427693Y-87509534D01*
X155427693Y-87509534D02*
X155094360Y-87890486D01*
X155094360Y-87890486D02*
X155237217Y-87890486D01*
X155237217Y-87890486D02*
X155332455Y-87938105D01*
X155332455Y-87938105D02*
X155380074Y-87985724D01*
X155380074Y-87985724D02*
X155427693Y-88080962D01*
X155427693Y-88080962D02*
X155427693Y-88319057D01*
X155427693Y-88319057D02*
X155380074Y-88414295D01*
X155380074Y-88414295D02*
X155332455Y-88461915D01*
X155332455Y-88461915D02*
X155237217Y-88509534D01*
X155237217Y-88509534D02*
X154951503Y-88509534D01*
X154951503Y-88509534D02*
X154856265Y-88461915D01*
X154856265Y-88461915D02*
X154808646Y-88414295D01*
X155808646Y-87604772D02*
X155856265Y-87557153D01*
X155856265Y-87557153D02*
X155951503Y-87509534D01*
X155951503Y-87509534D02*
X156189598Y-87509534D01*
X156189598Y-87509534D02*
X156284836Y-87557153D01*
X156284836Y-87557153D02*
X156332455Y-87604772D01*
X156332455Y-87604772D02*
X156380074Y-87700010D01*
X156380074Y-87700010D02*
X156380074Y-87795248D01*
X156380074Y-87795248D02*
X156332455Y-87938105D01*
X156332455Y-87938105D02*
X155761027Y-88509534D01*
X155761027Y-88509534D02*
X156380074Y-88509534D01*
D11*
X125936666Y-47124819D02*
X125936666Y-47839104D01*
X125936666Y-47839104D02*
X125889047Y-47981961D01*
X125889047Y-47981961D02*
X125793809Y-48077200D01*
X125793809Y-48077200D02*
X125650952Y-48124819D01*
X125650952Y-48124819D02*
X125555714Y-48124819D01*
X126365238Y-47220057D02*
X126412857Y-47172438D01*
X126412857Y-47172438D02*
X126508095Y-47124819D01*
X126508095Y-47124819D02*
X126746190Y-47124819D01*
X126746190Y-47124819D02*
X126841428Y-47172438D01*
X126841428Y-47172438D02*
X126889047Y-47220057D01*
X126889047Y-47220057D02*
X126936666Y-47315295D01*
X126936666Y-47315295D02*
X126936666Y-47410533D01*
X126936666Y-47410533D02*
X126889047Y-47553390D01*
X126889047Y-47553390D02*
X126317619Y-48124819D01*
X126317619Y-48124819D02*
X126936666Y-48124819D01*
X150936666Y-47124819D02*
X150936666Y-47839104D01*
X150936666Y-47839104D02*
X150889047Y-47981961D01*
X150889047Y-47981961D02*
X150793809Y-48077200D01*
X150793809Y-48077200D02*
X150650952Y-48124819D01*
X150650952Y-48124819D02*
X150555714Y-48124819D01*
X151317619Y-47124819D02*
X151936666Y-47124819D01*
X151936666Y-47124819D02*
X151603333Y-47505771D01*
X151603333Y-47505771D02*
X151746190Y-47505771D01*
X151746190Y-47505771D02*
X151841428Y-47553390D01*
X151841428Y-47553390D02*
X151889047Y-47601009D01*
X151889047Y-47601009D02*
X151936666Y-47696247D01*
X151936666Y-47696247D02*
X151936666Y-47934342D01*
X151936666Y-47934342D02*
X151889047Y-48029580D01*
X151889047Y-48029580D02*
X151841428Y-48077200D01*
X151841428Y-48077200D02*
X151746190Y-48124819D01*
X151746190Y-48124819D02*
X151460476Y-48124819D01*
X151460476Y-48124819D02*
X151365238Y-48077200D01*
X151365238Y-48077200D02*
X151317619Y-48029580D01*
X100936666Y-47123069D02*
X100936666Y-47837354D01*
X100936666Y-47837354D02*
X100889047Y-47980211D01*
X100889047Y-47980211D02*
X100793809Y-48075450D01*
X100793809Y-48075450D02*
X100650952Y-48123069D01*
X100650952Y-48123069D02*
X100555714Y-48123069D01*
X101936666Y-48123069D02*
X101365238Y-48123069D01*
X101650952Y-48123069D02*
X101650952Y-47123069D01*
X101650952Y-47123069D02*
X101555714Y-47265926D01*
X101555714Y-47265926D02*
X101460476Y-47361164D01*
X101460476Y-47361164D02*
X101365238Y-47408783D01*
D13*
%TO.C,J6*%
X141465833Y-44130000D02*
X141465833Y-42800000D01*
X142795833Y-44130000D02*
X141465833Y-44130000D01*
X144065833Y-41470000D02*
X154285833Y-41470000D01*
X144065833Y-44130000D02*
X144065833Y-41470000D01*
X144065833Y-44130000D02*
X154285833Y-44130000D01*
X154285833Y-44130000D02*
X154285833Y-41470000D01*
%TO.C,J5*%
X141720000Y-119530000D02*
X141720000Y-118200000D01*
X143050000Y-119530000D02*
X141720000Y-119530000D01*
X144320000Y-116870000D02*
X154540000Y-116870000D01*
X144320000Y-119530000D02*
X144320000Y-116870000D01*
X144320000Y-119530000D02*
X154540000Y-119530000D01*
X154540000Y-119530000D02*
X154540000Y-116870000D01*
%TO.C,J7*%
X96799166Y-44130000D02*
X96799166Y-42800000D01*
X98129166Y-44130000D02*
X96799166Y-44130000D01*
X99399166Y-41470000D02*
X109619166Y-41470000D01*
X99399166Y-44130000D02*
X99399166Y-41470000D01*
X99399166Y-44130000D02*
X109619166Y-44130000D01*
X109619166Y-44130000D02*
X109619166Y-41470000D01*
%TO.C,J2*%
X123670000Y-48670000D02*
X125000000Y-48670000D01*
X123670000Y-50000000D02*
X123670000Y-48670000D01*
X123670000Y-51270000D02*
X123670000Y-112290000D01*
X123670000Y-51270000D02*
X126270000Y-51270000D01*
X123670000Y-112290000D02*
X128870000Y-112290000D01*
X126270000Y-48670000D02*
X128870000Y-48670000D01*
X126270000Y-51270000D02*
X126270000Y-48670000D01*
X128870000Y-48670000D02*
X128870000Y-112290000D01*
%TO.C,J4*%
X97307500Y-119530000D02*
X97307500Y-118200000D01*
X98637500Y-119530000D02*
X97307500Y-119530000D01*
X99907500Y-116870000D02*
X110127500Y-116870000D01*
X99907500Y-119530000D02*
X99907500Y-116870000D01*
X99907500Y-119530000D02*
X110127500Y-119530000D01*
X110127500Y-119530000D02*
X110127500Y-116870000D01*
%TO.C,J3*%
X148670000Y-48670000D02*
X150000000Y-48670000D01*
X148670000Y-50000000D02*
X148670000Y-48670000D01*
X148670000Y-51270000D02*
X148670000Y-112290000D01*
X148670000Y-51270000D02*
X151270000Y-51270000D01*
X148670000Y-112290000D02*
X153870000Y-112290000D01*
X151270000Y-48670000D02*
X153870000Y-48670000D01*
X151270000Y-51270000D02*
X151270000Y-48670000D01*
X153870000Y-48670000D02*
X153870000Y-112290000D01*
%TO.C,J1*%
X98670000Y-48668250D02*
X100000000Y-48668250D01*
X98670000Y-49998250D02*
X98670000Y-48668250D01*
X98670000Y-51268250D02*
X98670000Y-112288250D01*
X98670000Y-51268250D02*
X101270000Y-51268250D01*
X98670000Y-112288250D02*
X103870000Y-112288250D01*
X101270000Y-48668250D02*
X103870000Y-48668250D01*
X101270000Y-51268250D02*
X101270000Y-48668250D01*
X103870000Y-48668250D02*
X103870000Y-112288250D01*
%TD*%
%LPC*%
D14*
%TO.C,REF\u002A\u002A*%
X113608333Y-42800000D03*
%TD*%
D15*
%TO.C,J6*%
X142795833Y-42800000D03*
D16*
X145335833Y-42800000D03*
X147875833Y-42800000D03*
X150415833Y-42800000D03*
X152955833Y-42800000D03*
%TD*%
D15*
%TO.C,J5*%
X143050000Y-118200000D03*
D16*
X145590000Y-118200000D03*
X148130000Y-118200000D03*
X150670000Y-118200000D03*
X153210000Y-118200000D03*
%TD*%
D14*
%TO.C,REF\u002A\u002A*%
X114625000Y-118200000D03*
%TD*%
%TO.C,REF\u002A\u002A*%
X92800000Y-42800000D03*
%TD*%
%TO.C,REF\u002A\u002A*%
X92800000Y-118200000D03*
%TD*%
%TO.C,REF\u002A\u002A*%
X159800000Y-42800000D03*
%TD*%
D15*
%TO.C,J7*%
X98129166Y-42800000D03*
D16*
X100669166Y-42800000D03*
X103209166Y-42800000D03*
X105749166Y-42800000D03*
X108289166Y-42800000D03*
%TD*%
D15*
%TO.C,J2*%
X125000000Y-50000000D03*
D16*
X127540000Y-50000000D03*
X125000000Y-52540000D03*
X127540000Y-52540000D03*
X125000000Y-55080000D03*
X127540000Y-55080000D03*
X125000000Y-57620000D03*
X127540000Y-57620000D03*
X125000000Y-60160000D03*
X127540000Y-60160000D03*
X125000000Y-62700000D03*
X127540000Y-62700000D03*
X125000000Y-65240000D03*
X127540000Y-65240000D03*
X125000000Y-67780000D03*
X127540000Y-67780000D03*
X125000000Y-70320000D03*
X127540000Y-70320000D03*
X125000000Y-72860000D03*
X127540000Y-72860000D03*
X125000000Y-75400000D03*
X127540000Y-75400000D03*
X125000000Y-77940000D03*
X127540000Y-77940000D03*
X125000000Y-80480000D03*
X127540000Y-80480000D03*
X125000000Y-83020000D03*
X127540000Y-83020000D03*
X125000000Y-85560000D03*
X127540000Y-85560000D03*
X125000000Y-88100000D03*
X127540000Y-88100000D03*
X125000000Y-90640000D03*
X127540000Y-90640000D03*
X125000000Y-93180000D03*
X127540000Y-93180000D03*
X125000000Y-95720000D03*
X127540000Y-95720000D03*
X125000000Y-98260000D03*
X127540000Y-98260000D03*
X125000000Y-100800000D03*
X127540000Y-100800000D03*
X125000000Y-103340000D03*
X127540000Y-103340000D03*
X125000000Y-105880000D03*
X127540000Y-105880000D03*
X125000000Y-108420000D03*
X127540000Y-108420000D03*
X125000000Y-110960000D03*
X127540000Y-110960000D03*
%TD*%
D15*
%TO.C,J4*%
X98637500Y-118200000D03*
D16*
X101177500Y-118200000D03*
X103717500Y-118200000D03*
X106257500Y-118200000D03*
X108797500Y-118200000D03*
%TD*%
D14*
%TO.C,REF\u002A\u002A*%
X136450000Y-118200000D03*
%TD*%
D15*
%TO.C,J3*%
X150000000Y-50000000D03*
D16*
X152540000Y-50000000D03*
X150000000Y-52540000D03*
X152540000Y-52540000D03*
X150000000Y-55080000D03*
X152540000Y-55080000D03*
X150000000Y-57620000D03*
X152540000Y-57620000D03*
X150000000Y-60160000D03*
X152540000Y-60160000D03*
X150000000Y-62700000D03*
X152540000Y-62700000D03*
X150000000Y-65240000D03*
X152540000Y-65240000D03*
X150000000Y-67780000D03*
X152540000Y-67780000D03*
X150000000Y-70320000D03*
X152540000Y-70320000D03*
X150000000Y-72860000D03*
X152540000Y-72860000D03*
X150000000Y-75400000D03*
X152540000Y-75400000D03*
X150000000Y-77940000D03*
X152540000Y-77940000D03*
X150000000Y-80480000D03*
X152540000Y-80480000D03*
X150000000Y-83020000D03*
X152540000Y-83020000D03*
X150000000Y-85560000D03*
X152540000Y-85560000D03*
X150000000Y-88100000D03*
X152540000Y-88100000D03*
X150000000Y-90640000D03*
X152540000Y-90640000D03*
X150000000Y-93180000D03*
X152540000Y-93180000D03*
X150000000Y-95720000D03*
X152540000Y-95720000D03*
X150000000Y-98260000D03*
X152540000Y-98260000D03*
X150000000Y-100800000D03*
X152540000Y-100800000D03*
X150000000Y-103340000D03*
X152540000Y-103340000D03*
X150000000Y-105880000D03*
X152540000Y-105880000D03*
X150000000Y-108420000D03*
X152540000Y-108420000D03*
X150000000Y-110960000D03*
X152540000Y-110960000D03*
%TD*%
D14*
%TO.C,REF\u002A\u002A*%
X135941666Y-42800000D03*
%TD*%
%TO.C,REF\u002A\u002A*%
X159800000Y-118200000D03*
%TD*%
D15*
%TO.C,J1*%
X100000000Y-49998250D03*
D16*
X102540000Y-49998250D03*
X100000000Y-52538250D03*
X102540000Y-52538250D03*
X100000000Y-55078250D03*
X102540000Y-55078250D03*
X100000000Y-57618250D03*
X102540000Y-57618250D03*
X100000000Y-60158250D03*
X102540000Y-60158250D03*
X100000000Y-62698250D03*
X102540000Y-62698250D03*
X100000000Y-65238250D03*
X102540000Y-65238250D03*
X100000000Y-67778250D03*
X102540000Y-67778250D03*
X100000000Y-70318250D03*
X102540000Y-70318250D03*
X100000000Y-72858250D03*
X102540000Y-72858250D03*
X100000000Y-75398250D03*
X102540000Y-75398250D03*
X100000000Y-77938250D03*
X102540000Y-77938250D03*
X100000000Y-80478250D03*
X102540000Y-80478250D03*
X100000000Y-83018250D03*
X102540000Y-83018250D03*
X100000000Y-85558250D03*
X102540000Y-85558250D03*
X100000000Y-88098250D03*
X102540000Y-88098250D03*
X100000000Y-90638250D03*
X102540000Y-90638250D03*
X100000000Y-93178250D03*
X102540000Y-93178250D03*
X100000000Y-95718250D03*
X102540000Y-95718250D03*
X100000000Y-98258250D03*
X102540000Y-98258250D03*
X100000000Y-100798250D03*
X102540000Y-100798250D03*
X100000000Y-103338250D03*
X102540000Y-103338250D03*
X100000000Y-105878250D03*
X102540000Y-105878250D03*
X100000000Y-108418250D03*
X102540000Y-108418250D03*
X100000000Y-110958250D03*
X102540000Y-110958250D03*
%TD*%
%LPD*%
M02*
