%TF.GenerationSoftware,KiCad,Pcbnew,8.0.2*%
%TF.CreationDate,2024-09-15T20:03:39-05:00*%
%TF.ProjectId,fifty_pin_header_breakout,66696674-795f-4706-996e-5f6865616465,rev?*%
%TF.SameCoordinates,Original*%
%TF.FileFunction,Soldermask,Bot*%
%TF.FilePolarity,Negative*%
%FSLAX46Y46*%
G04 Gerber Fmt 4.6, Leading zero omitted, Abs format (unit mm)*
G04 Created by KiCad (PCBNEW 8.0.2) date 2024-09-15 20:03:39*
%MOMM*%
%LPD*%
G01*
G04 APERTURE LIST*
%ADD10C,2.500000*%
%ADD11R,1.700000X1.700000*%
%ADD12O,1.700000X1.700000*%
G04 APERTURE END LIST*
D10*
%TO.C,REF\u002A\u002A*%
X113608333Y-42800000D03*
%TD*%
D11*
%TO.C,J6*%
X142795833Y-42800000D03*
D12*
X145335833Y-42800000D03*
X147875833Y-42800000D03*
X150415833Y-42800000D03*
X152955833Y-42800000D03*
%TD*%
D11*
%TO.C,J5*%
X143050000Y-118200000D03*
D12*
X145590000Y-118200000D03*
X148130000Y-118200000D03*
X150670000Y-118200000D03*
X153210000Y-118200000D03*
%TD*%
D10*
%TO.C,REF\u002A\u002A*%
X114625000Y-118200000D03*
%TD*%
%TO.C,REF\u002A\u002A*%
X92800000Y-42800000D03*
%TD*%
%TO.C,REF\u002A\u002A*%
X92800000Y-118200000D03*
%TD*%
%TO.C,REF\u002A\u002A*%
X159800000Y-42800000D03*
%TD*%
D11*
%TO.C,J7*%
X98129166Y-42800000D03*
D12*
X100669166Y-42800000D03*
X103209166Y-42800000D03*
X105749166Y-42800000D03*
X108289166Y-42800000D03*
%TD*%
D11*
%TO.C,J2*%
X125000000Y-50000000D03*
D12*
X127540000Y-50000000D03*
X125000000Y-52540000D03*
X127540000Y-52540000D03*
X125000000Y-55080000D03*
X127540000Y-55080000D03*
X125000000Y-57620000D03*
X127540000Y-57620000D03*
X125000000Y-60160000D03*
X127540000Y-60160000D03*
X125000000Y-62700000D03*
X127540000Y-62700000D03*
X125000000Y-65240000D03*
X127540000Y-65240000D03*
X125000000Y-67780000D03*
X127540000Y-67780000D03*
X125000000Y-70320000D03*
X127540000Y-70320000D03*
X125000000Y-72860000D03*
X127540000Y-72860000D03*
X125000000Y-75400000D03*
X127540000Y-75400000D03*
X125000000Y-77940000D03*
X127540000Y-77940000D03*
X125000000Y-80480000D03*
X127540000Y-80480000D03*
X125000000Y-83020000D03*
X127540000Y-83020000D03*
X125000000Y-85560000D03*
X127540000Y-85560000D03*
X125000000Y-88100000D03*
X127540000Y-88100000D03*
X125000000Y-90640000D03*
X127540000Y-90640000D03*
X125000000Y-93180000D03*
X127540000Y-93180000D03*
X125000000Y-95720000D03*
X127540000Y-95720000D03*
X125000000Y-98260000D03*
X127540000Y-98260000D03*
X125000000Y-100800000D03*
X127540000Y-100800000D03*
X125000000Y-103340000D03*
X127540000Y-103340000D03*
X125000000Y-105880000D03*
X127540000Y-105880000D03*
X125000000Y-108420000D03*
X127540000Y-108420000D03*
X125000000Y-110960000D03*
X127540000Y-110960000D03*
%TD*%
D11*
%TO.C,J4*%
X98637500Y-118200000D03*
D12*
X101177500Y-118200000D03*
X103717500Y-118200000D03*
X106257500Y-118200000D03*
X108797500Y-118200000D03*
%TD*%
D10*
%TO.C,REF\u002A\u002A*%
X136450000Y-118200000D03*
%TD*%
D11*
%TO.C,J3*%
X150000000Y-50000000D03*
D12*
X152540000Y-50000000D03*
X150000000Y-52540000D03*
X152540000Y-52540000D03*
X150000000Y-55080000D03*
X152540000Y-55080000D03*
X150000000Y-57620000D03*
X152540000Y-57620000D03*
X150000000Y-60160000D03*
X152540000Y-60160000D03*
X150000000Y-62700000D03*
X152540000Y-62700000D03*
X150000000Y-65240000D03*
X152540000Y-65240000D03*
X150000000Y-67780000D03*
X152540000Y-67780000D03*
X150000000Y-70320000D03*
X152540000Y-70320000D03*
X150000000Y-72860000D03*
X152540000Y-72860000D03*
X150000000Y-75400000D03*
X152540000Y-75400000D03*
X150000000Y-77940000D03*
X152540000Y-77940000D03*
X150000000Y-80480000D03*
X152540000Y-80480000D03*
X150000000Y-83020000D03*
X152540000Y-83020000D03*
X150000000Y-85560000D03*
X152540000Y-85560000D03*
X150000000Y-88100000D03*
X152540000Y-88100000D03*
X150000000Y-90640000D03*
X152540000Y-90640000D03*
X150000000Y-93180000D03*
X152540000Y-93180000D03*
X150000000Y-95720000D03*
X152540000Y-95720000D03*
X150000000Y-98260000D03*
X152540000Y-98260000D03*
X150000000Y-100800000D03*
X152540000Y-100800000D03*
X150000000Y-103340000D03*
X152540000Y-103340000D03*
X150000000Y-105880000D03*
X152540000Y-105880000D03*
X150000000Y-108420000D03*
X152540000Y-108420000D03*
X150000000Y-110960000D03*
X152540000Y-110960000D03*
%TD*%
D10*
%TO.C,REF\u002A\u002A*%
X135941666Y-42800000D03*
%TD*%
%TO.C,REF\u002A\u002A*%
X159800000Y-118200000D03*
%TD*%
D11*
%TO.C,J1*%
X100000000Y-49998250D03*
D12*
X102540000Y-49998250D03*
X100000000Y-52538250D03*
X102540000Y-52538250D03*
X100000000Y-55078250D03*
X102540000Y-55078250D03*
X100000000Y-57618250D03*
X102540000Y-57618250D03*
X100000000Y-60158250D03*
X102540000Y-60158250D03*
X100000000Y-62698250D03*
X102540000Y-62698250D03*
X100000000Y-65238250D03*
X102540000Y-65238250D03*
X100000000Y-67778250D03*
X102540000Y-67778250D03*
X100000000Y-70318250D03*
X102540000Y-70318250D03*
X100000000Y-72858250D03*
X102540000Y-72858250D03*
X100000000Y-75398250D03*
X102540000Y-75398250D03*
X100000000Y-77938250D03*
X102540000Y-77938250D03*
X100000000Y-80478250D03*
X102540000Y-80478250D03*
X100000000Y-83018250D03*
X102540000Y-83018250D03*
X100000000Y-85558250D03*
X102540000Y-85558250D03*
X100000000Y-88098250D03*
X102540000Y-88098250D03*
X100000000Y-90638250D03*
X102540000Y-90638250D03*
X100000000Y-93178250D03*
X102540000Y-93178250D03*
X100000000Y-95718250D03*
X102540000Y-95718250D03*
X100000000Y-98258250D03*
X102540000Y-98258250D03*
X100000000Y-100798250D03*
X102540000Y-100798250D03*
X100000000Y-103338250D03*
X102540000Y-103338250D03*
X100000000Y-105878250D03*
X102540000Y-105878250D03*
X100000000Y-108418250D03*
X102540000Y-108418250D03*
X100000000Y-110958250D03*
X102540000Y-110958250D03*
%TD*%
M02*
