M48
; DRILL file {KiCad 8.0.2} date 2024-09-15T20:03:39-0500
; FORMAT={-:-/ absolute / inch / decimal}
; #@! TF.CreationDate,2024-09-15T20:03:39-05:00
; #@! TF.GenerationSoftware,Kicad,Pcbnew,8.0.2
; #@! TF.FileFunction,Plated,1,2,PTH
FMAT,2
INCH
; #@! TA.AperFunction,Plated,PTH,ComponentDrill
T1C0.0394
%
G90
G05
T1
X3.8634Y-1.685
X3.8834Y-4.6535
X3.937Y-1.9684
X3.937Y-2.0684
X3.937Y-2.1684
X3.937Y-2.2684
X3.937Y-2.3684
X3.937Y-2.4684
X3.937Y-2.5684
X3.937Y-2.6684
X3.937Y-2.7684
X3.937Y-2.8684
X3.937Y-2.9684
X3.937Y-3.0684
X3.937Y-3.1684
X3.937Y-3.2684
X3.937Y-3.3684
X3.937Y-3.4684
X3.937Y-3.5684
X3.937Y-3.6684
X3.937Y-3.7684
X3.937Y-3.8684
X3.937Y-3.9684
X3.937Y-4.0684
X3.937Y-4.1684
X3.937Y-4.2684
X3.937Y-4.3684
X3.9634Y-1.685
X3.9834Y-4.6535
X4.037Y-1.9684
X4.037Y-2.0684
X4.037Y-2.1684
X4.037Y-2.2684
X4.037Y-2.3684
X4.037Y-2.4684
X4.037Y-2.5684
X4.037Y-2.6684
X4.037Y-2.7684
X4.037Y-2.8684
X4.037Y-2.9684
X4.037Y-3.0684
X4.037Y-3.1684
X4.037Y-3.2684
X4.037Y-3.3684
X4.037Y-3.4684
X4.037Y-3.5684
X4.037Y-3.6684
X4.037Y-3.7684
X4.037Y-3.8684
X4.037Y-3.9684
X4.037Y-4.0684
X4.037Y-4.1684
X4.037Y-4.2684
X4.037Y-4.3684
X4.0634Y-1.685
X4.0834Y-4.6535
X4.1634Y-1.685
X4.1834Y-4.6535
X4.2634Y-1.685
X4.2834Y-4.6535
X4.9213Y-1.9685
X4.9213Y-2.0685
X4.9213Y-2.1685
X4.9213Y-2.2685
X4.9213Y-2.3685
X4.9213Y-2.4685
X4.9213Y-2.5685
X4.9213Y-2.6685
X4.9213Y-2.7685
X4.9213Y-2.8685
X4.9213Y-2.9685
X4.9213Y-3.0685
X4.9213Y-3.1685
X4.9213Y-3.2685
X4.9213Y-3.3685
X4.9213Y-3.4685
X4.9213Y-3.5685
X4.9213Y-3.6685
X4.9213Y-3.7685
X4.9213Y-3.8685
X4.9213Y-3.9685
X4.9213Y-4.0685
X4.9213Y-4.1685
X4.9213Y-4.2685
X4.9213Y-4.3685
X5.0213Y-1.9685
X5.0213Y-2.0685
X5.0213Y-2.1685
X5.0213Y-2.2685
X5.0213Y-2.3685
X5.0213Y-2.4685
X5.0213Y-2.5685
X5.0213Y-2.6685
X5.0213Y-2.7685
X5.0213Y-2.8685
X5.0213Y-2.9685
X5.0213Y-3.0685
X5.0213Y-3.1685
X5.0213Y-3.2685
X5.0213Y-3.3685
X5.0213Y-3.4685
X5.0213Y-3.5685
X5.0213Y-3.6685
X5.0213Y-3.7685
X5.0213Y-3.8685
X5.0213Y-3.9685
X5.0213Y-4.0685
X5.0213Y-4.1685
X5.0213Y-4.2685
X5.0213Y-4.3685
X5.6219Y-1.685
X5.6319Y-4.6535
X5.7219Y-1.685
X5.7319Y-4.6535
X5.8219Y-1.685
X5.8319Y-4.6535
X5.9055Y-1.9685
X5.9055Y-2.0685
X5.9055Y-2.1685
X5.9055Y-2.2685
X5.9055Y-2.3685
X5.9055Y-2.4685
X5.9055Y-2.5685
X5.9055Y-2.6685
X5.9055Y-2.7685
X5.9055Y-2.8685
X5.9055Y-2.9685
X5.9055Y-3.0685
X5.9055Y-3.1685
X5.9055Y-3.2685
X5.9055Y-3.3685
X5.9055Y-3.4685
X5.9055Y-3.5685
X5.9055Y-3.6685
X5.9055Y-3.7685
X5.9055Y-3.8685
X5.9055Y-3.9685
X5.9055Y-4.0685
X5.9055Y-4.1685
X5.9055Y-4.2685
X5.9055Y-4.3685
X5.9219Y-1.685
X5.9319Y-4.6535
X6.0055Y-1.9685
X6.0055Y-2.0685
X6.0055Y-2.1685
X6.0055Y-2.2685
X6.0055Y-2.3685
X6.0055Y-2.4685
X6.0055Y-2.5685
X6.0055Y-2.6685
X6.0055Y-2.7685
X6.0055Y-2.8685
X6.0055Y-2.9685
X6.0055Y-3.0685
X6.0055Y-3.1685
X6.0055Y-3.2685
X6.0055Y-3.3685
X6.0055Y-3.4685
X6.0055Y-3.5685
X6.0055Y-3.6685
X6.0055Y-3.7685
X6.0055Y-3.8685
X6.0055Y-3.9685
X6.0055Y-4.0685
X6.0055Y-4.1685
X6.0055Y-4.2685
X6.0055Y-4.3685
X6.0219Y-1.685
X6.0319Y-4.6535
M30
