M48
; DRILL file {KiCad (5.99.0-9973-gfb99c55869)} date Tuesday, March 23, 2021 at 09:14:13 PM
; FORMAT={-:-/ absolute / inch / decimal}
; #@! TF.CreationDate,2021-03-23T21:14:13-05:00
; #@! TF.GenerationSoftware,Kicad,Pcbnew,(5.99.0-9973-gfb99c55869)
; #@! TF.FileFunction,Plated,1,2,PTH
FMAT,2
INCH
; #@! TA.AperFunction,ViaDrill
T1C0.0098
; #@! TA.AperFunction,ViaDrill
T2C0.0157
; #@! TA.AperFunction,ComponentDrill,Plated,PTH
T3C0.0197
; #@! TA.AperFunction,ComponentDrill,Plated,PTH
T4C0.0394
; #@! TA.AperFunction,ComponentDrill,Plated,PTH
T5C0.0441
; #@! TA.AperFunction,ComponentDrill,Plated,PTH
T6C0.1063
; #@! TA.AperFunction,ComponentDrill,Plated,PTH
T7C0.1283
%
G90
G05
T1
; via hole
X3.2984Y-1.2394
X3.4004Y-1.2413
X3.504Y-1.2324
X3.61Y-1.2275
X3.6981Y-1.2146
X3.7945Y-1.2264
X3.9709Y-1.3327
X3.9753Y-1.1428
X4.0358Y-1.2376
X4.0638Y-1.25
X4.1055Y-1.2433
X4.1713Y-1.2453
X4.2657Y-1.2472
X4.3354Y-1.2453
X4.3698Y-1.2475
X4.5091Y-1.2941
X4.6137Y-1.2474
X4.6777Y-1.287
X4.785Y-1.2425
X4.8925Y-1.2155
X4.9227Y-1.2499
X4.9752Y-1.2435
X4.9894Y-1.2972
X5.0716Y-1.2453
X5.1346Y-1.2762
X5.1795Y-1.1386
X5.2753Y-1.2264
X5.3476Y-1.286
X5.3959Y-1.2253
X5.4862Y-1.2264
X5.5906Y-1.2291
T2
X3.2633Y-0.3273
X3.3753Y-0.2473
X3.3973Y-0.3593
X3.4329Y-0.386
X3.4553Y-0.4213
X3.7613Y-0.5293
X3.8133Y-0.2953
X3.9033Y-0.5593
X3.9513Y-1.3946
X4.0353Y-0.5933
X4.1533Y-0.6313
X4.1873Y-0.2953
X4.4253Y-0.6613
X4.4273Y-0.2933
X4.5473Y-0.3393
X4.5593Y-0.6853
X4.6753Y-0.7033
X4.6853Y-0.3213
X4.7173Y-0.6053
X4.7653Y-0.7353
X4.8273Y-0.7573
X4.8693Y-0.3853
X4.8993Y-0.7833
X5.0013Y-0.4093
X5.1073Y-0.5513
X5.1098Y-0.7576
X5.1233Y-0.4693
X5.1517Y-0.7553
X5.2393Y-0.7273
X5.2573Y-0.5173
X5.2973Y-0.5853
X5.3033Y-0.5413
X5.3773Y-0.7113
X5.4013Y-0.5393
X5.4333Y-0.5973
X5.5133Y-0.6893
X5.6373Y-0.6613
T3
; plated pad hole
X3.2195Y-1.6614
X3.2428Y-1.605
X3.2428Y-1.7178
X3.2992Y-1.5817
X3.2992Y-1.7411
X3.3556Y-1.605
X3.3556Y-1.7178
X3.3789Y-1.6614
X5.503Y-1.6614
X5.5263Y-1.605
X5.5263Y-1.7178
X5.5827Y-1.5817
X5.5827Y-1.7411
X5.6391Y-1.605
X5.6391Y-1.7178
X5.6624Y-1.6614
T4
X3.2388Y-0.8543
X3.2388Y-1.0888
X3.2388Y-1.1888
X3.3388Y-1.0888
X3.3388Y-1.1888
X3.3722Y-0.8543
X3.4388Y-1.0888
X3.4388Y-1.1888
X3.5055Y-0.8543
X3.5388Y-1.0888
X3.5388Y-1.1888
X3.6388Y-0.8543
X3.6388Y-1.0888
X3.6388Y-1.1888
X3.7293Y0.6294
X3.7293Y0.5294
X3.7293Y0.0647
X3.7293Y-0.0353
X3.7388Y-1.0888
X3.7388Y-1.1888
X3.7722Y-0.8543
X3.8293Y0.6294
X3.8293Y0.5294
X3.8293Y0.0647
X3.8293Y-0.0353
X3.8388Y-1.0888
X3.8388Y-1.1888
X3.9055Y-0.8543
X3.9293Y0.6294
X3.9293Y0.5294
X3.9293Y0.0647
X3.9293Y-0.0353
X3.9388Y-1.0888
X3.9388Y-1.1888
X4.0293Y0.6294
X4.0293Y0.5294
X4.0293Y0.0647
X4.0293Y-0.0353
X4.0388Y-0.8543
X4.0388Y-1.0888
X4.0388Y-1.1888
X4.1293Y0.6294
X4.1293Y0.5294
X4.1293Y0.0647
X4.1293Y-0.0353
X4.1388Y-1.0888
X4.1388Y-1.1888
X4.1722Y-0.8543
X4.2293Y0.6294
X4.2293Y0.5294
X4.2293Y0.0647
X4.2293Y-0.0353
X4.2388Y-1.0888
X4.2388Y-1.1888
X4.3055Y-0.8543
X4.3293Y0.6294
X4.3293Y0.5294
X4.3293Y0.0647
X4.3293Y-0.0353
X4.3388Y-1.0888
X4.3388Y-1.1888
X4.4293Y0.6294
X4.4293Y0.5294
X4.4293Y0.0647
X4.4293Y-0.0353
X4.4388Y-0.8543
X4.4388Y-1.0888
X4.4388Y-1.1888
X4.5293Y0.6294
X4.5293Y0.5294
X4.5293Y0.0647
X4.5293Y-0.0353
X4.5388Y-1.0888
X4.5388Y-1.1888
X4.5722Y-0.8543
X4.6293Y0.6294
X4.6293Y0.5294
X4.6293Y0.0647
X4.6293Y-0.0353
X4.6388Y-1.0888
X4.6388Y-1.1888
X4.7055Y-0.8543
X4.7293Y0.6294
X4.7293Y0.5294
X4.7293Y0.0647
X4.7293Y-0.0353
X4.7388Y-1.0888
X4.7388Y-1.1888
X4.8293Y0.6294
X4.8293Y0.5294
X4.8293Y0.0647
X4.8293Y-0.0353
X4.8388Y-0.8543
X4.8388Y-1.0888
X4.8388Y-1.1888
X4.9293Y0.6294
X4.9293Y0.5294
X4.9293Y0.0647
X4.9293Y-0.0353
X4.9388Y-1.0888
X4.9388Y-1.1888
X4.9722Y-0.8543
X5.0293Y0.6294
X5.0293Y0.5294
X5.0293Y0.0647
X5.0293Y-0.0353
X5.0388Y-1.0888
X5.0388Y-1.1888
X5.1055Y-0.8543
X5.1293Y0.6294
X5.1293Y0.5294
X5.1293Y0.0647
X5.1293Y-0.0353
X5.1388Y-1.0888
X5.1388Y-1.1888
X5.2388Y-0.8543
X5.2388Y-1.0888
X5.2388Y-1.1888
X5.3388Y-1.0888
X5.3388Y-1.1888
X5.3722Y-0.8543
X5.4388Y-1.0888
X5.4388Y-1.1888
X5.5055Y-0.8543
X5.5388Y-1.0888
X5.5388Y-1.1888
X5.6388Y-0.8543
X5.6388Y-1.0888
X5.6388Y-1.1888
T5
X3.7909Y-1.3713
X3.8453Y-1.4831
X3.8996Y-1.3713
X3.954Y-1.4831
X4.0083Y-1.3713
X4.0627Y-1.4831
X4.117Y-1.3713
X4.1714Y-1.4831
X4.2257Y-1.3713
X4.2801Y-1.4831
X4.3344Y-1.3713
X4.3888Y-1.4831
X4.4431Y-1.3713
X4.4975Y-1.4831
X4.5518Y-1.3713
X4.6062Y-1.4831
X4.6605Y-1.3713
X4.7149Y-1.4831
X4.7692Y-1.3713
X4.8236Y-1.4831
X4.8779Y-1.3713
X4.9323Y-1.4831
X4.9866Y-1.3713
X5.041Y-1.4831
X5.0953Y-1.3713
T6
X3.2992Y-1.6614
X5.5827Y-1.6614
T7
X3.5174Y-1.4272
X5.3694Y-1.4272
T0
M30
