%TF.GenerationSoftware,KiCad,Pcbnew,(5.99.0-9973-gfb99c55869)*%
%TF.CreationDate,2021-03-23T21:14:11-05:00*%
%TF.ProjectId,daisy_chain_board,64616973-795f-4636-9861-696e5f626f61,rev?*%
%TF.SameCoordinates,PX59d60c0PY325aa00*%
%TF.FileFunction,Soldermask,Bot*%
%TF.FilePolarity,Negative*%
%FSLAX46Y46*%
G04 Gerber Fmt 4.6, Leading zero omitted, Abs format (unit mm)*
G04 Created by KiCad (PCBNEW (5.99.0-9973-gfb99c55869)) date 2021-03-23 21:14:11*
%MOMM*%
%LPD*%
G01*
G04 APERTURE LIST*
%ADD10C,0.800000*%
%ADD11C,5.400000*%
%ADD12R,1.680000X1.680000*%
%ADD13C,1.680000*%
%ADD14C,4.890000*%
%ADD15R,1.700000X1.700000*%
%ADD16O,1.700000X1.700000*%
%ADD17C,2.000000*%
G04 APERTURE END LIST*
D10*
%TO.C,H5*%
X82368109Y-43631891D03*
X83800000Y-44225000D03*
X85825000Y-42200000D03*
X81775000Y-42200000D03*
X83800000Y-40175000D03*
X85231891Y-40768109D03*
D11*
X83800000Y-42200000D03*
D10*
X85231891Y-43631891D03*
X82368109Y-40768109D03*
%TD*%
D11*
%TO.C,H6*%
X141800000Y-42200000D03*
D10*
X143231891Y-40768109D03*
X140368109Y-43631891D03*
X140368109Y-40768109D03*
X143825000Y-42200000D03*
X141800000Y-40175000D03*
X139775000Y-42200000D03*
X143231891Y-43631891D03*
X141800000Y-44225000D03*
%TD*%
D12*
%TO.C,J8*%
X129421600Y-34830000D03*
D13*
X126660600Y-34830000D03*
X123899600Y-34830000D03*
X121138600Y-34830000D03*
X118377600Y-34830000D03*
X115616600Y-34830000D03*
X112855600Y-34830000D03*
X110094600Y-34830000D03*
X107333600Y-34830000D03*
X104572600Y-34830000D03*
X101811600Y-34830000D03*
X99050600Y-34830000D03*
X96288600Y-34830000D03*
X128040600Y-37670000D03*
X125279600Y-37670000D03*
X122518600Y-37670000D03*
X119757600Y-37670000D03*
X116996600Y-37670000D03*
X114235600Y-37670000D03*
X111474600Y-37670000D03*
X108713600Y-37670000D03*
X105952600Y-37670000D03*
X103191600Y-37670000D03*
X100430600Y-37670000D03*
X97669600Y-37670000D03*
D14*
X136381600Y-36250000D03*
X89341600Y-36250000D03*
%TD*%
D15*
%TO.C,J1*%
X94725200Y-895600D03*
D16*
X94725200Y1644400D03*
X97265200Y-895600D03*
X97265200Y1644400D03*
X99805200Y-895600D03*
X99805200Y1644400D03*
X102345200Y-895600D03*
X102345200Y1644400D03*
X104885200Y-895600D03*
X104885200Y1644400D03*
X107425200Y-895600D03*
X107425200Y1644400D03*
X109965200Y-895600D03*
X109965200Y1644400D03*
X112505200Y-895600D03*
X112505200Y1644400D03*
X115045200Y-895600D03*
X115045200Y1644400D03*
X117585200Y-895600D03*
X117585200Y1644400D03*
X120125200Y-895600D03*
X120125200Y1644400D03*
X122665200Y-895600D03*
X122665200Y1644400D03*
X125205200Y-895600D03*
X125205200Y1644400D03*
X127745200Y-895600D03*
X127745200Y1644400D03*
X130285200Y-895600D03*
X130285200Y1644400D03*
%TD*%
D17*
%TO.C,TP1*%
X82266500Y-21700000D03*
%TD*%
%TO.C,TP2*%
X85653166Y-21700000D03*
%TD*%
%TO.C,TP3*%
X89039832Y-21700000D03*
%TD*%
%TO.C,TP4*%
X92426498Y-21700000D03*
%TD*%
%TO.C,TP5*%
X95813164Y-21700000D03*
%TD*%
%TO.C,TP6*%
X99199830Y-21700000D03*
%TD*%
%TO.C,TP7*%
X102586496Y-21700000D03*
%TD*%
%TO.C,TP8*%
X105973162Y-21700000D03*
%TD*%
%TO.C,TP9*%
X109359828Y-21700000D03*
%TD*%
%TO.C,TP10*%
X112746494Y-21700000D03*
%TD*%
%TO.C,TP11*%
X116133160Y-21700000D03*
%TD*%
%TO.C,TP12*%
X119519826Y-21700000D03*
%TD*%
%TO.C,TP13*%
X122906492Y-21700000D03*
%TD*%
%TO.C,TP14*%
X126293158Y-21700000D03*
%TD*%
%TO.C,TP15*%
X129679824Y-21700000D03*
%TD*%
%TO.C,TP16*%
X133066490Y-21700000D03*
%TD*%
%TO.C,TP17*%
X136453156Y-21700000D03*
%TD*%
%TO.C,TP18*%
X139839822Y-21700000D03*
%TD*%
%TO.C,TP19*%
X143226488Y-21700000D03*
%TD*%
D15*
%TO.C,J2*%
X94725200Y13445600D03*
D16*
X94725200Y15985600D03*
X97265200Y13445600D03*
X97265200Y15985600D03*
X99805200Y13445600D03*
X99805200Y15985600D03*
X102345200Y13445600D03*
X102345200Y15985600D03*
X104885200Y13445600D03*
X104885200Y15985600D03*
X107425200Y13445600D03*
X107425200Y15985600D03*
X109965200Y13445600D03*
X109965200Y15985600D03*
X112505200Y13445600D03*
X112505200Y15985600D03*
X115045200Y13445600D03*
X115045200Y15985600D03*
X117585200Y13445600D03*
X117585200Y15985600D03*
X120125200Y13445600D03*
X120125200Y15985600D03*
X122665200Y13445600D03*
X122665200Y15985600D03*
X125205200Y13445600D03*
X125205200Y15985600D03*
X127745200Y13445600D03*
X127745200Y15985600D03*
X130285200Y13445600D03*
X130285200Y15985600D03*
%TD*%
D15*
%TO.C,J7*%
X82266500Y-30194500D03*
D16*
X82266500Y-27654500D03*
X84806500Y-30194500D03*
X84806500Y-27654500D03*
X87346500Y-30194500D03*
X87346500Y-27654500D03*
X89886500Y-30194500D03*
X89886500Y-27654500D03*
X92426500Y-30194500D03*
X92426500Y-27654500D03*
X94966500Y-30194500D03*
X94966500Y-27654500D03*
X97506500Y-30194500D03*
X97506500Y-27654500D03*
X100046500Y-30194500D03*
X100046500Y-27654500D03*
X102586500Y-30194500D03*
X102586500Y-27654500D03*
X105126500Y-30194500D03*
X105126500Y-27654500D03*
X107666500Y-30194500D03*
X107666500Y-27654500D03*
X110206500Y-30194500D03*
X110206500Y-27654500D03*
X112746500Y-30194500D03*
X112746500Y-27654500D03*
X115286500Y-30194500D03*
X115286500Y-27654500D03*
X117826500Y-30194500D03*
X117826500Y-27654500D03*
X120366500Y-30194500D03*
X120366500Y-27654500D03*
X122906500Y-30194500D03*
X122906500Y-27654500D03*
X125446500Y-30194500D03*
X125446500Y-27654500D03*
X127986500Y-30194500D03*
X127986500Y-27654500D03*
X130526500Y-30194500D03*
X130526500Y-27654500D03*
X133066500Y-30194500D03*
X133066500Y-27654500D03*
X135606500Y-30194500D03*
X135606500Y-27654500D03*
X138146500Y-30194500D03*
X138146500Y-27654500D03*
X140686500Y-30194500D03*
X140686500Y-27654500D03*
X143226500Y-30194500D03*
X143226500Y-27654500D03*
%TD*%
M02*
