M48
; DRILL file {KiCad (6.0.0)} date Sun Feb  6 12:12:23 2022
; FORMAT={-:-/ absolute / metric / decimal}
; #@! TF.CreationDate,2022-02-06T12:12:23-06:00
; #@! TF.GenerationSoftware,Kicad,Pcbnew,(6.0.0)
; #@! TF.FileFunction,Plated,1,2,PTH
FMAT,2
METRIC
; #@! TA.AperFunction,Plated,PTH,ViaDrill
T1C0.305
; #@! TA.AperFunction,Plated,PTH,ViaDrill
T2C0.400
; #@! TA.AperFunction,Plated,PTH,ComponentDrill
T3C1.000
; #@! TA.AperFunction,Plated,PTH,ComponentDrill
T4C1.016
%
G90
G05
T1
X142.456Y-86.868
X146.012Y-86.868
X181.318Y-103.632
X181.318Y-107.442
X181.318Y-112.014
X182.08Y-89.154
X183.426Y-103.734
X183.426Y-106.02
X185.204Y-91.313
X185.331Y-124.308
X188.049Y-124.231
T2
X109.6Y-118.9
X114.4Y-117.7
X115.3Y-108.9
X116.2Y-98.7
X116.7Y-125.7
X118.2Y-92.7
X120.9Y-93.3
X123.2Y-94.0
X125.7Y-94.6
X125.7Y-116.6
X126.8Y-126.0
X128.2Y-95.3
X128.2Y-113.4
X129.3Y-118.9
X130.4Y-112.5
X131.0Y-114.1
X132.1Y-89.6
X133.3Y-114.9
X134.5Y-119.6
X135.8Y-115.6
X136.116Y-117.616
X139.8Y-110.3
X140.9Y-112.0
X141.1Y-91.7
X143.4Y-95.3
X143.9Y-108.3
X144.691Y-110.409
X145.2Y-93.3
X145.933Y-92.776
X146.9Y-112.0
X148.5Y-94.7
X148.5Y-120.4
X149.8Y-115.6
X151.1Y-94.0
X151.4Y-108.6
X152.3Y-119.7
X153.7Y-119.8
X154.9Y-118.9
X155.084Y-117.616
X156.1Y-118.9
X156.2Y-120.5
X157.213Y-120.487
X158.652Y-116.926
X158.8Y-97.1
X159.7Y-112.7
X161.7Y-121.3
X163.1Y-89.5
X166.2Y-91.8
X166.2Y-121.4
X166.6Y-109.6
X167.3Y-89.6
X168.8Y-114.1
X171.4Y-113.7
X173.8Y-116.3
X174.4Y-114.6
X175.6Y-90.7
X176.4Y-120.6
X177.4Y-109.3
X179.1Y-118.9
X179.7Y-119.8
X180.6Y-116.8
X188.7Y-87.1
T3
X112.941Y-82.144
X115.481Y-82.144
X118.021Y-82.144
X120.561Y-82.144
X123.101Y-82.144
X125.62Y-101.7
X125.62Y-104.24
X125.641Y-82.144
X128.16Y-101.7
X128.16Y-104.24
X128.181Y-82.144
X130.7Y-101.7
X130.7Y-104.24
X130.721Y-82.144
X133.24Y-101.7
X133.24Y-104.24
X133.261Y-82.144
X133.261Y-127.864
X135.78Y-101.7
X135.78Y-104.24
X135.801Y-82.144
X135.801Y-127.864
X138.32Y-101.7
X138.32Y-104.24
X138.341Y-82.144
X138.341Y-127.864
X140.86Y-101.7
X140.86Y-104.24
X140.881Y-82.144
X140.881Y-127.864
X143.4Y-101.7
X143.4Y-104.24
X144.691Y-82.144
X144.691Y-127.864
X145.94Y-101.7
X145.94Y-104.24
X147.231Y-82.144
X147.231Y-127.864
X148.48Y-101.7
X148.48Y-104.24
X149.771Y-82.144
X149.771Y-127.864
X151.02Y-101.7
X151.02Y-104.24
X152.311Y-82.144
X152.311Y-127.864
X153.56Y-101.7
X153.56Y-104.24
X154.851Y-82.144
X154.851Y-127.864
X156.1Y-101.7
X156.1Y-104.24
X157.391Y-82.144
X157.391Y-127.864
X158.64Y-101.7
X158.64Y-104.24
X159.931Y-82.144
X159.931Y-127.864
X161.18Y-101.7
X161.18Y-104.24
X162.471Y-82.144
X162.471Y-127.864
X163.72Y-101.7
X163.72Y-104.24
X166.26Y-101.7
X166.26Y-104.24
X166.281Y-82.144
X166.281Y-127.864
X166.281Y-131.674
X168.8Y-101.7
X168.8Y-104.24
X168.821Y-82.144
X168.821Y-127.864
X168.821Y-131.674
X171.34Y-101.7
X171.34Y-104.24
X171.361Y-82.144
X171.361Y-127.864
X171.361Y-131.674
X173.88Y-101.7
X173.88Y-104.24
X173.901Y-82.144
X173.901Y-127.864
X173.901Y-131.674
X176.441Y-82.144
X176.441Y-127.864
X176.441Y-131.674
X178.981Y-82.144
X178.981Y-127.864
X178.981Y-131.674
X181.521Y-82.144
X181.521Y-127.864
X181.521Y-131.674
X184.061Y-82.144
X184.061Y-127.864
X184.061Y-131.674
X186.601Y-94.844
X186.601Y-97.384
X186.601Y-99.924
X186.601Y-102.464
X186.601Y-107.544
X186.601Y-110.084
X186.601Y-112.624
X186.601Y-115.164
X186.601Y-117.704
T4
X112.956Y-78.334
X115.496Y-78.334
X118.036Y-78.334
X120.576Y-78.334
X123.101Y-78.334
X125.641Y-78.334
X128.181Y-78.334
X130.721Y-78.334
X133.261Y-78.334
X133.261Y-131.674
X135.801Y-78.334
X135.801Y-131.674
X138.341Y-78.334
X138.341Y-131.674
X140.881Y-78.334
X140.881Y-131.674
X144.691Y-78.334
X144.691Y-131.674
X147.231Y-78.334
X147.231Y-131.674
X149.771Y-78.334
X149.771Y-131.674
X152.311Y-78.334
X152.311Y-131.674
X154.851Y-78.334
X154.851Y-131.674
X157.391Y-78.334
X157.391Y-131.674
X159.931Y-78.334
X159.931Y-131.674
X162.471Y-78.334
X162.471Y-131.674
X166.281Y-78.334
X168.821Y-78.334
X171.361Y-78.334
X173.901Y-78.334
X176.441Y-78.334
X178.981Y-78.334
X181.521Y-78.334
X184.061Y-78.334
X190.411Y-94.844
X190.411Y-97.384
X190.411Y-99.924
X190.411Y-102.464
X190.411Y-107.544
X190.411Y-110.084
X190.411Y-112.624
X190.411Y-115.164
X190.411Y-117.704
T0
M30
