G04 #@! TF.GenerationSoftware,KiCad,Pcbnew,(6.0.0)*
G04 #@! TF.CreationDate,2022-02-06T12:12:12-06:00*
G04 #@! TF.ProjectId,MicroMod_ATP_CarrierBoard,4d696372-6f4d-46f6-945f-4154505f4361,rev?*
G04 #@! TF.SameCoordinates,Original*
G04 #@! TF.FileFunction,Legend,Bot*
G04 #@! TF.FilePolarity,Positive*
%FSLAX46Y46*%
G04 Gerber Fmt 4.6, Leading zero omitted, Abs format (unit mm)*
G04 Created by KiCad (PCBNEW (6.0.0)) date 2022-02-06 12:12:12*
%MOMM*%
%LPD*%
G01*
G04 APERTURE LIST*
%ADD10C,2.082800*%
%ADD11C,3.302000*%
%ADD12R,1.700000X1.700000*%
%ADD13O,1.700000X1.700000*%
G04 APERTURE END LIST*
G36*
X123256666Y-130501780D02*
G01*
X123262370Y-130504632D01*
X123289140Y-130504632D01*
X123299140Y-130514632D01*
X123312371Y-130514632D01*
X123332370Y-130524632D01*
X123342371Y-130524632D01*
X123375910Y-130541402D01*
X123379140Y-130544632D01*
X123399140Y-130544632D01*
X123415910Y-130561402D01*
X123435910Y-130571402D01*
X123439140Y-130574632D01*
X123459140Y-130574632D01*
X123471967Y-130587459D01*
X123767886Y-130383378D01*
X124032654Y-130648146D01*
X123831400Y-130939965D01*
X123831400Y-130956892D01*
X123834630Y-130960122D01*
X123844630Y-130980122D01*
X123861400Y-130996892D01*
X123861400Y-131016892D01*
X123864630Y-131020122D01*
X123881400Y-131053661D01*
X123881400Y-131063662D01*
X123901400Y-131103661D01*
X123901400Y-131113662D01*
X123911400Y-131133661D01*
X123911400Y-131143662D01*
X123919721Y-131160304D01*
X124271400Y-131220592D01*
X124271400Y-131604671D01*
X123914252Y-131665897D01*
X123911400Y-131671601D01*
X123911400Y-131698371D01*
X123901400Y-131708371D01*
X123901400Y-131728371D01*
X123884630Y-131745141D01*
X123881400Y-131751601D01*
X123881400Y-131778371D01*
X123871400Y-131788371D01*
X123871400Y-131808371D01*
X123854630Y-131825141D01*
X123844630Y-131845141D01*
X123834630Y-131855141D01*
X123831400Y-131861601D01*
X123831400Y-131871602D01*
X123827620Y-131879161D01*
X124032615Y-132166154D01*
X123768480Y-132442295D01*
X123471967Y-132237804D01*
X123469140Y-132240631D01*
X123459140Y-132240631D01*
X123449140Y-132250631D01*
X123439140Y-132250631D01*
X123429140Y-132260631D01*
X123419140Y-132260631D01*
X123409140Y-132270631D01*
X123399140Y-132270631D01*
X123389140Y-132280631D01*
X123379140Y-132280631D01*
X123369140Y-132290631D01*
X123349140Y-132290631D01*
X123308354Y-132331417D01*
X123074125Y-131699000D01*
X123138824Y-131677434D01*
X123170890Y-131661401D01*
X123190890Y-131641401D01*
X123210890Y-131631401D01*
X123222170Y-131620121D01*
X123232170Y-131600121D01*
X123252170Y-131580121D01*
X123268203Y-131548055D01*
X123278204Y-131518052D01*
X123295400Y-131483661D01*
X123295400Y-131456464D01*
X123305400Y-131426464D01*
X123305400Y-131378799D01*
X123268959Y-131269477D01*
X123233868Y-131216840D01*
X123219192Y-131202164D01*
X123189191Y-131182163D01*
X123169192Y-131162164D01*
X123146555Y-131147073D01*
X123116556Y-131137073D01*
X123091894Y-131120632D01*
X123068722Y-131120632D01*
X123028724Y-131110632D01*
X122969567Y-131110632D01*
X122939567Y-131120632D01*
X122914906Y-131120632D01*
X122890244Y-131137073D01*
X122860245Y-131147073D01*
X122807608Y-131182164D01*
X122772932Y-131216840D01*
X122737841Y-131269477D01*
X122727841Y-131299476D01*
X122711400Y-131324138D01*
X122711400Y-131348799D01*
X122701400Y-131378799D01*
X122701400Y-131456464D01*
X122711400Y-131486464D01*
X122711400Y-131503661D01*
X122718596Y-131518052D01*
X122728597Y-131548055D01*
X122734630Y-131560121D01*
X122754630Y-131580121D01*
X122764630Y-131600121D01*
X122795910Y-131631401D01*
X122815910Y-131641401D01*
X122835910Y-131661401D01*
X122920868Y-131703879D01*
X122635400Y-132474642D01*
X122635400Y-132288371D01*
X122627660Y-132280631D01*
X122617660Y-132280631D01*
X122607660Y-132270631D01*
X122597660Y-132270631D01*
X122587660Y-132260631D01*
X122567660Y-132260631D01*
X122557660Y-132250631D01*
X122547660Y-132250631D01*
X122534833Y-132237804D01*
X122238914Y-132441885D01*
X121963226Y-132166197D01*
X122177511Y-131880482D01*
X122172170Y-131875141D01*
X122155400Y-131841602D01*
X122155400Y-131831601D01*
X122152170Y-131825141D01*
X122142170Y-131815141D01*
X122125400Y-131781602D01*
X122125400Y-131771601D01*
X122105400Y-131731602D01*
X122105400Y-131721601D01*
X122095400Y-131701602D01*
X122095400Y-131691601D01*
X122085400Y-131671602D01*
X122085400Y-131666386D01*
X121725400Y-131604671D01*
X121725400Y-131220441D01*
X122085400Y-131160441D01*
X122085400Y-131136892D01*
X122095400Y-131126892D01*
X122095400Y-131106892D01*
X122112170Y-131090122D01*
X122115400Y-131083662D01*
X122115400Y-131056892D01*
X122125400Y-131046892D01*
X122125400Y-131026892D01*
X122142170Y-131010122D01*
X122152170Y-130990122D01*
X122155400Y-130986892D01*
X122155400Y-130966892D01*
X122172170Y-130950122D01*
X122176147Y-130942168D01*
X121963186Y-130648078D01*
X122239497Y-130383780D01*
X122532287Y-130585704D01*
X122554429Y-130574632D01*
X122564430Y-130574632D01*
X122570890Y-130571402D01*
X122580890Y-130561402D01*
X122614429Y-130544632D01*
X122624430Y-130544632D01*
X122630890Y-130541402D01*
X122647660Y-130524632D01*
X122674430Y-130524632D01*
X122694429Y-130514632D01*
X122704430Y-130514632D01*
X122724429Y-130504632D01*
X122734430Y-130504632D01*
X122751072Y-130496311D01*
X122811360Y-130144632D01*
X123195440Y-130144632D01*
X123256666Y-130501780D01*
G37*
%LPC*%
D10*
X166281100Y-78333600D03*
X168821100Y-78333600D03*
X171361100Y-78333600D03*
X173901100Y-78333600D03*
X176441100Y-78333600D03*
X178981100Y-78333600D03*
X181521100Y-78333600D03*
X184061100Y-78333600D03*
X144691100Y-78333600D03*
X147231100Y-78333600D03*
X149771100Y-78333600D03*
X152311100Y-78333600D03*
X154851100Y-78333600D03*
X157391100Y-78333600D03*
X159931100Y-78333600D03*
X162471100Y-78333600D03*
X112956100Y-78333600D03*
X115496100Y-78333600D03*
X118036100Y-78333600D03*
X120576100Y-78333600D03*
X190411100Y-94843600D03*
X190411100Y-97383600D03*
X190411100Y-99923600D03*
X190411100Y-102463600D03*
X162471100Y-131673600D03*
X159931100Y-131673600D03*
X157391100Y-131673600D03*
X154851100Y-131673600D03*
X152311100Y-131673600D03*
X149771100Y-131673600D03*
X147231100Y-131673600D03*
X144691100Y-131673600D03*
X140881100Y-78333600D03*
X138341100Y-78333600D03*
X135801100Y-78333600D03*
X133261100Y-78333600D03*
X130721100Y-78333600D03*
X128181100Y-78333600D03*
X125641100Y-78333600D03*
X123101100Y-78333600D03*
X133261100Y-131673600D03*
X135801100Y-131673600D03*
X138341100Y-131673600D03*
X140881100Y-131673600D03*
X190411100Y-107543600D03*
X190411100Y-110083600D03*
X190411100Y-112623600D03*
X190411100Y-115163600D03*
X190411100Y-117703600D03*
D11*
X107861100Y-130403600D03*
X189141100Y-130403600D03*
X107861100Y-79603600D03*
X189141100Y-79603600D03*
D12*
X173880000Y-101700000D03*
D13*
X173880000Y-104240000D03*
X171340000Y-101700000D03*
X171340000Y-104240000D03*
X168800000Y-101700000D03*
X168800000Y-104240000D03*
X166260000Y-101700000D03*
X166260000Y-104240000D03*
X163720000Y-101700000D03*
X163720000Y-104240000D03*
X161180000Y-101700000D03*
X161180000Y-104240000D03*
X158640000Y-101700000D03*
X158640000Y-104240000D03*
X156100000Y-101700000D03*
X156100000Y-104240000D03*
X153560000Y-101700000D03*
X153560000Y-104240000D03*
X151020000Y-101700000D03*
X151020000Y-104240000D03*
X148480000Y-101700000D03*
X148480000Y-104240000D03*
X145940000Y-101700000D03*
X145940000Y-104240000D03*
X143400000Y-101700000D03*
X143400000Y-104240000D03*
X140860000Y-101700000D03*
X140860000Y-104240000D03*
X138320000Y-101700000D03*
X138320000Y-104240000D03*
X135780000Y-101700000D03*
X135780000Y-104240000D03*
X133240000Y-101700000D03*
X133240000Y-104240000D03*
X130700000Y-101700000D03*
X130700000Y-104240000D03*
X128160000Y-101700000D03*
X128160000Y-104240000D03*
X125620000Y-101700000D03*
X125620000Y-104240000D03*
D12*
X166281100Y-82143600D03*
D13*
X168821100Y-82143600D03*
X171361100Y-82143600D03*
X173901100Y-82143600D03*
X176441100Y-82143600D03*
X178981100Y-82143600D03*
X181521100Y-82143600D03*
X184061100Y-82143600D03*
D12*
X144691100Y-82143600D03*
D13*
X147231100Y-82143600D03*
X149771100Y-82143600D03*
X152311100Y-82143600D03*
X154851100Y-82143600D03*
X157391100Y-82143600D03*
X159931100Y-82143600D03*
X162471100Y-82143600D03*
D12*
X112941100Y-82143600D03*
D13*
X115481100Y-82143600D03*
X118021100Y-82143600D03*
X120561100Y-82143600D03*
X123101100Y-82143600D03*
X125641100Y-82143600D03*
X128181100Y-82143600D03*
X130721100Y-82143600D03*
X133261100Y-82143600D03*
X135801100Y-82143600D03*
X138341100Y-82143600D03*
X140881100Y-82143600D03*
D12*
X140881100Y-127863600D03*
D13*
X138341100Y-127863600D03*
X135801100Y-127863600D03*
X133261100Y-127863600D03*
D12*
X186601100Y-94843600D03*
D13*
X186601100Y-97383600D03*
X186601100Y-99923600D03*
X186601100Y-102463600D03*
D12*
X186601100Y-107543600D03*
D13*
X186601100Y-110083600D03*
X186601100Y-112623600D03*
X186601100Y-115163600D03*
X186601100Y-117703600D03*
D12*
X162471100Y-127863600D03*
D13*
X159931100Y-127863600D03*
X157391100Y-127863600D03*
X154851100Y-127863600D03*
X152311100Y-127863600D03*
X149771100Y-127863600D03*
X147231100Y-127863600D03*
X144691100Y-127863600D03*
D12*
X184061100Y-131673600D03*
D13*
X181521100Y-131673600D03*
X178981100Y-131673600D03*
X176441100Y-131673600D03*
X173901100Y-131673600D03*
X171361100Y-131673600D03*
X168821100Y-131673600D03*
X166281100Y-131673600D03*
D12*
X184061100Y-127863600D03*
D13*
X181521100Y-127863600D03*
X178981100Y-127863600D03*
X176441100Y-127863600D03*
X173901100Y-127863600D03*
X171361100Y-127863600D03*
X168821100Y-127863600D03*
X166281100Y-127863600D03*
M02*
