M48
; DRILL file {KiCad (6.0.5-0)} date Friday, December 16, 2022 at 10:27:31 PM
; FORMAT={-:-/ absolute / metric / decimal}
; #@! TF.CreationDate,2022-12-16T22:27:31-06:00
; #@! TF.GenerationSoftware,Kicad,Pcbnew,(6.0.5-0)
; #@! TF.FileFunction,Plated,1,4,PTH
FMAT,2
METRIC
; #@! TA.AperFunction,Plated,PTH,ViaDrill
T1C0.300
; #@! TA.AperFunction,Plated,PTH,ViaDrill
T2C0.400
; #@! TA.AperFunction,Plated,PTH,ComponentDrill
T3C0.500
; #@! TA.AperFunction,Plated,PTH,ComponentDrill
T4C1.000
; #@! TA.AperFunction,Plated,PTH,ComponentDrill
T5C1.020
; #@! TA.AperFunction,Plated,PTH,ComponentDrill
T6C1.100
%
G90
G05
T1
X35.306Y-61.214
X35.306Y-62.738
X35.306Y-64.262
X35.461Y-49.9
X35.56Y-30.226
X35.56Y-59.69
X37.804Y-30.268
X38.1Y-58.383
X38.4Y-90.1
X38.608Y-68.326
X38.608Y-73.66
X38.608Y-74.93
X38.608Y-79.756
X38.833Y-77.501
X39.347Y-76.423
X39.843Y-78.679
X40.107Y-79.361
X40.35Y-80.528
X40.64Y-30.226
X40.894Y-74.676
X40.894Y-75.946
X40.894Y-77.724
X40.9Y-89.7
X43.18Y-30.226
X43.688Y-61.468
X43.9Y-50.5
X43.942Y-58.928
X43.942Y-62.484
X44.0Y-60.1
X44.45Y-57.658
X44.45Y-63.966
X45.212Y-68.072
X45.72Y-30.226
X45.72Y-61.3
X45.95Y-58.834
X45.974Y-62.664
X46.188Y-63.977
X46.228Y-76.962
X46.6Y-50.9
X48.26Y-30.226
X48.505Y-74.921
X48.6Y-89.2
X48.768Y-59.944
X49.022Y-79.502
X49.276Y-75.704
X49.285Y-73.285
X50.022Y-78.415
X50.038Y-68.114
X50.351Y-80.041
X50.8Y-30.226
X51.308Y-74.93
X51.308Y-76.2
X51.308Y-77.3
X51.308Y-79.248
X52.619Y-88.121
X53.34Y-30.226
X54.341Y-64.531
X54.356Y-58.928
X54.356Y-61.722
X54.469Y-57.658
X54.604Y-63.169
X55.289Y-62.725
X55.3Y-51.6
X55.3Y-60.0
X55.88Y-30.226
X55.88Y-58.928
X56.25Y-60.138
X56.388Y-61.4
X56.388Y-62.484
X56.7Y-51.6
X56.896Y-76.962
X56.896Y-77.978
X56.943Y-68.024
X58.166Y-71.882
X58.42Y-30.226
X58.674Y-85.344
X58.928Y-74.422
X60.119Y-75.741
X60.198Y-73.914
X60.3Y-88.4
X60.452Y-80.518
X60.549Y-67.984
X60.609Y-79.333
X60.96Y-30.226
X61.255Y-76.218
X61.509Y-75.034
X61.722Y-78.486
X61.8Y-77.3
X62.029Y-61.468
X62.3Y-88.1
X63.5Y-30.226
X63.754Y-86.106
X65.024Y-57.658
X65.024Y-58.928
X65.024Y-62.738
X65.024Y-64.01
X65.5Y-60.1
X65.509Y-52.397
X66.04Y-30.226
X66.121Y-63.731
X66.294Y-86.106
X66.523Y-58.871
X66.608Y-52.405
X67.0Y-61.4
X67.056Y-60.198
X67.056Y-68.072
X67.231Y-62.947
X68.58Y-30.226
X69.947Y-78.497
X70.104Y-77.216
X70.358Y-73.406
X70.358Y-74.676
X70.507Y-67.98
X70.612Y-80.772
X70.9Y-87.7
X71.116Y-75.479
X71.12Y-30.226
X71.561Y-79.355
X72.069Y-74.143
X72.215Y-76.147
X72.4Y-78.234
X72.408Y-77.218
X72.7Y-87.2
X73.66Y-30.226
X74.8Y-53.1
X75.438Y-57.248
X75.438Y-61.509
X75.46Y-63.95
X75.587Y-62.574
X75.6Y-60.2
X75.692Y-58.647
X76.2Y-30.226
X76.295Y-63.861
X76.659Y-63.264
X76.8Y-60.258
X77.191Y-58.998
X77.724Y-61.3
X77.978Y-68.114
X77.979Y-53.151
X78.74Y-30.226
X80.01Y-74.676
X80.173Y-73.243
X80.541Y-78.398
X80.566Y-77.49
X80.966Y-76.206
X81.28Y-30.226
X81.7Y-87.2
X81.931Y-79.95
X82.03Y-68.084
X82.605Y-76.199
X83.166Y-78.4
X83.312Y-74.676
X83.5Y-77.4
X83.5Y-86.8
X83.82Y-30.226
X86.038Y-59.114
X86.106Y-61.468
X86.106Y-62.738
X86.235Y-53.255
X86.36Y-30.226
X86.49Y-64.0
X86.521Y-60.149
X86.614Y-57.404
X86.614Y-68.114
X87.209Y-60.278
X87.589Y-63.946
X87.859Y-59.271
X88.059Y-62.795
X88.138Y-61.468
X88.9Y-30.226
X90.076Y-53.691
X90.678Y-74.93
X90.998Y-77.536
X91.064Y-78.74
X91.44Y-30.226
X91.9Y-76.4
X92.0Y-86.3
X92.246Y-74.554
X92.246Y-75.481
X92.562Y-78.644
X93.4Y-86.0
X93.472Y-68.072
X93.628Y-79.95
X93.794Y-77.06
X93.868Y-76.132
X93.98Y-30.226
X96.52Y-30.226
X96.764Y-59.993
X96.815Y-64.015
X96.897Y-59.306
X97.028Y-62.738
X97.211Y-57.572
X97.272Y-58.716
X97.282Y-68.114
X97.7Y-54.349
X98.044Y-62.738
X98.217Y-61.67
X98.298Y-29.21
X98.552Y-64.008
X98.767Y-61.003
X98.876Y-54.81
X99.259Y-60.505
X99.568Y-27.432
X103.378Y-65.786
X103.598Y-64.736
X104.165Y-56.363
X105.326Y-85.598
X106.025Y-85.598
X107.604Y-54.81
X110.5Y-54.4
X112.417Y-28.948
X112.522Y-56.388
X112.791Y-85.358
X115.5Y-86.3
X118.3Y-54.0
X118.68Y-31.85
X120.6Y-53.8
X121.52Y-31.89
X122.93Y-86.63
X123.335Y-87.2
X128.034Y-54.81
X130.8Y-54.5
X132.15Y-32.43
X133.4Y-87.6
X136.1Y-87.7
X138.5Y-54.1
X141.0Y-53.4
X143.6Y-88.2
X145.9Y-88.3
X148.6Y-53.2
X151.2Y-52.558
X153.8Y-88.8
X156.4Y-89.0
X158.9Y-52.159
X161.5Y-52.5
X163.9Y-89.6
X166.5Y-90.2
X169.3Y-51.9
T2
X21.75Y-42.61
X23.43Y-51.12
X25.83Y-59.2
X27.2Y-68.3
X28.0Y-69.424
X28.027Y-70.424
X29.3Y-70.8
X30.2Y-42.5
X30.2Y-46.9
X30.2Y-94.0
X30.4Y-114.0
X30.863Y-27.361
X31.2Y-26.0
X31.2Y-32.0
X31.2Y-115.3
X31.374Y-95.175
X31.496Y-56.642
X32.526Y-45.539
X32.8Y-34.6
X33.02Y-67.97
X33.158Y-62.675
X33.2Y-39.5
X33.274Y-64.008
X33.31Y-81.68
X33.607Y-61.427
X33.7Y-37.1
X34.148Y-58.77
X37.99Y-81.84
X39.624Y-62.992
X40.536Y-53.47
X45.41Y-79.17
X45.79Y-71.81
X49.88Y-62.83
X50.17Y-55.19
X52.99Y-55.35
X55.4Y-72.24
X55.43Y-78.88
X60.65Y-62.74
X60.7Y-55.4
X63.15Y-55.47
X64.313Y-83.515
X66.08Y-71.81
X71.54Y-55.29
X74.64Y-55.36
X76.5Y-78.486
X76.57Y-71.97
X81.85Y-62.57
X82.05Y-55.52
X82.122Y-79.123
X86.99Y-72.84
X92.62Y-62.39
X93.177Y-79.23
X94.385Y-55.274
X99.115Y-73.596
X99.605Y-70.866
X100.367Y-55.47
X101.092Y-33.02
X101.092Y-48.768
X101.591Y-94.742
X101.6Y-45.974
X101.6Y-97.028
X101.854Y-36.068
X101.854Y-43.434
X101.891Y-32.004
X102.108Y-98.806
X102.362Y-41.402
X102.87Y-28.194
X102.87Y-102.362
X103.919Y-34.266
X103.923Y-36.338
X104.023Y-67.258
X104.023Y-68.263
X104.31Y-31.121
X104.682Y-69.015
X104.937Y-46.873
X104.983Y-70.947
X105.572Y-44.132
X105.592Y-70.154
X105.834Y-31.125
X106.172Y-42.164
X106.426Y-35.814
X106.833Y-31.125
X108.184Y-30.401
X108.589Y-42.803
X109.728Y-34.29
X109.728Y-37.846
X110.744Y-112.776
X111.506Y-28.956
X111.506Y-31.242
X113.365Y-103.713
X115.22Y-47.05
X115.43Y-35.91
X115.48Y-33.42
X115.824Y-26.924
X115.905Y-106.091
X116.459Y-32.385
X117.094Y-45.074
X117.348Y-38.608
X119.359Y-33.825
X119.45Y-39.46
X119.888Y-31.242
X120.76Y-42.39
X120.765Y-32.575
X121.642Y-108.688
X122.54Y-35.677
X122.599Y-45.154
X123.169Y-111.231
X123.881Y-34.442
X126.23Y-39.072
X126.23Y-48.039
X126.484Y-33.597
X126.97Y-30.2
X127.92Y-34.44
X128.119Y-32.991
X137.2Y-34.44
X138.43Y-66.04
X138.43Y-73.914
X139.67Y-32.67
X142.27Y-35.08
X144.86Y-33.666
X149.82Y-42.709
X151.77Y-43.096
X156.462Y-44.563
X157.766Y-45.249
X162.36Y-34.45
X165.28Y-33.05
X167.4Y-53.6
X167.72Y-38.15
X170.09Y-40.81
X171.84Y-55.46
X172.212Y-110.236
X172.639Y-53.89
X175.514Y-56.642
X177.8Y-44.45
X177.8Y-56.642
T3
X66.04Y-80.264
X76.633Y-80.264
X87.227Y-80.264
T4
X22.425Y-31.952
X22.425Y-34.492
X22.425Y-37.032
X22.425Y-39.572
X24.965Y-31.952
X24.965Y-34.492
X24.965Y-37.032
X24.965Y-39.572
X35.56Y-25.0
X35.56Y-27.54
X35.56Y-45.0
X35.56Y-47.54
X35.56Y-92.46
X35.56Y-95.0
X35.56Y-112.46
X35.56Y-115.0
X38.1Y-25.0
X38.1Y-27.54
X38.1Y-45.0
X38.1Y-47.54
X38.1Y-92.46
X38.1Y-95.0
X38.1Y-112.46
X38.1Y-115.0
X40.64Y-25.0
X40.64Y-27.54
X40.64Y-45.0
X40.64Y-47.54
X40.64Y-92.46
X40.64Y-95.0
X40.64Y-112.46
X40.64Y-115.0
X43.18Y-25.0
X43.18Y-27.54
X43.18Y-45.0
X43.18Y-47.54
X43.18Y-92.46
X43.18Y-95.0
X43.18Y-112.46
X43.18Y-115.0
X45.72Y-25.0
X45.72Y-27.54
X45.72Y-45.0
X45.72Y-47.54
X45.72Y-92.46
X45.72Y-95.0
X45.72Y-112.46
X45.72Y-115.0
X48.26Y-25.0
X48.26Y-27.54
X48.26Y-45.0
X48.26Y-47.54
X48.26Y-92.46
X48.26Y-95.0
X48.26Y-112.46
X48.26Y-115.0
X50.8Y-25.0
X50.8Y-27.54
X50.8Y-45.0
X50.8Y-47.54
X50.8Y-92.46
X50.8Y-95.0
X50.8Y-112.46
X50.8Y-115.0
X53.34Y-25.0
X53.34Y-27.54
X53.34Y-45.0
X53.34Y-47.54
X53.34Y-92.46
X53.34Y-95.0
X53.34Y-112.46
X53.34Y-115.0
X55.88Y-25.0
X55.88Y-27.54
X55.88Y-45.0
X55.88Y-47.54
X55.88Y-92.46
X55.88Y-95.0
X55.88Y-112.46
X55.88Y-115.0
X58.42Y-25.0
X58.42Y-27.54
X58.42Y-45.0
X58.42Y-47.54
X58.42Y-92.46
X58.42Y-95.0
X58.42Y-112.46
X58.42Y-115.0
X60.96Y-25.0
X60.96Y-27.54
X60.96Y-45.0
X60.96Y-47.54
X60.96Y-92.46
X60.96Y-95.0
X60.96Y-112.46
X60.96Y-115.0
X63.5Y-25.0
X63.5Y-27.54
X63.5Y-45.0
X63.5Y-47.54
X63.5Y-92.46
X63.5Y-95.0
X63.5Y-112.46
X63.5Y-115.0
X66.04Y-25.0
X66.04Y-27.54
X66.04Y-45.0
X66.04Y-47.54
X66.04Y-92.46
X66.04Y-95.0
X66.04Y-112.46
X66.04Y-115.0
X68.58Y-25.0
X68.58Y-27.54
X68.58Y-45.0
X68.58Y-47.54
X68.58Y-92.46
X68.58Y-95.0
X68.58Y-112.46
X68.58Y-115.0
X71.12Y-25.0
X71.12Y-27.54
X71.12Y-45.0
X71.12Y-47.54
X71.12Y-92.46
X71.12Y-95.0
X71.12Y-112.46
X71.12Y-115.0
X73.66Y-25.0
X73.66Y-27.54
X73.66Y-45.0
X73.66Y-47.54
X73.66Y-92.46
X73.66Y-95.0
X73.66Y-112.46
X73.66Y-115.0
X76.2Y-25.0
X76.2Y-27.54
X76.2Y-45.0
X76.2Y-47.54
X76.2Y-92.46
X76.2Y-95.0
X76.2Y-112.46
X76.2Y-115.0
X78.74Y-25.0
X78.74Y-27.54
X78.74Y-45.0
X78.74Y-47.54
X78.74Y-92.46
X78.74Y-95.0
X78.74Y-112.46
X78.74Y-115.0
X81.28Y-25.0
X81.28Y-27.54
X81.28Y-45.0
X81.28Y-47.54
X81.28Y-92.46
X81.28Y-95.0
X81.28Y-112.46
X81.28Y-115.0
X83.82Y-25.0
X83.82Y-27.54
X83.82Y-45.0
X83.82Y-47.54
X83.82Y-92.46
X83.82Y-95.0
X83.82Y-112.46
X83.82Y-115.0
X86.36Y-25.0
X86.36Y-27.54
X86.36Y-45.0
X86.36Y-47.54
X86.36Y-92.46
X86.36Y-95.0
X86.36Y-112.46
X86.36Y-115.0
X88.9Y-25.0
X88.9Y-27.54
X88.9Y-45.0
X88.9Y-47.54
X88.9Y-92.46
X88.9Y-95.0
X88.9Y-112.46
X88.9Y-115.0
X91.44Y-25.0
X91.44Y-27.54
X91.44Y-45.0
X91.44Y-47.54
X91.44Y-92.46
X91.44Y-95.0
X91.44Y-112.46
X91.44Y-115.0
X93.98Y-25.0
X93.98Y-27.54
X93.98Y-45.0
X93.98Y-47.54
X93.98Y-92.46
X93.98Y-95.0
X93.98Y-112.46
X93.98Y-115.0
X96.52Y-25.0
X96.52Y-27.54
X96.52Y-45.0
X96.52Y-47.54
X96.52Y-92.46
X96.52Y-95.0
X96.52Y-112.46
X96.52Y-115.0
X104.389Y-93.487
X104.389Y-96.027
X104.389Y-98.567
X104.389Y-101.107
X104.389Y-103.647
X104.389Y-106.187
X104.389Y-108.727
X104.389Y-111.267
X106.929Y-93.487
X106.929Y-96.027
X106.929Y-98.567
X106.929Y-101.107
X106.929Y-103.647
X106.929Y-106.187
X106.929Y-108.727
X106.929Y-111.267
X108.0Y-60.46
X108.0Y-63.0
X108.0Y-68.73
X108.0Y-71.27
X108.0Y-77.0
X108.0Y-79.54
X110.54Y-60.46
X110.54Y-63.0
X110.54Y-68.73
X110.54Y-71.27
X110.54Y-77.0
X110.54Y-79.54
X112.0Y-115.0
X112.0Y-117.54
X112.13Y-22.42
X112.13Y-24.96
X113.08Y-60.46
X113.08Y-63.0
X113.08Y-68.73
X113.08Y-71.27
X113.08Y-77.0
X113.08Y-79.54
X114.54Y-115.0
X114.54Y-117.54
X114.67Y-22.42
X114.67Y-24.96
X115.62Y-60.46
X115.62Y-63.0
X115.62Y-68.73
X115.62Y-71.27
X115.62Y-77.0
X115.62Y-79.54
X117.08Y-115.0
X117.08Y-117.54
X117.21Y-22.42
X117.21Y-24.96
X118.16Y-60.46
X118.16Y-63.0
X118.16Y-68.73
X118.16Y-71.27
X118.16Y-77.0
X118.16Y-79.54
X119.62Y-115.0
X119.62Y-117.54
X119.75Y-22.42
X119.75Y-24.96
X120.7Y-60.46
X120.7Y-63.0
X120.7Y-68.73
X120.7Y-71.27
X120.7Y-77.0
X120.7Y-79.54
X122.16Y-115.0
X122.16Y-117.54
X122.29Y-22.42
X122.29Y-24.96
X123.24Y-60.46
X123.24Y-63.0
X123.24Y-68.73
X123.24Y-71.27
X123.24Y-77.0
X123.24Y-79.54
X124.7Y-115.0
X124.7Y-117.54
X124.83Y-22.42
X124.83Y-24.96
X125.78Y-60.46
X125.78Y-63.0
X125.78Y-68.73
X125.78Y-71.27
X125.78Y-77.0
X125.78Y-79.54
X128.32Y-60.46
X128.32Y-63.0
X128.32Y-68.73
X128.32Y-71.27
X128.32Y-77.0
X128.32Y-79.54
X130.86Y-60.46
X130.86Y-63.0
X130.86Y-68.73
X130.86Y-71.27
X130.86Y-77.0
X130.86Y-79.54
X133.4Y-60.46
X133.4Y-63.0
X133.4Y-68.73
X133.4Y-71.27
X133.4Y-77.0
X133.4Y-79.54
X135.94Y-60.46
X135.94Y-63.0
X135.94Y-68.73
X135.94Y-71.27
X135.94Y-77.0
X135.94Y-79.54
X138.48Y-60.46
X138.48Y-63.0
X138.48Y-68.73
X138.48Y-71.27
X138.48Y-77.0
X138.48Y-79.54
X141.02Y-60.46
X141.02Y-63.0
X141.02Y-68.73
X141.02Y-71.27
X141.02Y-77.0
X141.02Y-79.54
X143.56Y-60.46
X143.56Y-63.0
X143.56Y-68.73
X143.56Y-71.27
X143.56Y-77.0
X143.56Y-79.54
X146.1Y-60.46
X146.1Y-63.0
X146.1Y-68.73
X146.1Y-71.27
X146.1Y-77.0
X146.1Y-79.54
X148.64Y-60.46
X148.64Y-63.0
X148.64Y-68.73
X148.64Y-71.27
X148.64Y-77.0
X148.64Y-79.54
X151.18Y-60.46
X151.18Y-63.0
X151.18Y-68.73
X151.18Y-71.27
X151.18Y-77.0
X151.18Y-79.54
X153.72Y-60.46
X153.72Y-63.0
X153.72Y-68.73
X153.72Y-71.27
X153.72Y-77.0
X153.72Y-79.54
X156.26Y-60.46
X156.26Y-63.0
X156.26Y-68.73
X156.26Y-71.27
X156.26Y-77.0
X156.26Y-79.54
X158.8Y-60.46
X158.8Y-63.0
X158.8Y-68.73
X158.8Y-71.27
X158.8Y-77.0
X158.8Y-79.54
X161.34Y-60.46
X161.34Y-63.0
X161.34Y-68.73
X161.34Y-71.27
X161.34Y-77.0
X161.34Y-79.54
X163.88Y-60.46
X163.88Y-63.0
X163.88Y-68.73
X163.88Y-71.27
X163.88Y-77.0
X163.88Y-79.54
X166.42Y-60.46
X166.42Y-63.0
X166.42Y-68.73
X166.42Y-71.27
X166.42Y-77.0
X166.42Y-79.54
X168.96Y-60.46
X168.96Y-63.0
X168.96Y-68.73
X168.96Y-71.27
X168.96Y-77.0
X168.96Y-79.54
T5
X129.54Y-30.48
X129.54Y-48.26
X129.77Y-36.83
X129.77Y-39.37
X129.77Y-41.91
X132.08Y-30.48
X132.08Y-48.26
X134.62Y-30.48
X134.62Y-48.26
X137.16Y-30.48
X137.16Y-48.26
X139.7Y-30.48
X139.7Y-48.26
X142.24Y-30.48
X142.24Y-48.26
X144.78Y-30.48
X144.78Y-48.26
X147.32Y-30.48
X147.32Y-48.26
X149.86Y-30.48
X149.86Y-48.26
X152.4Y-30.48
X152.4Y-48.26
X154.94Y-30.48
X154.94Y-48.26
X157.48Y-30.48
X157.48Y-48.26
X160.02Y-30.48
X160.02Y-48.26
X162.56Y-30.48
X162.56Y-48.26
X165.1Y-30.48
X165.1Y-48.26
X167.64Y-30.48
X167.64Y-48.26
X170.18Y-30.48
X170.18Y-48.26
X172.72Y-30.48
X172.72Y-48.26
X175.26Y-30.48
X175.26Y-48.26
X177.8Y-30.48
X177.8Y-48.26
T6
X21.5Y-53.0
X21.5Y-57.5
X21.5Y-61.0
X21.5Y-65.5
X21.5Y-74.5
X21.5Y-79.0
X21.5Y-82.5
X21.5Y-87.0
X28.0Y-53.0
X28.0Y-57.5
X28.0Y-61.0
X28.0Y-65.5
X28.0Y-74.5
X28.0Y-79.0
X28.0Y-82.5
X28.0Y-87.0
T0
M30
