G04 #@! TF.GenerationSoftware,KiCad,Pcbnew,(6.0.5-0)*
G04 #@! TF.CreationDate,2022-12-16T22:27:12-06:00*
G04 #@! TF.ProjectId,scsi_switcher,73637369-5f73-4776-9974-636865722e6b,rev?*
G04 #@! TF.SameCoordinates,Original*
G04 #@! TF.FileFunction,Soldermask,Top*
G04 #@! TF.FilePolarity,Negative*
%FSLAX46Y46*%
G04 Gerber Fmt 4.6, Leading zero omitted, Abs format (unit mm)*
G04 Created by KiCad (PCBNEW (6.0.5-0)) date 2022-12-16 22:27:12*
%MOMM*%
%LPD*%
G01*
G04 APERTURE LIST*
G04 Aperture macros list*
%AMRoundRect*
0 Rectangle with rounded corners*
0 $1 Rounding radius*
0 $2 $3 $4 $5 $6 $7 $8 $9 X,Y pos of 4 corners*
0 Add a 4 corners polygon primitive as box body*
4,1,4,$2,$3,$4,$5,$6,$7,$8,$9,$2,$3,0*
0 Add four circle primitives for the rounded corners*
1,1,$1+$1,$2,$3*
1,1,$1+$1,$4,$5*
1,1,$1+$1,$6,$7*
1,1,$1+$1,$8,$9*
0 Add four rect primitives between the rounded corners*
20,1,$1+$1,$2,$3,$4,$5,0*
20,1,$1+$1,$4,$5,$6,$7,0*
20,1,$1+$1,$6,$7,$8,$9,0*
20,1,$1+$1,$8,$9,$2,$3,0*%
%AMFreePoly0*
4,1,22,0.550000,-0.750000,0.000000,-0.750000,0.000000,-0.745033,-0.079941,-0.743568,-0.215256,-0.701293,-0.333266,-0.622738,-0.424486,-0.514219,-0.481581,-0.384460,-0.499164,-0.250000,-0.500000,-0.250000,-0.500000,0.250000,-0.499164,0.250000,-0.499963,0.256109,-0.478152,0.396186,-0.417904,0.524511,-0.324060,0.630769,-0.204165,0.706417,-0.067858,0.745374,0.000000,0.744959,0.000000,0.750000,
0.550000,0.750000,0.550000,-0.750000,0.550000,-0.750000,$1*%
%AMFreePoly1*
4,1,20,0.000000,0.744959,0.073905,0.744508,0.209726,0.703889,0.328688,0.626782,0.421226,0.519385,0.479903,0.390333,0.500000,0.250000,0.500000,-0.250000,0.499851,-0.262216,0.476331,-0.402017,0.414519,-0.529596,0.319384,-0.634700,0.198574,-0.708877,0.061801,-0.746166,0.000000,-0.745033,0.000000,-0.750000,-0.550000,-0.750000,-0.550000,0.750000,0.000000,0.750000,0.000000,0.744959,
0.000000,0.744959,$1*%
%AMFreePoly2*
4,1,22,0.500000,-0.750000,0.000000,-0.750000,0.000000,-0.745033,-0.079941,-0.743568,-0.215256,-0.701293,-0.333266,-0.622738,-0.424486,-0.514219,-0.481581,-0.384460,-0.499164,-0.250000,-0.500000,-0.250000,-0.500000,0.250000,-0.499164,0.250000,-0.499963,0.256109,-0.478152,0.396186,-0.417904,0.524511,-0.324060,0.630769,-0.204165,0.706417,-0.067858,0.745374,0.000000,0.744959,0.000000,0.750000,
0.500000,0.750000,0.500000,-0.750000,0.500000,-0.750000,$1*%
%AMFreePoly3*
4,1,20,0.000000,0.744959,0.073905,0.744508,0.209726,0.703889,0.328688,0.626782,0.421226,0.519385,0.479903,0.390333,0.500000,0.250000,0.500000,-0.250000,0.499851,-0.262216,0.476331,-0.402017,0.414519,-0.529596,0.319384,-0.634700,0.198574,-0.708877,0.061801,-0.746166,0.000000,-0.745033,0.000000,-0.750000,-0.500000,-0.750000,-0.500000,0.750000,0.000000,0.750000,0.000000,0.744959,
0.000000,0.744959,$1*%
G04 Aperture macros list end*
%ADD10C,1.000000*%
%ADD11RoundRect,0.250000X-0.262500X-0.450000X0.262500X-0.450000X0.262500X0.450000X-0.262500X0.450000X0*%
%ADD12RoundRect,0.250000X0.262500X0.450000X-0.262500X0.450000X-0.262500X-0.450000X0.262500X-0.450000X0*%
%ADD13RoundRect,0.150000X0.587500X0.150000X-0.587500X0.150000X-0.587500X-0.150000X0.587500X-0.150000X0*%
%ADD14RoundRect,0.150000X0.150000X-0.587500X0.150000X0.587500X-0.150000X0.587500X-0.150000X-0.587500X0*%
%ADD15RoundRect,0.150000X-0.850000X-0.150000X0.850000X-0.150000X0.850000X0.150000X-0.850000X0.150000X0*%
%ADD16C,2.000000*%
%ADD17RoundRect,0.250000X0.250000X0.475000X-0.250000X0.475000X-0.250000X-0.475000X0.250000X-0.475000X0*%
%ADD18R,1.700000X1.700000*%
%ADD19O,1.700000X1.700000*%
%ADD20RoundRect,0.250000X0.450000X-0.262500X0.450000X0.262500X-0.450000X0.262500X-0.450000X-0.262500X0*%
%ADD21FreePoly0,180.000000*%
%ADD22R,1.000000X1.500000*%
%ADD23FreePoly1,180.000000*%
%ADD24C,2.700000*%
%ADD25RoundRect,0.250000X-0.600000X0.600000X-0.600000X-0.600000X0.600000X-0.600000X0.600000X0.600000X0*%
%ADD26C,1.700000*%
%ADD27RoundRect,0.250000X-0.450000X0.262500X-0.450000X-0.262500X0.450000X-0.262500X0.450000X0.262500X0*%
%ADD28RoundRect,0.250000X0.600000X-0.600000X0.600000X0.600000X-0.600000X0.600000X-0.600000X-0.600000X0*%
%ADD29RoundRect,0.243750X0.456250X-0.243750X0.456250X0.243750X-0.456250X0.243750X-0.456250X-0.243750X0*%
%ADD30RoundRect,0.250000X-0.475000X0.250000X-0.475000X-0.250000X0.475000X-0.250000X0.475000X0.250000X0*%
%ADD31R,1.700000X3.500000*%
%ADD32O,1.800000X1.800000*%
%ADD33O,1.500000X1.500000*%
%ADD34R,3.500000X1.700000*%
%ADD35FreePoly2,180.000000*%
%ADD36FreePoly3,180.000000*%
G04 APERTURE END LIST*
D10*
X66039998Y-80264000D03*
X87226665Y-80264000D03*
X76633331Y-80264000D03*
D11*
X104798500Y-35221333D03*
X102973500Y-35221333D03*
D12*
X119022500Y-27940000D03*
X117197500Y-27940000D03*
D11*
X104798500Y-37422666D03*
X102973500Y-37422666D03*
X104798500Y-33020000D03*
X102973500Y-33020000D03*
D12*
X117197500Y-29972000D03*
X119022500Y-29972000D03*
D11*
X104798500Y-39624000D03*
X102973500Y-39624000D03*
D13*
X106758500Y-34036000D03*
X108633500Y-33086000D03*
X108633500Y-34986000D03*
D14*
X114554000Y-29034500D03*
X115504000Y-30909500D03*
X113604000Y-30909500D03*
D13*
X106758500Y-37592000D03*
X108633500Y-36642000D03*
X108633500Y-38542000D03*
D15*
X31760000Y-57555000D03*
X31760000Y-58825000D03*
X31760000Y-60095000D03*
X31760000Y-61365000D03*
X31760000Y-62635000D03*
X31760000Y-63905000D03*
X31760000Y-65175000D03*
X31760000Y-66445000D03*
X36760000Y-66445000D03*
X36760000Y-65175000D03*
X36760000Y-63905000D03*
X36760000Y-62635000D03*
X36760000Y-61365000D03*
X36760000Y-60095000D03*
X36760000Y-58825000D03*
X36760000Y-57555000D03*
X37056666Y-73555000D03*
X37056666Y-74825000D03*
X37056666Y-76095000D03*
X37056666Y-77365000D03*
X37056666Y-78635000D03*
X37056666Y-79905000D03*
X37056666Y-81175000D03*
X37056666Y-82445000D03*
X42056666Y-82445000D03*
X42056666Y-81175000D03*
X42056666Y-79905000D03*
X42056666Y-78635000D03*
X42056666Y-77365000D03*
X42056666Y-76095000D03*
X42056666Y-74825000D03*
X42056666Y-73555000D03*
X42353332Y-57555000D03*
X42353332Y-58825000D03*
X42353332Y-60095000D03*
X42353332Y-61365000D03*
X42353332Y-62635000D03*
X42353332Y-63905000D03*
X42353332Y-65175000D03*
X42353332Y-66445000D03*
X47353332Y-66445000D03*
X47353332Y-65175000D03*
X47353332Y-63905000D03*
X47353332Y-62635000D03*
X47353332Y-61365000D03*
X47353332Y-60095000D03*
X47353332Y-58825000D03*
X47353332Y-57555000D03*
X47649999Y-73555000D03*
X47649999Y-74825000D03*
X47649999Y-76095000D03*
X47649999Y-77365000D03*
X47649999Y-78635000D03*
X47649999Y-79905000D03*
X47649999Y-81175000D03*
X47649999Y-82445000D03*
X52649999Y-82445000D03*
X52649999Y-81175000D03*
X52649999Y-79905000D03*
X52649999Y-78635000D03*
X52649999Y-77365000D03*
X52649999Y-76095000D03*
X52649999Y-74825000D03*
X52649999Y-73555000D03*
X52946666Y-57555000D03*
X52946666Y-58825000D03*
X52946666Y-60095000D03*
X52946666Y-61365000D03*
X52946666Y-62635000D03*
X52946666Y-63905000D03*
X52946666Y-65175000D03*
X52946666Y-66445000D03*
X57946666Y-66445000D03*
X57946666Y-65175000D03*
X57946666Y-63905000D03*
X57946666Y-62635000D03*
X57946666Y-61365000D03*
X57946666Y-60095000D03*
X57946666Y-58825000D03*
X57946666Y-57555000D03*
X58243332Y-73555000D03*
X58243332Y-74825000D03*
X58243332Y-76095000D03*
X58243332Y-77365000D03*
X58243332Y-78635000D03*
X58243332Y-79905000D03*
X58243332Y-81175000D03*
X58243332Y-82445000D03*
X63243332Y-82445000D03*
X63243332Y-81175000D03*
X63243332Y-79905000D03*
X63243332Y-78635000D03*
X63243332Y-77365000D03*
X63243332Y-76095000D03*
X63243332Y-74825000D03*
X63243332Y-73555000D03*
X63539999Y-57555000D03*
X63539999Y-58825000D03*
X63539999Y-60095000D03*
X63539999Y-61365000D03*
X63539999Y-62635000D03*
X63539999Y-63905000D03*
X63539999Y-65175000D03*
X63539999Y-66445000D03*
X68539999Y-66445000D03*
X68539999Y-65175000D03*
X68539999Y-63905000D03*
X68539999Y-62635000D03*
X68539999Y-61365000D03*
X68539999Y-60095000D03*
X68539999Y-58825000D03*
X68539999Y-57555000D03*
X68836665Y-73555000D03*
X68836665Y-74825000D03*
X68836665Y-76095000D03*
X68836665Y-77365000D03*
X68836665Y-78635000D03*
X68836665Y-79905000D03*
X68836665Y-81175000D03*
X68836665Y-82445000D03*
X73836665Y-82445000D03*
X73836665Y-81175000D03*
X73836665Y-79905000D03*
X73836665Y-78635000D03*
X73836665Y-77365000D03*
X73836665Y-76095000D03*
X73836665Y-74825000D03*
X73836665Y-73555000D03*
X74133332Y-57555000D03*
X74133332Y-58825000D03*
X74133332Y-60095000D03*
X74133332Y-61365000D03*
X74133332Y-62635000D03*
X74133332Y-63905000D03*
X74133332Y-65175000D03*
X74133332Y-66445000D03*
X79133332Y-66445000D03*
X79133332Y-65175000D03*
X79133332Y-63905000D03*
X79133332Y-62635000D03*
X79133332Y-61365000D03*
X79133332Y-60095000D03*
X79133332Y-58825000D03*
X79133332Y-57555000D03*
X79429998Y-73555000D03*
X79429998Y-74825000D03*
X79429998Y-76095000D03*
X79429998Y-77365000D03*
X79429998Y-78635000D03*
X79429998Y-79905000D03*
X79429998Y-81175000D03*
X79429998Y-82445000D03*
X84429998Y-82445000D03*
X84429998Y-81175000D03*
X84429998Y-79905000D03*
X84429998Y-78635000D03*
X84429998Y-77365000D03*
X84429998Y-76095000D03*
X84429998Y-74825000D03*
X84429998Y-73555000D03*
X84726665Y-57555000D03*
X84726665Y-58825000D03*
X84726665Y-60095000D03*
X84726665Y-61365000D03*
X84726665Y-62635000D03*
X84726665Y-63905000D03*
X84726665Y-65175000D03*
X84726665Y-66445000D03*
X89726665Y-66445000D03*
X89726665Y-65175000D03*
X89726665Y-63905000D03*
X89726665Y-62635000D03*
X89726665Y-61365000D03*
X89726665Y-60095000D03*
X89726665Y-58825000D03*
X89726665Y-57555000D03*
X90023332Y-73555000D03*
X90023332Y-74825000D03*
X90023332Y-76095000D03*
X90023332Y-77365000D03*
X90023332Y-78635000D03*
X90023332Y-79905000D03*
X90023332Y-81175000D03*
X90023332Y-82445000D03*
X95023332Y-82445000D03*
X95023332Y-81175000D03*
X95023332Y-79905000D03*
X95023332Y-78635000D03*
X95023332Y-77365000D03*
X95023332Y-76095000D03*
X95023332Y-74825000D03*
X95023332Y-73555000D03*
X95319999Y-57555000D03*
X95319999Y-58825000D03*
X95319999Y-60095000D03*
X95319999Y-61365000D03*
X95319999Y-62635000D03*
X95319999Y-63905000D03*
X95319999Y-65175000D03*
X95319999Y-66445000D03*
X100319999Y-66445000D03*
X100319999Y-65175000D03*
X100319999Y-63905000D03*
X100319999Y-62635000D03*
X100319999Y-61365000D03*
X100319999Y-60095000D03*
X100319999Y-58825000D03*
X100319999Y-57555000D03*
D16*
X28000000Y-82500000D03*
X21500000Y-82500000D03*
X28000000Y-87000000D03*
X21500000Y-87000000D03*
D17*
X96060000Y-71560000D03*
X94160000Y-71560000D03*
D18*
X104389000Y-93487000D03*
D19*
X106929000Y-93487000D03*
X104389000Y-96027000D03*
X106929000Y-96027000D03*
X104389000Y-98567000D03*
X106929000Y-98567000D03*
X104389000Y-101107000D03*
X106929000Y-101107000D03*
X104389000Y-103647000D03*
X106929000Y-103647000D03*
X104389000Y-106187000D03*
X106929000Y-106187000D03*
X104389000Y-108727000D03*
X106929000Y-108727000D03*
X104389000Y-111267000D03*
X106929000Y-111267000D03*
D20*
X28670000Y-28189000D03*
X28670000Y-26364000D03*
D17*
X85480000Y-71610000D03*
X83580000Y-71610000D03*
X43120000Y-71580000D03*
X41220000Y-71580000D03*
D21*
X114150000Y-47814500D03*
D22*
X112850000Y-47814500D03*
D23*
X111550000Y-47814500D03*
D24*
X106000000Y-116500000D03*
X176500000Y-116500000D03*
D21*
X114150000Y-42332700D03*
D22*
X112850000Y-42332700D03*
D23*
X111550000Y-42332700D03*
D21*
X114150000Y-36850900D03*
D22*
X112850000Y-36850900D03*
D23*
X111550000Y-36850900D03*
D25*
X96520000Y-45000000D03*
D26*
X96520000Y-47540000D03*
X93980000Y-45000000D03*
X93980000Y-47540000D03*
X91440000Y-45000000D03*
X91440000Y-47540000D03*
X88900000Y-45000000D03*
X88900000Y-47540000D03*
X86360000Y-45000000D03*
X86360000Y-47540000D03*
X83820000Y-45000000D03*
X83820000Y-47540000D03*
X81280000Y-45000000D03*
X81280000Y-47540000D03*
X78740000Y-45000000D03*
X78740000Y-47540000D03*
X76200000Y-45000000D03*
X76200000Y-47540000D03*
X73660000Y-45000000D03*
X73660000Y-47540000D03*
X71120000Y-45000000D03*
X71120000Y-47540000D03*
X68580000Y-45000000D03*
X68580000Y-47540000D03*
X66040000Y-45000000D03*
X66040000Y-47540000D03*
X63500000Y-45000000D03*
X63500000Y-47540000D03*
X60960000Y-45000000D03*
X60960000Y-47540000D03*
X58420000Y-45000000D03*
X58420000Y-47540000D03*
X55880000Y-45000000D03*
X55880000Y-47540000D03*
X53340000Y-45000000D03*
X53340000Y-47540000D03*
X50800000Y-45000000D03*
X50800000Y-47540000D03*
X48260000Y-45000000D03*
X48260000Y-47540000D03*
X45720000Y-45000000D03*
X45720000Y-47540000D03*
X43180000Y-45000000D03*
X43180000Y-47540000D03*
X40640000Y-45000000D03*
X40640000Y-47540000D03*
X38100000Y-45000000D03*
X38100000Y-47540000D03*
X35560000Y-45000000D03*
X35560000Y-47540000D03*
D27*
X110410000Y-28157500D03*
X110410000Y-29982500D03*
D28*
X108000000Y-71270000D03*
D26*
X108000000Y-68730000D03*
X110540000Y-71270000D03*
X110540000Y-68730000D03*
X113080000Y-71270000D03*
X113080000Y-68730000D03*
X115620000Y-71270000D03*
X115620000Y-68730000D03*
X118160000Y-71270000D03*
X118160000Y-68730000D03*
X120700000Y-71270000D03*
X120700000Y-68730000D03*
X123240000Y-71270000D03*
X123240000Y-68730000D03*
X125780000Y-71270000D03*
X125780000Y-68730000D03*
X128320000Y-71270000D03*
X128320000Y-68730000D03*
X130860000Y-71270000D03*
X130860000Y-68730000D03*
X133400000Y-71270000D03*
X133400000Y-68730000D03*
X135940000Y-71270000D03*
X135940000Y-68730000D03*
X138480000Y-71270000D03*
X138480000Y-68730000D03*
X141020000Y-71270000D03*
X141020000Y-68730000D03*
X143560000Y-71270000D03*
X143560000Y-68730000D03*
X146100000Y-71270000D03*
X146100000Y-68730000D03*
X148640000Y-71270000D03*
X148640000Y-68730000D03*
X151180000Y-71270000D03*
X151180000Y-68730000D03*
X153720000Y-71270000D03*
X153720000Y-68730000D03*
X156260000Y-71270000D03*
X156260000Y-68730000D03*
X158800000Y-71270000D03*
X158800000Y-68730000D03*
X161340000Y-71270000D03*
X161340000Y-68730000D03*
X163880000Y-71270000D03*
X163880000Y-68730000D03*
X166420000Y-71270000D03*
X166420000Y-68730000D03*
X168960000Y-71270000D03*
X168960000Y-68730000D03*
D25*
X96520000Y-25000000D03*
D26*
X96520000Y-27540000D03*
X93980000Y-25000000D03*
X93980000Y-27540000D03*
X91440000Y-25000000D03*
X91440000Y-27540000D03*
X88900000Y-25000000D03*
X88900000Y-27540000D03*
X86360000Y-25000000D03*
X86360000Y-27540000D03*
X83820000Y-25000000D03*
X83820000Y-27540000D03*
X81280000Y-25000000D03*
X81280000Y-27540000D03*
X78740000Y-25000000D03*
X78740000Y-27540000D03*
X76200000Y-25000000D03*
X76200000Y-27540000D03*
X73660000Y-25000000D03*
X73660000Y-27540000D03*
X71120000Y-25000000D03*
X71120000Y-27540000D03*
X68580000Y-25000000D03*
X68580000Y-27540000D03*
X66040000Y-25000000D03*
X66040000Y-27540000D03*
X63500000Y-25000000D03*
X63500000Y-27540000D03*
X60960000Y-25000000D03*
X60960000Y-27540000D03*
X58420000Y-25000000D03*
X58420000Y-27540000D03*
X55880000Y-25000000D03*
X55880000Y-27540000D03*
X53340000Y-25000000D03*
X53340000Y-27540000D03*
X50800000Y-25000000D03*
X50800000Y-27540000D03*
X48260000Y-25000000D03*
X48260000Y-27540000D03*
X45720000Y-25000000D03*
X45720000Y-27540000D03*
X43180000Y-25000000D03*
X43180000Y-27540000D03*
X40640000Y-25000000D03*
X40640000Y-27540000D03*
X38100000Y-25000000D03*
X38100000Y-27540000D03*
X35560000Y-25000000D03*
X35560000Y-27540000D03*
D17*
X37810000Y-55610000D03*
X35910000Y-55610000D03*
D20*
X28900000Y-113710000D03*
X28900000Y-111885000D03*
X28900000Y-46665000D03*
X28900000Y-44840000D03*
D27*
X108443332Y-28157500D03*
X108443332Y-29982500D03*
D17*
X64290000Y-71570000D03*
X62390000Y-71570000D03*
D24*
X23500000Y-23500000D03*
D29*
X26900000Y-94130000D03*
X26900000Y-92255000D03*
X26670000Y-28194000D03*
X26670000Y-26319000D03*
D17*
X59000000Y-55570000D03*
X57100000Y-55570000D03*
D30*
X103120000Y-57340000D03*
X103120000Y-59240000D03*
D21*
X114150000Y-45073600D03*
D22*
X112850000Y-45073600D03*
D23*
X111550000Y-45073600D03*
D17*
X74890000Y-71600000D03*
X72990000Y-71600000D03*
D19*
X177800000Y-30480000D03*
X175260000Y-30480000D03*
D18*
X172720000Y-30480000D03*
D19*
X170180000Y-30480000D03*
X167640000Y-30480000D03*
X165100000Y-30480000D03*
X162560000Y-30480000D03*
D18*
X160020000Y-30480000D03*
D19*
X157480000Y-30480000D03*
X154940000Y-30480000D03*
X152400000Y-30480000D03*
X149860000Y-30480000D03*
D18*
X147320000Y-30480000D03*
D19*
X144780000Y-30480000D03*
X142240000Y-30480000D03*
X139700000Y-30480000D03*
X137160000Y-30480000D03*
D18*
X134620000Y-30480000D03*
D19*
X132080000Y-30480000D03*
X129540000Y-30480000D03*
X129540000Y-48260000D03*
X132080000Y-48260000D03*
D18*
X134620000Y-48260000D03*
D19*
X137160000Y-48260000D03*
X139700000Y-48260000D03*
X142240000Y-48260000D03*
X144780000Y-48260000D03*
D18*
X147320000Y-48260000D03*
D19*
X149860000Y-48260000D03*
X152400000Y-48260000D03*
X154940000Y-48260000D03*
X157480000Y-48260000D03*
D18*
X160020000Y-48260000D03*
D19*
X162560000Y-48260000D03*
X165100000Y-48260000D03*
X167640000Y-48260000D03*
X170180000Y-48260000D03*
D18*
X172720000Y-48260000D03*
D19*
X175260000Y-48260000D03*
X177800000Y-48260000D03*
D31*
X177800000Y-29580000D03*
X175260000Y-29580000D03*
X172720000Y-29580000D03*
X170180000Y-29580000D03*
X167640000Y-29580000D03*
X165100000Y-29580000D03*
X162560000Y-29580000D03*
X160020000Y-29580000D03*
X157480000Y-29580000D03*
X154940000Y-29580000D03*
X152400000Y-29580000D03*
X149860000Y-29580000D03*
X147320000Y-29580000D03*
X144780000Y-29580000D03*
X142240000Y-29580000D03*
X139700000Y-29580000D03*
X137160000Y-29580000D03*
X134620000Y-29580000D03*
X132080000Y-29580000D03*
X129540000Y-29580000D03*
X177800000Y-49160000D03*
X175260000Y-49160000D03*
X172720000Y-49160000D03*
X170180000Y-49160000D03*
X167640000Y-49160000D03*
X165100000Y-49160000D03*
X162560000Y-49160000D03*
X160020000Y-49160000D03*
X157480000Y-49160000D03*
X154940000Y-49160000D03*
X152400000Y-49160000D03*
X149860000Y-49160000D03*
X147320000Y-49160000D03*
X144780000Y-49160000D03*
X142240000Y-49160000D03*
X139700000Y-49160000D03*
X137160000Y-49160000D03*
X134620000Y-49160000D03*
X132080000Y-49160000D03*
X129540000Y-49160000D03*
D32*
X177670000Y-36645000D03*
X177670000Y-42095000D03*
D33*
X174640000Y-36945000D03*
X174640000Y-41795000D03*
D34*
X128870000Y-36830000D03*
D19*
X129770000Y-36830000D03*
D34*
X128870000Y-39370000D03*
D18*
X129770000Y-39370000D03*
D34*
X128870000Y-41910000D03*
D19*
X129770000Y-41910000D03*
D17*
X48390000Y-55580000D03*
X46490000Y-55580000D03*
X90770000Y-55580000D03*
X88870000Y-55580000D03*
D24*
X106000000Y-23500000D03*
X23500000Y-116500000D03*
D16*
X28000000Y-53000000D03*
X21500000Y-53000000D03*
X28000000Y-57500000D03*
X21500000Y-57500000D03*
X28000000Y-61000000D03*
X21500000Y-61000000D03*
X28000000Y-65500000D03*
X21500000Y-65500000D03*
D24*
X176500000Y-78275000D03*
D25*
X96520000Y-112460000D03*
D26*
X96520000Y-115000000D03*
X93980000Y-112460000D03*
X93980000Y-115000000D03*
X91440000Y-112460000D03*
X91440000Y-115000000D03*
X88900000Y-112460000D03*
X88900000Y-115000000D03*
X86360000Y-112460000D03*
X86360000Y-115000000D03*
X83820000Y-112460000D03*
X83820000Y-115000000D03*
X81280000Y-112460000D03*
X81280000Y-115000000D03*
X78740000Y-112460000D03*
X78740000Y-115000000D03*
X76200000Y-112460000D03*
X76200000Y-115000000D03*
X73660000Y-112460000D03*
X73660000Y-115000000D03*
X71120000Y-112460000D03*
X71120000Y-115000000D03*
X68580000Y-112460000D03*
X68580000Y-115000000D03*
X66040000Y-112460000D03*
X66040000Y-115000000D03*
X63500000Y-112460000D03*
X63500000Y-115000000D03*
X60960000Y-112460000D03*
X60960000Y-115000000D03*
X58420000Y-112460000D03*
X58420000Y-115000000D03*
X55880000Y-112460000D03*
X55880000Y-115000000D03*
X53340000Y-112460000D03*
X53340000Y-115000000D03*
X50800000Y-112460000D03*
X50800000Y-115000000D03*
X48260000Y-112460000D03*
X48260000Y-115000000D03*
X45720000Y-112460000D03*
X45720000Y-115000000D03*
X43180000Y-112460000D03*
X43180000Y-115000000D03*
X40640000Y-112460000D03*
X40640000Y-115000000D03*
X38100000Y-112460000D03*
X38100000Y-115000000D03*
X35560000Y-112460000D03*
X35560000Y-115000000D03*
D20*
X28900000Y-94125000D03*
X28900000Y-92300000D03*
D16*
X28000000Y-74500000D03*
X21500000Y-74500000D03*
X28000000Y-79000000D03*
X21500000Y-79000000D03*
D18*
X22425000Y-31952500D03*
D19*
X24965000Y-31952500D03*
X22425000Y-34492500D03*
X24965000Y-34492500D03*
X22425000Y-37032500D03*
X24965000Y-37032500D03*
X22425000Y-39572500D03*
X24965000Y-39572500D03*
D24*
X176500000Y-23500000D03*
D25*
X96520000Y-92460000D03*
D26*
X96520000Y-95000000D03*
X93980000Y-92460000D03*
X93980000Y-95000000D03*
X91440000Y-92460000D03*
X91440000Y-95000000D03*
X88900000Y-92460000D03*
X88900000Y-95000000D03*
X86360000Y-92460000D03*
X86360000Y-95000000D03*
X83820000Y-92460000D03*
X83820000Y-95000000D03*
X81280000Y-92460000D03*
X81280000Y-95000000D03*
X78740000Y-92460000D03*
X78740000Y-95000000D03*
X76200000Y-92460000D03*
X76200000Y-95000000D03*
X73660000Y-92460000D03*
X73660000Y-95000000D03*
X71120000Y-92460000D03*
X71120000Y-95000000D03*
X68580000Y-92460000D03*
X68580000Y-95000000D03*
X66040000Y-92460000D03*
X66040000Y-95000000D03*
X63500000Y-92460000D03*
X63500000Y-95000000D03*
X60960000Y-92460000D03*
X60960000Y-95000000D03*
X58420000Y-92460000D03*
X58420000Y-95000000D03*
X55880000Y-92460000D03*
X55880000Y-95000000D03*
X53340000Y-92460000D03*
X53340000Y-95000000D03*
X50800000Y-92460000D03*
X50800000Y-95000000D03*
X48260000Y-92460000D03*
X48260000Y-95000000D03*
X45720000Y-92460000D03*
X45720000Y-95000000D03*
X43180000Y-92460000D03*
X43180000Y-95000000D03*
X40640000Y-92460000D03*
X40640000Y-95000000D03*
X38100000Y-92460000D03*
X38100000Y-95000000D03*
X35560000Y-92460000D03*
X35560000Y-95000000D03*
D21*
X114150000Y-34110000D03*
D22*
X112850000Y-34110000D03*
D23*
X111550000Y-34110000D03*
D27*
X106476666Y-28157500D03*
X106476666Y-29982500D03*
D35*
X24600000Y-42926000D03*
D36*
X23300000Y-42926000D03*
D21*
X114150000Y-39591800D03*
D22*
X112850000Y-39591800D03*
D23*
X111550000Y-39591800D03*
D29*
X26900000Y-113715000D03*
X26900000Y-111840000D03*
X26900000Y-46670000D03*
X26900000Y-44795000D03*
D24*
X23500000Y-70000000D03*
D17*
X69590000Y-55560000D03*
X67690000Y-55560000D03*
D24*
X176500000Y-61725000D03*
D27*
X104510000Y-28157500D03*
X104510000Y-29982500D03*
D17*
X53680000Y-71540000D03*
X51780000Y-71540000D03*
X80170000Y-55570000D03*
X78270000Y-55570000D03*
D18*
X108000000Y-77000000D03*
D19*
X108000000Y-79540000D03*
X110540000Y-77000000D03*
X110540000Y-79540000D03*
X113080000Y-77000000D03*
X113080000Y-79540000D03*
X115620000Y-77000000D03*
X115620000Y-79540000D03*
X118160000Y-77000000D03*
X118160000Y-79540000D03*
X120700000Y-77000000D03*
X120700000Y-79540000D03*
X123240000Y-77000000D03*
X123240000Y-79540000D03*
X125780000Y-77000000D03*
X125780000Y-79540000D03*
X128320000Y-77000000D03*
X128320000Y-79540000D03*
X130860000Y-77000000D03*
X130860000Y-79540000D03*
X133400000Y-77000000D03*
X133400000Y-79540000D03*
X135940000Y-77000000D03*
X135940000Y-79540000D03*
X138480000Y-77000000D03*
X138480000Y-79540000D03*
X141020000Y-77000000D03*
X141020000Y-79540000D03*
X143560000Y-77000000D03*
X143560000Y-79540000D03*
X146100000Y-77000000D03*
X146100000Y-79540000D03*
X148640000Y-77000000D03*
X148640000Y-79540000D03*
X151180000Y-77000000D03*
X151180000Y-79540000D03*
X153720000Y-77000000D03*
X153720000Y-79540000D03*
X156260000Y-77000000D03*
X156260000Y-79540000D03*
X158800000Y-77000000D03*
X158800000Y-79540000D03*
X161340000Y-77000000D03*
X161340000Y-79540000D03*
X163880000Y-77000000D03*
X163880000Y-79540000D03*
X166420000Y-77000000D03*
X166420000Y-79540000D03*
X168960000Y-77000000D03*
X168960000Y-79540000D03*
D18*
X108000000Y-63000000D03*
D19*
X108000000Y-60460000D03*
X110540000Y-63000000D03*
X110540000Y-60460000D03*
X113080000Y-63000000D03*
X113080000Y-60460000D03*
X115620000Y-63000000D03*
X115620000Y-60460000D03*
X118160000Y-63000000D03*
X118160000Y-60460000D03*
X120700000Y-63000000D03*
X120700000Y-60460000D03*
X123240000Y-63000000D03*
X123240000Y-60460000D03*
X125780000Y-63000000D03*
X125780000Y-60460000D03*
X128320000Y-63000000D03*
X128320000Y-60460000D03*
X130860000Y-63000000D03*
X130860000Y-60460000D03*
X133400000Y-63000000D03*
X133400000Y-60460000D03*
X135940000Y-63000000D03*
X135940000Y-60460000D03*
X138480000Y-63000000D03*
X138480000Y-60460000D03*
X141020000Y-63000000D03*
X141020000Y-60460000D03*
X143560000Y-63000000D03*
X143560000Y-60460000D03*
X146100000Y-63000000D03*
X146100000Y-60460000D03*
X148640000Y-63000000D03*
X148640000Y-60460000D03*
X151180000Y-63000000D03*
X151180000Y-60460000D03*
X153720000Y-63000000D03*
X153720000Y-60460000D03*
X156260000Y-63000000D03*
X156260000Y-60460000D03*
X158800000Y-63000000D03*
X158800000Y-60460000D03*
X161340000Y-63000000D03*
X161340000Y-60460000D03*
X163880000Y-63000000D03*
X163880000Y-60460000D03*
X166420000Y-63000000D03*
X166420000Y-60460000D03*
X168960000Y-63000000D03*
X168960000Y-60460000D03*
D18*
X112000000Y-115000000D03*
D19*
X112000000Y-117540000D03*
X114540000Y-115000000D03*
X114540000Y-117540000D03*
X117080000Y-115000000D03*
X117080000Y-117540000D03*
X119620000Y-115000000D03*
X119620000Y-117540000D03*
X122160000Y-115000000D03*
X122160000Y-117540000D03*
X124700000Y-115000000D03*
X124700000Y-117540000D03*
D18*
X124830000Y-22420000D03*
D19*
X124830000Y-24960000D03*
X122290000Y-22420000D03*
X122290000Y-24960000D03*
X119750000Y-22420000D03*
X119750000Y-24960000D03*
X117210000Y-22420000D03*
X117210000Y-24960000D03*
X114670000Y-22420000D03*
X114670000Y-24960000D03*
X112130000Y-22420000D03*
X112130000Y-24960000D03*
M02*
