G04 #@! TF.GenerationSoftware,KiCad,Pcbnew,(6.0.5-0)*
G04 #@! TF.CreationDate,2022-12-16T22:27:12-06:00*
G04 #@! TF.ProjectId,scsi_switcher,73637369-5f73-4776-9974-636865722e6b,rev?*
G04 #@! TF.SameCoordinates,Original*
G04 #@! TF.FileFunction,Paste,Top*
G04 #@! TF.FilePolarity,Positive*
%FSLAX46Y46*%
G04 Gerber Fmt 4.6, Leading zero omitted, Abs format (unit mm)*
G04 Created by KiCad (PCBNEW (6.0.5-0)) date 2022-12-16 22:27:12*
%MOMM*%
%LPD*%
G01*
G04 APERTURE LIST*
G04 Aperture macros list*
%AMRoundRect*
0 Rectangle with rounded corners*
0 $1 Rounding radius*
0 $2 $3 $4 $5 $6 $7 $8 $9 X,Y pos of 4 corners*
0 Add a 4 corners polygon primitive as box body*
4,1,4,$2,$3,$4,$5,$6,$7,$8,$9,$2,$3,0*
0 Add four circle primitives for the rounded corners*
1,1,$1+$1,$2,$3*
1,1,$1+$1,$4,$5*
1,1,$1+$1,$6,$7*
1,1,$1+$1,$8,$9*
0 Add four rect primitives between the rounded corners*
20,1,$1+$1,$2,$3,$4,$5,0*
20,1,$1+$1,$4,$5,$6,$7,0*
20,1,$1+$1,$6,$7,$8,$9,0*
20,1,$1+$1,$8,$9,$2,$3,0*%
G04 Aperture macros list end*
%ADD10RoundRect,0.250000X-0.262500X-0.450000X0.262500X-0.450000X0.262500X0.450000X-0.262500X0.450000X0*%
%ADD11RoundRect,0.250000X0.262500X0.450000X-0.262500X0.450000X-0.262500X-0.450000X0.262500X-0.450000X0*%
%ADD12RoundRect,0.150000X0.587500X0.150000X-0.587500X0.150000X-0.587500X-0.150000X0.587500X-0.150000X0*%
%ADD13RoundRect,0.150000X0.150000X-0.587500X0.150000X0.587500X-0.150000X0.587500X-0.150000X-0.587500X0*%
%ADD14RoundRect,0.150000X-0.850000X-0.150000X0.850000X-0.150000X0.850000X0.150000X-0.850000X0.150000X0*%
%ADD15RoundRect,0.250000X0.250000X0.475000X-0.250000X0.475000X-0.250000X-0.475000X0.250000X-0.475000X0*%
%ADD16RoundRect,0.250000X0.450000X-0.262500X0.450000X0.262500X-0.450000X0.262500X-0.450000X-0.262500X0*%
%ADD17RoundRect,0.250000X-0.450000X0.262500X-0.450000X-0.262500X0.450000X-0.262500X0.450000X0.262500X0*%
%ADD18RoundRect,0.243750X0.456250X-0.243750X0.456250X0.243750X-0.456250X0.243750X-0.456250X-0.243750X0*%
%ADD19RoundRect,0.250000X-0.475000X0.250000X-0.475000X-0.250000X0.475000X-0.250000X0.475000X0.250000X0*%
G04 APERTURE END LIST*
D10*
X104798500Y-35221333D03*
X102973500Y-35221333D03*
D11*
X119022500Y-27940000D03*
X117197500Y-27940000D03*
D10*
X104798500Y-37422666D03*
X102973500Y-37422666D03*
X104798500Y-33020000D03*
X102973500Y-33020000D03*
D11*
X117197500Y-29972000D03*
X119022500Y-29972000D03*
D10*
X104798500Y-39624000D03*
X102973500Y-39624000D03*
D12*
X106758500Y-34036000D03*
X108633500Y-33086000D03*
X108633500Y-34986000D03*
D13*
X114554000Y-29034500D03*
X115504000Y-30909500D03*
X113604000Y-30909500D03*
D12*
X106758500Y-37592000D03*
X108633500Y-36642000D03*
X108633500Y-38542000D03*
D14*
X31760000Y-57555000D03*
X31760000Y-58825000D03*
X31760000Y-60095000D03*
X31760000Y-61365000D03*
X31760000Y-62635000D03*
X31760000Y-63905000D03*
X31760000Y-65175000D03*
X31760000Y-66445000D03*
X36760000Y-66445000D03*
X36760000Y-65175000D03*
X36760000Y-63905000D03*
X36760000Y-62635000D03*
X36760000Y-61365000D03*
X36760000Y-60095000D03*
X36760000Y-58825000D03*
X36760000Y-57555000D03*
X37056666Y-73555000D03*
X37056666Y-74825000D03*
X37056666Y-76095000D03*
X37056666Y-77365000D03*
X37056666Y-78635000D03*
X37056666Y-79905000D03*
X37056666Y-81175000D03*
X37056666Y-82445000D03*
X42056666Y-82445000D03*
X42056666Y-81175000D03*
X42056666Y-79905000D03*
X42056666Y-78635000D03*
X42056666Y-77365000D03*
X42056666Y-76095000D03*
X42056666Y-74825000D03*
X42056666Y-73555000D03*
X42353332Y-57555000D03*
X42353332Y-58825000D03*
X42353332Y-60095000D03*
X42353332Y-61365000D03*
X42353332Y-62635000D03*
X42353332Y-63905000D03*
X42353332Y-65175000D03*
X42353332Y-66445000D03*
X47353332Y-66445000D03*
X47353332Y-65175000D03*
X47353332Y-63905000D03*
X47353332Y-62635000D03*
X47353332Y-61365000D03*
X47353332Y-60095000D03*
X47353332Y-58825000D03*
X47353332Y-57555000D03*
X47649999Y-73555000D03*
X47649999Y-74825000D03*
X47649999Y-76095000D03*
X47649999Y-77365000D03*
X47649999Y-78635000D03*
X47649999Y-79905000D03*
X47649999Y-81175000D03*
X47649999Y-82445000D03*
X52649999Y-82445000D03*
X52649999Y-81175000D03*
X52649999Y-79905000D03*
X52649999Y-78635000D03*
X52649999Y-77365000D03*
X52649999Y-76095000D03*
X52649999Y-74825000D03*
X52649999Y-73555000D03*
X52946666Y-57555000D03*
X52946666Y-58825000D03*
X52946666Y-60095000D03*
X52946666Y-61365000D03*
X52946666Y-62635000D03*
X52946666Y-63905000D03*
X52946666Y-65175000D03*
X52946666Y-66445000D03*
X57946666Y-66445000D03*
X57946666Y-65175000D03*
X57946666Y-63905000D03*
X57946666Y-62635000D03*
X57946666Y-61365000D03*
X57946666Y-60095000D03*
X57946666Y-58825000D03*
X57946666Y-57555000D03*
X58243332Y-73555000D03*
X58243332Y-74825000D03*
X58243332Y-76095000D03*
X58243332Y-77365000D03*
X58243332Y-78635000D03*
X58243332Y-79905000D03*
X58243332Y-81175000D03*
X58243332Y-82445000D03*
X63243332Y-82445000D03*
X63243332Y-81175000D03*
X63243332Y-79905000D03*
X63243332Y-78635000D03*
X63243332Y-77365000D03*
X63243332Y-76095000D03*
X63243332Y-74825000D03*
X63243332Y-73555000D03*
X63539999Y-57555000D03*
X63539999Y-58825000D03*
X63539999Y-60095000D03*
X63539999Y-61365000D03*
X63539999Y-62635000D03*
X63539999Y-63905000D03*
X63539999Y-65175000D03*
X63539999Y-66445000D03*
X68539999Y-66445000D03*
X68539999Y-65175000D03*
X68539999Y-63905000D03*
X68539999Y-62635000D03*
X68539999Y-61365000D03*
X68539999Y-60095000D03*
X68539999Y-58825000D03*
X68539999Y-57555000D03*
X68836665Y-73555000D03*
X68836665Y-74825000D03*
X68836665Y-76095000D03*
X68836665Y-77365000D03*
X68836665Y-78635000D03*
X68836665Y-79905000D03*
X68836665Y-81175000D03*
X68836665Y-82445000D03*
X73836665Y-82445000D03*
X73836665Y-81175000D03*
X73836665Y-79905000D03*
X73836665Y-78635000D03*
X73836665Y-77365000D03*
X73836665Y-76095000D03*
X73836665Y-74825000D03*
X73836665Y-73555000D03*
X74133332Y-57555000D03*
X74133332Y-58825000D03*
X74133332Y-60095000D03*
X74133332Y-61365000D03*
X74133332Y-62635000D03*
X74133332Y-63905000D03*
X74133332Y-65175000D03*
X74133332Y-66445000D03*
X79133332Y-66445000D03*
X79133332Y-65175000D03*
X79133332Y-63905000D03*
X79133332Y-62635000D03*
X79133332Y-61365000D03*
X79133332Y-60095000D03*
X79133332Y-58825000D03*
X79133332Y-57555000D03*
X79429998Y-73555000D03*
X79429998Y-74825000D03*
X79429998Y-76095000D03*
X79429998Y-77365000D03*
X79429998Y-78635000D03*
X79429998Y-79905000D03*
X79429998Y-81175000D03*
X79429998Y-82445000D03*
X84429998Y-82445000D03*
X84429998Y-81175000D03*
X84429998Y-79905000D03*
X84429998Y-78635000D03*
X84429998Y-77365000D03*
X84429998Y-76095000D03*
X84429998Y-74825000D03*
X84429998Y-73555000D03*
X84726665Y-57555000D03*
X84726665Y-58825000D03*
X84726665Y-60095000D03*
X84726665Y-61365000D03*
X84726665Y-62635000D03*
X84726665Y-63905000D03*
X84726665Y-65175000D03*
X84726665Y-66445000D03*
X89726665Y-66445000D03*
X89726665Y-65175000D03*
X89726665Y-63905000D03*
X89726665Y-62635000D03*
X89726665Y-61365000D03*
X89726665Y-60095000D03*
X89726665Y-58825000D03*
X89726665Y-57555000D03*
X90023332Y-73555000D03*
X90023332Y-74825000D03*
X90023332Y-76095000D03*
X90023332Y-77365000D03*
X90023332Y-78635000D03*
X90023332Y-79905000D03*
X90023332Y-81175000D03*
X90023332Y-82445000D03*
X95023332Y-82445000D03*
X95023332Y-81175000D03*
X95023332Y-79905000D03*
X95023332Y-78635000D03*
X95023332Y-77365000D03*
X95023332Y-76095000D03*
X95023332Y-74825000D03*
X95023332Y-73555000D03*
X95319999Y-57555000D03*
X95319999Y-58825000D03*
X95319999Y-60095000D03*
X95319999Y-61365000D03*
X95319999Y-62635000D03*
X95319999Y-63905000D03*
X95319999Y-65175000D03*
X95319999Y-66445000D03*
X100319999Y-66445000D03*
X100319999Y-65175000D03*
X100319999Y-63905000D03*
X100319999Y-62635000D03*
X100319999Y-61365000D03*
X100319999Y-60095000D03*
X100319999Y-58825000D03*
X100319999Y-57555000D03*
D15*
X96060000Y-71560000D03*
X94160000Y-71560000D03*
D16*
X28670000Y-28189000D03*
X28670000Y-26364000D03*
D15*
X85480000Y-71610000D03*
X83580000Y-71610000D03*
X43120000Y-71580000D03*
X41220000Y-71580000D03*
D17*
X110410000Y-28157500D03*
X110410000Y-29982500D03*
D15*
X37810000Y-55610000D03*
X35910000Y-55610000D03*
D16*
X28900000Y-113710000D03*
X28900000Y-111885000D03*
X28900000Y-46665000D03*
X28900000Y-44840000D03*
D17*
X108443332Y-28157500D03*
X108443332Y-29982500D03*
D15*
X64290000Y-71570000D03*
X62390000Y-71570000D03*
D18*
X26900000Y-94130000D03*
X26900000Y-92255000D03*
X26670000Y-28194000D03*
X26670000Y-26319000D03*
D15*
X59000000Y-55570000D03*
X57100000Y-55570000D03*
D19*
X103120000Y-57340000D03*
X103120000Y-59240000D03*
D15*
X74890000Y-71600000D03*
X72990000Y-71600000D03*
X48390000Y-55580000D03*
X46490000Y-55580000D03*
X90770000Y-55580000D03*
X88870000Y-55580000D03*
D16*
X28900000Y-94125000D03*
X28900000Y-92300000D03*
D17*
X106476666Y-28157500D03*
X106476666Y-29982500D03*
D18*
X26900000Y-113715000D03*
X26900000Y-111840000D03*
X26900000Y-46670000D03*
X26900000Y-44795000D03*
D15*
X69590000Y-55560000D03*
X67690000Y-55560000D03*
D17*
X104510000Y-28157500D03*
X104510000Y-29982500D03*
D15*
X53680000Y-71540000D03*
X51780000Y-71540000D03*
X80170000Y-55570000D03*
X78270000Y-55570000D03*
M02*
