G04 #@! TF.GenerationSoftware,KiCad,Pcbnew,(6.0.5-0)*
G04 #@! TF.CreationDate,2022-12-16T22:27:12-06:00*
G04 #@! TF.ProjectId,scsi_switcher,73637369-5f73-4776-9974-636865722e6b,rev?*
G04 #@! TF.SameCoordinates,Original*
G04 #@! TF.FileFunction,Legend,Bot*
G04 #@! TF.FilePolarity,Positive*
%FSLAX46Y46*%
G04 Gerber Fmt 4.6, Leading zero omitted, Abs format (unit mm)*
G04 Created by KiCad (PCBNEW (6.0.5-0)) date 2022-12-16 22:27:12*
%MOMM*%
%LPD*%
G01*
G04 APERTURE LIST*
G04 Aperture macros list*
%AMRoundRect*
0 Rectangle with rounded corners*
0 $1 Rounding radius*
0 $2 $3 $4 $5 $6 $7 $8 $9 X,Y pos of 4 corners*
0 Add a 4 corners polygon primitive as box body*
4,1,4,$2,$3,$4,$5,$6,$7,$8,$9,$2,$3,0*
0 Add four circle primitives for the rounded corners*
1,1,$1+$1,$2,$3*
1,1,$1+$1,$4,$5*
1,1,$1+$1,$6,$7*
1,1,$1+$1,$8,$9*
0 Add four rect primitives between the rounded corners*
20,1,$1+$1,$2,$3,$4,$5,0*
20,1,$1+$1,$4,$5,$6,$7,0*
20,1,$1+$1,$6,$7,$8,$9,0*
20,1,$1+$1,$8,$9,$2,$3,0*%
%AMFreePoly0*
4,1,22,0.500000,-0.750000,0.000000,-0.750000,0.000000,-0.745033,-0.079941,-0.743568,-0.215256,-0.701293,-0.333266,-0.622738,-0.424486,-0.514219,-0.481581,-0.384460,-0.499164,-0.250000,-0.500000,-0.250000,-0.500000,0.250000,-0.499164,0.250000,-0.499963,0.256109,-0.478152,0.396186,-0.417904,0.524511,-0.324060,0.630769,-0.204165,0.706417,-0.067858,0.745374,0.000000,0.744959,0.000000,0.750000,
0.500000,0.750000,0.500000,-0.750000,0.500000,-0.750000,$1*%
%AMFreePoly1*
4,1,20,0.000000,0.744959,0.073905,0.744508,0.209726,0.703889,0.328688,0.626782,0.421226,0.519385,0.479903,0.390333,0.500000,0.250000,0.500000,-0.250000,0.499851,-0.262216,0.476331,-0.402017,0.414519,-0.529596,0.319384,-0.634700,0.198574,-0.708877,0.061801,-0.746166,0.000000,-0.745033,0.000000,-0.750000,-0.500000,-0.750000,-0.500000,0.750000,0.000000,0.750000,0.000000,0.744959,
0.000000,0.744959,$1*%
%AMFreePoly2*
4,1,22,0.550000,-0.750000,0.000000,-0.750000,0.000000,-0.745033,-0.079941,-0.743568,-0.215256,-0.701293,-0.333266,-0.622738,-0.424486,-0.514219,-0.481581,-0.384460,-0.499164,-0.250000,-0.500000,-0.250000,-0.500000,0.250000,-0.499164,0.250000,-0.499963,0.256109,-0.478152,0.396186,-0.417904,0.524511,-0.324060,0.630769,-0.204165,0.706417,-0.067858,0.745374,0.000000,0.744959,0.000000,0.750000,
0.550000,0.750000,0.550000,-0.750000,0.550000,-0.750000,$1*%
%AMFreePoly3*
4,1,20,0.000000,0.744959,0.073905,0.744508,0.209726,0.703889,0.328688,0.626782,0.421226,0.519385,0.479903,0.390333,0.500000,0.250000,0.500000,-0.250000,0.499851,-0.262216,0.476331,-0.402017,0.414519,-0.529596,0.319384,-0.634700,0.198574,-0.708877,0.061801,-0.746166,0.000000,-0.745033,0.000000,-0.750000,-0.550000,-0.750000,-0.550000,0.750000,0.000000,0.750000,0.000000,0.744959,
0.000000,0.744959,$1*%
G04 Aperture macros list end*
%ADD10C,0.150000*%
%ADD11C,0.329000*%
%ADD12C,0.100000*%
%ADD13C,0.120000*%
%ADD14C,0.010000*%
%ADD15C,1.000000*%
%ADD16C,2.000000*%
%ADD17R,1.700000X1.700000*%
%ADD18O,1.700000X1.700000*%
%ADD19C,2.700000*%
%ADD20RoundRect,0.250000X-0.600000X0.600000X-0.600000X-0.600000X0.600000X-0.600000X0.600000X0.600000X0*%
%ADD21C,1.700000*%
%ADD22RoundRect,0.250000X0.600000X-0.600000X0.600000X0.600000X-0.600000X0.600000X-0.600000X-0.600000X0*%
%ADD23O,1.800000X1.800000*%
%ADD24O,1.500000X1.500000*%
%ADD25FreePoly0,90.000000*%
%ADD26FreePoly1,90.000000*%
%ADD27FreePoly2,90.000000*%
%ADD28R,1.500000X1.000000*%
%ADD29FreePoly3,90.000000*%
G04 APERTURE END LIST*
D10*
X68184380Y-78803714D02*
X67184380Y-78803714D01*
X67898666Y-79137047D01*
X67184380Y-79470380D01*
X68184380Y-79470380D01*
X67184380Y-79946571D02*
X67993904Y-79946571D01*
X68089142Y-79994190D01*
X68136761Y-80041809D01*
X68184380Y-80137047D01*
X68184380Y-80327523D01*
X68136761Y-80422761D01*
X68089142Y-80470380D01*
X67993904Y-80518000D01*
X67184380Y-80518000D01*
X67184380Y-80898952D02*
X68184380Y-81565619D01*
X67184380Y-81565619D02*
X68184380Y-80898952D01*
X69746761Y-77660857D02*
X69794380Y-77803714D01*
X69794380Y-78041809D01*
X69746761Y-78137047D01*
X69699142Y-78184666D01*
X69603904Y-78232285D01*
X69508666Y-78232285D01*
X69413428Y-78184666D01*
X69365809Y-78137047D01*
X69318190Y-78041809D01*
X69270571Y-77851333D01*
X69222952Y-77756095D01*
X69175333Y-77708476D01*
X69080095Y-77660857D01*
X68984857Y-77660857D01*
X68889619Y-77708476D01*
X68842000Y-77756095D01*
X68794380Y-77851333D01*
X68794380Y-78089428D01*
X68842000Y-78232285D01*
X69270571Y-78660857D02*
X69270571Y-78994190D01*
X69794380Y-79137047D02*
X69794380Y-78660857D01*
X68794380Y-78660857D01*
X68794380Y-79137047D01*
X69794380Y-80041809D02*
X69794380Y-79565619D01*
X68794380Y-79565619D01*
X69270571Y-80375142D02*
X69270571Y-80708476D01*
X69794380Y-80851333D02*
X69794380Y-80375142D01*
X68794380Y-80375142D01*
X68794380Y-80851333D01*
X69699142Y-81851333D02*
X69746761Y-81803714D01*
X69794380Y-81660857D01*
X69794380Y-81565619D01*
X69746761Y-81422761D01*
X69651523Y-81327523D01*
X69556285Y-81279904D01*
X69365809Y-81232285D01*
X69222952Y-81232285D01*
X69032476Y-81279904D01*
X68937238Y-81327523D01*
X68842000Y-81422761D01*
X68794380Y-81565619D01*
X68794380Y-81660857D01*
X68842000Y-81803714D01*
X68889619Y-81851333D01*
X68794380Y-82137047D02*
X68794380Y-82708476D01*
X69794380Y-82422761D02*
X68794380Y-82422761D01*
X70880571Y-80589428D02*
X70928190Y-80732285D01*
X70975809Y-80779904D01*
X71071047Y-80827523D01*
X71213904Y-80827523D01*
X71309142Y-80779904D01*
X71356761Y-80732285D01*
X71404380Y-80637047D01*
X71404380Y-80256095D01*
X70404380Y-80256095D01*
X70404380Y-80589428D01*
X70452000Y-80684666D01*
X70499619Y-80732285D01*
X70594857Y-80779904D01*
X70690095Y-80779904D01*
X70785333Y-80732285D01*
X70832952Y-80684666D01*
X70880571Y-80589428D01*
X70880571Y-80256095D01*
X89309380Y-78803714D02*
X88309380Y-78803714D01*
X89023666Y-79137047D01*
X88309380Y-79470380D01*
X89309380Y-79470380D01*
X88309380Y-79946571D02*
X89118904Y-79946571D01*
X89214142Y-79994190D01*
X89261761Y-80041809D01*
X89309380Y-80137047D01*
X89309380Y-80327523D01*
X89261761Y-80422761D01*
X89214142Y-80470380D01*
X89118904Y-80518000D01*
X88309380Y-80518000D01*
X88309380Y-80898952D02*
X89309380Y-81565619D01*
X88309380Y-81565619D02*
X89309380Y-80898952D01*
X90919380Y-78113238D02*
X89919380Y-78113238D01*
X90919380Y-78589428D02*
X89919380Y-78589428D01*
X90919380Y-79160857D01*
X89919380Y-79160857D01*
X90919380Y-79637047D02*
X89919380Y-79637047D01*
X90395571Y-79637047D02*
X90395571Y-80208476D01*
X90919380Y-80208476D02*
X89919380Y-80208476D01*
X90919380Y-80684666D02*
X89919380Y-80684666D01*
X90395571Y-81494190D02*
X90443190Y-81637047D01*
X90490809Y-81684666D01*
X90586047Y-81732285D01*
X90728904Y-81732285D01*
X90824142Y-81684666D01*
X90871761Y-81637047D01*
X90919380Y-81541809D01*
X90919380Y-81160857D01*
X89919380Y-81160857D01*
X89919380Y-81494190D01*
X89967000Y-81589428D01*
X90014619Y-81637047D01*
X90109857Y-81684666D01*
X90205095Y-81684666D01*
X90300333Y-81637047D01*
X90347952Y-81589428D01*
X90395571Y-81494190D01*
X90395571Y-81160857D01*
X90919380Y-82160857D02*
X89919380Y-82160857D01*
X89919380Y-82494190D02*
X89919380Y-83065619D01*
X90919380Y-82779904D02*
X89919380Y-82779904D01*
X78852380Y-79057714D02*
X77852380Y-79057714D01*
X78566666Y-79391047D01*
X77852380Y-79724380D01*
X78852380Y-79724380D01*
X77852380Y-80200571D02*
X78661904Y-80200571D01*
X78757142Y-80248190D01*
X78804761Y-80295809D01*
X78852380Y-80391047D01*
X78852380Y-80581523D01*
X78804761Y-80676761D01*
X78757142Y-80724380D01*
X78661904Y-80772000D01*
X77852380Y-80772000D01*
X77852380Y-81152952D02*
X78852380Y-81819619D01*
X77852380Y-81819619D02*
X78852380Y-81152952D01*
X80414761Y-77914857D02*
X80462380Y-78057714D01*
X80462380Y-78295809D01*
X80414761Y-78391047D01*
X80367142Y-78438666D01*
X80271904Y-78486285D01*
X80176666Y-78486285D01*
X80081428Y-78438666D01*
X80033809Y-78391047D01*
X79986190Y-78295809D01*
X79938571Y-78105333D01*
X79890952Y-78010095D01*
X79843333Y-77962476D01*
X79748095Y-77914857D01*
X79652857Y-77914857D01*
X79557619Y-77962476D01*
X79510000Y-78010095D01*
X79462380Y-78105333D01*
X79462380Y-78343428D01*
X79510000Y-78486285D01*
X79938571Y-78914857D02*
X79938571Y-79248190D01*
X80462380Y-79391047D02*
X80462380Y-78914857D01*
X79462380Y-78914857D01*
X79462380Y-79391047D01*
X80462380Y-80295809D02*
X80462380Y-79819619D01*
X79462380Y-79819619D01*
X79938571Y-80629142D02*
X79938571Y-80962476D01*
X80462380Y-81105333D02*
X80462380Y-80629142D01*
X79462380Y-80629142D01*
X79462380Y-81105333D01*
X80367142Y-82105333D02*
X80414761Y-82057714D01*
X80462380Y-81914857D01*
X80462380Y-81819619D01*
X80414761Y-81676761D01*
X80319523Y-81581523D01*
X80224285Y-81533904D01*
X80033809Y-81486285D01*
X79890952Y-81486285D01*
X79700476Y-81533904D01*
X79605238Y-81581523D01*
X79510000Y-81676761D01*
X79462380Y-81819619D01*
X79462380Y-81914857D01*
X79510000Y-82057714D01*
X79557619Y-82105333D01*
X79462380Y-82391047D02*
X79462380Y-82962476D01*
X80462380Y-82676761D02*
X79462380Y-82676761D01*
X81786666Y-80533904D02*
X81786666Y-81010095D01*
X82072380Y-80438666D02*
X81072380Y-80772000D01*
X82072380Y-81105333D01*
X123698000Y-94488000D02*
X130048000Y-94488000D01*
X130048000Y-94488000D02*
X130048000Y-97282000D01*
X130048000Y-97282000D02*
X123698000Y-97282000D01*
X123698000Y-97282000D02*
X123698000Y-94488000D01*
X137160000Y-93980000D02*
X149098000Y-93980000D01*
X149098000Y-93980000D02*
X149098000Y-104648000D01*
X149098000Y-104648000D02*
X137160000Y-104648000D01*
X137160000Y-104648000D02*
X137160000Y-93980000D01*
D11*
X160819500Y-99314000D02*
G75*
G03*
X160819500Y-99314000I-164500J0D01*
G01*
X163613500Y-98044000D02*
G75*
G03*
X163613500Y-98044000I-164500J0D01*
G01*
D10*
X154305000Y-101346000D02*
X160655000Y-101346000D01*
X160655000Y-101346000D02*
X160655000Y-104140000D01*
X160655000Y-104140000D02*
X154305000Y-104140000D01*
X154305000Y-104140000D02*
X154305000Y-101346000D01*
D11*
X121322500Y-100584000D02*
G75*
G03*
X121322500Y-100584000I-164500J0D01*
G01*
D10*
X158115000Y-99314000D02*
X160655000Y-99314000D01*
X118618000Y-93980000D02*
X130556000Y-93980000D01*
X130556000Y-93980000D02*
X130556000Y-104648000D01*
X130556000Y-104648000D02*
X118618000Y-104648000D01*
X118618000Y-104648000D02*
X118618000Y-93980000D01*
X126492000Y-99314000D02*
X123952000Y-99314000D01*
X159258000Y-101346000D02*
X156972000Y-104140000D01*
X142240000Y-94488000D02*
X148590000Y-94488000D01*
X148590000Y-94488000D02*
X148590000Y-97282000D01*
X148590000Y-97282000D02*
X142240000Y-97282000D01*
X142240000Y-97282000D02*
X142240000Y-94488000D01*
D11*
X139864500Y-95250000D02*
G75*
G03*
X139864500Y-95250000I-164500J0D01*
G01*
X163613500Y-100838000D02*
G75*
G03*
X163613500Y-100838000I-164500J0D01*
G01*
X145198500Y-99314000D02*
G75*
G03*
X145198500Y-99314000I-164500J0D01*
G01*
D10*
X145034000Y-99314000D02*
X142494000Y-99314000D01*
X153797000Y-93980000D02*
X165735000Y-93980000D01*
X165735000Y-93980000D02*
X165735000Y-104648000D01*
X165735000Y-104648000D02*
X153797000Y-104648000D01*
X153797000Y-104648000D02*
X153797000Y-93980000D01*
X142494000Y-99314000D02*
X139700000Y-97790000D01*
X154305000Y-104140000D02*
X156972000Y-101346000D01*
D11*
X142658500Y-99314000D02*
G75*
G03*
X142658500Y-99314000I-164500J0D01*
G01*
X139864500Y-100584000D02*
G75*
G03*
X139864500Y-100584000I-164500J0D01*
G01*
D10*
X160655000Y-99314000D02*
X163449000Y-100838000D01*
D11*
X139864500Y-103378000D02*
G75*
G03*
X139864500Y-103378000I-164500J0D01*
G01*
D10*
X156972000Y-101346000D02*
X159258000Y-104140000D01*
D11*
X121322500Y-95250000D02*
G75*
G03*
X121322500Y-95250000I-164500J0D01*
G01*
X124116500Y-99314000D02*
G75*
G03*
X124116500Y-99314000I-164500J0D01*
G01*
D10*
X130556000Y-98044000D02*
X132842000Y-98044000D01*
X132842000Y-98044000D02*
X132842000Y-100330000D01*
X132842000Y-100330000D02*
X130556000Y-100330000D01*
X130556000Y-100330000D02*
X130556000Y-98044000D01*
X160782000Y-106172000D02*
X159766000Y-104140000D01*
X151511000Y-93980000D02*
X153797000Y-93980000D01*
X153797000Y-93980000D02*
X153797000Y-96266000D01*
X153797000Y-96266000D02*
X151511000Y-96266000D01*
X151511000Y-96266000D02*
X151511000Y-93980000D01*
D11*
X126656500Y-99314000D02*
G75*
G03*
X126656500Y-99314000I-164500J0D01*
G01*
X121322500Y-103378000D02*
G75*
G03*
X121322500Y-103378000I-164500J0D01*
G01*
X121322500Y-97790000D02*
G75*
G03*
X121322500Y-97790000I-164500J0D01*
G01*
D10*
X149225000Y-98044000D02*
X151511000Y-98044000D01*
X151511000Y-98044000D02*
X151511000Y-100330000D01*
X151511000Y-100330000D02*
X149225000Y-100330000D01*
X149225000Y-100330000D02*
X149225000Y-98044000D01*
X160655000Y-102743000D02*
X159258000Y-101346000D01*
X149225000Y-93980000D02*
X151511000Y-93980000D01*
X151511000Y-93980000D02*
X151511000Y-96266000D01*
X151511000Y-96266000D02*
X149225000Y-96266000D01*
X149225000Y-96266000D02*
X149225000Y-93980000D01*
X159258000Y-104140000D02*
X160655000Y-102743000D01*
D11*
X158279500Y-99314000D02*
G75*
G03*
X158279500Y-99314000I-164500J0D01*
G01*
X163613500Y-103632000D02*
G75*
G03*
X163613500Y-103632000I-164500J0D01*
G01*
D10*
X123952000Y-99314000D02*
X121158000Y-97790000D01*
D11*
X163613500Y-95504000D02*
G75*
G03*
X163613500Y-95504000I-164500J0D01*
G01*
D10*
X151511000Y-98044000D02*
X153797000Y-98044000D01*
X153797000Y-98044000D02*
X153797000Y-100330000D01*
X153797000Y-100330000D02*
X151511000Y-100330000D01*
X151511000Y-100330000D02*
X151511000Y-98044000D01*
X154305000Y-101346000D02*
X156972000Y-104140000D01*
D11*
X139864500Y-97790000D02*
G75*
G03*
X139864500Y-97790000I-164500J0D01*
G01*
D10*
X152860333Y-94702380D02*
X152860333Y-95416666D01*
X152907952Y-95559523D01*
X153003190Y-95654761D01*
X153146047Y-95702380D01*
X153241285Y-95702380D01*
X151955571Y-95035714D02*
X151955571Y-95702380D01*
X152193666Y-94654761D02*
X152431761Y-95369047D01*
X151812714Y-95369047D01*
X138104571Y-97718571D02*
X137961714Y-97766190D01*
X137914095Y-97813809D01*
X137866476Y-97909047D01*
X137866476Y-98051904D01*
X137914095Y-98147142D01*
X137961714Y-98194761D01*
X138056952Y-98242380D01*
X138437904Y-98242380D01*
X138437904Y-97242380D01*
X138104571Y-97242380D01*
X138009333Y-97290000D01*
X137961714Y-97337619D01*
X137914095Y-97432857D01*
X137914095Y-97528095D01*
X137961714Y-97623333D01*
X138009333Y-97670952D01*
X138104571Y-97718571D01*
X138437904Y-97718571D01*
X150574333Y-94702380D02*
X150574333Y-95416666D01*
X150621952Y-95559523D01*
X150717190Y-95654761D01*
X150860047Y-95702380D01*
X150955285Y-95702380D01*
X150193380Y-94702380D02*
X149574333Y-94702380D01*
X149907666Y-95083333D01*
X149764809Y-95083333D01*
X149669571Y-95130952D01*
X149621952Y-95178571D01*
X149574333Y-95273809D01*
X149574333Y-95511904D01*
X149621952Y-95607142D01*
X149669571Y-95654761D01*
X149764809Y-95702380D01*
X150050523Y-95702380D01*
X150145761Y-95654761D01*
X150193380Y-95607142D01*
X160471333Y-93416380D02*
X160471333Y-92416380D01*
X160233238Y-92416380D01*
X160090380Y-92464000D01*
X159995142Y-92559238D01*
X159947523Y-92654476D01*
X159899904Y-92844952D01*
X159899904Y-92987809D01*
X159947523Y-93178285D01*
X159995142Y-93273523D01*
X160090380Y-93368761D01*
X160233238Y-93416380D01*
X160471333Y-93416380D01*
X159328476Y-93416380D02*
X159423714Y-93368761D01*
X159471333Y-93321142D01*
X159518952Y-93225904D01*
X159518952Y-92940190D01*
X159471333Y-92844952D01*
X159423714Y-92797333D01*
X159328476Y-92749714D01*
X159185619Y-92749714D01*
X159090380Y-92797333D01*
X159042761Y-92844952D01*
X158995142Y-92940190D01*
X158995142Y-93225904D01*
X159042761Y-93321142D01*
X159090380Y-93368761D01*
X159185619Y-93416380D01*
X159328476Y-93416380D01*
X158138000Y-92749714D02*
X158138000Y-93416380D01*
X158566571Y-92749714D02*
X158566571Y-93273523D01*
X158518952Y-93368761D01*
X158423714Y-93416380D01*
X158280857Y-93416380D01*
X158185619Y-93368761D01*
X158138000Y-93321142D01*
X157661809Y-93416380D02*
X157661809Y-92416380D01*
X157661809Y-92797333D02*
X157566571Y-92749714D01*
X157376095Y-92749714D01*
X157280857Y-92797333D01*
X157233238Y-92844952D01*
X157185619Y-92940190D01*
X157185619Y-93225904D01*
X157233238Y-93321142D01*
X157280857Y-93368761D01*
X157376095Y-93416380D01*
X157566571Y-93416380D01*
X157661809Y-93368761D01*
X156614190Y-93416380D02*
X156709428Y-93368761D01*
X156757047Y-93273523D01*
X156757047Y-92416380D01*
X155852285Y-93368761D02*
X155947523Y-93416380D01*
X156138000Y-93416380D01*
X156233238Y-93368761D01*
X156280857Y-93273523D01*
X156280857Y-92892571D01*
X156233238Y-92797333D01*
X156138000Y-92749714D01*
X155947523Y-92749714D01*
X155852285Y-92797333D01*
X155804666Y-92892571D01*
X155804666Y-92987809D01*
X156280857Y-93083047D01*
X154280857Y-92892571D02*
X154138000Y-92940190D01*
X154090380Y-92987809D01*
X154042761Y-93083047D01*
X154042761Y-93225904D01*
X154090380Y-93321142D01*
X154138000Y-93368761D01*
X154233238Y-93416380D01*
X154614190Y-93416380D01*
X154614190Y-92416380D01*
X154280857Y-92416380D01*
X154185619Y-92464000D01*
X154138000Y-92511619D01*
X154090380Y-92606857D01*
X154090380Y-92702095D01*
X154138000Y-92797333D01*
X154185619Y-92844952D01*
X154280857Y-92892571D01*
X154614190Y-92892571D01*
X153471333Y-93416380D02*
X153566571Y-93368761D01*
X153614190Y-93321142D01*
X153661809Y-93225904D01*
X153661809Y-92940190D01*
X153614190Y-92844952D01*
X153566571Y-92797333D01*
X153471333Y-92749714D01*
X153328476Y-92749714D01*
X153233238Y-92797333D01*
X153185619Y-92844952D01*
X153138000Y-92940190D01*
X153138000Y-93225904D01*
X153185619Y-93321142D01*
X153233238Y-93368761D01*
X153328476Y-93416380D01*
X153471333Y-93416380D01*
X152280857Y-93416380D02*
X152280857Y-92892571D01*
X152328476Y-92797333D01*
X152423714Y-92749714D01*
X152614190Y-92749714D01*
X152709428Y-92797333D01*
X152280857Y-93368761D02*
X152376095Y-93416380D01*
X152614190Y-93416380D01*
X152709428Y-93368761D01*
X152757047Y-93273523D01*
X152757047Y-93178285D01*
X152709428Y-93083047D01*
X152614190Y-93035428D01*
X152376095Y-93035428D01*
X152280857Y-92987809D01*
X151804666Y-93416380D02*
X151804666Y-92749714D01*
X151804666Y-92940190D02*
X151757047Y-92844952D01*
X151709428Y-92797333D01*
X151614190Y-92749714D01*
X151518952Y-92749714D01*
X150757047Y-93416380D02*
X150757047Y-92416380D01*
X150757047Y-93368761D02*
X150852285Y-93416380D01*
X151042761Y-93416380D01*
X151138000Y-93368761D01*
X151185619Y-93321142D01*
X151233238Y-93225904D01*
X151233238Y-92940190D01*
X151185619Y-92844952D01*
X151138000Y-92797333D01*
X151042761Y-92749714D01*
X150852285Y-92749714D01*
X150757047Y-92797333D01*
X149328476Y-92416380D02*
X149138000Y-92416380D01*
X149042761Y-92464000D01*
X148947523Y-92559238D01*
X148899904Y-92749714D01*
X148899904Y-93083047D01*
X148947523Y-93273523D01*
X149042761Y-93368761D01*
X149138000Y-93416380D01*
X149328476Y-93416380D01*
X149423714Y-93368761D01*
X149518952Y-93273523D01*
X149566571Y-93083047D01*
X149566571Y-92749714D01*
X149518952Y-92559238D01*
X149423714Y-92464000D01*
X149328476Y-92416380D01*
X148471333Y-92749714D02*
X148471333Y-93749714D01*
X148471333Y-92797333D02*
X148376095Y-92749714D01*
X148185619Y-92749714D01*
X148090380Y-92797333D01*
X148042761Y-92844952D01*
X147995142Y-92940190D01*
X147995142Y-93225904D01*
X148042761Y-93321142D01*
X148090380Y-93368761D01*
X148185619Y-93416380D01*
X148376095Y-93416380D01*
X148471333Y-93368761D01*
X147185619Y-93368761D02*
X147280857Y-93416380D01*
X147471333Y-93416380D01*
X147566571Y-93368761D01*
X147614190Y-93273523D01*
X147614190Y-92892571D01*
X147566571Y-92797333D01*
X147471333Y-92749714D01*
X147280857Y-92749714D01*
X147185619Y-92797333D01*
X147138000Y-92892571D01*
X147138000Y-92987809D01*
X147614190Y-93083047D01*
X146709428Y-93416380D02*
X146709428Y-92749714D01*
X146709428Y-92940190D02*
X146661809Y-92844952D01*
X146614190Y-92797333D01*
X146518952Y-92749714D01*
X146423714Y-92749714D01*
X145661809Y-93416380D02*
X145661809Y-92892571D01*
X145709428Y-92797333D01*
X145804666Y-92749714D01*
X145995142Y-92749714D01*
X146090380Y-92797333D01*
X145661809Y-93368761D02*
X145757047Y-93416380D01*
X145995142Y-93416380D01*
X146090380Y-93368761D01*
X146138000Y-93273523D01*
X146138000Y-93178285D01*
X146090380Y-93083047D01*
X145995142Y-93035428D01*
X145757047Y-93035428D01*
X145661809Y-92987809D01*
X145328476Y-92749714D02*
X144947523Y-92749714D01*
X145185619Y-92416380D02*
X145185619Y-93273523D01*
X145138000Y-93368761D01*
X145042761Y-93416380D01*
X144947523Y-93416380D01*
X144614190Y-93416380D02*
X144614190Y-92749714D01*
X144614190Y-92416380D02*
X144661809Y-92464000D01*
X144614190Y-92511619D01*
X144566571Y-92464000D01*
X144614190Y-92416380D01*
X144614190Y-92511619D01*
X143995142Y-93416380D02*
X144090380Y-93368761D01*
X144138000Y-93321142D01*
X144185619Y-93225904D01*
X144185619Y-92940190D01*
X144138000Y-92844952D01*
X144090380Y-92797333D01*
X143995142Y-92749714D01*
X143852285Y-92749714D01*
X143757047Y-92797333D01*
X143709428Y-92844952D01*
X143661809Y-92940190D01*
X143661809Y-93225904D01*
X143709428Y-93321142D01*
X143757047Y-93368761D01*
X143852285Y-93416380D01*
X143995142Y-93416380D01*
X143233238Y-92749714D02*
X143233238Y-93416380D01*
X143233238Y-92844952D02*
X143185619Y-92797333D01*
X143090380Y-92749714D01*
X142947523Y-92749714D01*
X142852285Y-92797333D01*
X142804666Y-92892571D01*
X142804666Y-93416380D01*
X152860333Y-98766380D02*
X152860333Y-99480666D01*
X152907952Y-99623523D01*
X153003190Y-99718761D01*
X153146047Y-99766380D01*
X153241285Y-99766380D01*
X152431761Y-98861619D02*
X152384142Y-98814000D01*
X152288904Y-98766380D01*
X152050809Y-98766380D01*
X151955571Y-98814000D01*
X151907952Y-98861619D01*
X151860333Y-98956857D01*
X151860333Y-99052095D01*
X151907952Y-99194952D01*
X152479380Y-99766380D01*
X151860333Y-99766380D01*
X154789285Y-98956857D02*
X154741666Y-98909238D01*
X154598809Y-98861619D01*
X154503571Y-98861619D01*
X154360714Y-98909238D01*
X154265476Y-99004476D01*
X154217857Y-99099714D01*
X154170238Y-99290190D01*
X154170238Y-99433047D01*
X154217857Y-99623523D01*
X154265476Y-99718761D01*
X154360714Y-99814000D01*
X154503571Y-99861619D01*
X154598809Y-99861619D01*
X154741666Y-99814000D01*
X154789285Y-99766380D01*
X155408333Y-99861619D02*
X155598809Y-99861619D01*
X155694047Y-99814000D01*
X155789285Y-99718761D01*
X155836904Y-99528285D01*
X155836904Y-99194952D01*
X155789285Y-99004476D01*
X155694047Y-98909238D01*
X155598809Y-98861619D01*
X155408333Y-98861619D01*
X155313095Y-98909238D01*
X155217857Y-99004476D01*
X155170238Y-99194952D01*
X155170238Y-99528285D01*
X155217857Y-99718761D01*
X155313095Y-99814000D01*
X155408333Y-99861619D01*
X156265476Y-98861619D02*
X156265476Y-99861619D01*
X156598809Y-99147333D01*
X156932142Y-99861619D01*
X156932142Y-98861619D01*
X119562571Y-97718571D02*
X119419714Y-97766190D01*
X119372095Y-97813809D01*
X119324476Y-97909047D01*
X119324476Y-98051904D01*
X119372095Y-98147142D01*
X119419714Y-98194761D01*
X119514952Y-98242380D01*
X119895904Y-98242380D01*
X119895904Y-97242380D01*
X119562571Y-97242380D01*
X119467333Y-97290000D01*
X119419714Y-97337619D01*
X119372095Y-97432857D01*
X119372095Y-97528095D01*
X119419714Y-97623333D01*
X119467333Y-97670952D01*
X119562571Y-97718571D01*
X119895904Y-97718571D01*
X137866476Y-100941142D02*
X137914095Y-100988761D01*
X138056952Y-101036380D01*
X138152190Y-101036380D01*
X138295047Y-100988761D01*
X138390285Y-100893523D01*
X138437904Y-100798285D01*
X138485523Y-100607809D01*
X138485523Y-100464952D01*
X138437904Y-100274476D01*
X138390285Y-100179238D01*
X138295047Y-100084000D01*
X138152190Y-100036380D01*
X138056952Y-100036380D01*
X137914095Y-100084000D01*
X137866476Y-100131619D01*
X119324476Y-100941142D02*
X119372095Y-100988761D01*
X119514952Y-101036380D01*
X119610190Y-101036380D01*
X119753047Y-100988761D01*
X119848285Y-100893523D01*
X119895904Y-100798285D01*
X119943523Y-100607809D01*
X119943523Y-100464952D01*
X119895904Y-100274476D01*
X119848285Y-100179238D01*
X119753047Y-100084000D01*
X119610190Y-100036380D01*
X119514952Y-100036380D01*
X119372095Y-100084000D01*
X119324476Y-100131619D01*
X119872095Y-95416666D02*
X119395904Y-95416666D01*
X119967333Y-95702380D02*
X119634000Y-94702380D01*
X119300666Y-95702380D01*
X149866571Y-58364380D02*
X149866571Y-57364380D01*
X149485619Y-57364380D01*
X149390380Y-57412000D01*
X149342761Y-57459619D01*
X149295142Y-57554857D01*
X149295142Y-57697714D01*
X149342761Y-57792952D01*
X149390380Y-57840571D01*
X149485619Y-57888190D01*
X149866571Y-57888190D01*
X148438000Y-58364380D02*
X148438000Y-57840571D01*
X148485619Y-57745333D01*
X148580857Y-57697714D01*
X148771333Y-57697714D01*
X148866571Y-57745333D01*
X148438000Y-58316761D02*
X148533238Y-58364380D01*
X148771333Y-58364380D01*
X148866571Y-58316761D01*
X148914190Y-58221523D01*
X148914190Y-58126285D01*
X148866571Y-58031047D01*
X148771333Y-57983428D01*
X148533238Y-57983428D01*
X148438000Y-57935809D01*
X148009428Y-58316761D02*
X147914190Y-58364380D01*
X147723714Y-58364380D01*
X147628476Y-58316761D01*
X147580857Y-58221523D01*
X147580857Y-58173904D01*
X147628476Y-58078666D01*
X147723714Y-58031047D01*
X147866571Y-58031047D01*
X147961809Y-57983428D01*
X148009428Y-57888190D01*
X148009428Y-57840571D01*
X147961809Y-57745333D01*
X147866571Y-57697714D01*
X147723714Y-57697714D01*
X147628476Y-57745333D01*
X147199904Y-58316761D02*
X147104666Y-58364380D01*
X146914190Y-58364380D01*
X146818952Y-58316761D01*
X146771333Y-58221523D01*
X146771333Y-58173904D01*
X146818952Y-58078666D01*
X146914190Y-58031047D01*
X147057047Y-58031047D01*
X147152285Y-57983428D01*
X147199904Y-57888190D01*
X147199904Y-57840571D01*
X147152285Y-57745333D01*
X147057047Y-57697714D01*
X146914190Y-57697714D01*
X146818952Y-57745333D01*
X146342761Y-57983428D02*
X145580857Y-57983428D01*
X145247523Y-57697714D02*
X144866571Y-57697714D01*
X145104666Y-57364380D02*
X145104666Y-58221523D01*
X145057047Y-58316761D01*
X144961809Y-58364380D01*
X144866571Y-58364380D01*
X144533238Y-58364380D02*
X144533238Y-57364380D01*
X144104666Y-58364380D02*
X144104666Y-57840571D01*
X144152285Y-57745333D01*
X144247523Y-57697714D01*
X144390380Y-57697714D01*
X144485619Y-57745333D01*
X144533238Y-57792952D01*
X143628476Y-58364380D02*
X143628476Y-57697714D01*
X143628476Y-57888190D02*
X143580857Y-57792952D01*
X143533238Y-57745333D01*
X143438000Y-57697714D01*
X143342761Y-57697714D01*
X142866571Y-58364380D02*
X142961809Y-58316761D01*
X143009428Y-58269142D01*
X143057047Y-58173904D01*
X143057047Y-57888190D01*
X143009428Y-57792952D01*
X142961809Y-57745333D01*
X142866571Y-57697714D01*
X142723714Y-57697714D01*
X142628476Y-57745333D01*
X142580857Y-57792952D01*
X142533238Y-57888190D01*
X142533238Y-58173904D01*
X142580857Y-58269142D01*
X142628476Y-58316761D01*
X142723714Y-58364380D01*
X142866571Y-58364380D01*
X141676095Y-57697714D02*
X141676095Y-58364380D01*
X142104666Y-57697714D02*
X142104666Y-58221523D01*
X142057047Y-58316761D01*
X141961809Y-58364380D01*
X141818952Y-58364380D01*
X141723714Y-58316761D01*
X141676095Y-58269142D01*
X140771333Y-57697714D02*
X140771333Y-58507238D01*
X140818952Y-58602476D01*
X140866571Y-58650095D01*
X140961809Y-58697714D01*
X141104666Y-58697714D01*
X141199904Y-58650095D01*
X140771333Y-58316761D02*
X140866571Y-58364380D01*
X141057047Y-58364380D01*
X141152285Y-58316761D01*
X141199904Y-58269142D01*
X141247523Y-58173904D01*
X141247523Y-57888190D01*
X141199904Y-57792952D01*
X141152285Y-57745333D01*
X141057047Y-57697714D01*
X140866571Y-57697714D01*
X140771333Y-57745333D01*
X140295142Y-58364380D02*
X140295142Y-57364380D01*
X139866571Y-58364380D02*
X139866571Y-57840571D01*
X139914190Y-57745333D01*
X140009428Y-57697714D01*
X140152285Y-57697714D01*
X140247523Y-57745333D01*
X140295142Y-57792952D01*
X138771333Y-57697714D02*
X138390380Y-57697714D01*
X138628476Y-57364380D02*
X138628476Y-58221523D01*
X138580857Y-58316761D01*
X138485619Y-58364380D01*
X138390380Y-58364380D01*
X137914190Y-58364380D02*
X138009428Y-58316761D01*
X138057047Y-58269142D01*
X138104666Y-58173904D01*
X138104666Y-57888190D01*
X138057047Y-57792952D01*
X138009428Y-57745333D01*
X137914190Y-57697714D01*
X137771333Y-57697714D01*
X137676095Y-57745333D01*
X137628476Y-57792952D01*
X137580857Y-57888190D01*
X137580857Y-58173904D01*
X137628476Y-58269142D01*
X137676095Y-58316761D01*
X137771333Y-58364380D01*
X137914190Y-58364380D01*
X136247523Y-58364380D02*
X136342761Y-58316761D01*
X136390380Y-58269142D01*
X136438000Y-58173904D01*
X136438000Y-57888190D01*
X136390380Y-57792952D01*
X136342761Y-57745333D01*
X136247523Y-57697714D01*
X136104666Y-57697714D01*
X136009428Y-57745333D01*
X135961809Y-57792952D01*
X135914190Y-57888190D01*
X135914190Y-58173904D01*
X135961809Y-58269142D01*
X136009428Y-58316761D01*
X136104666Y-58364380D01*
X136247523Y-58364380D01*
X135628476Y-57697714D02*
X135247523Y-57697714D01*
X135485619Y-57364380D02*
X135485619Y-58221523D01*
X135438000Y-58316761D01*
X135342761Y-58364380D01*
X135247523Y-58364380D01*
X134914190Y-58364380D02*
X134914190Y-57364380D01*
X134485619Y-58364380D02*
X134485619Y-57840571D01*
X134533238Y-57745333D01*
X134628476Y-57697714D01*
X134771333Y-57697714D01*
X134866571Y-57745333D01*
X134914190Y-57792952D01*
X133628476Y-58316761D02*
X133723714Y-58364380D01*
X133914190Y-58364380D01*
X134009428Y-58316761D01*
X134057047Y-58221523D01*
X134057047Y-57840571D01*
X134009428Y-57745333D01*
X133914190Y-57697714D01*
X133723714Y-57697714D01*
X133628476Y-57745333D01*
X133580857Y-57840571D01*
X133580857Y-57935809D01*
X134057047Y-58031047D01*
X133152285Y-58364380D02*
X133152285Y-57697714D01*
X133152285Y-57888190D02*
X133104666Y-57792952D01*
X133057047Y-57745333D01*
X132961809Y-57697714D01*
X132866571Y-57697714D01*
X131771333Y-58364380D02*
X131771333Y-57364380D01*
X131771333Y-57745333D02*
X131676095Y-57697714D01*
X131485619Y-57697714D01*
X131390380Y-57745333D01*
X131342761Y-57792952D01*
X131295142Y-57888190D01*
X131295142Y-58173904D01*
X131342761Y-58269142D01*
X131390380Y-58316761D01*
X131485619Y-58364380D01*
X131676095Y-58364380D01*
X131771333Y-58316761D01*
X130723714Y-58364380D02*
X130818952Y-58316761D01*
X130866571Y-58269142D01*
X130914190Y-58173904D01*
X130914190Y-57888190D01*
X130866571Y-57792952D01*
X130818952Y-57745333D01*
X130723714Y-57697714D01*
X130580857Y-57697714D01*
X130485619Y-57745333D01*
X130438000Y-57792952D01*
X130390380Y-57888190D01*
X130390380Y-58173904D01*
X130438000Y-58269142D01*
X130485619Y-58316761D01*
X130580857Y-58364380D01*
X130723714Y-58364380D01*
X129533238Y-58364380D02*
X129533238Y-57840571D01*
X129580857Y-57745333D01*
X129676095Y-57697714D01*
X129866571Y-57697714D01*
X129961809Y-57745333D01*
X129533238Y-58316761D02*
X129628476Y-58364380D01*
X129866571Y-58364380D01*
X129961809Y-58316761D01*
X130009428Y-58221523D01*
X130009428Y-58126285D01*
X129961809Y-58031047D01*
X129866571Y-57983428D01*
X129628476Y-57983428D01*
X129533238Y-57935809D01*
X129057047Y-58364380D02*
X129057047Y-57697714D01*
X129057047Y-57888190D02*
X129009428Y-57792952D01*
X128961809Y-57745333D01*
X128866571Y-57697714D01*
X128771333Y-57697714D01*
X128009428Y-58364380D02*
X128009428Y-57364380D01*
X128009428Y-58316761D02*
X128104666Y-58364380D01*
X128295142Y-58364380D01*
X128390380Y-58316761D01*
X128438000Y-58269142D01*
X128485619Y-58173904D01*
X128485619Y-57888190D01*
X128438000Y-57792952D01*
X128390380Y-57745333D01*
X128295142Y-57697714D01*
X128104666Y-57697714D01*
X128009428Y-57745333D01*
D12*
X178392857Y-53911904D02*
X177897619Y-53911904D01*
X178164285Y-54216666D01*
X178050000Y-54216666D01*
X177973809Y-54254761D01*
X177935714Y-54292857D01*
X177897619Y-54369047D01*
X177897619Y-54559523D01*
X177935714Y-54635714D01*
X177973809Y-54673809D01*
X178050000Y-54711904D01*
X178278571Y-54711904D01*
X178354761Y-54673809D01*
X178392857Y-54635714D01*
X177554761Y-54635714D02*
X177516666Y-54673809D01*
X177554761Y-54711904D01*
X177592857Y-54673809D01*
X177554761Y-54635714D01*
X177554761Y-54711904D01*
X177250000Y-53911904D02*
X176754761Y-53911904D01*
X177021428Y-54216666D01*
X176907142Y-54216666D01*
X176830952Y-54254761D01*
X176792857Y-54292857D01*
X176754761Y-54369047D01*
X176754761Y-54559523D01*
X176792857Y-54635714D01*
X176830952Y-54673809D01*
X176907142Y-54711904D01*
X177135714Y-54711904D01*
X177211904Y-54673809D01*
X177250000Y-54635714D01*
X176488095Y-54178571D02*
X176297619Y-54711904D01*
X176107142Y-54178571D01*
D10*
X164980904Y-101338000D02*
X164885666Y-101385619D01*
X164742809Y-101385619D01*
X164599952Y-101338000D01*
X164504714Y-101242761D01*
X164457095Y-101147523D01*
X164409476Y-100957047D01*
X164409476Y-100814190D01*
X164457095Y-100623714D01*
X164504714Y-100528476D01*
X164599952Y-100433238D01*
X164742809Y-100385619D01*
X164838047Y-100385619D01*
X164980904Y-100433238D01*
X165028523Y-100480857D01*
X165028523Y-100814190D01*
X164838047Y-100814190D01*
X126325047Y-89980761D02*
X126182190Y-90028380D01*
X125944095Y-90028380D01*
X125848857Y-89980761D01*
X125801238Y-89933142D01*
X125753619Y-89837904D01*
X125753619Y-89742666D01*
X125801238Y-89647428D01*
X125848857Y-89599809D01*
X125944095Y-89552190D01*
X126134571Y-89504571D01*
X126229809Y-89456952D01*
X126277428Y-89409333D01*
X126325047Y-89314095D01*
X126325047Y-89218857D01*
X126277428Y-89123619D01*
X126229809Y-89076000D01*
X126134571Y-89028380D01*
X125896476Y-89028380D01*
X125753619Y-89076000D01*
X125325047Y-90028380D02*
X125325047Y-89361714D01*
X125325047Y-89028380D02*
X125372666Y-89076000D01*
X125325047Y-89123619D01*
X125277428Y-89076000D01*
X125325047Y-89028380D01*
X125325047Y-89123619D01*
X124848857Y-89361714D02*
X124848857Y-90028380D01*
X124848857Y-89456952D02*
X124801238Y-89409333D01*
X124706000Y-89361714D01*
X124563142Y-89361714D01*
X124467904Y-89409333D01*
X124420285Y-89504571D01*
X124420285Y-90028380D01*
X123515523Y-89361714D02*
X123515523Y-90171238D01*
X123563142Y-90266476D01*
X123610761Y-90314095D01*
X123706000Y-90361714D01*
X123848857Y-90361714D01*
X123944095Y-90314095D01*
X123515523Y-89980761D02*
X123610761Y-90028380D01*
X123801238Y-90028380D01*
X123896476Y-89980761D01*
X123944095Y-89933142D01*
X123991714Y-89837904D01*
X123991714Y-89552190D01*
X123944095Y-89456952D01*
X123896476Y-89409333D01*
X123801238Y-89361714D01*
X123610761Y-89361714D01*
X123515523Y-89409333D01*
X122896476Y-90028380D02*
X122991714Y-89980761D01*
X123039333Y-89885523D01*
X123039333Y-89028380D01*
X122134571Y-89980761D02*
X122229809Y-90028380D01*
X122420285Y-90028380D01*
X122515523Y-89980761D01*
X122563142Y-89885523D01*
X122563142Y-89504571D01*
X122515523Y-89409333D01*
X122420285Y-89361714D01*
X122229809Y-89361714D01*
X122134571Y-89409333D01*
X122086952Y-89504571D01*
X122086952Y-89599809D01*
X122563142Y-89695047D01*
X125801238Y-91114571D02*
X125658380Y-91162190D01*
X125610761Y-91209809D01*
X125563142Y-91305047D01*
X125563142Y-91447904D01*
X125610761Y-91543142D01*
X125658380Y-91590761D01*
X125753619Y-91638380D01*
X126134571Y-91638380D01*
X126134571Y-90638380D01*
X125801238Y-90638380D01*
X125706000Y-90686000D01*
X125658380Y-90733619D01*
X125610761Y-90828857D01*
X125610761Y-90924095D01*
X125658380Y-91019333D01*
X125706000Y-91066952D01*
X125801238Y-91114571D01*
X126134571Y-91114571D01*
X124991714Y-91638380D02*
X125086952Y-91590761D01*
X125134571Y-91543142D01*
X125182190Y-91447904D01*
X125182190Y-91162190D01*
X125134571Y-91066952D01*
X125086952Y-91019333D01*
X124991714Y-90971714D01*
X124848857Y-90971714D01*
X124753619Y-91019333D01*
X124706000Y-91066952D01*
X124658380Y-91162190D01*
X124658380Y-91447904D01*
X124706000Y-91543142D01*
X124753619Y-91590761D01*
X124848857Y-91638380D01*
X124991714Y-91638380D01*
X123801238Y-91638380D02*
X123801238Y-91114571D01*
X123848857Y-91019333D01*
X123944095Y-90971714D01*
X124134571Y-90971714D01*
X124229809Y-91019333D01*
X123801238Y-91590761D02*
X123896476Y-91638380D01*
X124134571Y-91638380D01*
X124229809Y-91590761D01*
X124277428Y-91495523D01*
X124277428Y-91400285D01*
X124229809Y-91305047D01*
X124134571Y-91257428D01*
X123896476Y-91257428D01*
X123801238Y-91209809D01*
X123325047Y-91638380D02*
X123325047Y-90971714D01*
X123325047Y-91162190D02*
X123277428Y-91066952D01*
X123229809Y-91019333D01*
X123134571Y-90971714D01*
X123039333Y-90971714D01*
X122277428Y-91638380D02*
X122277428Y-90638380D01*
X122277428Y-91590761D02*
X122372666Y-91638380D01*
X122563142Y-91638380D01*
X122658380Y-91590761D01*
X122706000Y-91543142D01*
X122753619Y-91447904D01*
X122753619Y-91162190D01*
X122706000Y-91066952D01*
X122658380Y-91019333D01*
X122563142Y-90971714D01*
X122372666Y-90971714D01*
X122277428Y-91019333D01*
X127372666Y-92248380D02*
X127182190Y-92248380D01*
X127086952Y-92296000D01*
X126991714Y-92391238D01*
X126944095Y-92581714D01*
X126944095Y-92915047D01*
X126991714Y-93105523D01*
X127086952Y-93200761D01*
X127182190Y-93248380D01*
X127372666Y-93248380D01*
X127467904Y-93200761D01*
X127563142Y-93105523D01*
X127610761Y-92915047D01*
X127610761Y-92581714D01*
X127563142Y-92391238D01*
X127467904Y-92296000D01*
X127372666Y-92248380D01*
X126515523Y-92581714D02*
X126515523Y-93581714D01*
X126515523Y-92629333D02*
X126420285Y-92581714D01*
X126229809Y-92581714D01*
X126134571Y-92629333D01*
X126086952Y-92676952D01*
X126039333Y-92772190D01*
X126039333Y-93057904D01*
X126086952Y-93153142D01*
X126134571Y-93200761D01*
X126229809Y-93248380D01*
X126420285Y-93248380D01*
X126515523Y-93200761D01*
X125229809Y-93200761D02*
X125325047Y-93248380D01*
X125515523Y-93248380D01*
X125610761Y-93200761D01*
X125658380Y-93105523D01*
X125658380Y-92724571D01*
X125610761Y-92629333D01*
X125515523Y-92581714D01*
X125325047Y-92581714D01*
X125229809Y-92629333D01*
X125182190Y-92724571D01*
X125182190Y-92819809D01*
X125658380Y-92915047D01*
X124753619Y-93248380D02*
X124753619Y-92581714D01*
X124753619Y-92772190D02*
X124706000Y-92676952D01*
X124658380Y-92629333D01*
X124563142Y-92581714D01*
X124467904Y-92581714D01*
X123706000Y-93248380D02*
X123706000Y-92724571D01*
X123753619Y-92629333D01*
X123848857Y-92581714D01*
X124039333Y-92581714D01*
X124134571Y-92629333D01*
X123706000Y-93200761D02*
X123801238Y-93248380D01*
X124039333Y-93248380D01*
X124134571Y-93200761D01*
X124182190Y-93105523D01*
X124182190Y-93010285D01*
X124134571Y-92915047D01*
X124039333Y-92867428D01*
X123801238Y-92867428D01*
X123706000Y-92819809D01*
X123372666Y-92581714D02*
X122991714Y-92581714D01*
X123229809Y-92248380D02*
X123229809Y-93105523D01*
X123182190Y-93200761D01*
X123086952Y-93248380D01*
X122991714Y-93248380D01*
X122658380Y-93248380D02*
X122658380Y-92581714D01*
X122658380Y-92248380D02*
X122706000Y-92296000D01*
X122658380Y-92343619D01*
X122610761Y-92296000D01*
X122658380Y-92248380D01*
X122658380Y-92343619D01*
X122039333Y-93248380D02*
X122134571Y-93200761D01*
X122182190Y-93153142D01*
X122229809Y-93057904D01*
X122229809Y-92772190D01*
X122182190Y-92676952D01*
X122134571Y-92629333D01*
X122039333Y-92581714D01*
X121896476Y-92581714D01*
X121801238Y-92629333D01*
X121753619Y-92676952D01*
X121706000Y-92772190D01*
X121706000Y-93057904D01*
X121753619Y-93153142D01*
X121801238Y-93200761D01*
X121896476Y-93248380D01*
X122039333Y-93248380D01*
X121277428Y-92581714D02*
X121277428Y-93248380D01*
X121277428Y-92676952D02*
X121229809Y-92629333D01*
X121134571Y-92581714D01*
X120991714Y-92581714D01*
X120896476Y-92629333D01*
X120848857Y-92724571D01*
X120848857Y-93248380D01*
X147732476Y-96464380D02*
X148065809Y-95988190D01*
X148303904Y-96464380D02*
X148303904Y-95464380D01*
X147922952Y-95464380D01*
X147827714Y-95512000D01*
X147780095Y-95559619D01*
X147732476Y-95654857D01*
X147732476Y-95797714D01*
X147780095Y-95892952D01*
X147827714Y-95940571D01*
X147922952Y-95988190D01*
X148303904Y-95988190D01*
X147303904Y-96464380D02*
X147303904Y-95464380D01*
X146922952Y-95464380D01*
X146827714Y-95512000D01*
X146780095Y-95559619D01*
X146732476Y-95654857D01*
X146732476Y-95797714D01*
X146780095Y-95892952D01*
X146827714Y-95940571D01*
X146922952Y-95988190D01*
X147303904Y-95988190D01*
X145542000Y-96464380D02*
X145542000Y-95464380D01*
X145161047Y-95464380D01*
X145065809Y-95512000D01*
X145018190Y-95559619D01*
X144970571Y-95654857D01*
X144970571Y-95797714D01*
X145018190Y-95892952D01*
X145065809Y-95940571D01*
X145161047Y-95988190D01*
X145542000Y-95988190D01*
X144542000Y-96464380D02*
X144542000Y-95797714D01*
X144542000Y-95464380D02*
X144589619Y-95512000D01*
X144542000Y-95559619D01*
X144494380Y-95512000D01*
X144542000Y-95464380D01*
X144542000Y-95559619D01*
X143637238Y-96416761D02*
X143732476Y-96464380D01*
X143922952Y-96464380D01*
X144018190Y-96416761D01*
X144065809Y-96369142D01*
X144113428Y-96273904D01*
X144113428Y-95988190D01*
X144065809Y-95892952D01*
X144018190Y-95845333D01*
X143922952Y-95797714D01*
X143732476Y-95797714D01*
X143637238Y-95845333D01*
X143065809Y-96464380D02*
X143161047Y-96416761D01*
X143208666Y-96369142D01*
X143256285Y-96273904D01*
X143256285Y-95988190D01*
X143208666Y-95892952D01*
X143161047Y-95845333D01*
X143065809Y-95797714D01*
X142922952Y-95797714D01*
X142827714Y-95845333D01*
X142780095Y-95892952D01*
X142732476Y-95988190D01*
X142732476Y-96273904D01*
X142780095Y-96369142D01*
X142827714Y-96416761D01*
X142922952Y-96464380D01*
X143065809Y-96464380D01*
D12*
X176814285Y-56511904D02*
X177195238Y-56511904D01*
X177233333Y-56892857D01*
X177195238Y-56854761D01*
X177119047Y-56816666D01*
X176928571Y-56816666D01*
X176852380Y-56854761D01*
X176814285Y-56892857D01*
X176776190Y-56969047D01*
X176776190Y-57159523D01*
X176814285Y-57235714D01*
X176852380Y-57273809D01*
X176928571Y-57311904D01*
X177119047Y-57311904D01*
X177195238Y-57273809D01*
X177233333Y-57235714D01*
X176509523Y-56778571D02*
X176319047Y-57311904D01*
X176128571Y-56778571D01*
D10*
X148105714Y-99671142D02*
X148153333Y-99718761D01*
X148296190Y-99766380D01*
X148391428Y-99766380D01*
X148534285Y-99718761D01*
X148629523Y-99623523D01*
X148677142Y-99528285D01*
X148724761Y-99337809D01*
X148724761Y-99194952D01*
X148677142Y-99004476D01*
X148629523Y-98909238D01*
X148534285Y-98814000D01*
X148391428Y-98766380D01*
X148296190Y-98766380D01*
X148153333Y-98814000D01*
X148105714Y-98861619D01*
X147486666Y-98766380D02*
X147296190Y-98766380D01*
X147200952Y-98814000D01*
X147105714Y-98909238D01*
X147058095Y-99099714D01*
X147058095Y-99433047D01*
X147105714Y-99623523D01*
X147200952Y-99718761D01*
X147296190Y-99766380D01*
X147486666Y-99766380D01*
X147581904Y-99718761D01*
X147677142Y-99623523D01*
X147724761Y-99433047D01*
X147724761Y-99099714D01*
X147677142Y-98909238D01*
X147581904Y-98814000D01*
X147486666Y-98766380D01*
X146629523Y-99766380D02*
X146629523Y-98766380D01*
X146296190Y-99480666D01*
X145962857Y-98766380D01*
X145962857Y-99766380D01*
X150574333Y-98766380D02*
X150574333Y-99480666D01*
X150621952Y-99623523D01*
X150717190Y-99718761D01*
X150860047Y-99766380D01*
X150955285Y-99766380D01*
X149574333Y-99766380D02*
X150145761Y-99766380D01*
X149860047Y-99766380D02*
X149860047Y-98766380D01*
X149955285Y-98909238D01*
X150050523Y-99004476D01*
X150145761Y-99052095D01*
X164861857Y-98115428D02*
X164528523Y-98115428D01*
X164528523Y-97591619D02*
X164528523Y-98591619D01*
X165004714Y-98591619D01*
X129563714Y-99671142D02*
X129611333Y-99718761D01*
X129754190Y-99766380D01*
X129849428Y-99766380D01*
X129992285Y-99718761D01*
X130087523Y-99623523D01*
X130135142Y-99528285D01*
X130182761Y-99337809D01*
X130182761Y-99194952D01*
X130135142Y-99004476D01*
X130087523Y-98909238D01*
X129992285Y-98814000D01*
X129849428Y-98766380D01*
X129754190Y-98766380D01*
X129611333Y-98814000D01*
X129563714Y-98861619D01*
X128944666Y-98766380D02*
X128754190Y-98766380D01*
X128658952Y-98814000D01*
X128563714Y-98909238D01*
X128516095Y-99099714D01*
X128516095Y-99433047D01*
X128563714Y-99623523D01*
X128658952Y-99718761D01*
X128754190Y-99766380D01*
X128944666Y-99766380D01*
X129039904Y-99718761D01*
X129135142Y-99623523D01*
X129182761Y-99433047D01*
X129182761Y-99099714D01*
X129135142Y-98909238D01*
X129039904Y-98814000D01*
X128944666Y-98766380D01*
X128087523Y-99766380D02*
X128087523Y-98766380D01*
X127754190Y-99480666D01*
X127420857Y-98766380D01*
X127420857Y-99766380D01*
X138414095Y-95416666D02*
X137937904Y-95416666D01*
X138509333Y-95702380D02*
X138176000Y-94702380D01*
X137842666Y-95702380D01*
X119895904Y-103830380D02*
X119895904Y-102830380D01*
X119657809Y-102830380D01*
X119514952Y-102878000D01*
X119419714Y-102973238D01*
X119372095Y-103068476D01*
X119324476Y-103258952D01*
X119324476Y-103401809D01*
X119372095Y-103592285D01*
X119419714Y-103687523D01*
X119514952Y-103782761D01*
X119657809Y-103830380D01*
X119895904Y-103830380D01*
X164504714Y-95575428D02*
X164838047Y-95575428D01*
X164980904Y-95051619D02*
X164504714Y-95051619D01*
X164504714Y-96051619D01*
X164980904Y-96051619D01*
X129190476Y-96464380D02*
X129523809Y-95988190D01*
X129761904Y-96464380D02*
X129761904Y-95464380D01*
X129380952Y-95464380D01*
X129285714Y-95512000D01*
X129238095Y-95559619D01*
X129190476Y-95654857D01*
X129190476Y-95797714D01*
X129238095Y-95892952D01*
X129285714Y-95940571D01*
X129380952Y-95988190D01*
X129761904Y-95988190D01*
X128761904Y-96464380D02*
X128761904Y-95464380D01*
X128380952Y-95464380D01*
X128285714Y-95512000D01*
X128238095Y-95559619D01*
X128190476Y-95654857D01*
X128190476Y-95797714D01*
X128238095Y-95892952D01*
X128285714Y-95940571D01*
X128380952Y-95988190D01*
X128761904Y-95988190D01*
X127000000Y-96464380D02*
X127000000Y-95464380D01*
X126619047Y-95464380D01*
X126523809Y-95512000D01*
X126476190Y-95559619D01*
X126428571Y-95654857D01*
X126428571Y-95797714D01*
X126476190Y-95892952D01*
X126523809Y-95940571D01*
X126619047Y-95988190D01*
X127000000Y-95988190D01*
X126000000Y-96464380D02*
X126000000Y-95797714D01*
X126000000Y-95464380D02*
X126047619Y-95512000D01*
X126000000Y-95559619D01*
X125952380Y-95512000D01*
X126000000Y-95464380D01*
X126000000Y-95559619D01*
X125095238Y-96416761D02*
X125190476Y-96464380D01*
X125380952Y-96464380D01*
X125476190Y-96416761D01*
X125523809Y-96369142D01*
X125571428Y-96273904D01*
X125571428Y-95988190D01*
X125523809Y-95892952D01*
X125476190Y-95845333D01*
X125380952Y-95797714D01*
X125190476Y-95797714D01*
X125095238Y-95845333D01*
X124523809Y-96464380D02*
X124619047Y-96416761D01*
X124666666Y-96369142D01*
X124714285Y-96273904D01*
X124714285Y-95988190D01*
X124666666Y-95892952D01*
X124619047Y-95845333D01*
X124523809Y-95797714D01*
X124380952Y-95797714D01*
X124285714Y-95845333D01*
X124238095Y-95892952D01*
X124190476Y-95988190D01*
X124190476Y-96273904D01*
X124238095Y-96369142D01*
X124285714Y-96416761D01*
X124380952Y-96464380D01*
X124523809Y-96464380D01*
X163591714Y-107386380D02*
X163591714Y-106386380D01*
X163353619Y-106386380D01*
X163210761Y-106434000D01*
X163115523Y-106529238D01*
X163067904Y-106624476D01*
X163020285Y-106814952D01*
X163020285Y-106957809D01*
X163067904Y-107148285D01*
X163115523Y-107243523D01*
X163210761Y-107338761D01*
X163353619Y-107386380D01*
X163591714Y-107386380D01*
X162591714Y-107386380D02*
X162591714Y-106386380D01*
X162020285Y-107386380D01*
X162020285Y-106386380D01*
X161544095Y-107386380D02*
X161544095Y-106386380D01*
X161163142Y-106386380D01*
X161067904Y-106434000D01*
X161020285Y-106481619D01*
X160972666Y-106576857D01*
X160972666Y-106719714D01*
X161020285Y-106814952D01*
X161067904Y-106862571D01*
X161163142Y-106910190D01*
X161544095Y-106910190D01*
X138437904Y-103830380D02*
X138437904Y-102830380D01*
X138199809Y-102830380D01*
X138056952Y-102878000D01*
X137961714Y-102973238D01*
X137914095Y-103068476D01*
X137866476Y-103258952D01*
X137866476Y-103401809D01*
X137914095Y-103592285D01*
X137961714Y-103687523D01*
X138056952Y-103782761D01*
X138199809Y-103830380D01*
X138437904Y-103830380D01*
D12*
X178758666Y-55161904D02*
X178492000Y-55961904D01*
X178225333Y-55161904D01*
X177692000Y-55542857D02*
X177577714Y-55580952D01*
X177539619Y-55619047D01*
X177501523Y-55695238D01*
X177501523Y-55809523D01*
X177539619Y-55885714D01*
X177577714Y-55923809D01*
X177653904Y-55961904D01*
X177958666Y-55961904D01*
X177958666Y-55161904D01*
X177692000Y-55161904D01*
X177615809Y-55200000D01*
X177577714Y-55238095D01*
X177539619Y-55314285D01*
X177539619Y-55390476D01*
X177577714Y-55466666D01*
X177615809Y-55504761D01*
X177692000Y-55542857D01*
X177958666Y-55542857D01*
X177158666Y-55161904D02*
X177158666Y-55809523D01*
X177120571Y-55885714D01*
X177082476Y-55923809D01*
X177006285Y-55961904D01*
X176853904Y-55961904D01*
X176777714Y-55923809D01*
X176739619Y-55885714D01*
X176701523Y-55809523D01*
X176701523Y-55161904D01*
X176358666Y-55923809D02*
X176244380Y-55961904D01*
X176053904Y-55961904D01*
X175977714Y-55923809D01*
X175939619Y-55885714D01*
X175901523Y-55809523D01*
X175901523Y-55733333D01*
X175939619Y-55657142D01*
X175977714Y-55619047D01*
X176053904Y-55580952D01*
X176206285Y-55542857D01*
X176282476Y-55504761D01*
X176320571Y-55466666D01*
X176358666Y-55390476D01*
X176358666Y-55314285D01*
X176320571Y-55238095D01*
X176282476Y-55200000D01*
X176206285Y-55161904D01*
X176015809Y-55161904D01*
X175901523Y-55200000D01*
D10*
X129292571Y-28138380D02*
X129292571Y-27138380D01*
X128911619Y-27138380D01*
X128816380Y-27186000D01*
X128768761Y-27233619D01*
X128721142Y-27328857D01*
X128721142Y-27471714D01*
X128768761Y-27566952D01*
X128816380Y-27614571D01*
X128911619Y-27662190D01*
X129292571Y-27662190D01*
X127864000Y-28138380D02*
X127864000Y-27614571D01*
X127911619Y-27519333D01*
X128006857Y-27471714D01*
X128197333Y-27471714D01*
X128292571Y-27519333D01*
X127864000Y-28090761D02*
X127959238Y-28138380D01*
X128197333Y-28138380D01*
X128292571Y-28090761D01*
X128340190Y-27995523D01*
X128340190Y-27900285D01*
X128292571Y-27805047D01*
X128197333Y-27757428D01*
X127959238Y-27757428D01*
X127864000Y-27709809D01*
X127435428Y-28090761D02*
X127340190Y-28138380D01*
X127149714Y-28138380D01*
X127054476Y-28090761D01*
X127006857Y-27995523D01*
X127006857Y-27947904D01*
X127054476Y-27852666D01*
X127149714Y-27805047D01*
X127292571Y-27805047D01*
X127387809Y-27757428D01*
X127435428Y-27662190D01*
X127435428Y-27614571D01*
X127387809Y-27519333D01*
X127292571Y-27471714D01*
X127149714Y-27471714D01*
X127054476Y-27519333D01*
X126625904Y-28090761D02*
X126530666Y-28138380D01*
X126340190Y-28138380D01*
X126244952Y-28090761D01*
X126197333Y-27995523D01*
X126197333Y-27947904D01*
X126244952Y-27852666D01*
X126340190Y-27805047D01*
X126483047Y-27805047D01*
X126578285Y-27757428D01*
X126625904Y-27662190D01*
X126625904Y-27614571D01*
X126578285Y-27519333D01*
X126483047Y-27471714D01*
X126340190Y-27471714D01*
X126244952Y-27519333D01*
X125768761Y-27757428D02*
X125006857Y-27757428D01*
X124673523Y-27471714D02*
X124292571Y-27471714D01*
X124530666Y-27138380D02*
X124530666Y-27995523D01*
X124483047Y-28090761D01*
X124387809Y-28138380D01*
X124292571Y-28138380D01*
X123959238Y-28138380D02*
X123959238Y-27138380D01*
X123530666Y-28138380D02*
X123530666Y-27614571D01*
X123578285Y-27519333D01*
X123673523Y-27471714D01*
X123816380Y-27471714D01*
X123911619Y-27519333D01*
X123959238Y-27566952D01*
X123054476Y-28138380D02*
X123054476Y-27471714D01*
X123054476Y-27662190D02*
X123006857Y-27566952D01*
X122959238Y-27519333D01*
X122864000Y-27471714D01*
X122768761Y-27471714D01*
X122292571Y-28138380D02*
X122387809Y-28090761D01*
X122435428Y-28043142D01*
X122483047Y-27947904D01*
X122483047Y-27662190D01*
X122435428Y-27566952D01*
X122387809Y-27519333D01*
X122292571Y-27471714D01*
X122149714Y-27471714D01*
X122054476Y-27519333D01*
X122006857Y-27566952D01*
X121959238Y-27662190D01*
X121959238Y-27947904D01*
X122006857Y-28043142D01*
X122054476Y-28090761D01*
X122149714Y-28138380D01*
X122292571Y-28138380D01*
X121102095Y-27471714D02*
X121102095Y-28138380D01*
X121530666Y-27471714D02*
X121530666Y-27995523D01*
X121483047Y-28090761D01*
X121387809Y-28138380D01*
X121244952Y-28138380D01*
X121149714Y-28090761D01*
X121102095Y-28043142D01*
X120197333Y-27471714D02*
X120197333Y-28281238D01*
X120244952Y-28376476D01*
X120292571Y-28424095D01*
X120387809Y-28471714D01*
X120530666Y-28471714D01*
X120625904Y-28424095D01*
X120197333Y-28090761D02*
X120292571Y-28138380D01*
X120483047Y-28138380D01*
X120578285Y-28090761D01*
X120625904Y-28043142D01*
X120673523Y-27947904D01*
X120673523Y-27662190D01*
X120625904Y-27566952D01*
X120578285Y-27519333D01*
X120483047Y-27471714D01*
X120292571Y-27471714D01*
X120197333Y-27519333D01*
X119721142Y-28138380D02*
X119721142Y-27138380D01*
X119292571Y-28138380D02*
X119292571Y-27614571D01*
X119340190Y-27519333D01*
X119435428Y-27471714D01*
X119578285Y-27471714D01*
X119673523Y-27519333D01*
X119721142Y-27566952D01*
X118197333Y-27471714D02*
X117816380Y-27471714D01*
X118054476Y-27138380D02*
X118054476Y-27995523D01*
X118006857Y-28090761D01*
X117911619Y-28138380D01*
X117816380Y-28138380D01*
X117340190Y-28138380D02*
X117435428Y-28090761D01*
X117483047Y-28043142D01*
X117530666Y-27947904D01*
X117530666Y-27662190D01*
X117483047Y-27566952D01*
X117435428Y-27519333D01*
X117340190Y-27471714D01*
X117197333Y-27471714D01*
X117102095Y-27519333D01*
X117054476Y-27566952D01*
X117006857Y-27662190D01*
X117006857Y-27947904D01*
X117054476Y-28043142D01*
X117102095Y-28090761D01*
X117197333Y-28138380D01*
X117340190Y-28138380D01*
X115673523Y-28138380D02*
X115768761Y-28090761D01*
X115816380Y-28043142D01*
X115864000Y-27947904D01*
X115864000Y-27662190D01*
X115816380Y-27566952D01*
X115768761Y-27519333D01*
X115673523Y-27471714D01*
X115530666Y-27471714D01*
X115435428Y-27519333D01*
X115387809Y-27566952D01*
X115340190Y-27662190D01*
X115340190Y-27947904D01*
X115387809Y-28043142D01*
X115435428Y-28090761D01*
X115530666Y-28138380D01*
X115673523Y-28138380D01*
X115054476Y-27471714D02*
X114673523Y-27471714D01*
X114911619Y-27138380D02*
X114911619Y-27995523D01*
X114864000Y-28090761D01*
X114768761Y-28138380D01*
X114673523Y-28138380D01*
X114340190Y-28138380D02*
X114340190Y-27138380D01*
X113911619Y-28138380D02*
X113911619Y-27614571D01*
X113959238Y-27519333D01*
X114054476Y-27471714D01*
X114197333Y-27471714D01*
X114292571Y-27519333D01*
X114340190Y-27566952D01*
X113054476Y-28090761D02*
X113149714Y-28138380D01*
X113340190Y-28138380D01*
X113435428Y-28090761D01*
X113483047Y-27995523D01*
X113483047Y-27614571D01*
X113435428Y-27519333D01*
X113340190Y-27471714D01*
X113149714Y-27471714D01*
X113054476Y-27519333D01*
X113006857Y-27614571D01*
X113006857Y-27709809D01*
X113483047Y-27805047D01*
X112578285Y-28138380D02*
X112578285Y-27471714D01*
X112578285Y-27662190D02*
X112530666Y-27566952D01*
X112483047Y-27519333D01*
X112387809Y-27471714D01*
X112292571Y-27471714D01*
X111197333Y-28138380D02*
X111197333Y-27138380D01*
X111197333Y-27519333D02*
X111102095Y-27471714D01*
X110911619Y-27471714D01*
X110816380Y-27519333D01*
X110768761Y-27566952D01*
X110721142Y-27662190D01*
X110721142Y-27947904D01*
X110768761Y-28043142D01*
X110816380Y-28090761D01*
X110911619Y-28138380D01*
X111102095Y-28138380D01*
X111197333Y-28090761D01*
X110149714Y-28138380D02*
X110244952Y-28090761D01*
X110292571Y-28043142D01*
X110340190Y-27947904D01*
X110340190Y-27662190D01*
X110292571Y-27566952D01*
X110244952Y-27519333D01*
X110149714Y-27471714D01*
X110006857Y-27471714D01*
X109911619Y-27519333D01*
X109864000Y-27566952D01*
X109816380Y-27662190D01*
X109816380Y-27947904D01*
X109864000Y-28043142D01*
X109911619Y-28090761D01*
X110006857Y-28138380D01*
X110149714Y-28138380D01*
X108959238Y-28138380D02*
X108959238Y-27614571D01*
X109006857Y-27519333D01*
X109102095Y-27471714D01*
X109292571Y-27471714D01*
X109387809Y-27519333D01*
X108959238Y-28090761D02*
X109054476Y-28138380D01*
X109292571Y-28138380D01*
X109387809Y-28090761D01*
X109435428Y-27995523D01*
X109435428Y-27900285D01*
X109387809Y-27805047D01*
X109292571Y-27757428D01*
X109054476Y-27757428D01*
X108959238Y-27709809D01*
X108483047Y-28138380D02*
X108483047Y-27471714D01*
X108483047Y-27662190D02*
X108435428Y-27566952D01*
X108387809Y-27519333D01*
X108292571Y-27471714D01*
X108197333Y-27471714D01*
X107435428Y-28138380D02*
X107435428Y-27138380D01*
X107435428Y-28090761D02*
X107530666Y-28138380D01*
X107721142Y-28138380D01*
X107816380Y-28090761D01*
X107864000Y-28043142D01*
X107911619Y-27947904D01*
X107911619Y-27662190D01*
X107864000Y-27566952D01*
X107816380Y-27519333D01*
X107721142Y-27471714D01*
X107530666Y-27471714D01*
X107435428Y-27519333D01*
X164433285Y-103179619D02*
X164433285Y-104179619D01*
X164433285Y-103703428D02*
X165004714Y-103703428D01*
X165004714Y-103179619D02*
X165004714Y-104179619D01*
X131905333Y-98766380D02*
X131905333Y-99480666D01*
X131952952Y-99623523D01*
X132048190Y-99718761D01*
X132191047Y-99766380D01*
X132286285Y-99766380D01*
X130952952Y-98766380D02*
X131429142Y-98766380D01*
X131476761Y-99242571D01*
X131429142Y-99194952D01*
X131333904Y-99147333D01*
X131095809Y-99147333D01*
X131000571Y-99194952D01*
X130952952Y-99242571D01*
X130905333Y-99337809D01*
X130905333Y-99575904D01*
X130952952Y-99671142D01*
X131000571Y-99718761D01*
X131095809Y-99766380D01*
X131333904Y-99766380D01*
X131429142Y-99718761D01*
X131476761Y-99671142D01*
X130054571Y-112974380D02*
X130054571Y-111974380D01*
X129673619Y-111974380D01*
X129578380Y-112022000D01*
X129530761Y-112069619D01*
X129483142Y-112164857D01*
X129483142Y-112307714D01*
X129530761Y-112402952D01*
X129578380Y-112450571D01*
X129673619Y-112498190D01*
X130054571Y-112498190D01*
X128626000Y-112974380D02*
X128626000Y-112450571D01*
X128673619Y-112355333D01*
X128768857Y-112307714D01*
X128959333Y-112307714D01*
X129054571Y-112355333D01*
X128626000Y-112926761D02*
X128721238Y-112974380D01*
X128959333Y-112974380D01*
X129054571Y-112926761D01*
X129102190Y-112831523D01*
X129102190Y-112736285D01*
X129054571Y-112641047D01*
X128959333Y-112593428D01*
X128721238Y-112593428D01*
X128626000Y-112545809D01*
X128197428Y-112926761D02*
X128102190Y-112974380D01*
X127911714Y-112974380D01*
X127816476Y-112926761D01*
X127768857Y-112831523D01*
X127768857Y-112783904D01*
X127816476Y-112688666D01*
X127911714Y-112641047D01*
X128054571Y-112641047D01*
X128149809Y-112593428D01*
X128197428Y-112498190D01*
X128197428Y-112450571D01*
X128149809Y-112355333D01*
X128054571Y-112307714D01*
X127911714Y-112307714D01*
X127816476Y-112355333D01*
X127387904Y-112926761D02*
X127292666Y-112974380D01*
X127102190Y-112974380D01*
X127006952Y-112926761D01*
X126959333Y-112831523D01*
X126959333Y-112783904D01*
X127006952Y-112688666D01*
X127102190Y-112641047D01*
X127245047Y-112641047D01*
X127340285Y-112593428D01*
X127387904Y-112498190D01*
X127387904Y-112450571D01*
X127340285Y-112355333D01*
X127245047Y-112307714D01*
X127102190Y-112307714D01*
X127006952Y-112355333D01*
X126530761Y-112593428D02*
X125768857Y-112593428D01*
X125435523Y-112307714D02*
X125054571Y-112307714D01*
X125292666Y-111974380D02*
X125292666Y-112831523D01*
X125245047Y-112926761D01*
X125149809Y-112974380D01*
X125054571Y-112974380D01*
X124721238Y-112974380D02*
X124721238Y-111974380D01*
X124292666Y-112974380D02*
X124292666Y-112450571D01*
X124340285Y-112355333D01*
X124435523Y-112307714D01*
X124578380Y-112307714D01*
X124673619Y-112355333D01*
X124721238Y-112402952D01*
X123816476Y-112974380D02*
X123816476Y-112307714D01*
X123816476Y-112498190D02*
X123768857Y-112402952D01*
X123721238Y-112355333D01*
X123626000Y-112307714D01*
X123530761Y-112307714D01*
X123054571Y-112974380D02*
X123149809Y-112926761D01*
X123197428Y-112879142D01*
X123245047Y-112783904D01*
X123245047Y-112498190D01*
X123197428Y-112402952D01*
X123149809Y-112355333D01*
X123054571Y-112307714D01*
X122911714Y-112307714D01*
X122816476Y-112355333D01*
X122768857Y-112402952D01*
X122721238Y-112498190D01*
X122721238Y-112783904D01*
X122768857Y-112879142D01*
X122816476Y-112926761D01*
X122911714Y-112974380D01*
X123054571Y-112974380D01*
X121864095Y-112307714D02*
X121864095Y-112974380D01*
X122292666Y-112307714D02*
X122292666Y-112831523D01*
X122245047Y-112926761D01*
X122149809Y-112974380D01*
X122006952Y-112974380D01*
X121911714Y-112926761D01*
X121864095Y-112879142D01*
X120959333Y-112307714D02*
X120959333Y-113117238D01*
X121006952Y-113212476D01*
X121054571Y-113260095D01*
X121149809Y-113307714D01*
X121292666Y-113307714D01*
X121387904Y-113260095D01*
X120959333Y-112926761D02*
X121054571Y-112974380D01*
X121245047Y-112974380D01*
X121340285Y-112926761D01*
X121387904Y-112879142D01*
X121435523Y-112783904D01*
X121435523Y-112498190D01*
X121387904Y-112402952D01*
X121340285Y-112355333D01*
X121245047Y-112307714D01*
X121054571Y-112307714D01*
X120959333Y-112355333D01*
X120483142Y-112974380D02*
X120483142Y-111974380D01*
X120054571Y-112974380D02*
X120054571Y-112450571D01*
X120102190Y-112355333D01*
X120197428Y-112307714D01*
X120340285Y-112307714D01*
X120435523Y-112355333D01*
X120483142Y-112402952D01*
X118959333Y-112307714D02*
X118578380Y-112307714D01*
X118816476Y-111974380D02*
X118816476Y-112831523D01*
X118768857Y-112926761D01*
X118673619Y-112974380D01*
X118578380Y-112974380D01*
X118102190Y-112974380D02*
X118197428Y-112926761D01*
X118245047Y-112879142D01*
X118292666Y-112783904D01*
X118292666Y-112498190D01*
X118245047Y-112402952D01*
X118197428Y-112355333D01*
X118102190Y-112307714D01*
X117959333Y-112307714D01*
X117864095Y-112355333D01*
X117816476Y-112402952D01*
X117768857Y-112498190D01*
X117768857Y-112783904D01*
X117816476Y-112879142D01*
X117864095Y-112926761D01*
X117959333Y-112974380D01*
X118102190Y-112974380D01*
X116435523Y-112974380D02*
X116530761Y-112926761D01*
X116578380Y-112879142D01*
X116626000Y-112783904D01*
X116626000Y-112498190D01*
X116578380Y-112402952D01*
X116530761Y-112355333D01*
X116435523Y-112307714D01*
X116292666Y-112307714D01*
X116197428Y-112355333D01*
X116149809Y-112402952D01*
X116102190Y-112498190D01*
X116102190Y-112783904D01*
X116149809Y-112879142D01*
X116197428Y-112926761D01*
X116292666Y-112974380D01*
X116435523Y-112974380D01*
X115816476Y-112307714D02*
X115435523Y-112307714D01*
X115673619Y-111974380D02*
X115673619Y-112831523D01*
X115626000Y-112926761D01*
X115530761Y-112974380D01*
X115435523Y-112974380D01*
X115102190Y-112974380D02*
X115102190Y-111974380D01*
X114673619Y-112974380D02*
X114673619Y-112450571D01*
X114721238Y-112355333D01*
X114816476Y-112307714D01*
X114959333Y-112307714D01*
X115054571Y-112355333D01*
X115102190Y-112402952D01*
X113816476Y-112926761D02*
X113911714Y-112974380D01*
X114102190Y-112974380D01*
X114197428Y-112926761D01*
X114245047Y-112831523D01*
X114245047Y-112450571D01*
X114197428Y-112355333D01*
X114102190Y-112307714D01*
X113911714Y-112307714D01*
X113816476Y-112355333D01*
X113768857Y-112450571D01*
X113768857Y-112545809D01*
X114245047Y-112641047D01*
X113340285Y-112974380D02*
X113340285Y-112307714D01*
X113340285Y-112498190D02*
X113292666Y-112402952D01*
X113245047Y-112355333D01*
X113149809Y-112307714D01*
X113054571Y-112307714D01*
X111959333Y-112974380D02*
X111959333Y-111974380D01*
X111959333Y-112355333D02*
X111864095Y-112307714D01*
X111673619Y-112307714D01*
X111578380Y-112355333D01*
X111530761Y-112402952D01*
X111483142Y-112498190D01*
X111483142Y-112783904D01*
X111530761Y-112879142D01*
X111578380Y-112926761D01*
X111673619Y-112974380D01*
X111864095Y-112974380D01*
X111959333Y-112926761D01*
X110911714Y-112974380D02*
X111006952Y-112926761D01*
X111054571Y-112879142D01*
X111102190Y-112783904D01*
X111102190Y-112498190D01*
X111054571Y-112402952D01*
X111006952Y-112355333D01*
X110911714Y-112307714D01*
X110768857Y-112307714D01*
X110673619Y-112355333D01*
X110626000Y-112402952D01*
X110578380Y-112498190D01*
X110578380Y-112783904D01*
X110626000Y-112879142D01*
X110673619Y-112926761D01*
X110768857Y-112974380D01*
X110911714Y-112974380D01*
X109721238Y-112974380D02*
X109721238Y-112450571D01*
X109768857Y-112355333D01*
X109864095Y-112307714D01*
X110054571Y-112307714D01*
X110149809Y-112355333D01*
X109721238Y-112926761D02*
X109816476Y-112974380D01*
X110054571Y-112974380D01*
X110149809Y-112926761D01*
X110197428Y-112831523D01*
X110197428Y-112736285D01*
X110149809Y-112641047D01*
X110054571Y-112593428D01*
X109816476Y-112593428D01*
X109721238Y-112545809D01*
X109245047Y-112974380D02*
X109245047Y-112307714D01*
X109245047Y-112498190D02*
X109197428Y-112402952D01*
X109149809Y-112355333D01*
X109054571Y-112307714D01*
X108959333Y-112307714D01*
X108197428Y-112974380D02*
X108197428Y-111974380D01*
X108197428Y-112926761D02*
X108292666Y-112974380D01*
X108483142Y-112974380D01*
X108578380Y-112926761D01*
X108626000Y-112879142D01*
X108673619Y-112783904D01*
X108673619Y-112498190D01*
X108626000Y-112402952D01*
X108578380Y-112355333D01*
X108483142Y-112307714D01*
X108292666Y-112307714D01*
X108197428Y-112355333D01*
X150120571Y-82748380D02*
X150120571Y-81748380D01*
X149739619Y-81748380D01*
X149644380Y-81796000D01*
X149596761Y-81843619D01*
X149549142Y-81938857D01*
X149549142Y-82081714D01*
X149596761Y-82176952D01*
X149644380Y-82224571D01*
X149739619Y-82272190D01*
X150120571Y-82272190D01*
X148692000Y-82748380D02*
X148692000Y-82224571D01*
X148739619Y-82129333D01*
X148834857Y-82081714D01*
X149025333Y-82081714D01*
X149120571Y-82129333D01*
X148692000Y-82700761D02*
X148787238Y-82748380D01*
X149025333Y-82748380D01*
X149120571Y-82700761D01*
X149168190Y-82605523D01*
X149168190Y-82510285D01*
X149120571Y-82415047D01*
X149025333Y-82367428D01*
X148787238Y-82367428D01*
X148692000Y-82319809D01*
X148263428Y-82700761D02*
X148168190Y-82748380D01*
X147977714Y-82748380D01*
X147882476Y-82700761D01*
X147834857Y-82605523D01*
X147834857Y-82557904D01*
X147882476Y-82462666D01*
X147977714Y-82415047D01*
X148120571Y-82415047D01*
X148215809Y-82367428D01*
X148263428Y-82272190D01*
X148263428Y-82224571D01*
X148215809Y-82129333D01*
X148120571Y-82081714D01*
X147977714Y-82081714D01*
X147882476Y-82129333D01*
X147453904Y-82700761D02*
X147358666Y-82748380D01*
X147168190Y-82748380D01*
X147072952Y-82700761D01*
X147025333Y-82605523D01*
X147025333Y-82557904D01*
X147072952Y-82462666D01*
X147168190Y-82415047D01*
X147311047Y-82415047D01*
X147406285Y-82367428D01*
X147453904Y-82272190D01*
X147453904Y-82224571D01*
X147406285Y-82129333D01*
X147311047Y-82081714D01*
X147168190Y-82081714D01*
X147072952Y-82129333D01*
X146596761Y-82367428D02*
X145834857Y-82367428D01*
X145501523Y-82081714D02*
X145120571Y-82081714D01*
X145358666Y-81748380D02*
X145358666Y-82605523D01*
X145311047Y-82700761D01*
X145215809Y-82748380D01*
X145120571Y-82748380D01*
X144787238Y-82748380D02*
X144787238Y-81748380D01*
X144358666Y-82748380D02*
X144358666Y-82224571D01*
X144406285Y-82129333D01*
X144501523Y-82081714D01*
X144644380Y-82081714D01*
X144739619Y-82129333D01*
X144787238Y-82176952D01*
X143882476Y-82748380D02*
X143882476Y-82081714D01*
X143882476Y-82272190D02*
X143834857Y-82176952D01*
X143787238Y-82129333D01*
X143692000Y-82081714D01*
X143596761Y-82081714D01*
X143120571Y-82748380D02*
X143215809Y-82700761D01*
X143263428Y-82653142D01*
X143311047Y-82557904D01*
X143311047Y-82272190D01*
X143263428Y-82176952D01*
X143215809Y-82129333D01*
X143120571Y-82081714D01*
X142977714Y-82081714D01*
X142882476Y-82129333D01*
X142834857Y-82176952D01*
X142787238Y-82272190D01*
X142787238Y-82557904D01*
X142834857Y-82653142D01*
X142882476Y-82700761D01*
X142977714Y-82748380D01*
X143120571Y-82748380D01*
X141930095Y-82081714D02*
X141930095Y-82748380D01*
X142358666Y-82081714D02*
X142358666Y-82605523D01*
X142311047Y-82700761D01*
X142215809Y-82748380D01*
X142072952Y-82748380D01*
X141977714Y-82700761D01*
X141930095Y-82653142D01*
X141025333Y-82081714D02*
X141025333Y-82891238D01*
X141072952Y-82986476D01*
X141120571Y-83034095D01*
X141215809Y-83081714D01*
X141358666Y-83081714D01*
X141453904Y-83034095D01*
X141025333Y-82700761D02*
X141120571Y-82748380D01*
X141311047Y-82748380D01*
X141406285Y-82700761D01*
X141453904Y-82653142D01*
X141501523Y-82557904D01*
X141501523Y-82272190D01*
X141453904Y-82176952D01*
X141406285Y-82129333D01*
X141311047Y-82081714D01*
X141120571Y-82081714D01*
X141025333Y-82129333D01*
X140549142Y-82748380D02*
X140549142Y-81748380D01*
X140120571Y-82748380D02*
X140120571Y-82224571D01*
X140168190Y-82129333D01*
X140263428Y-82081714D01*
X140406285Y-82081714D01*
X140501523Y-82129333D01*
X140549142Y-82176952D01*
X139025333Y-82081714D02*
X138644380Y-82081714D01*
X138882476Y-81748380D02*
X138882476Y-82605523D01*
X138834857Y-82700761D01*
X138739619Y-82748380D01*
X138644380Y-82748380D01*
X138168190Y-82748380D02*
X138263428Y-82700761D01*
X138311047Y-82653142D01*
X138358666Y-82557904D01*
X138358666Y-82272190D01*
X138311047Y-82176952D01*
X138263428Y-82129333D01*
X138168190Y-82081714D01*
X138025333Y-82081714D01*
X137930095Y-82129333D01*
X137882476Y-82176952D01*
X137834857Y-82272190D01*
X137834857Y-82557904D01*
X137882476Y-82653142D01*
X137930095Y-82700761D01*
X138025333Y-82748380D01*
X138168190Y-82748380D01*
X136501523Y-82748380D02*
X136596761Y-82700761D01*
X136644380Y-82653142D01*
X136692000Y-82557904D01*
X136692000Y-82272190D01*
X136644380Y-82176952D01*
X136596761Y-82129333D01*
X136501523Y-82081714D01*
X136358666Y-82081714D01*
X136263428Y-82129333D01*
X136215809Y-82176952D01*
X136168190Y-82272190D01*
X136168190Y-82557904D01*
X136215809Y-82653142D01*
X136263428Y-82700761D01*
X136358666Y-82748380D01*
X136501523Y-82748380D01*
X135882476Y-82081714D02*
X135501523Y-82081714D01*
X135739619Y-81748380D02*
X135739619Y-82605523D01*
X135692000Y-82700761D01*
X135596761Y-82748380D01*
X135501523Y-82748380D01*
X135168190Y-82748380D02*
X135168190Y-81748380D01*
X134739619Y-82748380D02*
X134739619Y-82224571D01*
X134787238Y-82129333D01*
X134882476Y-82081714D01*
X135025333Y-82081714D01*
X135120571Y-82129333D01*
X135168190Y-82176952D01*
X133882476Y-82700761D02*
X133977714Y-82748380D01*
X134168190Y-82748380D01*
X134263428Y-82700761D01*
X134311047Y-82605523D01*
X134311047Y-82224571D01*
X134263428Y-82129333D01*
X134168190Y-82081714D01*
X133977714Y-82081714D01*
X133882476Y-82129333D01*
X133834857Y-82224571D01*
X133834857Y-82319809D01*
X134311047Y-82415047D01*
X133406285Y-82748380D02*
X133406285Y-82081714D01*
X133406285Y-82272190D02*
X133358666Y-82176952D01*
X133311047Y-82129333D01*
X133215809Y-82081714D01*
X133120571Y-82081714D01*
X132025333Y-82748380D02*
X132025333Y-81748380D01*
X132025333Y-82129333D02*
X131930095Y-82081714D01*
X131739619Y-82081714D01*
X131644380Y-82129333D01*
X131596761Y-82176952D01*
X131549142Y-82272190D01*
X131549142Y-82557904D01*
X131596761Y-82653142D01*
X131644380Y-82700761D01*
X131739619Y-82748380D01*
X131930095Y-82748380D01*
X132025333Y-82700761D01*
X130977714Y-82748380D02*
X131072952Y-82700761D01*
X131120571Y-82653142D01*
X131168190Y-82557904D01*
X131168190Y-82272190D01*
X131120571Y-82176952D01*
X131072952Y-82129333D01*
X130977714Y-82081714D01*
X130834857Y-82081714D01*
X130739619Y-82129333D01*
X130692000Y-82176952D01*
X130644380Y-82272190D01*
X130644380Y-82557904D01*
X130692000Y-82653142D01*
X130739619Y-82700761D01*
X130834857Y-82748380D01*
X130977714Y-82748380D01*
X129787238Y-82748380D02*
X129787238Y-82224571D01*
X129834857Y-82129333D01*
X129930095Y-82081714D01*
X130120571Y-82081714D01*
X130215809Y-82129333D01*
X129787238Y-82700761D02*
X129882476Y-82748380D01*
X130120571Y-82748380D01*
X130215809Y-82700761D01*
X130263428Y-82605523D01*
X130263428Y-82510285D01*
X130215809Y-82415047D01*
X130120571Y-82367428D01*
X129882476Y-82367428D01*
X129787238Y-82319809D01*
X129311047Y-82748380D02*
X129311047Y-82081714D01*
X129311047Y-82272190D02*
X129263428Y-82176952D01*
X129215809Y-82129333D01*
X129120571Y-82081714D01*
X129025333Y-82081714D01*
X128263428Y-82748380D02*
X128263428Y-81748380D01*
X128263428Y-82700761D02*
X128358666Y-82748380D01*
X128549142Y-82748380D01*
X128644380Y-82700761D01*
X128692000Y-82653142D01*
X128739619Y-82557904D01*
X128739619Y-82272190D01*
X128692000Y-82176952D01*
X128644380Y-82129333D01*
X128549142Y-82081714D01*
X128358666Y-82081714D01*
X128263428Y-82129333D01*
X105122380Y-77936666D02*
X105836666Y-77936666D01*
X105979523Y-77889047D01*
X106074761Y-77793809D01*
X106122380Y-77650952D01*
X106122380Y-77555714D01*
X106122380Y-78936666D02*
X106122380Y-78365238D01*
X106122380Y-78650952D02*
X105122380Y-78650952D01*
X105265238Y-78555714D01*
X105360476Y-78460476D01*
X105408095Y-78365238D01*
X25471333Y-55840380D02*
X25471333Y-56554666D01*
X25518952Y-56697523D01*
X25614190Y-56792761D01*
X25757047Y-56840380D01*
X25852285Y-56840380D01*
X24995142Y-56840380D02*
X24995142Y-55840380D01*
X24614190Y-55840380D01*
X24518952Y-55888000D01*
X24471333Y-55935619D01*
X24423714Y-56030857D01*
X24423714Y-56173714D01*
X24471333Y-56268952D01*
X24518952Y-56316571D01*
X24614190Y-56364190D01*
X24995142Y-56364190D01*
X23852285Y-56268952D02*
X23947523Y-56221333D01*
X23995142Y-56173714D01*
X24042761Y-56078476D01*
X24042761Y-56030857D01*
X23995142Y-55935619D01*
X23947523Y-55888000D01*
X23852285Y-55840380D01*
X23661809Y-55840380D01*
X23566571Y-55888000D01*
X23518952Y-55935619D01*
X23471333Y-56030857D01*
X23471333Y-56078476D01*
X23518952Y-56173714D01*
X23566571Y-56221333D01*
X23661809Y-56268952D01*
X23852285Y-56268952D01*
X23947523Y-56316571D01*
X23995142Y-56364190D01*
X24042761Y-56459428D01*
X24042761Y-56649904D01*
X23995142Y-56745142D01*
X23947523Y-56792761D01*
X23852285Y-56840380D01*
X23661809Y-56840380D01*
X23566571Y-56792761D01*
X23518952Y-56745142D01*
X23471333Y-56649904D01*
X23471333Y-56459428D01*
X23518952Y-56364190D01*
X23566571Y-56316571D01*
X23661809Y-56268952D01*
X104682380Y-61396666D02*
X105396666Y-61396666D01*
X105539523Y-61349047D01*
X105634761Y-61253809D01*
X105682380Y-61110952D01*
X105682380Y-61015714D01*
X104777619Y-61825238D02*
X104730000Y-61872857D01*
X104682380Y-61968095D01*
X104682380Y-62206190D01*
X104730000Y-62301428D01*
X104777619Y-62349047D01*
X104872857Y-62396666D01*
X104968095Y-62396666D01*
X105110952Y-62349047D01*
X105682380Y-61777619D01*
X105682380Y-62396666D01*
X109122380Y-115936666D02*
X109836666Y-115936666D01*
X109979523Y-115889047D01*
X110074761Y-115793809D01*
X110122380Y-115650952D01*
X110122380Y-115555714D01*
X109455714Y-116841428D02*
X110122380Y-116841428D01*
X109074761Y-116603333D02*
X109789047Y-116365238D01*
X109789047Y-116984285D01*
X127052380Y-23356666D02*
X127766666Y-23356666D01*
X127909523Y-23309047D01*
X128004761Y-23213809D01*
X128052380Y-23070952D01*
X128052380Y-22975714D01*
X127052380Y-23737619D02*
X127052380Y-24356666D01*
X127433333Y-24023333D01*
X127433333Y-24166190D01*
X127480952Y-24261428D01*
X127528571Y-24309047D01*
X127623809Y-24356666D01*
X127861904Y-24356666D01*
X127957142Y-24309047D01*
X128004761Y-24261428D01*
X128052380Y-24166190D01*
X128052380Y-23880476D01*
X128004761Y-23785238D01*
X127957142Y-23737619D01*
D13*
X66739998Y-80264000D02*
G75*
G03*
X66739998Y-80264000I-700000J0D01*
G01*
X87926665Y-80264000D02*
G75*
G03*
X87926665Y-80264000I-700000J0D01*
G01*
X77333331Y-80264000D02*
G75*
G03*
X77333331Y-80264000I-700000J0D01*
G01*
X106670000Y-78270000D02*
X106670000Y-80870000D01*
X109270000Y-75670000D02*
X109270000Y-78270000D01*
X106670000Y-75670000D02*
X106670000Y-77000000D01*
X109270000Y-78270000D02*
X106670000Y-78270000D01*
X106670000Y-80870000D02*
X170290000Y-80870000D01*
X170290000Y-75670000D02*
X170290000Y-80870000D01*
X108000000Y-75670000D02*
X106670000Y-75670000D01*
X109270000Y-75670000D02*
X170290000Y-75670000D01*
X23660000Y-57810000D02*
X23660000Y-59210000D01*
X25660000Y-59210000D02*
X25660000Y-57810000D01*
X24360000Y-59910000D02*
X24960000Y-59910000D01*
X24960000Y-57110000D02*
X24360000Y-57110000D01*
X24960000Y-59910000D02*
G75*
G03*
X25660000Y-59210000I1J699999D01*
G01*
X23660000Y-59210000D02*
G75*
G03*
X24360000Y-59910000I699999J-1D01*
G01*
X24360000Y-57110000D02*
G75*
G03*
X23660000Y-57810000I0J-700000D01*
G01*
X25660000Y-57810000D02*
G75*
G03*
X24960000Y-57110000I-700000J0D01*
G01*
X106670000Y-64330000D02*
X108000000Y-64330000D01*
X106670000Y-61730000D02*
X109270000Y-61730000D01*
X106670000Y-63000000D02*
X106670000Y-64330000D01*
X106670000Y-59130000D02*
X170290000Y-59130000D01*
X109270000Y-61730000D02*
X109270000Y-64330000D01*
X106670000Y-59130000D02*
X106670000Y-61730000D01*
X170290000Y-59130000D02*
X170290000Y-64330000D01*
X109270000Y-64330000D02*
X170290000Y-64330000D01*
G36*
X146236917Y-100856107D02*
G01*
X145946254Y-100931014D01*
X145737601Y-100973059D01*
X145586065Y-101154606D01*
X145563687Y-101364713D01*
X145475766Y-101780662D01*
X145452320Y-101878792D01*
X145486189Y-102128229D01*
X145791236Y-102200957D01*
X146214563Y-102218787D01*
X145320197Y-102505213D01*
X145767380Y-102518776D01*
X146290443Y-102485712D01*
X146918222Y-102364000D01*
X147468578Y-102188000D01*
X147801574Y-101993824D01*
X147835276Y-101955968D01*
X147866808Y-101839279D01*
X147600831Y-101873736D01*
X147369792Y-101911659D01*
X147211007Y-101825269D01*
X147336393Y-101527600D01*
X147500205Y-101417335D01*
X147797060Y-101559182D01*
X148014128Y-101815647D01*
X147984451Y-102214709D01*
X147906968Y-102518288D01*
X147886633Y-102853902D01*
X147886124Y-102943390D01*
X147719230Y-103077493D01*
X147617263Y-103112694D01*
X147299190Y-103342238D01*
X146907758Y-103714909D01*
X146716117Y-103903809D01*
X146340942Y-104181140D01*
X146098788Y-104223891D01*
X145997416Y-104179655D01*
X146018609Y-104301968D01*
X146055742Y-104395513D01*
X145956810Y-104508479D01*
X145767646Y-104432919D01*
X145787713Y-104217412D01*
X146010956Y-103942890D01*
X146393437Y-103691561D01*
X146505869Y-103634175D01*
X146871868Y-103376065D01*
X147019493Y-103146549D01*
X147067169Y-103013518D01*
X147332521Y-102886048D01*
X147419731Y-102881245D01*
X147517660Y-102840774D01*
X147287803Y-102731171D01*
X147057893Y-102676775D01*
X146870432Y-102743743D01*
X146828427Y-102803426D01*
X146565820Y-102898620D01*
X146286593Y-102951793D01*
X145860158Y-103108518D01*
X145795665Y-103138877D01*
X145550341Y-103315117D01*
X145628149Y-103463525D01*
X145666727Y-103495771D01*
X145582282Y-103579466D01*
X145186042Y-103611374D01*
X144975307Y-103601988D01*
X144589318Y-103476263D01*
X144519046Y-103230540D01*
X144783578Y-102898620D01*
X144844262Y-102834146D01*
X145000726Y-102400114D01*
X145051887Y-101643743D01*
X145053095Y-101450726D01*
X145101896Y-100875758D01*
X145206884Y-100686694D01*
X145441274Y-100686694D01*
X145588507Y-100752141D01*
X145683202Y-100739232D01*
X145707756Y-100632892D01*
X145681539Y-100611485D01*
X145469258Y-100632892D01*
X145441274Y-100686694D01*
X145206884Y-100686694D01*
X145278243Y-100558190D01*
X145658400Y-100422808D01*
X146318630Y-100394395D01*
X147019493Y-100394395D01*
X146987251Y-101333479D01*
X146955010Y-102272564D01*
X146888014Y-101422916D01*
X146861972Y-101168126D01*
X146748855Y-100716525D01*
X146562509Y-100573268D01*
X146448172Y-100591832D01*
X146411245Y-100632892D01*
X146304000Y-100752141D01*
X146236917Y-100856107D01*
G37*
G36*
X146329797Y-101690917D02*
G01*
X146482873Y-101825380D01*
X146371849Y-101943023D01*
X146035690Y-102004254D01*
X145741583Y-101959844D01*
X145588507Y-101825380D01*
X145699532Y-101707738D01*
X146035690Y-101646507D01*
X146329797Y-101690917D01*
G37*
G36*
X156277083Y-97771893D02*
G01*
X156567746Y-97696986D01*
X156776399Y-97654941D01*
X156927935Y-97473394D01*
X156950313Y-97263287D01*
X157038234Y-96847338D01*
X157061680Y-96749208D01*
X157027811Y-96499771D01*
X156722764Y-96427043D01*
X156299437Y-96409213D01*
X157193803Y-96122787D01*
X156746620Y-96109224D01*
X156223557Y-96142288D01*
X155595778Y-96264000D01*
X155045422Y-96440000D01*
X154712426Y-96634176D01*
X154678724Y-96672032D01*
X154647192Y-96788721D01*
X154913169Y-96754264D01*
X155144208Y-96716341D01*
X155302993Y-96802731D01*
X155177607Y-97100400D01*
X155013795Y-97210665D01*
X154716940Y-97068818D01*
X154499872Y-96812353D01*
X154529549Y-96413291D01*
X154607032Y-96109712D01*
X154627367Y-95774098D01*
X154627876Y-95684610D01*
X154794770Y-95550507D01*
X154896737Y-95515306D01*
X155214810Y-95285762D01*
X155606242Y-94913091D01*
X155797883Y-94724191D01*
X156173058Y-94446860D01*
X156415212Y-94404109D01*
X156516584Y-94448345D01*
X156495391Y-94326032D01*
X156458258Y-94232487D01*
X156557190Y-94119521D01*
X156746354Y-94195081D01*
X156726287Y-94410588D01*
X156503044Y-94685110D01*
X156120563Y-94936439D01*
X156008131Y-94993825D01*
X155642132Y-95251935D01*
X155494507Y-95481451D01*
X155446831Y-95614482D01*
X155181479Y-95741952D01*
X155094269Y-95746755D01*
X154996340Y-95787226D01*
X155226197Y-95896829D01*
X155456107Y-95951225D01*
X155643568Y-95884257D01*
X155685573Y-95824574D01*
X155948180Y-95729380D01*
X156227407Y-95676207D01*
X156653842Y-95519482D01*
X156718335Y-95489123D01*
X156963659Y-95312883D01*
X156885851Y-95164475D01*
X156847273Y-95132229D01*
X156931718Y-95048534D01*
X157327958Y-95016626D01*
X157538693Y-95026012D01*
X157924682Y-95151737D01*
X157994954Y-95397460D01*
X157730422Y-95729380D01*
X157669738Y-95793854D01*
X157513274Y-96227886D01*
X157462113Y-96984257D01*
X157460905Y-97177274D01*
X157412104Y-97752242D01*
X157235757Y-98069810D01*
X156855600Y-98205192D01*
X156195370Y-98233605D01*
X155494507Y-98233605D01*
X155526749Y-97294521D01*
X155558990Y-96355436D01*
X155625986Y-97205084D01*
X155652028Y-97459874D01*
X155765145Y-97911475D01*
X155951491Y-98054732D01*
X156065828Y-98036168D01*
X156102755Y-97995108D01*
X156806244Y-97995108D01*
X156832461Y-98016515D01*
X157044742Y-97995108D01*
X157072726Y-97941306D01*
X156925493Y-97875859D01*
X156830798Y-97888768D01*
X156806244Y-97995108D01*
X156102755Y-97995108D01*
X156210000Y-97875859D01*
X156277083Y-97771893D01*
G37*
G36*
X156772417Y-96668156D02*
G01*
X156925493Y-96802620D01*
X156814468Y-96920262D01*
X156478310Y-96981493D01*
X156184203Y-96937083D01*
X156031127Y-96802620D01*
X156142151Y-96684977D01*
X156478310Y-96623746D01*
X156772417Y-96668156D01*
G37*
X110670000Y-118870000D02*
X126030000Y-118870000D01*
X113270000Y-116270000D02*
X110670000Y-116270000D01*
X113270000Y-113670000D02*
X126030000Y-113670000D01*
X126030000Y-113670000D02*
X126030000Y-118870000D01*
X110670000Y-113670000D02*
X110670000Y-115000000D01*
X112000000Y-113670000D02*
X110670000Y-113670000D01*
X110670000Y-116270000D02*
X110670000Y-118870000D01*
X113270000Y-113670000D02*
X113270000Y-116270000D01*
X173160000Y-56760000D02*
X172860000Y-56460000D01*
X172860000Y-57060000D02*
X172860000Y-56460000D01*
X174660000Y-53510000D02*
X174060000Y-53510000D01*
X175360000Y-56960000D02*
X175360000Y-54160000D01*
X174060000Y-57610000D02*
X174660000Y-57610000D01*
X173360000Y-54160000D02*
X173360000Y-56960000D01*
X173160000Y-56760000D02*
X172860000Y-57060000D01*
X174660000Y-57610000D02*
G75*
G03*
X175360000Y-56910000I1J699999D01*
G01*
X173360000Y-56910000D02*
G75*
G03*
X174060000Y-57610000I699999J-1D01*
G01*
X174060000Y-53510000D02*
G75*
G03*
X173360000Y-54210000I0J-700000D01*
G01*
X175360000Y-54210000D02*
G75*
G03*
X174660000Y-53510000I-700000J0D01*
G01*
G36*
X127948917Y-100856107D02*
G01*
X127658254Y-100931014D01*
X127449601Y-100973059D01*
X127298065Y-101154606D01*
X127275687Y-101364713D01*
X127187766Y-101780662D01*
X127164320Y-101878792D01*
X127198189Y-102128229D01*
X127503236Y-102200957D01*
X127926563Y-102218787D01*
X127032197Y-102505213D01*
X127479380Y-102518776D01*
X128002443Y-102485712D01*
X128630222Y-102364000D01*
X129180578Y-102188000D01*
X129513574Y-101993824D01*
X129547276Y-101955968D01*
X129578808Y-101839279D01*
X129312831Y-101873736D01*
X129081792Y-101911659D01*
X128923007Y-101825269D01*
X129048393Y-101527600D01*
X129212205Y-101417335D01*
X129509060Y-101559182D01*
X129726128Y-101815647D01*
X129696451Y-102214709D01*
X129618968Y-102518288D01*
X129598633Y-102853902D01*
X129598124Y-102943390D01*
X129431230Y-103077493D01*
X129329263Y-103112694D01*
X129011190Y-103342238D01*
X128619758Y-103714909D01*
X128428117Y-103903809D01*
X128052942Y-104181140D01*
X127810788Y-104223891D01*
X127709416Y-104179655D01*
X127730609Y-104301968D01*
X127767742Y-104395513D01*
X127668810Y-104508479D01*
X127479646Y-104432919D01*
X127499713Y-104217412D01*
X127722956Y-103942890D01*
X128105437Y-103691561D01*
X128217869Y-103634175D01*
X128583868Y-103376065D01*
X128731493Y-103146549D01*
X128779169Y-103013518D01*
X129044521Y-102886048D01*
X129131731Y-102881245D01*
X129229660Y-102840774D01*
X128999803Y-102731171D01*
X128769893Y-102676775D01*
X128582432Y-102743743D01*
X128540427Y-102803426D01*
X128277820Y-102898620D01*
X127998593Y-102951793D01*
X127572158Y-103108518D01*
X127507665Y-103138877D01*
X127262341Y-103315117D01*
X127340149Y-103463525D01*
X127378727Y-103495771D01*
X127294282Y-103579466D01*
X126898042Y-103611374D01*
X126687307Y-103601988D01*
X126301318Y-103476263D01*
X126231046Y-103230540D01*
X126495578Y-102898620D01*
X126556262Y-102834146D01*
X126712726Y-102400114D01*
X126763887Y-101643743D01*
X126765095Y-101450726D01*
X126813896Y-100875758D01*
X126918884Y-100686694D01*
X127153274Y-100686694D01*
X127300507Y-100752141D01*
X127395202Y-100739232D01*
X127419756Y-100632892D01*
X127393539Y-100611485D01*
X127181258Y-100632892D01*
X127153274Y-100686694D01*
X126918884Y-100686694D01*
X126990243Y-100558190D01*
X127370400Y-100422808D01*
X128030630Y-100394395D01*
X128731493Y-100394395D01*
X128699251Y-101333479D01*
X128667010Y-102272564D01*
X128600014Y-101422916D01*
X128573972Y-101168126D01*
X128460855Y-100716525D01*
X128274509Y-100573268D01*
X128160172Y-100591832D01*
X128123245Y-100632892D01*
X128016000Y-100752141D01*
X127948917Y-100856107D01*
G37*
G36*
X128041797Y-101690917D02*
G01*
X128194873Y-101825380D01*
X128083849Y-101943023D01*
X127747690Y-102004254D01*
X127453583Y-101959844D01*
X127300507Y-101825380D01*
X127411532Y-101707738D01*
X127747690Y-101646507D01*
X128041797Y-101690917D01*
G37*
X126160000Y-26290000D02*
X110800000Y-26290000D01*
X126160000Y-23690000D02*
X123560000Y-23690000D01*
X126160000Y-21090000D02*
X124830000Y-21090000D01*
X123560000Y-23690000D02*
X123560000Y-21090000D01*
X126160000Y-22420000D02*
X126160000Y-21090000D01*
X126160000Y-26290000D02*
X126160000Y-23690000D01*
X123560000Y-21090000D02*
X110800000Y-21090000D01*
X110800000Y-26290000D02*
X110800000Y-21090000D01*
G36*
X26623764Y-103156612D02*
G01*
X26712450Y-103158413D01*
X26799419Y-103161212D01*
X26879782Y-103164930D01*
X26948646Y-103169490D01*
X27001120Y-103174813D01*
X27191921Y-103206241D01*
X27465623Y-103273153D01*
X27729787Y-103363971D01*
X27983047Y-103477897D01*
X28224041Y-103614133D01*
X28451402Y-103771882D01*
X28663767Y-103950344D01*
X28859770Y-104148723D01*
X29038048Y-104366218D01*
X29116872Y-104477017D01*
X29264354Y-104717637D01*
X29388081Y-104969714D01*
X29487795Y-105232614D01*
X29563241Y-105505706D01*
X29614162Y-105788354D01*
X29617963Y-105820472D01*
X29625334Y-105914014D01*
X29630066Y-106023854D01*
X29632161Y-106142887D01*
X29631618Y-106264009D01*
X29628437Y-106380118D01*
X29622618Y-106484107D01*
X29614162Y-106568875D01*
X29600945Y-106657709D01*
X29542808Y-106934383D01*
X29460958Y-107201070D01*
X29356385Y-107456573D01*
X29230079Y-107699698D01*
X29083030Y-107929247D01*
X28916227Y-108144026D01*
X28730660Y-108342838D01*
X28527320Y-108524487D01*
X28307195Y-108687777D01*
X28071277Y-108831513D01*
X27820553Y-108954498D01*
X27556016Y-109055536D01*
X27474934Y-109080667D01*
X27347338Y-109115083D01*
X27214872Y-109145706D01*
X27087271Y-109170341D01*
X26974271Y-109186789D01*
X26973762Y-109186847D01*
X26928417Y-109190531D01*
X26865909Y-109193663D01*
X26791083Y-109196197D01*
X26708783Y-109198083D01*
X26623854Y-109199274D01*
X26541142Y-109199723D01*
X26465490Y-109199382D01*
X26401744Y-109198203D01*
X26354749Y-109196138D01*
X26329349Y-109193141D01*
X26299583Y-109185164D01*
X26299583Y-108268186D01*
X26574089Y-108268504D01*
X26629233Y-108268352D01*
X26754742Y-108265680D01*
X26862894Y-108259016D01*
X26960130Y-108247463D01*
X27052893Y-108230129D01*
X27147623Y-108206118D01*
X27250763Y-108174535D01*
X27434252Y-108105336D01*
X27642307Y-108001931D01*
X27835845Y-107877719D01*
X28013579Y-107734168D01*
X28174219Y-107572748D01*
X28316478Y-107394928D01*
X28439069Y-107202177D01*
X28540701Y-106995965D01*
X28620089Y-106777759D01*
X28675943Y-106549031D01*
X28677181Y-106542233D01*
X28689149Y-106452571D01*
X28697116Y-106345837D01*
X28701074Y-106229234D01*
X28701015Y-106109965D01*
X28696934Y-105995234D01*
X28688823Y-105892244D01*
X28676674Y-105808197D01*
X28656515Y-105715629D01*
X28588456Y-105486193D01*
X28497234Y-105268394D01*
X28383527Y-105063520D01*
X28248015Y-104872861D01*
X28091378Y-104697705D01*
X28032099Y-104640408D01*
X27879702Y-104511326D01*
X27717062Y-104399977D01*
X27536511Y-104300879D01*
X27460803Y-104264911D01*
X27278168Y-104190839D01*
X27097580Y-104137075D01*
X26913141Y-104102382D01*
X26718953Y-104085523D01*
X26509119Y-104085259D01*
X26299583Y-104092530D01*
X26299583Y-103172065D01*
X26329349Y-103164088D01*
X26349697Y-103160945D01*
X26396330Y-103157975D01*
X26460813Y-103156315D01*
X26538255Y-103155887D01*
X26623764Y-103156612D01*
G37*
D14*
X26623764Y-103156612D02*
X26712450Y-103158413D01*
X26799419Y-103161212D01*
X26879782Y-103164930D01*
X26948646Y-103169490D01*
X27001120Y-103174813D01*
X27191921Y-103206241D01*
X27465623Y-103273153D01*
X27729787Y-103363971D01*
X27983047Y-103477897D01*
X28224041Y-103614133D01*
X28451402Y-103771882D01*
X28663767Y-103950344D01*
X28859770Y-104148723D01*
X29038048Y-104366218D01*
X29116872Y-104477017D01*
X29264354Y-104717637D01*
X29388081Y-104969714D01*
X29487795Y-105232614D01*
X29563241Y-105505706D01*
X29614162Y-105788354D01*
X29617963Y-105820472D01*
X29625334Y-105914014D01*
X29630066Y-106023854D01*
X29632161Y-106142887D01*
X29631618Y-106264009D01*
X29628437Y-106380118D01*
X29622618Y-106484107D01*
X29614162Y-106568875D01*
X29600945Y-106657709D01*
X29542808Y-106934383D01*
X29460958Y-107201070D01*
X29356385Y-107456573D01*
X29230079Y-107699698D01*
X29083030Y-107929247D01*
X28916227Y-108144026D01*
X28730660Y-108342838D01*
X28527320Y-108524487D01*
X28307195Y-108687777D01*
X28071277Y-108831513D01*
X27820553Y-108954498D01*
X27556016Y-109055536D01*
X27474934Y-109080667D01*
X27347338Y-109115083D01*
X27214872Y-109145706D01*
X27087271Y-109170341D01*
X26974271Y-109186789D01*
X26973762Y-109186847D01*
X26928417Y-109190531D01*
X26865909Y-109193663D01*
X26791083Y-109196197D01*
X26708783Y-109198083D01*
X26623854Y-109199274D01*
X26541142Y-109199723D01*
X26465490Y-109199382D01*
X26401744Y-109198203D01*
X26354749Y-109196138D01*
X26329349Y-109193141D01*
X26299583Y-109185164D01*
X26299583Y-108268186D01*
X26574089Y-108268504D01*
X26629233Y-108268352D01*
X26754742Y-108265680D01*
X26862894Y-108259016D01*
X26960130Y-108247463D01*
X27052893Y-108230129D01*
X27147623Y-108206118D01*
X27250763Y-108174535D01*
X27434252Y-108105336D01*
X27642307Y-108001931D01*
X27835845Y-107877719D01*
X28013579Y-107734168D01*
X28174219Y-107572748D01*
X28316478Y-107394928D01*
X28439069Y-107202177D01*
X28540701Y-106995965D01*
X28620089Y-106777759D01*
X28675943Y-106549031D01*
X28677181Y-106542233D01*
X28689149Y-106452571D01*
X28697116Y-106345837D01*
X28701074Y-106229234D01*
X28701015Y-106109965D01*
X28696934Y-105995234D01*
X28688823Y-105892244D01*
X28676674Y-105808197D01*
X28656515Y-105715629D01*
X28588456Y-105486193D01*
X28497234Y-105268394D01*
X28383527Y-105063520D01*
X28248015Y-104872861D01*
X28091378Y-104697705D01*
X28032099Y-104640408D01*
X27879702Y-104511326D01*
X27717062Y-104399977D01*
X27536511Y-104300879D01*
X27460803Y-104264911D01*
X27278168Y-104190839D01*
X27097580Y-104137075D01*
X26913141Y-104102382D01*
X26718953Y-104085523D01*
X26509119Y-104085259D01*
X26299583Y-104092530D01*
X26299583Y-103172065D01*
X26329349Y-103164088D01*
X26349697Y-103160945D01*
X26396330Y-103157975D01*
X26460813Y-103156315D01*
X26538255Y-103155887D01*
X26623764Y-103156612D01*
G36*
X21447787Y-103156008D02*
G01*
X21559313Y-103156968D01*
X21692615Y-103161356D01*
X21812480Y-103169981D01*
X21926300Y-103183592D01*
X22041470Y-103202938D01*
X22165381Y-103228769D01*
X22265691Y-103253267D01*
X22522400Y-103334322D01*
X22772491Y-103439517D01*
X23013515Y-103567325D01*
X23243027Y-103716214D01*
X23458578Y-103884656D01*
X23657720Y-104071121D01*
X23838007Y-104274079D01*
X23841427Y-104278325D01*
X24002924Y-104500177D01*
X24143879Y-104737877D01*
X24263609Y-104989809D01*
X24361431Y-105254354D01*
X24436661Y-105529894D01*
X24488617Y-105814812D01*
X24494662Y-105872752D01*
X24499834Y-105959298D01*
X24502981Y-106059925D01*
X24504105Y-106168009D01*
X24503208Y-106276923D01*
X24500292Y-106380046D01*
X24495359Y-106470751D01*
X24488410Y-106542416D01*
X24485865Y-106561155D01*
X24434588Y-106839092D01*
X24359289Y-107110532D01*
X24260975Y-107373089D01*
X24140652Y-107624378D01*
X23999327Y-107862012D01*
X23838007Y-108083607D01*
X23801460Y-108127859D01*
X23667650Y-108273982D01*
X23516573Y-108418431D01*
X23354786Y-108555545D01*
X23188844Y-108679667D01*
X23025303Y-108785135D01*
X22969501Y-108817068D01*
X22756315Y-108924465D01*
X22530575Y-109017284D01*
X22298614Y-109093376D01*
X22066763Y-109150594D01*
X21841354Y-109186789D01*
X21834289Y-109187526D01*
X21785821Y-109190981D01*
X21717842Y-109194126D01*
X21636109Y-109196766D01*
X21546376Y-109198709D01*
X21454401Y-109199762D01*
X21166667Y-109201479D01*
X21166667Y-108268776D01*
X21454401Y-108268799D01*
X21525141Y-108268664D01*
X21610832Y-108267769D01*
X21679119Y-108265702D01*
X21735391Y-108262078D01*
X21785042Y-108256513D01*
X21833462Y-108248622D01*
X21886044Y-108238021D01*
X21891745Y-108236794D01*
X22125262Y-108173206D01*
X22346309Y-108086624D01*
X22553891Y-107977719D01*
X22747010Y-107847163D01*
X22924667Y-107695630D01*
X23085866Y-107523791D01*
X23229608Y-107332319D01*
X23239064Y-107317967D01*
X23295440Y-107223569D01*
X23351718Y-107115892D01*
X23404815Y-107001878D01*
X23451648Y-106888469D01*
X23489136Y-106782611D01*
X23514196Y-106691244D01*
X23523561Y-106648250D01*
X21761979Y-106648250D01*
X21761979Y-105708979D01*
X23523561Y-105708979D01*
X23514196Y-105665984D01*
X23508102Y-105640388D01*
X23480625Y-105549488D01*
X23442318Y-105445702D01*
X23396164Y-105335866D01*
X23345145Y-105226820D01*
X23292244Y-105125402D01*
X23240446Y-105038449D01*
X23215807Y-105001379D01*
X23075547Y-104818430D01*
X22915951Y-104652418D01*
X22738780Y-104504544D01*
X22545799Y-104376009D01*
X22338768Y-104268012D01*
X22119451Y-104181754D01*
X21889611Y-104118436D01*
X21855711Y-104111308D01*
X21809012Y-104103008D01*
X21761524Y-104096996D01*
X21708112Y-104092914D01*
X21643645Y-104090408D01*
X21562990Y-104089120D01*
X21461015Y-104088695D01*
X21166665Y-104088406D01*
X21166667Y-103155750D01*
X21447787Y-103156008D01*
G37*
X21447787Y-103156008D02*
X21559313Y-103156968D01*
X21692615Y-103161356D01*
X21812480Y-103169981D01*
X21926300Y-103183592D01*
X22041470Y-103202938D01*
X22165381Y-103228769D01*
X22265691Y-103253267D01*
X22522400Y-103334322D01*
X22772491Y-103439517D01*
X23013515Y-103567325D01*
X23243027Y-103716214D01*
X23458578Y-103884656D01*
X23657720Y-104071121D01*
X23838007Y-104274079D01*
X23841427Y-104278325D01*
X24002924Y-104500177D01*
X24143879Y-104737877D01*
X24263609Y-104989809D01*
X24361431Y-105254354D01*
X24436661Y-105529894D01*
X24488617Y-105814812D01*
X24494662Y-105872752D01*
X24499834Y-105959298D01*
X24502981Y-106059925D01*
X24504105Y-106168009D01*
X24503208Y-106276923D01*
X24500292Y-106380046D01*
X24495359Y-106470751D01*
X24488410Y-106542416D01*
X24485865Y-106561155D01*
X24434588Y-106839092D01*
X24359289Y-107110532D01*
X24260975Y-107373089D01*
X24140652Y-107624378D01*
X23999327Y-107862012D01*
X23838007Y-108083607D01*
X23801460Y-108127859D01*
X23667650Y-108273982D01*
X23516573Y-108418431D01*
X23354786Y-108555545D01*
X23188844Y-108679667D01*
X23025303Y-108785135D01*
X22969501Y-108817068D01*
X22756315Y-108924465D01*
X22530575Y-109017284D01*
X22298614Y-109093376D01*
X22066763Y-109150594D01*
X21841354Y-109186789D01*
X21834289Y-109187526D01*
X21785821Y-109190981D01*
X21717842Y-109194126D01*
X21636109Y-109196766D01*
X21546376Y-109198709D01*
X21454401Y-109199762D01*
X21166667Y-109201479D01*
X21166667Y-108268776D01*
X21454401Y-108268799D01*
X21525141Y-108268664D01*
X21610832Y-108267769D01*
X21679119Y-108265702D01*
X21735391Y-108262078D01*
X21785042Y-108256513D01*
X21833462Y-108248622D01*
X21886044Y-108238021D01*
X21891745Y-108236794D01*
X22125262Y-108173206D01*
X22346309Y-108086624D01*
X22553891Y-107977719D01*
X22747010Y-107847163D01*
X22924667Y-107695630D01*
X23085866Y-107523791D01*
X23229608Y-107332319D01*
X23239064Y-107317967D01*
X23295440Y-107223569D01*
X23351718Y-107115892D01*
X23404815Y-107001878D01*
X23451648Y-106888469D01*
X23489136Y-106782611D01*
X23514196Y-106691244D01*
X23523561Y-106648250D01*
X21761979Y-106648250D01*
X21761979Y-105708979D01*
X23523561Y-105708979D01*
X23514196Y-105665984D01*
X23508102Y-105640388D01*
X23480625Y-105549488D01*
X23442318Y-105445702D01*
X23396164Y-105335866D01*
X23345145Y-105226820D01*
X23292244Y-105125402D01*
X23240446Y-105038449D01*
X23215807Y-105001379D01*
X23075547Y-104818430D01*
X22915951Y-104652418D01*
X22738780Y-104504544D01*
X22545799Y-104376009D01*
X22338768Y-104268012D01*
X22119451Y-104181754D01*
X21889611Y-104118436D01*
X21855711Y-104111308D01*
X21809012Y-104103008D01*
X21761524Y-104096996D01*
X21708112Y-104092914D01*
X21643645Y-104090408D01*
X21562990Y-104089120D01*
X21461015Y-104088695D01*
X21166665Y-104088406D01*
X21166667Y-103155750D01*
X21447787Y-103156008D01*
%LPC*%
D15*
X66039998Y-80264000D03*
X87226665Y-80264000D03*
X76633331Y-80264000D03*
D16*
X28000000Y-82500000D03*
X21500000Y-82500000D03*
X28000000Y-87000000D03*
X21500000Y-87000000D03*
D17*
X104389000Y-93487000D03*
D18*
X106929000Y-93487000D03*
X104389000Y-96027000D03*
X106929000Y-96027000D03*
X104389000Y-98567000D03*
X106929000Y-98567000D03*
X104389000Y-101107000D03*
X106929000Y-101107000D03*
X104389000Y-103647000D03*
X106929000Y-103647000D03*
X104389000Y-106187000D03*
X106929000Y-106187000D03*
X104389000Y-108727000D03*
X106929000Y-108727000D03*
X104389000Y-111267000D03*
X106929000Y-111267000D03*
D19*
X106000000Y-116500000D03*
X176500000Y-116500000D03*
D20*
X96520000Y-45000000D03*
D21*
X96520000Y-47540000D03*
X93980000Y-45000000D03*
X93980000Y-47540000D03*
X91440000Y-45000000D03*
X91440000Y-47540000D03*
X88900000Y-45000000D03*
X88900000Y-47540000D03*
X86360000Y-45000000D03*
X86360000Y-47540000D03*
X83820000Y-45000000D03*
X83820000Y-47540000D03*
X81280000Y-45000000D03*
X81280000Y-47540000D03*
X78740000Y-45000000D03*
X78740000Y-47540000D03*
X76200000Y-45000000D03*
X76200000Y-47540000D03*
X73660000Y-45000000D03*
X73660000Y-47540000D03*
X71120000Y-45000000D03*
X71120000Y-47540000D03*
X68580000Y-45000000D03*
X68580000Y-47540000D03*
X66040000Y-45000000D03*
X66040000Y-47540000D03*
X63500000Y-45000000D03*
X63500000Y-47540000D03*
X60960000Y-45000000D03*
X60960000Y-47540000D03*
X58420000Y-45000000D03*
X58420000Y-47540000D03*
X55880000Y-45000000D03*
X55880000Y-47540000D03*
X53340000Y-45000000D03*
X53340000Y-47540000D03*
X50800000Y-45000000D03*
X50800000Y-47540000D03*
X48260000Y-45000000D03*
X48260000Y-47540000D03*
X45720000Y-45000000D03*
X45720000Y-47540000D03*
X43180000Y-45000000D03*
X43180000Y-47540000D03*
X40640000Y-45000000D03*
X40640000Y-47540000D03*
X38100000Y-45000000D03*
X38100000Y-47540000D03*
X35560000Y-45000000D03*
X35560000Y-47540000D03*
D22*
X108000000Y-71270000D03*
D21*
X108000000Y-68730000D03*
X110540000Y-71270000D03*
X110540000Y-68730000D03*
X113080000Y-71270000D03*
X113080000Y-68730000D03*
X115620000Y-71270000D03*
X115620000Y-68730000D03*
X118160000Y-71270000D03*
X118160000Y-68730000D03*
X120700000Y-71270000D03*
X120700000Y-68730000D03*
X123240000Y-71270000D03*
X123240000Y-68730000D03*
X125780000Y-71270000D03*
X125780000Y-68730000D03*
X128320000Y-71270000D03*
X128320000Y-68730000D03*
X130860000Y-71270000D03*
X130860000Y-68730000D03*
X133400000Y-71270000D03*
X133400000Y-68730000D03*
X135940000Y-71270000D03*
X135940000Y-68730000D03*
X138480000Y-71270000D03*
X138480000Y-68730000D03*
X141020000Y-71270000D03*
X141020000Y-68730000D03*
X143560000Y-71270000D03*
X143560000Y-68730000D03*
X146100000Y-71270000D03*
X146100000Y-68730000D03*
X148640000Y-71270000D03*
X148640000Y-68730000D03*
X151180000Y-71270000D03*
X151180000Y-68730000D03*
X153720000Y-71270000D03*
X153720000Y-68730000D03*
X156260000Y-71270000D03*
X156260000Y-68730000D03*
X158800000Y-71270000D03*
X158800000Y-68730000D03*
X161340000Y-71270000D03*
X161340000Y-68730000D03*
X163880000Y-71270000D03*
X163880000Y-68730000D03*
X166420000Y-71270000D03*
X166420000Y-68730000D03*
X168960000Y-71270000D03*
X168960000Y-68730000D03*
D20*
X96520000Y-25000000D03*
D21*
X96520000Y-27540000D03*
X93980000Y-25000000D03*
X93980000Y-27540000D03*
X91440000Y-25000000D03*
X91440000Y-27540000D03*
X88900000Y-25000000D03*
X88900000Y-27540000D03*
X86360000Y-25000000D03*
X86360000Y-27540000D03*
X83820000Y-25000000D03*
X83820000Y-27540000D03*
X81280000Y-25000000D03*
X81280000Y-27540000D03*
X78740000Y-25000000D03*
X78740000Y-27540000D03*
X76200000Y-25000000D03*
X76200000Y-27540000D03*
X73660000Y-25000000D03*
X73660000Y-27540000D03*
X71120000Y-25000000D03*
X71120000Y-27540000D03*
X68580000Y-25000000D03*
X68580000Y-27540000D03*
X66040000Y-25000000D03*
X66040000Y-27540000D03*
X63500000Y-25000000D03*
X63500000Y-27540000D03*
X60960000Y-25000000D03*
X60960000Y-27540000D03*
X58420000Y-25000000D03*
X58420000Y-27540000D03*
X55880000Y-25000000D03*
X55880000Y-27540000D03*
X53340000Y-25000000D03*
X53340000Y-27540000D03*
X50800000Y-25000000D03*
X50800000Y-27540000D03*
X48260000Y-25000000D03*
X48260000Y-27540000D03*
X45720000Y-25000000D03*
X45720000Y-27540000D03*
X43180000Y-25000000D03*
X43180000Y-27540000D03*
X40640000Y-25000000D03*
X40640000Y-27540000D03*
X38100000Y-25000000D03*
X38100000Y-27540000D03*
X35560000Y-25000000D03*
X35560000Y-27540000D03*
D19*
X23500000Y-23500000D03*
D18*
X177800000Y-30480000D03*
X175260000Y-30480000D03*
D17*
X172720000Y-30480000D03*
D18*
X170180000Y-30480000D03*
X167640000Y-30480000D03*
X165100000Y-30480000D03*
X162560000Y-30480000D03*
D17*
X160020000Y-30480000D03*
D18*
X157480000Y-30480000D03*
X154940000Y-30480000D03*
X152400000Y-30480000D03*
X149860000Y-30480000D03*
D17*
X147320000Y-30480000D03*
D18*
X144780000Y-30480000D03*
X142240000Y-30480000D03*
X139700000Y-30480000D03*
X137160000Y-30480000D03*
D17*
X134620000Y-30480000D03*
D18*
X132080000Y-30480000D03*
X129540000Y-30480000D03*
X129540000Y-48260000D03*
X132080000Y-48260000D03*
D17*
X134620000Y-48260000D03*
D18*
X137160000Y-48260000D03*
X139700000Y-48260000D03*
X142240000Y-48260000D03*
X144780000Y-48260000D03*
D17*
X147320000Y-48260000D03*
D18*
X149860000Y-48260000D03*
X152400000Y-48260000D03*
X154940000Y-48260000D03*
X157480000Y-48260000D03*
D17*
X160020000Y-48260000D03*
D18*
X162560000Y-48260000D03*
X165100000Y-48260000D03*
X167640000Y-48260000D03*
X170180000Y-48260000D03*
D17*
X172720000Y-48260000D03*
D18*
X175260000Y-48260000D03*
X177800000Y-48260000D03*
D23*
X177670000Y-36645000D03*
X177670000Y-42095000D03*
D24*
X174640000Y-36945000D03*
X174640000Y-41795000D03*
D18*
X129770000Y-36830000D03*
D17*
X129770000Y-39370000D03*
D18*
X129770000Y-41910000D03*
D19*
X106000000Y-23500000D03*
X23500000Y-116500000D03*
D16*
X28000000Y-53000000D03*
X21500000Y-53000000D03*
X28000000Y-57500000D03*
X21500000Y-57500000D03*
X28000000Y-61000000D03*
X21500000Y-61000000D03*
X28000000Y-65500000D03*
X21500000Y-65500000D03*
D19*
X176500000Y-78275000D03*
D20*
X96520000Y-112460000D03*
D21*
X96520000Y-115000000D03*
X93980000Y-112460000D03*
X93980000Y-115000000D03*
X91440000Y-112460000D03*
X91440000Y-115000000D03*
X88900000Y-112460000D03*
X88900000Y-115000000D03*
X86360000Y-112460000D03*
X86360000Y-115000000D03*
X83820000Y-112460000D03*
X83820000Y-115000000D03*
X81280000Y-112460000D03*
X81280000Y-115000000D03*
X78740000Y-112460000D03*
X78740000Y-115000000D03*
X76200000Y-112460000D03*
X76200000Y-115000000D03*
X73660000Y-112460000D03*
X73660000Y-115000000D03*
X71120000Y-112460000D03*
X71120000Y-115000000D03*
X68580000Y-112460000D03*
X68580000Y-115000000D03*
X66040000Y-112460000D03*
X66040000Y-115000000D03*
X63500000Y-112460000D03*
X63500000Y-115000000D03*
X60960000Y-112460000D03*
X60960000Y-115000000D03*
X58420000Y-112460000D03*
X58420000Y-115000000D03*
X55880000Y-112460000D03*
X55880000Y-115000000D03*
X53340000Y-112460000D03*
X53340000Y-115000000D03*
X50800000Y-112460000D03*
X50800000Y-115000000D03*
X48260000Y-112460000D03*
X48260000Y-115000000D03*
X45720000Y-112460000D03*
X45720000Y-115000000D03*
X43180000Y-112460000D03*
X43180000Y-115000000D03*
X40640000Y-112460000D03*
X40640000Y-115000000D03*
X38100000Y-112460000D03*
X38100000Y-115000000D03*
X35560000Y-112460000D03*
X35560000Y-115000000D03*
D16*
X28000000Y-74500000D03*
X21500000Y-74500000D03*
X28000000Y-79000000D03*
X21500000Y-79000000D03*
D17*
X22425000Y-31952500D03*
D18*
X24965000Y-31952500D03*
X22425000Y-34492500D03*
X24965000Y-34492500D03*
X22425000Y-37032500D03*
X24965000Y-37032500D03*
X22425000Y-39572500D03*
X24965000Y-39572500D03*
D19*
X176500000Y-23500000D03*
D20*
X96520000Y-92460000D03*
D21*
X96520000Y-95000000D03*
X93980000Y-92460000D03*
X93980000Y-95000000D03*
X91440000Y-92460000D03*
X91440000Y-95000000D03*
X88900000Y-92460000D03*
X88900000Y-95000000D03*
X86360000Y-92460000D03*
X86360000Y-95000000D03*
X83820000Y-92460000D03*
X83820000Y-95000000D03*
X81280000Y-92460000D03*
X81280000Y-95000000D03*
X78740000Y-92460000D03*
X78740000Y-95000000D03*
X76200000Y-92460000D03*
X76200000Y-95000000D03*
X73660000Y-92460000D03*
X73660000Y-95000000D03*
X71120000Y-92460000D03*
X71120000Y-95000000D03*
X68580000Y-92460000D03*
X68580000Y-95000000D03*
X66040000Y-92460000D03*
X66040000Y-95000000D03*
X63500000Y-92460000D03*
X63500000Y-95000000D03*
X60960000Y-92460000D03*
X60960000Y-95000000D03*
X58420000Y-92460000D03*
X58420000Y-95000000D03*
X55880000Y-92460000D03*
X55880000Y-95000000D03*
X53340000Y-92460000D03*
X53340000Y-95000000D03*
X50800000Y-92460000D03*
X50800000Y-95000000D03*
X48260000Y-92460000D03*
X48260000Y-95000000D03*
X45720000Y-92460000D03*
X45720000Y-95000000D03*
X43180000Y-92460000D03*
X43180000Y-95000000D03*
X40640000Y-92460000D03*
X40640000Y-95000000D03*
X38100000Y-92460000D03*
X38100000Y-95000000D03*
X35560000Y-92460000D03*
X35560000Y-95000000D03*
D19*
X23500000Y-70000000D03*
X176500000Y-61725000D03*
D17*
X108000000Y-77000000D03*
D18*
X108000000Y-79540000D03*
X110540000Y-77000000D03*
X110540000Y-79540000D03*
X113080000Y-77000000D03*
X113080000Y-79540000D03*
X115620000Y-77000000D03*
X115620000Y-79540000D03*
X118160000Y-77000000D03*
X118160000Y-79540000D03*
X120700000Y-77000000D03*
X120700000Y-79540000D03*
X123240000Y-77000000D03*
X123240000Y-79540000D03*
X125780000Y-77000000D03*
X125780000Y-79540000D03*
X128320000Y-77000000D03*
X128320000Y-79540000D03*
X130860000Y-77000000D03*
X130860000Y-79540000D03*
X133400000Y-77000000D03*
X133400000Y-79540000D03*
X135940000Y-77000000D03*
X135940000Y-79540000D03*
X138480000Y-77000000D03*
X138480000Y-79540000D03*
X141020000Y-77000000D03*
X141020000Y-79540000D03*
X143560000Y-77000000D03*
X143560000Y-79540000D03*
X146100000Y-77000000D03*
X146100000Y-79540000D03*
X148640000Y-77000000D03*
X148640000Y-79540000D03*
X151180000Y-77000000D03*
X151180000Y-79540000D03*
X153720000Y-77000000D03*
X153720000Y-79540000D03*
X156260000Y-77000000D03*
X156260000Y-79540000D03*
X158800000Y-77000000D03*
X158800000Y-79540000D03*
X161340000Y-77000000D03*
X161340000Y-79540000D03*
X163880000Y-77000000D03*
X163880000Y-79540000D03*
X166420000Y-77000000D03*
X166420000Y-79540000D03*
X168960000Y-77000000D03*
X168960000Y-79540000D03*
D25*
X24660000Y-59160000D03*
D26*
X24660000Y-57860000D03*
D17*
X108000000Y-63000000D03*
D18*
X108000000Y-60460000D03*
X110540000Y-63000000D03*
X110540000Y-60460000D03*
X113080000Y-63000000D03*
X113080000Y-60460000D03*
X115620000Y-63000000D03*
X115620000Y-60460000D03*
X118160000Y-63000000D03*
X118160000Y-60460000D03*
X120700000Y-63000000D03*
X120700000Y-60460000D03*
X123240000Y-63000000D03*
X123240000Y-60460000D03*
X125780000Y-63000000D03*
X125780000Y-60460000D03*
X128320000Y-63000000D03*
X128320000Y-60460000D03*
X130860000Y-63000000D03*
X130860000Y-60460000D03*
X133400000Y-63000000D03*
X133400000Y-60460000D03*
X135940000Y-63000000D03*
X135940000Y-60460000D03*
X138480000Y-63000000D03*
X138480000Y-60460000D03*
X141020000Y-63000000D03*
X141020000Y-60460000D03*
X143560000Y-63000000D03*
X143560000Y-60460000D03*
X146100000Y-63000000D03*
X146100000Y-60460000D03*
X148640000Y-63000000D03*
X148640000Y-60460000D03*
X151180000Y-63000000D03*
X151180000Y-60460000D03*
X153720000Y-63000000D03*
X153720000Y-60460000D03*
X156260000Y-63000000D03*
X156260000Y-60460000D03*
X158800000Y-63000000D03*
X158800000Y-60460000D03*
X161340000Y-63000000D03*
X161340000Y-60460000D03*
X163880000Y-63000000D03*
X163880000Y-60460000D03*
X166420000Y-63000000D03*
X166420000Y-60460000D03*
X168960000Y-63000000D03*
X168960000Y-60460000D03*
D17*
X112000000Y-115000000D03*
D18*
X112000000Y-117540000D03*
X114540000Y-115000000D03*
X114540000Y-117540000D03*
X117080000Y-115000000D03*
X117080000Y-117540000D03*
X119620000Y-115000000D03*
X119620000Y-117540000D03*
X122160000Y-115000000D03*
X122160000Y-117540000D03*
X124700000Y-115000000D03*
X124700000Y-117540000D03*
D27*
X174360000Y-56860000D03*
D28*
X174360000Y-55560000D03*
D29*
X174360000Y-54260000D03*
D17*
X124830000Y-22420000D03*
D18*
X124830000Y-24960000D03*
X122290000Y-22420000D03*
X122290000Y-24960000D03*
X119750000Y-22420000D03*
X119750000Y-24960000D03*
X117210000Y-22420000D03*
X117210000Y-24960000D03*
X114670000Y-22420000D03*
X114670000Y-24960000D03*
X112130000Y-22420000D03*
X112130000Y-24960000D03*
M02*
