%TF.GenerationSoftware,KiCad,Pcbnew,8.0.2*%
%TF.CreationDate,2024-05-09T20:46:25-05:00*%
%TF.ProjectId,ch554_USB_Host_Test,63683535-345f-4555-9342-5f486f73745f,rev?*%
%TF.SameCoordinates,Original*%
%TF.FileFunction,Legend,Top*%
%TF.FilePolarity,Positive*%
%FSLAX46Y46*%
G04 Gerber Fmt 4.6, Leading zero omitted, Abs format (unit mm)*
G04 Created by KiCad (PCBNEW 8.0.2) date 2024-05-09 20:46:25*
%MOMM*%
%LPD*%
G01*
G04 APERTURE LIST*
%ADD10C,0.100000*%
%ADD11C,0.120000*%
%ADD12C,0.127000*%
%ADD13C,0.200000*%
%ADD14R,1.500000X1.600000*%
%ADD15C,1.600000*%
%ADD16C,3.000000*%
%ADD17R,3.500000X0.900000*%
%ADD18C,3.316000*%
%ADD19O,3.600000X1.800000*%
%ADD20C,2.700000*%
%ADD21O,1.700000X1.700000*%
%ADD22R,1.700000X1.700000*%
G04 APERTURE END LIST*
D10*
X100132455Y-54629133D02*
X100532455Y-54629133D01*
X100332455Y-55329133D02*
X100332455Y-54629133D01*
X100699122Y-54629133D02*
X101165788Y-55329133D01*
X101165788Y-54629133D02*
X100699122Y-55329133D01*
X101432455Y-55329133D02*
X101432455Y-54629133D01*
X101432455Y-54629133D02*
X101599122Y-54629133D01*
X101599122Y-54629133D02*
X101699122Y-54662466D01*
X101699122Y-54662466D02*
X101765789Y-54729133D01*
X101765789Y-54729133D02*
X101799122Y-54795800D01*
X101799122Y-54795800D02*
X101832455Y-54929133D01*
X101832455Y-54929133D02*
X101832455Y-55029133D01*
X101832455Y-55029133D02*
X101799122Y-55162466D01*
X101799122Y-55162466D02*
X101765789Y-55229133D01*
X101765789Y-55229133D02*
X101699122Y-55295800D01*
X101699122Y-55295800D02*
X101599122Y-55329133D01*
X101599122Y-55329133D02*
X101432455Y-55329133D01*
X100599122Y-49582466D02*
X100532455Y-49549133D01*
X100532455Y-49549133D02*
X100432455Y-49549133D01*
X100432455Y-49549133D02*
X100332455Y-49582466D01*
X100332455Y-49582466D02*
X100265789Y-49649133D01*
X100265789Y-49649133D02*
X100232455Y-49715800D01*
X100232455Y-49715800D02*
X100199122Y-49849133D01*
X100199122Y-49849133D02*
X100199122Y-49949133D01*
X100199122Y-49949133D02*
X100232455Y-50082466D01*
X100232455Y-50082466D02*
X100265789Y-50149133D01*
X100265789Y-50149133D02*
X100332455Y-50215800D01*
X100332455Y-50215800D02*
X100432455Y-50249133D01*
X100432455Y-50249133D02*
X100499122Y-50249133D01*
X100499122Y-50249133D02*
X100599122Y-50215800D01*
X100599122Y-50215800D02*
X100632455Y-50182466D01*
X100632455Y-50182466D02*
X100632455Y-49949133D01*
X100632455Y-49949133D02*
X100499122Y-49949133D01*
X100932455Y-50249133D02*
X100932455Y-49549133D01*
X100932455Y-49549133D02*
X101332455Y-50249133D01*
X101332455Y-50249133D02*
X101332455Y-49549133D01*
X101665788Y-50249133D02*
X101665788Y-49549133D01*
X101665788Y-49549133D02*
X101832455Y-49549133D01*
X101832455Y-49549133D02*
X101932455Y-49582466D01*
X101932455Y-49582466D02*
X101999122Y-49649133D01*
X101999122Y-49649133D02*
X102032455Y-49715800D01*
X102032455Y-49715800D02*
X102065788Y-49849133D01*
X102065788Y-49849133D02*
X102065788Y-49949133D01*
X102065788Y-49949133D02*
X102032455Y-50082466D01*
X102032455Y-50082466D02*
X101999122Y-50149133D01*
X101999122Y-50149133D02*
X101932455Y-50215800D01*
X101932455Y-50215800D02*
X101832455Y-50249133D01*
X101832455Y-50249133D02*
X101665788Y-50249133D01*
X100632455Y-52789133D02*
X100399122Y-52455800D01*
X100232455Y-52789133D02*
X100232455Y-52089133D01*
X100232455Y-52089133D02*
X100499122Y-52089133D01*
X100499122Y-52089133D02*
X100565789Y-52122466D01*
X100565789Y-52122466D02*
X100599122Y-52155800D01*
X100599122Y-52155800D02*
X100632455Y-52222466D01*
X100632455Y-52222466D02*
X100632455Y-52322466D01*
X100632455Y-52322466D02*
X100599122Y-52389133D01*
X100599122Y-52389133D02*
X100565789Y-52422466D01*
X100565789Y-52422466D02*
X100499122Y-52455800D01*
X100499122Y-52455800D02*
X100232455Y-52455800D01*
X100865789Y-52089133D02*
X101332455Y-52789133D01*
X101332455Y-52089133D02*
X100865789Y-52789133D01*
X101599122Y-52789133D02*
X101599122Y-52089133D01*
X101599122Y-52089133D02*
X101765789Y-52089133D01*
X101765789Y-52089133D02*
X101865789Y-52122466D01*
X101865789Y-52122466D02*
X101932456Y-52189133D01*
X101932456Y-52189133D02*
X101965789Y-52255800D01*
X101965789Y-52255800D02*
X101999122Y-52389133D01*
X101999122Y-52389133D02*
X101999122Y-52489133D01*
X101999122Y-52489133D02*
X101965789Y-52622466D01*
X101965789Y-52622466D02*
X101932456Y-52689133D01*
X101932456Y-52689133D02*
X101865789Y-52755800D01*
X101865789Y-52755800D02*
X101765789Y-52789133D01*
X101765789Y-52789133D02*
X101599122Y-52789133D01*
X100465789Y-57502466D02*
X100565789Y-57535800D01*
X100565789Y-57535800D02*
X100599122Y-57569133D01*
X100599122Y-57569133D02*
X100632455Y-57635800D01*
X100632455Y-57635800D02*
X100632455Y-57735800D01*
X100632455Y-57735800D02*
X100599122Y-57802466D01*
X100599122Y-57802466D02*
X100565789Y-57835800D01*
X100565789Y-57835800D02*
X100499122Y-57869133D01*
X100499122Y-57869133D02*
X100232455Y-57869133D01*
X100232455Y-57869133D02*
X100232455Y-57169133D01*
X100232455Y-57169133D02*
X100465789Y-57169133D01*
X100465789Y-57169133D02*
X100532455Y-57202466D01*
X100532455Y-57202466D02*
X100565789Y-57235800D01*
X100565789Y-57235800D02*
X100599122Y-57302466D01*
X100599122Y-57302466D02*
X100599122Y-57369133D01*
X100599122Y-57369133D02*
X100565789Y-57435800D01*
X100565789Y-57435800D02*
X100532455Y-57469133D01*
X100532455Y-57469133D02*
X100465789Y-57502466D01*
X100465789Y-57502466D02*
X100232455Y-57502466D01*
X101065789Y-57169133D02*
X101199122Y-57169133D01*
X101199122Y-57169133D02*
X101265789Y-57202466D01*
X101265789Y-57202466D02*
X101332455Y-57269133D01*
X101332455Y-57269133D02*
X101365789Y-57402466D01*
X101365789Y-57402466D02*
X101365789Y-57635800D01*
X101365789Y-57635800D02*
X101332455Y-57769133D01*
X101332455Y-57769133D02*
X101265789Y-57835800D01*
X101265789Y-57835800D02*
X101199122Y-57869133D01*
X101199122Y-57869133D02*
X101065789Y-57869133D01*
X101065789Y-57869133D02*
X100999122Y-57835800D01*
X100999122Y-57835800D02*
X100932455Y-57769133D01*
X100932455Y-57769133D02*
X100899122Y-57635800D01*
X100899122Y-57635800D02*
X100899122Y-57402466D01*
X100899122Y-57402466D02*
X100932455Y-57269133D01*
X100932455Y-57269133D02*
X100999122Y-57202466D01*
X100999122Y-57202466D02*
X101065789Y-57169133D01*
X101799122Y-57169133D02*
X101932455Y-57169133D01*
X101932455Y-57169133D02*
X101999122Y-57202466D01*
X101999122Y-57202466D02*
X102065788Y-57269133D01*
X102065788Y-57269133D02*
X102099122Y-57402466D01*
X102099122Y-57402466D02*
X102099122Y-57635800D01*
X102099122Y-57635800D02*
X102065788Y-57769133D01*
X102065788Y-57769133D02*
X101999122Y-57835800D01*
X101999122Y-57835800D02*
X101932455Y-57869133D01*
X101932455Y-57869133D02*
X101799122Y-57869133D01*
X101799122Y-57869133D02*
X101732455Y-57835800D01*
X101732455Y-57835800D02*
X101665788Y-57769133D01*
X101665788Y-57769133D02*
X101632455Y-57635800D01*
X101632455Y-57635800D02*
X101632455Y-57402466D01*
X101632455Y-57402466D02*
X101665788Y-57269133D01*
X101665788Y-57269133D02*
X101732455Y-57202466D01*
X101732455Y-57202466D02*
X101799122Y-57169133D01*
X102299121Y-57169133D02*
X102699121Y-57169133D01*
X102499121Y-57869133D02*
X102499121Y-57169133D01*
X100232455Y-60142466D02*
X100765789Y-60142466D01*
X100499122Y-60409133D02*
X100499122Y-59875800D01*
X101032456Y-59709133D02*
X101465789Y-59709133D01*
X101465789Y-59709133D02*
X101232456Y-59975800D01*
X101232456Y-59975800D02*
X101332456Y-59975800D01*
X101332456Y-59975800D02*
X101399122Y-60009133D01*
X101399122Y-60009133D02*
X101432456Y-60042466D01*
X101432456Y-60042466D02*
X101465789Y-60109133D01*
X101465789Y-60109133D02*
X101465789Y-60275800D01*
X101465789Y-60275800D02*
X101432456Y-60342466D01*
X101432456Y-60342466D02*
X101399122Y-60375800D01*
X101399122Y-60375800D02*
X101332456Y-60409133D01*
X101332456Y-60409133D02*
X101132456Y-60409133D01*
X101132456Y-60409133D02*
X101065789Y-60375800D01*
X101065789Y-60375800D02*
X101032456Y-60342466D01*
X101699123Y-59942466D02*
X101865789Y-60409133D01*
X101865789Y-60409133D02*
X102032456Y-59942466D01*
X90418633Y-55333333D02*
X90918633Y-55333333D01*
X90918633Y-55333333D02*
X91018633Y-55366666D01*
X91018633Y-55366666D02*
X91085300Y-55433333D01*
X91085300Y-55433333D02*
X91118633Y-55533333D01*
X91118633Y-55533333D02*
X91118633Y-55600000D01*
X90651966Y-54700000D02*
X91118633Y-54700000D01*
X90385300Y-54866667D02*
X90885300Y-55033333D01*
X90885300Y-55033333D02*
X90885300Y-54600000D01*
X113266666Y-51118633D02*
X113266666Y-51618633D01*
X113266666Y-51618633D02*
X113233333Y-51718633D01*
X113233333Y-51718633D02*
X113166666Y-51785300D01*
X113166666Y-51785300D02*
X113066666Y-51818633D01*
X113066666Y-51818633D02*
X113000000Y-51818633D01*
X113533333Y-51118633D02*
X113966666Y-51118633D01*
X113966666Y-51118633D02*
X113733333Y-51385300D01*
X113733333Y-51385300D02*
X113833333Y-51385300D01*
X113833333Y-51385300D02*
X113899999Y-51418633D01*
X113899999Y-51418633D02*
X113933333Y-51451966D01*
X113933333Y-51451966D02*
X113966666Y-51518633D01*
X113966666Y-51518633D02*
X113966666Y-51685300D01*
X113966666Y-51685300D02*
X113933333Y-51751966D01*
X113933333Y-51751966D02*
X113899999Y-51785300D01*
X113899999Y-51785300D02*
X113833333Y-51818633D01*
X113833333Y-51818633D02*
X113633333Y-51818633D01*
X113633333Y-51818633D02*
X113566666Y-51785300D01*
X113566666Y-51785300D02*
X113533333Y-51751966D01*
D11*
%TO.C,J4*%
X81920000Y-47690000D02*
X81400000Y-47690000D01*
X81400000Y-47690000D02*
X81400000Y-62310000D01*
X96880000Y-48340000D02*
X93550000Y-48340000D01*
X96880000Y-48340000D02*
X96880000Y-61660000D01*
X81920000Y-48340000D02*
X81920000Y-47690000D01*
X81920000Y-48340000D02*
X90030000Y-48340000D01*
X97100000Y-50600000D02*
X97100000Y-52400000D01*
X96880000Y-61660000D02*
X93550000Y-61660000D01*
X90030000Y-61660000D02*
X81920000Y-61660000D01*
X81920000Y-62310000D02*
X81920000Y-61660000D01*
X81400000Y-62310000D02*
X81920000Y-62310000D01*
D12*
%TO.C,J3*%
X107500000Y-48450000D02*
X107500000Y-49770000D01*
X107500000Y-48450000D02*
X110930000Y-48450000D01*
X107500000Y-56890000D02*
X107500000Y-53130000D01*
X107500000Y-61550000D02*
X107500000Y-60230000D01*
X107500000Y-61550000D02*
X110840000Y-61550000D01*
X115300000Y-48450000D02*
X115060000Y-48450000D01*
X115300000Y-48450000D02*
X115300000Y-61550000D01*
X115300000Y-61550000D02*
X115060000Y-61550000D01*
D13*
X104610000Y-52460000D02*
G75*
G02*
X104410000Y-52460000I-100000J0D01*
G01*
X104410000Y-52460000D02*
G75*
G02*
X104610000Y-52460000I100000J0D01*
G01*
%TD*%
%LPC*%
D14*
%TO.C,J4*%
X94500000Y-51500000D03*
D15*
X94500000Y-54000000D03*
X94500000Y-56000000D03*
X94500000Y-58500000D03*
D16*
X91790000Y-48430000D03*
X91790000Y-61570000D03*
%TD*%
D17*
%TO.C,J3*%
X107200000Y-52300000D03*
X107200000Y-57700000D03*
X107200000Y-50500000D03*
X107200000Y-59500000D03*
D18*
X112300000Y-55000000D03*
D19*
X113000000Y-48600000D03*
X113000000Y-61400000D03*
%TD*%
D20*
%TO.C,H3*%
X103000000Y-48000000D03*
%TD*%
%TO.C,H2*%
X103000000Y-62000000D03*
%TD*%
D21*
%TO.C,J2*%
X99000000Y-49915000D03*
X99000000Y-52455000D03*
X99000000Y-54995000D03*
X99000000Y-57535000D03*
D22*
X99000000Y-60075000D03*
%TD*%
%LPD*%
M02*
