%TF.GenerationSoftware,KiCad,Pcbnew,8.0.2*%
%TF.CreationDate,2024-05-09T20:46:25-05:00*%
%TF.ProjectId,ch554_USB_Host_Test,63683535-345f-4555-9342-5f486f73745f,rev?*%
%TF.SameCoordinates,Original*%
%TF.FileFunction,Legend,Bot*%
%TF.FilePolarity,Positive*%
%FSLAX46Y46*%
G04 Gerber Fmt 4.6, Leading zero omitted, Abs format (unit mm)*
G04 Created by KiCad (PCBNEW 8.0.2) date 2024-05-09 20:46:25*
%MOMM*%
%LPD*%
G01*
G04 APERTURE LIST*
G04 Aperture macros list*
%AMRoundRect*
0 Rectangle with rounded corners*
0 $1 Rounding radius*
0 $2 $3 $4 $5 $6 $7 $8 $9 X,Y pos of 4 corners*
0 Add a 4 corners polygon primitive as box body*
4,1,4,$2,$3,$4,$5,$6,$7,$8,$9,$2,$3,0*
0 Add four circle primitives for the rounded corners*
1,1,$1+$1,$2,$3*
1,1,$1+$1,$4,$5*
1,1,$1+$1,$6,$7*
1,1,$1+$1,$8,$9*
0 Add four rect primitives between the rounded corners*
20,1,$1+$1,$2,$3,$4,$5,0*
20,1,$1+$1,$4,$5,$6,$7,0*
20,1,$1+$1,$6,$7,$8,$9,0*
20,1,$1+$1,$8,$9,$2,$3,0*%
G04 Aperture macros list end*
%ADD10C,0.100000*%
%ADD11C,0.120000*%
%ADD12RoundRect,0.237500X0.237500X-0.250000X0.237500X0.250000X-0.237500X0.250000X-0.237500X-0.250000X0*%
%ADD13RoundRect,0.237500X-0.237500X0.250000X-0.237500X-0.250000X0.237500X-0.250000X0.237500X0.250000X0*%
%ADD14R,1.500000X1.600000*%
%ADD15C,1.600000*%
%ADD16C,3.000000*%
%ADD17C,3.316000*%
%ADD18O,3.600000X1.800000*%
%ADD19C,2.700000*%
%ADD20RoundRect,0.237500X-0.287500X-0.237500X0.287500X-0.237500X0.287500X0.237500X-0.287500X0.237500X0*%
%ADD21RoundRect,0.237500X0.237500X-0.300000X0.237500X0.300000X-0.237500X0.300000X-0.237500X-0.300000X0*%
%ADD22RoundRect,0.237500X-0.237500X0.300000X-0.237500X-0.300000X0.237500X-0.300000X0.237500X0.300000X0*%
%ADD23RoundRect,0.075000X0.075000X-0.150000X0.075000X0.150000X-0.075000X0.150000X-0.075000X-0.150000X0*%
%ADD24C,1.000000*%
%ADD25O,1.700000X1.700000*%
%ADD26R,1.700000X1.700000*%
%ADD27RoundRect,0.087500X0.087500X-0.725000X0.087500X0.725000X-0.087500X0.725000X-0.087500X-0.725000X0*%
G04 APERTURE END LIST*
D10*
X96967544Y-62939133D02*
X97200877Y-62605800D01*
X97367544Y-62939133D02*
X97367544Y-62239133D01*
X97367544Y-62239133D02*
X97100877Y-62239133D01*
X97100877Y-62239133D02*
X97034211Y-62272466D01*
X97034211Y-62272466D02*
X97000877Y-62305800D01*
X97000877Y-62305800D02*
X96967544Y-62372466D01*
X96967544Y-62372466D02*
X96967544Y-62472466D01*
X96967544Y-62472466D02*
X97000877Y-62539133D01*
X97000877Y-62539133D02*
X97034211Y-62572466D01*
X97034211Y-62572466D02*
X97100877Y-62605800D01*
X97100877Y-62605800D02*
X97367544Y-62605800D01*
X96700877Y-62905800D02*
X96600877Y-62939133D01*
X96600877Y-62939133D02*
X96434211Y-62939133D01*
X96434211Y-62939133D02*
X96367544Y-62905800D01*
X96367544Y-62905800D02*
X96334211Y-62872466D01*
X96334211Y-62872466D02*
X96300877Y-62805800D01*
X96300877Y-62805800D02*
X96300877Y-62739133D01*
X96300877Y-62739133D02*
X96334211Y-62672466D01*
X96334211Y-62672466D02*
X96367544Y-62639133D01*
X96367544Y-62639133D02*
X96434211Y-62605800D01*
X96434211Y-62605800D02*
X96567544Y-62572466D01*
X96567544Y-62572466D02*
X96634211Y-62539133D01*
X96634211Y-62539133D02*
X96667544Y-62505800D01*
X96667544Y-62505800D02*
X96700877Y-62439133D01*
X96700877Y-62439133D02*
X96700877Y-62372466D01*
X96700877Y-62372466D02*
X96667544Y-62305800D01*
X96667544Y-62305800D02*
X96634211Y-62272466D01*
X96634211Y-62272466D02*
X96567544Y-62239133D01*
X96567544Y-62239133D02*
X96400877Y-62239133D01*
X96400877Y-62239133D02*
X96300877Y-62272466D01*
X96100877Y-62239133D02*
X95700877Y-62239133D01*
X95900877Y-62939133D02*
X95900877Y-62239133D01*
X97367544Y-60132466D02*
X96834211Y-60132466D01*
X97100877Y-60399133D02*
X97100877Y-59865800D01*
X96567544Y-59699133D02*
X96134210Y-59699133D01*
X96134210Y-59699133D02*
X96367544Y-59965800D01*
X96367544Y-59965800D02*
X96267544Y-59965800D01*
X96267544Y-59965800D02*
X96200877Y-59999133D01*
X96200877Y-59999133D02*
X96167544Y-60032466D01*
X96167544Y-60032466D02*
X96134210Y-60099133D01*
X96134210Y-60099133D02*
X96134210Y-60265800D01*
X96134210Y-60265800D02*
X96167544Y-60332466D01*
X96167544Y-60332466D02*
X96200877Y-60365800D01*
X96200877Y-60365800D02*
X96267544Y-60399133D01*
X96267544Y-60399133D02*
X96467544Y-60399133D01*
X96467544Y-60399133D02*
X96534210Y-60365800D01*
X96534210Y-60365800D02*
X96567544Y-60332466D01*
X95900877Y-59932466D02*
X95734210Y-60399133D01*
X95734210Y-60399133D02*
X95567543Y-59932466D01*
X97134211Y-57492466D02*
X97034211Y-57525800D01*
X97034211Y-57525800D02*
X97000877Y-57559133D01*
X97000877Y-57559133D02*
X96967544Y-57625800D01*
X96967544Y-57625800D02*
X96967544Y-57725800D01*
X96967544Y-57725800D02*
X97000877Y-57792466D01*
X97000877Y-57792466D02*
X97034211Y-57825800D01*
X97034211Y-57825800D02*
X97100877Y-57859133D01*
X97100877Y-57859133D02*
X97367544Y-57859133D01*
X97367544Y-57859133D02*
X97367544Y-57159133D01*
X97367544Y-57159133D02*
X97134211Y-57159133D01*
X97134211Y-57159133D02*
X97067544Y-57192466D01*
X97067544Y-57192466D02*
X97034211Y-57225800D01*
X97034211Y-57225800D02*
X97000877Y-57292466D01*
X97000877Y-57292466D02*
X97000877Y-57359133D01*
X97000877Y-57359133D02*
X97034211Y-57425800D01*
X97034211Y-57425800D02*
X97067544Y-57459133D01*
X97067544Y-57459133D02*
X97134211Y-57492466D01*
X97134211Y-57492466D02*
X97367544Y-57492466D01*
X96534211Y-57159133D02*
X96400877Y-57159133D01*
X96400877Y-57159133D02*
X96334211Y-57192466D01*
X96334211Y-57192466D02*
X96267544Y-57259133D01*
X96267544Y-57259133D02*
X96234211Y-57392466D01*
X96234211Y-57392466D02*
X96234211Y-57625800D01*
X96234211Y-57625800D02*
X96267544Y-57759133D01*
X96267544Y-57759133D02*
X96334211Y-57825800D01*
X96334211Y-57825800D02*
X96400877Y-57859133D01*
X96400877Y-57859133D02*
X96534211Y-57859133D01*
X96534211Y-57859133D02*
X96600877Y-57825800D01*
X96600877Y-57825800D02*
X96667544Y-57759133D01*
X96667544Y-57759133D02*
X96700877Y-57625800D01*
X96700877Y-57625800D02*
X96700877Y-57392466D01*
X96700877Y-57392466D02*
X96667544Y-57259133D01*
X96667544Y-57259133D02*
X96600877Y-57192466D01*
X96600877Y-57192466D02*
X96534211Y-57159133D01*
X95800878Y-57159133D02*
X95667544Y-57159133D01*
X95667544Y-57159133D02*
X95600878Y-57192466D01*
X95600878Y-57192466D02*
X95534211Y-57259133D01*
X95534211Y-57259133D02*
X95500878Y-57392466D01*
X95500878Y-57392466D02*
X95500878Y-57625800D01*
X95500878Y-57625800D02*
X95534211Y-57759133D01*
X95534211Y-57759133D02*
X95600878Y-57825800D01*
X95600878Y-57825800D02*
X95667544Y-57859133D01*
X95667544Y-57859133D02*
X95800878Y-57859133D01*
X95800878Y-57859133D02*
X95867544Y-57825800D01*
X95867544Y-57825800D02*
X95934211Y-57759133D01*
X95934211Y-57759133D02*
X95967544Y-57625800D01*
X95967544Y-57625800D02*
X95967544Y-57392466D01*
X95967544Y-57392466D02*
X95934211Y-57259133D01*
X95934211Y-57259133D02*
X95867544Y-57192466D01*
X95867544Y-57192466D02*
X95800878Y-57159133D01*
X95300878Y-57159133D02*
X94900878Y-57159133D01*
X95100878Y-57859133D02*
X95100878Y-57159133D01*
X97000877Y-49572466D02*
X97067544Y-49539133D01*
X97067544Y-49539133D02*
X97167544Y-49539133D01*
X97167544Y-49539133D02*
X97267544Y-49572466D01*
X97267544Y-49572466D02*
X97334211Y-49639133D01*
X97334211Y-49639133D02*
X97367544Y-49705800D01*
X97367544Y-49705800D02*
X97400877Y-49839133D01*
X97400877Y-49839133D02*
X97400877Y-49939133D01*
X97400877Y-49939133D02*
X97367544Y-50072466D01*
X97367544Y-50072466D02*
X97334211Y-50139133D01*
X97334211Y-50139133D02*
X97267544Y-50205800D01*
X97267544Y-50205800D02*
X97167544Y-50239133D01*
X97167544Y-50239133D02*
X97100877Y-50239133D01*
X97100877Y-50239133D02*
X97000877Y-50205800D01*
X97000877Y-50205800D02*
X96967544Y-50172466D01*
X96967544Y-50172466D02*
X96967544Y-49939133D01*
X96967544Y-49939133D02*
X97100877Y-49939133D01*
X96667544Y-50239133D02*
X96667544Y-49539133D01*
X96667544Y-49539133D02*
X96267544Y-50239133D01*
X96267544Y-50239133D02*
X96267544Y-49539133D01*
X95934211Y-50239133D02*
X95934211Y-49539133D01*
X95934211Y-49539133D02*
X95767544Y-49539133D01*
X95767544Y-49539133D02*
X95667544Y-49572466D01*
X95667544Y-49572466D02*
X95600878Y-49639133D01*
X95600878Y-49639133D02*
X95567544Y-49705800D01*
X95567544Y-49705800D02*
X95534211Y-49839133D01*
X95534211Y-49839133D02*
X95534211Y-49939133D01*
X95534211Y-49939133D02*
X95567544Y-50072466D01*
X95567544Y-50072466D02*
X95600878Y-50139133D01*
X95600878Y-50139133D02*
X95667544Y-50205800D01*
X95667544Y-50205800D02*
X95767544Y-50239133D01*
X95767544Y-50239133D02*
X95934211Y-50239133D01*
X96967544Y-52779133D02*
X97200877Y-52445800D01*
X97367544Y-52779133D02*
X97367544Y-52079133D01*
X97367544Y-52079133D02*
X97100877Y-52079133D01*
X97100877Y-52079133D02*
X97034211Y-52112466D01*
X97034211Y-52112466D02*
X97000877Y-52145800D01*
X97000877Y-52145800D02*
X96967544Y-52212466D01*
X96967544Y-52212466D02*
X96967544Y-52312466D01*
X96967544Y-52312466D02*
X97000877Y-52379133D01*
X97000877Y-52379133D02*
X97034211Y-52412466D01*
X97034211Y-52412466D02*
X97100877Y-52445800D01*
X97100877Y-52445800D02*
X97367544Y-52445800D01*
X96734211Y-52079133D02*
X96267544Y-52779133D01*
X96267544Y-52079133D02*
X96734211Y-52779133D01*
X96000877Y-52779133D02*
X96000877Y-52079133D01*
X96000877Y-52079133D02*
X95834210Y-52079133D01*
X95834210Y-52079133D02*
X95734210Y-52112466D01*
X95734210Y-52112466D02*
X95667544Y-52179133D01*
X95667544Y-52179133D02*
X95634210Y-52245800D01*
X95634210Y-52245800D02*
X95600877Y-52379133D01*
X95600877Y-52379133D02*
X95600877Y-52479133D01*
X95600877Y-52479133D02*
X95634210Y-52612466D01*
X95634210Y-52612466D02*
X95667544Y-52679133D01*
X95667544Y-52679133D02*
X95734210Y-52745800D01*
X95734210Y-52745800D02*
X95834210Y-52779133D01*
X95834210Y-52779133D02*
X96000877Y-52779133D01*
X97467544Y-54619133D02*
X97067544Y-54619133D01*
X97267544Y-55319133D02*
X97267544Y-54619133D01*
X96900878Y-54619133D02*
X96434211Y-55319133D01*
X96434211Y-54619133D02*
X96900878Y-55319133D01*
X96167544Y-55319133D02*
X96167544Y-54619133D01*
X96167544Y-54619133D02*
X96000877Y-54619133D01*
X96000877Y-54619133D02*
X95900877Y-54652466D01*
X95900877Y-54652466D02*
X95834211Y-54719133D01*
X95834211Y-54719133D02*
X95800877Y-54785800D01*
X95800877Y-54785800D02*
X95767544Y-54919133D01*
X95767544Y-54919133D02*
X95767544Y-55019133D01*
X95767544Y-55019133D02*
X95800877Y-55152466D01*
X95800877Y-55152466D02*
X95834211Y-55219133D01*
X95834211Y-55219133D02*
X95900877Y-55285800D01*
X95900877Y-55285800D02*
X96000877Y-55319133D01*
X96000877Y-55319133D02*
X96167544Y-55319133D01*
X88423239Y-60338095D02*
X88423239Y-59861905D01*
X88137524Y-60433333D02*
X89137524Y-60100000D01*
X89137524Y-60100000D02*
X88137524Y-59766667D01*
X88137524Y-59433333D02*
X89137524Y-59433333D01*
X89137524Y-59433333D02*
X89137524Y-59195238D01*
X89137524Y-59195238D02*
X89089905Y-59052381D01*
X89089905Y-59052381D02*
X88994667Y-58957143D01*
X88994667Y-58957143D02*
X88899429Y-58909524D01*
X88899429Y-58909524D02*
X88708953Y-58861905D01*
X88708953Y-58861905D02*
X88566096Y-58861905D01*
X88566096Y-58861905D02*
X88375620Y-58909524D01*
X88375620Y-58909524D02*
X88280382Y-58957143D01*
X88280382Y-58957143D02*
X88185144Y-59052381D01*
X88185144Y-59052381D02*
X88137524Y-59195238D01*
X88137524Y-59195238D02*
X88137524Y-59433333D01*
X88661334Y-58100000D02*
X88613715Y-57957143D01*
X88613715Y-57957143D02*
X88566096Y-57909524D01*
X88566096Y-57909524D02*
X88470858Y-57861905D01*
X88470858Y-57861905D02*
X88328001Y-57861905D01*
X88328001Y-57861905D02*
X88232763Y-57909524D01*
X88232763Y-57909524D02*
X88185144Y-57957143D01*
X88185144Y-57957143D02*
X88137524Y-58052381D01*
X88137524Y-58052381D02*
X88137524Y-58433333D01*
X88137524Y-58433333D02*
X89137524Y-58433333D01*
X89137524Y-58433333D02*
X89137524Y-58100000D01*
X89137524Y-58100000D02*
X89089905Y-58004762D01*
X89089905Y-58004762D02*
X89042286Y-57957143D01*
X89042286Y-57957143D02*
X88947048Y-57909524D01*
X88947048Y-57909524D02*
X88851810Y-57909524D01*
X88851810Y-57909524D02*
X88756572Y-57957143D01*
X88756572Y-57957143D02*
X88708953Y-58004762D01*
X88708953Y-58004762D02*
X88661334Y-58100000D01*
X88661334Y-58100000D02*
X88661334Y-58433333D01*
X88804191Y-57004762D02*
X88137524Y-57004762D01*
X88804191Y-57433333D02*
X88280382Y-57433333D01*
X88280382Y-57433333D02*
X88185144Y-57385714D01*
X88185144Y-57385714D02*
X88137524Y-57290476D01*
X88137524Y-57290476D02*
X88137524Y-57147619D01*
X88137524Y-57147619D02*
X88185144Y-57052381D01*
X88185144Y-57052381D02*
X88232763Y-57004762D01*
X88137524Y-56528571D02*
X88804191Y-56528571D01*
X89137524Y-56528571D02*
X89089905Y-56576190D01*
X89089905Y-56576190D02*
X89042286Y-56528571D01*
X89042286Y-56528571D02*
X89089905Y-56480952D01*
X89089905Y-56480952D02*
X89137524Y-56528571D01*
X89137524Y-56528571D02*
X89042286Y-56528571D01*
X88804191Y-56052381D02*
X88137524Y-56052381D01*
X88708953Y-56052381D02*
X88756572Y-56004762D01*
X88756572Y-56004762D02*
X88804191Y-55909524D01*
X88804191Y-55909524D02*
X88804191Y-55766667D01*
X88804191Y-55766667D02*
X88756572Y-55671429D01*
X88756572Y-55671429D02*
X88661334Y-55623810D01*
X88661334Y-55623810D02*
X88137524Y-55623810D01*
X88137524Y-55004762D02*
X88185144Y-55100000D01*
X88185144Y-55100000D02*
X88232763Y-55147619D01*
X88232763Y-55147619D02*
X88328001Y-55195238D01*
X88328001Y-55195238D02*
X88613715Y-55195238D01*
X88613715Y-55195238D02*
X88708953Y-55147619D01*
X88708953Y-55147619D02*
X88756572Y-55100000D01*
X88756572Y-55100000D02*
X88804191Y-55004762D01*
X88804191Y-55004762D02*
X88804191Y-54861905D01*
X88804191Y-54861905D02*
X88756572Y-54766667D01*
X88756572Y-54766667D02*
X88708953Y-54719048D01*
X88708953Y-54719048D02*
X88613715Y-54671429D01*
X88613715Y-54671429D02*
X88328001Y-54671429D01*
X88328001Y-54671429D02*
X88232763Y-54719048D01*
X88232763Y-54719048D02*
X88185144Y-54766667D01*
X88185144Y-54766667D02*
X88137524Y-54861905D01*
X88137524Y-54861905D02*
X88137524Y-55004762D01*
X88661334Y-53147619D02*
X88613715Y-53004762D01*
X88613715Y-53004762D02*
X88566096Y-52957143D01*
X88566096Y-52957143D02*
X88470858Y-52909524D01*
X88470858Y-52909524D02*
X88328001Y-52909524D01*
X88328001Y-52909524D02*
X88232763Y-52957143D01*
X88232763Y-52957143D02*
X88185144Y-53004762D01*
X88185144Y-53004762D02*
X88137524Y-53100000D01*
X88137524Y-53100000D02*
X88137524Y-53480952D01*
X88137524Y-53480952D02*
X89137524Y-53480952D01*
X89137524Y-53480952D02*
X89137524Y-53147619D01*
X89137524Y-53147619D02*
X89089905Y-53052381D01*
X89089905Y-53052381D02*
X89042286Y-53004762D01*
X89042286Y-53004762D02*
X88947048Y-52957143D01*
X88947048Y-52957143D02*
X88851810Y-52957143D01*
X88851810Y-52957143D02*
X88756572Y-53004762D01*
X88756572Y-53004762D02*
X88708953Y-53052381D01*
X88708953Y-53052381D02*
X88661334Y-53147619D01*
X88661334Y-53147619D02*
X88661334Y-53480952D01*
X88185144Y-52100000D02*
X88137524Y-52195238D01*
X88137524Y-52195238D02*
X88137524Y-52385714D01*
X88137524Y-52385714D02*
X88185144Y-52480952D01*
X88185144Y-52480952D02*
X88280382Y-52528571D01*
X88280382Y-52528571D02*
X88661334Y-52528571D01*
X88661334Y-52528571D02*
X88756572Y-52480952D01*
X88756572Y-52480952D02*
X88804191Y-52385714D01*
X88804191Y-52385714D02*
X88804191Y-52195238D01*
X88804191Y-52195238D02*
X88756572Y-52100000D01*
X88756572Y-52100000D02*
X88661334Y-52052381D01*
X88661334Y-52052381D02*
X88566096Y-52052381D01*
X88566096Y-52052381D02*
X88470858Y-52528571D01*
X88804191Y-51766666D02*
X88804191Y-51385714D01*
X89137524Y-51623809D02*
X88280382Y-51623809D01*
X88280382Y-51623809D02*
X88185144Y-51576190D01*
X88185144Y-51576190D02*
X88137524Y-51480952D01*
X88137524Y-51480952D02*
X88137524Y-51385714D01*
X88137524Y-50623809D02*
X88661334Y-50623809D01*
X88661334Y-50623809D02*
X88756572Y-50671428D01*
X88756572Y-50671428D02*
X88804191Y-50766666D01*
X88804191Y-50766666D02*
X88804191Y-50957142D01*
X88804191Y-50957142D02*
X88756572Y-51052380D01*
X88185144Y-50623809D02*
X88137524Y-50719047D01*
X88137524Y-50719047D02*
X88137524Y-50957142D01*
X88137524Y-50957142D02*
X88185144Y-51052380D01*
X88185144Y-51052380D02*
X88280382Y-51099999D01*
X88280382Y-51099999D02*
X88375620Y-51099999D01*
X88375620Y-51099999D02*
X88470858Y-51052380D01*
X88470858Y-51052380D02*
X88518477Y-50957142D01*
X88518477Y-50957142D02*
X88518477Y-50719047D01*
X88518477Y-50719047D02*
X88566096Y-50623809D01*
X88804191Y-48957142D02*
X88137524Y-48957142D01*
X89185144Y-49195237D02*
X88470858Y-49433332D01*
X88470858Y-49433332D02*
X88470858Y-48814285D01*
X86146628Y-60290477D02*
X86194247Y-60338096D01*
X86194247Y-60338096D02*
X86337104Y-60433334D01*
X86337104Y-60433334D02*
X86432342Y-60480953D01*
X86432342Y-60480953D02*
X86575200Y-60528572D01*
X86575200Y-60528572D02*
X86813295Y-60576191D01*
X86813295Y-60576191D02*
X87003771Y-60576191D01*
X87003771Y-60576191D02*
X87241866Y-60528572D01*
X87241866Y-60528572D02*
X87384723Y-60480953D01*
X87384723Y-60480953D02*
X87479961Y-60433334D01*
X87479961Y-60433334D02*
X87622819Y-60338096D01*
X87622819Y-60338096D02*
X87670438Y-60290477D01*
X86575200Y-59480953D02*
X86527580Y-59576191D01*
X86527580Y-59576191D02*
X86527580Y-59766667D01*
X86527580Y-59766667D02*
X86575200Y-59861905D01*
X86575200Y-59861905D02*
X86622819Y-59909524D01*
X86622819Y-59909524D02*
X86718057Y-59957143D01*
X86718057Y-59957143D02*
X87003771Y-59957143D01*
X87003771Y-59957143D02*
X87099009Y-59909524D01*
X87099009Y-59909524D02*
X87146628Y-59861905D01*
X87146628Y-59861905D02*
X87194247Y-59766667D01*
X87194247Y-59766667D02*
X87194247Y-59576191D01*
X87194247Y-59576191D02*
X87146628Y-59480953D01*
X86146628Y-59147619D02*
X86194247Y-59100000D01*
X86194247Y-59100000D02*
X86337104Y-59004762D01*
X86337104Y-59004762D02*
X86432342Y-58957143D01*
X86432342Y-58957143D02*
X86575200Y-58909524D01*
X86575200Y-58909524D02*
X86813295Y-58861905D01*
X86813295Y-58861905D02*
X87003771Y-58861905D01*
X87003771Y-58861905D02*
X87241866Y-58909524D01*
X87241866Y-58909524D02*
X87384723Y-58957143D01*
X87384723Y-58957143D02*
X87479961Y-59004762D01*
X87479961Y-59004762D02*
X87622819Y-59100000D01*
X87622819Y-59100000D02*
X87670438Y-59147619D01*
X86527580Y-57195238D02*
X87051390Y-57195238D01*
X87051390Y-57195238D02*
X87146628Y-57242857D01*
X87146628Y-57242857D02*
X87194247Y-57338095D01*
X87194247Y-57338095D02*
X87194247Y-57528571D01*
X87194247Y-57528571D02*
X87146628Y-57623809D01*
X86575200Y-57195238D02*
X86527580Y-57290476D01*
X86527580Y-57290476D02*
X86527580Y-57528571D01*
X86527580Y-57528571D02*
X86575200Y-57623809D01*
X86575200Y-57623809D02*
X86670438Y-57671428D01*
X86670438Y-57671428D02*
X86765676Y-57671428D01*
X86765676Y-57671428D02*
X86860914Y-57623809D01*
X86860914Y-57623809D02*
X86908533Y-57528571D01*
X86908533Y-57528571D02*
X86908533Y-57290476D01*
X86908533Y-57290476D02*
X86956152Y-57195238D01*
X86527580Y-56719047D02*
X87527580Y-56719047D01*
X86908533Y-56623809D02*
X86527580Y-56338095D01*
X87194247Y-56338095D02*
X86813295Y-56719047D01*
X87194247Y-55480952D02*
X86527580Y-55480952D01*
X87194247Y-55909523D02*
X86670438Y-55909523D01*
X86670438Y-55909523D02*
X86575200Y-55861904D01*
X86575200Y-55861904D02*
X86527580Y-55766666D01*
X86527580Y-55766666D02*
X86527580Y-55623809D01*
X86527580Y-55623809D02*
X86575200Y-55528571D01*
X86575200Y-55528571D02*
X86622819Y-55480952D01*
X86527580Y-55004761D02*
X87527580Y-55004761D01*
X86908533Y-54909523D02*
X86527580Y-54623809D01*
X87194247Y-54623809D02*
X86813295Y-55004761D01*
X86575200Y-53814285D02*
X86527580Y-53909523D01*
X86527580Y-53909523D02*
X86527580Y-54099999D01*
X86527580Y-54099999D02*
X86575200Y-54195237D01*
X86575200Y-54195237D02*
X86670438Y-54242856D01*
X86670438Y-54242856D02*
X87051390Y-54242856D01*
X87051390Y-54242856D02*
X87146628Y-54195237D01*
X87146628Y-54195237D02*
X87194247Y-54099999D01*
X87194247Y-54099999D02*
X87194247Y-53909523D01*
X87194247Y-53909523D02*
X87146628Y-53814285D01*
X87146628Y-53814285D02*
X87051390Y-53766666D01*
X87051390Y-53766666D02*
X86956152Y-53766666D01*
X86956152Y-53766666D02*
X86860914Y-54242856D01*
X86527580Y-53338094D02*
X87194247Y-53338094D01*
X87003771Y-53338094D02*
X87099009Y-53290475D01*
X87099009Y-53290475D02*
X87146628Y-53242856D01*
X87146628Y-53242856D02*
X87194247Y-53147618D01*
X87194247Y-53147618D02*
X87194247Y-53052380D01*
X87432342Y-52004760D02*
X87479961Y-51957141D01*
X87479961Y-51957141D02*
X87527580Y-51861903D01*
X87527580Y-51861903D02*
X87527580Y-51623808D01*
X87527580Y-51623808D02*
X87479961Y-51528570D01*
X87479961Y-51528570D02*
X87432342Y-51480951D01*
X87432342Y-51480951D02*
X87337104Y-51433332D01*
X87337104Y-51433332D02*
X87241866Y-51433332D01*
X87241866Y-51433332D02*
X87099009Y-51480951D01*
X87099009Y-51480951D02*
X86527580Y-52052379D01*
X86527580Y-52052379D02*
X86527580Y-51433332D01*
X87527580Y-50814284D02*
X87527580Y-50719046D01*
X87527580Y-50719046D02*
X87479961Y-50623808D01*
X87479961Y-50623808D02*
X87432342Y-50576189D01*
X87432342Y-50576189D02*
X87337104Y-50528570D01*
X87337104Y-50528570D02*
X87146628Y-50480951D01*
X87146628Y-50480951D02*
X86908533Y-50480951D01*
X86908533Y-50480951D02*
X86718057Y-50528570D01*
X86718057Y-50528570D02*
X86622819Y-50576189D01*
X86622819Y-50576189D02*
X86575200Y-50623808D01*
X86575200Y-50623808D02*
X86527580Y-50719046D01*
X86527580Y-50719046D02*
X86527580Y-50814284D01*
X86527580Y-50814284D02*
X86575200Y-50909522D01*
X86575200Y-50909522D02*
X86622819Y-50957141D01*
X86622819Y-50957141D02*
X86718057Y-51004760D01*
X86718057Y-51004760D02*
X86908533Y-51052379D01*
X86908533Y-51052379D02*
X87146628Y-51052379D01*
X87146628Y-51052379D02*
X87337104Y-51004760D01*
X87337104Y-51004760D02*
X87432342Y-50957141D01*
X87432342Y-50957141D02*
X87479961Y-50909522D01*
X87479961Y-50909522D02*
X87527580Y-50814284D01*
X87432342Y-50099998D02*
X87479961Y-50052379D01*
X87479961Y-50052379D02*
X87527580Y-49957141D01*
X87527580Y-49957141D02*
X87527580Y-49719046D01*
X87527580Y-49719046D02*
X87479961Y-49623808D01*
X87479961Y-49623808D02*
X87432342Y-49576189D01*
X87432342Y-49576189D02*
X87337104Y-49528570D01*
X87337104Y-49528570D02*
X87241866Y-49528570D01*
X87241866Y-49528570D02*
X87099009Y-49576189D01*
X87099009Y-49576189D02*
X86527580Y-50147617D01*
X86527580Y-50147617D02*
X86527580Y-49528570D01*
X87194247Y-48671427D02*
X86527580Y-48671427D01*
X87575200Y-48909522D02*
X86860914Y-49147617D01*
X86860914Y-49147617D02*
X86860914Y-48528570D01*
X102116666Y-59218633D02*
X102349999Y-58885300D01*
X102516666Y-59218633D02*
X102516666Y-58518633D01*
X102516666Y-58518633D02*
X102249999Y-58518633D01*
X102249999Y-58518633D02*
X102183333Y-58551966D01*
X102183333Y-58551966D02*
X102149999Y-58585300D01*
X102149999Y-58585300D02*
X102116666Y-58651966D01*
X102116666Y-58651966D02*
X102116666Y-58751966D01*
X102116666Y-58751966D02*
X102149999Y-58818633D01*
X102149999Y-58818633D02*
X102183333Y-58851966D01*
X102183333Y-58851966D02*
X102249999Y-58885300D01*
X102249999Y-58885300D02*
X102516666Y-58885300D01*
X101883333Y-58518633D02*
X101449999Y-58518633D01*
X101449999Y-58518633D02*
X101683333Y-58785300D01*
X101683333Y-58785300D02*
X101583333Y-58785300D01*
X101583333Y-58785300D02*
X101516666Y-58818633D01*
X101516666Y-58818633D02*
X101483333Y-58851966D01*
X101483333Y-58851966D02*
X101449999Y-58918633D01*
X101449999Y-58918633D02*
X101449999Y-59085300D01*
X101449999Y-59085300D02*
X101483333Y-59151966D01*
X101483333Y-59151966D02*
X101516666Y-59185300D01*
X101516666Y-59185300D02*
X101583333Y-59218633D01*
X101583333Y-59218633D02*
X101783333Y-59218633D01*
X101783333Y-59218633D02*
X101849999Y-59185300D01*
X101849999Y-59185300D02*
X101883333Y-59151966D01*
X102116666Y-51418633D02*
X102349999Y-51085300D01*
X102516666Y-51418633D02*
X102516666Y-50718633D01*
X102516666Y-50718633D02*
X102249999Y-50718633D01*
X102249999Y-50718633D02*
X102183333Y-50751966D01*
X102183333Y-50751966D02*
X102149999Y-50785300D01*
X102149999Y-50785300D02*
X102116666Y-50851966D01*
X102116666Y-50851966D02*
X102116666Y-50951966D01*
X102116666Y-50951966D02*
X102149999Y-51018633D01*
X102149999Y-51018633D02*
X102183333Y-51051966D01*
X102183333Y-51051966D02*
X102249999Y-51085300D01*
X102249999Y-51085300D02*
X102516666Y-51085300D01*
X101849999Y-50785300D02*
X101816666Y-50751966D01*
X101816666Y-50751966D02*
X101749999Y-50718633D01*
X101749999Y-50718633D02*
X101583333Y-50718633D01*
X101583333Y-50718633D02*
X101516666Y-50751966D01*
X101516666Y-50751966D02*
X101483333Y-50785300D01*
X101483333Y-50785300D02*
X101449999Y-50851966D01*
X101449999Y-50851966D02*
X101449999Y-50918633D01*
X101449999Y-50918633D02*
X101483333Y-51018633D01*
X101483333Y-51018633D02*
X101883333Y-51418633D01*
X101883333Y-51418633D02*
X101449999Y-51418633D01*
X111216666Y-47118633D02*
X111216666Y-46418633D01*
X111216666Y-46418633D02*
X111049999Y-46418633D01*
X111049999Y-46418633D02*
X110949999Y-46451966D01*
X110949999Y-46451966D02*
X110883333Y-46518633D01*
X110883333Y-46518633D02*
X110849999Y-46585300D01*
X110849999Y-46585300D02*
X110816666Y-46718633D01*
X110816666Y-46718633D02*
X110816666Y-46818633D01*
X110816666Y-46818633D02*
X110849999Y-46951966D01*
X110849999Y-46951966D02*
X110883333Y-47018633D01*
X110883333Y-47018633D02*
X110949999Y-47085300D01*
X110949999Y-47085300D02*
X111049999Y-47118633D01*
X111049999Y-47118633D02*
X111216666Y-47118633D01*
X110549999Y-46485300D02*
X110516666Y-46451966D01*
X110516666Y-46451966D02*
X110449999Y-46418633D01*
X110449999Y-46418633D02*
X110283333Y-46418633D01*
X110283333Y-46418633D02*
X110216666Y-46451966D01*
X110216666Y-46451966D02*
X110183333Y-46485300D01*
X110183333Y-46485300D02*
X110149999Y-46551966D01*
X110149999Y-46551966D02*
X110149999Y-46618633D01*
X110149999Y-46618633D02*
X110183333Y-46718633D01*
X110183333Y-46718633D02*
X110583333Y-47118633D01*
X110583333Y-47118633D02*
X110149999Y-47118633D01*
X107651966Y-49283333D02*
X107685300Y-49250000D01*
X107685300Y-49250000D02*
X107718633Y-49150000D01*
X107718633Y-49150000D02*
X107718633Y-49083333D01*
X107718633Y-49083333D02*
X107685300Y-48983333D01*
X107685300Y-48983333D02*
X107618633Y-48916667D01*
X107618633Y-48916667D02*
X107551966Y-48883333D01*
X107551966Y-48883333D02*
X107418633Y-48850000D01*
X107418633Y-48850000D02*
X107318633Y-48850000D01*
X107318633Y-48850000D02*
X107185300Y-48883333D01*
X107185300Y-48883333D02*
X107118633Y-48916667D01*
X107118633Y-48916667D02*
X107051966Y-48983333D01*
X107051966Y-48983333D02*
X107018633Y-49083333D01*
X107018633Y-49083333D02*
X107018633Y-49150000D01*
X107018633Y-49150000D02*
X107051966Y-49250000D01*
X107051966Y-49250000D02*
X107085300Y-49283333D01*
X107251966Y-49883333D02*
X107718633Y-49883333D01*
X106985300Y-49716667D02*
X107485300Y-49550000D01*
X107485300Y-49550000D02*
X107485300Y-49983333D01*
X107751966Y-60583333D02*
X107785300Y-60550000D01*
X107785300Y-60550000D02*
X107818633Y-60450000D01*
X107818633Y-60450000D02*
X107818633Y-60383333D01*
X107818633Y-60383333D02*
X107785300Y-60283333D01*
X107785300Y-60283333D02*
X107718633Y-60216667D01*
X107718633Y-60216667D02*
X107651966Y-60183333D01*
X107651966Y-60183333D02*
X107518633Y-60150000D01*
X107518633Y-60150000D02*
X107418633Y-60150000D01*
X107418633Y-60150000D02*
X107285300Y-60183333D01*
X107285300Y-60183333D02*
X107218633Y-60216667D01*
X107218633Y-60216667D02*
X107151966Y-60283333D01*
X107151966Y-60283333D02*
X107118633Y-60383333D01*
X107118633Y-60383333D02*
X107118633Y-60450000D01*
X107118633Y-60450000D02*
X107151966Y-60550000D01*
X107151966Y-60550000D02*
X107185300Y-60583333D01*
X107185300Y-60850000D02*
X107151966Y-60883333D01*
X107151966Y-60883333D02*
X107118633Y-60950000D01*
X107118633Y-60950000D02*
X107118633Y-61116667D01*
X107118633Y-61116667D02*
X107151966Y-61183333D01*
X107151966Y-61183333D02*
X107185300Y-61216667D01*
X107185300Y-61216667D02*
X107251966Y-61250000D01*
X107251966Y-61250000D02*
X107318633Y-61250000D01*
X107318633Y-61250000D02*
X107418633Y-61216667D01*
X107418633Y-61216667D02*
X107818633Y-60816667D01*
X107818633Y-60816667D02*
X107818633Y-61250000D01*
X109518633Y-54466666D02*
X110085300Y-54466666D01*
X110085300Y-54466666D02*
X110151966Y-54500000D01*
X110151966Y-54500000D02*
X110185300Y-54533333D01*
X110185300Y-54533333D02*
X110218633Y-54600000D01*
X110218633Y-54600000D02*
X110218633Y-54733333D01*
X110218633Y-54733333D02*
X110185300Y-54800000D01*
X110185300Y-54800000D02*
X110151966Y-54833333D01*
X110151966Y-54833333D02*
X110085300Y-54866666D01*
X110085300Y-54866666D02*
X109518633Y-54866666D01*
X109518633Y-55133333D02*
X109518633Y-55566666D01*
X109518633Y-55566666D02*
X109785300Y-55333333D01*
X109785300Y-55333333D02*
X109785300Y-55433333D01*
X109785300Y-55433333D02*
X109818633Y-55499999D01*
X109818633Y-55499999D02*
X109851966Y-55533333D01*
X109851966Y-55533333D02*
X109918633Y-55566666D01*
X109918633Y-55566666D02*
X110085300Y-55566666D01*
X110085300Y-55566666D02*
X110151966Y-55533333D01*
X110151966Y-55533333D02*
X110185300Y-55499999D01*
X110185300Y-55499999D02*
X110218633Y-55433333D01*
X110218633Y-55433333D02*
X110218633Y-55233333D01*
X110218633Y-55233333D02*
X110185300Y-55166666D01*
X110185300Y-55166666D02*
X110151966Y-55133333D01*
X99133333Y-47518633D02*
X99133333Y-48018633D01*
X99133333Y-48018633D02*
X99166666Y-48118633D01*
X99166666Y-48118633D02*
X99233333Y-48185300D01*
X99233333Y-48185300D02*
X99333333Y-48218633D01*
X99333333Y-48218633D02*
X99400000Y-48218633D01*
X98833333Y-47585300D02*
X98800000Y-47551966D01*
X98800000Y-47551966D02*
X98733333Y-47518633D01*
X98733333Y-47518633D02*
X98566667Y-47518633D01*
X98566667Y-47518633D02*
X98500000Y-47551966D01*
X98500000Y-47551966D02*
X98466667Y-47585300D01*
X98466667Y-47585300D02*
X98433333Y-47651966D01*
X98433333Y-47651966D02*
X98433333Y-47718633D01*
X98433333Y-47718633D02*
X98466667Y-47818633D01*
X98466667Y-47818633D02*
X98866667Y-48218633D01*
X98866667Y-48218633D02*
X98433333Y-48218633D01*
X109351966Y-49283333D02*
X109385300Y-49250000D01*
X109385300Y-49250000D02*
X109418633Y-49150000D01*
X109418633Y-49150000D02*
X109418633Y-49083333D01*
X109418633Y-49083333D02*
X109385300Y-48983333D01*
X109385300Y-48983333D02*
X109318633Y-48916667D01*
X109318633Y-48916667D02*
X109251966Y-48883333D01*
X109251966Y-48883333D02*
X109118633Y-48850000D01*
X109118633Y-48850000D02*
X109018633Y-48850000D01*
X109018633Y-48850000D02*
X108885300Y-48883333D01*
X108885300Y-48883333D02*
X108818633Y-48916667D01*
X108818633Y-48916667D02*
X108751966Y-48983333D01*
X108751966Y-48983333D02*
X108718633Y-49083333D01*
X108718633Y-49083333D02*
X108718633Y-49150000D01*
X108718633Y-49150000D02*
X108751966Y-49250000D01*
X108751966Y-49250000D02*
X108785300Y-49283333D01*
X108718633Y-49516667D02*
X108718633Y-49950000D01*
X108718633Y-49950000D02*
X108985300Y-49716667D01*
X108985300Y-49716667D02*
X108985300Y-49816667D01*
X108985300Y-49816667D02*
X109018633Y-49883333D01*
X109018633Y-49883333D02*
X109051966Y-49916667D01*
X109051966Y-49916667D02*
X109118633Y-49950000D01*
X109118633Y-49950000D02*
X109285300Y-49950000D01*
X109285300Y-49950000D02*
X109351966Y-49916667D01*
X109351966Y-49916667D02*
X109385300Y-49883333D01*
X109385300Y-49883333D02*
X109418633Y-49816667D01*
X109418633Y-49816667D02*
X109418633Y-49616667D01*
X109418633Y-49616667D02*
X109385300Y-49550000D01*
X109385300Y-49550000D02*
X109351966Y-49516667D01*
X104373633Y-50341666D02*
X104940300Y-50341666D01*
X104940300Y-50341666D02*
X105006966Y-50375000D01*
X105006966Y-50375000D02*
X105040300Y-50408333D01*
X105040300Y-50408333D02*
X105073633Y-50475000D01*
X105073633Y-50475000D02*
X105073633Y-50608333D01*
X105073633Y-50608333D02*
X105040300Y-50675000D01*
X105040300Y-50675000D02*
X105006966Y-50708333D01*
X105006966Y-50708333D02*
X104940300Y-50741666D01*
X104940300Y-50741666D02*
X104373633Y-50741666D01*
X104440300Y-51041666D02*
X104406966Y-51074999D01*
X104406966Y-51074999D02*
X104373633Y-51141666D01*
X104373633Y-51141666D02*
X104373633Y-51308333D01*
X104373633Y-51308333D02*
X104406966Y-51374999D01*
X104406966Y-51374999D02*
X104440300Y-51408333D01*
X104440300Y-51408333D02*
X104506966Y-51441666D01*
X104506966Y-51441666D02*
X104573633Y-51441666D01*
X104573633Y-51441666D02*
X104673633Y-51408333D01*
X104673633Y-51408333D02*
X105073633Y-51008333D01*
X105073633Y-51008333D02*
X105073633Y-51441666D01*
D11*
%TO.C,R3*%
X102522500Y-56545276D02*
X102522500Y-57054724D01*
X101477500Y-56545276D02*
X101477500Y-57054724D01*
%TO.C,R2*%
X101477500Y-53454724D02*
X101477500Y-52945276D01*
X102522500Y-53454724D02*
X102522500Y-52945276D01*
%TO.C,D2*%
X106340000Y-47635000D02*
X108800000Y-47635000D01*
X108800000Y-46165000D02*
X106340000Y-46165000D01*
X106340000Y-46165000D02*
X106340000Y-47635000D01*
%TO.C,C4*%
X106990000Y-51853733D02*
X106990000Y-52146267D01*
X108010000Y-51853733D02*
X108010000Y-52146267D01*
%TO.C,C2*%
X108010000Y-58146267D02*
X108010000Y-57853733D01*
X106990000Y-58146267D02*
X106990000Y-57853733D01*
%TO.C,U3*%
X108900000Y-55450000D02*
X108900000Y-54350000D01*
X107100000Y-55650000D02*
X107100000Y-54350000D01*
X108900000Y-55980000D02*
X108900000Y-55700000D01*
X109180000Y-55700000D01*
X108900000Y-55980000D01*
G36*
X108900000Y-55980000D02*
G01*
X108900000Y-55700000D01*
X109180000Y-55700000D01*
X108900000Y-55980000D01*
G37*
%TO.C,TP2*%
X99700000Y-62615000D02*
G75*
G02*
X98300000Y-62615000I-700000J0D01*
G01*
X98300000Y-62615000D02*
G75*
G02*
X99700000Y-62615000I700000J0D01*
G01*
%TO.C,J2*%
X100330000Y-48585000D02*
X100330000Y-58805000D01*
X100330000Y-48585000D02*
X97670000Y-48585000D01*
X100330000Y-58805000D02*
X97670000Y-58805000D01*
X97670000Y-48585000D02*
X97670000Y-58805000D01*
X97670000Y-61405000D02*
X97670000Y-60075000D01*
X99000000Y-61405000D02*
X97670000Y-61405000D01*
%TO.C,C3*%
X108490000Y-51853733D02*
X108490000Y-52146267D01*
X109510000Y-51853733D02*
X109510000Y-52146267D01*
%TO.C,U2*%
X102890000Y-53500000D02*
X102890000Y-55000000D01*
X102890000Y-56500000D02*
X102890000Y-55000000D01*
X106110000Y-53500000D02*
X106110000Y-55000000D01*
X106110000Y-56500000D02*
X106110000Y-55000000D01*
X106265000Y-57452500D02*
X105935000Y-57212500D01*
X106265000Y-56972500D01*
X106265000Y-57452500D01*
G36*
X106265000Y-57452500D02*
G01*
X105935000Y-57212500D01*
X106265000Y-56972500D01*
X106265000Y-57452500D01*
G37*
%TD*%
%LPC*%
D12*
%TO.C,R3*%
X102000000Y-57712500D03*
X102000000Y-55887500D03*
%TD*%
D13*
%TO.C,R2*%
X102000000Y-52287500D03*
X102000000Y-54112500D03*
%TD*%
D14*
%TO.C,J4*%
X94500000Y-51500000D03*
D15*
X94500000Y-54000000D03*
X94500000Y-56000000D03*
X94500000Y-58500000D03*
D16*
X91790000Y-48430000D03*
X91790000Y-61570000D03*
%TD*%
D17*
%TO.C,J3*%
X112300000Y-55000000D03*
D18*
X113000000Y-48600000D03*
X113000000Y-61400000D03*
%TD*%
D19*
%TO.C,H3*%
X103000000Y-48000000D03*
%TD*%
%TO.C,H2*%
X103000000Y-62000000D03*
%TD*%
D20*
%TO.C,D2*%
X108875000Y-46900000D03*
X107125000Y-46900000D03*
%TD*%
D21*
%TO.C,C4*%
X107500000Y-51137500D03*
X107500000Y-52862500D03*
%TD*%
D22*
%TO.C,C2*%
X107500000Y-58862500D03*
X107500000Y-57137500D03*
%TD*%
D23*
%TO.C,U3*%
X108500000Y-55700000D03*
X108000000Y-55700000D03*
X107500000Y-55700000D03*
X107500000Y-54300000D03*
X108500000Y-54300000D03*
%TD*%
D24*
%TO.C,TP2*%
X99000000Y-62615000D03*
%TD*%
D25*
%TO.C,J2*%
X99000000Y-49915000D03*
X99000000Y-52455000D03*
X99000000Y-54995000D03*
X99000000Y-57535000D03*
D26*
X99000000Y-60075000D03*
%TD*%
D21*
%TO.C,C3*%
X109000000Y-51137500D03*
X109000000Y-52862500D03*
%TD*%
D27*
%TO.C,U2*%
X105500000Y-57112500D03*
X105000000Y-57112500D03*
X104500000Y-57112500D03*
X104000000Y-57112500D03*
X103500000Y-57112500D03*
X103500000Y-52887500D03*
X104000000Y-52887500D03*
X104500000Y-52887500D03*
X105000000Y-52887500D03*
X105500000Y-52887500D03*
%TD*%
%LPD*%
M02*
